0
SECTION
2
HEADER
9
$INSUNITS
70
4
9
$ACADVER
1
AC1014
9
$HANDSEED
5
FFFF
0
ENDSEC
0
SECTION
2
TABLES
0
TABLE
2
VPORT
5
8
100
AcDbSymbolTable
0
ENDTAB
0
TABLE
2
LTYPE
5
5
100
AcDbSymbolTable
0
LTYPE
5
14
100
AcDbSymbolTableRecord
100
AcDbLinetypeTableRecord
2
BYBLOCK
70
0
0
LTYPE
5
15
100
AcDbSymbolTableRecord
100
AcDbLinetypeTableRecord
2
BYLAYER
70
0
0
ENDTAB
0
TABLE
2
LAYER
5
2
100
AcDbSymbolTable
70
2
0
LAYER
5
50
100
AcDbSymbolTableRecord
100
AcDbLayerTableRecord
2
0
70
0
6
CONTINUOUS
0
ENDTAB
0
TABLE
2
STYLE
5
3
100
AcDbSymbolTable
70
1
0
STYLE
5
11
100
AcDbSymbolTableRecord
100
AcDbTextStyleTableRecord
2
STANDARD
70
0
0
ENDTAB
0
TABLE
2
VIEW
5
6
100
AcDbSymbolTable
70
0
0
ENDTAB
0
TABLE
2
UCS
5
7
100
AcDbSymbolTable
70
0
0
ENDTAB
0
TABLE
2
APPID
5
9
100
AcDbSymbolTable
70
2
0
APPID
5
12
100
AcDbSymbolTableRecord
100
AcDbRegAppTableRecord
2
ACAD
70
0
0
ENDTAB
0
TABLE
2
DIMSTYLE
5
A
100
AcDbSymbolTable
70
1
0
ENDTAB
0
TABLE
2
BLOCK_RECORD
5
1
100
AcDbSymbolTable
70
1
0
BLOCK_RECORD
5
1F
100
AcDbSymbolTableRecord
100
AcDbBlockTableRecord
2
*MODEL_SPACE
0
BLOCK_RECORD
5
1B
100
AcDbSymbolTableRecord
100
AcDbBlockTableRecord
2
*PAPER_SPACE
0
ENDTAB
0
ENDSEC
0
SECTION
2
BLOCKS
0
BLOCK
5
20
100
AcDbEntity
100
AcDbBlockBegin
2
*MODEL_SPACE
0
ENDBLK
5
21
100
AcDbEntity
100
AcDbBlockEnd
0
BLOCK
5
1C
100
AcDbEntity
100
AcDbBlockBegin
2
*PAPER_SPACE
0
ENDBLK
5
1D
100
AcDbEntity
100
AcDbBlockEnd
0
ENDSEC
0
SECTION
2
ENTITIES
0
LWPOLYLINE
5
100
100
AcDbEntity
8
0
100
AcDbPolyline
90
16
70
1
43
0.0
10
22.859999999999999
20
3.1750000000000007
42
-0.41421356237309476
10
24.765000000000001
20
5.0800000000000001
10
28.574999999999999
20
5.0800000000000001
42
0.41421356237309503
10
30.48
20
6.9850000000000012
10
30.48
20
27.305
42
0.41421356237309503
10
27.305
20
30.48
10
3.1749999999999994
20
30.48
42
0.41421356237309498
10
0
20
27.305
10
0
20
6.9850000000000012
42
0.41421356237309503
10
1.9050000000000007
20
5.0800000000000001
10
5.7149999999999999
20
5.0799999999999992
42
-0.41421356237309503
10
7.6200000000000001
20
3.1749999999999989
10
7.6200000000000001
20
1.9050000000000002
42
0.41421356237309509
10
9.5250000000000021
20
-5.5511151231257827e-16
10
20.955000000000005
20
0
42
0.41421356237309503
10
22.860000000000007
20
1.9050000000000009
0
CIRCLE
5
101
100
AcDbEntity
8
0
100
AcDbCircle
10
26.670000000000002
20
8.8900000000000006
30
0
40
1.6000000000000014
0
CIRCLE
5
102
100
AcDbEntity
8
0
100
AcDbCircle
10
3.8100000000000001
20
8.8900000000000006
30
0
40
1.6000000000000003
0
LWPOLYLINE
5
103
100
AcDbEntity
8
0
100
AcDbPolyline
90
16
70
1
43
0.0
10
22.860000000000007
20
1.9050000000000009
42
-0.41421356237309503
10
20.955000000000005
20
0
10
9.5250000000000021
20
-1.1102230246251565e-15
42
-0.41421356237309503
10
7.6200000000000001
20
1.905
10
7.6200000000000001
20
3.1749999999999989
42
0.41421356237309453
10
5.7149999999999999
20
5.0799999999999992
10
1.9050000000000009
20
5.0800000000000001
42
-0.41421356237309503
10
0
20
6.9850000000000012
10
1.6653345369377348e-15
20
27.305
42
-0.41421356237309492
10
3.1749999999999989
20
30.48
10
27.305
20
30.48
42
-0.41421356237309503
10
30.48
20
27.305
10
30.48
20
6.9850000000000012
42
-0.41421356237309503
10
28.574999999999999
20
5.0800000000000001
10
24.765000000000001
20
5.0800000000000001
42
0.41421356237309498
10
22.859999999999999
20
3.1749999999999998
0
CIRCLE
5
104
100
AcDbEntity
8
0
100
AcDbCircle
10
26.670000000000002
20
8.8900000000000006
30
0
40
1.6000000000000014
0
CIRCLE
5
105
100
AcDbEntity
8
0
100
AcDbCircle
10
3.8100000000000001
20
8.8900000000000006
30
0
40
1.6000000000000003
0
LINE
5
106
100
AcDbEntity
8
0
100
AcDbLine
10
31.48
20
30.000000447034836
30
0
11
31.48
21
0
31
0
0
LWPOLYLINE
5
107
100
AcDbEntity
8
0
100
AcDbPolyline
90
16
70
1
43
0.0
10
35.655000000000001
20
30.48
10
59.785000000000004
20
30.48
42
-0.41421356237309503
10
62.960000000000001
20
27.305
10
62.960000000000001
20
6.9850000000000012
42
-0.41421356237309503
10
61.055
20
5.0800000000000001
10
57.245000000000005
20
5.0800000000000001
42
0.41421356237309503
10
55.340000000000003
20
3.1749999999999989
10
55.340000000000003
20
1.9050000000000011
42
-0.41421356237309503
10
53.435000000000002
20
0
10
42.004999999999995
20
0
42
-0.41421356237309503
10
40.099999999999994
20
1.9050000000000011
10
40.099999999999994
20
3.1749999999999989
42
0.41421356237309503
10
38.195
20
5.0800000000000001
10
34.385000000000005
20
5.0800000000000001
42
-0.41421356237309503
10
32.480000000000004
20
6.9850000000000012
10
32.480000000000004
20
27.305
42
-0.41421356237309503
0
LWPOLYLINE
5
108
100
AcDbEntity
8
0
100
AcDbPolyline
90
16
70
1
43
0.0
10
62.960000000000001
20
6.9850000000000012
42
-0.41421356237309503
10
61.055
20
5.0800000000000001
10
57.245000000000005
20
5.0800000000000001
42
0.41421356237309503
10
55.340000000000003
20
3.1749999999999989
10
55.340000000000003
20
1.9050000000000011
42
-0.41421356237309503
10
53.435000000000002
20
0
10
42.004999999999995
20
0
42
-0.41421356237309503
10
40.099999999999994
20
1.9050000000000011
10
40.099999999999994
20
3.1749999999999989
42
0.41421356237309503
10
38.195
20
5.0800000000000001
10
34.385000000000005
20
5.0800000000000001
42
-0.41421356237309503
10
32.480000000000004
20
6.9850000000000012
10
32.480000000000004
20
27.305
42
-0.41421356237309503
10
35.655000000000001
20
30.48
10
59.785000000000004
20
30.48
42
-0.41421356237309503
10
62.960000000000001
20
27.305
0
CIRCLE
5
109
100
AcDbEntity
8
0
100
AcDbCircle
10
59.150000000000006
20
8.8900000000000023
30
0
40
1.6000000000000003
0
CIRCLE
5
110
100
AcDbEntity
8
0
100
AcDbCircle
10
59.150000000000006
20
8.8900000000000023
30
0
40
1.6000000000000003
0
CIRCLE
5
111
100
AcDbEntity
8
0
100
AcDbCircle
10
36.289999999999999
20
8.8900000000000023
30
0
40
1.6000000000000014
0
CIRCLE
5
112
100
AcDbEntity
8
0
100
AcDbCircle
10
36.289999999999999
20
8.8900000000000023
30
0
40
1.6000000000000014
0
LINE
5
113
100
AcDbEntity
8
0
100
AcDbLine
10
0.95999907612800861
20
31.48
30
0
11
62.960000000000001
21
31.48
31
0
0
LWPOLYLINE
5
114
100
AcDbEntity
8
0
100
AcDbPolyline
90
24
70
1
43
0.0
10
17.780000000000001
20
74.390000000000015
10
21.590000000000003
20
70.580000000000013
10
21.590000000000003
20
65.5
10
24.130000000000003
20
62.960000000000001
10
28.574999999999999
20
62.960000000000001
42
-0.41421356237309503
10
30.48
20
61.055
10
30.48
20
39.465000000000003
42
-0.41421356237309503
10
28.574999999999999
20
37.560000000000002
10
24.765000000000001
20
37.560000000000002
42
0.41421356237309503
10
22.859999999999999
20
35.655000000000001
10
22.860000000000007
20
34.385000000000005
42
-0.41421356237309503
10
20.955000000000005
20
32.480000000000004
10
9.5250000000000021
20
32.480000000000004
42
-0.41421356237309503
10
7.6200000000000001
20
34.385000000000005
10
7.6200000000000001
20
35.655000000000001
42
0.41421356237309492
10
5.714999999999999
20
37.560000000000002
10
1.9050000000000009
20
37.560000000000002
42
-0.41421356237309503
10
0
20
39.465000000000003
10
-2.7755575615628914e-16
20
61.055
42
-0.41421356237309509
10
1.9050000000000011
20
62.960000000000001
10
6.3500000000000023
20
62.960000000000001
10
8.8900000000000023
20
65.5
10
8.8900000000000023
20
70.580000000000013
10
12.700000000000003
20
74.390000000000015
0
CIRCLE
5
115
100
AcDbEntity
8
0
100
AcDbCircle
10
26.670000000000002
20
59.149999999999999
30
0
40
1.6000000000000014
0
CIRCLE
5
116
100
AcDbEntity
8
0
100
AcDbCircle
10
26.670000000000002
20
41.370000000000005
30
0
40
1.6000000000000014
0
CIRCLE
5
117
100
AcDbEntity
8
0
100
AcDbCircle
10
3.8100000000000001
20
59.149999999999999
30
0
40
1.6000000000000003
0
CIRCLE
5
118
100
AcDbEntity
8
0
100
AcDbCircle
10
3.8100000000000001
20
41.370000000000005
30
0
40
1.6000000000000003
0
LWPOLYLINE
5
119
100
AcDbEntity
8
0
100
AcDbPolyline
90
24
70
1
43
0.0
10
-2.7755575615628914e-16
20
61.055
42
-0.41421356237309498
10
1.905
20
62.960000000000001
10
6.3500000000000014
20
62.960000000000001
10
8.8900000000000006
20
65.5
10
8.8900000000000006
20
70.580000000000013
10
12.700000000000003
20
74.390000000000015
10
17.780000000000001
20
74.390000000000015
10
21.590000000000003
20
70.580000000000013
10
21.590000000000003
20
65.5
10
24.130000000000003
20
62.960000000000001
10
28.574999999999999
20
62.960000000000001
42
-0.41421356237309503
10
30.48
20
61.055
10
30.48
20
39.465000000000003
42
-0.41421356237309503
10
28.574999999999999
20
37.560000000000002
10
24.765000000000001
20
37.560000000000002
42
0.41421356237309503
10
22.859999999999999
20
35.655000000000001
10
22.860000000000007
20
34.385000000000005
42
-0.41421356237309503
10
20.955000000000005
20
32.480000000000004
10
9.5250000000000021
20
32.480000000000004
42
-0.41421356237309503
10
7.6200000000000001
20
34.385000000000005
10
7.6200000000000001
20
35.655000000000001
42
0.41421356237309503
10
5.7149999999999999
20
37.560000000000002
10
1.9050000000000009
20
37.560000000000002
42
-0.41421356237309503
10
0
20
39.465000000000003
0
CIRCLE
5
120
100
AcDbEntity
8
0
100
AcDbCircle
10
26.670000000000002
20
59.149999999999999
30
0
40
1.6000000000000014
0
CIRCLE
5
121
100
AcDbEntity
8
0
100
AcDbCircle
10
3.8100000000000001
20
59.149999999999999
30
0
40
1.6000000000000003
0
CIRCLE
5
122
100
AcDbEntity
8
0
100
AcDbCircle
10
26.670000000000002
20
41.370000000000005
30
0
40
1.6000000000000014
0
CIRCLE
5
123
100
AcDbEntity
8
0
100
AcDbCircle
10
3.8100000000000001
20
41.370000000000005
30
0
40
1.6000000000000003
0
LWPOLYLINE
5
124
100
AcDbEntity
8
0
100
AcDbPolyline
90
24
70
1
43
0.0
10
38.195
20
37.559999999999995
42
-0.41421356237309503
10
40.099999999999994
20
35.655000000000001
10
40.099999999999994
20
34.385000000000005
42
0.41421356237309503
10
42.004999999999995
20
32.480000000000004
10
53.435000000000002
20
32.480000000000004
42
0.41421356237309503
10
55.340000000000003
20
34.385000000000005
10
55.340000000000003
20
35.655000000000001
42
-0.41421356237309503
10
57.245000000000005
20
37.560000000000002
10
61.055
20
37.560000000000002
42
0.41421356237309503
10
62.960000000000001
20
39.465000000000003
10
62.960000000000001
20
61.055
42
0.41421356237309503
10
61.055
20
62.960000000000001
10
56.609999999999999
20
62.960000000000001
10
54.07
20
65.5
10
54.07
20
70.580000000000013
10
50.259999999999998
20
74.390000000000015
10
45.18
20
74.390000000000015
10
41.370000000000005
20
70.580000000000013
10
41.370000000000005
20
65.5
10
38.829999999999998
20
62.960000000000001
10
34.385000000000005
20
62.960000000000001
42
0.41421356237309503
10
32.480000000000004
20
61.055
10
32.480000000000004
20
39.465000000000003
42
0.41421356237309503
10
34.385000000000005
20
37.560000000000002
0
CIRCLE
5
125
100
AcDbEntity
8
0
100
AcDbCircle
10
59.150000000000006
20
59.149999999999999
30
0
40
1.6000000000000003
0
CIRCLE
5
126
100
AcDbEntity
8
0
100
AcDbCircle
10
36.289999999999999
20
41.370000000000005
30
0
40
1.6000000000000014
0
LWPOLYLINE
5
127
100
AcDbEntity
8
0
100
AcDbPolyline
90
24
70
1
43
0.0
10
55.340000000000003
20
34.385000000000005
10
55.340000000000003
20
35.655000000000001
42
-0.41421356237309503
10
57.245000000000005
20
37.560000000000002
10
61.055
20
37.560000000000002
42
0.41421356237309503
10
62.960000000000001
20
39.465000000000003
10
62.960000000000001
20
61.055
42
0.41421356237309503
10
61.055
20
62.960000000000001
10
56.609999999999999
20
62.960000000000001
10
54.07
20
65.5
10
54.07
20
70.580000000000013
10
50.259999999999998
20
74.390000000000015
10
45.18
20
74.390000000000015
10
41.370000000000005
20
70.580000000000013
10
41.370000000000005
20
65.5
10
38.829999999999998
20
62.960000000000001
10
34.385000000000005
20
62.960000000000001
42
0.41421356237309503
10
32.480000000000004
20
61.055
10
32.480000000000004
20
39.465000000000003
42
0.41421356237309503
10
34.385000000000005
20
37.560000000000002
10
38.195
20
37.559999999999995
42
-0.41421356237309503
10
40.099999999999994
20
35.655000000000001
10
40.099999999999994
20
34.385000000000005
42
0.41421356237309503
10
42.004999999999995
20
32.480000000000004
10
53.435000000000002
20
32.480000000000004
42
0.41421356237309503
0
CIRCLE
5
128
100
AcDbEntity
8
0
100
AcDbCircle
10
59.150000000000006
20
41.370000000000005
30
0
40
1.6000000000000003
0
CIRCLE
5
129
100
AcDbEntity
8
0
100
AcDbCircle
10
36.289999999999999
20
59.149999999999999
30
0
40
1.6000000000000014
0
CIRCLE
5
130
100
AcDbEntity
8
0
100
AcDbCircle
10
36.289999999999999
20
59.149999999999999
30
0
40
1.6000000000000014
0
CIRCLE
5
131
100
AcDbEntity
8
0
100
AcDbCircle
10
36.289999999999999
20
41.370000000000005
30
0
40
1.6000000000000014
0
CIRCLE
5
132
100
AcDbEntity
8
0
100
AcDbCircle
10
59.150000000000006
20
59.149999999999999
30
0
40
1.6000000000000003
0
CIRCLE
5
133
100
AcDbEntity
8
0
100
AcDbCircle
10
59.150000000000006
20
41.370000000000005
30
0
40
1.6000000000000003
0
LINE
5
134
100
AcDbEntity
8
0
100
AcDbLine
10
-8.5199999999999925
20
-8.0000000000000036
30
0
11
71.47999999999999
21
-8.0000000000000036
31
0
0
LINE
5
135
100
AcDbEntity
8
0
100
AcDbLine
10
71.47999999999999
20
-8.0000000000000036
30
0
11
71.479999999999976
21
82
31
0
0
LINE
5
136
100
AcDbEntity
8
0
100
AcDbLine
10
71.479999999999976
20
82
30
0
11
-8.5200000000000191
21
82
31
0
0
LINE
5
137
100
AcDbEntity
8
0
100
AcDbLine
10
-8.5200000000000191
20
82
30
0
11
-8.5199999999999925
21
-8.0000000000000036
31
0
0
LINE
5
138
100
AcDbEntity
8
0
100
AcDbLine
10
-8.5199999999999925
20
-8.0000000000000036
30
0
11
71.479999999999976
21
82
31
0
0
LINE
5
139
100
AcDbEntity
8
0
100
AcDbLine
10
71.47999999999999
20
-8.0000000000000036
30
0
11
-8.5200000000000191
21
82
31
0
0
LINE
5
140
100
AcDbEntity
8
0
100
AcDbLine
10
66.479999999999933
20
76.999999999999972
30
0
11
-3.5199999999999632
21
77.000000000000014
31
0
0
LINE
5
141
100
AcDbEntity
8
0
100
AcDbLine
10
-3.5199999999999632
20
77.000000000000014
30
0
11
-3.5199999999999916
21
-2.9999999999999916
31
0
0
LINE
5
142
100
AcDbEntity
8
0
100
AcDbLine
10
-3.5199999999999916
20
-2.9999999999999916
30
0
11
66.479999999999905
21
-2.9999999999999916
31
0
0
LINE
5
143
100
AcDbEntity
8
0
100
AcDbLine
10
66.479999999999905
20
-2.9999999999999916
30
0
11
66.479999999999933
21
76.999999999999972
31
0
0
LINE
5
144
100
AcDbEntity
8
0
100
AcDbLine
10
66.479999999999933
20
76.999999999999972
30
0
11
-3.5199999999999916
21
-2.9999999999999916
31
0
0
LINE
5
145
100
AcDbEntity
8
0
100
AcDbLine
10
-3.5199999999999632
20
77.000000000000014
30
0
11
66.479999999999905
21
-2.9999999999999916
31
0
0
CIRCLE
5
146
100
AcDbEntity
8
0
100
AcDbCircle
10
-3.5199999999999632
20
77.000000000000014
30
0
40
1.6000000000000003
0
CIRCLE
5
147
100
AcDbEntity
8
0
100
AcDbCircle
10
66.479999999999933
20
76.999999999999972
30
0
40
1.6000000000000003
0
CIRCLE
5
148
100
AcDbEntity
8
0
100
AcDbCircle
10
-3.5199999999999916
20
-2.9999999999999916
30
0
40
1.6000000000000003
0
CIRCLE
5
149
100
AcDbEntity
8
0
100
AcDbCircle
10
66.479999999999905
20
-2.9999999999999916
30
0
40
1.6000000000000003
0
LINE
5
150
100
AcDbEntity
8
0
100
AcDbLine
10
15.24
20
30.48
30
0
11
15.240000000000002
21
32.480000000000004
31
0
0
CIRCLE
5
151
100
AcDbEntity
8
0
100
AcDbCircle
10
15.24
20
30.48
30
0
40
0.25
0
CIRCLE
5
152
100
AcDbEntity
8
0
100
AcDbCircle
10
16.240000000000002
20
30.48
30
0
40
0.25
0
CIRCLE
5
153
100
AcDbEntity
8
0
100
AcDbCircle
10
17.240000000000002
20
30.48
30
0
40
0.25
0
CIRCLE
5
154
100
AcDbEntity
8
0
100
AcDbCircle
10
17.490000006657169
20
31.48
30
0
40
1.0000000000000009
0
CIRCLE
5
155
100
AcDbEntity
8
0
100
AcDbCircle
10
12.989999993342835
20
31.480000000000004
30
0
40
1.0000000000000009
0
CIRCLE
5
156
100
AcDbEntity
8
0
100
AcDbCircle
10
13.239999999999998
20
30.480000000000004
30
0
40
0.25
0
CIRCLE
5
157
100
AcDbEntity
8
0
100
AcDbCircle
10
14.239999999999998
20
30.48
30
0
40
0.25
0
CIRCLE
5
158
100
AcDbEntity
8
0
100
AcDbCircle
10
14.239999999999998
20
32.480000000000004
30
0
40
0.25
0
CIRCLE
5
159
100
AcDbEntity
8
0
100
AcDbCircle
10
15.24
20
32.480000000000004
30
0
40
0.25
0
CIRCLE
5
160
100
AcDbEntity
8
0
100
AcDbCircle
10
16.240000000000002
20
32.480000000000004
30
0
40
0.25
0
CIRCLE
5
161
100
AcDbEntity
8
0
100
AcDbCircle
10
17.240000000000002
20
32.480000000000004
30
0
40
0.25
0
CIRCLE
5
162
100
AcDbEntity
8
0
100
AcDbCircle
10
13.239999999999998
20
32.479999999999997
30
0
40
0.25
0
CIRCLE
5
163
100
AcDbEntity
8
0
100
AcDbCircle
10
49.970000006657173
20
31.480000000000004
30
0
40
1.0000000000000009
0
CIRCLE
5
164
100
AcDbEntity
8
0
100
AcDbCircle
10
49.720000000000006
20
32.479999999999997
30
0
40
0.25
0
CIRCLE
5
165
100
AcDbEntity
8
0
100
AcDbCircle
10
48.719999999999999
20
32.480000000000004
30
0
40
0.25
0
CIRCLE
5
166
100
AcDbEntity
8
0
100
AcDbCircle
10
47.719999999999999
20
32.480000000000004
30
0
40
0.25
0
CIRCLE
5
167
100
AcDbEntity
8
0
100
AcDbCircle
10
46.720000000000006
20
32.480000000000004
30
0
40
0.25
0
CIRCLE
5
168
100
AcDbEntity
8
0
100
AcDbCircle
10
45.719999999999999
20
30.48
30
0
40
0.25
0
CIRCLE
5
169
100
AcDbEntity
8
0
100
AcDbCircle
10
46.720000000000006
20
30.48
30
0
40
0.25
0
CIRCLE
5
170
100
AcDbEntity
8
0
100
AcDbCircle
10
47.719999999999999
20
30.48
30
0
40
0.25
0
CIRCLE
5
171
100
AcDbEntity
8
0
100
AcDbCircle
10
48.719999999999999
20
30.48
30
0
40
0.25
0
CIRCLE
5
172
100
AcDbEntity
8
0
100
AcDbCircle
10
49.720000000000006
20
30.480000000000004
30
0
40
0.25
0
CIRCLE
5
173
100
AcDbEntity
8
0
100
AcDbCircle
10
45.469999993342832
20
31.48
30
0
40
1.0000000000000009
0
CIRCLE
5
174
100
AcDbEntity
8
0
100
AcDbCircle
10
45.719999999999999
20
32.480000000000004
30
0
40
0.25
0
ARC
5
175
100
AcDbEntity
8
0
100
AcDbCircle
10
9.5250000000000021
20
1.905
30
0
40
3.9050000000000007
100
AcDbArc
50
180
51
270
0
LINE
5
176
100
AcDbEntity
8
0
100
AcDbLine
10
20.955000000000005
20
-2
30
0
11
9.5250000000000021
21
-2.0000000000000013
31
0
0
ARC
5
177
100
AcDbEntity
8
0
100
AcDbCircle
10
20.955000000000005
20
1.9050000000000009
30
0
40
3.9050000000000007
100
AcDbArc
50
270
51
360
0
LINE
5
178
100
AcDbEntity
8
0
100
AcDbLine
10
24.860000000000003
20
3.0800000000000001
30
0
11
24.860000000000007
21
1.9050000000000007
31
0
0
LINE
5
179
100
AcDbEntity
8
0
100
AcDbLine
10
28.574999999999999
20
3.0800000000000001
30
0
11
24.860000000000003
21
3.0800000000000001
31
0
0
ARC
5
180
100
AcDbEntity
8
0
100
AcDbCircle
10
28.574999999999999
20
6.9850000000000012
30
0
40
3.9050000000000011
100
AcDbArc
50
-90
51
0
0
LINE
5
181
100
AcDbEntity
8
0
100
AcDbLine
10
32.480000000000004
20
27.305
30
0
11
32.480000000000004
21
6.9850000000000012
31
0
0
ARC
5
182
100
AcDbEntity
8
0
100
AcDbCircle
10
27.305
20
27.305
30
0
40
5.1750000000000007
100
AcDbArc
50
0
51
90
0
LINE
5
183
100
AcDbEntity
8
0
100
AcDbLine
10
3.1749999999999994
20
32.480000000000004
30
0
11
27.305
21
32.480000000000004
31
0
0
ARC
5
184
100
AcDbEntity
8
0
100
AcDbCircle
10
3.1750000000000007
20
27.305
30
0
40
5.1750000000000007
100
AcDbArc
50
90.000000000000014
51
180
0
LINE
5
185
100
AcDbEntity
8
0
100
AcDbLine
10
-2
20
6.9850000000000012
30
0
11
-1.9999999999999978
21
27.305
31
0
0
ARC
5
186
100
AcDbEntity
8
0
100
AcDbCircle
10
1.9050000000000009
20
6.9850000000000012
30
0
40
3.9050000000000007
100
AcDbArc
50
180
51
270
0
LINE
5
187
100
AcDbEntity
8
0
100
AcDbLine
10
5.620000000000001
20
3.0799999999999987
30
0
11
1.9050000000000007
21
3.0800000000000005
31
0
0
LINE
5
188
100
AcDbEntity
8
0
100
AcDbLine
10
5.620000000000001
20
1.9050000000000002
30
0
11
5.620000000000001
21
3.0799999999999987
31
0
0
ARC
5
189
100
AcDbEntity
8
0
100
AcDbCircle
10
42.004999999999995
20
1.9050000000000011
30
0
40
3.9050000000000029
100
AcDbArc
50
180
51
270
0
LINE
5
190
100
AcDbEntity
8
0
100
AcDbLine
10
53.435000000000002
20
-2
30
0
11
42.004999999999995
21
-2
31
0
0
ARC
5
191
100
AcDbEntity
8
0
100
AcDbCircle
10
53.435000000000002
20
1.9050000000000011
30
0
40
3.9050000000000011
100
AcDbArc
50
270
51
360
0
LINE
5
192
100
AcDbEntity
8
0
100
AcDbLine
10
57.340000000000011
20
3.0800000000000001
30
0
11
57.340000000000011
21
1.9050000000000009
31
0
0
LINE
5
193
100
AcDbEntity
8
0
100
AcDbLine
10
61.055
20
3.0800000000000001
30
0
11
57.340000000000011
21
3.0800000000000001
31
0
0
ARC
5
194
100
AcDbEntity
8
0
100
AcDbCircle
10
61.055
20
6.9850000000000012
30
0
40
3.9050000000000011
100
AcDbArc
50
-90
51
0
0
LINE
5
195
100
AcDbEntity
8
0
100
AcDbLine
10
64.960000000000008
20
27.305
30
0
11
64.960000000000008
21
6.9850000000000012
31
0
0
ARC
5
196
100
AcDbEntity
8
0
100
AcDbCircle
10
59.785000000000004
20
27.305
30
0
40
5.1750000000000007
100
AcDbArc
50
0
51
90
0
LINE
5
197
100
AcDbEntity
8
0
100
AcDbLine
10
35.655000000000001
20
32.480000000000004
30
0
11
59.785000000000004
21
32.480000000000004
31
0
0
ARC
5
198
100
AcDbEntity
8
0
100
AcDbCircle
10
35.655000000000001
20
27.305
30
0
40
5.1750000000000007
100
AcDbArc
50
90
51
180
0
LINE
5
199
100
AcDbEntity
8
0
100
AcDbLine
10
30.48
20
6.9850000000000012
30
0
11
30.48
21
27.305
31
0
0
ARC
5
200
100
AcDbEntity
8
0
100
AcDbCircle
10
34.385000000000005
20
6.9850000000000012
30
0
40
3.9050000000000029
100
AcDbArc
50
180
51
270
0
LINE
5
201
100
AcDbEntity
8
0
100
AcDbLine
10
38.099999999999994
20
3.0800000000000001
30
0
11
34.385000000000005
21
3.0800000000000001
31
0
0
LINE
5
202
100
AcDbEntity
8
0
100
AcDbLine
10
38.099999999999994
20
1.9050000000000011
30
0
11
38.099999999999994
21
3.0800000000000001
31
0
0
LINE
5
203
100
AcDbEntity
8
0
100
AcDbLine
10
51.088427124773872
20
76.389999999950717
30
0
11
56.069999999995268
21
71.4084271247293
31
0
0
LINE
5
204
100
AcDbEntity
8
0
100
AcDbLine
10
56.069999999995268
20
71.4084271247293
30
0
11
56.07
21
66.328427124746199
31
0
0
LINE
5
205
100
AcDbEntity
8
0
100
AcDbLine
10
56.07
20
66.328427124746199
30
0
11
57.438427124746184
21
64.960000000000008
31
0
0
LINE
5
206
100
AcDbEntity
8
0
100
AcDbLine
10
57.438427124746184
20
64.960000000000008
30
0
11
61.055
21
64.960000000000008
31
0
0
ARC
5
207
100
AcDbEntity
8
0
100
AcDbCircle
10
61.055
20
61.055
30
0
40
3.9050000000000029
100
AcDbArc
50
0
51
90
0
LINE
5
208
100
AcDbEntity
8
0
100
AcDbLine
10
64.960000000000008
20
61.055
30
0
11
64.960000000000008
21
39.465000000000003
31
0
0
ARC
5
209
100
AcDbEntity
8
0
100
AcDbCircle
10
61.055
20
39.465000000000003
30
0
40
3.9050000000000029
100
AcDbArc
50
-90
51
0
0
LINE
5
210
100
AcDbEntity
8
0
100
AcDbLine
10
61.055
20
35.560000000000002
30
0
11
57.340000000000011
21
35.560000000000002
31
0
0
LINE
5
211
100
AcDbEntity
8
0
100
AcDbLine
10
57.340000000000011
20
35.560000000000002
30
0
11
57.340000000000011
21
34.385000000000005
31
0
0
ARC
5
212
100
AcDbEntity
8
0
100
AcDbCircle
10
53.435000000000002
20
34.385000000000005
30
0
40
3.9050000000000029
100
AcDbArc
50
-90
51
0
0
LINE
5
213
100
AcDbEntity
8
0
100
AcDbLine
10
53.435000000000002
20
30.48
30
0
11
42.004999999999995
21
30.48
31
0
0
ARC
5
214
100
AcDbEntity
8
0
100
AcDbCircle
10
42.004999999999995
20
34.385000000000005
30
0
40
3.9050000000000029
100
AcDbArc
50
180
51
270
0
LINE
5
215
100
AcDbEntity
8
0
100
AcDbLine
10
38.099999999999994
20
34.385000000000005
30
0
11
38.099999999999994
21
35.560000000000002
31
0
0
LINE
5
216
100
AcDbEntity
8
0
100
AcDbLine
10
38.099999999999994
20
35.560000000000002
30
0
11
34.385000000000005
21
35.560000000000002
31
0
0
ARC
5
217
100
AcDbEntity
8
0
100
AcDbCircle
10
34.385000000000005
20
39.465000000000003
30
0
40
3.9050000000000029
100
AcDbArc
50
180
51
270
0
LINE
5
218
100
AcDbEntity
8
0
100
AcDbLine
10
30.48
20
39.465000000000003
30
0
11
30.48
21
61.055
31
0
0
ARC
5
219
100
AcDbEntity
8
0
100
AcDbCircle
10
34.385000000000005
20
61.055
30
0
40
3.9050000000000029
100
AcDbArc
50
90
51
180
0
LINE
5
220
100
AcDbEntity
8
0
100
AcDbLine
10
34.385000000000005
20
64.960000000000008
30
0
11
38.001572875253814
21
64.960000000000008
31
0
0
LINE
5
221
100
AcDbEntity
8
0
100
AcDbLine
10
38.001572875253814
20
64.960000000000008
30
0
11
39.370000000000005
21
66.328427124746185
31
0
0
LINE
5
222
100
AcDbEntity
8
0
100
AcDbLine
10
39.370000000000005
20
66.328427124746185
30
0
11
39.37000000000473
21
71.4084271247293
31
0
0
LINE
5
223
100
AcDbEntity
8
0
100
AcDbLine
10
39.37000000000473
20
71.4084271247293
30
0
11
44.351572875226125
21
76.389999999950717
31
0
0
LINE
5
224
100
AcDbEntity
8
0
100
AcDbLine
10
44.351572875226125
20
76.389999999950717
30
0
11
51.088427124773872
21
76.389999999950717
31
0
0
LINE
5
225
100
AcDbEntity
8
0
100
AcDbLine
10
11.871572875226125
20
76.389999999950717
30
0
11
6.8900000000047159
21
71.4084271247293
31
0
0
LINE
5
226
100
AcDbEntity
8
0
100
AcDbLine
10
6.8900000000047159
20
71.4084271247293
30
0
11
6.8900000000000023
21
66.328427124746199
31
0
0
LINE
5
227
100
AcDbEntity
8
0
100
AcDbLine
10
6.8900000000000023
20
66.328427124746199
30
0
11
5.5215728752538142
21
64.960000000000008
31
0
0
LINE
5
228
100
AcDbEntity
8
0
100
AcDbLine
10
5.5215728752538142
20
64.960000000000008
30
0
11
1.9050000000000011
21
64.960000000000008
31
0
0
ARC
5
229
100
AcDbEntity
8
0
100
AcDbCircle
10
1.9050000000000009
20
61.055
30
0
40
3.9050000000000029
100
AcDbArc
50
90
51
180
0
LINE
5
230
100
AcDbEntity
8
0
100
AcDbLine
10
-2.0000000000010805
20
61.055000040959641
30
0
11
-2.0000000000010805
21
39.465000040959644
31
0
0
ARC
5
231
100
AcDbEntity
8
0
100
AcDbCircle
10
1.9050000000000009
20
39.465000000000003
30
0
40
3.9050000000010816
100
AcDbArc
50
180
51
270
0
LINE
5
232
100
AcDbEntity
8
0
100
AcDbLine
10
1.9050000000000007
20
35.560000000000002
30
0
11
5.619999999134242
21
35.559999999999924
31
0
0
LINE
5
233
100
AcDbEntity
8
0
100
AcDbLine
10
5.619999999134242
20
35.559999999999924
30
0
11
5.619999999134242
21
34.385000000000005
31
0
0
ARC
5
234
100
AcDbEntity
8
0
100
AcDbCircle
10
9.5250000017315166
20
34.384999996969853
30
0
40
3.9050000025972755
100
AcDbArc
50
180
51
269.99999997459452
0
LINE
5
235
100
AcDbEntity
8
0
100
AcDbLine
10
9.5250000000000021
20
30.479999994372573
30
0
11
20.954999997239483
21
30.479999994372573
31
0
0
ARC
5
236
100
AcDbEntity
8
0
100
AcDbCircle
10
20.954999994614205
20
34.384999999471503
30
0
40
3.9050000050989286
100
AcDbArc
50
-89.999999961480839
51
0
0
LINE
5
237
100
AcDbEntity
8
0
100
AcDbLine
10
24.859999999713132
20
34.385000000000005
30
0
11
24.859999999713128
21
35.560000557819976
31
0
0
LINE
5
238
100
AcDbEntity
8
0
100
AcDbLine
10
24.859999999713128
20
35.560000557819976
30
0
11
28.574999999999999
21
35.560000557819976
31
0
0
ARC
5
239
100
AcDbEntity
8
0
100
AcDbCircle
10
28.575000180394049
20
39.465000306202697
30
0
40
3.9049997483827203
100
AcDbArc
50
269.99999735318352
51
359.99999556366197
0
LINE
5
240
100
AcDbEntity
8
0
100
AcDbLine
10
32.479999928776763
20
39.465000000000003
30
0
11
32.479999928776763
21
61.055
31
0
0
ARC
5
241
100
AcDbEntity
8
0
100
AcDbCircle
10
28.574999962052416
20
61.055000021309752
30
0
40
3.9049999667243496
100
AcDbArc
50
0
51
89.99999944321732
0
LINE
5
242
100
AcDbEntity
8
0
100
AcDbLine
10
28.574999999999999
20
64.959999988034113
30
0
11
24.958427131468003
21
64.959999988034113
31
0
0
LINE
5
243
100
AcDbEntity
8
0
100
AcDbLine
10
24.958427131468003
20
64.959999988034113
30
0
11
23.589999998855696
21
66.32842712064641
31
0
0
LINE
5
244
100
AcDbEntity
8
0
100
AcDbLine
10
23.589999998855696
20
66.32842712064641
30
0
11
23.589999998855696
21
71.408427125413056
31
0
0
LINE
5
245
100
AcDbEntity
8
0
100
AcDbLine
10
23.589999998855696
20
71.408427125413056
30
0
11
18.608427124318045
21
76.389999999950717
31
0
0
LINE
5
246
100
AcDbEntity
8
0
100
AcDbLine
10
18.608427124318045
20
76.389999999950717
30
0
11
11.871572875226125
21
76.389999999950717
31
0
0
LINE
5
247
100
AcDbEntity
8
0
100
AcDbLine
10
15.24
20
31.48
30
0
11
15.239999999999984
21
75.390000000000001
31
0
0
LINE
5
248
100
AcDbEntity
8
0
100
AcDbLine
10
15.24
20
31.48
30
0
11
15.24
21
-1.0000000000000004
31
0
0
LINE
5
249
100
AcDbEntity
8
0
100
AcDbLine
10
8.3266726846886701e-16
20
17.145000000000003
30
0
11
15.24
21
17.145000000000003
31
0
0
LINE
5
250
100
AcDbEntity
8
0
100
AcDbLine
10
15.24
20
17.145000000000003
30
0
11
4.0003726271003677
21
28.38462737289964
31
0
0
LINE
5
251
100
AcDbEntity
8
0
100
AcDbLine
10
15.24
20
15.24
30
0
11
30.48
21
15.24
31
0
0
LINE
5
252
100
AcDbEntity
8
0
100
AcDbLine
10
15.239999999999991
20
53.435000000000002
30
0
11
0
21
53.435000000000052
31
0
0
CIRCLE
5
253
100
AcDbEntity
8
0
100
AcDbCircle
10
17.240000000000137
20
76.389999999999986
30
0
40
0.25
0
CIRCLE
5
254
100
AcDbEntity
8
0
100
AcDbCircle
10
14.240000000000135
20
76.390000000000015
30
0
40
0.25
0
CIRCLE
5
255
100
AcDbEntity
8
0
100
AcDbCircle
10
15.240000000000135
20
76.390000000000015
30
0
40
0.25
0
CIRCLE
5
256
100
AcDbEntity
8
0
100
AcDbCircle
10
17.240000000000123
20
74.390000000000001
30
0
40
0.25
0
CIRCLE
5
257
100
AcDbEntity
8
0
100
AcDbCircle
10
15.240000000000123
20
74.390000000000015
30
0
40
0.25
0
CIRCLE
5
258
100
AcDbEntity
8
0
100
AcDbCircle
10
14.240000000000121
20
74.390000000000015
30
0
40
0.25
0
CIRCLE
5
259
100
AcDbEntity
8
0
100
AcDbCircle
10
12.989999993342964
20
75.390000000000015
30
0
40
1.0000000000000009
0
CIRCLE
5
260
100
AcDbEntity
8
0
100
AcDbCircle
10
16.240000000000137
20
76.390000000000001
30
0
40
0.25
0
CIRCLE
5
261
100
AcDbEntity
8
0
100
AcDbCircle
10
13.240000000000121
20
74.390000000000029
30
0
40
0.25
0
CIRCLE
5
262
100
AcDbEntity
8
0
100
AcDbCircle
10
13.240000000000133
20
76.390000000000015
30
0
40
0.25
0
LINE
5
263
100
AcDbEntity
8
0
100
AcDbLine
10
15.240000000000135
20
76.390000000000015
30
0
11
15.240000000000125
21
74.390000000000015
31
0
0
CIRCLE
5
264
100
AcDbEntity
8
0
100
AcDbCircle
10
17.490000006657297
20
75.390000000000001
30
0
40
1.0000000000000009
0
CIRCLE
5
265
100
AcDbEntity
8
0
100
AcDbCircle
10
16.240000000000123
20
74.390000000000015
30
0
40
0.25
0
CIRCLE
5
266
100
AcDbEntity
8
0
100
AcDbCircle
10
13.239999999999998
20
-1.9999999999999973
30
0
40
0.25
0
CIRCLE
5
267
100
AcDbEntity
8
0
100
AcDbCircle
10
17.240000000000002
20
-2.0000000000000018
30
0
40
0.25
0
CIRCLE
5
268
100
AcDbEntity
8
0
100
AcDbCircle
10
15.24
20
-2.0000000000000018
30
0
40
0.25
0
CIRCLE
5
269
100
AcDbEntity
8
0
100
AcDbCircle
10
14.239999999999998
20
-2.0000000000000018
30
0
40
0.25
0
CIRCLE
5
270
100
AcDbEntity
8
0
100
AcDbCircle
10
14.239999999999998
20
0
30
0
40
0.25
0
CIRCLE
5
271
100
AcDbEntity
8
0
100
AcDbCircle
10
13.239999999999998
20
-4.4408920985006262e-15
30
0
40
0.25
0
CIRCLE
5
272
100
AcDbEntity
8
0
100
AcDbCircle
10
12.989999993342835
20
-1.0000000000000053
30
0
40
1.0000000000000009
0
CIRCLE
5
273
100
AcDbEntity
8
0
100
AcDbCircle
10
17.490000006657169
20
-1.0000000000000011
30
0
40
1.0000000000000009
0
CIRCLE
5
274
100
AcDbEntity
8
0
100
AcDbCircle
10
17.240000000000002
20
0
30
0
40
0.25
0
CIRCLE
5
275
100
AcDbEntity
8
0
100
AcDbCircle
10
16.240000000000002
20
0
30
0
40
0.25
0
CIRCLE
5
276
100
AcDbEntity
8
0
100
AcDbCircle
10
16.240000000000002
20
-2.0000000000000018
30
0
40
0.25
0
CIRCLE
5
277
100
AcDbEntity
8
0
100
AcDbCircle
10
15.24
20
0
30
0
40
0.25
0
LINE
5
278
100
AcDbEntity
8
0
100
AcDbLine
10
15.24
20
0
30
0
11
15.240000000000002
21
-2.0000000000000018
31
0
0
LINE
5
279
100
AcDbEntity
8
0
100
AcDbLine
10
0
20
50.260000040959611
30
0
11
-2.0000000000010805
21
50.260000040959639
31
0
0
LINE
5
280
100
AcDbEntity
8
0
100
AcDbLine
10
7.620000000000001
20
17.145000000000003
30
0
11
7.6199999999999957
21
53.435000000000024
31
0
0
LINE
5
281
100
AcDbEntity
8
0
100
AcDbLine
10
50.259999999999998
20
74.390000000000015
30
0
11
45.18
21
74.390000000000015
31
0
0
CIRCLE
5
282
100
AcDbEntity
8
0
100
AcDbCircle
10
45.719999999999878
20
74.390000000000001
30
0
40
0.25
0
LINE
5
283
100
AcDbEntity
8
0
100
AcDbLine
10
47.719999999999871
20
76.390000000000015
30
0
11
47.719999999999878
21
74.390000000000015
31
0
0
LINE
5
284
100
AcDbEntity
8
0
100
AcDbLine
10
45.18
20
74.390000000000015
30
0
11
50.259999999999998
21
74.390000000000015
31
0
0
CIRCLE
5
285
100
AcDbEntity
8
0
100
AcDbCircle
10
47.719999999999878
20
74.390000000000015
30
0
40
0.25
0
CIRCLE
5
286
100
AcDbEntity
8
0
100
AcDbCircle
10
45.719999999999871
20
76.389999999999986
30
0
40
0.25
0
CIRCLE
5
287
100
AcDbEntity
8
0
100
AcDbCircle
10
47.719999999999871
20
76.390000000000015
30
0
40
0.25
0
CIRCLE
5
288
100
AcDbEntity
8
0
100
AcDbCircle
10
48.719999999999864
20
76.390000000000015
30
0
40
0.25
0
CIRCLE
5
289
100
AcDbEntity
8
0
100
AcDbCircle
10
46.719999999999885
20
74.390000000000015
30
0
40
0.25
0
CIRCLE
5
290
100
AcDbEntity
8
0
100
AcDbCircle
10
45.469999993342697
20
75.390000000000001
30
0
40
1.0000000000000009
0
CIRCLE
5
291
100
AcDbEntity
8
0
100
AcDbCircle
10
49.719999999999871
20
76.390000000000015
30
0
40
0.25
0
CIRCLE
5
292
100
AcDbEntity
8
0
100
AcDbCircle
10
46.719999999999864
20
76.390000000000001
30
0
40
0.25
0
CIRCLE
5
293
100
AcDbEntity
8
0
100
AcDbCircle
10
49.719999999999878
20
74.390000000000029
30
0
40
0.25
0
CIRCLE
5
294
100
AcDbEntity
8
0
100
AcDbCircle
10
48.719999999999885
20
74.390000000000015
30
0
40
0.25
0
CIRCLE
5
295
100
AcDbEntity
8
0
100
AcDbCircle
10
49.970000006657038
20
75.390000000000029
30
0
40
1.0000000000000009
0
CIRCLE
5
296
100
AcDbEntity
8
0
100
AcDbCircle
10
46.720000000000006
20
0
30
0
40
0.25
0
CIRCLE
5
297
100
AcDbEntity
8
0
100
AcDbCircle
10
47.719999999999999
20
0
30
0
40
0.25
0
CIRCLE
5
298
100
AcDbEntity
8
0
100
AcDbCircle
10
49.720000000000006
20
-1.9999999999999973
30
0
40
0.25
0
CIRCLE
5
299
100
AcDbEntity
8
0
100
AcDbCircle
10
46.720000000000006
20
-2.0000000000000018
30
0
40
0.25
0
CIRCLE
5
300
100
AcDbEntity
8
0
100
AcDbCircle
10
45.719999999999999
20
0
30
0
40
0.25
0
CIRCLE
5
301
100
AcDbEntity
8
0
100
AcDbCircle
10
45.469999993342832
20
-1.0000000000000011
30
0
40
1.0000000000000009
0
CIRCLE
5
302
100
AcDbEntity
8
0
100
AcDbCircle
10
49.970000006657173
20
-1.0000000000000053
30
0
40
1.0000000000000009
0
CIRCLE
5
303
100
AcDbEntity
8
0
100
AcDbCircle
10
48.719999999999999
20
0
30
0
40
0.25
0
CIRCLE
5
304
100
AcDbEntity
8
0
100
AcDbCircle
10
49.720000000000006
20
-4.4408920985006262e-15
30
0
40
0.25
0
CIRCLE
5
305
100
AcDbEntity
8
0
100
AcDbCircle
10
48.719999999999999
20
-2.0000000000000018
30
0
40
0.25
0
CIRCLE
5
306
100
AcDbEntity
8
0
100
AcDbCircle
10
45.719999999999999
20
-2.0000000000000018
30
0
40
0.25
0
LINE
5
307
100
AcDbEntity
8
0
100
AcDbLine
10
47.719999999999999
20
0
30
0
11
47.719999999999999
21
-2.0000000000000018
31
0
0
CIRCLE
5
308
100
AcDbEntity
8
0
100
AcDbCircle
10
47.719999999999999
20
-2.0000000000000018
30
0
40
0.25
0
CIRCLE
5
309
100
AcDbEntity
8
0
100
AcDbCircle
10
0
20
50.260000040959611
30
0
40
0.25
0
CIRCLE
5
310
100
AcDbEntity
8
0
100
AcDbCircle
10
-1.5163363334244672e-16
20
51.260000040959603
30
0
40
0.25
0
CIRCLE
5
311
100
AcDbEntity
8
0
100
AcDbCircle
10
-1.64489388606749e-16
20
52.260000040959596
30
0
40
0.25
0
LINE
5
312
100
AcDbEntity
8
0
100
AcDbLine
10
-1.0000000000005402
20
50.260000040959625
30
0
11
-1.0000000000000007
21
54.999242777284522
31
0
0
CIRCLE
5
313
100
AcDbEntity
8
0
100
AcDbCircle
10
-1.0000000000005407
20
52.26000216576503
30
0
40
1
0
LINE
5
314
100
AcDbEntity
8
0
100
AcDbLine
10
2.6454514531413675
20
17.145000000000003
30
0
11
2.6454514531413693
21
50.260000040959561
31
0
0
LINE
5
315
100
AcDbEntity
8
0
100
AcDbLine
10
2.645451453141368
20
33.702500020479782
30
0
11
-3.5199999999999787
21
33.702500020479782
31
0
0
CIRCLE
5
316
100
AcDbEntity
8
0
100
AcDbCircle
10
-1.0000000000006117
20
48.259997916154219
30
0
40
1
0
CIRCLE
5
317
100
AcDbEntity
8
0
100
AcDbCircle
10
-7.1218762237027099e-14
20
48.260000040959611
30
0
40
0.25
0
CIRCLE
5
318
100
AcDbEntity
8
0
100
AcDbCircle
10
-3.5678769693758037e-14
20
49.260000040959611
30
0
40
0.25
0
CIRCLE
5
319
100
AcDbEntity
8
0
100
AcDbCircle
10
7.2758942000151403e-22
20
50.260000040959611
30
0
40
0.25
0
CIRCLE
5
320
100
AcDbEntity
8
0
100
AcDbCircle
10
-2.0000000000010809
20
52.260000040959596
30
0
40
0.25
0
CIRCLE
5
321
100
AcDbEntity
8
0
100
AcDbCircle
10
-2.0000000000010805
20
51.260000040959603
30
0
40
0.25
0
CIRCLE
5
322
100
AcDbEntity
8
0
100
AcDbCircle
10
-2.0000000000010805
20
50.260000040959611
30
0
40
0.25
0
CIRCLE
5
323
100
AcDbEntity
8
0
100
AcDbCircle
10
-2.0000000000010445
20
49.260000040959611
30
0
40
0.25
0
CIRCLE
5
324
100
AcDbEntity
8
0
100
AcDbCircle
10
-2.0000000000010085
20
48.260000040959611
30
0
40
0.25
0
CIRCLE
5
325
100
AcDbEntity
8
0
100
AcDbCircle
10
-1.0000000000005407
20
15.144997875194532
30
0
40
1
0
CIRCLE
5
326
100
AcDbEntity
8
0
100
AcDbCircle
10
-2
20
15.144999999999964
30
0
40
0.25
0
CIRCLE
5
327
100
AcDbEntity
8
0
100
AcDbCircle
10
-7.1054273576010019e-14
20
19.14499999999995
30
0
40
0.25
0
CIRCLE
5
328
100
AcDbEntity
8
0
100
AcDbCircle
10
-1.0000000000006117
20
19.145002124805345
30
0
40
1
0
CIRCLE
5
329
100
AcDbEntity
8
0
100
AcDbCircle
10
-1.9999999999999996
20
17.144999999999957
30
0
40
0.25
0
LINE
5
330
100
AcDbEntity
8
0
100
AcDbLine
10
0
20
17.144999999999957
30
0
11
-2
21
17.144999999999921
31
0
0
CIRCLE
5
331
100
AcDbEntity
8
0
100
AcDbCircle
10
-2
20
16.14499999999996
30
0
40
0.25
0
CIRCLE
5
332
100
AcDbEntity
8
0
100
AcDbCircle
10
-1.999999999999964
20
18.144999999999953
30
0
40
0.25
0
CIRCLE
5
333
100
AcDbEntity
8
0
100
AcDbCircle
10
-1.9999999999999281
20
19.14499999999995
30
0
40
0.25
0
CIRCLE
5
334
100
AcDbEntity
8
0
100
AcDbCircle
10
0
20
15.144999999999964
30
0
40
0.25
0
CIRCLE
5
335
100
AcDbEntity
8
0
100
AcDbCircle
10
0
20
16.14499999999996
30
0
40
0.25
0
CIRCLE
5
336
100
AcDbEntity
8
0
100
AcDbCircle
10
0
20
17.144999999999957
30
0
40
0.25
0
CIRCLE
5
337
100
AcDbEntity
8
0
100
AcDbCircle
10
0
20
17.144999999999957
30
0
40
0.25
0
CIRCLE
5
338
100
AcDbEntity
8
0
100
AcDbCircle
10
-3.5527136788005009e-14
20
18.144999999999953
30
0
40
0.25
0
CIRCLE
5
339
100
AcDbEntity
8
0
100
AcDbCircle
10
32.480000000001034
20
49.260000040959618
30
0
40
0.25
0
CIRCLE
5
340
100
AcDbEntity
8
0
100
AcDbCircle
10
32.480000000000999
20
48.260000040959625
30
0
40
0.25
0
CIRCLE
5
341
100
AcDbEntity
8
0
100
AcDbCircle
10
30.479999999999986
20
50.260000040959618
30
0
40
0.25
0
LINE
5
342
100
AcDbEntity
8
0
100
AcDbLine
10
30.479999999999986
20
50.260000040959618
30
0
11
32.48000000000107
21
50.260000040959653
31
0
0
CIRCLE
5
343
100
AcDbEntity
8
0
100
AcDbCircle
10
32.48000000000107
20
52.260000040959611
30
0
40
0.25
0
CIRCLE
5
344
100
AcDbEntity
8
0
100
AcDbCircle
10
30.479999999999986
20
51.260000040959611
30
0
40
0.25
0
CIRCLE
5
345
100
AcDbEntity
8
0
100
AcDbCircle
10
30.479999999999986
20
52.260000040959611
30
0
40
0.25
0
CIRCLE
5
346
100
AcDbEntity
8
0
100
AcDbCircle
10
31.480000000000601
20
48.259997916154227
30
0
40
1
0
CIRCLE
5
347
100
AcDbEntity
8
0
100
AcDbCircle
10
32.48000000000107
20
51.260000040959611
30
0
40
0.25
0
CIRCLE
5
348
100
AcDbEntity
8
0
100
AcDbCircle
10
30.480000000000022
20
49.260000040959618
30
0
40
0.25
0
CIRCLE
5
349
100
AcDbEntity
8
0
100
AcDbCircle
10
31.480000000000526
20
52.260002165765044
30
0
40
1
0
CIRCLE
5
350
100
AcDbEntity
8
0
100
AcDbCircle
10
30.480000000000057
20
48.260000040959625
30
0
40
0.25
0
CIRCLE
5
351
100
AcDbEntity
8
0
100
AcDbCircle
10
32.48000000000107
20
50.260000040959618
30
0
40
0.25
0
CIRCLE
5
352
100
AcDbEntity
8
0
100
AcDbCircle
10
30.479999999999986
20
50.260000040959618
30
0
40
0.25
0
CIRCLE
5
353
100
AcDbEntity
8
0
100
AcDbCircle
10
62.960000000000072
20
48.260000040959611
30
0
40
0.25
0
CIRCLE
5
354
100
AcDbEntity
8
0
100
AcDbCircle
10
63.960000000000541
20
52.26000216576503
30
0
40
1
0
CIRCLE
5
355
100
AcDbEntity
8
0
100
AcDbCircle
10
64.960000000001088
20
52.260000040959596
30
0
40
0.25
0
CIRCLE
5
356
100
AcDbEntity
8
0
100
AcDbCircle
10
62.960000000000036
20
49.260000040959611
30
0
40
0.25
0
LINE
5
357
100
AcDbEntity
8
0
100
AcDbLine
10
62.960000000000001
20
50.260000040959611
30
0
11
64.960000000001088
21
50.260000040959639
31
0
0
CIRCLE
5
358
100
AcDbEntity
8
0
100
AcDbCircle
10
62.960000000000001
20
50.260000040959611
30
0
40
0.25
0
CIRCLE
5
359
100
AcDbEntity
8
0
100
AcDbCircle
10
64.960000000001088
20
51.260000040959603
30
0
40
0.25
0
CIRCLE
5
360
100
AcDbEntity
8
0
100
AcDbCircle
10
63.960000000000612
20
48.259997916154219
30
0
40
1
0
CIRCLE
5
361
100
AcDbEntity
8
0
100
AcDbCircle
10
64.960000000001088
20
50.260000040959611
30
0
40
0.25
0
CIRCLE
5
362
100
AcDbEntity
8
0
100
AcDbCircle
10
64.960000000001045
20
49.260000040959611
30
0
40
0.25
0
CIRCLE
5
363
100
AcDbEntity
8
0
100
AcDbCircle
10
62.960000000000001
20
51.260000040959603
30
0
40
0.25
0
CIRCLE
5
364
100
AcDbEntity
8
0
100
AcDbCircle
10
62.960000000000001
20
50.260000040959611
30
0
40
0.25
0
CIRCLE
5
365
100
AcDbEntity
8
0
100
AcDbCircle
10
62.960000000000001
20
52.260000040959596
30
0
40
0.25
0
CIRCLE
5
366
100
AcDbEntity
8
0
100
AcDbCircle
10
64.960000000001003
20
48.260000040959611
30
0
40
0.25
0
CIRCLE
5
367
100
AcDbEntity
8
0
100
AcDbCircle
10
32.480000000000004
20
17.144999999999957
30
0
40
0.25
0
CIRCLE
5
368
100
AcDbEntity
8
0
100
AcDbCircle
10
32.479999999999968
20
18.144999999999953
30
0
40
0.25
0
CIRCLE
5
369
100
AcDbEntity
8
0
100
AcDbCircle
10
32.479999999999933
20
19.14499999999995
30
0
40
0.25
0
CIRCLE
5
370
100
AcDbEntity
8
0
100
AcDbCircle
10
32.480000000000004
20
15.144999999999964
30
0
40
0.25
0
CIRCLE
5
371
100
AcDbEntity
8
0
100
AcDbCircle
10
30.480000000000071
20
19.14499999999995
30
0
40
0.25
0
CIRCLE
5
372
100
AcDbEntity
8
0
100
AcDbCircle
10
31.480000000000615
20
19.145002124805345
30
0
40
1
0
LINE
5
373
100
AcDbEntity
8
0
100
AcDbLine
10
30.48
20
17.144999999999957
30
0
11
32.480000000000004
21
17.144999999999921
31
0
0
CIRCLE
5
374
100
AcDbEntity
8
0
100
AcDbCircle
10
32.480000000000004
20
16.14499999999996
30
0
40
0.25
0
CIRCLE
5
375
100
AcDbEntity
8
0
100
AcDbCircle
10
31.480000000000544
20
15.144997875194532
30
0
40
1
0
CIRCLE
5
376
100
AcDbEntity
8
0
100
AcDbCircle
10
30.48
20
17.144999999999957
30
0
40
0.25
0
CIRCLE
5
377
100
AcDbEntity
8
0
100
AcDbCircle
10
30.48
20
15.144999999999964
30
0
40
0.25
0
CIRCLE
5
378
100
AcDbEntity
8
0
100
AcDbCircle
10
30.48
20
17.144999999999957
30
0
40
0.25
0
CIRCLE
5
379
100
AcDbEntity
8
0
100
AcDbCircle
10
30.48
20
16.14499999999996
30
0
40
0.25
0
CIRCLE
5
380
100
AcDbEntity
8
0
100
AcDbCircle
10
30.480000000000036
20
18.144999999999953
30
0
40
0.25
0
LINE
5
381
100
AcDbEntity
8
0
100
AcDbLine
10
62.960000000000001
20
17.144999999999957
30
0
11
64.960000000000008
21
17.144999999999921
31
0
0
CIRCLE
5
382
100
AcDbEntity
8
0
100
AcDbCircle
10
64.960000000000008
20
15.144999999999964
30
0
40
0.25
0
CIRCLE
5
383
100
AcDbEntity
8
0
100
AcDbCircle
10
64.960000000000008
20
16.14499999999996
30
0
40
0.25
0
CIRCLE
5
384
100
AcDbEntity
8
0
100
AcDbCircle
10
64.959999999999937
20
19.14499999999995
30
0
40
0.25
0
CIRCLE
5
385
100
AcDbEntity
8
0
100
AcDbCircle
10
64.960000000000008
20
17.144999999999957
30
0
40
0.25
0
CIRCLE
5
386
100
AcDbEntity
8
0
100
AcDbCircle
10
64.959999999999965
20
18.144999999999953
30
0
40
0.25
0
CIRCLE
5
387
100
AcDbEntity
8
0
100
AcDbCircle
10
62.960000000000001
20
15.144999999999964
30
0
40
0.25
0
CIRCLE
5
388
100
AcDbEntity
8
0
100
AcDbCircle
10
62.960000000000001
20
16.14499999999996
30
0
40
0.25
0
CIRCLE
5
389
100
AcDbEntity
8
0
100
AcDbCircle
10
62.960000000000001
20
17.144999999999957
30
0
40
0.25
0
CIRCLE
5
390
100
AcDbEntity
8
0
100
AcDbCircle
10
62.960000000000001
20
17.144999999999957
30
0
40
0.25
0
CIRCLE
5
391
100
AcDbEntity
8
0
100
AcDbCircle
10
62.960000000000036
20
18.144999999999953
30
0
40
0.25
0
CIRCLE
5
392
100
AcDbEntity
8
0
100
AcDbCircle
10
63.960000000000541
20
15.144997875194532
30
0
40
1
0
CIRCLE
5
393
100
AcDbEntity
8
0
100
AcDbCircle
10
63.960000000000612
20
19.145002124805345
30
0
40
1
0
CIRCLE
5
394
100
AcDbEntity
8
0
100
AcDbCircle
10
62.960000000000072
20
19.14499999999995
30
0
40
0.25
0
LINE
5
395
100
AcDbEntity
8
0
100
AcDbLine
10
64.960000000000008
20
27.305
30
0
11
64.960000000000008
21
39.465000000000003
31
0
0
LINE
5
396
100
AcDbEntity
8
0
100
AcDbLine
10
-1.9722154956875946
20
39
30
0
11
-1.9999999999999978
21
27.305
31
0
0
LINE
5
397
100
AcDbEntity
8
0
100
AcDbLine
10
20.955000000000005
20
-2
30
0
11
42.004999999999995
21
-2
31
0
0
LINE
5
398
100
AcDbEntity
8
0
100
AcDbLine
10
18.608427124318045
20
76.389999999950717
30
0
11
44.351572875226125
21
76.389999999950717
31
0
0
ENDSEC
0
SECTION
2
OBJECTS
0
DICTIONARY
5
C
100
AcDbDictionary
3
ACAD_GROUP
350
D
3
ACAD_MLINESTYLE
350
17
0
DICTIONARY
5
D
100
AcDbDictionary
0
DICTIONARY
5
1A
330
C
100
AcDbDictionary
0
DICTIONARY
5
17
100
AcDbDictionary
0
ENDSEC
0
EOF
