0
SECTION
2
HEADER
9
$INSUNITS
70
4
9
$ACADVER
1
AC1014
9
$HANDSEED
5
FFFF
0
ENDSEC
0
SECTION
2
TABLES
0
TABLE
2
VPORT
5
8
100
AcDbSymbolTable
0
ENDTAB
0
TABLE
2
LTYPE
5
5
100
AcDbSymbolTable
0
LTYPE
5
14
100
AcDbSymbolTableRecord
100
AcDbLinetypeTableRecord
2
BYBLOCK
70
0
0
LTYPE
5
15
100
AcDbSymbolTableRecord
100
AcDbLinetypeTableRecord
2
BYLAYER
70
0
0
ENDTAB
0
TABLE
2
LAYER
5
2
100
AcDbSymbolTable
70
2
0
LAYER
5
50
100
AcDbSymbolTableRecord
100
AcDbLayerTableRecord
2
0
70
0
6
CONTINUOUS
0
ENDTAB
0
TABLE
2
STYLE
5
3
100
AcDbSymbolTable
70
1
0
STYLE
5
11
100
AcDbSymbolTableRecord
100
AcDbTextStyleTableRecord
2
STANDARD
70
0
0
ENDTAB
0
TABLE
2
VIEW
5
6
100
AcDbSymbolTable
70
0
0
ENDTAB
0
TABLE
2
UCS
5
7
100
AcDbSymbolTable
70
0
0
ENDTAB
0
TABLE
2
APPID
5
9
100
AcDbSymbolTable
70
2
0
APPID
5
12
100
AcDbSymbolTableRecord
100
AcDbRegAppTableRecord
2
ACAD
70
0
0
ENDTAB
0
TABLE
2
DIMSTYLE
5
A
100
AcDbSymbolTable
70
1
0
ENDTAB
0
TABLE
2
BLOCK_RECORD
5
1
100
AcDbSymbolTable
70
1
0
BLOCK_RECORD
5
1F
100
AcDbSymbolTableRecord
100
AcDbBlockTableRecord
2
*MODEL_SPACE
0
BLOCK_RECORD
5
1B
100
AcDbSymbolTableRecord
100
AcDbBlockTableRecord
2
*PAPER_SPACE
0
ENDTAB
0
ENDSEC
0
SECTION
2
BLOCKS
0
BLOCK
5
20
100
AcDbEntity
100
AcDbBlockBegin
2
*MODEL_SPACE
0
ENDBLK
5
21
100
AcDbEntity
100
AcDbBlockEnd
0
BLOCK
5
1C
100
AcDbEntity
100
AcDbBlockBegin
2
*PAPER_SPACE
0
ENDBLK
5
1D
100
AcDbEntity
100
AcDbBlockEnd
0
ENDSEC
0
SECTION
2
ENTITIES
0
CIRCLE
5
100
100
AcDbEntity
8
0
100
AcDbCircle
10
-66.479999999999905
20
2.9999999999999916
30
0
40
1.6000000000000014
0
LWPOLYLINE
5
101
100
AcDbEntity
8
0
100
AcDbPolyline
90
26
70
1
43
0.0
10
-11.871572875253822
20
-76.390000000000015
10
-6.8900000000000006
20
-71.408427124746197
10
-6.8900000000000006
20
-66.328427124746199
10
-5.5215728752538151
20
-64.960000000000008
10
-1.9050000000000014
20
-64.960000000000008
42
0.41421355930093262
10
2.0000000000010809
20
-61.055000040959641
10
2.00000000000108
20
-39.465000040959644
42
0.02984919513352359
10
1.9722154956875926
20
-39
10
1.9999415825289772
20
-27.329588969325318
42
0.0011878779427648342
10
2.0000000000000018
20
-27.305
10
1.9999999999999996
20
-6.9850000000000012
42
0.41421356237309476
10
-1.9050000000000011
20
-3.0800000000000005
10
-5.6200000000000028
20
-3.0799999999999987
10
-5.620000000000001
20
-1.9050000000000007
42
0.41421356237309531
10
-9.5250000000000057
20
2.0000000000000013
10
-53.435000000000002
20
1.9999999999999993
42
0.41421356237309392
10
-57.340000000000011
20
-1.9050000000000007
10
-57.340000000000011
20
-3.0800000000000001
10
-61.055
20
-3.0800000000000005
42
0.41421356237309354
10
-64.960000000000008
20
-6.9850000000000012
10
-64.960000000000008
20
-61.055
42
0.41421356237309903
10
-61.055
20
-64.960000000000008
10
-57.438427124746184
20
-64.960000000000008
10
-56.07
20
-66.328427124746199
10
-56.07
20
-71.408427124746197
10
-51.088427124746183
20
-76.390000000000015
0
CIRCLE
5
102
100
AcDbEntity
8
0
100
AcDbCircle
10
3.5199999999999632
20
-77.000000000000014
30
0
40
1.6000000000000003
0
CIRCLE
5
103
100
AcDbEntity
8
0
100
AcDbCircle
10
3.5199999999999916
20
2.9999999999999916
30
0
40
1.6000000000000003
0
CIRCLE
5
104
100
AcDbEntity
8
0
100
AcDbCircle
10
-66.479999999999933
20
-76.999999999999972
30
0
40
1.6000000000000014
0
LWPOLYLINE
5
105
100
AcDbEntity
8
0
100
AcDbPolyline
90
4
70
1
43
0.0
10
8.5199999999999925
20
8.0000000000000071
10
8.5200000000000209
20
-82
10
-71.479999999999976
20
-82
10
-71.47999999999999
20
8.0000000000000071
0
CIRCLE
5
106
100
AcDbEntity
8
0
100
AcDbCircle
10
-3.8100000000000001
20
-59.149999999999999
30
0
40
1.6000000000000003
0
CIRCLE
5
107
100
AcDbEntity
8
0
100
AcDbCircle
10
-3.8100000000000001
20
-41.370000000000005
30
0
40
1.6000000000000003
0
CIRCLE
5
108
100
AcDbEntity
8
0
100
AcDbCircle
10
-26.670000000000002
20
-59.149999999999999
30
0
40
1.6000000000000014
0
CIRCLE
5
109
100
AcDbEntity
8
0
100
AcDbCircle
10
-26.670000000000002
20
-41.370000000000005
30
0
40
1.6000000000000014
0
LWPOLYLINE
5
110
100
AcDbEntity
8
0
100
AcDbPolyline
90
24
70
1
43
0.0
10
-30.48
20
-39.465000000000003
42
-0.41421356237309503
10
-28.574999999999999
20
-37.560000000000002
10
-24.765000000000001
20
-37.560000000000002
42
0.41421356237309503
10
-22.859999999999999
20
-35.655000000000001
10
-22.860000000000007
20
-34.385000000000005
42
-0.41421356237309503
10
-20.955000000000005
20
-32.480000000000004
10
-9.5250000000000021
20
-32.480000000000004
42
-0.41421356237309503
10
-7.6200000000000001
20
-34.385000000000005
10
-7.6200000000000001
20
-35.655000000000001
42
0.41421356237309492
10
-5.7149999999999999
20
-37.560000000000002
10
-1.9050000000000009
20
-37.560000000000002
42
-0.41421356237309503
10
0
20
-39.465000000000003
10
2.7755575615628914e-16
20
-61.055
42
-0.41421356237309492
10
-1.905
20
-62.960000000000001
10
-6.3500000000000014
20
-62.960000000000001
10
-8.8900000000000006
20
-65.5
10
-8.8900000000000006
20
-70.580000000000013
10
-12.700000000000005
20
-74.390000000000015
10
-17.780000000000005
20
-74.390000000000015
10
-21.590000000000003
20
-70.580000000000013
10
-21.590000000000003
20
-65.5
10
-24.130000000000003
20
-62.960000000000001
10
-28.574999999999999
20
-62.960000000000001
42
-0.41421356237309503
10
-30.48
20
-61.055
0
CIRCLE
5
111
100
AcDbEntity
8
0
100
AcDbCircle
10
-36.289999999999999
20
-41.370000000000005
30
0
40
1.6000000000000014
0
CIRCLE
5
112
100
AcDbEntity
8
0
100
AcDbCircle
10
-59.150000000000006
20
-41.370000000000005
30
0
40
1.6000000000000014
0
CIRCLE
5
113
100
AcDbEntity
8
0
100
AcDbCircle
10
-59.150000000000006
20
-59.149999999999999
30
0
40
1.6000000000000014
0
CIRCLE
5
114
100
AcDbEntity
8
0
100
AcDbCircle
10
-36.289999999999999
20
-59.149999999999999
30
0
40
1.6000000000000014
0
LINE
5
115
100
AcDbEntity
8
0
100
AcDbLine
10
-41.370000000000005
20
-70.580000000000013
30
0
11
-41.370000000000005
21
-65.5
31
0
0
LINE
5
116
100
AcDbEntity
8
0
100
AcDbLine
10
-41.370000000000005
20
-65.5
30
0
11
-38.829999999999998
21
-62.960000000000001
31
0
0
LINE
5
117
100
AcDbEntity
8
0
100
AcDbLine
10
-38.829999999999998
20
-62.960000000000001
30
0
11
-34.385000000000005
21
-62.960000000000001
31
0
0
ARC
5
118
100
AcDbEntity
8
0
100
AcDbCircle
10
-34.385000000000005
20
-61.055
30
0
40
1.9050000000000011
100
AcDbArc
50
-90
51
0
0
LINE
5
119
100
AcDbEntity
8
0
100
AcDbLine
10
-32.479999928776763
20
-61.055
30
0
11
-32.479999928776763
21
-39.465000000000003
31
0
0
ARC
5
120
100
AcDbEntity
8
0
100
AcDbCircle
10
-34.385000000000005
20
-39.465000000000003
30
0
40
1.9050000000000011
100
AcDbArc
50
0
51
90
0
LINE
5
121
100
AcDbEntity
8
0
100
AcDbLine
10
-34.385000000000005
20
-37.560000000000002
30
0
11
-38.195
21
-37.559999999999995
31
0
0
ARC
5
122
100
AcDbEntity
8
0
100
AcDbCircle
10
-38.194999999999993
20
-35.654999999999994
30
0
40
1.9050000000000056
100
AcDbArc
50
180
51
269.99999999999983
0
LINE
5
123
100
AcDbEntity
8
0
100
AcDbLine
10
-40.099999999999994
20
-35.655000000000001
30
0
11
-40.099999999999994
21
-34.385000000000005
31
0
0
ARC
5
124
100
AcDbEntity
8
0
100
AcDbCircle
10
-42.004999999999995
20
-34.385000000000005
30
0
40
1.9050000000000011
100
AcDbArc
50
0
51
90
0
LINE
5
125
100
AcDbEntity
8
0
100
AcDbLine
10
-42.004999999999995
20
-32.480000000000004
30
0
11
-53.435000000000002
21
-32.480000000000004
31
0
0
ARC
5
126
100
AcDbEntity
8
0
100
AcDbCircle
10
-53.435000000000002
20
-34.385000000000005
30
0
40
1.9050000000000011
100
AcDbArc
50
90
51
180
0
LINE
5
127
100
AcDbEntity
8
0
100
AcDbLine
10
-55.340000000000003
20
-34.385000000000005
30
0
11
-55.340000000000003
21
-35.655000000000001
31
0
0
ARC
5
128
100
AcDbEntity
8
0
100
AcDbCircle
10
-57.245000000000005
20
-35.655000000000001
30
0
40
1.9050000000000011
100
AcDbArc
50
-90
51
0
0
LINE
5
129
100
AcDbEntity
8
0
100
AcDbLine
10
-57.245000000000005
20
-37.560000000000002
30
0
11
-61.055
21
-37.560000000000002
31
0
0
ARC
5
130
100
AcDbEntity
8
0
100
AcDbCircle
10
-61.055
20
-39.465000000000003
30
0
40
1.9050000000000011
100
AcDbArc
50
90
51
180
0
LINE
5
131
100
AcDbEntity
8
0
100
AcDbLine
10
-62.960000000000001
20
-39.465000000000003
30
0
11
-62.960000000000001
21
-61.055
31
0
0
ARC
5
132
100
AcDbEntity
8
0
100
AcDbCircle
10
-61.055
20
-61.055
30
0
40
1.9050000000000011
100
AcDbArc
50
180
51
270
0
LINE
5
133
100
AcDbEntity
8
0
100
AcDbLine
10
-61.055
20
-62.960000000000001
30
0
11
-56.609999999999999
21
-62.960000000000001
31
0
0
LINE
5
134
100
AcDbEntity
8
0
100
AcDbLine
10
-56.609999999999999
20
-62.960000000000001
30
0
11
-54.07
21
-65.5
31
0
0
LINE
5
135
100
AcDbEntity
8
0
100
AcDbLine
10
-54.07
20
-65.5
30
0
11
-54.07
21
-70.580000000000013
31
0
0
LINE
5
136
100
AcDbEntity
8
0
100
AcDbLine
10
-54.07
20
-70.580000000000013
30
0
11
-50.259999999999998
21
-74.390000000000015
31
0
0
LINE
5
137
100
AcDbEntity
8
0
100
AcDbLine
10
-50.259999999999998
20
-74.390000000000015
30
0
11
-45.18
21
-74.390000000000015
31
0
0
LINE
5
138
100
AcDbEntity
8
0
100
AcDbLine
10
-45.18
20
-74.390000000000015
30
0
11
-41.370000000000005
21
-70.580000000000013
31
0
0
CIRCLE
5
139
100
AcDbEntity
8
0
100
AcDbCircle
10
-3.8100000000000001
20
-8.8900000000000006
30
0
40
1.6000000000000003
0
CIRCLE
5
140
100
AcDbEntity
8
0
100
AcDbCircle
10
-26.670000000000002
20
-8.8900000000000006
30
0
40
1.6000000000000014
0
LWPOLYLINE
5
141
100
AcDbEntity
8
0
100
AcDbPolyline
90
16
70
1
43
0.0
10
-1.6653345369377348e-15
20
-27.305
42
-0.41421356237309498
10
-3.1749999999999989
20
-30.48
10
-27.305
20
-30.48
42
-0.41421356237309503
10
-30.48
20
-27.305
10
-30.48
20
-6.9850000000000012
42
-0.41421356237309503
10
-28.574999999999999
20
-5.0800000000000001
10
-24.765000000000001
20
-5.0800000000000001
42
0.41421356237309498
10
-22.859999999999999
20
-3.1749999999999998
10
-22.860000000000007
20
-1.9050000000000009
42
-0.41421356237309503
10
-20.955000000000005
20
0
10
-9.5250000000000021
20
1.1102230246251565e-15
42
-0.41421356237309503
10
-7.6200000000000001
20
-1.905
10
-7.6200000000000001
20
-3.1749999999999989
42
0.4142135623730942
10
-5.7149999999999999
20
-5.0799999999999992
10
-1.9050000000000009
20
-5.0800000000000001
42
-0.41421356237309503
10
0
20
-6.9850000000000012
0
CIRCLE
5
142
100
AcDbEntity
8
0
100
AcDbCircle
10
-36.289999999999999
20
-8.8900000000000023
30
0
40
1.6000000000000014
0
CIRCLE
5
143
100
AcDbEntity
8
0
100
AcDbCircle
10
-59.150000000000006
20
-8.8900000000000023
30
0
40
1.6000000000000014
0
LWPOLYLINE
5
144
100
AcDbEntity
8
0
100
AcDbPolyline
90
16
70
1
43
0.0
10
-61.055
20
-5.0800000000000001
10
-57.245000000000005
20
-5.0800000000000001
42
0.41421356237309492
10
-55.340000000000003
20
-3.1749999999999989
10
-55.340000000000003
20
-1.9050000000000011
42
-0.41421356237309503
10
-53.435000000000002
20
0
10
-42.004999999999995
20
0
42
-0.41421356237309503
10
-40.099999999999994
20
-1.9050000000000011
10
-40.099999999999994
20
-3.1749999999999989
42
0.41421356237309387
10
-38.195
20
-5.0800000000000001
10
-34.385000000000005
20
-5.0800000000000001
42
-0.41421356237309503
10
-32.480000000000004
20
-6.9850000000000012
10
-32.480000000000004
20
-27.305
42
-0.41421356237309503
10
-35.655000000000001
20
-30.48
10
-59.785000000000004
20
-30.48
42
-0.41421356237309503
10
-62.960000000000001
20
-27.305
10
-62.960000000000001
20
-6.9850000000000012
42
-0.41421356237309503
0
CIRCLE
5
145
100
AcDbEntity
8
0
100
AcDbCircle
10
-66.479999999999905
20
2.9999999999999916
30
0
40
1.6000000000000014
0
LWPOLYLINE
5
146
100
AcDbEntity
8
0
100
AcDbPolyline
90
26
70
1
43
0.0
10
-6.8900000000000023
20
-71.408427124746197
10
-11.871572875253818
20
-76.390000000000015
10
-51.088427124746183
20
-76.390000000000015
10
-56.07
20
-71.408427124746197
10
-56.07
20
-66.328427124746199
10
-57.438427124746184
20
-64.960000000000008
10
-61.055
20
-64.960000000000008
42
-0.41421356237309903
10
-64.960000000000008
20
-61.055
10
-64.960000000000008
20
-6.985000000000003
42
-0.41421356237309365
10
-61.055
20
-3.0800000000000001
10
-57.340000000000011
20
-3.0800000000000001
10
-57.340000000000003
20
-1.9050000000000022
42
-0.41421356237309398
10
-53.435000000000002
20
2
10
-9.5250000000000021
20
2.0000000000000013
42
-0.41421356237309503
10
-5.620000000000001
20
-1.9050000000000002
10
-5.620000000000001
20
-3.0799999999999987
10
-1.905000000000002
20
-3.0800000000000018
42
-0.41421356237309481
10
1.9999999999999998
20
-6.9850000000000012
10
1.9999999999999429
20
-27.304999999999996
42
-0.0011878779427648587
10
1.99994158252892
20
-27.329588969325318
10
1.9722154956886686
20
-38.999999999999872
42
-0.029849195133523788
10
2.0000000000010805
20
-39.465000040959644
10
2.0000000000000022
20
-61.055000040959641
42
-0.41421355930093262
10
-1.9050000000000011
20
-64.960000000000008
10
-5.5215728752538142
20
-64.960000000000008
10
-6.8900000000000023
20
-66.328427124746199
0
CIRCLE
5
147
100
AcDbEntity
8
0
100
AcDbCircle
10
3.5199999999999632
20
-77.000000000000014
30
0
40
1.6000000000000003
0
CIRCLE
5
148
100
AcDbEntity
8
0
100
AcDbCircle
10
3.5199999999999916
20
2.9999999999999916
30
0
40
1.6000000000000003
0
CIRCLE
5
149
100
AcDbEntity
8
0
100
AcDbCircle
10
-66.479999999999933
20
-76.999999999999972
30
0
40
1.6000000000000014
0
LWPOLYLINE
5
150
100
AcDbEntity
8
0
100
AcDbPolyline
90
4
70
1
43
0.0
10
8.5200000000000191
20
-82
10
8.5199999999999942
20
8.0000000000000071
10
-71.47999999999999
20
8.0000000000000071
10
-71.479999999999976
20
-82
0
ENDSEC
0
SECTION
2
OBJECTS
0
DICTIONARY
5
C
100
AcDbDictionary
3
ACAD_GROUP
350
D
3
ACAD_MLINESTYLE
350
17
0
DICTIONARY
5
D
100
AcDbDictionary
0
DICTIONARY
5
1A
330
C
100
AcDbDictionary
0
DICTIONARY
5
17
100
AcDbDictionary
0
ENDSEC
0
EOF
