G04 EAGLE Gerber X2 export*
G75*
%MOIN*%
%FSLAX24Y24*%
%LPD*%
%AMOC8*
5,1,8,0,0,1.08239X$1,22.5*%
G01*
%ADD10R,0.021654X0.039370*%
%ADD11R,0.019685X0.009055*%
%ADD12C,0.074000*%
%ADD13C,0.062992*%
%ADD14C,0.027811*%
%ADD15C,0.016000*%
%ADD16C,0.029780*%
%ADD17C,0.008000*%
%ADD18C,0.012000*%

G36*
X11656Y3601D02*
X11656Y3601D01*
X11660Y3601D01*
X11694Y3603D01*
X11697Y3604D01*
X11701Y3604D01*
X11707Y3606D01*
X11709Y3606D01*
X11711Y3607D01*
X11712Y3607D01*
X11777Y3628D01*
X11783Y3631D01*
X11789Y3633D01*
X11790Y3634D01*
X11791Y3634D01*
X11794Y3636D01*
X11799Y3639D01*
X11854Y3679D01*
X11859Y3684D01*
X11864Y3688D01*
X11865Y3689D01*
X11866Y3690D01*
X11868Y3692D01*
X11872Y3697D01*
X11912Y3752D01*
X11915Y3758D01*
X11919Y3763D01*
X11919Y3765D01*
X11920Y3766D01*
X11921Y3768D01*
X11923Y3774D01*
X11944Y3839D01*
X11945Y3842D01*
X11946Y3846D01*
X11947Y3852D01*
X11948Y3854D01*
X11948Y3856D01*
X11948Y3857D01*
X11951Y3891D01*
X11951Y3894D01*
X11951Y3898D01*
X11951Y4626D01*
X12060Y4964D01*
X12269Y5251D01*
X12556Y5459D01*
X12893Y5569D01*
X13415Y5569D01*
X13418Y5569D01*
X13421Y5569D01*
X13426Y5570D01*
X13431Y5570D01*
X13434Y5571D01*
X13437Y5572D01*
X13441Y5574D01*
X13446Y5575D01*
X13449Y5576D01*
X13451Y5578D01*
X13456Y5580D01*
X13460Y5583D01*
X13462Y5585D01*
X13465Y5586D01*
X13468Y5590D01*
X13472Y5593D01*
X13474Y5595D01*
X13476Y5597D01*
X13479Y5601D01*
X13482Y5605D01*
X13483Y5608D01*
X13485Y5610D01*
X13487Y5615D01*
X13489Y5619D01*
X13490Y5622D01*
X13491Y5625D01*
X13492Y5630D01*
X13493Y5634D01*
X13494Y5637D01*
X13494Y5640D01*
X13494Y5645D01*
X13494Y5650D01*
X13494Y5653D01*
X13494Y5656D01*
X13493Y5661D01*
X13493Y5666D01*
X13492Y5669D01*
X13491Y5671D01*
X13489Y5676D01*
X13487Y5681D01*
X13486Y5683D01*
X13485Y5686D01*
X13482Y5690D01*
X13480Y5694D01*
X13478Y5697D01*
X13476Y5699D01*
X13472Y5702D01*
X13469Y5706D01*
X13467Y5708D01*
X13465Y5710D01*
X13459Y5714D01*
X13457Y5716D01*
X13456Y5716D01*
X13455Y5717D01*
X13214Y5856D01*
X13023Y6047D01*
X12887Y6282D01*
X12817Y6545D01*
X12817Y6816D01*
X12887Y7078D01*
X13023Y7313D01*
X13214Y7505D01*
X13449Y7641D01*
X13712Y7711D01*
X13983Y7711D01*
X14245Y7641D01*
X14480Y7505D01*
X14672Y7313D01*
X14795Y7100D01*
X14797Y7098D01*
X14798Y7095D01*
X14801Y7091D01*
X14804Y7087D01*
X14806Y7085D01*
X14808Y7083D01*
X14812Y7080D01*
X14816Y7076D01*
X14818Y7075D01*
X14821Y7073D01*
X14825Y7071D01*
X14829Y7068D01*
X14832Y7067D01*
X14835Y7066D01*
X14839Y7064D01*
X14844Y7063D01*
X14847Y7062D01*
X14850Y7062D01*
X14855Y7061D01*
X14860Y7060D01*
X14863Y7061D01*
X14866Y7060D01*
X14871Y7061D01*
X14875Y7061D01*
X14878Y7062D01*
X14881Y7062D01*
X14886Y7064D01*
X14891Y7065D01*
X14893Y7066D01*
X14896Y7067D01*
X14901Y7070D01*
X14905Y7072D01*
X14907Y7074D01*
X14910Y7075D01*
X14914Y7079D01*
X14918Y7081D01*
X14920Y7084D01*
X14922Y7086D01*
X14925Y7090D01*
X14928Y7093D01*
X14930Y7096D01*
X14931Y7098D01*
X14933Y7103D01*
X14936Y7107D01*
X14937Y7110D01*
X14938Y7112D01*
X14939Y7117D01*
X14941Y7122D01*
X14941Y7125D01*
X14942Y7128D01*
X14943Y7135D01*
X14943Y7138D01*
X14943Y7140D01*
X14943Y8787D01*
X14943Y8789D01*
X14943Y8791D01*
X14942Y8797D01*
X14941Y8803D01*
X14941Y8805D01*
X14941Y8806D01*
X14937Y8817D01*
X14855Y9015D01*
X14855Y9213D01*
X14883Y9281D01*
X14883Y9282D01*
X14884Y9283D01*
X14886Y9290D01*
X14888Y9296D01*
X14888Y9297D01*
X14888Y9299D01*
X14888Y9305D01*
X14889Y9312D01*
X14889Y9313D01*
X14889Y9314D01*
X14888Y9321D01*
X14887Y9327D01*
X14887Y9329D01*
X14887Y9330D01*
X14883Y9341D01*
X14855Y9409D01*
X14855Y9607D01*
X14883Y9674D01*
X14883Y9676D01*
X14884Y9677D01*
X14886Y9683D01*
X14888Y9690D01*
X14888Y9691D01*
X14888Y9692D01*
X14888Y9699D01*
X14889Y9705D01*
X14889Y9707D01*
X14889Y9708D01*
X14888Y9715D01*
X14887Y9721D01*
X14887Y9722D01*
X14887Y9724D01*
X14883Y9735D01*
X14855Y9802D01*
X14855Y10001D01*
X14883Y10068D01*
X14883Y10070D01*
X14884Y10071D01*
X14886Y10077D01*
X14888Y10083D01*
X14888Y10085D01*
X14888Y10086D01*
X14888Y10093D01*
X14889Y10099D01*
X14889Y10100D01*
X14889Y10102D01*
X14888Y10108D01*
X14887Y10115D01*
X14887Y10116D01*
X14887Y10117D01*
X14883Y10129D01*
X14855Y10196D01*
X14855Y10395D01*
X14883Y10462D01*
X14883Y10463D01*
X14884Y10465D01*
X14886Y10471D01*
X14888Y10477D01*
X14888Y10478D01*
X14888Y10480D01*
X14888Y10486D01*
X14889Y10493D01*
X14889Y10494D01*
X14889Y10496D01*
X14888Y10502D01*
X14887Y10508D01*
X14887Y10510D01*
X14887Y10511D01*
X14883Y10522D01*
X14855Y10590D01*
X14855Y10788D01*
X14937Y10986D01*
X14937Y10987D01*
X14938Y10989D01*
X14940Y10995D01*
X14941Y11001D01*
X14942Y11002D01*
X14942Y11004D01*
X14943Y11016D01*
X14943Y13890D01*
X14943Y13892D01*
X14943Y13896D01*
X14935Y13988D01*
X14935Y13990D01*
X14935Y13992D01*
X14934Y13997D01*
X14933Y14000D01*
X14933Y14001D01*
X14932Y14004D01*
X14882Y14182D01*
X14880Y14186D01*
X14879Y14190D01*
X14877Y14194D01*
X14876Y14197D01*
X14875Y14198D01*
X14873Y14201D01*
X14778Y14360D01*
X14775Y14364D01*
X14773Y14367D01*
X14770Y14371D01*
X14769Y14373D01*
X14767Y14374D01*
X14765Y14376D01*
X14632Y14505D01*
X14629Y14508D01*
X14625Y14511D01*
X14622Y14513D01*
X14620Y14515D01*
X14618Y14516D01*
X14615Y14518D01*
X14453Y14608D01*
X14449Y14609D01*
X14445Y14612D01*
X14441Y14613D01*
X14439Y14614D01*
X14437Y14614D01*
X14434Y14615D01*
X14254Y14660D01*
X14253Y14661D01*
X14251Y14661D01*
X14239Y14663D01*
X14148Y14667D01*
X14146Y14667D01*
X14144Y14667D01*
X14138Y14667D01*
X14137Y14667D01*
X14047Y14666D01*
X14046Y14666D01*
X14045Y14666D01*
X14033Y14667D01*
X10303Y14667D01*
X10301Y14667D01*
X10295Y14667D01*
X10257Y14663D01*
X10251Y14662D01*
X10246Y14661D01*
X10243Y14660D01*
X10241Y14660D01*
X10239Y14659D01*
X10238Y14658D01*
X10218Y14658D01*
X10215Y14658D01*
X10209Y14658D01*
X10187Y14656D01*
X10184Y14656D01*
X10181Y14657D01*
X10178Y14657D01*
X10171Y14658D01*
X10168Y14658D01*
X10167Y14658D01*
X10166Y14658D01*
X10039Y14658D01*
X9971Y14686D01*
X9970Y14687D01*
X9969Y14687D01*
X9962Y14689D01*
X9956Y14691D01*
X9955Y14691D01*
X9953Y14691D01*
X9947Y14692D01*
X9940Y14692D01*
X9939Y14692D01*
X9938Y14692D01*
X9931Y14691D01*
X9925Y14691D01*
X9923Y14690D01*
X9922Y14690D01*
X9911Y14686D01*
X9843Y14658D01*
X9645Y14658D01*
X9578Y14686D01*
X9576Y14687D01*
X9575Y14687D01*
X9569Y14689D01*
X9562Y14691D01*
X9561Y14691D01*
X9560Y14691D01*
X9553Y14692D01*
X9547Y14692D01*
X9545Y14692D01*
X9544Y14692D01*
X9537Y14691D01*
X9531Y14691D01*
X9530Y14690D01*
X9528Y14690D01*
X9517Y14686D01*
X9450Y14658D01*
X9251Y14658D01*
X9184Y14686D01*
X9182Y14687D01*
X9181Y14687D01*
X9175Y14689D01*
X9169Y14691D01*
X9167Y14691D01*
X9166Y14691D01*
X9159Y14692D01*
X9153Y14692D01*
X9152Y14692D01*
X9150Y14692D01*
X9144Y14691D01*
X9137Y14691D01*
X9136Y14690D01*
X9134Y14690D01*
X9123Y14686D01*
X9056Y14658D01*
X8857Y14658D01*
X8790Y14686D01*
X8789Y14687D01*
X8787Y14687D01*
X8781Y14689D01*
X8775Y14691D01*
X8774Y14691D01*
X8772Y14691D01*
X8766Y14692D01*
X8759Y14692D01*
X8758Y14692D01*
X8756Y14692D01*
X8750Y14691D01*
X8744Y14691D01*
X8742Y14690D01*
X8741Y14690D01*
X8730Y14686D01*
X8662Y14658D01*
X8464Y14658D01*
X8314Y14720D01*
X8312Y14721D01*
X8311Y14722D01*
X8305Y14723D01*
X8299Y14725D01*
X8297Y14725D01*
X8295Y14726D01*
X8284Y14726D01*
X4587Y14726D01*
X4585Y14726D01*
X4581Y14726D01*
X4489Y14720D01*
X4487Y14720D01*
X4485Y14720D01*
X4473Y14718D01*
X4294Y14670D01*
X4290Y14668D01*
X4286Y14667D01*
X4282Y14665D01*
X4280Y14664D01*
X4278Y14663D01*
X4275Y14662D01*
X4115Y14569D01*
X4111Y14566D01*
X4107Y14564D01*
X4104Y14561D01*
X4102Y14560D01*
X4101Y14558D01*
X4098Y14556D01*
X3967Y14425D01*
X3964Y14422D01*
X3961Y14419D01*
X3959Y14415D01*
X3957Y14413D01*
X3956Y14411D01*
X3955Y14409D01*
X3862Y14248D01*
X3860Y14244D01*
X3858Y14240D01*
X3856Y14236D01*
X3855Y14234D01*
X3855Y14232D01*
X3854Y14229D01*
X3806Y14050D01*
X3806Y14048D01*
X3805Y14047D01*
X3803Y14035D01*
X3797Y13942D01*
X3797Y13940D01*
X3797Y13937D01*
X3797Y10873D01*
X3797Y10872D01*
X3797Y10870D01*
X3798Y10864D01*
X3799Y10858D01*
X3799Y10856D01*
X3800Y10854D01*
X3803Y10843D01*
X3826Y10788D01*
X3826Y10590D01*
X3798Y10522D01*
X3798Y10521D01*
X3797Y10520D01*
X3795Y10514D01*
X3794Y10507D01*
X3793Y10506D01*
X3793Y10504D01*
X3793Y10498D01*
X3792Y10492D01*
X3792Y10490D01*
X3792Y10489D01*
X3793Y10482D01*
X3794Y10476D01*
X3794Y10475D01*
X3794Y10473D01*
X3798Y10462D01*
X3826Y10395D01*
X3826Y10196D01*
X3798Y10129D01*
X3798Y10128D01*
X3797Y10127D01*
X3797Y10126D01*
X3795Y10120D01*
X3794Y10114D01*
X3793Y10113D01*
X3793Y10112D01*
X3793Y10111D01*
X3793Y10104D01*
X3792Y10098D01*
X3792Y10096D01*
X3792Y10095D01*
X3793Y10089D01*
X3794Y10082D01*
X3794Y10081D01*
X3794Y10079D01*
X3798Y10068D01*
X3826Y10001D01*
X3826Y9802D01*
X3798Y9735D01*
X3798Y9734D01*
X3797Y9732D01*
X3795Y9726D01*
X3794Y9720D01*
X3793Y9718D01*
X3793Y9717D01*
X3793Y9711D01*
X3792Y9704D01*
X3792Y9703D01*
X3792Y9701D01*
X3793Y9695D01*
X3794Y9689D01*
X3794Y9687D01*
X3794Y9686D01*
X3798Y9674D01*
X3826Y9607D01*
X3826Y9409D01*
X3798Y9341D01*
X3798Y9340D01*
X3797Y9339D01*
X3795Y9332D01*
X3794Y9326D01*
X3793Y9325D01*
X3793Y9323D01*
X3793Y9317D01*
X3792Y9311D01*
X3792Y9309D01*
X3792Y9308D01*
X3793Y9301D01*
X3794Y9295D01*
X3794Y9293D01*
X3794Y9292D01*
X3798Y9281D01*
X3826Y9213D01*
X3826Y9015D01*
X3803Y8960D01*
X3803Y8958D01*
X3802Y8957D01*
X3800Y8951D01*
X3799Y8945D01*
X3799Y8943D01*
X3798Y8942D01*
X3797Y8930D01*
X3797Y7219D01*
X3798Y7216D01*
X3797Y7213D01*
X3798Y7208D01*
X3799Y7203D01*
X3800Y7200D01*
X3800Y7197D01*
X3802Y7193D01*
X3803Y7188D01*
X3805Y7185D01*
X3806Y7183D01*
X3809Y7178D01*
X3811Y7174D01*
X3813Y7172D01*
X3814Y7169D01*
X3818Y7166D01*
X3821Y7162D01*
X3823Y7160D01*
X3826Y7158D01*
X3830Y7155D01*
X3833Y7152D01*
X3836Y7151D01*
X3839Y7149D01*
X3843Y7147D01*
X3847Y7145D01*
X3850Y7144D01*
X3853Y7143D01*
X3858Y7142D01*
X3863Y7141D01*
X3866Y7140D01*
X3869Y7140D01*
X3873Y7140D01*
X3878Y7139D01*
X3881Y7140D01*
X3884Y7140D01*
X3889Y7141D01*
X3894Y7141D01*
X3897Y7142D01*
X3900Y7143D01*
X3904Y7145D01*
X3909Y7146D01*
X3912Y7148D01*
X3914Y7149D01*
X3918Y7152D01*
X3923Y7154D01*
X3925Y7156D01*
X3927Y7158D01*
X3931Y7162D01*
X3935Y7165D01*
X3936Y7167D01*
X3938Y7169D01*
X3943Y7175D01*
X3944Y7177D01*
X3944Y7178D01*
X3945Y7179D01*
X4023Y7313D01*
X4214Y7505D01*
X4449Y7641D01*
X4712Y7711D01*
X4983Y7711D01*
X5245Y7641D01*
X5480Y7505D01*
X5672Y7313D01*
X5808Y7078D01*
X5878Y6816D01*
X5878Y6545D01*
X5808Y6282D01*
X5672Y6047D01*
X5480Y5856D01*
X5308Y5756D01*
X5305Y5754D01*
X5303Y5753D01*
X5299Y5750D01*
X5295Y5747D01*
X5293Y5745D01*
X5291Y5743D01*
X5288Y5739D01*
X5284Y5735D01*
X5283Y5733D01*
X5281Y5730D01*
X5279Y5726D01*
X5276Y5722D01*
X5275Y5719D01*
X5274Y5716D01*
X5272Y5712D01*
X5271Y5707D01*
X5270Y5704D01*
X5269Y5701D01*
X5269Y5696D01*
X5268Y5691D01*
X5268Y5688D01*
X5268Y5686D01*
X5269Y5681D01*
X5269Y5676D01*
X5270Y5673D01*
X5270Y5670D01*
X5272Y5665D01*
X5273Y5660D01*
X5274Y5658D01*
X5275Y5655D01*
X5278Y5651D01*
X5280Y5646D01*
X5282Y5644D01*
X5283Y5641D01*
X5286Y5638D01*
X5289Y5634D01*
X5292Y5632D01*
X5294Y5629D01*
X5297Y5626D01*
X5301Y5623D01*
X5304Y5622D01*
X5306Y5620D01*
X5311Y5618D01*
X5315Y5615D01*
X5318Y5614D01*
X5320Y5613D01*
X5325Y5612D01*
X5330Y5610D01*
X5333Y5610D01*
X5336Y5609D01*
X5343Y5609D01*
X5345Y5608D01*
X5346Y5608D01*
X5347Y5608D01*
X5847Y5608D01*
X6184Y5499D01*
X6471Y5290D01*
X6680Y5003D01*
X6789Y4666D01*
X6789Y3937D01*
X6790Y3935D01*
X6790Y3931D01*
X6792Y3897D01*
X6793Y3893D01*
X6793Y3890D01*
X6795Y3884D01*
X6795Y3881D01*
X6795Y3880D01*
X6796Y3878D01*
X6817Y3814D01*
X6819Y3810D01*
X6820Y3806D01*
X6821Y3804D01*
X6822Y3802D01*
X6823Y3800D01*
X6823Y3799D01*
X6825Y3797D01*
X6828Y3792D01*
X6828Y3791D01*
X6868Y3736D01*
X6873Y3731D01*
X6877Y3726D01*
X6878Y3725D01*
X6879Y3724D01*
X6881Y3723D01*
X6886Y3719D01*
X6941Y3679D01*
X6947Y3675D01*
X6952Y3672D01*
X6954Y3671D01*
X6955Y3671D01*
X6957Y3670D01*
X6963Y3667D01*
X7028Y3646D01*
X7031Y3646D01*
X7035Y3644D01*
X7041Y3644D01*
X7043Y3643D01*
X7045Y3643D01*
X7046Y3643D01*
X7080Y3640D01*
X7083Y3640D01*
X7087Y3640D01*
X8426Y3640D01*
X8428Y3640D01*
X8430Y3640D01*
X8436Y3641D01*
X8442Y3641D01*
X8443Y3642D01*
X8445Y3642D01*
X8456Y3646D01*
X8464Y3649D01*
X8662Y3649D01*
X8730Y3621D01*
X8731Y3621D01*
X8732Y3620D01*
X8738Y3618D01*
X8745Y3616D01*
X8746Y3616D01*
X8748Y3616D01*
X8754Y3616D01*
X8760Y3615D01*
X8762Y3615D01*
X8763Y3615D01*
X8770Y3616D01*
X8776Y3617D01*
X8777Y3617D01*
X8779Y3617D01*
X8790Y3621D01*
X8857Y3649D01*
X9056Y3649D01*
X9123Y3621D01*
X9125Y3621D01*
X9126Y3620D01*
X9132Y3618D01*
X9138Y3616D01*
X9140Y3616D01*
X9141Y3616D01*
X9148Y3616D01*
X9154Y3615D01*
X9155Y3615D01*
X9157Y3615D01*
X9163Y3616D01*
X9170Y3617D01*
X9171Y3617D01*
X9173Y3617D01*
X9184Y3621D01*
X9251Y3649D01*
X9450Y3649D01*
X9517Y3621D01*
X9518Y3621D01*
X9520Y3620D01*
X9526Y3618D01*
X9532Y3616D01*
X9533Y3616D01*
X9535Y3616D01*
X9541Y3616D01*
X9548Y3615D01*
X9549Y3615D01*
X9551Y3615D01*
X9557Y3616D01*
X9563Y3617D01*
X9565Y3617D01*
X9566Y3617D01*
X9578Y3621D01*
X9645Y3649D01*
X9843Y3649D01*
X9911Y3621D01*
X9912Y3621D01*
X9913Y3620D01*
X9920Y3618D01*
X9926Y3616D01*
X9927Y3616D01*
X9929Y3616D01*
X9935Y3616D01*
X9941Y3615D01*
X9943Y3615D01*
X9944Y3615D01*
X9951Y3616D01*
X9957Y3617D01*
X9959Y3617D01*
X9960Y3617D01*
X9971Y3621D01*
X10039Y3649D01*
X10237Y3649D01*
X10339Y3606D01*
X10341Y3606D01*
X10343Y3605D01*
X10349Y3604D01*
X10355Y3602D01*
X10356Y3602D01*
X10358Y3601D01*
X10370Y3600D01*
X11654Y3600D01*
X11656Y3601D01*
G37*
G36*
X24451Y3601D02*
X24451Y3601D01*
X24455Y3601D01*
X24489Y3603D01*
X24492Y3604D01*
X24496Y3604D01*
X24502Y3606D01*
X24505Y3606D01*
X24506Y3607D01*
X24507Y3607D01*
X24572Y3628D01*
X24578Y3631D01*
X24584Y3633D01*
X24586Y3634D01*
X24587Y3634D01*
X24589Y3636D01*
X24594Y3639D01*
X24650Y3679D01*
X24654Y3684D01*
X24659Y3688D01*
X24660Y3689D01*
X24661Y3690D01*
X24663Y3692D01*
X24667Y3697D01*
X24707Y3752D01*
X24710Y3758D01*
X24714Y3763D01*
X24715Y3765D01*
X24715Y3766D01*
X24716Y3768D01*
X24718Y3774D01*
X24740Y3839D01*
X24740Y3842D01*
X24741Y3846D01*
X24742Y3852D01*
X24743Y3854D01*
X24743Y3856D01*
X24743Y3857D01*
X24746Y3891D01*
X24746Y3894D01*
X24746Y3898D01*
X24746Y4626D01*
X24856Y4964D01*
X25064Y5251D01*
X25351Y5459D01*
X25689Y5569D01*
X26157Y5569D01*
X26160Y5569D01*
X26163Y5569D01*
X26168Y5570D01*
X26172Y5570D01*
X26175Y5571D01*
X26178Y5572D01*
X26183Y5574D01*
X26188Y5575D01*
X26190Y5576D01*
X26193Y5578D01*
X26197Y5580D01*
X26201Y5583D01*
X26204Y5585D01*
X26206Y5586D01*
X26210Y5590D01*
X26213Y5593D01*
X26215Y5595D01*
X26217Y5597D01*
X26220Y5601D01*
X26223Y5605D01*
X26225Y5608D01*
X26226Y5610D01*
X26228Y5615D01*
X26230Y5619D01*
X26231Y5622D01*
X26232Y5625D01*
X26233Y5630D01*
X26235Y5634D01*
X26235Y5637D01*
X26236Y5640D01*
X26236Y5645D01*
X26236Y5650D01*
X26236Y5653D01*
X26236Y5656D01*
X26235Y5661D01*
X26234Y5666D01*
X26233Y5669D01*
X26232Y5671D01*
X26231Y5676D01*
X26229Y5681D01*
X26227Y5683D01*
X26226Y5686D01*
X26224Y5690D01*
X26221Y5694D01*
X26219Y5697D01*
X26217Y5699D01*
X26214Y5702D01*
X26211Y5706D01*
X26208Y5708D01*
X26206Y5710D01*
X26200Y5714D01*
X26198Y5716D01*
X26197Y5716D01*
X26196Y5717D01*
X25990Y5836D01*
X25798Y6028D01*
X25662Y6263D01*
X25592Y6525D01*
X25592Y6796D01*
X25662Y7058D01*
X25798Y7293D01*
X25990Y7485D01*
X26225Y7621D01*
X26487Y7691D01*
X26759Y7691D01*
X27021Y7621D01*
X27256Y7485D01*
X27448Y7293D01*
X27584Y7057D01*
X27586Y7051D01*
X27587Y7049D01*
X27588Y7047D01*
X27591Y7042D01*
X27593Y7037D01*
X27595Y7036D01*
X27596Y7033D01*
X27600Y7030D01*
X27604Y7025D01*
X27606Y7024D01*
X27607Y7022D01*
X27612Y7019D01*
X27616Y7016D01*
X27618Y7014D01*
X27620Y7013D01*
X27625Y7011D01*
X27630Y7008D01*
X27632Y7008D01*
X27635Y7007D01*
X27640Y7006D01*
X27645Y7004D01*
X27648Y7004D01*
X27650Y7003D01*
X27656Y7003D01*
X27661Y7003D01*
X27663Y7003D01*
X27666Y7003D01*
X27671Y7004D01*
X27677Y7005D01*
X27679Y7006D01*
X27681Y7006D01*
X27686Y7008D01*
X27692Y7010D01*
X27694Y7011D01*
X27696Y7012D01*
X27701Y7015D01*
X27705Y7018D01*
X27707Y7019D01*
X27709Y7021D01*
X27713Y7025D01*
X27717Y7028D01*
X27719Y7030D01*
X27720Y7032D01*
X27723Y7036D01*
X27727Y7041D01*
X27728Y7043D01*
X27729Y7045D01*
X27731Y7050D01*
X27733Y7055D01*
X27734Y7057D01*
X27735Y7060D01*
X27736Y7065D01*
X27737Y7070D01*
X27738Y7073D01*
X27738Y7075D01*
X27738Y7078D01*
X27738Y7082D01*
X27738Y8722D01*
X27738Y8723D01*
X27738Y8725D01*
X27737Y8731D01*
X27737Y8737D01*
X27736Y8739D01*
X27736Y8741D01*
X27732Y8752D01*
X27729Y8759D01*
X27729Y8776D01*
X27729Y8778D01*
X27729Y8779D01*
X27728Y8785D01*
X27728Y8792D01*
X27727Y8793D01*
X27727Y8795D01*
X27725Y8801D01*
X27723Y8807D01*
X27722Y8808D01*
X27722Y8810D01*
X27718Y8815D01*
X27715Y8821D01*
X27714Y8822D01*
X27714Y8823D01*
X27707Y8831D01*
X27631Y9015D01*
X27631Y9213D01*
X27659Y9281D01*
X27659Y9282D01*
X27660Y9283D01*
X27661Y9290D01*
X27663Y9296D01*
X27663Y9297D01*
X27664Y9299D01*
X27664Y9305D01*
X27665Y9312D01*
X27664Y9313D01*
X27665Y9314D01*
X27664Y9321D01*
X27663Y9327D01*
X27663Y9329D01*
X27662Y9330D01*
X27659Y9341D01*
X27631Y9409D01*
X27631Y9607D01*
X27659Y9674D01*
X27659Y9676D01*
X27660Y9677D01*
X27661Y9683D01*
X27663Y9690D01*
X27663Y9691D01*
X27664Y9692D01*
X27664Y9699D01*
X27665Y9705D01*
X27664Y9707D01*
X27665Y9708D01*
X27664Y9715D01*
X27663Y9721D01*
X27663Y9722D01*
X27662Y9724D01*
X27659Y9735D01*
X27631Y9802D01*
X27631Y10001D01*
X27659Y10068D01*
X27659Y10070D01*
X27660Y10071D01*
X27661Y10077D01*
X27663Y10083D01*
X27663Y10085D01*
X27664Y10086D01*
X27664Y10093D01*
X27665Y10099D01*
X27664Y10100D01*
X27665Y10102D01*
X27664Y10108D01*
X27663Y10115D01*
X27663Y10116D01*
X27662Y10116D01*
X27662Y10117D01*
X27659Y10129D01*
X27631Y10196D01*
X27631Y10395D01*
X27659Y10462D01*
X27659Y10463D01*
X27660Y10465D01*
X27661Y10471D01*
X27663Y10477D01*
X27663Y10478D01*
X27664Y10480D01*
X27664Y10486D01*
X27665Y10493D01*
X27664Y10494D01*
X27665Y10496D01*
X27664Y10502D01*
X27663Y10508D01*
X27663Y10510D01*
X27662Y10511D01*
X27659Y10522D01*
X27631Y10590D01*
X27631Y10788D01*
X27673Y10891D01*
X27674Y10892D01*
X27674Y10894D01*
X27676Y10900D01*
X27678Y10906D01*
X27678Y10907D01*
X27678Y10909D01*
X27679Y10921D01*
X27679Y13917D01*
X27679Y13919D01*
X27679Y13923D01*
X27673Y14015D01*
X27673Y14017D01*
X27673Y14019D01*
X27670Y14031D01*
X27622Y14210D01*
X27621Y14214D01*
X27620Y14218D01*
X27618Y14222D01*
X27617Y14224D01*
X27616Y14226D01*
X27614Y14229D01*
X27522Y14389D01*
X27519Y14393D01*
X27517Y14397D01*
X27514Y14400D01*
X27513Y14402D01*
X27511Y14403D01*
X27509Y14406D01*
X27378Y14537D01*
X27377Y14537D01*
X27374Y14540D01*
X27372Y14543D01*
X27368Y14545D01*
X27366Y14547D01*
X27365Y14547D01*
X27364Y14548D01*
X27362Y14549D01*
X27201Y14642D01*
X27197Y14644D01*
X27193Y14646D01*
X27189Y14648D01*
X27187Y14649D01*
X27185Y14649D01*
X27182Y14650D01*
X27003Y14698D01*
X27001Y14698D01*
X26999Y14699D01*
X26988Y14700D01*
X26895Y14707D01*
X26893Y14706D01*
X26890Y14707D01*
X23145Y14707D01*
X23144Y14707D01*
X23142Y14707D01*
X23136Y14706D01*
X23130Y14705D01*
X23128Y14705D01*
X23126Y14704D01*
X23115Y14701D01*
X23013Y14658D01*
X22814Y14658D01*
X22747Y14686D01*
X22745Y14687D01*
X22744Y14687D01*
X22738Y14689D01*
X22732Y14691D01*
X22730Y14691D01*
X22729Y14691D01*
X22722Y14692D01*
X22716Y14692D01*
X22715Y14692D01*
X22713Y14692D01*
X22707Y14691D01*
X22700Y14691D01*
X22699Y14690D01*
X22697Y14690D01*
X22686Y14686D01*
X22619Y14658D01*
X22420Y14658D01*
X22353Y14686D01*
X22352Y14687D01*
X22350Y14687D01*
X22344Y14689D01*
X22338Y14691D01*
X22337Y14691D01*
X22335Y14691D01*
X22329Y14692D01*
X22322Y14692D01*
X22321Y14692D01*
X22319Y14692D01*
X22313Y14691D01*
X22307Y14691D01*
X22305Y14690D01*
X22304Y14690D01*
X22293Y14686D01*
X22225Y14658D01*
X22027Y14658D01*
X21959Y14686D01*
X21958Y14687D01*
X21957Y14687D01*
X21950Y14689D01*
X21944Y14691D01*
X21943Y14691D01*
X21941Y14691D01*
X21935Y14692D01*
X21929Y14692D01*
X21927Y14692D01*
X21926Y14692D01*
X21919Y14691D01*
X21913Y14691D01*
X21912Y14690D01*
X21910Y14690D01*
X21899Y14686D01*
X21832Y14658D01*
X21633Y14658D01*
X21566Y14686D01*
X21564Y14687D01*
X21563Y14687D01*
X21557Y14689D01*
X21551Y14691D01*
X21549Y14691D01*
X21548Y14691D01*
X21541Y14692D01*
X21535Y14692D01*
X21533Y14692D01*
X21532Y14692D01*
X21526Y14691D01*
X21519Y14691D01*
X21518Y14690D01*
X21516Y14690D01*
X21505Y14686D01*
X21438Y14658D01*
X21239Y14658D01*
X21137Y14701D01*
X21135Y14701D01*
X21134Y14702D01*
X21128Y14703D01*
X21122Y14705D01*
X21120Y14705D01*
X21118Y14706D01*
X21107Y14707D01*
X17402Y14707D01*
X17400Y14707D01*
X17396Y14707D01*
X17306Y14701D01*
X17304Y14700D01*
X17303Y14700D01*
X17291Y14698D01*
X17117Y14651D01*
X17113Y14650D01*
X17108Y14649D01*
X17104Y14647D01*
X17102Y14646D01*
X17100Y14645D01*
X17098Y14644D01*
X16942Y14553D01*
X16938Y14551D01*
X16934Y14549D01*
X16931Y14546D01*
X16929Y14544D01*
X16927Y14543D01*
X16925Y14541D01*
X16798Y14413D01*
X16795Y14410D01*
X16792Y14407D01*
X16789Y14403D01*
X16788Y14401D01*
X16787Y14399D01*
X16785Y14397D01*
X16695Y14241D01*
X16693Y14237D01*
X16691Y14233D01*
X16690Y14231D01*
X16690Y14230D01*
X16689Y14228D01*
X16689Y14226D01*
X16688Y14225D01*
X16687Y14222D01*
X16640Y14048D01*
X16640Y14046D01*
X16640Y14044D01*
X16638Y14032D01*
X16632Y13942D01*
X16632Y13940D01*
X16632Y13937D01*
X16632Y10826D01*
X16632Y10824D01*
X16632Y10822D01*
X16633Y10816D01*
X16633Y10810D01*
X16634Y10809D01*
X16634Y10807D01*
X16638Y10796D01*
X16641Y10788D01*
X16641Y10590D01*
X16613Y10522D01*
X16613Y10521D01*
X16612Y10520D01*
X16610Y10513D01*
X16609Y10507D01*
X16608Y10506D01*
X16608Y10504D01*
X16608Y10498D01*
X16607Y10492D01*
X16607Y10490D01*
X16607Y10489D01*
X16608Y10482D01*
X16609Y10476D01*
X16609Y10475D01*
X16609Y10473D01*
X16613Y10462D01*
X16641Y10395D01*
X16641Y10196D01*
X16613Y10129D01*
X16613Y10128D01*
X16612Y10127D01*
X16612Y10126D01*
X16610Y10120D01*
X16609Y10114D01*
X16608Y10113D01*
X16608Y10112D01*
X16608Y10111D01*
X16608Y10104D01*
X16607Y10098D01*
X16607Y10096D01*
X16607Y10095D01*
X16608Y10089D01*
X16609Y10082D01*
X16609Y10081D01*
X16609Y10079D01*
X16613Y10068D01*
X16641Y10001D01*
X16641Y9802D01*
X16613Y9735D01*
X16613Y9734D01*
X16612Y9732D01*
X16610Y9726D01*
X16609Y9720D01*
X16608Y9718D01*
X16608Y9717D01*
X16608Y9711D01*
X16607Y9704D01*
X16607Y9703D01*
X16607Y9701D01*
X16608Y9695D01*
X16609Y9689D01*
X16609Y9687D01*
X16609Y9686D01*
X16613Y9674D01*
X16641Y9607D01*
X16641Y9409D01*
X16613Y9341D01*
X16613Y9340D01*
X16612Y9339D01*
X16610Y9332D01*
X16609Y9326D01*
X16608Y9325D01*
X16608Y9323D01*
X16608Y9317D01*
X16607Y9311D01*
X16607Y9309D01*
X16607Y9308D01*
X16608Y9301D01*
X16609Y9295D01*
X16609Y9293D01*
X16609Y9292D01*
X16613Y9281D01*
X16641Y9213D01*
X16641Y9015D01*
X16599Y8913D01*
X16598Y8911D01*
X16597Y8909D01*
X16596Y8903D01*
X16594Y8897D01*
X16594Y8896D01*
X16593Y8894D01*
X16592Y8882D01*
X16592Y7233D01*
X16593Y7230D01*
X16593Y7227D01*
X16594Y7222D01*
X16594Y7217D01*
X16595Y7215D01*
X16595Y7212D01*
X16597Y7207D01*
X16599Y7202D01*
X16600Y7200D01*
X16601Y7197D01*
X16604Y7193D01*
X16606Y7188D01*
X16608Y7186D01*
X16610Y7184D01*
X16613Y7180D01*
X16616Y7176D01*
X16619Y7175D01*
X16621Y7172D01*
X16625Y7170D01*
X16629Y7167D01*
X16631Y7165D01*
X16634Y7164D01*
X16638Y7162D01*
X16643Y7159D01*
X16646Y7159D01*
X16648Y7157D01*
X16653Y7156D01*
X16658Y7155D01*
X16661Y7155D01*
X16664Y7154D01*
X16669Y7154D01*
X16674Y7154D01*
X16677Y7154D01*
X16680Y7154D01*
X16684Y7155D01*
X16689Y7156D01*
X16692Y7157D01*
X16695Y7157D01*
X16700Y7159D01*
X16704Y7161D01*
X16707Y7162D01*
X16710Y7163D01*
X16714Y7166D01*
X16718Y7169D01*
X16720Y7171D01*
X16723Y7172D01*
X16726Y7176D01*
X16730Y7179D01*
X16732Y7182D01*
X16734Y7184D01*
X16738Y7190D01*
X16739Y7192D01*
X16740Y7193D01*
X16798Y7293D01*
X16990Y7485D01*
X17225Y7621D01*
X17487Y7691D01*
X17759Y7691D01*
X18021Y7621D01*
X18256Y7485D01*
X18448Y7293D01*
X18583Y7058D01*
X18654Y6796D01*
X18654Y6525D01*
X18583Y6263D01*
X18448Y6028D01*
X18256Y5836D01*
X18118Y5756D01*
X18115Y5754D01*
X18112Y5753D01*
X18109Y5750D01*
X18105Y5747D01*
X18103Y5745D01*
X18100Y5743D01*
X18097Y5739D01*
X18094Y5735D01*
X18092Y5733D01*
X18091Y5730D01*
X18088Y5726D01*
X18086Y5722D01*
X18085Y5719D01*
X18083Y5716D01*
X18082Y5712D01*
X18080Y5707D01*
X18080Y5704D01*
X18079Y5701D01*
X18079Y5696D01*
X18078Y5691D01*
X18078Y5688D01*
X18078Y5686D01*
X18079Y5681D01*
X18079Y5676D01*
X18079Y5673D01*
X18080Y5670D01*
X18081Y5665D01*
X18083Y5660D01*
X18084Y5658D01*
X18085Y5655D01*
X18087Y5651D01*
X18089Y5646D01*
X18091Y5644D01*
X18093Y5641D01*
X18096Y5638D01*
X18099Y5634D01*
X18101Y5632D01*
X18103Y5629D01*
X18107Y5626D01*
X18111Y5623D01*
X18113Y5622D01*
X18116Y5620D01*
X18120Y5618D01*
X18125Y5615D01*
X18127Y5614D01*
X18130Y5613D01*
X18135Y5612D01*
X18139Y5610D01*
X18142Y5610D01*
X18145Y5609D01*
X18153Y5609D01*
X18155Y5608D01*
X18156Y5608D01*
X18157Y5608D01*
X18642Y5608D01*
X18979Y5499D01*
X19266Y5290D01*
X19475Y5003D01*
X19585Y4666D01*
X19585Y3937D01*
X19585Y3935D01*
X19585Y3931D01*
X19588Y3897D01*
X19588Y3893D01*
X19588Y3890D01*
X19590Y3884D01*
X19590Y3881D01*
X19591Y3880D01*
X19591Y3878D01*
X19612Y3814D01*
X19614Y3810D01*
X19615Y3806D01*
X19616Y3804D01*
X19617Y3802D01*
X19618Y3800D01*
X19619Y3799D01*
X19620Y3797D01*
X19623Y3792D01*
X19624Y3791D01*
X19664Y3736D01*
X19668Y3731D01*
X19672Y3726D01*
X19673Y3725D01*
X19674Y3724D01*
X19676Y3723D01*
X19681Y3719D01*
X19736Y3679D01*
X19742Y3675D01*
X19747Y3672D01*
X19749Y3671D01*
X19750Y3671D01*
X19752Y3670D01*
X19758Y3667D01*
X19823Y3646D01*
X19827Y3646D01*
X19830Y3644D01*
X19836Y3644D01*
X19839Y3643D01*
X19840Y3643D01*
X19842Y3643D01*
X19876Y3640D01*
X19878Y3640D01*
X19882Y3640D01*
X21202Y3640D01*
X21203Y3640D01*
X21205Y3640D01*
X21211Y3641D01*
X21217Y3641D01*
X21219Y3642D01*
X21221Y3642D01*
X21232Y3646D01*
X21239Y3649D01*
X21438Y3649D01*
X21505Y3621D01*
X21507Y3621D01*
X21508Y3620D01*
X21514Y3618D01*
X21520Y3616D01*
X21522Y3616D01*
X21523Y3616D01*
X21530Y3616D01*
X21536Y3615D01*
X21537Y3615D01*
X21539Y3615D01*
X21545Y3616D01*
X21552Y3617D01*
X21553Y3617D01*
X21554Y3617D01*
X21566Y3621D01*
X21633Y3649D01*
X21832Y3649D01*
X21899Y3621D01*
X21900Y3621D01*
X21902Y3620D01*
X21908Y3618D01*
X21914Y3616D01*
X21915Y3616D01*
X21917Y3616D01*
X21923Y3616D01*
X21930Y3615D01*
X21931Y3615D01*
X21933Y3615D01*
X21939Y3616D01*
X21945Y3617D01*
X21947Y3617D01*
X21948Y3617D01*
X21959Y3621D01*
X22027Y3649D01*
X22225Y3649D01*
X22293Y3621D01*
X22294Y3621D01*
X22295Y3620D01*
X22301Y3618D01*
X22308Y3616D01*
X22309Y3616D01*
X22311Y3616D01*
X22317Y3616D01*
X22323Y3615D01*
X22325Y3615D01*
X22326Y3615D01*
X22333Y3616D01*
X22339Y3617D01*
X22340Y3617D01*
X22342Y3617D01*
X22353Y3621D01*
X22420Y3649D01*
X22619Y3649D01*
X22686Y3621D01*
X22688Y3621D01*
X22689Y3620D01*
X22695Y3618D01*
X22701Y3616D01*
X22703Y3616D01*
X22704Y3616D01*
X22711Y3616D01*
X22717Y3615D01*
X22718Y3615D01*
X22720Y3615D01*
X22726Y3616D01*
X22733Y3617D01*
X22734Y3617D01*
X22736Y3617D01*
X22747Y3621D01*
X22814Y3649D01*
X23013Y3649D01*
X23115Y3606D01*
X23117Y3606D01*
X23118Y3605D01*
X23124Y3604D01*
X23130Y3602D01*
X23132Y3602D01*
X23134Y3601D01*
X23145Y3600D01*
X24449Y3600D01*
X24451Y3601D01*
G37*
G36*
X11656Y16396D02*
X11656Y16396D01*
X11660Y16396D01*
X11694Y16399D01*
X11697Y16399D01*
X11701Y16399D01*
X11707Y16401D01*
X11709Y16401D01*
X11710Y16402D01*
X11712Y16402D01*
X11777Y16423D01*
X11783Y16426D01*
X11789Y16428D01*
X11790Y16429D01*
X11791Y16430D01*
X11794Y16431D01*
X11799Y16435D01*
X11854Y16475D01*
X11859Y16479D01*
X11864Y16483D01*
X11865Y16484D01*
X11866Y16485D01*
X11868Y16487D01*
X11872Y16492D01*
X11912Y16547D01*
X11915Y16553D01*
X11919Y16558D01*
X11919Y16560D01*
X11920Y16561D01*
X11921Y16564D01*
X11923Y16569D01*
X11944Y16634D01*
X11945Y16638D01*
X11946Y16641D01*
X11947Y16647D01*
X11948Y16650D01*
X11948Y16651D01*
X11948Y16653D01*
X11951Y16687D01*
X11951Y16689D01*
X11951Y16693D01*
X11951Y17421D01*
X12060Y17759D01*
X12269Y18046D01*
X12556Y18254D01*
X12893Y18364D01*
X13322Y18364D01*
X13325Y18364D01*
X13328Y18364D01*
X13333Y18365D01*
X13338Y18366D01*
X13341Y18367D01*
X13344Y18367D01*
X13349Y18369D01*
X13353Y18370D01*
X13356Y18372D01*
X13359Y18373D01*
X13363Y18376D01*
X13367Y18378D01*
X13369Y18380D01*
X13372Y18381D01*
X13375Y18385D01*
X13379Y18388D01*
X13381Y18390D01*
X13383Y18392D01*
X13386Y18397D01*
X13389Y18400D01*
X13390Y18403D01*
X13392Y18405D01*
X13394Y18410D01*
X13396Y18414D01*
X13397Y18417D01*
X13398Y18420D01*
X13399Y18425D01*
X13400Y18430D01*
X13401Y18433D01*
X13401Y18435D01*
X13401Y18440D01*
X13402Y18445D01*
X13401Y18448D01*
X13401Y18451D01*
X13400Y18456D01*
X13400Y18461D01*
X13399Y18464D01*
X13398Y18467D01*
X13396Y18471D01*
X13395Y18476D01*
X13393Y18479D01*
X13392Y18481D01*
X13389Y18485D01*
X13387Y18490D01*
X13385Y18492D01*
X13383Y18494D01*
X13380Y18498D01*
X13376Y18501D01*
X13374Y18503D01*
X13372Y18505D01*
X13366Y18509D01*
X13364Y18511D01*
X13363Y18511D01*
X13362Y18512D01*
X13229Y18589D01*
X13037Y18781D01*
X12902Y19016D01*
X12832Y19278D01*
X12832Y19549D01*
X12902Y19811D01*
X13037Y20046D01*
X13229Y20238D01*
X13464Y20374D01*
X13727Y20444D01*
X13998Y20444D01*
X14260Y20374D01*
X14495Y20238D01*
X14687Y20046D01*
X14795Y19859D01*
X14797Y19857D01*
X14798Y19854D01*
X14801Y19850D01*
X14804Y19846D01*
X14806Y19844D01*
X14808Y19842D01*
X14812Y19839D01*
X14816Y19835D01*
X14818Y19834D01*
X14821Y19832D01*
X14825Y19830D01*
X14829Y19827D01*
X14832Y19826D01*
X14835Y19825D01*
X14839Y19823D01*
X14844Y19822D01*
X14847Y19821D01*
X14850Y19821D01*
X14855Y19820D01*
X14860Y19819D01*
X14863Y19820D01*
X14866Y19819D01*
X14871Y19820D01*
X14875Y19820D01*
X14878Y19821D01*
X14881Y19821D01*
X14886Y19823D01*
X14891Y19824D01*
X14893Y19825D01*
X14896Y19826D01*
X14901Y19829D01*
X14905Y19831D01*
X14907Y19833D01*
X14910Y19834D01*
X14914Y19837D01*
X14918Y19840D01*
X14920Y19843D01*
X14922Y19845D01*
X14925Y19849D01*
X14928Y19852D01*
X14930Y19855D01*
X14931Y19857D01*
X14933Y19862D01*
X14936Y19866D01*
X14937Y19869D01*
X14938Y19871D01*
X14939Y19876D01*
X14941Y19881D01*
X14941Y19884D01*
X14942Y19887D01*
X14943Y19894D01*
X14943Y19897D01*
X14943Y19899D01*
X14943Y21819D01*
X14943Y21820D01*
X14943Y21822D01*
X14942Y21828D01*
X14941Y21834D01*
X14941Y21836D01*
X14941Y21838D01*
X14937Y21849D01*
X14855Y22046D01*
X14855Y22245D01*
X14883Y22312D01*
X14883Y22314D01*
X14884Y22315D01*
X14886Y22321D01*
X14888Y22327D01*
X14888Y22329D01*
X14888Y22330D01*
X14888Y22337D01*
X14889Y22343D01*
X14889Y22344D01*
X14889Y22346D01*
X14888Y22352D01*
X14887Y22359D01*
X14887Y22360D01*
X14887Y22362D01*
X14883Y22373D01*
X14855Y22440D01*
X14855Y22639D01*
X14883Y22706D01*
X14883Y22707D01*
X14884Y22708D01*
X14884Y22709D01*
X14886Y22715D01*
X14888Y22721D01*
X14888Y22722D01*
X14888Y22724D01*
X14888Y22730D01*
X14889Y22737D01*
X14889Y22738D01*
X14889Y22740D01*
X14888Y22746D01*
X14887Y22752D01*
X14887Y22754D01*
X14887Y22755D01*
X14883Y22767D01*
X14855Y22834D01*
X14855Y23032D01*
X14883Y23100D01*
X14883Y23101D01*
X14884Y23102D01*
X14886Y23109D01*
X14888Y23115D01*
X14888Y23116D01*
X14888Y23118D01*
X14888Y23124D01*
X14889Y23130D01*
X14889Y23132D01*
X14889Y23133D01*
X14888Y23140D01*
X14887Y23146D01*
X14887Y23148D01*
X14887Y23149D01*
X14883Y23160D01*
X14855Y23227D01*
X14855Y23426D01*
X14883Y23493D01*
X14883Y23495D01*
X14884Y23496D01*
X14886Y23502D01*
X14888Y23508D01*
X14888Y23510D01*
X14888Y23511D01*
X14888Y23518D01*
X14889Y23524D01*
X14889Y23526D01*
X14889Y23527D01*
X14888Y23533D01*
X14887Y23540D01*
X14887Y23541D01*
X14887Y23543D01*
X14883Y23554D01*
X14855Y23621D01*
X14855Y23820D01*
X14917Y23970D01*
X14918Y23971D01*
X14918Y23973D01*
X14920Y23979D01*
X14922Y23985D01*
X14922Y23986D01*
X14922Y23988D01*
X14923Y24000D01*
X14923Y25894D01*
X14923Y25897D01*
X14923Y25900D01*
X14922Y25905D01*
X14922Y25910D01*
X14921Y25913D01*
X14920Y25916D01*
X14919Y25920D01*
X14917Y25925D01*
X14916Y25927D01*
X14915Y25930D01*
X14912Y25934D01*
X14909Y25939D01*
X14908Y25941D01*
X14906Y25943D01*
X14903Y25947D01*
X14899Y25951D01*
X14897Y25953D01*
X14895Y25955D01*
X14891Y25958D01*
X14887Y25961D01*
X14884Y25962D01*
X14882Y25964D01*
X14877Y25966D01*
X14873Y25968D01*
X14870Y25969D01*
X14867Y25970D01*
X14863Y25971D01*
X14858Y25972D01*
X14855Y25972D01*
X14852Y25973D01*
X14847Y25973D01*
X14842Y25973D01*
X14839Y25973D01*
X14836Y25973D01*
X14831Y25972D01*
X14826Y25971D01*
X14824Y25970D01*
X14821Y25970D01*
X14816Y25968D01*
X14811Y25966D01*
X14809Y25965D01*
X14806Y25964D01*
X14802Y25961D01*
X14798Y25958D01*
X14796Y25956D01*
X14793Y25955D01*
X14790Y25951D01*
X14786Y25948D01*
X14784Y25946D01*
X14782Y25944D01*
X14778Y25937D01*
X14776Y25935D01*
X14775Y25934D01*
X14687Y25781D01*
X14495Y25589D01*
X14260Y25453D01*
X13998Y25383D01*
X13727Y25383D01*
X13464Y25453D01*
X13229Y25589D01*
X13037Y25781D01*
X12902Y26016D01*
X12832Y26278D01*
X12832Y26549D01*
X12902Y26811D01*
X13037Y27046D01*
X13229Y27238D01*
X13328Y27295D01*
X13330Y27297D01*
X13333Y27298D01*
X13337Y27301D01*
X13341Y27304D01*
X13343Y27306D01*
X13345Y27308D01*
X13348Y27312D01*
X13352Y27316D01*
X13353Y27318D01*
X13355Y27321D01*
X13357Y27325D01*
X13360Y27329D01*
X13361Y27332D01*
X13362Y27335D01*
X13363Y27339D01*
X13365Y27344D01*
X13366Y27347D01*
X13366Y27350D01*
X13367Y27355D01*
X13368Y27360D01*
X13367Y27363D01*
X13368Y27366D01*
X13367Y27371D01*
X13367Y27375D01*
X13366Y27378D01*
X13366Y27381D01*
X13364Y27386D01*
X13363Y27391D01*
X13362Y27393D01*
X13361Y27396D01*
X13358Y27401D01*
X13356Y27405D01*
X13354Y27407D01*
X13353Y27410D01*
X13349Y27414D01*
X13346Y27418D01*
X13344Y27420D01*
X13342Y27422D01*
X13338Y27425D01*
X13335Y27428D01*
X13332Y27430D01*
X13330Y27431D01*
X13325Y27433D01*
X13321Y27436D01*
X13318Y27437D01*
X13315Y27438D01*
X13311Y27439D01*
X13306Y27441D01*
X13303Y27441D01*
X13300Y27442D01*
X13293Y27443D01*
X13290Y27443D01*
X13288Y27443D01*
X12765Y27443D01*
X12599Y27512D01*
X11468Y28642D01*
X11400Y28808D01*
X11400Y30686D01*
X11399Y30687D01*
X11400Y30689D01*
X11399Y30695D01*
X11398Y30702D01*
X11398Y30703D01*
X11397Y30705D01*
X11395Y30711D01*
X11393Y30717D01*
X11393Y30718D01*
X11392Y30719D01*
X11389Y30725D01*
X11386Y30731D01*
X11385Y30732D01*
X11384Y30733D01*
X11376Y30742D01*
X10200Y31919D01*
X10199Y31919D01*
X10198Y31921D01*
X10193Y31924D01*
X10188Y31929D01*
X10186Y31929D01*
X10185Y31930D01*
X10179Y31933D01*
X10174Y31936D01*
X10172Y31936D01*
X10171Y31937D01*
X10165Y31939D01*
X10159Y31940D01*
X10157Y31941D01*
X10156Y31941D01*
X10144Y31942D01*
X10039Y31942D01*
X9971Y31970D01*
X9970Y31970D01*
X9969Y31971D01*
X9962Y31972D01*
X9956Y31974D01*
X9955Y31974D01*
X9953Y31975D01*
X9947Y31975D01*
X9940Y31976D01*
X9939Y31975D01*
X9938Y31976D01*
X9931Y31975D01*
X9925Y31974D01*
X9923Y31974D01*
X9922Y31973D01*
X9911Y31970D01*
X9843Y31942D01*
X9645Y31942D01*
X9578Y31970D01*
X9576Y31970D01*
X9575Y31971D01*
X9569Y31972D01*
X9562Y31974D01*
X9561Y31974D01*
X9560Y31975D01*
X9553Y31975D01*
X9547Y31976D01*
X9545Y31975D01*
X9544Y31976D01*
X9537Y31975D01*
X9531Y31974D01*
X9530Y31974D01*
X9528Y31973D01*
X9517Y31970D01*
X9450Y31942D01*
X9251Y31942D01*
X9184Y31970D01*
X9182Y31970D01*
X9181Y31971D01*
X9175Y31972D01*
X9169Y31974D01*
X9167Y31974D01*
X9166Y31975D01*
X9159Y31975D01*
X9153Y31976D01*
X9152Y31975D01*
X9150Y31976D01*
X9144Y31975D01*
X9137Y31974D01*
X9136Y31974D01*
X9134Y31973D01*
X9123Y31970D01*
X9056Y31942D01*
X8857Y31942D01*
X8790Y31970D01*
X8789Y31970D01*
X8787Y31971D01*
X8781Y31972D01*
X8775Y31974D01*
X8774Y31974D01*
X8772Y31975D01*
X8766Y31975D01*
X8759Y31976D01*
X8758Y31975D01*
X8756Y31976D01*
X8750Y31975D01*
X8744Y31974D01*
X8742Y31974D01*
X8741Y31973D01*
X8730Y31970D01*
X8662Y31942D01*
X8537Y31942D01*
X8536Y31942D01*
X8534Y31942D01*
X8528Y31941D01*
X8522Y31940D01*
X8520Y31940D01*
X8519Y31940D01*
X8513Y31937D01*
X8506Y31936D01*
X8505Y31935D01*
X8504Y31934D01*
X8498Y31931D01*
X8493Y31928D01*
X8491Y31927D01*
X8490Y31926D01*
X8481Y31919D01*
X7324Y30762D01*
X7323Y30761D01*
X7322Y30760D01*
X7318Y30754D01*
X7314Y30749D01*
X7314Y30748D01*
X7313Y30747D01*
X7310Y30741D01*
X7307Y30736D01*
X7307Y30734D01*
X7306Y30733D01*
X7304Y30727D01*
X7303Y30720D01*
X7302Y30719D01*
X7302Y30718D01*
X7301Y30706D01*
X7301Y28819D01*
X7301Y28816D01*
X7300Y28809D01*
X7300Y28808D01*
X7300Y28807D01*
X7301Y28800D01*
X7302Y28794D01*
X7302Y28793D01*
X7302Y28792D01*
X7305Y28785D01*
X7307Y28779D01*
X7307Y28778D01*
X7307Y28777D01*
X7311Y28771D01*
X7314Y28765D01*
X7315Y28764D01*
X7315Y28763D01*
X7320Y28758D01*
X7325Y28753D01*
X7325Y28752D01*
X7326Y28751D01*
X7332Y28747D01*
X7337Y28743D01*
X7338Y28743D01*
X7339Y28742D01*
X7349Y28737D01*
X7447Y28696D01*
X7520Y28623D01*
X7560Y28528D01*
X7560Y28424D01*
X7520Y28329D01*
X7497Y28306D01*
X7496Y28305D01*
X7495Y28304D01*
X7491Y28299D01*
X7487Y28293D01*
X7486Y28293D01*
X7486Y28292D01*
X7483Y28286D01*
X7480Y28279D01*
X7479Y28279D01*
X7479Y28278D01*
X7477Y28271D01*
X7475Y28264D01*
X7475Y28263D01*
X7475Y28262D01*
X7474Y28256D01*
X7474Y28249D01*
X7474Y28248D01*
X7474Y28247D01*
X7475Y28240D01*
X7475Y28233D01*
X7476Y28232D01*
X7476Y28231D01*
X7478Y28225D01*
X7480Y28218D01*
X7481Y28217D01*
X7481Y28216D01*
X7485Y28210D01*
X7488Y28204D01*
X7489Y28203D01*
X7497Y28194D01*
X7505Y28186D01*
X7561Y28129D01*
X7585Y28070D01*
X7585Y26405D01*
X7586Y26404D01*
X7585Y26403D01*
X7586Y26396D01*
X7587Y26389D01*
X7587Y26388D01*
X7588Y26387D01*
X7590Y26381D01*
X7592Y26374D01*
X7592Y26373D01*
X7593Y26372D01*
X7596Y26366D01*
X7599Y26360D01*
X7600Y26359D01*
X7601Y26358D01*
X7605Y26353D01*
X7609Y26348D01*
X7610Y26348D01*
X7611Y26347D01*
X7616Y26343D01*
X7622Y26338D01*
X7623Y26338D01*
X7624Y26337D01*
X7634Y26332D01*
X7640Y26329D01*
X7778Y26191D01*
X7789Y26165D01*
X7793Y26158D01*
X7796Y26152D01*
X7797Y26151D01*
X7802Y26145D01*
X7807Y26139D01*
X7813Y26134D01*
X7819Y26129D01*
X7820Y26129D01*
X7826Y26126D01*
X7833Y26122D01*
X7834Y26122D01*
X7841Y26120D01*
X7848Y26118D01*
X7849Y26118D01*
X7856Y26117D01*
X7864Y26117D01*
X7865Y26117D01*
X7872Y26118D01*
X7879Y26118D01*
X7880Y26119D01*
X7887Y26121D01*
X7894Y26123D01*
X7895Y26124D01*
X7902Y26127D01*
X7908Y26131D01*
X7909Y26132D01*
X7914Y26137D01*
X7920Y26141D01*
X7920Y26142D01*
X7921Y26142D01*
X7925Y26148D01*
X7930Y26154D01*
X7930Y26155D01*
X7935Y26165D01*
X7946Y26191D01*
X8084Y26329D01*
X8265Y26404D01*
X8460Y26404D01*
X8640Y26329D01*
X8778Y26191D01*
X8801Y26137D01*
X8803Y26132D01*
X8806Y26127D01*
X8807Y26125D01*
X8808Y26123D01*
X8812Y26119D01*
X8815Y26114D01*
X8817Y26113D01*
X8818Y26111D01*
X8823Y26107D01*
X8826Y26104D01*
X8829Y26102D01*
X8831Y26101D01*
X8835Y26098D01*
X8840Y26095D01*
X8842Y26095D01*
X8845Y26093D01*
X8850Y26092D01*
X8855Y26090D01*
X8857Y26090D01*
X8860Y26089D01*
X8865Y26089D01*
X8870Y26088D01*
X8873Y26088D01*
X8876Y26088D01*
X8881Y26088D01*
X8886Y26089D01*
X8889Y26089D01*
X8891Y26090D01*
X8896Y26091D01*
X8901Y26093D01*
X8904Y26094D01*
X8906Y26095D01*
X8911Y26097D01*
X8916Y26099D01*
X8918Y26101D01*
X8920Y26102D01*
X8924Y26106D01*
X8928Y26109D01*
X8930Y26111D01*
X8932Y26113D01*
X8935Y26117D01*
X8939Y26121D01*
X8940Y26124D01*
X8941Y26125D01*
X8943Y26127D01*
X8945Y26131D01*
X8960Y26160D01*
X9003Y26220D01*
X9056Y26272D01*
X9115Y26316D01*
X9181Y26350D01*
X9252Y26373D01*
X9263Y26374D01*
X9263Y25933D01*
X9263Y25932D01*
X9263Y25931D01*
X9264Y25925D01*
X9265Y25918D01*
X9265Y25917D01*
X9265Y25916D01*
X9267Y25909D01*
X9269Y25903D01*
X9270Y25902D01*
X9270Y25901D01*
X9273Y25895D01*
X9277Y25889D01*
X9277Y25888D01*
X9278Y25887D01*
X9282Y25882D01*
X9287Y25877D01*
X9288Y25876D01*
X9288Y25875D01*
X9294Y25871D01*
X9299Y25867D01*
X9300Y25866D01*
X9301Y25866D01*
X9307Y25863D01*
X9313Y25860D01*
X9314Y25859D01*
X9315Y25859D01*
X9322Y25857D01*
X9328Y25855D01*
X9329Y25855D01*
X9330Y25855D01*
X9342Y25854D01*
X9382Y25854D01*
X9383Y25854D01*
X9384Y25854D01*
X9391Y25855D01*
X9398Y25856D01*
X9399Y25856D01*
X9400Y25856D01*
X9406Y25858D01*
X9413Y25860D01*
X9414Y25861D01*
X9415Y25861D01*
X9421Y25865D01*
X9427Y25868D01*
X9428Y25869D01*
X9434Y25874D01*
X9439Y25878D01*
X9440Y25879D01*
X9444Y25885D01*
X9449Y25890D01*
X9449Y25891D01*
X9450Y25892D01*
X9453Y25898D01*
X9456Y25904D01*
X9456Y25905D01*
X9457Y25906D01*
X9458Y25913D01*
X9460Y25920D01*
X9460Y25921D01*
X9461Y25922D01*
X9461Y25933D01*
X9461Y26374D01*
X9472Y26373D01*
X9543Y26350D01*
X9609Y26316D01*
X9669Y26272D01*
X9721Y26220D01*
X9765Y26160D01*
X9780Y26131D01*
X9783Y26127D01*
X9785Y26122D01*
X9787Y26120D01*
X9788Y26118D01*
X9792Y26114D01*
X9795Y26110D01*
X9797Y26108D01*
X9799Y26106D01*
X9804Y26103D01*
X9808Y26100D01*
X9810Y26099D01*
X9812Y26097D01*
X9817Y26095D01*
X9822Y26093D01*
X9824Y26092D01*
X9827Y26091D01*
X9832Y26090D01*
X9837Y26089D01*
X9840Y26089D01*
X9842Y26088D01*
X9847Y26088D01*
X9853Y26088D01*
X9855Y26088D01*
X9858Y26088D01*
X9863Y26089D01*
X9868Y26090D01*
X9871Y26091D01*
X9873Y26091D01*
X9878Y26093D01*
X9883Y26095D01*
X9886Y26096D01*
X9888Y26097D01*
X9892Y26100D01*
X9897Y26103D01*
X9899Y26105D01*
X9901Y26106D01*
X9905Y26110D01*
X9909Y26113D01*
X9910Y26116D01*
X9912Y26117D01*
X9915Y26122D01*
X9918Y26126D01*
X9920Y26129D01*
X9921Y26131D01*
X9922Y26133D01*
X9923Y26137D01*
X9946Y26191D01*
X10084Y26329D01*
X10265Y26404D01*
X10460Y26404D01*
X10640Y26329D01*
X10778Y26191D01*
X10789Y26165D01*
X10793Y26158D01*
X10796Y26152D01*
X10797Y26151D01*
X10802Y26145D01*
X10807Y26139D01*
X10813Y26134D01*
X10819Y26129D01*
X10820Y26129D01*
X10826Y26126D01*
X10833Y26122D01*
X10834Y26122D01*
X10841Y26120D01*
X10848Y26118D01*
X10849Y26118D01*
X10856Y26117D01*
X10864Y26117D01*
X10865Y26117D01*
X10872Y26118D01*
X10879Y26118D01*
X10880Y26119D01*
X10887Y26121D01*
X10894Y26123D01*
X10895Y26124D01*
X10902Y26127D01*
X10908Y26131D01*
X10909Y26132D01*
X10914Y26137D01*
X10920Y26141D01*
X10920Y26142D01*
X10921Y26142D01*
X10925Y26148D01*
X10930Y26154D01*
X10930Y26155D01*
X10935Y26165D01*
X10946Y26191D01*
X11084Y26329D01*
X11153Y26358D01*
X11154Y26358D01*
X11155Y26359D01*
X11161Y26362D01*
X11166Y26365D01*
X11167Y26366D01*
X11168Y26367D01*
X11173Y26371D01*
X11179Y26375D01*
X11179Y26376D01*
X11180Y26377D01*
X11184Y26382D01*
X11189Y26388D01*
X11189Y26389D01*
X11190Y26390D01*
X11193Y26396D01*
X11196Y26402D01*
X11196Y26403D01*
X11197Y26404D01*
X11198Y26410D01*
X11200Y26417D01*
X11200Y26418D01*
X11201Y26419D01*
X11201Y26431D01*
X11201Y26626D01*
X11201Y26628D01*
X11201Y26629D01*
X11201Y26636D01*
X11200Y26642D01*
X11199Y26644D01*
X11199Y26645D01*
X11197Y26651D01*
X11195Y26657D01*
X11195Y26659D01*
X11194Y26660D01*
X11191Y26665D01*
X11188Y26671D01*
X11187Y26672D01*
X11186Y26674D01*
X11178Y26683D01*
X10355Y27505D01*
X10354Y27506D01*
X10353Y27507D01*
X10348Y27511D01*
X10343Y27515D01*
X10342Y27516D01*
X10341Y27517D01*
X10335Y27520D01*
X10329Y27523D01*
X10328Y27523D01*
X10326Y27524D01*
X10320Y27525D01*
X10314Y27527D01*
X10313Y27527D01*
X10311Y27528D01*
X10299Y27529D01*
X10248Y27529D01*
X10153Y27568D01*
X10079Y27641D01*
X10040Y27737D01*
X10040Y27824D01*
X10040Y27825D01*
X10040Y27826D01*
X10039Y27833D01*
X10038Y27840D01*
X10038Y27841D01*
X10038Y27842D01*
X10036Y27848D01*
X10034Y27855D01*
X10033Y27856D01*
X10033Y27857D01*
X10029Y27863D01*
X10026Y27869D01*
X10026Y27870D01*
X10025Y27871D01*
X10020Y27876D01*
X10016Y27881D01*
X10015Y27882D01*
X10009Y27887D01*
X10004Y27891D01*
X10003Y27891D01*
X10002Y27892D01*
X9996Y27895D01*
X9990Y27898D01*
X9989Y27898D01*
X9988Y27899D01*
X9981Y27900D01*
X9974Y27902D01*
X9973Y27902D01*
X9972Y27903D01*
X9961Y27904D01*
X9873Y27904D01*
X9778Y27943D01*
X9704Y28016D01*
X9665Y28112D01*
X9665Y28215D01*
X9704Y28311D01*
X9778Y28384D01*
X9843Y28411D01*
X9844Y28411D01*
X9850Y28415D01*
X9857Y28418D01*
X9857Y28419D01*
X9858Y28419D01*
X9863Y28424D01*
X9869Y28428D01*
X9869Y28429D01*
X9870Y28429D01*
X9874Y28435D01*
X9879Y28440D01*
X9879Y28441D01*
X9879Y28442D01*
X9883Y28448D01*
X9886Y28454D01*
X9886Y28455D01*
X9886Y28456D01*
X9888Y28463D01*
X9890Y28470D01*
X9890Y28471D01*
X9891Y28478D01*
X9892Y28485D01*
X9891Y28486D01*
X9891Y28487D01*
X9891Y28494D01*
X9890Y28501D01*
X9889Y28502D01*
X9887Y28509D01*
X9885Y28516D01*
X9884Y28517D01*
X9880Y28523D01*
X9877Y28530D01*
X9876Y28530D01*
X9876Y28531D01*
X9868Y28540D01*
X9829Y28579D01*
X9790Y28674D01*
X9790Y28708D01*
X9790Y28710D01*
X9790Y28711D01*
X9789Y28717D01*
X9788Y28724D01*
X9788Y28725D01*
X9788Y28726D01*
X9786Y28733D01*
X9784Y28739D01*
X9783Y28740D01*
X9783Y28741D01*
X9779Y28747D01*
X9776Y28753D01*
X9775Y28754D01*
X9775Y28755D01*
X9770Y28760D01*
X9766Y28765D01*
X9765Y28766D01*
X9764Y28767D01*
X9759Y28771D01*
X9754Y28775D01*
X9753Y28775D01*
X9752Y28776D01*
X9741Y28782D01*
X9653Y28818D01*
X9579Y28891D01*
X9540Y28987D01*
X9540Y29090D01*
X9579Y29186D01*
X9653Y29259D01*
X9683Y29271D01*
X9686Y29273D01*
X9690Y29274D01*
X9693Y29277D01*
X9697Y29279D01*
X9700Y29281D01*
X9703Y29283D01*
X9706Y29286D01*
X9709Y29289D01*
X9712Y29292D01*
X9714Y29294D01*
X9716Y29298D01*
X9719Y29301D01*
X9721Y29304D01*
X9723Y29307D01*
X9724Y29311D01*
X9726Y29315D01*
X9727Y29319D01*
X9729Y29322D01*
X9730Y29326D01*
X9731Y29330D01*
X9731Y29334D01*
X9732Y29338D01*
X9732Y29342D01*
X9732Y29346D01*
X9732Y29350D01*
X9732Y29353D01*
X9731Y29359D01*
X9730Y29362D01*
X9730Y29363D01*
X9729Y29365D01*
X9722Y29392D01*
X9722Y29523D01*
X9931Y29523D01*
X9932Y29523D01*
X9933Y29523D01*
X9940Y29524D01*
X9947Y29525D01*
X9948Y29525D01*
X9949Y29525D01*
X9955Y29527D01*
X9962Y29529D01*
X9963Y29530D01*
X9964Y29530D01*
X9970Y29534D01*
X9976Y29537D01*
X9976Y29538D01*
X9977Y29538D01*
X9983Y29543D01*
X9988Y29547D01*
X9988Y29548D01*
X9989Y29548D01*
X9993Y29554D01*
X9998Y29559D01*
X9998Y29560D01*
X9999Y29561D01*
X10002Y29567D01*
X10005Y29573D01*
X10005Y29574D01*
X10006Y29575D01*
X10007Y29582D01*
X10009Y29589D01*
X10009Y29590D01*
X10009Y29591D01*
X10010Y29602D01*
X10010Y29603D01*
X10010Y29604D01*
X10009Y29611D01*
X10009Y29618D01*
X10008Y29619D01*
X10008Y29620D01*
X10006Y29627D01*
X10004Y29633D01*
X10004Y29634D01*
X10003Y29635D01*
X10000Y29641D01*
X9997Y29647D01*
X9996Y29648D01*
X9995Y29649D01*
X9991Y29654D01*
X9986Y29659D01*
X9986Y29660D01*
X9985Y29660D01*
X9980Y29665D01*
X9974Y29669D01*
X9973Y29669D01*
X9972Y29670D01*
X9966Y29673D01*
X9960Y29676D01*
X9959Y29676D01*
X9958Y29677D01*
X9952Y29679D01*
X9945Y29680D01*
X9944Y29680D01*
X9943Y29681D01*
X9931Y29682D01*
X9722Y29682D01*
X9722Y29765D01*
X9722Y29767D01*
X9722Y29768D01*
X9721Y29775D01*
X9721Y29781D01*
X9720Y29782D01*
X9720Y29784D01*
X9718Y29790D01*
X9716Y29796D01*
X9715Y29797D01*
X9715Y29799D01*
X9711Y29804D01*
X9708Y29810D01*
X9707Y29811D01*
X9707Y29812D01*
X9702Y29818D01*
X9702Y31111D01*
X9705Y31115D01*
X9709Y31120D01*
X9710Y31121D01*
X9710Y31123D01*
X9713Y31128D01*
X9716Y31134D01*
X9717Y31135D01*
X9717Y31137D01*
X9719Y31143D01*
X9721Y31149D01*
X9721Y31151D01*
X9721Y31152D01*
X9722Y31164D01*
X9722Y31248D01*
X9931Y31248D01*
X10140Y31248D01*
X10140Y31144D01*
X10140Y31143D01*
X10140Y31141D01*
X10140Y31139D01*
X10140Y30626D01*
X10141Y30625D01*
X10140Y30624D01*
X10141Y30617D01*
X10142Y30610D01*
X10142Y30609D01*
X10142Y30608D01*
X10145Y30602D01*
X10147Y30595D01*
X10147Y30594D01*
X10147Y30593D01*
X10151Y30587D01*
X10154Y30581D01*
X10155Y30580D01*
X10160Y30574D01*
X10164Y30569D01*
X10165Y30568D01*
X10166Y30568D01*
X10171Y30564D01*
X10177Y30559D01*
X10178Y30559D01*
X10178Y30558D01*
X10185Y30555D01*
X10191Y30552D01*
X10192Y30552D01*
X10193Y30551D01*
X10199Y30550D01*
X10206Y30548D01*
X10207Y30548D01*
X10208Y30547D01*
X10220Y30547D01*
X10484Y30547D01*
X10543Y30522D01*
X10936Y30129D01*
X10960Y30070D01*
X10960Y28569D01*
X10936Y28510D01*
X10770Y28344D01*
X10769Y28343D01*
X10768Y28342D01*
X10764Y28337D01*
X10760Y28332D01*
X10760Y28331D01*
X10759Y28329D01*
X10756Y28324D01*
X10753Y28318D01*
X10752Y28316D01*
X10752Y28315D01*
X10750Y28309D01*
X10748Y28303D01*
X10748Y28301D01*
X10748Y28300D01*
X10747Y28288D01*
X10747Y28237D01*
X10707Y28141D01*
X10634Y28068D01*
X10563Y28039D01*
X10562Y28038D01*
X10561Y28038D01*
X10555Y28034D01*
X10549Y28031D01*
X10548Y28031D01*
X10548Y28030D01*
X10542Y28025D01*
X10537Y28021D01*
X10536Y28020D01*
X10531Y28014D01*
X10527Y28009D01*
X10527Y28008D01*
X10526Y28007D01*
X10523Y28001D01*
X10520Y27995D01*
X10520Y27994D01*
X10519Y27993D01*
X10517Y27986D01*
X10515Y27980D01*
X10515Y27979D01*
X10515Y27978D01*
X10515Y27971D01*
X10514Y27964D01*
X10514Y27963D01*
X10514Y27962D01*
X10515Y27955D01*
X10516Y27948D01*
X10516Y27947D01*
X10516Y27946D01*
X10520Y27935D01*
X10560Y27840D01*
X10560Y27789D01*
X10560Y27787D01*
X10560Y27786D01*
X10560Y27779D01*
X10561Y27773D01*
X10562Y27772D01*
X10562Y27770D01*
X10564Y27764D01*
X10566Y27758D01*
X10566Y27757D01*
X10567Y27755D01*
X10570Y27750D01*
X10573Y27744D01*
X10574Y27743D01*
X10575Y27742D01*
X10583Y27733D01*
X11498Y26817D01*
X11523Y26758D01*
X11523Y26431D01*
X11523Y26430D01*
X11523Y26428D01*
X11524Y26422D01*
X11525Y26415D01*
X11525Y26414D01*
X11525Y26413D01*
X11527Y26407D01*
X11529Y26400D01*
X11530Y26399D01*
X11530Y26398D01*
X11534Y26392D01*
X11537Y26386D01*
X11538Y26385D01*
X11538Y26384D01*
X11543Y26379D01*
X11547Y26374D01*
X11548Y26373D01*
X11549Y26373D01*
X11554Y26369D01*
X11559Y26364D01*
X11560Y26364D01*
X11561Y26363D01*
X11572Y26358D01*
X11640Y26329D01*
X11778Y26191D01*
X11853Y26011D01*
X11853Y25816D01*
X11778Y25635D01*
X11640Y25497D01*
X11572Y25469D01*
X11571Y25468D01*
X11570Y25468D01*
X11564Y25465D01*
X11558Y25462D01*
X11557Y25461D01*
X11556Y25460D01*
X11551Y25456D01*
X11546Y25452D01*
X11545Y25451D01*
X11544Y25450D01*
X11540Y25444D01*
X11536Y25439D01*
X11535Y25438D01*
X11535Y25437D01*
X11532Y25431D01*
X11529Y25425D01*
X11528Y25424D01*
X11528Y25423D01*
X11526Y25417D01*
X11524Y25410D01*
X11524Y25409D01*
X11524Y25408D01*
X11523Y25396D01*
X11523Y24444D01*
X11498Y24385D01*
X11203Y24090D01*
X11144Y24065D01*
X5643Y24065D01*
X5584Y24090D01*
X5355Y24318D01*
X5354Y24319D01*
X5353Y24320D01*
X5348Y24324D01*
X5343Y24328D01*
X5342Y24329D01*
X5341Y24329D01*
X5335Y24332D01*
X5329Y24335D01*
X5328Y24336D01*
X5326Y24336D01*
X5320Y24338D01*
X5314Y24340D01*
X5313Y24340D01*
X5311Y24340D01*
X5299Y24341D01*
X5248Y24341D01*
X5153Y24381D01*
X5079Y24454D01*
X5040Y24549D01*
X5040Y24653D01*
X5079Y24748D01*
X5153Y24822D01*
X5156Y24824D01*
X5162Y24827D01*
X5163Y24828D01*
X5164Y24828D01*
X5169Y24833D01*
X5174Y24837D01*
X5175Y24838D01*
X5176Y24838D01*
X5180Y24844D01*
X5184Y24849D01*
X5185Y24850D01*
X5185Y24851D01*
X5188Y24857D01*
X5192Y24863D01*
X5192Y24864D01*
X5192Y24865D01*
X5194Y24872D01*
X5196Y24878D01*
X5196Y24879D01*
X5196Y24880D01*
X5197Y24887D01*
X5197Y24894D01*
X5197Y24895D01*
X5197Y24896D01*
X5196Y24903D01*
X5195Y24910D01*
X5195Y24911D01*
X5195Y24912D01*
X5191Y24923D01*
X5165Y24987D01*
X5165Y25090D01*
X5204Y25186D01*
X5278Y25259D01*
X5373Y25298D01*
X5476Y25298D01*
X5572Y25259D01*
X5608Y25222D01*
X5609Y25221D01*
X5610Y25220D01*
X5615Y25216D01*
X5620Y25212D01*
X5622Y25212D01*
X5623Y25211D01*
X5629Y25208D01*
X5634Y25205D01*
X5636Y25205D01*
X5637Y25204D01*
X5643Y25202D01*
X5649Y25201D01*
X5651Y25200D01*
X5652Y25200D01*
X5664Y25199D01*
X5769Y25199D01*
X5828Y25175D01*
X6057Y24946D01*
X6058Y24945D01*
X6059Y24944D01*
X6064Y24940D01*
X6069Y24936D01*
X6070Y24936D01*
X6071Y24935D01*
X6077Y24932D01*
X6083Y24929D01*
X6084Y24929D01*
X6085Y24928D01*
X6092Y24926D01*
X6098Y24925D01*
X6099Y24924D01*
X6101Y24924D01*
X6113Y24923D01*
X6164Y24923D01*
X6215Y24902D01*
X6223Y24900D01*
X6230Y24898D01*
X6230Y24897D01*
X6238Y24897D01*
X6246Y24896D01*
X6254Y24897D01*
X6261Y24898D01*
X6262Y24898D01*
X6269Y24900D01*
X6276Y24903D01*
X6277Y24903D01*
X6283Y24906D01*
X6290Y24910D01*
X6296Y24915D01*
X6302Y24920D01*
X6302Y24921D01*
X6307Y24927D01*
X6312Y24933D01*
X6316Y24940D01*
X6319Y24947D01*
X6321Y24955D01*
X6323Y24962D01*
X6323Y24963D01*
X6324Y24970D01*
X6324Y24978D01*
X6323Y24986D01*
X6322Y24993D01*
X6322Y24994D01*
X6320Y25001D01*
X6317Y25008D01*
X6317Y25009D01*
X6313Y25015D01*
X6309Y25022D01*
X6301Y25031D01*
X6209Y25123D01*
X6181Y25190D01*
X6181Y27387D01*
X6197Y27424D01*
X6197Y27425D01*
X6199Y27432D01*
X6202Y27439D01*
X6202Y27440D01*
X6202Y27448D01*
X6203Y27455D01*
X6203Y27456D01*
X6202Y27463D01*
X6201Y27471D01*
X6201Y27472D01*
X6199Y27479D01*
X6197Y27486D01*
X6196Y27486D01*
X6196Y27487D01*
X6193Y27493D01*
X6189Y27500D01*
X6188Y27500D01*
X6183Y27506D01*
X6179Y27512D01*
X6178Y27512D01*
X6172Y27517D01*
X6166Y27521D01*
X6166Y27522D01*
X6165Y27522D01*
X6159Y27525D01*
X6152Y27529D01*
X6151Y27529D01*
X6144Y27531D01*
X6137Y27533D01*
X6136Y27533D01*
X6129Y27533D01*
X6121Y27534D01*
X6120Y27534D01*
X6113Y27533D01*
X6106Y27532D01*
X6105Y27532D01*
X6105Y27531D01*
X6093Y27528D01*
X5936Y27463D01*
X5402Y27463D01*
X5399Y27462D01*
X5396Y27462D01*
X5391Y27462D01*
X5386Y27461D01*
X5383Y27460D01*
X5380Y27460D01*
X5376Y27458D01*
X5371Y27456D01*
X5369Y27455D01*
X5366Y27454D01*
X5362Y27451D01*
X5357Y27449D01*
X5355Y27447D01*
X5353Y27445D01*
X5349Y27442D01*
X5345Y27439D01*
X5343Y27436D01*
X5341Y27434D01*
X5338Y27430D01*
X5335Y27426D01*
X5334Y27424D01*
X5332Y27421D01*
X5330Y27417D01*
X5328Y27412D01*
X5327Y27409D01*
X5326Y27407D01*
X5325Y27402D01*
X5324Y27397D01*
X5324Y27394D01*
X5323Y27391D01*
X5323Y27386D01*
X5323Y27381D01*
X5323Y27378D01*
X5323Y27376D01*
X5324Y27371D01*
X5325Y27366D01*
X5326Y27363D01*
X5326Y27360D01*
X5328Y27356D01*
X5330Y27351D01*
X5331Y27348D01*
X5332Y27346D01*
X5335Y27341D01*
X5338Y27337D01*
X5340Y27335D01*
X5341Y27332D01*
X5345Y27329D01*
X5348Y27325D01*
X5350Y27324D01*
X5353Y27321D01*
X5359Y27317D01*
X5361Y27316D01*
X5361Y27315D01*
X5362Y27315D01*
X5495Y27238D01*
X5687Y27046D01*
X5823Y26811D01*
X5893Y26549D01*
X5893Y26278D01*
X5823Y26016D01*
X5687Y25781D01*
X5495Y25589D01*
X5260Y25453D01*
X4998Y25383D01*
X4727Y25383D01*
X4464Y25453D01*
X4229Y25589D01*
X4037Y25781D01*
X3965Y25906D01*
X3963Y25909D01*
X3962Y25911D01*
X3958Y25915D01*
X3956Y25919D01*
X3953Y25921D01*
X3951Y25924D01*
X3948Y25927D01*
X3944Y25930D01*
X3941Y25932D01*
X3939Y25933D01*
X3935Y25936D01*
X3931Y25938D01*
X3928Y25939D01*
X3925Y25941D01*
X3920Y25942D01*
X3916Y25944D01*
X3913Y25944D01*
X3910Y25945D01*
X3905Y25945D01*
X3900Y25946D01*
X3897Y25946D01*
X3894Y25946D01*
X3889Y25945D01*
X3884Y25945D01*
X3881Y25944D01*
X3879Y25944D01*
X3874Y25943D01*
X3869Y25941D01*
X3866Y25940D01*
X3864Y25939D01*
X3859Y25937D01*
X3855Y25934D01*
X3852Y25933D01*
X3850Y25931D01*
X3846Y25928D01*
X3842Y25925D01*
X3840Y25923D01*
X3838Y25921D01*
X3835Y25917D01*
X3832Y25913D01*
X3830Y25911D01*
X3829Y25908D01*
X3826Y25904D01*
X3824Y25899D01*
X3823Y25897D01*
X3822Y25894D01*
X3820Y25889D01*
X3819Y25884D01*
X3819Y25882D01*
X3818Y25879D01*
X3817Y25871D01*
X3817Y25869D01*
X3817Y25868D01*
X3817Y25867D01*
X3817Y23899D01*
X3817Y23898D01*
X3817Y23896D01*
X3818Y23890D01*
X3818Y23884D01*
X3819Y23882D01*
X3819Y23880D01*
X3823Y23869D01*
X3842Y23824D01*
X3842Y23625D01*
X3814Y23558D01*
X3814Y23557D01*
X3813Y23556D01*
X3813Y23555D01*
X3811Y23549D01*
X3809Y23543D01*
X3809Y23541D01*
X3809Y23540D01*
X3808Y23533D01*
X3808Y23527D01*
X3808Y23526D01*
X3808Y23524D01*
X3809Y23518D01*
X3809Y23511D01*
X3810Y23510D01*
X3810Y23509D01*
X3814Y23497D01*
X3842Y23430D01*
X3842Y23231D01*
X3814Y23164D01*
X3813Y23163D01*
X3813Y23161D01*
X3811Y23155D01*
X3809Y23149D01*
X3809Y23148D01*
X3809Y23146D01*
X3808Y23140D01*
X3808Y23133D01*
X3808Y23132D01*
X3808Y23130D01*
X3809Y23124D01*
X3809Y23118D01*
X3810Y23116D01*
X3810Y23115D01*
X3814Y23104D01*
X3842Y23036D01*
X3842Y22838D01*
X3814Y22770D01*
X3813Y22769D01*
X3813Y22768D01*
X3811Y22762D01*
X3809Y22755D01*
X3809Y22754D01*
X3809Y22752D01*
X3808Y22746D01*
X3808Y22740D01*
X3808Y22738D01*
X3808Y22737D01*
X3809Y22730D01*
X3809Y22724D01*
X3810Y22723D01*
X3810Y22721D01*
X3814Y22710D01*
X3842Y22643D01*
X3842Y22444D01*
X3814Y22377D01*
X3813Y22375D01*
X3813Y22374D01*
X3811Y22368D01*
X3809Y22362D01*
X3809Y22360D01*
X3809Y22359D01*
X3808Y22352D01*
X3808Y22346D01*
X3808Y22344D01*
X3808Y22343D01*
X3809Y22337D01*
X3809Y22330D01*
X3810Y22329D01*
X3810Y22327D01*
X3814Y22316D01*
X3842Y22249D01*
X3842Y22050D01*
X3803Y21957D01*
X3803Y21956D01*
X3802Y21954D01*
X3800Y21948D01*
X3799Y21942D01*
X3799Y21941D01*
X3798Y21939D01*
X3797Y21927D01*
X3797Y19926D01*
X3798Y19923D01*
X3797Y19920D01*
X3798Y19915D01*
X3799Y19910D01*
X3800Y19907D01*
X3800Y19904D01*
X3802Y19900D01*
X3803Y19895D01*
X3805Y19892D01*
X3806Y19890D01*
X3809Y19886D01*
X3811Y19881D01*
X3813Y19879D01*
X3814Y19876D01*
X3818Y19873D01*
X3821Y19869D01*
X3823Y19867D01*
X3826Y19865D01*
X3830Y19862D01*
X3833Y19859D01*
X3836Y19858D01*
X3839Y19856D01*
X3843Y19854D01*
X3847Y19852D01*
X3850Y19851D01*
X3853Y19850D01*
X3858Y19849D01*
X3863Y19848D01*
X3866Y19848D01*
X3869Y19847D01*
X3873Y19847D01*
X3878Y19847D01*
X3881Y19847D01*
X3884Y19847D01*
X3889Y19848D01*
X3894Y19849D01*
X3897Y19850D01*
X3900Y19850D01*
X3904Y19852D01*
X3909Y19854D01*
X3912Y19855D01*
X3914Y19856D01*
X3918Y19859D01*
X3923Y19861D01*
X3925Y19863D01*
X3927Y19865D01*
X3931Y19869D01*
X3935Y19872D01*
X3936Y19874D01*
X3938Y19876D01*
X3943Y19883D01*
X3944Y19885D01*
X3945Y19886D01*
X4037Y20046D01*
X4229Y20238D01*
X4464Y20374D01*
X4727Y20444D01*
X4998Y20444D01*
X5260Y20374D01*
X5495Y20238D01*
X5687Y20046D01*
X5823Y19811D01*
X5893Y19549D01*
X5893Y19278D01*
X5823Y19016D01*
X5687Y18781D01*
X5495Y18589D01*
X5431Y18551D01*
X5428Y18550D01*
X5426Y18548D01*
X5422Y18545D01*
X5418Y18542D01*
X5416Y18540D01*
X5413Y18538D01*
X5410Y18534D01*
X5407Y18531D01*
X5405Y18528D01*
X5404Y18526D01*
X5401Y18521D01*
X5399Y18517D01*
X5398Y18514D01*
X5396Y18512D01*
X5395Y18507D01*
X5393Y18502D01*
X5393Y18499D01*
X5392Y18497D01*
X5392Y18492D01*
X5391Y18487D01*
X5391Y18484D01*
X5391Y18481D01*
X5392Y18476D01*
X5392Y18471D01*
X5393Y18468D01*
X5393Y18465D01*
X5394Y18460D01*
X5396Y18456D01*
X5397Y18453D01*
X5398Y18450D01*
X5400Y18446D01*
X5403Y18441D01*
X5404Y18439D01*
X5406Y18437D01*
X5409Y18433D01*
X5412Y18429D01*
X5414Y18427D01*
X5416Y18425D01*
X5420Y18422D01*
X5424Y18418D01*
X5426Y18417D01*
X5429Y18415D01*
X5433Y18413D01*
X5438Y18411D01*
X5440Y18410D01*
X5443Y18408D01*
X5448Y18407D01*
X5452Y18405D01*
X5455Y18405D01*
X5458Y18404D01*
X5466Y18404D01*
X5468Y18404D01*
X5469Y18404D01*
X5470Y18404D01*
X5847Y18404D01*
X6184Y18294D01*
X6471Y18085D01*
X6680Y17798D01*
X6789Y17461D01*
X6789Y16732D01*
X6790Y16730D01*
X6790Y16726D01*
X6792Y16692D01*
X6793Y16689D01*
X6793Y16685D01*
X6795Y16679D01*
X6795Y16676D01*
X6795Y16675D01*
X6796Y16674D01*
X6817Y16609D01*
X6819Y16605D01*
X6820Y16601D01*
X6821Y16599D01*
X6822Y16597D01*
X6823Y16595D01*
X6823Y16594D01*
X6825Y16592D01*
X6828Y16587D01*
X6868Y16532D01*
X6873Y16527D01*
X6877Y16522D01*
X6878Y16521D01*
X6879Y16520D01*
X6881Y16518D01*
X6886Y16514D01*
X6941Y16474D01*
X6947Y16471D01*
X6952Y16467D01*
X6954Y16467D01*
X6955Y16466D01*
X6957Y16465D01*
X6963Y16463D01*
X7028Y16442D01*
X7031Y16441D01*
X7035Y16440D01*
X7041Y16439D01*
X7043Y16438D01*
X7045Y16438D01*
X7046Y16438D01*
X7080Y16435D01*
X7083Y16435D01*
X7087Y16435D01*
X8426Y16435D01*
X8428Y16435D01*
X8430Y16435D01*
X8436Y16436D01*
X8442Y16437D01*
X8443Y16437D01*
X8445Y16437D01*
X8456Y16441D01*
X8464Y16444D01*
X8662Y16444D01*
X8730Y16416D01*
X8731Y16416D01*
X8732Y16415D01*
X8738Y16414D01*
X8745Y16412D01*
X8746Y16412D01*
X8748Y16411D01*
X8754Y16411D01*
X8760Y16410D01*
X8762Y16410D01*
X8763Y16410D01*
X8770Y16411D01*
X8776Y16412D01*
X8777Y16412D01*
X8779Y16412D01*
X8790Y16416D01*
X8857Y16444D01*
X9056Y16444D01*
X9123Y16416D01*
X9125Y16416D01*
X9126Y16415D01*
X9132Y16414D01*
X9138Y16412D01*
X9140Y16412D01*
X9141Y16411D01*
X9148Y16411D01*
X9154Y16410D01*
X9155Y16410D01*
X9157Y16410D01*
X9163Y16411D01*
X9170Y16412D01*
X9171Y16412D01*
X9173Y16412D01*
X9184Y16416D01*
X9251Y16444D01*
X9450Y16444D01*
X9517Y16416D01*
X9518Y16416D01*
X9520Y16415D01*
X9526Y16414D01*
X9532Y16412D01*
X9533Y16412D01*
X9535Y16411D01*
X9541Y16411D01*
X9548Y16410D01*
X9549Y16410D01*
X9551Y16410D01*
X9557Y16411D01*
X9563Y16412D01*
X9565Y16412D01*
X9566Y16412D01*
X9578Y16416D01*
X9645Y16444D01*
X9843Y16444D01*
X9911Y16416D01*
X9912Y16416D01*
X9913Y16415D01*
X9920Y16414D01*
X9926Y16412D01*
X9927Y16412D01*
X9929Y16411D01*
X9935Y16411D01*
X9941Y16410D01*
X9943Y16410D01*
X9944Y16410D01*
X9951Y16411D01*
X9957Y16412D01*
X9959Y16412D01*
X9960Y16412D01*
X9971Y16416D01*
X10039Y16444D01*
X10237Y16444D01*
X10339Y16402D01*
X10341Y16401D01*
X10343Y16400D01*
X10349Y16399D01*
X10355Y16397D01*
X10356Y16397D01*
X10358Y16397D01*
X10370Y16396D01*
X11654Y16396D01*
X11656Y16396D01*
G37*
G36*
X22718Y16410D02*
X22718Y16410D01*
X22720Y16410D01*
X22726Y16411D01*
X22733Y16412D01*
X22734Y16412D01*
X22736Y16412D01*
X22747Y16416D01*
X22814Y16444D01*
X23013Y16444D01*
X23067Y16421D01*
X23069Y16421D01*
X23071Y16420D01*
X23077Y16419D01*
X23083Y16417D01*
X23084Y16417D01*
X23086Y16416D01*
X23098Y16415D01*
X24390Y16415D01*
X24392Y16416D01*
X24396Y16416D01*
X24430Y16418D01*
X24433Y16419D01*
X24437Y16419D01*
X24443Y16421D01*
X24446Y16421D01*
X24447Y16421D01*
X24448Y16422D01*
X24513Y16443D01*
X24519Y16446D01*
X24525Y16448D01*
X24527Y16449D01*
X24528Y16449D01*
X24530Y16451D01*
X24535Y16454D01*
X24591Y16494D01*
X24595Y16499D01*
X24600Y16503D01*
X24601Y16504D01*
X24602Y16505D01*
X24604Y16507D01*
X24608Y16512D01*
X24648Y16567D01*
X24651Y16573D01*
X24655Y16578D01*
X24656Y16580D01*
X24656Y16581D01*
X24657Y16583D01*
X24659Y16589D01*
X24680Y16654D01*
X24681Y16657D01*
X24682Y16661D01*
X24683Y16667D01*
X24684Y16669D01*
X24684Y16671D01*
X24684Y16672D01*
X24687Y16706D01*
X24687Y16709D01*
X24687Y16713D01*
X24687Y17441D01*
X24797Y17779D01*
X25005Y18066D01*
X25292Y18274D01*
X25630Y18384D01*
X26084Y18384D01*
X26087Y18384D01*
X26090Y18384D01*
X26094Y18385D01*
X26099Y18385D01*
X26102Y18386D01*
X26105Y18387D01*
X26110Y18389D01*
X26114Y18390D01*
X26117Y18391D01*
X26120Y18393D01*
X26124Y18395D01*
X26128Y18398D01*
X26131Y18399D01*
X26133Y18401D01*
X26137Y18405D01*
X26140Y18408D01*
X26142Y18410D01*
X26144Y18412D01*
X26147Y18416D01*
X26150Y18420D01*
X26152Y18423D01*
X26153Y18425D01*
X26155Y18430D01*
X26157Y18434D01*
X26158Y18437D01*
X26159Y18440D01*
X26160Y18445D01*
X26162Y18449D01*
X26162Y18452D01*
X26162Y18455D01*
X26162Y18460D01*
X26163Y18465D01*
X26162Y18468D01*
X26162Y18471D01*
X26162Y18476D01*
X26161Y18481D01*
X26160Y18483D01*
X26159Y18486D01*
X26157Y18491D01*
X26156Y18496D01*
X26154Y18498D01*
X26153Y18501D01*
X26150Y18505D01*
X26148Y18509D01*
X26146Y18512D01*
X26144Y18514D01*
X26141Y18517D01*
X26138Y18521D01*
X26135Y18523D01*
X26133Y18525D01*
X26127Y18529D01*
X26125Y18531D01*
X26124Y18531D01*
X26123Y18532D01*
X26025Y18589D01*
X25833Y18781D01*
X25697Y19016D01*
X25627Y19278D01*
X25627Y19549D01*
X25697Y19811D01*
X25833Y20046D01*
X26025Y20238D01*
X26260Y20374D01*
X26522Y20444D01*
X26793Y20444D01*
X27055Y20374D01*
X27290Y20238D01*
X27482Y20046D01*
X27531Y19961D01*
X27533Y19959D01*
X27534Y19956D01*
X27538Y19952D01*
X27540Y19948D01*
X27543Y19946D01*
X27545Y19944D01*
X27548Y19941D01*
X27552Y19938D01*
X27555Y19936D01*
X27557Y19934D01*
X27561Y19932D01*
X27566Y19929D01*
X27568Y19928D01*
X27571Y19927D01*
X27576Y19926D01*
X27580Y19924D01*
X27583Y19924D01*
X27586Y19923D01*
X27591Y19922D01*
X27596Y19922D01*
X27599Y19922D01*
X27602Y19922D01*
X27607Y19922D01*
X27612Y19923D01*
X27615Y19923D01*
X27618Y19924D01*
X27622Y19925D01*
X27627Y19926D01*
X27630Y19928D01*
X27632Y19929D01*
X27637Y19931D01*
X27641Y19933D01*
X27644Y19935D01*
X27646Y19937D01*
X27650Y19940D01*
X27654Y19943D01*
X27656Y19945D01*
X27658Y19947D01*
X27661Y19951D01*
X27664Y19955D01*
X27666Y19957D01*
X27668Y19960D01*
X27670Y19964D01*
X27672Y19968D01*
X27673Y19971D01*
X27674Y19974D01*
X27676Y19979D01*
X27677Y19983D01*
X27678Y19986D01*
X27678Y19989D01*
X27679Y19996D01*
X27679Y19999D01*
X27679Y20000D01*
X27679Y20001D01*
X27679Y21914D01*
X27679Y21915D01*
X27679Y21917D01*
X27678Y21923D01*
X27678Y21929D01*
X27677Y21931D01*
X27677Y21933D01*
X27673Y21944D01*
X27631Y22046D01*
X27631Y22245D01*
X27659Y22312D01*
X27659Y22314D01*
X27660Y22315D01*
X27661Y22321D01*
X27663Y22327D01*
X27663Y22329D01*
X27664Y22330D01*
X27664Y22337D01*
X27665Y22343D01*
X27664Y22344D01*
X27665Y22346D01*
X27664Y22352D01*
X27663Y22359D01*
X27663Y22360D01*
X27662Y22362D01*
X27659Y22373D01*
X27631Y22440D01*
X27631Y22639D01*
X27659Y22706D01*
X27659Y22707D01*
X27660Y22709D01*
X27661Y22715D01*
X27663Y22721D01*
X27663Y22722D01*
X27664Y22724D01*
X27664Y22730D01*
X27665Y22737D01*
X27664Y22738D01*
X27665Y22740D01*
X27664Y22746D01*
X27663Y22752D01*
X27663Y22754D01*
X27662Y22755D01*
X27659Y22767D01*
X27631Y22834D01*
X27631Y23032D01*
X27659Y23100D01*
X27659Y23101D01*
X27660Y23102D01*
X27661Y23109D01*
X27663Y23115D01*
X27663Y23116D01*
X27664Y23118D01*
X27664Y23124D01*
X27665Y23130D01*
X27664Y23132D01*
X27665Y23133D01*
X27664Y23140D01*
X27663Y23146D01*
X27663Y23148D01*
X27662Y23149D01*
X27659Y23160D01*
X27631Y23227D01*
X27631Y23426D01*
X27659Y23493D01*
X27659Y23495D01*
X27660Y23496D01*
X27661Y23502D01*
X27663Y23508D01*
X27663Y23510D01*
X27664Y23511D01*
X27664Y23518D01*
X27665Y23524D01*
X27664Y23526D01*
X27665Y23527D01*
X27664Y23533D01*
X27663Y23540D01*
X27663Y23541D01*
X27662Y23543D01*
X27659Y23554D01*
X27631Y23621D01*
X27631Y23820D01*
X27653Y23875D01*
X27654Y23876D01*
X27655Y23878D01*
X27656Y23884D01*
X27658Y23890D01*
X27658Y23891D01*
X27659Y23893D01*
X27659Y23905D01*
X27659Y25792D01*
X27659Y25795D01*
X27659Y25798D01*
X27658Y25803D01*
X27658Y25808D01*
X27657Y25810D01*
X27657Y25813D01*
X27655Y25818D01*
X27653Y25823D01*
X27652Y25825D01*
X27651Y25828D01*
X27648Y25832D01*
X27646Y25836D01*
X27644Y25839D01*
X27642Y25841D01*
X27639Y25845D01*
X27636Y25849D01*
X27633Y25850D01*
X27631Y25853D01*
X27627Y25855D01*
X27623Y25858D01*
X27621Y25860D01*
X27618Y25861D01*
X27614Y25863D01*
X27609Y25866D01*
X27606Y25866D01*
X27604Y25868D01*
X27599Y25869D01*
X27594Y25870D01*
X27591Y25870D01*
X27588Y25871D01*
X27583Y25871D01*
X27578Y25871D01*
X27575Y25871D01*
X27572Y25871D01*
X27568Y25870D01*
X27563Y25869D01*
X27560Y25868D01*
X27557Y25868D01*
X27552Y25866D01*
X27548Y25864D01*
X27545Y25863D01*
X27542Y25861D01*
X27538Y25859D01*
X27534Y25856D01*
X27532Y25854D01*
X27529Y25853D01*
X27526Y25849D01*
X27522Y25846D01*
X27520Y25843D01*
X27518Y25841D01*
X27514Y25835D01*
X27513Y25833D01*
X27512Y25832D01*
X27512Y25831D01*
X27482Y25781D01*
X27290Y25589D01*
X27055Y25453D01*
X26793Y25383D01*
X26522Y25383D01*
X26260Y25453D01*
X26025Y25589D01*
X25833Y25781D01*
X25697Y26016D01*
X25627Y26278D01*
X25627Y26549D01*
X25697Y26811D01*
X25833Y27046D01*
X26025Y27238D01*
X26191Y27334D01*
X26194Y27336D01*
X26196Y27338D01*
X26200Y27341D01*
X26204Y27344D01*
X26206Y27346D01*
X26209Y27348D01*
X26212Y27352D01*
X26215Y27355D01*
X26217Y27358D01*
X26218Y27360D01*
X26221Y27364D01*
X26223Y27369D01*
X26224Y27371D01*
X26226Y27374D01*
X26227Y27379D01*
X26229Y27384D01*
X26229Y27386D01*
X26230Y27389D01*
X26230Y27394D01*
X26231Y27399D01*
X26231Y27402D01*
X26231Y27405D01*
X26230Y27410D01*
X26230Y27415D01*
X26229Y27418D01*
X26229Y27421D01*
X26228Y27425D01*
X26226Y27430D01*
X26225Y27433D01*
X26224Y27436D01*
X26222Y27440D01*
X26219Y27444D01*
X26218Y27447D01*
X26216Y27449D01*
X26213Y27453D01*
X26210Y27457D01*
X26208Y27459D01*
X26206Y27461D01*
X26202Y27464D01*
X26198Y27467D01*
X26196Y27469D01*
X26193Y27471D01*
X26189Y27473D01*
X26184Y27475D01*
X26182Y27476D01*
X26179Y27478D01*
X26174Y27479D01*
X26169Y27480D01*
X26167Y27481D01*
X26164Y27481D01*
X26156Y27482D01*
X26154Y27482D01*
X26153Y27482D01*
X26152Y27482D01*
X25540Y27482D01*
X25375Y27551D01*
X24382Y28544D01*
X24244Y28682D01*
X24175Y28847D01*
X24175Y30725D01*
X24175Y30727D01*
X24175Y30728D01*
X24174Y30735D01*
X24174Y30741D01*
X24173Y30742D01*
X24173Y30744D01*
X24171Y30750D01*
X24169Y30756D01*
X24168Y30757D01*
X24168Y30759D01*
X24165Y30764D01*
X24161Y30770D01*
X24161Y30771D01*
X24160Y30772D01*
X24152Y30781D01*
X23015Y31919D01*
X23014Y31919D01*
X23013Y31921D01*
X23008Y31924D01*
X23003Y31929D01*
X23001Y31929D01*
X23000Y31930D01*
X22994Y31933D01*
X22989Y31936D01*
X22987Y31936D01*
X22986Y31937D01*
X22980Y31939D01*
X22974Y31940D01*
X22972Y31941D01*
X22971Y31941D01*
X22959Y31942D01*
X22814Y31942D01*
X22747Y31970D01*
X22745Y31970D01*
X22744Y31971D01*
X22738Y31972D01*
X22732Y31974D01*
X22730Y31974D01*
X22729Y31975D01*
X22722Y31975D01*
X22716Y31976D01*
X22715Y31975D01*
X22713Y31976D01*
X22707Y31975D01*
X22700Y31974D01*
X22699Y31974D01*
X22697Y31973D01*
X22686Y31970D01*
X22619Y31942D01*
X22420Y31942D01*
X22353Y31970D01*
X22352Y31970D01*
X22350Y31971D01*
X22344Y31972D01*
X22338Y31974D01*
X22337Y31974D01*
X22335Y31975D01*
X22329Y31975D01*
X22322Y31976D01*
X22321Y31975D01*
X22319Y31976D01*
X22313Y31975D01*
X22307Y31974D01*
X22305Y31974D01*
X22304Y31973D01*
X22293Y31970D01*
X22225Y31942D01*
X22027Y31942D01*
X21959Y31970D01*
X21958Y31970D01*
X21957Y31971D01*
X21950Y31972D01*
X21944Y31974D01*
X21943Y31974D01*
X21941Y31975D01*
X21935Y31975D01*
X21929Y31976D01*
X21927Y31975D01*
X21926Y31976D01*
X21919Y31975D01*
X21913Y31974D01*
X21912Y31974D01*
X21910Y31973D01*
X21899Y31970D01*
X21832Y31942D01*
X21633Y31942D01*
X21566Y31970D01*
X21564Y31970D01*
X21563Y31971D01*
X21557Y31972D01*
X21551Y31974D01*
X21549Y31974D01*
X21548Y31975D01*
X21541Y31975D01*
X21535Y31976D01*
X21533Y31975D01*
X21532Y31976D01*
X21526Y31975D01*
X21519Y31974D01*
X21518Y31974D01*
X21516Y31973D01*
X21505Y31970D01*
X21438Y31942D01*
X21313Y31942D01*
X21311Y31942D01*
X21310Y31942D01*
X21304Y31941D01*
X21297Y31940D01*
X21296Y31940D01*
X21294Y31940D01*
X21288Y31937D01*
X21282Y31936D01*
X21281Y31935D01*
X21279Y31934D01*
X21274Y31931D01*
X21268Y31928D01*
X21267Y31927D01*
X21266Y31926D01*
X21257Y31919D01*
X20139Y30801D01*
X20138Y30800D01*
X20137Y30799D01*
X20133Y30794D01*
X20129Y30789D01*
X20129Y30788D01*
X20128Y30786D01*
X20125Y30781D01*
X20122Y30775D01*
X20122Y30773D01*
X20121Y30772D01*
X20119Y30766D01*
X20117Y30760D01*
X20117Y30758D01*
X20117Y30757D01*
X20116Y30745D01*
X20116Y28867D01*
X20104Y28839D01*
X20104Y28838D01*
X20104Y28837D01*
X20102Y28830D01*
X20100Y28824D01*
X20100Y28823D01*
X20100Y28822D01*
X20099Y28815D01*
X20098Y28808D01*
X20099Y28807D01*
X20098Y28806D01*
X20099Y28799D01*
X20100Y28792D01*
X20100Y28791D01*
X20101Y28791D01*
X20103Y28784D01*
X20105Y28777D01*
X20106Y28776D01*
X20109Y28770D01*
X20112Y28764D01*
X20113Y28763D01*
X20114Y28762D01*
X20118Y28757D01*
X20123Y28752D01*
X20123Y28751D01*
X20124Y28750D01*
X20130Y28746D01*
X20135Y28742D01*
X20136Y28741D01*
X20137Y28741D01*
X20147Y28735D01*
X20242Y28696D01*
X20315Y28623D01*
X20355Y28528D01*
X20355Y28424D01*
X20315Y28329D01*
X20292Y28306D01*
X20292Y28305D01*
X20291Y28304D01*
X20287Y28299D01*
X20282Y28293D01*
X20281Y28292D01*
X20278Y28286D01*
X20275Y28279D01*
X20274Y28279D01*
X20274Y28278D01*
X20272Y28271D01*
X20270Y28264D01*
X20270Y28263D01*
X20270Y28262D01*
X20270Y28256D01*
X20269Y28249D01*
X20269Y28248D01*
X20269Y28247D01*
X20270Y28240D01*
X20271Y28233D01*
X20271Y28232D01*
X20271Y28231D01*
X20273Y28225D01*
X20276Y28218D01*
X20276Y28217D01*
X20276Y28216D01*
X20280Y28210D01*
X20283Y28204D01*
X20284Y28203D01*
X20292Y28194D01*
X20300Y28186D01*
X20356Y28129D01*
X20381Y28070D01*
X20381Y26405D01*
X20381Y26404D01*
X20381Y26403D01*
X20382Y26396D01*
X20382Y26389D01*
X20383Y26388D01*
X20383Y26387D01*
X20385Y26381D01*
X20387Y26374D01*
X20388Y26373D01*
X20388Y26372D01*
X20391Y26366D01*
X20394Y26360D01*
X20395Y26359D01*
X20396Y26358D01*
X20400Y26353D01*
X20405Y26348D01*
X20406Y26348D01*
X20406Y26347D01*
X20412Y26343D01*
X20417Y26338D01*
X20418Y26338D01*
X20419Y26337D01*
X20430Y26332D01*
X20435Y26329D01*
X20574Y26191D01*
X20584Y26165D01*
X20585Y26165D01*
X20588Y26158D01*
X20592Y26152D01*
X20592Y26151D01*
X20597Y26145D01*
X20602Y26139D01*
X20608Y26134D01*
X20614Y26129D01*
X20615Y26129D01*
X20621Y26126D01*
X20628Y26122D01*
X20629Y26122D01*
X20636Y26120D01*
X20643Y26118D01*
X20644Y26118D01*
X20652Y26117D01*
X20659Y26117D01*
X20660Y26117D01*
X20667Y26118D01*
X20675Y26118D01*
X20675Y26119D01*
X20676Y26119D01*
X20683Y26121D01*
X20690Y26123D01*
X20690Y26124D01*
X20697Y26127D01*
X20703Y26131D01*
X20704Y26131D01*
X20704Y26132D01*
X20710Y26137D01*
X20715Y26141D01*
X20716Y26142D01*
X20720Y26148D01*
X20725Y26154D01*
X20725Y26155D01*
X20731Y26165D01*
X20741Y26191D01*
X20879Y26329D01*
X21060Y26404D01*
X21255Y26404D01*
X21435Y26329D01*
X21574Y26191D01*
X21596Y26137D01*
X21599Y26132D01*
X21601Y26127D01*
X21602Y26125D01*
X21604Y26123D01*
X21607Y26119D01*
X21610Y26114D01*
X21612Y26113D01*
X21614Y26111D01*
X21618Y26107D01*
X21622Y26104D01*
X21624Y26102D01*
X21626Y26101D01*
X21631Y26098D01*
X21635Y26095D01*
X21638Y26095D01*
X21640Y26093D01*
X21645Y26092D01*
X21650Y26090D01*
X21653Y26090D01*
X21655Y26089D01*
X21660Y26089D01*
X21666Y26088D01*
X21668Y26088D01*
X21671Y26088D01*
X21676Y26088D01*
X21681Y26089D01*
X21684Y26089D01*
X21687Y26090D01*
X21692Y26091D01*
X21697Y26093D01*
X21699Y26094D01*
X21702Y26095D01*
X21706Y26097D01*
X21711Y26099D01*
X21713Y26101D01*
X21715Y26102D01*
X21719Y26106D01*
X21723Y26109D01*
X21725Y26111D01*
X21727Y26113D01*
X21730Y26117D01*
X21734Y26121D01*
X21736Y26124D01*
X21737Y26125D01*
X21738Y26127D01*
X21740Y26131D01*
X21755Y26160D01*
X21798Y26220D01*
X21851Y26272D01*
X21911Y26316D01*
X21977Y26350D01*
X22047Y26373D01*
X22058Y26374D01*
X22058Y25933D01*
X22058Y25932D01*
X22058Y25931D01*
X22059Y25925D01*
X22060Y25918D01*
X22060Y25917D01*
X22060Y25916D01*
X22062Y25909D01*
X22064Y25903D01*
X22065Y25902D01*
X22065Y25901D01*
X22069Y25895D01*
X22072Y25889D01*
X22073Y25888D01*
X22073Y25887D01*
X22078Y25882D01*
X22082Y25877D01*
X22083Y25876D01*
X22084Y25875D01*
X22089Y25871D01*
X22094Y25867D01*
X22095Y25866D01*
X22096Y25866D01*
X22102Y25863D01*
X22109Y25860D01*
X22109Y25859D01*
X22110Y25859D01*
X22117Y25857D01*
X22124Y25855D01*
X22125Y25855D01*
X22126Y25855D01*
X22137Y25854D01*
X22177Y25854D01*
X22178Y25854D01*
X22179Y25854D01*
X22186Y25855D01*
X22193Y25856D01*
X22194Y25856D01*
X22195Y25856D01*
X22202Y25858D01*
X22208Y25860D01*
X22209Y25861D01*
X22210Y25861D01*
X22216Y25865D01*
X22222Y25868D01*
X22223Y25869D01*
X22224Y25869D01*
X22229Y25874D01*
X22234Y25878D01*
X22235Y25879D01*
X22236Y25879D01*
X22240Y25885D01*
X22244Y25890D01*
X22244Y25891D01*
X22245Y25892D01*
X22248Y25898D01*
X22251Y25904D01*
X22252Y25905D01*
X22252Y25906D01*
X22254Y25913D01*
X22256Y25920D01*
X22256Y25921D01*
X22256Y25922D01*
X22257Y25933D01*
X22257Y26374D01*
X22268Y26373D01*
X22338Y26350D01*
X22404Y26316D01*
X22464Y26272D01*
X22517Y26220D01*
X22560Y26160D01*
X22575Y26131D01*
X22578Y26127D01*
X22580Y26122D01*
X22582Y26120D01*
X22583Y26118D01*
X22587Y26114D01*
X22591Y26110D01*
X22593Y26108D01*
X22594Y26106D01*
X22599Y26103D01*
X22603Y26100D01*
X22605Y26099D01*
X22607Y26097D01*
X22612Y26095D01*
X22617Y26093D01*
X22620Y26092D01*
X22622Y26091D01*
X22627Y26090D01*
X22632Y26089D01*
X22635Y26089D01*
X22637Y26088D01*
X22643Y26088D01*
X22648Y26088D01*
X22651Y26088D01*
X22653Y26088D01*
X22658Y26089D01*
X22664Y26090D01*
X22666Y26091D01*
X22669Y26091D01*
X22674Y26093D01*
X22679Y26095D01*
X22681Y26096D01*
X22683Y26097D01*
X22688Y26100D01*
X22692Y26103D01*
X22694Y26105D01*
X22696Y26106D01*
X22700Y26110D01*
X22704Y26113D01*
X22706Y26116D01*
X22707Y26117D01*
X22710Y26122D01*
X22713Y26126D01*
X22715Y26129D01*
X22716Y26131D01*
X22717Y26133D01*
X22719Y26137D01*
X22741Y26191D01*
X22879Y26329D01*
X23060Y26404D01*
X23255Y26404D01*
X23435Y26329D01*
X23574Y26191D01*
X23584Y26165D01*
X23585Y26165D01*
X23588Y26158D01*
X23592Y26152D01*
X23592Y26151D01*
X23597Y26145D01*
X23602Y26139D01*
X23608Y26134D01*
X23614Y26129D01*
X23615Y26129D01*
X23621Y26126D01*
X23628Y26122D01*
X23629Y26122D01*
X23636Y26120D01*
X23643Y26118D01*
X23644Y26118D01*
X23652Y26117D01*
X23659Y26117D01*
X23660Y26117D01*
X23667Y26118D01*
X23675Y26118D01*
X23675Y26119D01*
X23676Y26119D01*
X23683Y26121D01*
X23690Y26123D01*
X23690Y26124D01*
X23697Y26127D01*
X23703Y26131D01*
X23704Y26131D01*
X23704Y26132D01*
X23710Y26137D01*
X23715Y26141D01*
X23716Y26142D01*
X23720Y26148D01*
X23725Y26154D01*
X23725Y26155D01*
X23731Y26165D01*
X23741Y26191D01*
X23879Y26329D01*
X23948Y26358D01*
X23949Y26358D01*
X23950Y26359D01*
X23956Y26362D01*
X23962Y26365D01*
X23963Y26366D01*
X23964Y26367D01*
X23969Y26371D01*
X23974Y26375D01*
X23975Y26376D01*
X23976Y26377D01*
X23980Y26382D01*
X23984Y26388D01*
X23984Y26389D01*
X23985Y26390D01*
X23988Y26396D01*
X23991Y26402D01*
X23991Y26403D01*
X23992Y26404D01*
X23994Y26410D01*
X23995Y26417D01*
X23996Y26418D01*
X23996Y26419D01*
X23997Y26431D01*
X23997Y26626D01*
X23997Y26628D01*
X23997Y26629D01*
X23996Y26636D01*
X23995Y26642D01*
X23995Y26644D01*
X23995Y26645D01*
X23992Y26651D01*
X23991Y26657D01*
X23990Y26659D01*
X23989Y26660D01*
X23986Y26665D01*
X23983Y26671D01*
X23982Y26672D01*
X23981Y26674D01*
X23974Y26683D01*
X23151Y27505D01*
X23150Y27506D01*
X23149Y27507D01*
X23143Y27511D01*
X23138Y27515D01*
X23137Y27516D01*
X23136Y27517D01*
X23130Y27520D01*
X23124Y27523D01*
X23123Y27523D01*
X23122Y27524D01*
X23116Y27525D01*
X23109Y27527D01*
X23108Y27527D01*
X23106Y27528D01*
X23095Y27529D01*
X23043Y27529D01*
X22948Y27568D01*
X22875Y27641D01*
X22835Y27737D01*
X22835Y27824D01*
X22835Y27825D01*
X22835Y27826D01*
X22834Y27833D01*
X22834Y27840D01*
X22833Y27841D01*
X22833Y27842D01*
X22831Y27848D01*
X22829Y27855D01*
X22828Y27856D01*
X22828Y27857D01*
X22825Y27863D01*
X22821Y27869D01*
X22821Y27870D01*
X22820Y27871D01*
X22816Y27876D01*
X22811Y27881D01*
X22810Y27882D01*
X22804Y27887D01*
X22799Y27891D01*
X22798Y27891D01*
X22797Y27892D01*
X22791Y27895D01*
X22785Y27898D01*
X22784Y27898D01*
X22783Y27899D01*
X22776Y27900D01*
X22770Y27902D01*
X22769Y27902D01*
X22768Y27903D01*
X22756Y27904D01*
X22668Y27904D01*
X22573Y27943D01*
X22500Y28016D01*
X22460Y28112D01*
X22460Y28215D01*
X22500Y28311D01*
X22573Y28384D01*
X22638Y28411D01*
X22639Y28411D01*
X22645Y28415D01*
X22652Y28418D01*
X22652Y28419D01*
X22653Y28419D01*
X22658Y28424D01*
X22664Y28428D01*
X22664Y28429D01*
X22665Y28429D01*
X22669Y28435D01*
X22674Y28440D01*
X22674Y28441D01*
X22675Y28442D01*
X22678Y28448D01*
X22681Y28454D01*
X22681Y28455D01*
X22682Y28456D01*
X22684Y28463D01*
X22686Y28470D01*
X22686Y28471D01*
X22686Y28478D01*
X22687Y28485D01*
X22687Y28486D01*
X22687Y28487D01*
X22686Y28494D01*
X22685Y28501D01*
X22685Y28502D01*
X22682Y28509D01*
X22680Y28516D01*
X22680Y28517D01*
X22679Y28517D01*
X22676Y28523D01*
X22672Y28530D01*
X22671Y28531D01*
X22664Y28540D01*
X22625Y28579D01*
X22585Y28674D01*
X22585Y28708D01*
X22585Y28710D01*
X22585Y28711D01*
X22584Y28717D01*
X22584Y28724D01*
X22583Y28725D01*
X22583Y28726D01*
X22581Y28733D01*
X22579Y28739D01*
X22578Y28740D01*
X22578Y28741D01*
X22575Y28747D01*
X22571Y28753D01*
X22571Y28754D01*
X22570Y28755D01*
X22566Y28760D01*
X22561Y28765D01*
X22560Y28766D01*
X22559Y28767D01*
X22554Y28771D01*
X22549Y28775D01*
X22548Y28775D01*
X22547Y28776D01*
X22536Y28781D01*
X22448Y28818D01*
X22375Y28891D01*
X22335Y28987D01*
X22335Y29090D01*
X22375Y29186D01*
X22448Y29259D01*
X22478Y29271D01*
X22482Y29273D01*
X22485Y29274D01*
X22489Y29277D01*
X22492Y29279D01*
X22495Y29281D01*
X22498Y29283D01*
X22501Y29286D01*
X22504Y29289D01*
X22507Y29292D01*
X22509Y29294D01*
X22512Y29298D01*
X22514Y29301D01*
X22516Y29304D01*
X22518Y29307D01*
X22520Y29311D01*
X22522Y29315D01*
X22523Y29319D01*
X22524Y29322D01*
X22525Y29326D01*
X22526Y29330D01*
X22526Y29334D01*
X22527Y29338D01*
X22527Y29342D01*
X22527Y29346D01*
X22527Y29350D01*
X22527Y29353D01*
X22526Y29359D01*
X22525Y29362D01*
X22525Y29363D01*
X22525Y29365D01*
X22517Y29392D01*
X22517Y29523D01*
X22726Y29523D01*
X22727Y29523D01*
X22728Y29523D01*
X22735Y29524D01*
X22742Y29525D01*
X22743Y29525D01*
X22744Y29525D01*
X22751Y29527D01*
X22757Y29529D01*
X22758Y29530D01*
X22759Y29530D01*
X22765Y29534D01*
X22771Y29537D01*
X22772Y29538D01*
X22773Y29538D01*
X22778Y29543D01*
X22783Y29547D01*
X22784Y29548D01*
X22789Y29554D01*
X22793Y29559D01*
X22793Y29560D01*
X22794Y29561D01*
X22797Y29567D01*
X22800Y29573D01*
X22800Y29574D01*
X22801Y29575D01*
X22803Y29582D01*
X22804Y29589D01*
X22804Y29590D01*
X22805Y29591D01*
X22806Y29602D01*
X22806Y29603D01*
X22806Y29604D01*
X22805Y29611D01*
X22804Y29618D01*
X22804Y29619D01*
X22804Y29620D01*
X22801Y29627D01*
X22799Y29633D01*
X22799Y29634D01*
X22799Y29635D01*
X22795Y29641D01*
X22792Y29647D01*
X22791Y29648D01*
X22791Y29649D01*
X22786Y29654D01*
X22782Y29659D01*
X22781Y29660D01*
X22780Y29660D01*
X22775Y29665D01*
X22769Y29669D01*
X22768Y29669D01*
X22768Y29670D01*
X22761Y29673D01*
X22755Y29676D01*
X22754Y29676D01*
X22753Y29677D01*
X22747Y29679D01*
X22740Y29680D01*
X22739Y29680D01*
X22738Y29681D01*
X22726Y29682D01*
X22517Y29682D01*
X22517Y29765D01*
X22517Y29767D01*
X22517Y29768D01*
X22516Y29775D01*
X22516Y29781D01*
X22515Y29782D01*
X22515Y29784D01*
X22513Y29790D01*
X22511Y29796D01*
X22510Y29797D01*
X22510Y29799D01*
X22507Y29804D01*
X22504Y29810D01*
X22503Y29811D01*
X22502Y29812D01*
X22497Y29818D01*
X22497Y31111D01*
X22500Y31115D01*
X22504Y31120D01*
X22505Y31121D01*
X22506Y31123D01*
X22509Y31128D01*
X22512Y31134D01*
X22512Y31135D01*
X22513Y31137D01*
X22514Y31143D01*
X22516Y31149D01*
X22516Y31151D01*
X22516Y31152D01*
X22517Y31164D01*
X22517Y31248D01*
X22726Y31248D01*
X22935Y31248D01*
X22935Y31144D01*
X22936Y31143D01*
X22935Y31141D01*
X22936Y31139D01*
X22936Y30626D01*
X22936Y30625D01*
X22936Y30624D01*
X22937Y30617D01*
X22937Y30610D01*
X22938Y30609D01*
X22938Y30608D01*
X22940Y30602D01*
X22942Y30595D01*
X22942Y30594D01*
X22943Y30593D01*
X22946Y30587D01*
X22949Y30581D01*
X22950Y30580D01*
X22951Y30580D01*
X22955Y30574D01*
X22960Y30569D01*
X22960Y30568D01*
X22961Y30568D01*
X22967Y30564D01*
X22972Y30559D01*
X22973Y30559D01*
X22974Y30558D01*
X22980Y30555D01*
X22986Y30552D01*
X22987Y30552D01*
X22988Y30551D01*
X22995Y30550D01*
X23001Y30548D01*
X23002Y30548D01*
X23003Y30547D01*
X23015Y30547D01*
X23280Y30547D01*
X23339Y30522D01*
X23731Y30129D01*
X23756Y30070D01*
X23756Y28569D01*
X23731Y28510D01*
X23565Y28344D01*
X23565Y28343D01*
X23563Y28342D01*
X23560Y28337D01*
X23556Y28332D01*
X23555Y28331D01*
X23554Y28329D01*
X23551Y28324D01*
X23548Y28318D01*
X23548Y28316D01*
X23547Y28315D01*
X23545Y28309D01*
X23544Y28303D01*
X23544Y28301D01*
X23543Y28300D01*
X23542Y28288D01*
X23542Y28237D01*
X23503Y28141D01*
X23430Y28068D01*
X23358Y28039D01*
X23357Y28038D01*
X23351Y28034D01*
X23344Y28031D01*
X23343Y28030D01*
X23338Y28025D01*
X23332Y28021D01*
X23332Y28020D01*
X23331Y28020D01*
X23327Y28014D01*
X23322Y28009D01*
X23322Y28008D01*
X23321Y28007D01*
X23318Y28001D01*
X23315Y27995D01*
X23315Y27994D01*
X23314Y27993D01*
X23313Y27986D01*
X23311Y27980D01*
X23311Y27979D01*
X23310Y27978D01*
X23310Y27971D01*
X23309Y27964D01*
X23310Y27963D01*
X23309Y27962D01*
X23310Y27955D01*
X23311Y27948D01*
X23312Y27947D01*
X23312Y27946D01*
X23315Y27935D01*
X23355Y27840D01*
X23355Y27789D01*
X23355Y27787D01*
X23355Y27786D01*
X23356Y27779D01*
X23356Y27773D01*
X23357Y27772D01*
X23357Y27770D01*
X23359Y27764D01*
X23361Y27758D01*
X23362Y27757D01*
X23362Y27755D01*
X23365Y27750D01*
X23369Y27744D01*
X23369Y27743D01*
X23370Y27742D01*
X23378Y27733D01*
X24294Y26817D01*
X24318Y26758D01*
X24318Y26431D01*
X24318Y26430D01*
X24318Y26428D01*
X24319Y26422D01*
X24320Y26415D01*
X24320Y26414D01*
X24320Y26413D01*
X24322Y26407D01*
X24324Y26400D01*
X24325Y26399D01*
X24325Y26398D01*
X24329Y26392D01*
X24332Y26386D01*
X24333Y26385D01*
X24333Y26384D01*
X24338Y26379D01*
X24342Y26374D01*
X24343Y26373D01*
X24344Y26373D01*
X24349Y26369D01*
X24354Y26364D01*
X24356Y26364D01*
X24357Y26363D01*
X24367Y26358D01*
X24435Y26329D01*
X24574Y26191D01*
X24648Y26011D01*
X24648Y25816D01*
X24574Y25635D01*
X24435Y25497D01*
X24367Y25469D01*
X24366Y25468D01*
X24365Y25468D01*
X24359Y25465D01*
X24353Y25462D01*
X24352Y25461D01*
X24351Y25460D01*
X24346Y25456D01*
X24341Y25452D01*
X24340Y25451D01*
X24339Y25450D01*
X24335Y25444D01*
X24331Y25439D01*
X24331Y25438D01*
X24330Y25437D01*
X24327Y25431D01*
X24324Y25425D01*
X24324Y25424D01*
X24323Y25423D01*
X24321Y25417D01*
X24320Y25410D01*
X24319Y25409D01*
X24319Y25408D01*
X24318Y25396D01*
X24318Y24444D01*
X24294Y24385D01*
X23999Y24090D01*
X23939Y24065D01*
X18438Y24065D01*
X18379Y24090D01*
X18151Y24318D01*
X18150Y24319D01*
X18149Y24320D01*
X18143Y24324D01*
X18138Y24328D01*
X18137Y24329D01*
X18136Y24329D01*
X18130Y24332D01*
X18124Y24335D01*
X18123Y24336D01*
X18122Y24336D01*
X18116Y24338D01*
X18109Y24340D01*
X18108Y24340D01*
X18106Y24340D01*
X18095Y24341D01*
X18043Y24341D01*
X17948Y24381D01*
X17875Y24454D01*
X17835Y24549D01*
X17835Y24653D01*
X17875Y24748D01*
X17949Y24822D01*
X17951Y24824D01*
X17958Y24827D01*
X17958Y24828D01*
X17959Y24828D01*
X17964Y24833D01*
X17970Y24837D01*
X17970Y24838D01*
X17971Y24838D01*
X17975Y24844D01*
X17980Y24849D01*
X17980Y24850D01*
X17981Y24851D01*
X17984Y24857D01*
X17987Y24863D01*
X17987Y24864D01*
X17988Y24865D01*
X17989Y24872D01*
X17991Y24878D01*
X17991Y24879D01*
X17992Y24880D01*
X17992Y24887D01*
X17993Y24894D01*
X17992Y24895D01*
X17993Y24896D01*
X17992Y24903D01*
X17991Y24910D01*
X17990Y24911D01*
X17990Y24912D01*
X17987Y24923D01*
X17960Y24987D01*
X17960Y25090D01*
X18000Y25186D01*
X18073Y25259D01*
X18168Y25298D01*
X18272Y25298D01*
X18367Y25259D01*
X18403Y25222D01*
X18405Y25221D01*
X18406Y25220D01*
X18411Y25216D01*
X18416Y25212D01*
X18417Y25212D01*
X18418Y25211D01*
X18424Y25208D01*
X18430Y25205D01*
X18431Y25205D01*
X18432Y25204D01*
X18439Y25202D01*
X18445Y25201D01*
X18446Y25200D01*
X18448Y25200D01*
X18459Y25199D01*
X18564Y25199D01*
X18624Y25175D01*
X18852Y24946D01*
X18853Y24945D01*
X18854Y24944D01*
X18859Y24940D01*
X18864Y24936D01*
X18865Y24936D01*
X18866Y24935D01*
X18872Y24932D01*
X18878Y24929D01*
X18879Y24929D01*
X18881Y24928D01*
X18887Y24926D01*
X18893Y24925D01*
X18895Y24924D01*
X18896Y24924D01*
X18908Y24923D01*
X18959Y24923D01*
X19010Y24902D01*
X19018Y24900D01*
X19025Y24898D01*
X19026Y24897D01*
X19033Y24897D01*
X19041Y24896D01*
X19049Y24897D01*
X19057Y24898D01*
X19064Y24900D01*
X19072Y24903D01*
X19079Y24906D01*
X19085Y24910D01*
X19086Y24910D01*
X19092Y24915D01*
X19097Y24920D01*
X19098Y24921D01*
X19102Y24927D01*
X19107Y24933D01*
X19111Y24940D01*
X19114Y24947D01*
X19116Y24955D01*
X19118Y24962D01*
X19119Y24963D01*
X19119Y24970D01*
X19120Y24978D01*
X19118Y24986D01*
X19117Y24993D01*
X19117Y24994D01*
X19115Y25001D01*
X19112Y25008D01*
X19112Y25009D01*
X19108Y25015D01*
X19104Y25022D01*
X19096Y25031D01*
X19004Y25123D01*
X18977Y25190D01*
X18977Y27387D01*
X19008Y27462D01*
X19008Y27463D01*
X19010Y27470D01*
X19012Y27477D01*
X19012Y27478D01*
X19013Y27478D01*
X19013Y27485D01*
X19014Y27493D01*
X19014Y27494D01*
X19013Y27501D01*
X19012Y27508D01*
X19012Y27509D01*
X19010Y27516D01*
X19007Y27523D01*
X19007Y27524D01*
X19003Y27531D01*
X19000Y27537D01*
X19000Y27538D01*
X18999Y27538D01*
X18994Y27544D01*
X18990Y27549D01*
X18989Y27550D01*
X18983Y27555D01*
X18977Y27559D01*
X18976Y27560D01*
X18970Y27563D01*
X18963Y27566D01*
X18962Y27567D01*
X18955Y27568D01*
X18948Y27570D01*
X18947Y27570D01*
X18947Y27571D01*
X18940Y27571D01*
X18932Y27571D01*
X18931Y27571D01*
X18924Y27570D01*
X18917Y27569D01*
X18916Y27569D01*
X18904Y27565D01*
X18751Y27502D01*
X18129Y27502D01*
X18126Y27502D01*
X18123Y27502D01*
X18118Y27501D01*
X18113Y27500D01*
X18111Y27500D01*
X18108Y27499D01*
X18103Y27497D01*
X18098Y27496D01*
X18096Y27494D01*
X18093Y27493D01*
X18089Y27491D01*
X18084Y27488D01*
X18082Y27486D01*
X18080Y27485D01*
X18076Y27481D01*
X18072Y27478D01*
X18070Y27476D01*
X18068Y27474D01*
X18066Y27470D01*
X18062Y27466D01*
X18061Y27463D01*
X18059Y27461D01*
X18058Y27456D01*
X18055Y27452D01*
X18054Y27449D01*
X18053Y27446D01*
X18052Y27441D01*
X18051Y27437D01*
X18051Y27434D01*
X18050Y27431D01*
X18050Y27426D01*
X18050Y27421D01*
X18050Y27418D01*
X18050Y27415D01*
X18051Y27410D01*
X18052Y27405D01*
X18053Y27402D01*
X18053Y27399D01*
X18055Y27395D01*
X18057Y27390D01*
X18058Y27388D01*
X18059Y27385D01*
X18062Y27381D01*
X18065Y27377D01*
X18067Y27374D01*
X18068Y27372D01*
X18072Y27368D01*
X18075Y27365D01*
X18077Y27363D01*
X18080Y27361D01*
X18086Y27357D01*
X18088Y27355D01*
X18089Y27354D01*
X18290Y27238D01*
X18482Y27046D01*
X18618Y26811D01*
X18688Y26549D01*
X18688Y26278D01*
X18618Y26016D01*
X18482Y25781D01*
X18290Y25589D01*
X18055Y25453D01*
X17793Y25383D01*
X17522Y25383D01*
X17260Y25453D01*
X17025Y25589D01*
X16833Y25781D01*
X16780Y25872D01*
X16778Y25875D01*
X16777Y25877D01*
X16773Y25881D01*
X16771Y25885D01*
X16768Y25887D01*
X16766Y25889D01*
X16763Y25893D01*
X16759Y25896D01*
X16756Y25897D01*
X16754Y25899D01*
X16750Y25902D01*
X16745Y25904D01*
X16743Y25905D01*
X16740Y25906D01*
X16735Y25908D01*
X16731Y25910D01*
X16728Y25910D01*
X16725Y25911D01*
X16720Y25911D01*
X16715Y25912D01*
X16712Y25912D01*
X16709Y25912D01*
X16704Y25911D01*
X16699Y25911D01*
X16696Y25910D01*
X16693Y25910D01*
X16689Y25908D01*
X16684Y25907D01*
X16681Y25906D01*
X16679Y25905D01*
X16674Y25902D01*
X16670Y25900D01*
X16667Y25899D01*
X16665Y25897D01*
X16661Y25894D01*
X16657Y25891D01*
X16655Y25889D01*
X16653Y25887D01*
X16650Y25883D01*
X16647Y25879D01*
X16645Y25876D01*
X16643Y25874D01*
X16641Y25870D01*
X16639Y25865D01*
X16638Y25863D01*
X16637Y25860D01*
X16635Y25855D01*
X16634Y25850D01*
X16633Y25847D01*
X16633Y25845D01*
X16632Y25837D01*
X16632Y25835D01*
X16632Y25834D01*
X16632Y25833D01*
X16632Y23857D01*
X16632Y23856D01*
X16632Y23854D01*
X16633Y23848D01*
X16633Y23842D01*
X16634Y23840D01*
X16634Y23838D01*
X16638Y23827D01*
X16641Y23820D01*
X16641Y23621D01*
X16613Y23554D01*
X16613Y23553D01*
X16612Y23551D01*
X16610Y23545D01*
X16609Y23539D01*
X16608Y23537D01*
X16608Y23536D01*
X16608Y23530D01*
X16607Y23523D01*
X16607Y23522D01*
X16607Y23520D01*
X16608Y23514D01*
X16609Y23507D01*
X16609Y23506D01*
X16609Y23505D01*
X16613Y23493D01*
X16641Y23426D01*
X16641Y23227D01*
X16613Y23160D01*
X16613Y23159D01*
X16612Y23158D01*
X16610Y23151D01*
X16609Y23145D01*
X16608Y23144D01*
X16608Y23142D01*
X16608Y23136D01*
X16607Y23129D01*
X16607Y23128D01*
X16607Y23126D01*
X16608Y23120D01*
X16609Y23114D01*
X16609Y23112D01*
X16609Y23111D01*
X16613Y23100D01*
X16641Y23032D01*
X16641Y22834D01*
X16613Y22767D01*
X16613Y22765D01*
X16612Y22764D01*
X16610Y22758D01*
X16609Y22751D01*
X16608Y22750D01*
X16608Y22749D01*
X16608Y22742D01*
X16607Y22736D01*
X16607Y22734D01*
X16607Y22733D01*
X16608Y22726D01*
X16609Y22720D01*
X16609Y22719D01*
X16609Y22717D01*
X16613Y22706D01*
X16641Y22639D01*
X16641Y22440D01*
X16613Y22373D01*
X16613Y22371D01*
X16612Y22370D01*
X16610Y22364D01*
X16609Y22358D01*
X16608Y22356D01*
X16608Y22355D01*
X16608Y22348D01*
X16607Y22342D01*
X16607Y22341D01*
X16607Y22339D01*
X16608Y22333D01*
X16609Y22326D01*
X16609Y22325D01*
X16609Y22323D01*
X16613Y22312D01*
X16641Y22245D01*
X16641Y22046D01*
X16599Y21944D01*
X16598Y21942D01*
X16597Y21941D01*
X16596Y21935D01*
X16594Y21929D01*
X16594Y21927D01*
X16593Y21926D01*
X16592Y21914D01*
X16592Y19926D01*
X16593Y19923D01*
X16593Y19920D01*
X16594Y19915D01*
X16594Y19910D01*
X16595Y19907D01*
X16595Y19904D01*
X16597Y19900D01*
X16599Y19895D01*
X16600Y19892D01*
X16601Y19890D01*
X16604Y19886D01*
X16606Y19881D01*
X16608Y19879D01*
X16610Y19876D01*
X16613Y19873D01*
X16616Y19869D01*
X16619Y19867D01*
X16621Y19865D01*
X16625Y19862D01*
X16629Y19859D01*
X16631Y19858D01*
X16634Y19856D01*
X16638Y19854D01*
X16643Y19852D01*
X16646Y19851D01*
X16648Y19850D01*
X16653Y19849D01*
X16658Y19848D01*
X16661Y19848D01*
X16664Y19847D01*
X16669Y19847D01*
X16674Y19847D01*
X16677Y19847D01*
X16680Y19847D01*
X16684Y19848D01*
X16689Y19849D01*
X16692Y19850D01*
X16695Y19850D01*
X16700Y19852D01*
X16704Y19854D01*
X16707Y19855D01*
X16710Y19856D01*
X16714Y19859D01*
X16718Y19861D01*
X16720Y19863D01*
X16723Y19865D01*
X16726Y19869D01*
X16730Y19872D01*
X16732Y19874D01*
X16734Y19876D01*
X16738Y19883D01*
X16739Y19885D01*
X16740Y19885D01*
X16740Y19886D01*
X16833Y20046D01*
X17025Y20238D01*
X17260Y20374D01*
X17522Y20444D01*
X17793Y20444D01*
X18055Y20374D01*
X18290Y20238D01*
X18482Y20046D01*
X18618Y19811D01*
X18688Y19549D01*
X18688Y19278D01*
X18618Y19016D01*
X18482Y18781D01*
X18290Y18589D01*
X18226Y18551D01*
X18223Y18550D01*
X18221Y18548D01*
X18217Y18545D01*
X18213Y18542D01*
X18211Y18540D01*
X18209Y18538D01*
X18206Y18534D01*
X18202Y18531D01*
X18201Y18528D01*
X18199Y18526D01*
X18197Y18521D01*
X18194Y18517D01*
X18193Y18514D01*
X18192Y18512D01*
X18190Y18507D01*
X18189Y18502D01*
X18188Y18499D01*
X18187Y18497D01*
X18187Y18492D01*
X18186Y18487D01*
X18186Y18484D01*
X18186Y18481D01*
X18187Y18476D01*
X18187Y18471D01*
X18188Y18468D01*
X18188Y18465D01*
X18190Y18460D01*
X18191Y18456D01*
X18192Y18453D01*
X18193Y18450D01*
X18196Y18446D01*
X18198Y18441D01*
X18200Y18439D01*
X18201Y18437D01*
X18204Y18433D01*
X18207Y18429D01*
X18210Y18427D01*
X18211Y18425D01*
X18215Y18422D01*
X18219Y18418D01*
X18222Y18417D01*
X18224Y18415D01*
X18229Y18413D01*
X18233Y18411D01*
X18236Y18410D01*
X18238Y18408D01*
X18243Y18407D01*
X18248Y18405D01*
X18251Y18405D01*
X18254Y18404D01*
X18261Y18404D01*
X18263Y18404D01*
X18264Y18404D01*
X18265Y18404D01*
X18642Y18404D01*
X18979Y18294D01*
X19266Y18085D01*
X19475Y17798D01*
X19585Y17461D01*
X19585Y16732D01*
X19585Y16730D01*
X19585Y16726D01*
X19588Y16692D01*
X19588Y16689D01*
X19588Y16685D01*
X19590Y16679D01*
X19590Y16676D01*
X19591Y16675D01*
X19591Y16674D01*
X19612Y16609D01*
X19615Y16603D01*
X19617Y16597D01*
X19618Y16595D01*
X19619Y16594D01*
X19620Y16592D01*
X19624Y16587D01*
X19664Y16532D01*
X19668Y16527D01*
X19672Y16522D01*
X19673Y16521D01*
X19674Y16520D01*
X19676Y16518D01*
X19681Y16514D01*
X19736Y16474D01*
X19742Y16471D01*
X19747Y16467D01*
X19749Y16467D01*
X19750Y16466D01*
X19752Y16465D01*
X19758Y16463D01*
X19823Y16442D01*
X19827Y16441D01*
X19830Y16440D01*
X19836Y16439D01*
X19839Y16438D01*
X19840Y16438D01*
X19842Y16438D01*
X19876Y16435D01*
X19878Y16435D01*
X19882Y16435D01*
X21202Y16435D01*
X21203Y16435D01*
X21205Y16435D01*
X21211Y16436D01*
X21217Y16437D01*
X21219Y16437D01*
X21221Y16437D01*
X21232Y16441D01*
X21239Y16444D01*
X21438Y16444D01*
X21505Y16416D01*
X21507Y16416D01*
X21508Y16415D01*
X21514Y16414D01*
X21520Y16412D01*
X21522Y16412D01*
X21523Y16411D01*
X21530Y16411D01*
X21536Y16410D01*
X21537Y16410D01*
X21539Y16410D01*
X21545Y16411D01*
X21552Y16412D01*
X21553Y16412D01*
X21554Y16412D01*
X21566Y16416D01*
X21633Y16444D01*
X21832Y16444D01*
X21899Y16416D01*
X21900Y16416D01*
X21902Y16415D01*
X21908Y16414D01*
X21914Y16412D01*
X21915Y16412D01*
X21917Y16411D01*
X21923Y16411D01*
X21930Y16410D01*
X21931Y16410D01*
X21933Y16410D01*
X21939Y16411D01*
X21945Y16412D01*
X21947Y16412D01*
X21948Y16412D01*
X21959Y16416D01*
X22027Y16444D01*
X22225Y16444D01*
X22293Y16416D01*
X22294Y16416D01*
X22295Y16415D01*
X22301Y16414D01*
X22308Y16412D01*
X22309Y16412D01*
X22311Y16411D01*
X22317Y16411D01*
X22323Y16410D01*
X22325Y16410D01*
X22326Y16410D01*
X22333Y16411D01*
X22339Y16412D01*
X22340Y16412D01*
X22342Y16412D01*
X22353Y16416D01*
X22420Y16444D01*
X22619Y16444D01*
X22686Y16416D01*
X22688Y16416D01*
X22689Y16415D01*
X22695Y16414D01*
X22701Y16412D01*
X22703Y16412D01*
X22704Y16411D01*
X22711Y16411D01*
X22717Y16410D01*
X22718Y16410D01*
G37*
%LPC*%
G36*
X23007Y11516D02*
X23007Y11516D01*
X22908Y11557D01*
X22903Y11562D01*
X22902Y11563D01*
X22901Y11564D01*
X22896Y11568D01*
X22891Y11572D01*
X22889Y11572D01*
X22888Y11573D01*
X22882Y11576D01*
X22877Y11579D01*
X22875Y11579D01*
X22874Y11580D01*
X22868Y11582D01*
X22862Y11583D01*
X22860Y11584D01*
X22859Y11584D01*
X22847Y11585D01*
X21958Y11585D01*
X21884Y11615D01*
X20835Y12664D01*
X20834Y12665D01*
X20833Y12666D01*
X20828Y12670D01*
X20823Y12674D01*
X20822Y12675D01*
X20821Y12676D01*
X20815Y12679D01*
X20809Y12682D01*
X20808Y12682D01*
X20807Y12683D01*
X20800Y12684D01*
X20794Y12686D01*
X20793Y12686D01*
X20791Y12687D01*
X20785Y12687D01*
X20778Y12688D01*
X20777Y12687D01*
X20776Y12688D01*
X20769Y12687D01*
X20762Y12686D01*
X20761Y12685D01*
X20760Y12685D01*
X20749Y12682D01*
X20720Y12670D01*
X20525Y12670D01*
X20345Y12745D01*
X20207Y12883D01*
X20132Y13063D01*
X20132Y13258D01*
X20207Y13439D01*
X20345Y13577D01*
X20525Y13651D01*
X20720Y13651D01*
X20901Y13577D01*
X21039Y13439D01*
X21050Y13413D01*
X21050Y13412D01*
X21054Y13405D01*
X21057Y13399D01*
X21057Y13398D01*
X21058Y13398D01*
X21062Y13392D01*
X21067Y13387D01*
X21068Y13386D01*
X21074Y13381D01*
X21079Y13377D01*
X21080Y13376D01*
X21087Y13373D01*
X21093Y13369D01*
X21094Y13369D01*
X21102Y13367D01*
X21109Y13365D01*
X21110Y13365D01*
X21117Y13364D01*
X21124Y13364D01*
X21125Y13364D01*
X21133Y13365D01*
X21140Y13366D01*
X21141Y13366D01*
X21148Y13368D01*
X21155Y13371D01*
X21156Y13371D01*
X21162Y13375D01*
X21169Y13378D01*
X21169Y13379D01*
X21175Y13384D01*
X21181Y13389D01*
X21186Y13395D01*
X21190Y13401D01*
X21190Y13402D01*
X21191Y13402D01*
X21196Y13413D01*
X21207Y13439D01*
X21345Y13577D01*
X21525Y13651D01*
X21720Y13651D01*
X21901Y13577D01*
X22039Y13439D01*
X22050Y13413D01*
X22050Y13412D01*
X22054Y13405D01*
X22057Y13399D01*
X22057Y13398D01*
X22058Y13398D01*
X22062Y13392D01*
X22067Y13387D01*
X22068Y13386D01*
X22074Y13381D01*
X22079Y13377D01*
X22080Y13376D01*
X22087Y13373D01*
X22093Y13369D01*
X22094Y13369D01*
X22101Y13367D01*
X22109Y13365D01*
X22110Y13365D01*
X22117Y13364D01*
X22124Y13364D01*
X22125Y13364D01*
X22133Y13365D01*
X22140Y13366D01*
X22141Y13366D01*
X22148Y13368D01*
X22155Y13371D01*
X22156Y13371D01*
X22162Y13375D01*
X22169Y13378D01*
X22169Y13379D01*
X22175Y13384D01*
X22181Y13389D01*
X22186Y13395D01*
X22190Y13401D01*
X22190Y13402D01*
X22191Y13402D01*
X22196Y13413D01*
X22207Y13439D01*
X22345Y13577D01*
X22525Y13651D01*
X22720Y13651D01*
X22901Y13577D01*
X23039Y13439D01*
X23062Y13384D01*
X23064Y13379D01*
X23066Y13374D01*
X23068Y13372D01*
X23069Y13370D01*
X23072Y13366D01*
X23075Y13362D01*
X23077Y13360D01*
X23079Y13358D01*
X23083Y13355D01*
X23087Y13351D01*
X23089Y13350D01*
X23091Y13348D01*
X23096Y13345D01*
X23101Y13343D01*
X23103Y13342D01*
X23105Y13341D01*
X23110Y13339D01*
X23115Y13337D01*
X23118Y13337D01*
X23121Y13336D01*
X23126Y13336D01*
X23131Y13335D01*
X23134Y13335D01*
X23136Y13335D01*
X23141Y13336D01*
X23147Y13336D01*
X23149Y13337D01*
X23152Y13337D01*
X23157Y13338D01*
X23162Y13340D01*
X23164Y13341D01*
X23167Y13342D01*
X23171Y13344D01*
X23176Y13347D01*
X23178Y13348D01*
X23181Y13350D01*
X23185Y13353D01*
X23189Y13356D01*
X23191Y13358D01*
X23193Y13360D01*
X23196Y13364D01*
X23199Y13368D01*
X23201Y13371D01*
X23202Y13372D01*
X23203Y13375D01*
X23205Y13378D01*
X23220Y13407D01*
X23264Y13467D01*
X23316Y13520D01*
X23376Y13563D01*
X23442Y13597D01*
X23513Y13620D01*
X23524Y13622D01*
X23524Y13181D01*
X23524Y13180D01*
X23524Y13179D01*
X23524Y13172D01*
X23525Y13165D01*
X23525Y13164D01*
X23526Y13163D01*
X23526Y13160D01*
X23525Y13154D01*
X23525Y13153D01*
X23524Y13152D01*
X23524Y13141D01*
X23524Y12700D01*
X23513Y12701D01*
X23442Y12724D01*
X23376Y12758D01*
X23316Y12802D01*
X23264Y12854D01*
X23220Y12914D01*
X23205Y12943D01*
X23203Y12947D01*
X23200Y12952D01*
X23198Y12954D01*
X23197Y12956D01*
X23193Y12960D01*
X23190Y12964D01*
X23188Y12966D01*
X23186Y12968D01*
X23182Y12971D01*
X23177Y12974D01*
X23175Y12975D01*
X23173Y12977D01*
X23168Y12979D01*
X23163Y12981D01*
X23161Y12982D01*
X23158Y12983D01*
X23153Y12984D01*
X23148Y12985D01*
X23145Y12985D01*
X23143Y12986D01*
X23138Y12986D01*
X23132Y12986D01*
X23130Y12986D01*
X23127Y12986D01*
X23122Y12985D01*
X23117Y12984D01*
X23114Y12983D01*
X23112Y12983D01*
X23107Y12981D01*
X23102Y12979D01*
X23099Y12978D01*
X23097Y12977D01*
X23093Y12974D01*
X23088Y12971D01*
X23086Y12969D01*
X23084Y12968D01*
X23080Y12964D01*
X23076Y12961D01*
X23075Y12959D01*
X23073Y12957D01*
X23070Y12952D01*
X23067Y12948D01*
X23065Y12945D01*
X23064Y12943D01*
X23063Y12941D01*
X23062Y12937D01*
X23039Y12883D01*
X22901Y12745D01*
X22720Y12670D01*
X22525Y12670D01*
X22345Y12745D01*
X22207Y12883D01*
X22196Y12909D01*
X22192Y12916D01*
X22189Y12922D01*
X22188Y12923D01*
X22183Y12929D01*
X22179Y12935D01*
X22178Y12935D01*
X22172Y12940D01*
X22166Y12945D01*
X22165Y12945D01*
X22159Y12948D01*
X22152Y12952D01*
X22151Y12952D01*
X22144Y12954D01*
X22137Y12956D01*
X22136Y12956D01*
X22129Y12957D01*
X22121Y12957D01*
X22120Y12957D01*
X22113Y12957D01*
X22106Y12956D01*
X22105Y12955D01*
X22098Y12953D01*
X22091Y12951D01*
X22090Y12950D01*
X22083Y12947D01*
X22077Y12943D01*
X22076Y12942D01*
X22071Y12937D01*
X22065Y12933D01*
X22065Y12932D01*
X22064Y12932D01*
X22060Y12926D01*
X22055Y12920D01*
X22055Y12919D01*
X22050Y12909D01*
X22039Y12883D01*
X21901Y12745D01*
X21720Y12670D01*
X21589Y12670D01*
X21588Y12670D01*
X21581Y12669D01*
X21573Y12668D01*
X21572Y12668D01*
X21565Y12666D01*
X21558Y12664D01*
X21558Y12663D01*
X21557Y12663D01*
X21551Y12660D01*
X21544Y12656D01*
X21543Y12656D01*
X21538Y12651D01*
X21532Y12646D01*
X21531Y12645D01*
X21527Y12639D01*
X21522Y12634D01*
X21522Y12633D01*
X21518Y12626D01*
X21515Y12620D01*
X21515Y12619D01*
X21513Y12612D01*
X21511Y12604D01*
X21511Y12603D01*
X21510Y12596D01*
X21510Y12589D01*
X21510Y12588D01*
X21511Y12580D01*
X21512Y12573D01*
X21512Y12572D01*
X21514Y12565D01*
X21517Y12558D01*
X21517Y12557D01*
X21521Y12551D01*
X21524Y12544D01*
X21525Y12544D01*
X21533Y12535D01*
X22058Y12010D01*
X22059Y12009D01*
X22060Y12008D01*
X22065Y12004D01*
X22070Y12000D01*
X22071Y11999D01*
X22072Y11998D01*
X22078Y11995D01*
X22084Y11992D01*
X22085Y11992D01*
X22087Y11991D01*
X22093Y11990D01*
X22099Y11988D01*
X22101Y11988D01*
X22102Y11987D01*
X22114Y11986D01*
X22847Y11986D01*
X22848Y11987D01*
X22850Y11986D01*
X22856Y11987D01*
X22863Y11988D01*
X22864Y11988D01*
X22865Y11989D01*
X22872Y11991D01*
X22878Y11993D01*
X22879Y11993D01*
X22880Y11994D01*
X22886Y11997D01*
X22892Y12000D01*
X22893Y12001D01*
X22894Y12002D01*
X22903Y12010D01*
X22908Y12014D01*
X23007Y12055D01*
X23114Y12055D01*
X23213Y12014D01*
X23289Y11938D01*
X23330Y11839D01*
X23330Y11732D01*
X23289Y11633D01*
X23213Y11557D01*
X23114Y11516D01*
X23007Y11516D01*
G37*
%LPD*%
%LPC*%
G36*
X10231Y11536D02*
X10231Y11536D01*
X10132Y11577D01*
X10127Y11581D01*
X10126Y11582D01*
X10125Y11583D01*
X10120Y11587D01*
X10115Y11591D01*
X10114Y11592D01*
X10113Y11593D01*
X10107Y11596D01*
X10101Y11599D01*
X10100Y11599D01*
X10098Y11600D01*
X10092Y11601D01*
X10086Y11603D01*
X10085Y11603D01*
X10083Y11604D01*
X10071Y11605D01*
X9182Y11605D01*
X9109Y11635D01*
X8060Y12684D01*
X8059Y12685D01*
X8058Y12686D01*
X8052Y12690D01*
X8047Y12694D01*
X8046Y12695D01*
X8045Y12695D01*
X8039Y12698D01*
X8033Y12701D01*
X8032Y12702D01*
X8031Y12702D01*
X8025Y12704D01*
X8018Y12706D01*
X8017Y12706D01*
X8016Y12706D01*
X8009Y12707D01*
X8003Y12707D01*
X8001Y12707D01*
X8000Y12707D01*
X7993Y12706D01*
X7987Y12706D01*
X7986Y12705D01*
X7984Y12705D01*
X7973Y12701D01*
X7945Y12690D01*
X7750Y12690D01*
X7569Y12764D01*
X7431Y12902D01*
X7356Y13083D01*
X7356Y13278D01*
X7431Y13458D01*
X7569Y13596D01*
X7750Y13671D01*
X7945Y13671D01*
X8125Y13596D01*
X8263Y13458D01*
X8274Y13432D01*
X8274Y13431D01*
X8278Y13425D01*
X8281Y13418D01*
X8282Y13418D01*
X8287Y13412D01*
X8292Y13406D01*
X8298Y13401D01*
X8304Y13396D01*
X8305Y13396D01*
X8311Y13393D01*
X8318Y13389D01*
X8319Y13389D01*
X8326Y13387D01*
X8333Y13385D01*
X8334Y13385D01*
X8341Y13384D01*
X8349Y13383D01*
X8349Y13384D01*
X8350Y13383D01*
X8357Y13384D01*
X8364Y13385D01*
X8365Y13385D01*
X8365Y13386D01*
X8372Y13388D01*
X8379Y13390D01*
X8380Y13390D01*
X8380Y13391D01*
X8387Y13394D01*
X8393Y13398D01*
X8394Y13399D01*
X8399Y13404D01*
X8405Y13408D01*
X8405Y13409D01*
X8406Y13409D01*
X8410Y13415D01*
X8415Y13421D01*
X8415Y13422D01*
X8420Y13432D01*
X8431Y13458D01*
X8569Y13596D01*
X8750Y13671D01*
X8945Y13671D01*
X9125Y13596D01*
X9263Y13458D01*
X9274Y13432D01*
X9274Y13431D01*
X9278Y13425D01*
X9281Y13418D01*
X9282Y13418D01*
X9287Y13412D01*
X9292Y13406D01*
X9298Y13401D01*
X9304Y13396D01*
X9305Y13396D01*
X9311Y13393D01*
X9318Y13389D01*
X9319Y13389D01*
X9326Y13387D01*
X9333Y13385D01*
X9334Y13385D01*
X9341Y13384D01*
X9349Y13383D01*
X9349Y13384D01*
X9350Y13383D01*
X9357Y13384D01*
X9364Y13385D01*
X9365Y13385D01*
X9365Y13386D01*
X9372Y13388D01*
X9379Y13390D01*
X9380Y13390D01*
X9380Y13391D01*
X9387Y13394D01*
X9393Y13398D01*
X9394Y13399D01*
X9399Y13404D01*
X9405Y13408D01*
X9405Y13409D01*
X9406Y13409D01*
X9410Y13415D01*
X9415Y13421D01*
X9415Y13422D01*
X9420Y13432D01*
X9431Y13458D01*
X9569Y13596D01*
X9750Y13671D01*
X9945Y13671D01*
X10125Y13596D01*
X10263Y13458D01*
X10286Y13404D01*
X10288Y13399D01*
X10291Y13394D01*
X10292Y13392D01*
X10293Y13390D01*
X10297Y13386D01*
X10300Y13381D01*
X10302Y13380D01*
X10303Y13378D01*
X10308Y13374D01*
X10311Y13371D01*
X10314Y13369D01*
X10316Y13368D01*
X10320Y13365D01*
X10325Y13362D01*
X10327Y13362D01*
X10330Y13360D01*
X10335Y13359D01*
X10340Y13357D01*
X10342Y13357D01*
X10345Y13356D01*
X10350Y13356D01*
X10355Y13355D01*
X10358Y13355D01*
X10361Y13355D01*
X10366Y13355D01*
X10371Y13356D01*
X10374Y13356D01*
X10376Y13357D01*
X10381Y13358D01*
X10386Y13359D01*
X10389Y13361D01*
X10391Y13361D01*
X10396Y13364D01*
X10401Y13366D01*
X10403Y13368D01*
X10405Y13369D01*
X10409Y13373D01*
X10413Y13376D01*
X10415Y13378D01*
X10417Y13380D01*
X10420Y13384D01*
X10424Y13388D01*
X10425Y13391D01*
X10427Y13392D01*
X10428Y13394D01*
X10430Y13398D01*
X10445Y13427D01*
X10488Y13487D01*
X10541Y13539D01*
X10601Y13583D01*
X10667Y13617D01*
X10737Y13639D01*
X10748Y13641D01*
X10748Y13200D01*
X10748Y13199D01*
X10748Y13198D01*
X10749Y13191D01*
X10750Y13185D01*
X10750Y13184D01*
X10750Y13183D01*
X10751Y13180D01*
X10749Y13174D01*
X10749Y13173D01*
X10749Y13172D01*
X10748Y13160D01*
X10748Y12719D01*
X10737Y12721D01*
X10667Y12744D01*
X10601Y12778D01*
X10541Y12821D01*
X10488Y12874D01*
X10445Y12934D01*
X10430Y12963D01*
X10427Y12967D01*
X10424Y12972D01*
X10423Y12974D01*
X10421Y12976D01*
X10418Y12980D01*
X10414Y12984D01*
X10412Y12985D01*
X10410Y12987D01*
X10406Y12990D01*
X10402Y12994D01*
X10399Y12995D01*
X10397Y12996D01*
X10392Y12998D01*
X10388Y13001D01*
X10385Y13001D01*
X10383Y13002D01*
X10378Y13003D01*
X10372Y13005D01*
X10370Y13005D01*
X10367Y13006D01*
X10362Y13006D01*
X10357Y13006D01*
X10354Y13006D01*
X10351Y13006D01*
X10346Y13005D01*
X10341Y13004D01*
X10339Y13003D01*
X10336Y13003D01*
X10331Y13000D01*
X10326Y12999D01*
X10324Y12997D01*
X10321Y12996D01*
X10317Y12993D01*
X10313Y12991D01*
X10311Y12989D01*
X10308Y12988D01*
X10305Y12984D01*
X10301Y12980D01*
X10299Y12978D01*
X10297Y12976D01*
X10294Y12972D01*
X10291Y12968D01*
X10290Y12965D01*
X10289Y12963D01*
X10288Y12961D01*
X10286Y12957D01*
X10263Y12902D01*
X10125Y12764D01*
X9945Y12690D01*
X9750Y12690D01*
X9569Y12764D01*
X9431Y12902D01*
X9420Y12928D01*
X9420Y12929D01*
X9417Y12936D01*
X9413Y12942D01*
X9413Y12943D01*
X9412Y12943D01*
X9408Y12949D01*
X9403Y12954D01*
X9403Y12955D01*
X9402Y12955D01*
X9396Y12960D01*
X9391Y12964D01*
X9390Y12964D01*
X9390Y12965D01*
X9383Y12968D01*
X9377Y12972D01*
X9376Y12972D01*
X9369Y12974D01*
X9362Y12976D01*
X9361Y12976D01*
X9353Y12977D01*
X9346Y12977D01*
X9345Y12977D01*
X9337Y12976D01*
X9330Y12975D01*
X9329Y12975D01*
X9322Y12973D01*
X9315Y12970D01*
X9314Y12970D01*
X9308Y12966D01*
X9301Y12963D01*
X9301Y12962D01*
X9295Y12957D01*
X9290Y12952D01*
X9289Y12952D01*
X9284Y12946D01*
X9280Y12940D01*
X9280Y12939D01*
X9279Y12939D01*
X9274Y12928D01*
X9263Y12902D01*
X9125Y12764D01*
X8945Y12690D01*
X8813Y12690D01*
X8812Y12690D01*
X8805Y12689D01*
X8798Y12688D01*
X8797Y12688D01*
X8790Y12686D01*
X8782Y12683D01*
X8775Y12679D01*
X8769Y12676D01*
X8768Y12675D01*
X8762Y12670D01*
X8756Y12666D01*
X8756Y12665D01*
X8751Y12659D01*
X8747Y12653D01*
X8746Y12653D01*
X8746Y12652D01*
X8743Y12646D01*
X8739Y12639D01*
X8739Y12638D01*
X8737Y12631D01*
X8735Y12624D01*
X8735Y12623D01*
X8735Y12616D01*
X8734Y12608D01*
X8734Y12607D01*
X8735Y12600D01*
X8736Y12593D01*
X8736Y12592D01*
X8739Y12585D01*
X8741Y12578D01*
X8741Y12577D01*
X8745Y12570D01*
X8749Y12564D01*
X8749Y12563D01*
X8757Y12554D01*
X9282Y12029D01*
X9283Y12028D01*
X9284Y12027D01*
X9289Y12023D01*
X9294Y12019D01*
X9296Y12019D01*
X9297Y12018D01*
X9303Y12015D01*
X9308Y12012D01*
X9310Y12011D01*
X9311Y12011D01*
X9317Y12009D01*
X9323Y12007D01*
X9325Y12007D01*
X9326Y12007D01*
X9338Y12006D01*
X10071Y12006D01*
X10073Y12006D01*
X10074Y12006D01*
X10081Y12007D01*
X10087Y12008D01*
X10088Y12008D01*
X10090Y12008D01*
X10096Y12010D01*
X10102Y12012D01*
X10103Y12013D01*
X10105Y12013D01*
X10110Y12017D01*
X10116Y12020D01*
X10117Y12021D01*
X10118Y12022D01*
X10127Y12029D01*
X10132Y12034D01*
X10231Y12075D01*
X10338Y12075D01*
X10437Y12034D01*
X10513Y11958D01*
X10554Y11859D01*
X10554Y11752D01*
X10513Y11653D01*
X10437Y11577D01*
X10338Y11536D01*
X10231Y11536D01*
G37*
%LPD*%
%LPC*%
G36*
X8873Y28779D02*
X8873Y28779D01*
X8778Y28818D01*
X8741Y28854D01*
X8740Y28855D01*
X8739Y28856D01*
X8734Y28860D01*
X8729Y28864D01*
X8728Y28865D01*
X8727Y28866D01*
X8721Y28869D01*
X8715Y28872D01*
X8714Y28872D01*
X8712Y28873D01*
X8706Y28874D01*
X8700Y28876D01*
X8698Y28876D01*
X8697Y28877D01*
X8685Y28878D01*
X8580Y28878D01*
X8521Y28902D01*
X8351Y29072D01*
X8326Y29131D01*
X8326Y29820D01*
X8351Y29879D01*
X8521Y30050D01*
X8535Y30055D01*
X8536Y30056D01*
X8537Y30056D01*
X8543Y30060D01*
X8549Y30063D01*
X8550Y30064D01*
X8551Y30064D01*
X8556Y30069D01*
X8561Y30073D01*
X8562Y30074D01*
X8563Y30075D01*
X8567Y30080D01*
X8571Y30085D01*
X8572Y30086D01*
X8572Y30087D01*
X8575Y30093D01*
X8578Y30099D01*
X8579Y30100D01*
X8579Y30102D01*
X8581Y30108D01*
X8583Y30114D01*
X8583Y30116D01*
X8583Y30117D01*
X8584Y30129D01*
X8584Y30201D01*
X8584Y30202D01*
X8583Y30210D01*
X8582Y30217D01*
X8582Y30218D01*
X8580Y30225D01*
X8578Y30232D01*
X8578Y30233D01*
X8577Y30233D01*
X8574Y30240D01*
X8570Y30246D01*
X8570Y30247D01*
X8565Y30252D01*
X8560Y30258D01*
X8559Y30259D01*
X8554Y30263D01*
X8548Y30268D01*
X8547Y30268D01*
X8547Y30269D01*
X8540Y30272D01*
X8534Y30275D01*
X8533Y30275D01*
X8533Y30276D01*
X8526Y30277D01*
X8519Y30279D01*
X8518Y30279D01*
X8518Y30280D01*
X8510Y30280D01*
X8503Y30281D01*
X8502Y30281D01*
X8494Y30280D01*
X8487Y30279D01*
X8486Y30278D01*
X8479Y30276D01*
X8472Y30274D01*
X8472Y30273D01*
X8471Y30273D01*
X8465Y30269D01*
X8458Y30266D01*
X8458Y30265D01*
X8449Y30257D01*
X8447Y30256D01*
X8351Y30216D01*
X8248Y30216D01*
X8153Y30256D01*
X8137Y30271D01*
X8136Y30272D01*
X8136Y30273D01*
X8130Y30277D01*
X8125Y30281D01*
X8124Y30282D01*
X8123Y30282D01*
X8117Y30285D01*
X8111Y30289D01*
X8110Y30289D01*
X8109Y30289D01*
X8102Y30291D01*
X8096Y30293D01*
X8095Y30293D01*
X8094Y30293D01*
X8087Y30294D01*
X8080Y30294D01*
X8079Y30294D01*
X8078Y30294D01*
X8071Y30293D01*
X8064Y30293D01*
X8063Y30292D01*
X8062Y30292D01*
X8056Y30290D01*
X8049Y30288D01*
X8048Y30287D01*
X8047Y30287D01*
X8042Y30283D01*
X8036Y30280D01*
X8035Y30279D01*
X8034Y30279D01*
X8025Y30271D01*
X8009Y30256D01*
X7914Y30216D01*
X7811Y30216D01*
X7715Y30256D01*
X7642Y30329D01*
X7602Y30424D01*
X7602Y30528D01*
X7642Y30623D01*
X7715Y30696D01*
X7811Y30736D01*
X7862Y30736D01*
X7863Y30736D01*
X7865Y30736D01*
X7871Y30737D01*
X7878Y30737D01*
X7879Y30738D01*
X7880Y30738D01*
X7886Y30740D01*
X7893Y30742D01*
X7894Y30743D01*
X7895Y30743D01*
X7901Y30746D01*
X7906Y30749D01*
X7908Y30750D01*
X7909Y30751D01*
X7918Y30759D01*
X8090Y30931D01*
X8146Y30987D01*
X8205Y31012D01*
X8394Y31012D01*
X8455Y30986D01*
X8461Y30982D01*
X8462Y30981D01*
X8468Y30978D01*
X8475Y30974D01*
X8476Y30974D01*
X8483Y30972D01*
X8490Y30970D01*
X8491Y30970D01*
X8498Y30969D01*
X8506Y30969D01*
X8507Y30969D01*
X8514Y30969D01*
X8521Y30970D01*
X8522Y30970D01*
X8522Y30971D01*
X8529Y30973D01*
X8536Y30975D01*
X8537Y30975D01*
X8537Y30976D01*
X8544Y30979D01*
X8550Y30983D01*
X8551Y30983D01*
X8557Y30988D01*
X8562Y30993D01*
X8562Y30994D01*
X8563Y30994D01*
X8567Y31000D01*
X8572Y31006D01*
X8576Y31013D01*
X8579Y31020D01*
X8579Y31021D01*
X8581Y31028D01*
X8583Y31035D01*
X8583Y31036D01*
X8584Y31048D01*
X8584Y31140D01*
X8584Y31144D01*
X8584Y31248D01*
X8793Y31248D01*
X9002Y31248D01*
X9002Y31164D01*
X9002Y31162D01*
X9002Y31161D01*
X9003Y31155D01*
X9004Y31148D01*
X9004Y31147D01*
X9005Y31145D01*
X9007Y31139D01*
X9009Y31133D01*
X9009Y31132D01*
X9010Y31130D01*
X9013Y31125D01*
X9016Y31119D01*
X9017Y31118D01*
X9018Y31117D01*
X9022Y31112D01*
X9022Y30448D01*
X9021Y30446D01*
X9016Y30442D01*
X9016Y30441D01*
X9015Y30441D01*
X9015Y30440D01*
X9011Y30435D01*
X9006Y30430D01*
X9006Y30429D01*
X9005Y30428D01*
X9002Y30422D01*
X8999Y30416D01*
X8999Y30415D01*
X8998Y30415D01*
X8998Y30414D01*
X8996Y30407D01*
X8994Y30401D01*
X8994Y30400D01*
X8994Y30399D01*
X8994Y30392D01*
X8993Y30385D01*
X8993Y30384D01*
X8993Y30383D01*
X8994Y30376D01*
X8995Y30369D01*
X8995Y30368D01*
X8995Y30367D01*
X8997Y30361D01*
X9000Y30354D01*
X9000Y30353D01*
X9000Y30352D01*
X9004Y30346D01*
X9007Y30340D01*
X9008Y30340D01*
X9008Y30339D01*
X9016Y30330D01*
X9017Y30329D01*
X9018Y30328D01*
X9021Y30326D01*
X9022Y30324D01*
X9022Y29818D01*
X9020Y29814D01*
X9016Y29809D01*
X9015Y29808D01*
X9014Y29807D01*
X9011Y29801D01*
X9008Y29795D01*
X9008Y29794D01*
X9007Y29792D01*
X9006Y29786D01*
X9004Y29780D01*
X9004Y29779D01*
X9003Y29777D01*
X9002Y29765D01*
X9002Y29682D01*
X8793Y29682D01*
X8792Y29682D01*
X8791Y29682D01*
X8785Y29681D01*
X8778Y29680D01*
X8777Y29680D01*
X8776Y29680D01*
X8769Y29677D01*
X8763Y29675D01*
X8762Y29675D01*
X8761Y29675D01*
X8755Y29671D01*
X8749Y29668D01*
X8748Y29667D01*
X8747Y29667D01*
X8742Y29662D01*
X8737Y29658D01*
X8736Y29657D01*
X8735Y29656D01*
X8731Y29651D01*
X8727Y29645D01*
X8726Y29644D01*
X8723Y29637D01*
X8720Y29631D01*
X8719Y29630D01*
X8717Y29623D01*
X8715Y29616D01*
X8715Y29615D01*
X8715Y29614D01*
X8714Y29602D01*
X8714Y29601D01*
X8714Y29600D01*
X8715Y29594D01*
X8716Y29587D01*
X8716Y29586D01*
X8716Y29585D01*
X8718Y29578D01*
X8720Y29572D01*
X8721Y29571D01*
X8721Y29570D01*
X8725Y29564D01*
X8728Y29558D01*
X8728Y29557D01*
X8729Y29556D01*
X8734Y29551D01*
X8738Y29546D01*
X8739Y29545D01*
X8739Y29544D01*
X8745Y29540D01*
X8750Y29536D01*
X8751Y29535D01*
X8752Y29535D01*
X8758Y29532D01*
X8764Y29529D01*
X8765Y29528D01*
X8766Y29528D01*
X8773Y29526D01*
X8780Y29524D01*
X8781Y29524D01*
X8793Y29523D01*
X9002Y29523D01*
X9002Y29392D01*
X8995Y29365D01*
X8994Y29361D01*
X8993Y29358D01*
X8993Y29354D01*
X8992Y29349D01*
X8993Y29346D01*
X8992Y29342D01*
X8993Y29338D01*
X8993Y29334D01*
X8994Y29330D01*
X8994Y29326D01*
X8996Y29322D01*
X8997Y29318D01*
X8998Y29315D01*
X9000Y29312D01*
X9002Y29308D01*
X9003Y29304D01*
X9006Y29301D01*
X9008Y29298D01*
X9010Y29295D01*
X9013Y29291D01*
X9016Y29289D01*
X9018Y29286D01*
X9021Y29284D01*
X9025Y29281D01*
X9028Y29279D01*
X9031Y29277D01*
X9036Y29274D01*
X9038Y29273D01*
X9039Y29272D01*
X9041Y29271D01*
X9072Y29259D01*
X9145Y29186D01*
X9185Y29090D01*
X9185Y28987D01*
X9145Y28891D01*
X9072Y28818D01*
X8976Y28779D01*
X8873Y28779D01*
G37*
%LPD*%
%LPC*%
G36*
X21668Y28779D02*
X21668Y28779D01*
X21573Y28818D01*
X21537Y28854D01*
X21535Y28855D01*
X21534Y28856D01*
X21529Y28860D01*
X21524Y28864D01*
X21523Y28865D01*
X21522Y28866D01*
X21516Y28869D01*
X21510Y28872D01*
X21509Y28872D01*
X21508Y28873D01*
X21501Y28874D01*
X21495Y28876D01*
X21494Y28876D01*
X21492Y28877D01*
X21480Y28878D01*
X21376Y28878D01*
X21316Y28902D01*
X21146Y29072D01*
X21122Y29131D01*
X21122Y29820D01*
X21146Y29879D01*
X21316Y30050D01*
X21330Y30055D01*
X21331Y30056D01*
X21333Y30056D01*
X21338Y30060D01*
X21344Y30063D01*
X21345Y30064D01*
X21346Y30064D01*
X21351Y30069D01*
X21356Y30073D01*
X21357Y30074D01*
X21358Y30075D01*
X21362Y30080D01*
X21366Y30085D01*
X21367Y30086D01*
X21368Y30087D01*
X21371Y30093D01*
X21374Y30099D01*
X21374Y30100D01*
X21374Y30102D01*
X21376Y30108D01*
X21378Y30114D01*
X21378Y30116D01*
X21378Y30117D01*
X21379Y30129D01*
X21379Y30201D01*
X21379Y30202D01*
X21378Y30210D01*
X21378Y30217D01*
X21378Y30218D01*
X21377Y30218D01*
X21375Y30225D01*
X21373Y30232D01*
X21373Y30233D01*
X21369Y30240D01*
X21365Y30246D01*
X21365Y30247D01*
X21360Y30252D01*
X21355Y30258D01*
X21355Y30259D01*
X21349Y30263D01*
X21343Y30268D01*
X21342Y30269D01*
X21336Y30272D01*
X21329Y30275D01*
X21328Y30275D01*
X21328Y30276D01*
X21321Y30277D01*
X21314Y30279D01*
X21313Y30279D01*
X21313Y30280D01*
X21305Y30280D01*
X21298Y30281D01*
X21297Y30281D01*
X21290Y30280D01*
X21282Y30279D01*
X21281Y30278D01*
X21274Y30276D01*
X21267Y30274D01*
X21267Y30273D01*
X21260Y30269D01*
X21254Y30266D01*
X21253Y30265D01*
X21244Y30257D01*
X21242Y30256D01*
X21147Y30216D01*
X21043Y30216D01*
X20948Y30256D01*
X20932Y30271D01*
X20932Y30272D01*
X20931Y30273D01*
X20925Y30277D01*
X20920Y30281D01*
X20919Y30282D01*
X20918Y30282D01*
X20912Y30285D01*
X20906Y30289D01*
X20905Y30289D01*
X20904Y30289D01*
X20898Y30291D01*
X20891Y30293D01*
X20890Y30293D01*
X20889Y30293D01*
X20882Y30294D01*
X20875Y30294D01*
X20874Y30294D01*
X20873Y30294D01*
X20866Y30293D01*
X20860Y30293D01*
X20859Y30292D01*
X20858Y30292D01*
X20851Y30290D01*
X20845Y30288D01*
X20844Y30287D01*
X20843Y30287D01*
X20837Y30283D01*
X20831Y30280D01*
X20830Y30279D01*
X20829Y30279D01*
X20820Y30271D01*
X20805Y30256D01*
X20709Y30216D01*
X20606Y30216D01*
X20510Y30256D01*
X20437Y30329D01*
X20398Y30424D01*
X20398Y30528D01*
X20437Y30623D01*
X20510Y30696D01*
X20606Y30736D01*
X20657Y30736D01*
X20659Y30736D01*
X20660Y30736D01*
X20666Y30737D01*
X20673Y30737D01*
X20674Y30738D01*
X20676Y30738D01*
X20682Y30740D01*
X20688Y30742D01*
X20689Y30743D01*
X20691Y30743D01*
X20696Y30746D01*
X20702Y30749D01*
X20703Y30750D01*
X20704Y30751D01*
X20713Y30759D01*
X20941Y30987D01*
X21001Y31012D01*
X21189Y31012D01*
X21251Y30986D01*
X21256Y30982D01*
X21257Y30982D01*
X21257Y30981D01*
X21264Y30978D01*
X21270Y30974D01*
X21271Y30974D01*
X21278Y30972D01*
X21285Y30970D01*
X21286Y30970D01*
X21294Y30969D01*
X21301Y30969D01*
X21302Y30969D01*
X21309Y30969D01*
X21317Y30970D01*
X21318Y30971D01*
X21325Y30973D01*
X21332Y30975D01*
X21333Y30976D01*
X21339Y30979D01*
X21345Y30983D01*
X21346Y30983D01*
X21352Y30988D01*
X21357Y30993D01*
X21358Y30994D01*
X21363Y31000D01*
X21367Y31006D01*
X21368Y31006D01*
X21371Y31013D01*
X21374Y31020D01*
X21374Y31021D01*
X21376Y31028D01*
X21378Y31035D01*
X21378Y31036D01*
X21379Y31048D01*
X21379Y31140D01*
X21380Y31144D01*
X21380Y31248D01*
X21589Y31248D01*
X21798Y31248D01*
X21798Y31164D01*
X21798Y31162D01*
X21798Y31161D01*
X21799Y31155D01*
X21799Y31148D01*
X21800Y31147D01*
X21800Y31145D01*
X21802Y31139D01*
X21804Y31133D01*
X21805Y31132D01*
X21805Y31130D01*
X21808Y31125D01*
X21811Y31119D01*
X21812Y31118D01*
X21813Y31117D01*
X21818Y31112D01*
X21818Y30448D01*
X21817Y30446D01*
X21814Y30444D01*
X21812Y30442D01*
X21811Y30441D01*
X21810Y30441D01*
X21810Y30440D01*
X21809Y30439D01*
X21806Y30435D01*
X21803Y30432D01*
X21801Y30429D01*
X21801Y30428D01*
X21800Y30428D01*
X21799Y30425D01*
X21797Y30422D01*
X21796Y30418D01*
X21794Y30415D01*
X21794Y30414D01*
X21793Y30414D01*
X21792Y30411D01*
X21791Y30407D01*
X21791Y30403D01*
X21789Y30400D01*
X21789Y30399D01*
X21789Y30395D01*
X21788Y30392D01*
X21789Y30388D01*
X21788Y30384D01*
X21788Y30383D01*
X21789Y30380D01*
X21789Y30376D01*
X21790Y30372D01*
X21790Y30368D01*
X21790Y30367D01*
X21792Y30364D01*
X21792Y30361D01*
X21794Y30357D01*
X21795Y30353D01*
X21796Y30352D01*
X21797Y30349D01*
X21799Y30346D01*
X21801Y30343D01*
X21803Y30340D01*
X21803Y30339D01*
X21804Y30339D01*
X21807Y30335D01*
X21808Y30333D01*
X21809Y30332D01*
X21811Y30330D01*
X21813Y30329D01*
X21814Y30328D01*
X21816Y30326D01*
X21818Y30324D01*
X21818Y29818D01*
X21815Y29814D01*
X21811Y29809D01*
X21810Y29808D01*
X21809Y29807D01*
X21806Y29801D01*
X21803Y29795D01*
X21803Y29794D01*
X21802Y29792D01*
X21801Y29786D01*
X21799Y29780D01*
X21799Y29779D01*
X21798Y29777D01*
X21798Y29765D01*
X21798Y29682D01*
X21589Y29682D01*
X21588Y29682D01*
X21587Y29682D01*
X21580Y29681D01*
X21573Y29680D01*
X21572Y29680D01*
X21571Y29680D01*
X21564Y29677D01*
X21558Y29675D01*
X21557Y29675D01*
X21556Y29675D01*
X21550Y29671D01*
X21544Y29668D01*
X21543Y29667D01*
X21542Y29667D01*
X21537Y29662D01*
X21532Y29658D01*
X21531Y29657D01*
X21531Y29656D01*
X21526Y29651D01*
X21522Y29645D01*
X21522Y29644D01*
X21521Y29644D01*
X21518Y29637D01*
X21515Y29631D01*
X21515Y29630D01*
X21514Y29630D01*
X21512Y29623D01*
X21511Y29616D01*
X21510Y29615D01*
X21510Y29614D01*
X21509Y29602D01*
X21509Y29601D01*
X21509Y29600D01*
X21510Y29594D01*
X21511Y29587D01*
X21511Y29586D01*
X21511Y29585D01*
X21514Y29578D01*
X21516Y29572D01*
X21516Y29571D01*
X21516Y29570D01*
X21520Y29564D01*
X21523Y29558D01*
X21524Y29557D01*
X21524Y29556D01*
X21529Y29551D01*
X21533Y29546D01*
X21534Y29545D01*
X21535Y29544D01*
X21540Y29540D01*
X21546Y29536D01*
X21546Y29535D01*
X21547Y29535D01*
X21553Y29532D01*
X21560Y29529D01*
X21561Y29528D01*
X21568Y29526D01*
X21575Y29524D01*
X21576Y29524D01*
X21577Y29524D01*
X21589Y29523D01*
X21798Y29523D01*
X21798Y29392D01*
X21790Y29365D01*
X21790Y29361D01*
X21789Y29358D01*
X21788Y29354D01*
X21788Y29349D01*
X21788Y29346D01*
X21788Y29342D01*
X21788Y29338D01*
X21788Y29334D01*
X21789Y29330D01*
X21790Y29326D01*
X21791Y29322D01*
X21792Y29318D01*
X21794Y29315D01*
X21795Y29312D01*
X21797Y29308D01*
X21799Y29304D01*
X21801Y29301D01*
X21803Y29298D01*
X21806Y29295D01*
X21808Y29291D01*
X21811Y29289D01*
X21813Y29286D01*
X21817Y29284D01*
X21820Y29281D01*
X21823Y29279D01*
X21826Y29277D01*
X21831Y29274D01*
X21833Y29273D01*
X21835Y29272D01*
X21837Y29271D01*
X21867Y29259D01*
X21940Y29186D01*
X21980Y29090D01*
X21980Y28987D01*
X21940Y28891D01*
X21867Y28818D01*
X21772Y28779D01*
X21668Y28779D01*
G37*
%LPD*%
%LPC*%
G36*
X8294Y7036D02*
X8294Y7036D01*
X8195Y7077D01*
X8119Y7153D01*
X8078Y7252D01*
X8078Y7359D01*
X8119Y7458D01*
X8195Y7534D01*
X8294Y7575D01*
X8401Y7575D01*
X8500Y7534D01*
X8505Y7529D01*
X8506Y7528D01*
X8507Y7527D01*
X8512Y7523D01*
X8517Y7519D01*
X8518Y7519D01*
X8519Y7518D01*
X8525Y7515D01*
X8531Y7512D01*
X8532Y7511D01*
X8534Y7511D01*
X8540Y7509D01*
X8546Y7507D01*
X8547Y7507D01*
X8549Y7507D01*
X8561Y7506D01*
X11284Y7506D01*
X11285Y7506D01*
X11286Y7506D01*
X11293Y7507D01*
X11300Y7508D01*
X11301Y7508D01*
X11302Y7508D01*
X11308Y7510D01*
X11315Y7512D01*
X11316Y7513D01*
X11317Y7513D01*
X11323Y7517D01*
X11328Y7520D01*
X11329Y7521D01*
X11330Y7521D01*
X11335Y7526D01*
X11341Y7530D01*
X11341Y7531D01*
X11342Y7532D01*
X11346Y7537D01*
X11350Y7542D01*
X11351Y7543D01*
X11352Y7544D01*
X11357Y7555D01*
X11369Y7583D01*
X11445Y7659D01*
X11544Y7700D01*
X11651Y7700D01*
X11750Y7659D01*
X11826Y7583D01*
X11867Y7484D01*
X11867Y7377D01*
X11826Y7278D01*
X11750Y7202D01*
X11651Y7161D01*
X11644Y7161D01*
X11643Y7161D01*
X11641Y7161D01*
X11635Y7160D01*
X11629Y7159D01*
X11627Y7159D01*
X11626Y7158D01*
X11620Y7156D01*
X11614Y7154D01*
X11612Y7154D01*
X11611Y7153D01*
X11605Y7150D01*
X11600Y7147D01*
X11599Y7146D01*
X11597Y7145D01*
X11588Y7137D01*
X11586Y7135D01*
X11512Y7105D01*
X8561Y7105D01*
X8559Y7104D01*
X8558Y7105D01*
X8551Y7104D01*
X8545Y7103D01*
X8544Y7103D01*
X8542Y7102D01*
X8536Y7100D01*
X8530Y7098D01*
X8529Y7098D01*
X8527Y7097D01*
X8522Y7094D01*
X8516Y7091D01*
X8515Y7090D01*
X8514Y7089D01*
X8505Y7081D01*
X8500Y7077D01*
X8401Y7036D01*
X8294Y7036D01*
G37*
%LPD*%
%LPC*%
G36*
X21069Y7016D02*
X21069Y7016D01*
X20970Y7057D01*
X20894Y7133D01*
X20853Y7232D01*
X20853Y7339D01*
X20894Y7438D01*
X20970Y7514D01*
X21069Y7555D01*
X21176Y7555D01*
X21276Y7514D01*
X21280Y7510D01*
X21281Y7509D01*
X21282Y7508D01*
X21287Y7504D01*
X21292Y7500D01*
X21294Y7499D01*
X21295Y7498D01*
X21301Y7495D01*
X21306Y7492D01*
X21308Y7492D01*
X21309Y7491D01*
X21315Y7490D01*
X21322Y7488D01*
X21323Y7488D01*
X21324Y7487D01*
X21336Y7486D01*
X24059Y7486D01*
X24061Y7487D01*
X24062Y7486D01*
X24068Y7487D01*
X24075Y7488D01*
X24076Y7488D01*
X24077Y7488D01*
X24084Y7491D01*
X24090Y7493D01*
X24091Y7493D01*
X24092Y7494D01*
X24098Y7497D01*
X24104Y7500D01*
X24105Y7501D01*
X24106Y7502D01*
X24111Y7506D01*
X24116Y7510D01*
X24117Y7511D01*
X24118Y7512D01*
X24122Y7517D01*
X24126Y7523D01*
X24127Y7524D01*
X24127Y7525D01*
X24133Y7535D01*
X24144Y7563D01*
X24220Y7639D01*
X24319Y7680D01*
X24426Y7680D01*
X24526Y7639D01*
X24601Y7563D01*
X24642Y7464D01*
X24642Y7357D01*
X24601Y7258D01*
X24526Y7182D01*
X24426Y7141D01*
X24420Y7141D01*
X24418Y7141D01*
X24417Y7141D01*
X24411Y7140D01*
X24404Y7139D01*
X24403Y7139D01*
X24401Y7139D01*
X24395Y7137D01*
X24389Y7135D01*
X24388Y7134D01*
X24386Y7134D01*
X24381Y7130D01*
X24375Y7127D01*
X24374Y7126D01*
X24373Y7126D01*
X24364Y7118D01*
X24362Y7115D01*
X24288Y7085D01*
X21336Y7085D01*
X21335Y7085D01*
X21333Y7085D01*
X21327Y7084D01*
X21321Y7083D01*
X21319Y7083D01*
X21318Y7083D01*
X21312Y7081D01*
X21305Y7079D01*
X21304Y7078D01*
X21303Y7077D01*
X21297Y7074D01*
X21292Y7071D01*
X21290Y7070D01*
X21289Y7069D01*
X21280Y7062D01*
X21276Y7057D01*
X21176Y7016D01*
X21069Y7016D01*
G37*
%LPD*%
%LPC*%
G36*
X8311Y19779D02*
X8311Y19779D01*
X8215Y19818D01*
X8142Y19891D01*
X8102Y19987D01*
X8102Y20090D01*
X8142Y20186D01*
X8215Y20259D01*
X8311Y20298D01*
X8414Y20298D01*
X8511Y20258D01*
X8513Y20256D01*
X8518Y20252D01*
X8519Y20252D01*
X8520Y20251D01*
X8526Y20248D01*
X8532Y20245D01*
X8533Y20245D01*
X8535Y20244D01*
X8541Y20242D01*
X8547Y20241D01*
X8548Y20240D01*
X8550Y20240D01*
X8562Y20239D01*
X11309Y20239D01*
X11311Y20239D01*
X11312Y20239D01*
X11318Y20240D01*
X11325Y20241D01*
X11326Y20241D01*
X11328Y20241D01*
X11334Y20243D01*
X11340Y20245D01*
X11341Y20246D01*
X11342Y20246D01*
X11348Y20250D01*
X11354Y20253D01*
X11355Y20254D01*
X11356Y20254D01*
X11361Y20259D01*
X11366Y20263D01*
X11367Y20264D01*
X11368Y20265D01*
X11372Y20270D01*
X11376Y20275D01*
X11377Y20276D01*
X11377Y20277D01*
X11383Y20288D01*
X11392Y20311D01*
X11465Y20384D01*
X11561Y20423D01*
X11664Y20423D01*
X11759Y20384D01*
X11832Y20311D01*
X11872Y20215D01*
X11872Y20112D01*
X11832Y20016D01*
X11759Y19943D01*
X11663Y19903D01*
X11660Y19903D01*
X11653Y19902D01*
X11652Y19902D01*
X11651Y19901D01*
X11645Y19899D01*
X11638Y19897D01*
X11637Y19897D01*
X11636Y19896D01*
X11630Y19893D01*
X11624Y19890D01*
X11623Y19889D01*
X11622Y19888D01*
X11613Y19880D01*
X11601Y19868D01*
X11527Y19838D01*
X8562Y19838D01*
X8560Y19837D01*
X8559Y19838D01*
X8552Y19837D01*
X8546Y19836D01*
X8545Y19836D01*
X8543Y19835D01*
X8537Y19833D01*
X8531Y19831D01*
X8530Y19831D01*
X8528Y19830D01*
X8523Y19827D01*
X8517Y19824D01*
X8516Y19823D01*
X8515Y19822D01*
X8511Y19819D01*
X8414Y19779D01*
X8311Y19779D01*
G37*
%LPD*%
%LPC*%
G36*
X21106Y19779D02*
X21106Y19779D01*
X21010Y19818D01*
X20937Y19891D01*
X20898Y19987D01*
X20898Y20090D01*
X20937Y20186D01*
X21010Y20259D01*
X21106Y20298D01*
X21209Y20298D01*
X21306Y20258D01*
X21308Y20256D01*
X21313Y20252D01*
X21314Y20252D01*
X21316Y20251D01*
X21321Y20248D01*
X21327Y20245D01*
X21329Y20245D01*
X21330Y20244D01*
X21336Y20242D01*
X21342Y20241D01*
X21344Y20240D01*
X21345Y20240D01*
X21357Y20239D01*
X24105Y20239D01*
X24106Y20239D01*
X24107Y20239D01*
X24114Y20240D01*
X24120Y20241D01*
X24122Y20241D01*
X24123Y20241D01*
X24129Y20243D01*
X24135Y20245D01*
X24137Y20246D01*
X24138Y20246D01*
X24143Y20250D01*
X24149Y20253D01*
X24150Y20254D01*
X24151Y20254D01*
X24156Y20259D01*
X24161Y20263D01*
X24162Y20264D01*
X24163Y20265D01*
X24167Y20270D01*
X24171Y20275D01*
X24172Y20276D01*
X24173Y20277D01*
X24178Y20288D01*
X24187Y20311D01*
X24260Y20384D01*
X24356Y20423D01*
X24459Y20423D01*
X24555Y20384D01*
X24628Y20311D01*
X24667Y20215D01*
X24667Y20112D01*
X24628Y20016D01*
X24555Y19943D01*
X24458Y19903D01*
X24455Y19903D01*
X24449Y19902D01*
X24447Y19902D01*
X24446Y19901D01*
X24440Y19899D01*
X24434Y19897D01*
X24432Y19897D01*
X24431Y19896D01*
X24425Y19893D01*
X24420Y19890D01*
X24419Y19889D01*
X24417Y19888D01*
X24408Y19880D01*
X24396Y19868D01*
X24322Y19838D01*
X21357Y19838D01*
X21356Y19837D01*
X21354Y19838D01*
X21348Y19837D01*
X21341Y19836D01*
X21340Y19836D01*
X21338Y19835D01*
X21332Y19833D01*
X21326Y19831D01*
X21325Y19831D01*
X21324Y19830D01*
X21318Y19827D01*
X21312Y19824D01*
X21311Y19823D01*
X21310Y19822D01*
X21306Y19819D01*
X21209Y19779D01*
X21106Y19779D01*
G37*
%LPD*%
%LPC*%
G36*
X22909Y17585D02*
X22909Y17585D01*
X22696Y17673D01*
X22534Y17836D01*
X22446Y18048D01*
X22446Y18278D01*
X22534Y18491D01*
X22696Y18653D01*
X22909Y18741D01*
X23139Y18741D01*
X23351Y18653D01*
X23514Y18491D01*
X23602Y18278D01*
X23602Y18048D01*
X23514Y17836D01*
X23351Y17673D01*
X23139Y17585D01*
X22909Y17585D01*
G37*
%LPD*%
%LPC*%
G36*
X21176Y17585D02*
X21176Y17585D01*
X20964Y17673D01*
X20801Y17836D01*
X20713Y18048D01*
X20713Y18278D01*
X20801Y18491D01*
X20964Y18653D01*
X21176Y18741D01*
X21406Y18741D01*
X21619Y18653D01*
X21781Y18491D01*
X21869Y18278D01*
X21869Y18048D01*
X21781Y17836D01*
X21619Y17673D01*
X21406Y17585D01*
X21176Y17585D01*
G37*
%LPD*%
%LPC*%
G36*
X10113Y17585D02*
X10113Y17585D01*
X9901Y17673D01*
X9738Y17836D01*
X9650Y18048D01*
X9650Y18278D01*
X9738Y18491D01*
X9901Y18653D01*
X10113Y18741D01*
X10343Y18741D01*
X10556Y18653D01*
X10718Y18491D01*
X10806Y18278D01*
X10806Y18048D01*
X10718Y17836D01*
X10556Y17673D01*
X10343Y17585D01*
X10113Y17585D01*
G37*
%LPD*%
%LPC*%
G36*
X21142Y4833D02*
X21142Y4833D01*
X20929Y4921D01*
X20767Y5083D01*
X20679Y5296D01*
X20679Y5526D01*
X20767Y5738D01*
X20929Y5901D01*
X21142Y5989D01*
X21372Y5989D01*
X21584Y5901D01*
X21747Y5738D01*
X21835Y5526D01*
X21835Y5296D01*
X21747Y5083D01*
X21584Y4921D01*
X21372Y4833D01*
X21142Y4833D01*
G37*
%LPD*%
%LPC*%
G36*
X10098Y4852D02*
X10098Y4852D01*
X9886Y4940D01*
X9723Y5103D01*
X9635Y5315D01*
X9635Y5545D01*
X9723Y5758D01*
X9886Y5920D01*
X10098Y6008D01*
X10328Y6008D01*
X10541Y5920D01*
X10703Y5758D01*
X10791Y5545D01*
X10791Y5315D01*
X10703Y5103D01*
X10541Y4940D01*
X10328Y4852D01*
X10098Y4852D01*
G37*
%LPD*%
%LPC*%
G36*
X8366Y4852D02*
X8366Y4852D01*
X8154Y4940D01*
X7991Y5103D01*
X7903Y5315D01*
X7903Y5545D01*
X7991Y5758D01*
X8154Y5920D01*
X8366Y6008D01*
X8596Y6008D01*
X8808Y5920D01*
X8971Y5758D01*
X9059Y5545D01*
X9059Y5315D01*
X8971Y5103D01*
X8808Y4940D01*
X8596Y4852D01*
X8366Y4852D01*
G37*
%LPD*%
%LPC*%
G36*
X22874Y4833D02*
X22874Y4833D01*
X22662Y4921D01*
X22499Y5083D01*
X22411Y5296D01*
X22411Y5526D01*
X22499Y5738D01*
X22662Y5901D01*
X22874Y5989D01*
X23104Y5989D01*
X23316Y5901D01*
X23479Y5738D01*
X23567Y5526D01*
X23567Y5296D01*
X23479Y5083D01*
X23316Y4921D01*
X23104Y4833D01*
X22874Y4833D01*
G37*
%LPD*%
%LPC*%
G36*
X8381Y17585D02*
X8381Y17585D01*
X8169Y17673D01*
X8006Y17836D01*
X7918Y18048D01*
X7918Y18278D01*
X8006Y18491D01*
X8169Y18653D01*
X8381Y18741D01*
X8611Y18741D01*
X8823Y18653D01*
X8986Y18491D01*
X9074Y18278D01*
X9074Y18048D01*
X8986Y17836D01*
X8823Y17673D01*
X8611Y17585D01*
X8381Y17585D01*
G37*
%LPD*%
%LPC*%
G36*
X6250Y12690D02*
X6250Y12690D01*
X6069Y12764D01*
X5931Y12902D01*
X5909Y12957D01*
X5906Y12962D01*
X5904Y12967D01*
X5902Y12969D01*
X5901Y12971D01*
X5898Y12975D01*
X5895Y12979D01*
X5893Y12981D01*
X5891Y12983D01*
X5887Y12986D01*
X5883Y12990D01*
X5881Y12991D01*
X5879Y12993D01*
X5874Y12995D01*
X5870Y12998D01*
X5867Y12999D01*
X5865Y13000D01*
X5860Y13002D01*
X5855Y13004D01*
X5852Y13004D01*
X5850Y13005D01*
X5844Y13005D01*
X5839Y13006D01*
X5836Y13006D01*
X5834Y13006D01*
X5829Y13005D01*
X5823Y13005D01*
X5821Y13004D01*
X5818Y13004D01*
X5813Y13002D01*
X5808Y13001D01*
X5806Y13000D01*
X5803Y12999D01*
X5799Y12997D01*
X5794Y12994D01*
X5792Y12993D01*
X5789Y12991D01*
X5785Y12988D01*
X5781Y12985D01*
X5780Y12983D01*
X5778Y12981D01*
X5774Y12977D01*
X5771Y12973D01*
X5769Y12970D01*
X5768Y12969D01*
X5767Y12966D01*
X5765Y12963D01*
X5750Y12934D01*
X5706Y12874D01*
X5654Y12821D01*
X5594Y12778D01*
X5528Y12744D01*
X5457Y12721D01*
X5446Y12719D01*
X5446Y13160D01*
X5446Y13161D01*
X5446Y13162D01*
X5446Y13169D01*
X5445Y13176D01*
X5445Y13177D01*
X5445Y13178D01*
X5444Y13181D01*
X5445Y13187D01*
X5445Y13188D01*
X5446Y13188D01*
X5446Y13200D01*
X5446Y13641D01*
X5457Y13639D01*
X5528Y13617D01*
X5594Y13583D01*
X5654Y13539D01*
X5706Y13487D01*
X5750Y13427D01*
X5765Y13398D01*
X5768Y13393D01*
X5770Y13389D01*
X5772Y13387D01*
X5773Y13385D01*
X5777Y13381D01*
X5780Y13377D01*
X5782Y13375D01*
X5784Y13373D01*
X5789Y13370D01*
X5793Y13367D01*
X5795Y13366D01*
X5797Y13364D01*
X5802Y13362D01*
X5807Y13360D01*
X5809Y13359D01*
X5812Y13358D01*
X5817Y13357D01*
X5822Y13356D01*
X5825Y13356D01*
X5827Y13355D01*
X5832Y13355D01*
X5838Y13355D01*
X5840Y13355D01*
X5843Y13355D01*
X5848Y13356D01*
X5853Y13357D01*
X5856Y13358D01*
X5858Y13358D01*
X5863Y13360D01*
X5868Y13362D01*
X5871Y13363D01*
X5873Y13364D01*
X5877Y13367D01*
X5882Y13370D01*
X5884Y13372D01*
X5886Y13373D01*
X5890Y13377D01*
X5894Y13380D01*
X5895Y13382D01*
X5897Y13384D01*
X5900Y13389D01*
X5903Y13393D01*
X5905Y13396D01*
X5906Y13398D01*
X5907Y13400D01*
X5909Y13404D01*
X5931Y13458D01*
X6069Y13596D01*
X6250Y13671D01*
X6445Y13671D01*
X6625Y13596D01*
X6763Y13458D01*
X6838Y13278D01*
X6838Y13083D01*
X6763Y12902D01*
X6625Y12764D01*
X6445Y12690D01*
X6250Y12690D01*
G37*
%LPD*%
%LPC*%
G36*
X19025Y12670D02*
X19025Y12670D01*
X18845Y12745D01*
X18707Y12883D01*
X18684Y12937D01*
X18682Y12942D01*
X18679Y12947D01*
X18678Y12949D01*
X18677Y12951D01*
X18673Y12955D01*
X18670Y12960D01*
X18668Y12961D01*
X18667Y12963D01*
X18662Y12967D01*
X18659Y12970D01*
X18656Y12972D01*
X18654Y12973D01*
X18650Y12976D01*
X18645Y12979D01*
X18643Y12979D01*
X18640Y12981D01*
X18635Y12982D01*
X18630Y12984D01*
X18628Y12984D01*
X18625Y12985D01*
X18620Y12985D01*
X18615Y12986D01*
X18612Y12986D01*
X18609Y12986D01*
X18604Y12986D01*
X18599Y12985D01*
X18596Y12985D01*
X18594Y12984D01*
X18589Y12983D01*
X18584Y12981D01*
X18581Y12980D01*
X18579Y12979D01*
X18574Y12977D01*
X18569Y12975D01*
X18567Y12973D01*
X18565Y12972D01*
X18561Y12968D01*
X18557Y12965D01*
X18555Y12963D01*
X18553Y12961D01*
X18550Y12957D01*
X18546Y12953D01*
X18545Y12950D01*
X18544Y12949D01*
X18542Y12947D01*
X18540Y12943D01*
X18525Y12914D01*
X18482Y12854D01*
X18430Y12802D01*
X18370Y12758D01*
X18304Y12724D01*
X18233Y12701D01*
X18222Y12700D01*
X18222Y13141D01*
X18222Y13142D01*
X18222Y13143D01*
X18221Y13149D01*
X18221Y13156D01*
X18220Y13157D01*
X18220Y13158D01*
X18219Y13161D01*
X18221Y13167D01*
X18221Y13168D01*
X18221Y13169D01*
X18222Y13181D01*
X18222Y13622D01*
X18233Y13620D01*
X18304Y13597D01*
X18370Y13563D01*
X18430Y13520D01*
X18482Y13467D01*
X18525Y13407D01*
X18540Y13378D01*
X18543Y13374D01*
X18546Y13369D01*
X18547Y13367D01*
X18549Y13365D01*
X18553Y13361D01*
X18556Y13357D01*
X18558Y13356D01*
X18560Y13354D01*
X18564Y13351D01*
X18568Y13347D01*
X18571Y13346D01*
X18573Y13345D01*
X18578Y13343D01*
X18582Y13340D01*
X18585Y13340D01*
X18587Y13339D01*
X18593Y13337D01*
X18598Y13336D01*
X18600Y13336D01*
X18603Y13335D01*
X18608Y13335D01*
X18613Y13335D01*
X18616Y13335D01*
X18619Y13335D01*
X18624Y13336D01*
X18629Y13337D01*
X18631Y13338D01*
X18634Y13338D01*
X18639Y13340D01*
X18644Y13342D01*
X18646Y13343D01*
X18649Y13345D01*
X18653Y13347D01*
X18658Y13350D01*
X18660Y13352D01*
X18662Y13353D01*
X18665Y13357D01*
X18669Y13361D01*
X18671Y13363D01*
X18673Y13365D01*
X18676Y13369D01*
X18679Y13373D01*
X18680Y13376D01*
X18681Y13378D01*
X18682Y13380D01*
X18684Y13384D01*
X18707Y13439D01*
X18845Y13577D01*
X19025Y13651D01*
X19220Y13651D01*
X19401Y13577D01*
X19539Y13439D01*
X19614Y13258D01*
X19614Y13063D01*
X19539Y12883D01*
X19401Y12745D01*
X19220Y12670D01*
X19025Y12670D01*
G37*
%LPD*%
%LPC*%
G36*
X13154Y12745D02*
X13154Y12745D01*
X12994Y12811D01*
X12889Y12916D01*
X12883Y12921D01*
X12878Y12925D01*
X12877Y12926D01*
X12870Y12930D01*
X12864Y12933D01*
X12863Y12933D01*
X12863Y12934D01*
X12856Y12936D01*
X12849Y12938D01*
X12848Y12938D01*
X12840Y12939D01*
X12833Y12939D01*
X12832Y12939D01*
X12825Y12939D01*
X12817Y12938D01*
X12816Y12938D01*
X12809Y12935D01*
X12802Y12933D01*
X12801Y12933D01*
X12795Y12929D01*
X12788Y12926D01*
X12788Y12925D01*
X12787Y12925D01*
X12782Y12920D01*
X12776Y12916D01*
X12776Y12915D01*
X12775Y12915D01*
X12774Y12913D01*
X12773Y12912D01*
X12724Y12863D01*
X12671Y12825D01*
X12613Y12795D01*
X12551Y12775D01*
X12533Y12772D01*
X12533Y13180D01*
X12533Y13589D01*
X12551Y13586D01*
X12613Y13566D01*
X12671Y13536D01*
X12724Y13497D01*
X12774Y13447D01*
X12778Y13443D01*
X12779Y13443D01*
X12779Y13442D01*
X12785Y13438D01*
X12791Y13433D01*
X12792Y13433D01*
X12798Y13430D01*
X12805Y13426D01*
X12806Y13426D01*
X12813Y13424D01*
X12820Y13422D01*
X12821Y13422D01*
X12829Y13422D01*
X12836Y13421D01*
X12837Y13421D01*
X12844Y13422D01*
X12851Y13423D01*
X12852Y13424D01*
X12853Y13424D01*
X12859Y13426D01*
X12866Y13429D01*
X12867Y13429D01*
X12874Y13433D01*
X12880Y13437D01*
X12881Y13437D01*
X12882Y13439D01*
X12889Y13444D01*
X12994Y13550D01*
X13154Y13616D01*
X13328Y13616D01*
X13488Y13550D01*
X13610Y13427D01*
X13677Y13267D01*
X13677Y13094D01*
X13610Y12934D01*
X13488Y12811D01*
X13328Y12745D01*
X13154Y12745D01*
G37*
%LPD*%
%LPC*%
G36*
X25930Y12725D02*
X25930Y12725D01*
X25770Y12791D01*
X25664Y12897D01*
X25659Y12901D01*
X25653Y12906D01*
X25652Y12907D01*
X25646Y12910D01*
X25639Y12913D01*
X25639Y12914D01*
X25638Y12914D01*
X25631Y12916D01*
X25624Y12918D01*
X25623Y12918D01*
X25616Y12919D01*
X25609Y12920D01*
X25608Y12920D01*
X25607Y12920D01*
X25600Y12919D01*
X25593Y12918D01*
X25592Y12918D01*
X25585Y12916D01*
X25578Y12914D01*
X25577Y12913D01*
X25570Y12910D01*
X25564Y12906D01*
X25563Y12905D01*
X25557Y12901D01*
X25552Y12896D01*
X25551Y12896D01*
X25551Y12895D01*
X25550Y12893D01*
X25548Y12892D01*
X25500Y12844D01*
X25447Y12805D01*
X25389Y12775D01*
X25326Y12755D01*
X25308Y12752D01*
X25308Y13161D01*
X25308Y13569D01*
X25326Y13566D01*
X25389Y13546D01*
X25447Y13516D01*
X25500Y13478D01*
X25550Y13428D01*
X25554Y13423D01*
X25555Y13422D01*
X25560Y13418D01*
X25566Y13414D01*
X25567Y13413D01*
X25574Y13410D01*
X25580Y13407D01*
X25581Y13406D01*
X25582Y13406D01*
X25589Y13404D01*
X25596Y13403D01*
X25596Y13402D01*
X25597Y13402D01*
X25604Y13402D01*
X25611Y13402D01*
X25612Y13402D01*
X25613Y13402D01*
X25620Y13403D01*
X25627Y13404D01*
X25628Y13404D01*
X25635Y13407D01*
X25642Y13409D01*
X25643Y13409D01*
X25649Y13413D01*
X25655Y13417D01*
X25656Y13417D01*
X25656Y13418D01*
X25658Y13419D01*
X25664Y13425D01*
X25770Y13530D01*
X25930Y13596D01*
X26103Y13596D01*
X26263Y13530D01*
X26386Y13407D01*
X26452Y13247D01*
X26452Y13074D01*
X26386Y12914D01*
X26263Y12791D01*
X26103Y12725D01*
X25930Y12725D01*
G37*
%LPD*%
%LPC*%
G36*
X23722Y13260D02*
X23722Y13260D01*
X23722Y13622D01*
X23733Y13620D01*
X23804Y13597D01*
X23870Y13563D01*
X23930Y13520D01*
X23982Y13467D01*
X24025Y13407D01*
X24059Y13341D01*
X24082Y13271D01*
X24084Y13260D01*
X23722Y13260D01*
G37*
%LPD*%
%LPC*%
G36*
X10946Y13081D02*
X10946Y13081D01*
X11308Y13081D01*
X11306Y13070D01*
X11284Y13000D01*
X11250Y12934D01*
X11206Y12874D01*
X11154Y12821D01*
X11094Y12778D01*
X11028Y12744D01*
X10957Y12721D01*
X10946Y12719D01*
X10946Y13081D01*
G37*
%LPD*%
%LPC*%
G36*
X5237Y12721D02*
X5237Y12721D01*
X5167Y12744D01*
X5101Y12778D01*
X5041Y12821D01*
X4988Y12874D01*
X4945Y12934D01*
X4911Y13000D01*
X4888Y13070D01*
X4886Y13081D01*
X5248Y13081D01*
X5248Y12719D01*
X5237Y12721D01*
G37*
%LPD*%
%LPC*%
G36*
X18013Y12701D02*
X18013Y12701D01*
X17942Y12724D01*
X17876Y12758D01*
X17816Y12802D01*
X17764Y12854D01*
X17720Y12914D01*
X17687Y12980D01*
X17664Y13050D01*
X17662Y13061D01*
X18024Y13061D01*
X18024Y12700D01*
X18013Y12701D01*
G37*
%LPD*%
%LPC*%
G36*
X23722Y13061D02*
X23722Y13061D01*
X24084Y13061D01*
X24082Y13050D01*
X24059Y12980D01*
X24025Y12914D01*
X23982Y12854D01*
X23930Y12802D01*
X23870Y12758D01*
X23804Y12724D01*
X23733Y12701D01*
X23722Y12700D01*
X23722Y13061D01*
G37*
%LPD*%
%LPC*%
G36*
X4886Y13280D02*
X4886Y13280D01*
X4888Y13291D01*
X4911Y13361D01*
X4945Y13427D01*
X4988Y13487D01*
X5041Y13539D01*
X5101Y13583D01*
X5167Y13617D01*
X5237Y13639D01*
X5248Y13641D01*
X5248Y13280D01*
X4886Y13280D01*
G37*
%LPD*%
%LPC*%
G36*
X10946Y13280D02*
X10946Y13280D01*
X10946Y13641D01*
X10957Y13639D01*
X11028Y13617D01*
X11094Y13583D01*
X11154Y13539D01*
X11206Y13487D01*
X11250Y13427D01*
X11284Y13361D01*
X11306Y13291D01*
X11308Y13280D01*
X10946Y13280D01*
G37*
%LPD*%
%LPC*%
G36*
X17662Y13260D02*
X17662Y13260D01*
X17664Y13271D01*
X17687Y13341D01*
X17720Y13407D01*
X17764Y13467D01*
X17816Y13520D01*
X17876Y13563D01*
X17942Y13597D01*
X18013Y13620D01*
X18024Y13622D01*
X18024Y13260D01*
X17662Y13260D01*
G37*
%LPD*%
%LPC*%
G36*
X12045Y13260D02*
X12045Y13260D01*
X12048Y13278D01*
X12068Y13340D01*
X12098Y13398D01*
X12136Y13451D01*
X12183Y13497D01*
X12236Y13536D01*
X12294Y13566D01*
X12356Y13586D01*
X12374Y13589D01*
X12374Y13260D01*
X12045Y13260D01*
G37*
%LPD*%
%LPC*%
G36*
X24821Y13240D02*
X24821Y13240D01*
X24824Y13258D01*
X24844Y13320D01*
X24874Y13379D01*
X24912Y13431D01*
X24958Y13478D01*
X25011Y13516D01*
X25070Y13546D01*
X25132Y13566D01*
X25150Y13569D01*
X25150Y13240D01*
X24821Y13240D01*
G37*
%LPD*%
%LPC*%
G36*
X12356Y12775D02*
X12356Y12775D01*
X12294Y12795D01*
X12236Y12825D01*
X12183Y12863D01*
X12136Y12909D01*
X12098Y12962D01*
X12068Y13021D01*
X12048Y13083D01*
X12045Y13101D01*
X12374Y13101D01*
X12374Y12772D01*
X12356Y12775D01*
G37*
%LPD*%
%LPC*%
G36*
X25132Y12755D02*
X25132Y12755D01*
X25070Y12775D01*
X25011Y12805D01*
X24958Y12844D01*
X24912Y12890D01*
X24874Y12943D01*
X24844Y13001D01*
X24824Y13063D01*
X24821Y13081D01*
X25150Y13081D01*
X25150Y12752D01*
X25132Y12755D01*
G37*
%LPD*%
%LPC*%
G36*
X10010Y31406D02*
X10010Y31406D01*
X10010Y31624D01*
X10053Y31624D01*
X10078Y31618D01*
X10101Y31604D01*
X10120Y31585D01*
X10133Y31563D01*
X10140Y31537D01*
X10140Y31406D01*
X10010Y31406D01*
G37*
%LPD*%
%LPC*%
G36*
X8873Y31406D02*
X8873Y31406D01*
X8873Y31624D01*
X8915Y31624D01*
X8940Y31618D01*
X8963Y31604D01*
X8982Y31585D01*
X8995Y31563D01*
X9002Y31537D01*
X9002Y31406D01*
X8873Y31406D01*
G37*
%LPD*%
%LPC*%
G36*
X22806Y31406D02*
X22806Y31406D01*
X22806Y31624D01*
X22848Y31624D01*
X22874Y31618D01*
X22897Y31604D01*
X22915Y31585D01*
X22929Y31563D01*
X22935Y31537D01*
X22935Y31406D01*
X22806Y31406D01*
G37*
%LPD*%
%LPC*%
G36*
X21668Y31406D02*
X21668Y31406D01*
X21668Y31624D01*
X21710Y31624D01*
X21736Y31618D01*
X21759Y31604D01*
X21777Y31585D01*
X21791Y31563D01*
X21798Y31537D01*
X21798Y31406D01*
X21668Y31406D01*
G37*
%LPD*%
%LPC*%
G36*
X9722Y31406D02*
X9722Y31406D01*
X9722Y31537D01*
X9729Y31563D01*
X9742Y31585D01*
X9761Y31604D01*
X9784Y31618D01*
X9810Y31624D01*
X9852Y31624D01*
X9852Y31406D01*
X9722Y31406D01*
G37*
%LPD*%
%LPC*%
G36*
X21380Y31406D02*
X21380Y31406D01*
X21380Y31537D01*
X21386Y31563D01*
X21400Y31585D01*
X21418Y31604D01*
X21441Y31618D01*
X21467Y31624D01*
X21509Y31624D01*
X21509Y31406D01*
X21380Y31406D01*
G37*
%LPD*%
%LPC*%
G36*
X8584Y31406D02*
X8584Y31406D01*
X8584Y31537D01*
X8591Y31563D01*
X8604Y31585D01*
X8623Y31604D01*
X8646Y31618D01*
X8672Y31624D01*
X8714Y31624D01*
X8714Y31406D01*
X8584Y31406D01*
G37*
%LPD*%
%LPC*%
G36*
X22517Y31406D02*
X22517Y31406D01*
X22517Y31537D01*
X22524Y31563D01*
X22537Y31585D01*
X22556Y31604D01*
X22579Y31618D01*
X22605Y31624D01*
X22647Y31624D01*
X22647Y31406D01*
X22517Y31406D01*
G37*
%LPD*%
D10*
X21589Y31327D03*
X22726Y31327D03*
X21589Y29602D03*
X22726Y29602D03*
D11*
X21598Y30386D03*
X22717Y30386D03*
X22717Y30543D03*
X22717Y30858D03*
X22717Y31016D03*
X21598Y31016D03*
X22717Y30701D03*
X21598Y30228D03*
X22717Y29913D03*
X22717Y30071D03*
X22717Y30228D03*
X21598Y29913D03*
X21598Y30071D03*
X21598Y30858D03*
X21598Y30701D03*
X21598Y30543D03*
D12*
X20157Y25913D03*
X21157Y25913D03*
X22157Y25913D03*
X23157Y25913D03*
X24157Y25913D03*
D10*
X8793Y31327D03*
X9931Y31327D03*
X8793Y29602D03*
X9931Y29602D03*
D11*
X8803Y30386D03*
X9921Y30386D03*
X9921Y30543D03*
X9921Y30858D03*
X9921Y31016D03*
X8803Y31016D03*
X9921Y30701D03*
X8803Y30228D03*
X9921Y29913D03*
X9921Y30071D03*
X9921Y30228D03*
X8803Y29913D03*
X8803Y30071D03*
X8803Y30858D03*
X8803Y30701D03*
X8803Y30543D03*
D12*
X7362Y25913D03*
X8362Y25913D03*
X9362Y25913D03*
X10362Y25913D03*
X11362Y25913D03*
X23623Y13161D03*
X22623Y13161D03*
X21623Y13161D03*
X20623Y13161D03*
D13*
X25229Y13161D03*
X26017Y13161D03*
D12*
X18123Y13161D03*
X19123Y13161D03*
X10847Y13180D03*
X9847Y13180D03*
X8847Y13180D03*
X7847Y13180D03*
D13*
X12454Y13180D03*
X13241Y13180D03*
D12*
X5347Y13180D03*
X6347Y13180D03*
D14*
X18907Y22663D03*
X18907Y21663D03*
D15*
X18907Y22663D01*
D14*
X25657Y22663D03*
D15*
X25657Y21163D01*
D14*
X24407Y20663D03*
D15*
X25407Y20913D02*
X25657Y21163D01*
X25407Y20913D02*
X24657Y20913D01*
X24407Y20663D01*
D16*
X22157Y31788D03*
D17*
X22157Y31538D01*
X21589Y31719D02*
X21589Y31327D01*
X21589Y31719D02*
X21657Y31788D01*
X22157Y31788D01*
X22726Y31719D02*
X22726Y31327D01*
X22726Y31719D02*
X22657Y31788D01*
X22157Y31788D01*
X22130Y30386D02*
X21598Y30386D01*
X22130Y30386D02*
X22157Y30413D01*
X22157Y31788D01*
X22157Y29602D02*
X21589Y29602D01*
X22157Y29602D02*
X22726Y29602D01*
X22157Y29602D02*
X22157Y30358D01*
X22130Y30386D01*
D15*
X22157Y31788D02*
X22157Y25913D01*
D14*
X21157Y20038D03*
D15*
X24282Y20038D01*
X24407Y20163D01*
D14*
X24407Y20163D03*
D17*
X20720Y30476D02*
X20657Y30476D01*
D14*
X20657Y30476D03*
D17*
X21308Y30701D02*
X21598Y30701D01*
X21308Y30701D02*
X21157Y30851D01*
X21032Y30851D01*
D14*
X23657Y25163D03*
D18*
X19720Y25163D01*
X19470Y25413D01*
X19470Y27101D01*
X19845Y27476D01*
X19845Y27788D01*
D14*
X19845Y27788D03*
D17*
X20657Y30476D02*
X21032Y30851D01*
D14*
X21095Y30476D03*
D17*
X21157Y30538D01*
X21594Y30538D01*
X21598Y30543D01*
D14*
X23407Y24579D03*
D18*
X23135Y24851D01*
X19532Y24851D01*
X19157Y25226D02*
X19157Y27351D01*
X19157Y25226D02*
X19532Y24851D01*
X19157Y27351D02*
X19282Y27476D01*
D14*
X19282Y27476D03*
X18907Y24663D03*
D17*
X18532Y25038D01*
X18220Y25038D01*
D14*
X18220Y25038D03*
X23282Y28288D03*
D17*
X23595Y28601D01*
X23595Y30038D01*
X23248Y30386D01*
X22717Y30386D01*
D14*
X22720Y28163D03*
D17*
X23407Y28851D01*
X23407Y29976D01*
X23157Y30226D01*
X22719Y30226D01*
X22717Y30228D01*
D14*
X22845Y28726D03*
D17*
X23220Y29101D01*
X23220Y29913D01*
X22729Y30059D02*
X22717Y30071D01*
X22729Y30059D02*
X23075Y30059D01*
X23220Y29913D01*
D14*
X22595Y29038D03*
D17*
X22845Y29038D01*
X23032Y29226D01*
X23032Y29851D01*
X22970Y29913D01*
X22717Y29913D01*
D14*
X21720Y29038D03*
D17*
X21407Y29038D01*
X21282Y29163D01*
X21282Y29788D01*
X21407Y29913D01*
X21598Y29913D01*
D14*
X20095Y28476D03*
D17*
X20095Y28163D01*
X20220Y28038D01*
X20220Y25976D01*
X20157Y25913D01*
D14*
X23095Y27788D03*
D17*
X24157Y26726D02*
X24157Y25913D01*
X24157Y26726D02*
X23095Y27788D01*
D14*
X18095Y24601D03*
D17*
X18470Y24226D01*
X23907Y24226D02*
X24157Y24476D01*
X23907Y24226D02*
X18470Y24226D01*
X24157Y24476D02*
X24157Y25913D01*
D14*
X6112Y22663D03*
X6112Y21663D03*
D15*
X6112Y22663D01*
D14*
X12862Y22663D03*
D15*
X12862Y21163D01*
D14*
X11612Y20663D03*
D15*
X12612Y20913D02*
X12862Y21163D01*
X12612Y20913D02*
X11862Y20913D01*
X11612Y20663D01*
D16*
X9362Y31788D03*
D17*
X9362Y31538D01*
X8793Y31719D02*
X8793Y31327D01*
X8793Y31719D02*
X8862Y31788D01*
X9362Y31788D01*
X9931Y31719D02*
X9931Y31327D01*
X9931Y31719D02*
X9862Y31788D01*
X9362Y31788D01*
X9335Y30386D02*
X8803Y30386D01*
X9335Y30386D02*
X9362Y30413D01*
X9362Y31788D01*
X9362Y29602D02*
X8793Y29602D01*
X9362Y29602D02*
X9931Y29602D01*
X9362Y29602D02*
X9362Y30358D01*
X9335Y30386D01*
D15*
X9362Y31788D02*
X9362Y25913D01*
D14*
X8362Y20038D03*
D15*
X11487Y20038D01*
X11612Y20163D01*
D14*
X11612Y20163D03*
D17*
X7925Y30476D02*
X7862Y30476D01*
D14*
X7862Y30476D03*
D17*
X8512Y30701D02*
X8803Y30701D01*
X8512Y30701D02*
X8362Y30851D01*
X8237Y30851D01*
D14*
X10862Y25163D03*
D18*
X6925Y25163D01*
X6675Y25413D01*
X6675Y27101D01*
X7050Y27476D01*
X7050Y27788D01*
D14*
X7050Y27788D03*
D17*
X7862Y30476D02*
X8237Y30851D01*
D14*
X8300Y30476D03*
D17*
X8362Y30538D01*
X8798Y30538D01*
X8803Y30543D01*
D14*
X10612Y24579D03*
D18*
X10340Y24851D01*
X6737Y24851D01*
X6362Y25226D02*
X6362Y27351D01*
X6362Y25226D02*
X6737Y24851D01*
X6362Y27351D02*
X6487Y27476D01*
D14*
X6487Y27476D03*
X6112Y24663D03*
D17*
X5737Y25038D01*
X5425Y25038D01*
D14*
X5425Y25038D03*
X10487Y28288D03*
D17*
X10800Y28601D01*
X10800Y30038D01*
X10452Y30386D01*
X9921Y30386D01*
D14*
X9925Y28163D03*
D17*
X10612Y28851D01*
X10612Y29976D01*
X10362Y30226D01*
X9924Y30226D01*
X9921Y30228D01*
D14*
X10050Y28726D03*
D17*
X10425Y29101D01*
X10425Y29913D01*
X9933Y30059D02*
X9921Y30071D01*
X9933Y30059D02*
X10279Y30059D01*
X10425Y29913D01*
D14*
X9800Y29038D03*
D17*
X10050Y29038D01*
X10237Y29226D01*
X10237Y29851D01*
X10175Y29913D01*
X9921Y29913D01*
D14*
X8925Y29038D03*
D17*
X8612Y29038D01*
X8487Y29163D01*
X8487Y29788D01*
X8612Y29913D01*
X8803Y29913D01*
D14*
X7300Y28476D03*
D17*
X7300Y28163D01*
X7425Y28038D01*
X7425Y25976D01*
X7362Y25913D01*
D14*
X10300Y27788D03*
D17*
X11362Y26726D02*
X11362Y25913D01*
X11362Y26726D02*
X10300Y27788D01*
D14*
X5300Y24601D03*
D17*
X5675Y24226D01*
X11112Y24226D02*
X11362Y24476D01*
X11112Y24226D02*
X5675Y24226D01*
X11362Y24476D02*
X11362Y25913D01*
D16*
X18873Y9911D03*
X18873Y8911D03*
D15*
X18873Y9911D01*
D16*
X25623Y9911D03*
D15*
X25623Y8411D01*
D16*
X24373Y7911D03*
D15*
X25373Y8161D02*
X25623Y8411D01*
X25373Y8161D02*
X24623Y8161D01*
X24373Y7911D01*
D16*
X21123Y7286D03*
D15*
X24248Y7286D01*
X24373Y7411D01*
D16*
X24373Y7411D03*
X23060Y11786D03*
D15*
X21998Y11786D01*
X20623Y13161D01*
D16*
X6097Y9930D03*
X6097Y8930D03*
D15*
X6097Y9930D01*
D16*
X12847Y9930D03*
D15*
X12847Y8430D01*
D16*
X11597Y7930D03*
D15*
X12597Y8180D02*
X12847Y8430D01*
X12597Y8180D02*
X11847Y8180D01*
X11597Y7930D01*
D16*
X8347Y7305D03*
D15*
X11472Y7305D01*
X11597Y7430D01*
D16*
X11597Y7430D03*
X10285Y11805D03*
D15*
X9222Y11805D01*
X7847Y13180D01*
M02*
