G04 EAGLE Gerber X2 export*
G75*
%MOIN*%
%FSLAX24Y24*%
%LPD*%
%AMOC8*
5,1,8,0,0,1.08239X$1,22.5*%
G01*
%ADD10C,0.016000*%
%ADD11C,0.020000*%
%ADD12C,0.010000*%
%ADD13C,0.005000*%


D10*
X20657Y25413D02*
X20657Y25913D01*
X20655Y25977D01*
X20650Y26042D01*
X20641Y26105D01*
X20628Y26169D01*
X20611Y26231D01*
X20592Y26292D01*
X20568Y26352D01*
X20542Y26411D01*
X20512Y26468D01*
X20479Y26523D01*
X20442Y26577D01*
X20403Y26628D01*
X20361Y26677D01*
X20316Y26723D01*
X20269Y26767D01*
X20219Y26808D01*
X20167Y26846D01*
X20113Y26881D01*
X20057Y26913D01*
X20026Y26928D01*
X19993Y26939D01*
X19959Y26947D01*
X19924Y26951D01*
X19890Y26951D01*
X19855Y26947D01*
X19821Y26939D01*
X19788Y26928D01*
X19757Y26913D01*
X19758Y26913D02*
X19638Y26851D01*
X19517Y26793D01*
X19394Y26737D01*
X19269Y26686D01*
X19143Y26637D01*
X19016Y26592D01*
X18887Y26551D01*
X18758Y26513D01*
X18757Y26514D02*
X18723Y26502D01*
X18689Y26487D01*
X18658Y26468D01*
X18629Y26445D01*
X18602Y26420D01*
X18578Y26392D01*
X18558Y26362D01*
X18541Y26330D01*
X18527Y26296D01*
X18517Y26260D01*
X18511Y26224D01*
X18509Y26188D01*
X18511Y26151D01*
X18517Y26115D01*
X18526Y26080D01*
X18540Y26046D01*
X18557Y26013D01*
X18589Y25963D01*
X18625Y25914D01*
X18664Y25869D01*
X18706Y25826D01*
X18750Y25785D01*
X18797Y25748D01*
X18847Y25714D01*
X18898Y25683D01*
X18952Y25656D01*
X19007Y25632D01*
X19063Y25612D01*
X19121Y25596D01*
X19180Y25584D01*
X19239Y25575D01*
X19299Y25571D01*
X19359Y25570D01*
X19419Y25574D01*
X19478Y25581D01*
X19537Y25592D01*
X19595Y25607D01*
X19652Y25626D01*
X19708Y25649D01*
X19762Y25675D01*
X19814Y25704D01*
X19864Y25737D01*
X19912Y25774D01*
X19957Y25813D01*
X19857Y24913D02*
X19957Y24813D01*
X19857Y24913D02*
X19825Y24948D01*
X19796Y24985D01*
X19770Y25024D01*
X19747Y25066D01*
X19728Y25109D01*
X19712Y25153D01*
X19700Y25199D01*
X19692Y25246D01*
X19688Y25293D01*
X19687Y25340D01*
X19691Y25387D01*
X19698Y25434D01*
X19709Y25480D01*
X19723Y25525D01*
X19741Y25568D01*
X19763Y25610D01*
X19788Y25650D01*
X19816Y25688D01*
X19848Y25724D01*
X19882Y25756D01*
X19918Y25786D01*
X19957Y25813D01*
X20757Y25413D02*
X20857Y25513D01*
X20858Y25513D02*
X20923Y25576D01*
X20991Y25635D01*
X21061Y25691D01*
X21134Y25745D01*
X21209Y25795D01*
X21286Y25841D01*
X21365Y25885D01*
X21446Y25924D01*
X21528Y25960D01*
X21612Y25993D01*
X21698Y26022D01*
X21784Y26047D01*
X21872Y26068D01*
X21960Y26085D01*
X22050Y26098D01*
X22139Y26108D01*
X22229Y26113D01*
X22319Y26115D01*
X22409Y26113D01*
X22499Y26106D01*
X22589Y26096D01*
X22678Y26082D01*
X22766Y26064D01*
X22854Y26042D01*
X22940Y26016D01*
X23025Y25986D01*
X23109Y25953D01*
X23191Y25916D01*
X23272Y25876D01*
X23350Y25832D01*
X23427Y25785D01*
X23502Y25734D01*
X23574Y25680D01*
X23644Y25623D01*
X23711Y25563D01*
X23776Y25500D01*
X23837Y25434D01*
X23896Y25366D01*
X23952Y25295D01*
X24004Y25222D01*
X24054Y25147D01*
X24100Y25069D01*
X24142Y24990D01*
X24181Y24908D01*
X24216Y24825D01*
X24248Y24741D01*
X24276Y24655D01*
X24300Y24569D01*
X24321Y24481D01*
X24337Y24392D01*
X24350Y24303D01*
X24358Y24213D01*
X24557Y23213D02*
X24457Y23113D01*
X24422Y23076D01*
X24390Y23037D01*
X24361Y22996D01*
X24334Y22952D01*
X24311Y22907D01*
X24290Y22861D01*
X24273Y22813D01*
X24259Y22765D01*
X24249Y22715D01*
X24241Y22665D01*
X24238Y22614D01*
X24237Y22564D01*
X24240Y22513D01*
X24247Y22463D01*
X24257Y22413D01*
X24257Y22414D02*
X24264Y22393D01*
X24274Y22374D01*
X24286Y22357D01*
X24301Y22342D01*
X24318Y22330D01*
X24337Y22320D01*
X24358Y22313D01*
X24357Y22314D02*
X24420Y22301D01*
X24483Y22292D01*
X24546Y22287D01*
X24609Y22286D01*
X24673Y22289D01*
X24736Y22295D01*
X24799Y22305D01*
X24861Y22319D01*
X24922Y22336D01*
X24982Y22357D01*
X25041Y22382D01*
X25098Y22410D01*
X25153Y22441D01*
X25206Y22476D01*
X25257Y22514D01*
X25258Y22513D02*
X25278Y22531D01*
X25295Y22551D01*
X25309Y22574D01*
X25320Y22598D01*
X25327Y22623D01*
X25331Y22650D01*
X25331Y22676D01*
X25327Y22703D01*
X25320Y22728D01*
X25309Y22752D01*
X25295Y22775D01*
X25278Y22795D01*
X25258Y22813D01*
X25257Y22814D02*
X25223Y22843D01*
X25192Y22874D01*
X25163Y22908D01*
X25136Y22944D01*
X25113Y22982D01*
X25092Y23021D01*
X25075Y23062D01*
X25061Y23105D01*
X25050Y23148D01*
X25043Y23192D01*
X25039Y23236D01*
X25038Y23281D01*
X25041Y23326D01*
X25048Y23370D01*
X25057Y23413D01*
X25057Y23414D02*
X25070Y23469D01*
X25079Y23526D01*
X25085Y23583D01*
X25086Y23640D01*
X25084Y23698D01*
X25077Y23755D01*
X25067Y23811D01*
X25053Y23867D01*
X25036Y23921D01*
X25014Y23975D01*
X24989Y24026D01*
X24961Y24076D01*
X24930Y24124D01*
X24895Y24170D01*
X24857Y24213D01*
X24832Y24238D01*
X24804Y24259D01*
X24775Y24278D01*
X24743Y24294D01*
X24710Y24306D01*
X24677Y24315D01*
X24642Y24320D01*
X24607Y24322D01*
X24572Y24320D01*
X24537Y24315D01*
X24504Y24306D01*
X24471Y24294D01*
X24439Y24278D01*
X24410Y24259D01*
X24382Y24238D01*
X24357Y24213D01*
X19757Y22713D02*
X19657Y22513D01*
X19757Y22713D02*
X19773Y22749D01*
X19785Y22786D01*
X19794Y22825D01*
X19799Y22863D01*
X19801Y22903D01*
X19799Y22942D01*
X19793Y22980D01*
X19783Y23018D01*
X19770Y23055D01*
X19754Y23091D01*
X19734Y23125D01*
X19711Y23157D01*
X19686Y23186D01*
X19657Y23213D01*
X19633Y23236D01*
X19612Y23261D01*
X19594Y23288D01*
X19580Y23318D01*
X19569Y23349D01*
X19561Y23380D01*
X19557Y23413D01*
X19557Y23414D02*
X19553Y23501D01*
X19552Y23588D01*
X19555Y23676D01*
X19562Y23763D01*
X19572Y23850D01*
X19585Y23936D01*
X19602Y24022D01*
X19623Y24107D01*
X19647Y24191D01*
X19674Y24274D01*
X19705Y24356D01*
X19739Y24436D01*
X19776Y24515D01*
X19817Y24592D01*
X19861Y24668D01*
X19907Y24742D01*
X19957Y24814D01*
X19657Y22514D02*
X19644Y22482D01*
X19634Y22449D01*
X19627Y22415D01*
X19624Y22381D01*
X19625Y22346D01*
X19630Y22312D01*
X19638Y22278D01*
X19650Y22246D01*
X19666Y22215D01*
X19684Y22186D01*
X19706Y22159D01*
X19730Y22135D01*
X19758Y22113D01*
X19954Y21970D01*
X20148Y21822D01*
X20338Y21669D01*
X20523Y21512D01*
X20706Y21350D01*
X20884Y21184D01*
X21058Y21013D01*
X21058Y21014D02*
X21099Y20975D01*
X21144Y20938D01*
X21190Y20905D01*
X21239Y20875D01*
X21289Y20848D01*
X21342Y20825D01*
X21396Y20805D01*
X21450Y20789D01*
X21506Y20777D01*
X21563Y20768D01*
X21620Y20763D01*
X21677Y20762D01*
X21734Y20765D01*
X21791Y20772D01*
X21848Y20782D01*
X21903Y20796D01*
X21958Y20814D01*
X21958Y20813D02*
X22131Y20874D01*
X22305Y20931D01*
X22481Y20984D01*
X22658Y21032D01*
X22836Y21077D01*
X23015Y21117D01*
X23195Y21153D01*
X23376Y21185D01*
X23557Y21213D01*
X23558Y21214D02*
X23586Y21220D01*
X23614Y21229D01*
X23640Y21242D01*
X23664Y21257D01*
X23687Y21275D01*
X23707Y21296D01*
X23725Y21319D01*
X23739Y21344D01*
X23751Y21371D01*
X23759Y21399D01*
X23764Y21427D01*
X23765Y21456D01*
X23763Y21485D01*
X23757Y21514D01*
X23758Y21514D02*
X23748Y21560D01*
X23741Y21608D01*
X23739Y21656D01*
X23741Y21703D01*
X23746Y21751D01*
X23756Y21798D01*
X23769Y21843D01*
X23786Y21888D01*
X23806Y21931D01*
X23830Y21972D01*
X23858Y22012D01*
X23888Y22048D01*
X23922Y22082D01*
X23958Y22114D01*
X23957Y22113D02*
X23997Y22148D01*
X24035Y22185D01*
X24071Y22225D01*
X24104Y22267D01*
X24134Y22311D01*
X24161Y22356D01*
X24184Y22404D01*
X24205Y22453D01*
X24222Y22503D01*
X24236Y22555D01*
X24246Y22607D01*
X24253Y22660D01*
X24257Y22713D01*
X21357Y25213D02*
X21157Y25113D01*
X21357Y25214D02*
X21389Y25227D01*
X21422Y25237D01*
X21456Y25244D01*
X21490Y25247D01*
X21525Y25246D01*
X21559Y25241D01*
X21593Y25233D01*
X21625Y25221D01*
X21656Y25205D01*
X21685Y25187D01*
X21712Y25165D01*
X21736Y25141D01*
X21758Y25113D01*
X23357Y24713D02*
X23457Y24713D01*
X23457Y24714D02*
X23495Y24712D01*
X23533Y24707D01*
X23571Y24698D01*
X23607Y24686D01*
X23642Y24671D01*
X23676Y24652D01*
X23707Y24631D01*
X23737Y24606D01*
X23764Y24579D01*
X23789Y24550D01*
X23810Y24518D01*
X23829Y24485D01*
X23845Y24450D01*
X23857Y24414D01*
D11*
X23257Y24213D02*
X23157Y24113D01*
X23257Y24213D02*
X23281Y24234D01*
X23306Y24253D01*
X23334Y24268D01*
X23364Y24280D01*
X23394Y24289D01*
X23425Y24294D01*
X23457Y24296D01*
X23489Y24294D01*
X23520Y24289D01*
X23550Y24280D01*
X23580Y24268D01*
X23608Y24253D01*
X23633Y24234D01*
X23657Y24213D01*
X23691Y24176D01*
X23723Y24137D01*
X23752Y24095D01*
X23777Y24052D01*
X23800Y24007D01*
X23819Y23960D01*
X23835Y23913D01*
X23848Y23864D01*
X23857Y23814D01*
X23862Y23764D01*
X23864Y23714D01*
X23862Y23663D01*
X23857Y23613D01*
X21057Y24613D02*
X20857Y24413D01*
X21057Y24613D02*
X21086Y24639D01*
X21117Y24663D01*
X21151Y24683D01*
X21186Y24701D01*
X21222Y24715D01*
X21260Y24726D01*
X21298Y24733D01*
X21337Y24737D01*
X21377Y24737D01*
X21416Y24733D01*
X21454Y24726D01*
X21492Y24715D01*
X21528Y24701D01*
X21563Y24683D01*
X21597Y24663D01*
X21628Y24639D01*
X21657Y24613D01*
D10*
X20357Y21513D02*
X20357Y21313D01*
X20359Y21237D01*
X20363Y21160D01*
X20371Y21084D01*
X20382Y21009D01*
X20396Y20934D01*
X20413Y20859D01*
X20434Y20786D01*
X20457Y20713D01*
X20458Y20713D02*
X20463Y20693D01*
X20466Y20673D01*
X20466Y20653D01*
X20463Y20633D01*
X20458Y20613D01*
X20457Y20613D02*
X20436Y20558D01*
X20412Y20505D01*
X20385Y20453D01*
X20355Y20403D01*
X20322Y20355D01*
X20286Y20308D01*
X20247Y20265D01*
X20205Y20223D01*
X20162Y20184D01*
X20115Y20148D01*
X20067Y20115D01*
X20017Y20085D01*
X19965Y20058D01*
X19912Y20034D01*
X19857Y20013D01*
X19857Y20014D02*
X19824Y20004D01*
X19791Y19999D01*
X19757Y19997D01*
X19723Y19999D01*
X19690Y20004D01*
X19657Y20014D01*
X19658Y20013D02*
X19608Y20029D01*
X19556Y20040D01*
X19504Y20048D01*
X19452Y20053D01*
X19399Y20054D01*
X19347Y20051D01*
X19294Y20045D01*
X19243Y20035D01*
X19192Y20021D01*
X19142Y20004D01*
X19094Y19983D01*
X19047Y19959D01*
X19002Y19932D01*
X18959Y19902D01*
X18918Y19869D01*
X18879Y19833D01*
X18843Y19795D01*
X18810Y19754D01*
X18780Y19711D01*
X18753Y19666D01*
X18729Y19619D01*
X18708Y19570D01*
X18691Y19521D01*
X18678Y19470D01*
X18667Y19418D01*
X18661Y19366D01*
X18658Y19313D01*
X18658Y19314D02*
X18663Y19287D01*
X18672Y19260D01*
X18683Y19235D01*
X18697Y19212D01*
X18714Y19190D01*
X18734Y19170D01*
X18756Y19153D01*
X18779Y19139D01*
X18804Y19128D01*
X18831Y19119D01*
X18858Y19114D01*
X18857Y19113D02*
X18843Y19096D01*
X18831Y19077D01*
X18823Y19057D01*
X18818Y19035D01*
X18816Y19013D01*
X18818Y18991D01*
X18823Y18969D01*
X18831Y18949D01*
X18843Y18930D01*
X18857Y18913D01*
X18889Y18884D01*
X18923Y18857D01*
X18959Y18834D01*
X18997Y18813D01*
X19037Y18796D01*
X19078Y18782D01*
X19120Y18771D01*
X19162Y18764D01*
X19206Y18760D01*
X19249Y18760D01*
X19292Y18764D01*
X19334Y18771D01*
X19376Y18782D01*
X19417Y18796D01*
X19457Y18813D01*
X19457Y18814D02*
X19500Y18836D01*
X19540Y18862D01*
X19579Y18891D01*
X19615Y18922D01*
X19649Y18956D01*
X19680Y18992D01*
X19709Y19031D01*
X19735Y19071D01*
X19757Y19114D01*
X19781Y19158D01*
X19809Y19202D01*
X19839Y19243D01*
X19872Y19281D01*
X19908Y19318D01*
X19946Y19351D01*
X19986Y19382D01*
X20029Y19410D01*
X20074Y19435D01*
X20120Y19456D01*
X20167Y19474D01*
X20216Y19489D01*
X20266Y19500D01*
X20316Y19508D01*
X20367Y19511D01*
X20418Y19512D01*
X20469Y19508D01*
X20519Y19501D01*
X20569Y19491D01*
X20618Y19476D01*
X20666Y19459D01*
X20712Y19438D01*
X20757Y19413D01*
X20657Y19413D02*
X20757Y19613D01*
X20758Y19613D02*
X20771Y19645D01*
X20781Y19678D01*
X20788Y19712D01*
X20791Y19746D01*
X20790Y19781D01*
X20785Y19815D01*
X20777Y19849D01*
X20765Y19881D01*
X20749Y19912D01*
X20731Y19941D01*
X20709Y19968D01*
X20685Y19992D01*
X20657Y20014D01*
X20757Y19613D02*
X21157Y20013D01*
X19657Y18913D02*
X19557Y18713D01*
X19546Y18688D01*
X19538Y18662D01*
X19534Y18636D01*
X19533Y18609D01*
X19535Y18582D01*
X19541Y18555D01*
X19549Y18529D01*
X19561Y18505D01*
X19575Y18482D01*
X19592Y18461D01*
X19612Y18442D01*
X19633Y18426D01*
X19657Y18413D01*
X19695Y18396D01*
X19734Y18383D01*
X19775Y18374D01*
X19816Y18368D01*
X19857Y18366D01*
X19898Y18368D01*
X19939Y18374D01*
X19980Y18383D01*
X20019Y18396D01*
X20057Y18413D01*
X20157Y18313D01*
X20157Y18314D02*
X20197Y18270D01*
X20240Y18230D01*
X20285Y18192D01*
X20332Y18157D01*
X20381Y18125D01*
X20433Y18097D01*
X20486Y18072D01*
X20540Y18050D01*
X20596Y18032D01*
X20653Y18017D01*
X20711Y18006D01*
X20769Y17998D01*
X20828Y17994D01*
X20886Y17994D01*
X20945Y17998D01*
X21003Y18006D01*
X21061Y18017D01*
X21118Y18032D01*
X21174Y18050D01*
X21228Y18072D01*
X21281Y18097D01*
X21333Y18125D01*
X21382Y18157D01*
X21429Y18192D01*
X21474Y18230D01*
X21517Y18270D01*
X21557Y18314D01*
X21558Y18314D02*
X21622Y18403D01*
X21684Y18494D01*
X21742Y18587D01*
X21797Y18682D01*
X21848Y18779D01*
X21897Y18878D01*
X21942Y18978D01*
X21983Y19080D01*
X22021Y19183D01*
X22056Y19287D01*
X22087Y19392D01*
X22114Y19499D01*
X22138Y19606D01*
X22158Y19714D01*
X21557Y18213D02*
X21757Y18113D01*
X21784Y18104D01*
X21813Y18098D01*
X21841Y18095D01*
X21870Y18096D01*
X21898Y18100D01*
X21926Y18107D01*
X21952Y18118D01*
X21978Y18132D01*
X22001Y18148D01*
X22022Y18168D01*
X22041Y18189D01*
X22057Y18213D01*
X22057Y18113D02*
X22257Y18013D01*
X22258Y18013D02*
X22324Y17982D01*
X22392Y17955D01*
X22461Y17931D01*
X22531Y17911D01*
X22602Y17894D01*
X22674Y17881D01*
X22747Y17872D01*
X22820Y17867D01*
X22893Y17866D01*
X22966Y17869D01*
X23039Y17875D01*
X23111Y17885D01*
X23183Y17899D01*
X23254Y17917D01*
X23324Y17938D01*
X23393Y17963D01*
X23460Y17992D01*
X23526Y18024D01*
X23590Y18060D01*
X23652Y18098D01*
X23712Y18140D01*
X23769Y18186D01*
X23824Y18234D01*
X23877Y18284D01*
X23927Y18338D01*
X23973Y18394D01*
X24017Y18453D01*
X24058Y18513D01*
X24057Y18513D02*
X24073Y18541D01*
X24084Y18570D01*
X24093Y18601D01*
X24097Y18632D01*
X24098Y18663D01*
X24095Y18695D01*
X24088Y18726D01*
X24077Y18755D01*
X24063Y18784D01*
X24046Y18810D01*
X24025Y18834D01*
X24002Y18855D01*
X23976Y18874D01*
X23948Y18889D01*
X23919Y18901D01*
X23889Y18909D01*
X23857Y18913D01*
X24057Y18713D02*
X24257Y18613D01*
X24306Y18591D01*
X24356Y18572D01*
X24407Y18557D01*
X24459Y18546D01*
X24512Y18539D01*
X24566Y18536D01*
X24619Y18537D01*
X24672Y18542D01*
X24725Y18550D01*
X24777Y18563D01*
X24828Y18579D01*
X24877Y18599D01*
X24925Y18622D01*
X24971Y18649D01*
X25015Y18679D01*
X25057Y18713D01*
X25058Y18714D02*
X25071Y18723D01*
X25086Y18729D01*
X25103Y18731D01*
X25119Y18729D01*
X25134Y18724D01*
X25148Y18716D01*
X25160Y18704D01*
X25168Y18690D01*
X25173Y18675D01*
X25175Y18659D01*
X25173Y18642D01*
X25167Y18627D01*
X25158Y18614D01*
X22157Y19113D02*
X21957Y18913D01*
X22158Y19113D02*
X22186Y19139D01*
X22217Y19162D01*
X22250Y19182D01*
X22284Y19200D01*
X22320Y19213D01*
X22357Y19224D01*
X22395Y19231D01*
X22433Y19235D01*
X22472Y19235D01*
X22510Y19231D01*
X22548Y19224D01*
X22585Y19213D01*
X22621Y19199D01*
X22655Y19182D01*
X22688Y19162D01*
X22718Y19139D01*
X22747Y19113D01*
X22773Y19084D01*
X22796Y19053D01*
X22816Y19021D01*
X22833Y18986D01*
X22847Y18950D01*
X22857Y18913D01*
X22557Y19313D02*
X22557Y19413D01*
X22559Y19466D01*
X22565Y19520D01*
X22574Y19572D01*
X22587Y19624D01*
X22604Y19675D01*
X22625Y19724D01*
X22649Y19772D01*
X22676Y19818D01*
X22706Y19862D01*
X22740Y19904D01*
X22776Y19943D01*
X22815Y19979D01*
X22857Y20013D01*
X23557Y20813D02*
X23457Y21113D01*
X23557Y20813D02*
X23596Y20691D01*
X23630Y20568D01*
X23661Y20444D01*
X23688Y20319D01*
X23711Y20194D01*
X23730Y20067D01*
X23746Y19940D01*
X23757Y19813D01*
X23758Y19814D02*
X23763Y19765D01*
X23772Y19717D01*
X23785Y19670D01*
X23801Y19625D01*
X23820Y19580D01*
X23843Y19537D01*
X23869Y19496D01*
X23897Y19456D01*
X23929Y19420D01*
X23964Y19385D01*
X24000Y19353D01*
X24040Y19325D01*
X24081Y19299D01*
X24124Y19276D01*
X24169Y19257D01*
X24214Y19241D01*
X24261Y19228D01*
X24309Y19219D01*
X24358Y19214D01*
X24358Y19213D02*
X24518Y19200D01*
X24679Y19183D01*
X24839Y19163D01*
X24998Y19140D01*
X25157Y19113D01*
X25158Y19113D02*
X25204Y19103D01*
X25249Y19089D01*
X25293Y19072D01*
X25335Y19052D01*
X25376Y19029D01*
X25415Y19002D01*
X25452Y18973D01*
X25486Y18941D01*
X25518Y18907D01*
X25547Y18870D01*
X25574Y18831D01*
X25597Y18790D01*
X25617Y18748D01*
X25634Y18704D01*
X25648Y18659D01*
X25658Y18613D01*
X25658Y18614D02*
X25664Y18571D01*
X25666Y18527D01*
X25665Y18484D01*
X25659Y18441D01*
X25651Y18399D01*
X25639Y18357D01*
X25623Y18317D01*
X25604Y18278D01*
X25582Y18241D01*
X25557Y18205D01*
X25529Y18172D01*
X25499Y18142D01*
X25466Y18114D01*
X25430Y18089D01*
X25393Y18067D01*
X25354Y18048D01*
X25314Y18032D01*
X25272Y18020D01*
X25230Y18012D01*
X25187Y18006D01*
X25144Y18005D01*
X25100Y18007D01*
X25057Y18013D01*
X25057Y18014D02*
X25008Y18024D01*
X24960Y18038D01*
X24912Y18055D01*
X24866Y18074D01*
X24821Y18097D01*
X24777Y18122D01*
X24735Y18150D01*
X24695Y18181D01*
X24658Y18214D01*
X24658Y18213D02*
X24691Y18198D01*
X24726Y18187D01*
X24762Y18180D01*
X24798Y18176D01*
X24834Y18177D01*
X24871Y18180D01*
X24906Y18188D01*
X24941Y18199D01*
X24974Y18214D01*
X25006Y18232D01*
X25036Y18253D01*
X25063Y18278D01*
X25087Y18304D01*
X25109Y18334D01*
X25128Y18365D01*
X25143Y18398D01*
X25155Y18433D01*
X25163Y18468D01*
X25167Y18505D01*
X25168Y18541D01*
X25165Y18577D01*
X25158Y18613D01*
X20957Y23713D02*
X20957Y23913D01*
X20967Y23943D01*
X20980Y23972D01*
X20997Y23999D01*
X21016Y24024D01*
X21038Y24046D01*
X21062Y24067D01*
X21088Y24084D01*
X21116Y24098D01*
X21146Y24110D01*
X21176Y24117D01*
X21207Y24122D01*
X21239Y24123D01*
X21270Y24120D01*
X21301Y24114D01*
X21331Y24105D01*
X21360Y24092D01*
X21388Y24077D01*
X21413Y24058D01*
X21436Y24037D01*
X21457Y24013D01*
X21486Y23992D01*
X21513Y23969D01*
X21537Y23943D01*
X21558Y23915D01*
X21577Y23884D01*
X21592Y23852D01*
X21604Y23819D01*
X21613Y23784D01*
X21618Y23749D01*
X21620Y23714D01*
X21618Y23678D01*
X21613Y23643D01*
X21604Y23609D01*
X21591Y23576D01*
X21576Y23544D01*
X21557Y23514D01*
X21558Y23513D02*
X21522Y23472D01*
X21484Y23433D01*
X21444Y23397D01*
X21402Y23364D01*
X21357Y23333D01*
X21311Y23305D01*
X21263Y23280D01*
X21213Y23259D01*
X21162Y23240D01*
X21110Y23225D01*
X21058Y23213D01*
X21057Y23214D02*
X21032Y23202D01*
X21005Y23193D01*
X20977Y23188D01*
X20948Y23186D01*
X20920Y23188D01*
X20892Y23194D01*
X20865Y23203D01*
X20839Y23216D01*
X20816Y23232D01*
X20794Y23250D01*
X20776Y23272D01*
X20760Y23295D01*
X20747Y23321D01*
X20738Y23348D01*
X20732Y23376D01*
X20730Y23404D01*
X20732Y23433D01*
X20737Y23461D01*
X20746Y23488D01*
X20758Y23513D01*
X20757Y23514D02*
X20797Y23540D01*
X20835Y23569D01*
X20870Y23601D01*
X20902Y23636D01*
X20931Y23674D01*
X20957Y23714D01*
X23057Y23513D02*
X23057Y23413D01*
X23057Y23513D02*
X23059Y23543D01*
X23064Y23573D01*
X23073Y23602D01*
X23086Y23629D01*
X23101Y23655D01*
X23120Y23679D01*
X23141Y23700D01*
X23165Y23719D01*
X23191Y23734D01*
X23218Y23747D01*
X23247Y23756D01*
X23277Y23761D01*
X23307Y23763D01*
X23337Y23761D01*
X23367Y23756D01*
X23396Y23747D01*
X23423Y23734D01*
X23449Y23719D01*
X23473Y23700D01*
X23494Y23679D01*
X23513Y23655D01*
X23528Y23629D01*
X23541Y23602D01*
X23550Y23573D01*
X23555Y23543D01*
X23557Y23513D01*
X23057Y23413D02*
X23055Y23384D01*
X23050Y23356D01*
X23042Y23328D01*
X23031Y23301D01*
X23016Y23276D01*
X22999Y23253D01*
X22979Y23232D01*
X22957Y23213D01*
X22958Y23213D02*
X22927Y23187D01*
X22898Y23159D01*
X22872Y23128D01*
X22849Y23095D01*
X22829Y23060D01*
X22812Y23023D01*
X22798Y22985D01*
X22788Y22946D01*
X22782Y22907D01*
X22779Y22866D01*
X22780Y22826D01*
X22784Y22786D01*
X22792Y22747D01*
X22804Y22708D01*
X22819Y22671D01*
X22837Y22635D01*
X22859Y22601D01*
X22883Y22568D01*
X22910Y22539D01*
X22940Y22512D01*
X22972Y22487D01*
X23006Y22466D01*
X23042Y22448D01*
X23080Y22433D01*
X23118Y22421D01*
X23158Y22413D01*
X23157Y22413D02*
X23184Y22411D01*
X23210Y22412D01*
X23236Y22417D01*
X23261Y22426D01*
X23285Y22438D01*
X23307Y22453D01*
X23326Y22470D01*
X23343Y22491D01*
X23357Y22513D01*
X23358Y22513D02*
X23400Y22553D01*
X23439Y22595D01*
X23476Y22640D01*
X23509Y22687D01*
X23538Y22737D01*
X23565Y22788D01*
X23587Y22841D01*
X23606Y22896D01*
X23622Y22951D01*
X23633Y23008D01*
X23640Y23065D01*
X23644Y23123D01*
X23643Y23181D01*
X23639Y23238D01*
X23630Y23295D01*
X23618Y23352D01*
X23602Y23407D01*
X23582Y23461D01*
X23558Y23514D01*
X21357Y22613D02*
X21257Y22713D01*
X21358Y22614D02*
X21401Y22573D01*
X21447Y22535D01*
X21494Y22500D01*
X21544Y22467D01*
X21596Y22438D01*
X21650Y22412D01*
X21705Y22389D01*
X21761Y22370D01*
X21818Y22354D01*
X21876Y22342D01*
X21935Y22333D01*
X21994Y22328D01*
X22054Y22326D01*
X22113Y22328D01*
X22172Y22333D01*
X22231Y22342D01*
X22289Y22355D01*
X22346Y22371D01*
X22403Y22391D01*
X22458Y22414D01*
X22457Y22413D02*
X22485Y22424D01*
X22513Y22431D01*
X22542Y22435D01*
X22572Y22435D01*
X22601Y22431D01*
X22629Y22424D01*
X22657Y22413D01*
X21457Y22713D02*
X21357Y22713D01*
X21457Y22713D02*
X21486Y22715D01*
X21514Y22720D01*
X21542Y22728D01*
X21569Y22739D01*
X21594Y22754D01*
X21617Y22771D01*
X21638Y22791D01*
X21657Y22813D01*
X21658Y22814D02*
X21677Y22837D01*
X21699Y22858D01*
X21724Y22877D01*
X21750Y22893D01*
X21778Y22905D01*
X21807Y22915D01*
X21837Y22922D01*
X21867Y22925D01*
X21898Y22924D01*
X21928Y22921D01*
X21958Y22914D01*
X22022Y22893D01*
X22085Y22869D01*
X22147Y22842D01*
X22207Y22812D01*
X22266Y22779D01*
X22323Y22743D01*
X22378Y22703D01*
X22430Y22661D01*
X22481Y22617D01*
X22529Y22569D01*
X22575Y22520D01*
X22618Y22468D01*
X22658Y22414D01*
D12*
X21657Y21913D02*
X21603Y21902D01*
X21548Y21895D01*
X21492Y21892D01*
X21437Y21893D01*
X21381Y21897D01*
X21326Y21905D01*
X21272Y21917D01*
X21218Y21933D01*
X21166Y21952D01*
X21115Y21974D01*
X21066Y22000D01*
X21019Y22030D01*
X20974Y22062D01*
X20931Y22097D01*
X20890Y22136D01*
X20853Y22176D01*
X20818Y22220D01*
X20786Y22265D01*
X20757Y22313D01*
X21657Y21914D02*
X21719Y21882D01*
X21781Y21854D01*
X21846Y21829D01*
X21911Y21807D01*
X21978Y21789D01*
X22046Y21775D01*
X22114Y21765D01*
X22183Y21759D01*
X22252Y21756D01*
X22321Y21757D01*
X22390Y21762D01*
X22458Y21771D01*
X22526Y21784D01*
X22593Y21800D01*
X22659Y21821D01*
X22724Y21844D01*
X22787Y21872D01*
X22849Y21902D01*
X22909Y21937D01*
X22967Y21974D01*
D10*
X22247Y21674D02*
X22227Y21633D01*
X22204Y21595D01*
X22178Y21559D01*
X22148Y21525D01*
X22116Y21494D01*
X22081Y21466D01*
X22043Y21441D01*
X22004Y21419D01*
X21963Y21401D01*
X21921Y21386D01*
X21877Y21375D01*
X21833Y21368D01*
X21788Y21365D01*
X21743Y21366D01*
X21699Y21371D01*
X21655Y21379D01*
X21611Y21391D01*
X21570Y21407D01*
X21529Y21427D01*
X21491Y21450D01*
X21454Y21476D01*
X21420Y21505D01*
X21389Y21537D01*
X21360Y21572D01*
X21335Y21609D01*
X21313Y21648D01*
X21294Y21689D01*
X21279Y21731D01*
X21268Y21775D01*
X21261Y21819D01*
X21257Y21864D01*
X7862Y25413D02*
X7862Y25913D01*
X7860Y25977D01*
X7855Y26042D01*
X7846Y26105D01*
X7833Y26169D01*
X7816Y26231D01*
X7797Y26292D01*
X7773Y26352D01*
X7747Y26411D01*
X7717Y26468D01*
X7684Y26523D01*
X7647Y26577D01*
X7608Y26628D01*
X7566Y26677D01*
X7521Y26723D01*
X7474Y26767D01*
X7424Y26808D01*
X7372Y26846D01*
X7318Y26881D01*
X7262Y26913D01*
X7231Y26928D01*
X7198Y26939D01*
X7164Y26947D01*
X7129Y26951D01*
X7095Y26951D01*
X7060Y26947D01*
X7026Y26939D01*
X6993Y26928D01*
X6962Y26913D01*
X6842Y26851D01*
X6721Y26793D01*
X6598Y26737D01*
X6473Y26686D01*
X6347Y26637D01*
X6220Y26592D01*
X6091Y26551D01*
X5962Y26513D01*
X5962Y26514D02*
X5928Y26502D01*
X5894Y26487D01*
X5863Y26468D01*
X5834Y26445D01*
X5807Y26420D01*
X5783Y26392D01*
X5763Y26362D01*
X5746Y26330D01*
X5732Y26296D01*
X5722Y26260D01*
X5716Y26224D01*
X5714Y26188D01*
X5716Y26151D01*
X5722Y26115D01*
X5731Y26080D01*
X5745Y26046D01*
X5762Y26013D01*
X5794Y25963D01*
X5830Y25914D01*
X5869Y25869D01*
X5911Y25826D01*
X5955Y25785D01*
X6002Y25748D01*
X6052Y25714D01*
X6103Y25683D01*
X6157Y25656D01*
X6212Y25632D01*
X6268Y25612D01*
X6326Y25596D01*
X6385Y25584D01*
X6444Y25575D01*
X6504Y25571D01*
X6564Y25570D01*
X6624Y25574D01*
X6683Y25581D01*
X6742Y25592D01*
X6800Y25607D01*
X6857Y25626D01*
X6913Y25649D01*
X6967Y25675D01*
X7019Y25704D01*
X7069Y25737D01*
X7117Y25774D01*
X7162Y25813D01*
X7062Y24913D02*
X7162Y24813D01*
X7062Y24913D02*
X7030Y24948D01*
X7001Y24985D01*
X6975Y25024D01*
X6952Y25066D01*
X6933Y25109D01*
X6917Y25153D01*
X6905Y25199D01*
X6897Y25246D01*
X6893Y25293D01*
X6892Y25340D01*
X6896Y25387D01*
X6903Y25434D01*
X6914Y25480D01*
X6928Y25525D01*
X6946Y25568D01*
X6968Y25610D01*
X6993Y25650D01*
X7021Y25688D01*
X7053Y25724D01*
X7087Y25756D01*
X7123Y25786D01*
X7162Y25813D01*
X7962Y25413D02*
X8062Y25513D01*
X8127Y25576D01*
X8195Y25635D01*
X8265Y25691D01*
X8338Y25745D01*
X8413Y25795D01*
X8490Y25841D01*
X8569Y25885D01*
X8650Y25924D01*
X8732Y25960D01*
X8816Y25993D01*
X8902Y26022D01*
X8988Y26047D01*
X9076Y26068D01*
X9164Y26085D01*
X9254Y26098D01*
X9343Y26108D01*
X9433Y26113D01*
X9523Y26115D01*
X9613Y26113D01*
X9703Y26106D01*
X9793Y26096D01*
X9882Y26082D01*
X9970Y26064D01*
X10058Y26042D01*
X10144Y26016D01*
X10229Y25986D01*
X10313Y25953D01*
X10395Y25916D01*
X10476Y25876D01*
X10554Y25832D01*
X10631Y25785D01*
X10706Y25734D01*
X10778Y25680D01*
X10848Y25623D01*
X10915Y25563D01*
X10980Y25500D01*
X11041Y25434D01*
X11100Y25366D01*
X11156Y25295D01*
X11208Y25222D01*
X11258Y25147D01*
X11304Y25069D01*
X11346Y24990D01*
X11385Y24908D01*
X11420Y24825D01*
X11452Y24741D01*
X11480Y24655D01*
X11504Y24569D01*
X11525Y24481D01*
X11541Y24392D01*
X11554Y24303D01*
X11562Y24213D01*
X11762Y23213D02*
X11662Y23113D01*
X11627Y23076D01*
X11595Y23037D01*
X11566Y22996D01*
X11539Y22952D01*
X11516Y22907D01*
X11495Y22861D01*
X11478Y22813D01*
X11464Y22765D01*
X11454Y22715D01*
X11446Y22665D01*
X11443Y22614D01*
X11442Y22564D01*
X11445Y22513D01*
X11452Y22463D01*
X11462Y22413D01*
X11462Y22414D02*
X11469Y22393D01*
X11479Y22374D01*
X11491Y22357D01*
X11506Y22342D01*
X11523Y22330D01*
X11542Y22320D01*
X11563Y22313D01*
X11562Y22314D02*
X11625Y22301D01*
X11688Y22292D01*
X11751Y22287D01*
X11814Y22286D01*
X11878Y22289D01*
X11941Y22295D01*
X12004Y22305D01*
X12066Y22319D01*
X12127Y22336D01*
X12187Y22357D01*
X12246Y22382D01*
X12303Y22410D01*
X12358Y22441D01*
X12411Y22476D01*
X12462Y22514D01*
X12462Y22513D02*
X12482Y22531D01*
X12499Y22551D01*
X12513Y22574D01*
X12524Y22598D01*
X12531Y22623D01*
X12535Y22650D01*
X12535Y22676D01*
X12531Y22703D01*
X12524Y22728D01*
X12513Y22752D01*
X12499Y22775D01*
X12482Y22795D01*
X12462Y22813D01*
X12462Y22814D02*
X12428Y22843D01*
X12397Y22874D01*
X12368Y22908D01*
X12341Y22944D01*
X12318Y22982D01*
X12297Y23021D01*
X12280Y23062D01*
X12266Y23105D01*
X12255Y23148D01*
X12248Y23192D01*
X12244Y23236D01*
X12243Y23281D01*
X12246Y23326D01*
X12253Y23370D01*
X12262Y23413D01*
X12262Y23414D02*
X12275Y23469D01*
X12284Y23526D01*
X12290Y23583D01*
X12291Y23640D01*
X12289Y23698D01*
X12282Y23755D01*
X12272Y23811D01*
X12258Y23867D01*
X12241Y23921D01*
X12219Y23975D01*
X12194Y24026D01*
X12166Y24076D01*
X12135Y24124D01*
X12100Y24170D01*
X12062Y24213D01*
X12037Y24238D01*
X12009Y24259D01*
X11980Y24278D01*
X11948Y24294D01*
X11915Y24306D01*
X11882Y24315D01*
X11847Y24320D01*
X11812Y24322D01*
X11777Y24320D01*
X11742Y24315D01*
X11709Y24306D01*
X11676Y24294D01*
X11644Y24278D01*
X11615Y24259D01*
X11587Y24238D01*
X11562Y24213D01*
X6962Y22713D02*
X6862Y22513D01*
X6962Y22713D02*
X6978Y22749D01*
X6990Y22786D01*
X6999Y22825D01*
X7004Y22863D01*
X7006Y22903D01*
X7004Y22942D01*
X6998Y22980D01*
X6988Y23018D01*
X6975Y23055D01*
X6959Y23091D01*
X6939Y23125D01*
X6916Y23157D01*
X6891Y23186D01*
X6862Y23213D01*
X6838Y23236D01*
X6817Y23261D01*
X6799Y23288D01*
X6785Y23318D01*
X6774Y23349D01*
X6766Y23380D01*
X6762Y23413D01*
X6762Y23414D02*
X6758Y23501D01*
X6757Y23588D01*
X6760Y23676D01*
X6767Y23763D01*
X6777Y23850D01*
X6790Y23936D01*
X6807Y24022D01*
X6828Y24107D01*
X6852Y24191D01*
X6879Y24274D01*
X6910Y24356D01*
X6944Y24436D01*
X6981Y24515D01*
X7022Y24592D01*
X7066Y24668D01*
X7112Y24742D01*
X7162Y24814D01*
X6862Y22514D02*
X6849Y22482D01*
X6839Y22449D01*
X6832Y22415D01*
X6829Y22381D01*
X6830Y22346D01*
X6835Y22312D01*
X6843Y22278D01*
X6855Y22246D01*
X6871Y22215D01*
X6889Y22186D01*
X6911Y22159D01*
X6935Y22135D01*
X6963Y22113D01*
X6962Y22113D02*
X7158Y21970D01*
X7352Y21822D01*
X7542Y21669D01*
X7727Y21512D01*
X7910Y21350D01*
X8088Y21184D01*
X8262Y21013D01*
X8263Y21014D02*
X8304Y20975D01*
X8349Y20938D01*
X8395Y20905D01*
X8444Y20875D01*
X8494Y20848D01*
X8547Y20825D01*
X8601Y20805D01*
X8655Y20789D01*
X8711Y20777D01*
X8768Y20768D01*
X8825Y20763D01*
X8882Y20762D01*
X8939Y20765D01*
X8996Y20772D01*
X9053Y20782D01*
X9108Y20796D01*
X9163Y20814D01*
X9163Y20813D02*
X9336Y20874D01*
X9510Y20931D01*
X9686Y20984D01*
X9863Y21032D01*
X10041Y21077D01*
X10220Y21117D01*
X10400Y21153D01*
X10581Y21185D01*
X10762Y21213D01*
X10763Y21214D02*
X10791Y21220D01*
X10819Y21229D01*
X10845Y21242D01*
X10869Y21257D01*
X10892Y21275D01*
X10912Y21296D01*
X10930Y21319D01*
X10944Y21344D01*
X10956Y21371D01*
X10964Y21399D01*
X10969Y21427D01*
X10970Y21456D01*
X10968Y21485D01*
X10962Y21514D01*
X10963Y21514D02*
X10953Y21560D01*
X10946Y21608D01*
X10944Y21656D01*
X10946Y21703D01*
X10951Y21751D01*
X10961Y21798D01*
X10974Y21843D01*
X10991Y21888D01*
X11011Y21931D01*
X11035Y21972D01*
X11063Y22012D01*
X11093Y22048D01*
X11127Y22082D01*
X11163Y22114D01*
X11162Y22113D02*
X11202Y22148D01*
X11240Y22185D01*
X11276Y22225D01*
X11309Y22267D01*
X11339Y22311D01*
X11366Y22356D01*
X11389Y22404D01*
X11410Y22453D01*
X11427Y22503D01*
X11441Y22555D01*
X11451Y22607D01*
X11458Y22660D01*
X11462Y22713D01*
X8562Y25213D02*
X8362Y25113D01*
X8562Y25214D02*
X8594Y25227D01*
X8627Y25237D01*
X8661Y25244D01*
X8695Y25247D01*
X8730Y25246D01*
X8764Y25241D01*
X8798Y25233D01*
X8830Y25221D01*
X8861Y25205D01*
X8890Y25187D01*
X8917Y25165D01*
X8941Y25141D01*
X8963Y25113D01*
X10562Y24713D02*
X10662Y24713D01*
X10662Y24714D02*
X10700Y24712D01*
X10738Y24707D01*
X10776Y24698D01*
X10812Y24686D01*
X10847Y24671D01*
X10881Y24652D01*
X10912Y24631D01*
X10942Y24606D01*
X10969Y24579D01*
X10994Y24550D01*
X11015Y24518D01*
X11034Y24485D01*
X11050Y24450D01*
X11062Y24414D01*
D11*
X10462Y24213D02*
X10362Y24113D01*
X10462Y24213D02*
X10486Y24234D01*
X10511Y24253D01*
X10539Y24268D01*
X10569Y24280D01*
X10599Y24289D01*
X10630Y24294D01*
X10662Y24296D01*
X10694Y24294D01*
X10725Y24289D01*
X10755Y24280D01*
X10785Y24268D01*
X10813Y24253D01*
X10838Y24234D01*
X10862Y24213D01*
X10896Y24176D01*
X10928Y24137D01*
X10957Y24095D01*
X10982Y24052D01*
X11005Y24007D01*
X11024Y23960D01*
X11040Y23913D01*
X11053Y23864D01*
X11062Y23814D01*
X11067Y23764D01*
X11069Y23714D01*
X11067Y23663D01*
X11062Y23613D01*
X8262Y24613D02*
X8062Y24413D01*
X8262Y24613D02*
X8291Y24639D01*
X8322Y24663D01*
X8356Y24683D01*
X8391Y24701D01*
X8427Y24715D01*
X8465Y24726D01*
X8503Y24733D01*
X8542Y24737D01*
X8582Y24737D01*
X8621Y24733D01*
X8659Y24726D01*
X8697Y24715D01*
X8733Y24701D01*
X8768Y24683D01*
X8802Y24663D01*
X8833Y24639D01*
X8862Y24613D01*
D10*
X7562Y21513D02*
X7562Y21313D01*
X7564Y21237D01*
X7568Y21160D01*
X7576Y21084D01*
X7587Y21009D01*
X7601Y20934D01*
X7618Y20859D01*
X7639Y20786D01*
X7662Y20713D01*
X7667Y20693D01*
X7670Y20673D01*
X7670Y20653D01*
X7667Y20633D01*
X7662Y20613D01*
X7641Y20558D01*
X7617Y20505D01*
X7590Y20453D01*
X7560Y20403D01*
X7527Y20355D01*
X7491Y20308D01*
X7452Y20265D01*
X7410Y20223D01*
X7367Y20184D01*
X7320Y20148D01*
X7272Y20115D01*
X7222Y20085D01*
X7170Y20058D01*
X7117Y20034D01*
X7062Y20013D01*
X7062Y20014D02*
X7029Y20004D01*
X6996Y19999D01*
X6962Y19997D01*
X6928Y19999D01*
X6895Y20004D01*
X6862Y20014D01*
X6862Y20013D02*
X6812Y20029D01*
X6760Y20040D01*
X6708Y20048D01*
X6656Y20053D01*
X6603Y20054D01*
X6551Y20051D01*
X6498Y20045D01*
X6447Y20035D01*
X6396Y20021D01*
X6346Y20004D01*
X6298Y19983D01*
X6251Y19959D01*
X6206Y19932D01*
X6163Y19902D01*
X6122Y19869D01*
X6083Y19833D01*
X6047Y19795D01*
X6014Y19754D01*
X5984Y19711D01*
X5957Y19666D01*
X5933Y19619D01*
X5912Y19570D01*
X5895Y19521D01*
X5882Y19470D01*
X5871Y19418D01*
X5865Y19366D01*
X5862Y19313D01*
X5863Y19314D02*
X5868Y19287D01*
X5877Y19260D01*
X5888Y19235D01*
X5902Y19212D01*
X5919Y19190D01*
X5939Y19170D01*
X5961Y19153D01*
X5984Y19139D01*
X6009Y19128D01*
X6036Y19119D01*
X6063Y19114D01*
X6062Y19113D02*
X6048Y19096D01*
X6036Y19077D01*
X6028Y19057D01*
X6023Y19035D01*
X6021Y19013D01*
X6023Y18991D01*
X6028Y18969D01*
X6036Y18949D01*
X6048Y18930D01*
X6062Y18913D01*
X6094Y18884D01*
X6128Y18857D01*
X6164Y18834D01*
X6202Y18813D01*
X6242Y18796D01*
X6283Y18782D01*
X6325Y18771D01*
X6367Y18764D01*
X6411Y18760D01*
X6454Y18760D01*
X6497Y18764D01*
X6539Y18771D01*
X6581Y18782D01*
X6622Y18796D01*
X6662Y18813D01*
X6662Y18814D02*
X6705Y18836D01*
X6745Y18862D01*
X6784Y18891D01*
X6820Y18922D01*
X6854Y18956D01*
X6885Y18992D01*
X6914Y19031D01*
X6940Y19071D01*
X6962Y19114D01*
X6986Y19158D01*
X7014Y19202D01*
X7044Y19243D01*
X7077Y19281D01*
X7113Y19318D01*
X7151Y19351D01*
X7191Y19382D01*
X7234Y19410D01*
X7279Y19435D01*
X7325Y19456D01*
X7372Y19474D01*
X7421Y19489D01*
X7471Y19500D01*
X7521Y19508D01*
X7572Y19511D01*
X7623Y19512D01*
X7674Y19508D01*
X7724Y19501D01*
X7774Y19491D01*
X7823Y19476D01*
X7871Y19459D01*
X7917Y19438D01*
X7962Y19413D01*
X7862Y19413D02*
X7962Y19613D01*
X7963Y19613D02*
X7976Y19645D01*
X7986Y19678D01*
X7993Y19712D01*
X7996Y19746D01*
X7995Y19781D01*
X7990Y19815D01*
X7982Y19849D01*
X7970Y19881D01*
X7954Y19912D01*
X7936Y19941D01*
X7914Y19968D01*
X7890Y19992D01*
X7862Y20014D01*
X7962Y19613D02*
X8362Y20013D01*
X6862Y18913D02*
X6762Y18713D01*
X6751Y18688D01*
X6743Y18662D01*
X6739Y18636D01*
X6738Y18609D01*
X6740Y18582D01*
X6746Y18555D01*
X6754Y18529D01*
X6766Y18505D01*
X6780Y18482D01*
X6797Y18461D01*
X6817Y18442D01*
X6838Y18426D01*
X6862Y18413D01*
X6900Y18396D01*
X6939Y18383D01*
X6980Y18374D01*
X7021Y18368D01*
X7062Y18366D01*
X7103Y18368D01*
X7144Y18374D01*
X7185Y18383D01*
X7224Y18396D01*
X7262Y18413D01*
X7362Y18313D01*
X7362Y18314D02*
X7402Y18270D01*
X7445Y18230D01*
X7490Y18192D01*
X7537Y18157D01*
X7586Y18125D01*
X7638Y18097D01*
X7691Y18072D01*
X7745Y18050D01*
X7801Y18032D01*
X7858Y18017D01*
X7916Y18006D01*
X7974Y17998D01*
X8033Y17994D01*
X8091Y17994D01*
X8150Y17998D01*
X8208Y18006D01*
X8266Y18017D01*
X8323Y18032D01*
X8379Y18050D01*
X8433Y18072D01*
X8486Y18097D01*
X8538Y18125D01*
X8587Y18157D01*
X8634Y18192D01*
X8679Y18230D01*
X8722Y18270D01*
X8762Y18314D01*
X8826Y18403D01*
X8888Y18494D01*
X8946Y18587D01*
X9001Y18682D01*
X9052Y18779D01*
X9101Y18878D01*
X9146Y18978D01*
X9187Y19080D01*
X9225Y19183D01*
X9260Y19287D01*
X9291Y19392D01*
X9318Y19499D01*
X9342Y19606D01*
X9362Y19714D01*
X8762Y18213D02*
X8962Y18113D01*
X8989Y18104D01*
X9018Y18098D01*
X9046Y18095D01*
X9075Y18096D01*
X9103Y18100D01*
X9131Y18107D01*
X9157Y18118D01*
X9183Y18132D01*
X9206Y18148D01*
X9227Y18168D01*
X9246Y18189D01*
X9262Y18213D01*
X9262Y18113D02*
X9462Y18013D01*
X9528Y17982D01*
X9596Y17955D01*
X9665Y17931D01*
X9735Y17911D01*
X9806Y17894D01*
X9878Y17881D01*
X9951Y17872D01*
X10024Y17867D01*
X10097Y17866D01*
X10170Y17869D01*
X10243Y17875D01*
X10315Y17885D01*
X10387Y17899D01*
X10458Y17917D01*
X10528Y17938D01*
X10597Y17963D01*
X10664Y17992D01*
X10730Y18024D01*
X10794Y18060D01*
X10856Y18098D01*
X10916Y18140D01*
X10973Y18186D01*
X11028Y18234D01*
X11081Y18284D01*
X11131Y18338D01*
X11177Y18394D01*
X11221Y18453D01*
X11262Y18513D01*
X11278Y18541D01*
X11289Y18570D01*
X11298Y18601D01*
X11302Y18632D01*
X11303Y18663D01*
X11300Y18695D01*
X11293Y18726D01*
X11282Y18755D01*
X11268Y18784D01*
X11251Y18810D01*
X11230Y18834D01*
X11207Y18855D01*
X11181Y18874D01*
X11153Y18889D01*
X11124Y18901D01*
X11094Y18909D01*
X11062Y18913D01*
X11262Y18713D02*
X11462Y18613D01*
X11511Y18591D01*
X11561Y18572D01*
X11612Y18557D01*
X11664Y18546D01*
X11717Y18539D01*
X11771Y18536D01*
X11824Y18537D01*
X11877Y18542D01*
X11930Y18550D01*
X11982Y18563D01*
X12033Y18579D01*
X12082Y18599D01*
X12130Y18622D01*
X12176Y18649D01*
X12220Y18679D01*
X12262Y18713D01*
X12263Y18714D02*
X12276Y18723D01*
X12291Y18729D01*
X12308Y18731D01*
X12324Y18729D01*
X12339Y18724D01*
X12353Y18716D01*
X12365Y18704D01*
X12373Y18690D01*
X12378Y18675D01*
X12380Y18659D01*
X12378Y18642D01*
X12372Y18627D01*
X12363Y18614D01*
X9362Y19113D02*
X9162Y18913D01*
X9363Y19113D02*
X9391Y19139D01*
X9422Y19162D01*
X9455Y19182D01*
X9489Y19200D01*
X9525Y19213D01*
X9562Y19224D01*
X9600Y19231D01*
X9638Y19235D01*
X9677Y19235D01*
X9715Y19231D01*
X9753Y19224D01*
X9790Y19213D01*
X9826Y19199D01*
X9860Y19182D01*
X9893Y19162D01*
X9923Y19139D01*
X9952Y19113D01*
X9978Y19084D01*
X10001Y19053D01*
X10021Y19021D01*
X10038Y18986D01*
X10052Y18950D01*
X10062Y18913D01*
X9762Y19313D02*
X9762Y19413D01*
X9764Y19466D01*
X9770Y19520D01*
X9779Y19572D01*
X9792Y19624D01*
X9809Y19675D01*
X9830Y19724D01*
X9854Y19772D01*
X9881Y19818D01*
X9911Y19862D01*
X9945Y19904D01*
X9981Y19943D01*
X10020Y19979D01*
X10062Y20013D01*
X10762Y20813D02*
X10662Y21113D01*
X10762Y20813D02*
X10801Y20691D01*
X10835Y20568D01*
X10866Y20444D01*
X10893Y20319D01*
X10916Y20194D01*
X10935Y20067D01*
X10951Y19940D01*
X10962Y19813D01*
X10963Y19814D02*
X10968Y19765D01*
X10977Y19717D01*
X10990Y19670D01*
X11006Y19625D01*
X11025Y19580D01*
X11048Y19537D01*
X11074Y19496D01*
X11102Y19456D01*
X11134Y19420D01*
X11169Y19385D01*
X11205Y19353D01*
X11245Y19325D01*
X11286Y19299D01*
X11329Y19276D01*
X11374Y19257D01*
X11419Y19241D01*
X11466Y19228D01*
X11514Y19219D01*
X11563Y19214D01*
X11563Y19213D02*
X11723Y19200D01*
X11884Y19183D01*
X12044Y19163D01*
X12203Y19140D01*
X12362Y19113D01*
X12408Y19103D01*
X12453Y19089D01*
X12497Y19072D01*
X12539Y19052D01*
X12580Y19029D01*
X12619Y19002D01*
X12656Y18973D01*
X12690Y18941D01*
X12722Y18907D01*
X12751Y18870D01*
X12778Y18831D01*
X12801Y18790D01*
X12821Y18748D01*
X12838Y18704D01*
X12852Y18659D01*
X12862Y18613D01*
X12863Y18614D02*
X12869Y18571D01*
X12871Y18527D01*
X12870Y18484D01*
X12864Y18441D01*
X12856Y18399D01*
X12844Y18357D01*
X12828Y18317D01*
X12809Y18278D01*
X12787Y18241D01*
X12762Y18205D01*
X12734Y18172D01*
X12704Y18142D01*
X12671Y18114D01*
X12635Y18089D01*
X12598Y18067D01*
X12559Y18048D01*
X12519Y18032D01*
X12477Y18020D01*
X12435Y18012D01*
X12392Y18006D01*
X12349Y18005D01*
X12305Y18007D01*
X12262Y18013D01*
X12262Y18014D02*
X12213Y18024D01*
X12165Y18038D01*
X12117Y18055D01*
X12071Y18074D01*
X12026Y18097D01*
X11982Y18122D01*
X11940Y18150D01*
X11900Y18181D01*
X11863Y18214D01*
X11863Y18213D02*
X11896Y18198D01*
X11931Y18187D01*
X11967Y18180D01*
X12003Y18176D01*
X12039Y18177D01*
X12076Y18180D01*
X12111Y18188D01*
X12146Y18199D01*
X12179Y18214D01*
X12211Y18232D01*
X12241Y18253D01*
X12268Y18278D01*
X12292Y18304D01*
X12314Y18334D01*
X12333Y18365D01*
X12348Y18398D01*
X12360Y18433D01*
X12368Y18468D01*
X12372Y18505D01*
X12373Y18541D01*
X12370Y18577D01*
X12363Y18613D01*
X8162Y23713D02*
X8162Y23913D01*
X8172Y23943D01*
X8185Y23972D01*
X8202Y23999D01*
X8221Y24024D01*
X8243Y24046D01*
X8267Y24067D01*
X8293Y24084D01*
X8321Y24098D01*
X8351Y24110D01*
X8381Y24117D01*
X8412Y24122D01*
X8444Y24123D01*
X8475Y24120D01*
X8506Y24114D01*
X8536Y24105D01*
X8565Y24092D01*
X8593Y24077D01*
X8618Y24058D01*
X8641Y24037D01*
X8662Y24013D01*
X8691Y23992D01*
X8718Y23969D01*
X8742Y23943D01*
X8763Y23915D01*
X8782Y23884D01*
X8797Y23852D01*
X8809Y23819D01*
X8818Y23784D01*
X8823Y23749D01*
X8825Y23714D01*
X8823Y23678D01*
X8818Y23643D01*
X8809Y23609D01*
X8796Y23576D01*
X8781Y23544D01*
X8762Y23514D01*
X8763Y23513D02*
X8727Y23472D01*
X8689Y23433D01*
X8649Y23397D01*
X8607Y23364D01*
X8562Y23333D01*
X8516Y23305D01*
X8468Y23280D01*
X8418Y23259D01*
X8367Y23240D01*
X8315Y23225D01*
X8263Y23213D01*
X8262Y23214D02*
X8237Y23202D01*
X8210Y23193D01*
X8182Y23188D01*
X8153Y23186D01*
X8125Y23188D01*
X8097Y23194D01*
X8070Y23203D01*
X8044Y23216D01*
X8021Y23232D01*
X7999Y23250D01*
X7981Y23272D01*
X7965Y23295D01*
X7952Y23321D01*
X7943Y23348D01*
X7937Y23376D01*
X7935Y23404D01*
X7937Y23433D01*
X7942Y23461D01*
X7951Y23488D01*
X7963Y23513D01*
X7962Y23514D02*
X8002Y23540D01*
X8040Y23569D01*
X8075Y23601D01*
X8107Y23636D01*
X8136Y23674D01*
X8162Y23714D01*
X10262Y23513D02*
X10262Y23413D01*
X10262Y23513D02*
X10264Y23543D01*
X10269Y23573D01*
X10278Y23602D01*
X10291Y23629D01*
X10306Y23655D01*
X10325Y23679D01*
X10346Y23700D01*
X10370Y23719D01*
X10396Y23734D01*
X10423Y23747D01*
X10452Y23756D01*
X10482Y23761D01*
X10512Y23763D01*
X10542Y23761D01*
X10572Y23756D01*
X10601Y23747D01*
X10628Y23734D01*
X10654Y23719D01*
X10678Y23700D01*
X10699Y23679D01*
X10718Y23655D01*
X10733Y23629D01*
X10746Y23602D01*
X10755Y23573D01*
X10760Y23543D01*
X10762Y23513D01*
X10262Y23413D02*
X10260Y23384D01*
X10255Y23356D01*
X10247Y23328D01*
X10236Y23301D01*
X10221Y23276D01*
X10204Y23253D01*
X10184Y23232D01*
X10162Y23213D01*
X10163Y23213D02*
X10132Y23187D01*
X10103Y23159D01*
X10077Y23128D01*
X10054Y23095D01*
X10034Y23060D01*
X10017Y23023D01*
X10003Y22985D01*
X9993Y22946D01*
X9987Y22907D01*
X9984Y22866D01*
X9985Y22826D01*
X9989Y22786D01*
X9997Y22747D01*
X10009Y22708D01*
X10024Y22671D01*
X10042Y22635D01*
X10064Y22601D01*
X10088Y22568D01*
X10115Y22539D01*
X10145Y22512D01*
X10177Y22487D01*
X10211Y22466D01*
X10247Y22448D01*
X10285Y22433D01*
X10323Y22421D01*
X10363Y22413D01*
X10362Y22413D02*
X10389Y22411D01*
X10415Y22412D01*
X10441Y22417D01*
X10466Y22426D01*
X10490Y22438D01*
X10512Y22453D01*
X10531Y22470D01*
X10548Y22491D01*
X10562Y22513D01*
X10563Y22513D02*
X10605Y22553D01*
X10644Y22595D01*
X10681Y22640D01*
X10714Y22687D01*
X10743Y22737D01*
X10770Y22788D01*
X10792Y22841D01*
X10811Y22896D01*
X10827Y22951D01*
X10838Y23008D01*
X10845Y23065D01*
X10849Y23123D01*
X10848Y23181D01*
X10844Y23238D01*
X10835Y23295D01*
X10823Y23352D01*
X10807Y23407D01*
X10787Y23461D01*
X10763Y23514D01*
X8562Y22613D02*
X8462Y22713D01*
X8563Y22614D02*
X8606Y22573D01*
X8652Y22535D01*
X8699Y22500D01*
X8749Y22467D01*
X8801Y22438D01*
X8855Y22412D01*
X8910Y22389D01*
X8966Y22370D01*
X9023Y22354D01*
X9081Y22342D01*
X9140Y22333D01*
X9199Y22328D01*
X9259Y22326D01*
X9318Y22328D01*
X9377Y22333D01*
X9436Y22342D01*
X9494Y22355D01*
X9551Y22371D01*
X9608Y22391D01*
X9663Y22414D01*
X9662Y22413D02*
X9690Y22424D01*
X9718Y22431D01*
X9747Y22435D01*
X9777Y22435D01*
X9806Y22431D01*
X9834Y22424D01*
X9862Y22413D01*
X8662Y22713D02*
X8562Y22713D01*
X8662Y22713D02*
X8691Y22715D01*
X8719Y22720D01*
X8747Y22728D01*
X8774Y22739D01*
X8799Y22754D01*
X8822Y22771D01*
X8843Y22791D01*
X8862Y22813D01*
X8862Y22814D02*
X8881Y22837D01*
X8903Y22858D01*
X8928Y22877D01*
X8954Y22893D01*
X8982Y22905D01*
X9011Y22915D01*
X9041Y22922D01*
X9071Y22925D01*
X9102Y22924D01*
X9132Y22921D01*
X9162Y22914D01*
X9226Y22893D01*
X9289Y22869D01*
X9351Y22842D01*
X9411Y22812D01*
X9470Y22779D01*
X9527Y22743D01*
X9582Y22703D01*
X9634Y22661D01*
X9685Y22617D01*
X9733Y22569D01*
X9779Y22520D01*
X9822Y22468D01*
X9862Y22414D01*
D12*
X8862Y21913D02*
X8808Y21902D01*
X8753Y21895D01*
X8697Y21892D01*
X8642Y21893D01*
X8586Y21897D01*
X8531Y21905D01*
X8477Y21917D01*
X8423Y21933D01*
X8371Y21952D01*
X8320Y21974D01*
X8271Y22000D01*
X8224Y22030D01*
X8179Y22062D01*
X8136Y22097D01*
X8095Y22136D01*
X8058Y22176D01*
X8023Y22220D01*
X7991Y22265D01*
X7962Y22313D01*
X8862Y21914D02*
X8924Y21882D01*
X8986Y21854D01*
X9051Y21829D01*
X9116Y21807D01*
X9183Y21789D01*
X9251Y21775D01*
X9319Y21765D01*
X9388Y21759D01*
X9457Y21756D01*
X9526Y21757D01*
X9595Y21762D01*
X9663Y21771D01*
X9731Y21784D01*
X9798Y21800D01*
X9864Y21821D01*
X9929Y21844D01*
X9992Y21872D01*
X10054Y21902D01*
X10114Y21937D01*
X10172Y21974D01*
D10*
X9452Y21674D02*
X9432Y21633D01*
X9409Y21595D01*
X9383Y21559D01*
X9353Y21525D01*
X9321Y21494D01*
X9286Y21466D01*
X9248Y21441D01*
X9209Y21419D01*
X9168Y21401D01*
X9126Y21386D01*
X9082Y21375D01*
X9038Y21368D01*
X8993Y21365D01*
X8948Y21366D01*
X8904Y21371D01*
X8860Y21379D01*
X8816Y21391D01*
X8775Y21407D01*
X8734Y21427D01*
X8696Y21450D01*
X8659Y21476D01*
X8625Y21505D01*
X8594Y21537D01*
X8565Y21572D01*
X8540Y21609D01*
X8518Y21648D01*
X8499Y21689D01*
X8484Y21731D01*
X8473Y21775D01*
X8466Y21819D01*
X8462Y21864D01*
X20623Y13361D02*
X20623Y12861D01*
X20623Y13361D02*
X20621Y13425D01*
X20616Y13490D01*
X20607Y13553D01*
X20594Y13617D01*
X20577Y13679D01*
X20558Y13740D01*
X20534Y13800D01*
X20508Y13859D01*
X20478Y13916D01*
X20445Y13971D01*
X20408Y14025D01*
X20369Y14076D01*
X20327Y14125D01*
X20282Y14171D01*
X20235Y14215D01*
X20185Y14256D01*
X20133Y14294D01*
X20079Y14329D01*
X20023Y14361D01*
X20023Y14360D02*
X19992Y14375D01*
X19959Y14386D01*
X19925Y14394D01*
X19890Y14398D01*
X19856Y14398D01*
X19821Y14394D01*
X19787Y14386D01*
X19754Y14375D01*
X19723Y14360D01*
X19723Y14361D02*
X19603Y14299D01*
X19482Y14241D01*
X19359Y14185D01*
X19234Y14134D01*
X19108Y14085D01*
X18981Y14040D01*
X18852Y13999D01*
X18723Y13961D01*
X18689Y13949D01*
X18655Y13934D01*
X18624Y13915D01*
X18595Y13892D01*
X18568Y13867D01*
X18544Y13839D01*
X18524Y13809D01*
X18507Y13777D01*
X18493Y13743D01*
X18483Y13707D01*
X18477Y13671D01*
X18475Y13635D01*
X18477Y13598D01*
X18483Y13562D01*
X18492Y13527D01*
X18506Y13493D01*
X18523Y13460D01*
X18555Y13410D01*
X18591Y13361D01*
X18630Y13316D01*
X18672Y13273D01*
X18716Y13232D01*
X18763Y13195D01*
X18813Y13161D01*
X18864Y13130D01*
X18918Y13103D01*
X18973Y13079D01*
X19029Y13059D01*
X19087Y13043D01*
X19146Y13031D01*
X19205Y13022D01*
X19265Y13018D01*
X19325Y13017D01*
X19385Y13021D01*
X19444Y13028D01*
X19503Y13039D01*
X19561Y13054D01*
X19618Y13073D01*
X19674Y13096D01*
X19728Y13122D01*
X19780Y13151D01*
X19830Y13184D01*
X19878Y13221D01*
X19923Y13260D01*
X19823Y12361D02*
X19923Y12261D01*
X19823Y12361D02*
X19791Y12396D01*
X19762Y12433D01*
X19736Y12472D01*
X19713Y12514D01*
X19694Y12557D01*
X19678Y12601D01*
X19666Y12647D01*
X19658Y12694D01*
X19654Y12741D01*
X19653Y12788D01*
X19657Y12835D01*
X19664Y12882D01*
X19675Y12928D01*
X19689Y12973D01*
X19707Y13016D01*
X19729Y13058D01*
X19754Y13098D01*
X19782Y13136D01*
X19814Y13172D01*
X19848Y13204D01*
X19884Y13234D01*
X19923Y13261D01*
X20723Y12861D02*
X20823Y12961D01*
X20888Y13024D01*
X20956Y13083D01*
X21026Y13139D01*
X21099Y13193D01*
X21174Y13243D01*
X21251Y13289D01*
X21330Y13333D01*
X21411Y13372D01*
X21493Y13408D01*
X21577Y13441D01*
X21663Y13470D01*
X21749Y13495D01*
X21837Y13516D01*
X21925Y13533D01*
X22015Y13546D01*
X22104Y13556D01*
X22194Y13561D01*
X22284Y13563D01*
X22374Y13561D01*
X22464Y13554D01*
X22554Y13544D01*
X22643Y13530D01*
X22731Y13512D01*
X22819Y13490D01*
X22905Y13464D01*
X22990Y13434D01*
X23074Y13401D01*
X23156Y13364D01*
X23237Y13324D01*
X23315Y13280D01*
X23392Y13233D01*
X23467Y13182D01*
X23539Y13128D01*
X23609Y13071D01*
X23676Y13011D01*
X23741Y12948D01*
X23802Y12882D01*
X23861Y12814D01*
X23917Y12743D01*
X23969Y12670D01*
X24019Y12595D01*
X24065Y12517D01*
X24107Y12438D01*
X24146Y12356D01*
X24181Y12273D01*
X24213Y12189D01*
X24241Y12103D01*
X24265Y12017D01*
X24286Y11929D01*
X24302Y11840D01*
X24315Y11751D01*
X24323Y11661D01*
X24523Y10661D02*
X24423Y10561D01*
X24388Y10524D01*
X24356Y10485D01*
X24327Y10444D01*
X24300Y10400D01*
X24277Y10355D01*
X24256Y10309D01*
X24239Y10261D01*
X24225Y10213D01*
X24215Y10163D01*
X24207Y10113D01*
X24204Y10062D01*
X24203Y10012D01*
X24206Y9961D01*
X24213Y9911D01*
X24223Y9861D01*
X24222Y9861D02*
X24229Y9840D01*
X24239Y9821D01*
X24251Y9804D01*
X24266Y9789D01*
X24283Y9777D01*
X24302Y9767D01*
X24323Y9760D01*
X24322Y9761D02*
X24385Y9748D01*
X24448Y9739D01*
X24511Y9734D01*
X24574Y9733D01*
X24638Y9736D01*
X24701Y9742D01*
X24764Y9752D01*
X24826Y9766D01*
X24887Y9783D01*
X24947Y9804D01*
X25006Y9829D01*
X25063Y9857D01*
X25118Y9888D01*
X25171Y9923D01*
X25222Y9961D01*
X25223Y9961D02*
X25243Y9979D01*
X25260Y9999D01*
X25274Y10022D01*
X25285Y10046D01*
X25292Y10071D01*
X25296Y10098D01*
X25296Y10124D01*
X25292Y10151D01*
X25285Y10176D01*
X25274Y10200D01*
X25260Y10223D01*
X25243Y10243D01*
X25223Y10261D01*
X25189Y10290D01*
X25158Y10321D01*
X25129Y10355D01*
X25102Y10391D01*
X25079Y10429D01*
X25058Y10468D01*
X25041Y10509D01*
X25027Y10552D01*
X25016Y10595D01*
X25009Y10639D01*
X25005Y10683D01*
X25004Y10728D01*
X25007Y10773D01*
X25014Y10817D01*
X25023Y10860D01*
X25022Y10861D02*
X25035Y10916D01*
X25044Y10973D01*
X25050Y11030D01*
X25051Y11087D01*
X25049Y11145D01*
X25042Y11202D01*
X25032Y11258D01*
X25018Y11314D01*
X25001Y11368D01*
X24979Y11422D01*
X24954Y11473D01*
X24926Y11523D01*
X24895Y11571D01*
X24860Y11617D01*
X24822Y11660D01*
X24823Y11660D02*
X24798Y11685D01*
X24770Y11706D01*
X24741Y11725D01*
X24709Y11741D01*
X24676Y11753D01*
X24643Y11762D01*
X24608Y11767D01*
X24573Y11769D01*
X24538Y11767D01*
X24503Y11762D01*
X24470Y11753D01*
X24437Y11741D01*
X24405Y11725D01*
X24376Y11706D01*
X24348Y11685D01*
X24323Y11660D01*
X19723Y10161D02*
X19623Y9961D01*
X19722Y10160D02*
X19738Y10196D01*
X19750Y10233D01*
X19759Y10272D01*
X19764Y10310D01*
X19766Y10350D01*
X19764Y10389D01*
X19758Y10427D01*
X19748Y10465D01*
X19735Y10502D01*
X19719Y10538D01*
X19699Y10572D01*
X19676Y10604D01*
X19651Y10633D01*
X19622Y10660D01*
X19623Y10661D02*
X19599Y10684D01*
X19578Y10709D01*
X19560Y10736D01*
X19546Y10766D01*
X19535Y10797D01*
X19527Y10828D01*
X19523Y10861D01*
X19519Y10948D01*
X19518Y11035D01*
X19521Y11123D01*
X19528Y11210D01*
X19538Y11297D01*
X19551Y11383D01*
X19568Y11469D01*
X19589Y11554D01*
X19613Y11638D01*
X19640Y11721D01*
X19671Y11803D01*
X19705Y11883D01*
X19742Y11962D01*
X19783Y12039D01*
X19827Y12115D01*
X19873Y12189D01*
X19923Y12261D01*
X19622Y9961D02*
X19609Y9929D01*
X19599Y9896D01*
X19592Y9862D01*
X19589Y9828D01*
X19590Y9793D01*
X19595Y9759D01*
X19603Y9725D01*
X19615Y9693D01*
X19631Y9662D01*
X19649Y9633D01*
X19671Y9606D01*
X19695Y9582D01*
X19723Y9560D01*
X19919Y9417D01*
X20113Y9269D01*
X20303Y9116D01*
X20488Y8959D01*
X20671Y8797D01*
X20849Y8631D01*
X21023Y8460D01*
X21023Y8461D02*
X21064Y8422D01*
X21109Y8385D01*
X21155Y8352D01*
X21204Y8322D01*
X21254Y8295D01*
X21307Y8272D01*
X21361Y8252D01*
X21415Y8236D01*
X21471Y8224D01*
X21528Y8215D01*
X21585Y8210D01*
X21642Y8209D01*
X21699Y8212D01*
X21756Y8219D01*
X21813Y8229D01*
X21868Y8243D01*
X21923Y8261D01*
X21923Y8260D02*
X22096Y8321D01*
X22270Y8378D01*
X22446Y8431D01*
X22623Y8479D01*
X22801Y8524D01*
X22980Y8564D01*
X23160Y8600D01*
X23341Y8632D01*
X23522Y8660D01*
X23523Y8661D02*
X23551Y8667D01*
X23579Y8676D01*
X23605Y8689D01*
X23629Y8704D01*
X23652Y8722D01*
X23672Y8743D01*
X23690Y8766D01*
X23704Y8791D01*
X23716Y8818D01*
X23724Y8846D01*
X23729Y8874D01*
X23730Y8903D01*
X23728Y8932D01*
X23722Y8961D01*
X23723Y8961D02*
X23713Y9007D01*
X23706Y9055D01*
X23704Y9103D01*
X23706Y9150D01*
X23711Y9198D01*
X23721Y9245D01*
X23734Y9290D01*
X23751Y9335D01*
X23771Y9378D01*
X23795Y9419D01*
X23823Y9459D01*
X23853Y9495D01*
X23887Y9529D01*
X23923Y9561D01*
X23963Y9596D01*
X24001Y9633D01*
X24037Y9673D01*
X24070Y9715D01*
X24100Y9759D01*
X24127Y9804D01*
X24150Y9852D01*
X24171Y9901D01*
X24188Y9951D01*
X24202Y10003D01*
X24212Y10055D01*
X24219Y10108D01*
X24223Y10161D01*
X21323Y12661D02*
X21123Y12561D01*
X21323Y12661D02*
X21355Y12674D01*
X21388Y12684D01*
X21422Y12691D01*
X21456Y12694D01*
X21491Y12693D01*
X21525Y12688D01*
X21559Y12680D01*
X21591Y12668D01*
X21622Y12652D01*
X21651Y12634D01*
X21678Y12612D01*
X21702Y12588D01*
X21724Y12560D01*
X23323Y12161D02*
X23423Y12161D01*
X23461Y12159D01*
X23499Y12154D01*
X23537Y12145D01*
X23573Y12133D01*
X23608Y12118D01*
X23642Y12099D01*
X23673Y12078D01*
X23703Y12053D01*
X23730Y12026D01*
X23755Y11997D01*
X23776Y11965D01*
X23795Y11932D01*
X23811Y11897D01*
X23823Y11861D01*
D11*
X23223Y11661D02*
X23123Y11561D01*
X23223Y11661D02*
X23247Y11682D01*
X23272Y11701D01*
X23300Y11716D01*
X23330Y11728D01*
X23360Y11737D01*
X23391Y11742D01*
X23423Y11744D01*
X23455Y11742D01*
X23486Y11737D01*
X23516Y11728D01*
X23546Y11716D01*
X23574Y11701D01*
X23599Y11682D01*
X23623Y11661D01*
X23657Y11624D01*
X23689Y11585D01*
X23718Y11543D01*
X23743Y11500D01*
X23766Y11455D01*
X23785Y11408D01*
X23801Y11361D01*
X23814Y11312D01*
X23823Y11262D01*
X23828Y11212D01*
X23830Y11162D01*
X23828Y11111D01*
X23823Y11061D01*
X21023Y12061D02*
X20823Y11861D01*
X21023Y12061D02*
X21052Y12087D01*
X21083Y12111D01*
X21117Y12131D01*
X21152Y12149D01*
X21188Y12163D01*
X21226Y12174D01*
X21264Y12181D01*
X21303Y12185D01*
X21343Y12185D01*
X21382Y12181D01*
X21420Y12174D01*
X21458Y12163D01*
X21494Y12149D01*
X21529Y12131D01*
X21563Y12111D01*
X21594Y12087D01*
X21623Y12061D01*
D10*
X20323Y8961D02*
X20323Y8761D01*
X20325Y8685D01*
X20329Y8608D01*
X20337Y8532D01*
X20348Y8457D01*
X20362Y8382D01*
X20379Y8307D01*
X20400Y8234D01*
X20423Y8161D01*
X20428Y8141D01*
X20431Y8121D01*
X20431Y8101D01*
X20428Y8081D01*
X20423Y8061D01*
X20402Y8006D01*
X20378Y7953D01*
X20351Y7901D01*
X20321Y7851D01*
X20288Y7803D01*
X20252Y7756D01*
X20213Y7713D01*
X20171Y7671D01*
X20128Y7632D01*
X20081Y7596D01*
X20033Y7563D01*
X19983Y7533D01*
X19931Y7506D01*
X19878Y7482D01*
X19823Y7461D01*
X19790Y7451D01*
X19757Y7446D01*
X19723Y7444D01*
X19689Y7446D01*
X19656Y7451D01*
X19623Y7461D01*
X19623Y7460D02*
X19573Y7476D01*
X19521Y7487D01*
X19469Y7495D01*
X19417Y7500D01*
X19364Y7501D01*
X19312Y7498D01*
X19259Y7492D01*
X19208Y7482D01*
X19157Y7468D01*
X19107Y7451D01*
X19059Y7430D01*
X19012Y7406D01*
X18967Y7379D01*
X18924Y7349D01*
X18883Y7316D01*
X18844Y7280D01*
X18808Y7242D01*
X18775Y7201D01*
X18745Y7158D01*
X18718Y7113D01*
X18694Y7066D01*
X18673Y7017D01*
X18656Y6968D01*
X18643Y6917D01*
X18632Y6865D01*
X18626Y6813D01*
X18623Y6760D01*
X18623Y6761D02*
X18628Y6734D01*
X18637Y6707D01*
X18648Y6682D01*
X18662Y6659D01*
X18679Y6637D01*
X18699Y6617D01*
X18721Y6600D01*
X18744Y6586D01*
X18769Y6575D01*
X18796Y6566D01*
X18823Y6561D01*
X18809Y6544D01*
X18797Y6525D01*
X18789Y6505D01*
X18784Y6483D01*
X18782Y6461D01*
X18784Y6439D01*
X18789Y6417D01*
X18797Y6397D01*
X18809Y6378D01*
X18823Y6361D01*
X18855Y6332D01*
X18889Y6305D01*
X18925Y6282D01*
X18963Y6261D01*
X19003Y6244D01*
X19044Y6230D01*
X19086Y6219D01*
X19128Y6212D01*
X19172Y6208D01*
X19215Y6208D01*
X19258Y6212D01*
X19300Y6219D01*
X19342Y6230D01*
X19383Y6244D01*
X19423Y6261D01*
X19422Y6261D02*
X19465Y6283D01*
X19505Y6309D01*
X19544Y6338D01*
X19580Y6369D01*
X19614Y6403D01*
X19645Y6439D01*
X19674Y6478D01*
X19700Y6518D01*
X19722Y6561D01*
X19723Y6561D02*
X19747Y6605D01*
X19775Y6649D01*
X19805Y6690D01*
X19838Y6728D01*
X19874Y6765D01*
X19912Y6798D01*
X19952Y6829D01*
X19995Y6857D01*
X20040Y6882D01*
X20086Y6903D01*
X20133Y6921D01*
X20182Y6936D01*
X20232Y6947D01*
X20282Y6955D01*
X20333Y6958D01*
X20384Y6959D01*
X20435Y6955D01*
X20485Y6948D01*
X20535Y6938D01*
X20584Y6923D01*
X20632Y6906D01*
X20678Y6885D01*
X20723Y6860D01*
X20623Y6861D02*
X20723Y7061D01*
X20724Y7060D02*
X20737Y7092D01*
X20747Y7125D01*
X20754Y7159D01*
X20757Y7193D01*
X20756Y7228D01*
X20751Y7262D01*
X20743Y7296D01*
X20731Y7328D01*
X20715Y7359D01*
X20697Y7388D01*
X20675Y7415D01*
X20651Y7439D01*
X20623Y7461D01*
X20723Y7061D02*
X21123Y7461D01*
X19623Y6361D02*
X19523Y6161D01*
X19512Y6136D01*
X19504Y6110D01*
X19500Y6084D01*
X19499Y6057D01*
X19501Y6030D01*
X19507Y6003D01*
X19515Y5977D01*
X19527Y5953D01*
X19541Y5930D01*
X19558Y5909D01*
X19578Y5890D01*
X19599Y5874D01*
X19623Y5861D01*
X19661Y5844D01*
X19700Y5831D01*
X19741Y5822D01*
X19782Y5816D01*
X19823Y5814D01*
X19864Y5816D01*
X19905Y5822D01*
X19946Y5831D01*
X19985Y5844D01*
X20023Y5861D01*
X20123Y5761D01*
X20163Y5717D01*
X20206Y5677D01*
X20251Y5639D01*
X20298Y5604D01*
X20347Y5572D01*
X20399Y5544D01*
X20452Y5519D01*
X20506Y5497D01*
X20562Y5479D01*
X20619Y5464D01*
X20677Y5453D01*
X20735Y5445D01*
X20794Y5441D01*
X20852Y5441D01*
X20911Y5445D01*
X20969Y5453D01*
X21027Y5464D01*
X21084Y5479D01*
X21140Y5497D01*
X21194Y5519D01*
X21247Y5544D01*
X21299Y5572D01*
X21348Y5604D01*
X21395Y5639D01*
X21440Y5677D01*
X21483Y5717D01*
X21523Y5761D01*
X21587Y5850D01*
X21649Y5941D01*
X21707Y6034D01*
X21762Y6129D01*
X21813Y6226D01*
X21862Y6325D01*
X21907Y6425D01*
X21948Y6527D01*
X21986Y6630D01*
X22021Y6734D01*
X22052Y6839D01*
X22079Y6946D01*
X22103Y7053D01*
X22123Y7161D01*
X21523Y5661D02*
X21723Y5561D01*
X21750Y5552D01*
X21779Y5546D01*
X21807Y5543D01*
X21836Y5544D01*
X21864Y5548D01*
X21892Y5555D01*
X21918Y5566D01*
X21944Y5580D01*
X21967Y5596D01*
X21988Y5616D01*
X22007Y5637D01*
X22023Y5661D01*
X22023Y5561D02*
X22223Y5461D01*
X22223Y5460D02*
X22289Y5429D01*
X22357Y5402D01*
X22426Y5378D01*
X22496Y5358D01*
X22567Y5341D01*
X22639Y5328D01*
X22712Y5319D01*
X22785Y5314D01*
X22858Y5313D01*
X22931Y5316D01*
X23004Y5322D01*
X23076Y5332D01*
X23148Y5346D01*
X23219Y5364D01*
X23289Y5385D01*
X23358Y5410D01*
X23425Y5439D01*
X23491Y5471D01*
X23555Y5507D01*
X23617Y5545D01*
X23677Y5587D01*
X23734Y5633D01*
X23789Y5681D01*
X23842Y5731D01*
X23892Y5785D01*
X23938Y5841D01*
X23982Y5900D01*
X24023Y5960D01*
X24022Y5960D02*
X24038Y5988D01*
X24049Y6017D01*
X24058Y6048D01*
X24062Y6079D01*
X24063Y6110D01*
X24060Y6142D01*
X24053Y6173D01*
X24042Y6202D01*
X24028Y6231D01*
X24011Y6257D01*
X23990Y6281D01*
X23967Y6302D01*
X23941Y6321D01*
X23913Y6336D01*
X23884Y6348D01*
X23854Y6356D01*
X23822Y6360D01*
X24023Y6161D02*
X24223Y6061D01*
X24272Y6039D01*
X24322Y6020D01*
X24373Y6005D01*
X24425Y5994D01*
X24478Y5987D01*
X24532Y5984D01*
X24585Y5985D01*
X24638Y5990D01*
X24691Y5998D01*
X24743Y6011D01*
X24794Y6027D01*
X24843Y6047D01*
X24891Y6070D01*
X24937Y6097D01*
X24981Y6127D01*
X25023Y6161D01*
X25036Y6170D01*
X25051Y6176D01*
X25068Y6178D01*
X25084Y6176D01*
X25099Y6171D01*
X25113Y6163D01*
X25125Y6151D01*
X25133Y6137D01*
X25138Y6122D01*
X25140Y6106D01*
X25138Y6089D01*
X25132Y6074D01*
X25123Y6061D01*
X22123Y6561D02*
X21923Y6361D01*
X22123Y6560D02*
X22151Y6586D01*
X22182Y6609D01*
X22215Y6629D01*
X22249Y6647D01*
X22285Y6660D01*
X22322Y6671D01*
X22360Y6678D01*
X22398Y6682D01*
X22437Y6682D01*
X22475Y6678D01*
X22513Y6671D01*
X22550Y6660D01*
X22586Y6646D01*
X22620Y6629D01*
X22653Y6609D01*
X22683Y6586D01*
X22712Y6560D01*
X22738Y6531D01*
X22761Y6500D01*
X22781Y6468D01*
X22798Y6433D01*
X22812Y6397D01*
X22822Y6360D01*
X22523Y6761D02*
X22523Y6861D01*
X22525Y6914D01*
X22531Y6968D01*
X22540Y7020D01*
X22553Y7072D01*
X22570Y7123D01*
X22591Y7172D01*
X22615Y7220D01*
X22642Y7266D01*
X22672Y7310D01*
X22706Y7352D01*
X22742Y7391D01*
X22781Y7427D01*
X22823Y7461D01*
X23523Y8261D02*
X23423Y8561D01*
X23523Y8261D02*
X23562Y8139D01*
X23596Y8016D01*
X23627Y7892D01*
X23654Y7767D01*
X23677Y7642D01*
X23696Y7515D01*
X23712Y7388D01*
X23723Y7261D01*
X23728Y7212D01*
X23737Y7164D01*
X23750Y7117D01*
X23766Y7072D01*
X23785Y7027D01*
X23808Y6984D01*
X23834Y6943D01*
X23862Y6903D01*
X23894Y6867D01*
X23929Y6832D01*
X23965Y6800D01*
X24005Y6772D01*
X24046Y6746D01*
X24089Y6723D01*
X24134Y6704D01*
X24179Y6688D01*
X24226Y6675D01*
X24274Y6666D01*
X24323Y6661D01*
X24323Y6660D02*
X24483Y6647D01*
X24644Y6630D01*
X24804Y6610D01*
X24963Y6587D01*
X25122Y6560D01*
X25123Y6561D02*
X25169Y6551D01*
X25214Y6537D01*
X25258Y6520D01*
X25300Y6500D01*
X25341Y6477D01*
X25380Y6450D01*
X25417Y6421D01*
X25451Y6389D01*
X25483Y6355D01*
X25512Y6318D01*
X25539Y6279D01*
X25562Y6238D01*
X25582Y6196D01*
X25599Y6152D01*
X25613Y6107D01*
X25623Y6061D01*
X25629Y6018D01*
X25631Y5974D01*
X25630Y5931D01*
X25624Y5888D01*
X25616Y5846D01*
X25604Y5804D01*
X25588Y5764D01*
X25569Y5725D01*
X25547Y5688D01*
X25522Y5652D01*
X25494Y5619D01*
X25464Y5589D01*
X25431Y5561D01*
X25395Y5536D01*
X25358Y5514D01*
X25319Y5495D01*
X25279Y5479D01*
X25237Y5467D01*
X25195Y5459D01*
X25152Y5453D01*
X25109Y5452D01*
X25065Y5454D01*
X25022Y5460D01*
X25022Y5461D02*
X24973Y5471D01*
X24925Y5485D01*
X24877Y5502D01*
X24831Y5521D01*
X24786Y5544D01*
X24742Y5569D01*
X24700Y5597D01*
X24660Y5628D01*
X24623Y5661D01*
X24656Y5646D01*
X24691Y5635D01*
X24727Y5628D01*
X24763Y5624D01*
X24799Y5625D01*
X24836Y5628D01*
X24871Y5636D01*
X24906Y5647D01*
X24939Y5662D01*
X24971Y5680D01*
X25001Y5701D01*
X25028Y5726D01*
X25052Y5752D01*
X25074Y5782D01*
X25093Y5813D01*
X25108Y5846D01*
X25120Y5881D01*
X25128Y5916D01*
X25132Y5953D01*
X25133Y5989D01*
X25130Y6025D01*
X25123Y6061D01*
X20923Y11161D02*
X20923Y11361D01*
X20933Y11391D01*
X20946Y11420D01*
X20963Y11447D01*
X20982Y11472D01*
X21004Y11494D01*
X21028Y11515D01*
X21054Y11532D01*
X21082Y11546D01*
X21112Y11558D01*
X21142Y11565D01*
X21173Y11570D01*
X21205Y11571D01*
X21236Y11568D01*
X21267Y11562D01*
X21297Y11553D01*
X21326Y11540D01*
X21354Y11525D01*
X21379Y11506D01*
X21402Y11485D01*
X21423Y11461D01*
X21422Y11460D02*
X21451Y11439D01*
X21478Y11416D01*
X21502Y11390D01*
X21523Y11362D01*
X21542Y11331D01*
X21557Y11299D01*
X21569Y11266D01*
X21578Y11231D01*
X21583Y11196D01*
X21585Y11161D01*
X21583Y11125D01*
X21578Y11090D01*
X21569Y11056D01*
X21556Y11023D01*
X21541Y10991D01*
X21522Y10961D01*
X21523Y10961D02*
X21487Y10920D01*
X21449Y10881D01*
X21409Y10845D01*
X21367Y10812D01*
X21322Y10781D01*
X21276Y10753D01*
X21228Y10728D01*
X21178Y10707D01*
X21127Y10688D01*
X21075Y10673D01*
X21023Y10661D01*
X21022Y10661D02*
X20997Y10649D01*
X20970Y10640D01*
X20942Y10635D01*
X20913Y10633D01*
X20885Y10635D01*
X20857Y10641D01*
X20830Y10650D01*
X20804Y10663D01*
X20781Y10679D01*
X20759Y10697D01*
X20741Y10719D01*
X20725Y10742D01*
X20712Y10768D01*
X20703Y10795D01*
X20697Y10823D01*
X20695Y10851D01*
X20697Y10880D01*
X20702Y10908D01*
X20711Y10935D01*
X20723Y10960D01*
X20722Y10961D02*
X20762Y10987D01*
X20800Y11016D01*
X20835Y11048D01*
X20867Y11083D01*
X20896Y11121D01*
X20922Y11161D01*
X23023Y10961D02*
X23023Y10861D01*
X23023Y10961D02*
X23025Y10991D01*
X23030Y11021D01*
X23039Y11050D01*
X23052Y11077D01*
X23067Y11103D01*
X23086Y11127D01*
X23107Y11148D01*
X23131Y11167D01*
X23157Y11182D01*
X23184Y11195D01*
X23213Y11204D01*
X23243Y11209D01*
X23273Y11211D01*
X23303Y11209D01*
X23333Y11204D01*
X23362Y11195D01*
X23389Y11182D01*
X23415Y11167D01*
X23439Y11148D01*
X23460Y11127D01*
X23479Y11103D01*
X23494Y11077D01*
X23507Y11050D01*
X23516Y11021D01*
X23521Y10991D01*
X23523Y10961D01*
X23023Y10861D02*
X23021Y10832D01*
X23016Y10804D01*
X23008Y10776D01*
X22997Y10749D01*
X22982Y10724D01*
X22965Y10701D01*
X22945Y10680D01*
X22923Y10661D01*
X22892Y10635D01*
X22863Y10607D01*
X22837Y10576D01*
X22814Y10543D01*
X22794Y10508D01*
X22777Y10471D01*
X22763Y10433D01*
X22753Y10394D01*
X22747Y10355D01*
X22744Y10314D01*
X22745Y10274D01*
X22749Y10234D01*
X22757Y10195D01*
X22769Y10156D01*
X22784Y10119D01*
X22802Y10083D01*
X22824Y10049D01*
X22848Y10016D01*
X22875Y9987D01*
X22905Y9960D01*
X22937Y9935D01*
X22971Y9914D01*
X23007Y9896D01*
X23045Y9881D01*
X23083Y9869D01*
X23123Y9861D01*
X23122Y9861D02*
X23149Y9859D01*
X23175Y9860D01*
X23201Y9865D01*
X23226Y9874D01*
X23250Y9886D01*
X23272Y9901D01*
X23291Y9918D01*
X23308Y9939D01*
X23322Y9961D01*
X23323Y9960D02*
X23365Y10000D01*
X23404Y10042D01*
X23441Y10087D01*
X23474Y10134D01*
X23503Y10184D01*
X23530Y10235D01*
X23552Y10288D01*
X23571Y10343D01*
X23587Y10398D01*
X23598Y10455D01*
X23605Y10512D01*
X23609Y10570D01*
X23608Y10628D01*
X23604Y10685D01*
X23595Y10742D01*
X23583Y10799D01*
X23567Y10854D01*
X23547Y10908D01*
X23523Y10961D01*
X21323Y10061D02*
X21223Y10161D01*
X21323Y10061D02*
X21366Y10020D01*
X21412Y9982D01*
X21459Y9947D01*
X21509Y9914D01*
X21561Y9885D01*
X21615Y9859D01*
X21670Y9836D01*
X21726Y9817D01*
X21783Y9801D01*
X21841Y9789D01*
X21900Y9780D01*
X21959Y9775D01*
X22019Y9773D01*
X22078Y9775D01*
X22137Y9780D01*
X22196Y9789D01*
X22254Y9802D01*
X22311Y9818D01*
X22368Y9838D01*
X22423Y9861D01*
X22423Y9860D02*
X22451Y9871D01*
X22479Y9878D01*
X22508Y9882D01*
X22538Y9882D01*
X22567Y9878D01*
X22595Y9871D01*
X22623Y9860D01*
X21423Y10161D02*
X21323Y10161D01*
X21423Y10161D02*
X21452Y10163D01*
X21480Y10168D01*
X21508Y10176D01*
X21535Y10187D01*
X21560Y10202D01*
X21583Y10219D01*
X21604Y10239D01*
X21623Y10261D01*
X21642Y10284D01*
X21664Y10305D01*
X21689Y10324D01*
X21715Y10340D01*
X21743Y10352D01*
X21772Y10362D01*
X21802Y10369D01*
X21832Y10372D01*
X21863Y10371D01*
X21893Y10368D01*
X21923Y10361D01*
X21987Y10340D01*
X22050Y10316D01*
X22112Y10289D01*
X22172Y10259D01*
X22231Y10226D01*
X22288Y10190D01*
X22343Y10150D01*
X22395Y10108D01*
X22446Y10064D01*
X22494Y10016D01*
X22540Y9967D01*
X22583Y9915D01*
X22623Y9861D01*
D12*
X21623Y9361D02*
X21569Y9350D01*
X21514Y9343D01*
X21458Y9340D01*
X21403Y9341D01*
X21347Y9345D01*
X21292Y9353D01*
X21238Y9365D01*
X21184Y9381D01*
X21132Y9400D01*
X21081Y9422D01*
X21032Y9448D01*
X20985Y9478D01*
X20940Y9510D01*
X20897Y9545D01*
X20856Y9584D01*
X20819Y9624D01*
X20784Y9668D01*
X20752Y9713D01*
X20723Y9761D01*
X21623Y9361D02*
X21685Y9329D01*
X21747Y9301D01*
X21812Y9276D01*
X21877Y9254D01*
X21944Y9236D01*
X22012Y9222D01*
X22080Y9212D01*
X22149Y9206D01*
X22218Y9203D01*
X22287Y9204D01*
X22356Y9209D01*
X22424Y9218D01*
X22492Y9231D01*
X22559Y9247D01*
X22625Y9268D01*
X22690Y9291D01*
X22753Y9319D01*
X22815Y9349D01*
X22875Y9384D01*
X22933Y9421D01*
D10*
X22213Y9121D02*
X22193Y9080D01*
X22170Y9042D01*
X22144Y9006D01*
X22114Y8972D01*
X22082Y8941D01*
X22047Y8913D01*
X22009Y8888D01*
X21970Y8866D01*
X21929Y8848D01*
X21887Y8833D01*
X21843Y8822D01*
X21799Y8815D01*
X21754Y8812D01*
X21709Y8813D01*
X21665Y8818D01*
X21621Y8826D01*
X21577Y8838D01*
X21536Y8854D01*
X21495Y8874D01*
X21457Y8897D01*
X21420Y8923D01*
X21386Y8952D01*
X21355Y8984D01*
X21326Y9019D01*
X21301Y9056D01*
X21279Y9095D01*
X21260Y9136D01*
X21245Y9178D01*
X21234Y9222D01*
X21227Y9266D01*
X21223Y9311D01*
X7847Y12880D02*
X7847Y13380D01*
X7845Y13444D01*
X7840Y13509D01*
X7831Y13572D01*
X7818Y13636D01*
X7801Y13698D01*
X7782Y13759D01*
X7758Y13819D01*
X7732Y13878D01*
X7702Y13935D01*
X7669Y13990D01*
X7632Y14044D01*
X7593Y14095D01*
X7551Y14144D01*
X7506Y14190D01*
X7459Y14234D01*
X7409Y14275D01*
X7357Y14313D01*
X7303Y14348D01*
X7247Y14380D01*
X7216Y14395D01*
X7183Y14406D01*
X7149Y14414D01*
X7114Y14418D01*
X7080Y14418D01*
X7045Y14414D01*
X7011Y14406D01*
X6978Y14395D01*
X6947Y14380D01*
X6827Y14318D01*
X6706Y14260D01*
X6583Y14204D01*
X6458Y14153D01*
X6332Y14104D01*
X6205Y14059D01*
X6076Y14018D01*
X5947Y13980D01*
X5947Y13981D02*
X5913Y13969D01*
X5879Y13954D01*
X5848Y13935D01*
X5819Y13912D01*
X5792Y13887D01*
X5768Y13859D01*
X5748Y13829D01*
X5731Y13797D01*
X5717Y13763D01*
X5707Y13727D01*
X5701Y13691D01*
X5699Y13655D01*
X5701Y13618D01*
X5707Y13582D01*
X5716Y13547D01*
X5730Y13513D01*
X5747Y13480D01*
X5779Y13430D01*
X5815Y13381D01*
X5854Y13336D01*
X5896Y13293D01*
X5940Y13252D01*
X5987Y13215D01*
X6037Y13181D01*
X6088Y13150D01*
X6142Y13123D01*
X6197Y13099D01*
X6253Y13079D01*
X6311Y13063D01*
X6370Y13051D01*
X6429Y13042D01*
X6489Y13038D01*
X6549Y13037D01*
X6609Y13041D01*
X6668Y13048D01*
X6727Y13059D01*
X6785Y13074D01*
X6842Y13093D01*
X6898Y13116D01*
X6952Y13142D01*
X7004Y13171D01*
X7054Y13204D01*
X7102Y13241D01*
X7147Y13280D01*
X7047Y12380D02*
X7147Y12280D01*
X7047Y12380D02*
X7015Y12415D01*
X6986Y12452D01*
X6960Y12491D01*
X6937Y12533D01*
X6918Y12576D01*
X6902Y12620D01*
X6890Y12666D01*
X6882Y12713D01*
X6878Y12760D01*
X6877Y12807D01*
X6881Y12854D01*
X6888Y12901D01*
X6899Y12947D01*
X6913Y12992D01*
X6931Y13035D01*
X6953Y13077D01*
X6978Y13117D01*
X7006Y13155D01*
X7038Y13191D01*
X7072Y13223D01*
X7108Y13253D01*
X7147Y13280D01*
X7947Y12880D02*
X8047Y12980D01*
X8112Y13043D01*
X8180Y13102D01*
X8250Y13158D01*
X8323Y13212D01*
X8398Y13262D01*
X8475Y13308D01*
X8554Y13352D01*
X8635Y13391D01*
X8717Y13427D01*
X8801Y13460D01*
X8887Y13489D01*
X8973Y13514D01*
X9061Y13535D01*
X9149Y13552D01*
X9239Y13565D01*
X9328Y13575D01*
X9418Y13580D01*
X9508Y13582D01*
X9598Y13580D01*
X9688Y13573D01*
X9778Y13563D01*
X9867Y13549D01*
X9955Y13531D01*
X10043Y13509D01*
X10129Y13483D01*
X10214Y13453D01*
X10298Y13420D01*
X10380Y13383D01*
X10461Y13343D01*
X10539Y13299D01*
X10616Y13252D01*
X10691Y13201D01*
X10763Y13147D01*
X10833Y13090D01*
X10900Y13030D01*
X10965Y12967D01*
X11026Y12901D01*
X11085Y12833D01*
X11141Y12762D01*
X11193Y12689D01*
X11243Y12614D01*
X11289Y12536D01*
X11331Y12457D01*
X11370Y12375D01*
X11405Y12292D01*
X11437Y12208D01*
X11465Y12122D01*
X11489Y12036D01*
X11510Y11948D01*
X11526Y11859D01*
X11539Y11770D01*
X11547Y11680D01*
X11747Y10680D02*
X11647Y10580D01*
X11612Y10543D01*
X11580Y10504D01*
X11551Y10463D01*
X11524Y10419D01*
X11501Y10374D01*
X11480Y10328D01*
X11463Y10280D01*
X11449Y10232D01*
X11439Y10182D01*
X11431Y10132D01*
X11428Y10081D01*
X11427Y10031D01*
X11430Y9980D01*
X11437Y9930D01*
X11447Y9880D01*
X11447Y9881D02*
X11454Y9860D01*
X11464Y9841D01*
X11476Y9824D01*
X11491Y9809D01*
X11508Y9797D01*
X11527Y9787D01*
X11548Y9780D01*
X11547Y9781D02*
X11610Y9768D01*
X11673Y9759D01*
X11736Y9754D01*
X11799Y9753D01*
X11863Y9756D01*
X11926Y9762D01*
X11989Y9772D01*
X12051Y9786D01*
X12112Y9803D01*
X12172Y9824D01*
X12231Y9849D01*
X12288Y9877D01*
X12343Y9908D01*
X12396Y9943D01*
X12447Y9981D01*
X12447Y9980D02*
X12467Y9998D01*
X12484Y10018D01*
X12498Y10041D01*
X12509Y10065D01*
X12516Y10090D01*
X12520Y10117D01*
X12520Y10143D01*
X12516Y10170D01*
X12509Y10195D01*
X12498Y10219D01*
X12484Y10242D01*
X12467Y10262D01*
X12447Y10280D01*
X12447Y10281D02*
X12413Y10310D01*
X12382Y10341D01*
X12353Y10375D01*
X12326Y10411D01*
X12303Y10449D01*
X12282Y10488D01*
X12265Y10529D01*
X12251Y10572D01*
X12240Y10615D01*
X12233Y10659D01*
X12229Y10703D01*
X12228Y10748D01*
X12231Y10793D01*
X12238Y10837D01*
X12247Y10880D01*
X12247Y10881D02*
X12260Y10936D01*
X12269Y10993D01*
X12275Y11050D01*
X12276Y11107D01*
X12274Y11165D01*
X12267Y11222D01*
X12257Y11278D01*
X12243Y11334D01*
X12226Y11388D01*
X12204Y11442D01*
X12179Y11493D01*
X12151Y11543D01*
X12120Y11591D01*
X12085Y11637D01*
X12047Y11680D01*
X12022Y11705D01*
X11994Y11726D01*
X11965Y11745D01*
X11933Y11761D01*
X11900Y11773D01*
X11867Y11782D01*
X11832Y11787D01*
X11797Y11789D01*
X11762Y11787D01*
X11727Y11782D01*
X11694Y11773D01*
X11661Y11761D01*
X11629Y11745D01*
X11600Y11726D01*
X11572Y11705D01*
X11547Y11680D01*
X6947Y10180D02*
X6847Y9980D01*
X6947Y10180D02*
X6963Y10216D01*
X6975Y10253D01*
X6984Y10292D01*
X6989Y10330D01*
X6991Y10370D01*
X6989Y10409D01*
X6983Y10447D01*
X6973Y10485D01*
X6960Y10522D01*
X6944Y10558D01*
X6924Y10592D01*
X6901Y10624D01*
X6876Y10653D01*
X6847Y10680D01*
X6823Y10703D01*
X6802Y10728D01*
X6784Y10755D01*
X6770Y10785D01*
X6759Y10816D01*
X6751Y10847D01*
X6747Y10880D01*
X6747Y10881D02*
X6743Y10968D01*
X6742Y11055D01*
X6745Y11143D01*
X6752Y11230D01*
X6762Y11317D01*
X6775Y11403D01*
X6792Y11489D01*
X6813Y11574D01*
X6837Y11658D01*
X6864Y11741D01*
X6895Y11823D01*
X6929Y11903D01*
X6966Y11982D01*
X7007Y12059D01*
X7051Y12135D01*
X7097Y12209D01*
X7147Y12281D01*
X6847Y9981D02*
X6834Y9949D01*
X6824Y9916D01*
X6817Y9882D01*
X6814Y9848D01*
X6815Y9813D01*
X6820Y9779D01*
X6828Y9745D01*
X6840Y9713D01*
X6856Y9682D01*
X6874Y9653D01*
X6896Y9626D01*
X6920Y9602D01*
X6948Y9580D01*
X7144Y9437D01*
X7338Y9289D01*
X7528Y9136D01*
X7713Y8979D01*
X7896Y8817D01*
X8074Y8651D01*
X8248Y8480D01*
X8289Y8441D01*
X8334Y8404D01*
X8380Y8371D01*
X8429Y8341D01*
X8479Y8314D01*
X8532Y8291D01*
X8586Y8271D01*
X8640Y8255D01*
X8696Y8243D01*
X8753Y8234D01*
X8810Y8229D01*
X8867Y8228D01*
X8924Y8231D01*
X8981Y8238D01*
X9038Y8248D01*
X9093Y8262D01*
X9148Y8280D01*
X9321Y8341D01*
X9495Y8398D01*
X9671Y8451D01*
X9848Y8499D01*
X10026Y8544D01*
X10205Y8584D01*
X10385Y8620D01*
X10566Y8652D01*
X10747Y8680D01*
X10748Y8680D02*
X10776Y8686D01*
X10804Y8695D01*
X10830Y8708D01*
X10854Y8723D01*
X10877Y8741D01*
X10897Y8762D01*
X10915Y8785D01*
X10929Y8810D01*
X10941Y8837D01*
X10949Y8865D01*
X10954Y8893D01*
X10955Y8922D01*
X10953Y8951D01*
X10947Y8980D01*
X10948Y8981D02*
X10938Y9027D01*
X10931Y9075D01*
X10929Y9123D01*
X10931Y9170D01*
X10936Y9218D01*
X10946Y9265D01*
X10959Y9310D01*
X10976Y9355D01*
X10996Y9398D01*
X11020Y9439D01*
X11048Y9479D01*
X11078Y9515D01*
X11112Y9549D01*
X11148Y9581D01*
X11147Y9580D02*
X11187Y9615D01*
X11225Y9652D01*
X11261Y9692D01*
X11294Y9734D01*
X11324Y9778D01*
X11351Y9823D01*
X11374Y9871D01*
X11395Y9920D01*
X11412Y9970D01*
X11426Y10022D01*
X11436Y10074D01*
X11443Y10127D01*
X11447Y10180D01*
X8547Y12680D02*
X8347Y12580D01*
X8547Y12681D02*
X8579Y12694D01*
X8612Y12704D01*
X8646Y12711D01*
X8680Y12714D01*
X8715Y12713D01*
X8749Y12708D01*
X8783Y12700D01*
X8815Y12688D01*
X8846Y12672D01*
X8875Y12654D01*
X8902Y12632D01*
X8926Y12608D01*
X8948Y12580D01*
X10547Y12180D02*
X10647Y12180D01*
X10647Y12181D02*
X10685Y12179D01*
X10723Y12174D01*
X10761Y12165D01*
X10797Y12153D01*
X10832Y12138D01*
X10866Y12119D01*
X10897Y12098D01*
X10927Y12073D01*
X10954Y12046D01*
X10979Y12017D01*
X11000Y11985D01*
X11019Y11952D01*
X11035Y11917D01*
X11047Y11881D01*
D11*
X10447Y11680D02*
X10347Y11580D01*
X10447Y11680D02*
X10471Y11701D01*
X10496Y11720D01*
X10524Y11735D01*
X10554Y11747D01*
X10584Y11756D01*
X10615Y11761D01*
X10647Y11763D01*
X10679Y11761D01*
X10710Y11756D01*
X10740Y11747D01*
X10770Y11735D01*
X10798Y11720D01*
X10823Y11701D01*
X10847Y11680D01*
X10881Y11643D01*
X10913Y11604D01*
X10942Y11562D01*
X10967Y11519D01*
X10990Y11474D01*
X11009Y11427D01*
X11025Y11380D01*
X11038Y11331D01*
X11047Y11281D01*
X11052Y11231D01*
X11054Y11181D01*
X11052Y11130D01*
X11047Y11080D01*
X8247Y12080D02*
X8047Y11880D01*
X8247Y12080D02*
X8276Y12106D01*
X8307Y12130D01*
X8341Y12150D01*
X8376Y12168D01*
X8412Y12182D01*
X8450Y12193D01*
X8488Y12200D01*
X8527Y12204D01*
X8567Y12204D01*
X8606Y12200D01*
X8644Y12193D01*
X8682Y12182D01*
X8718Y12168D01*
X8753Y12150D01*
X8787Y12130D01*
X8818Y12106D01*
X8847Y12080D01*
D10*
X7547Y8980D02*
X7547Y8780D01*
X7549Y8704D01*
X7553Y8627D01*
X7561Y8551D01*
X7572Y8476D01*
X7586Y8401D01*
X7603Y8326D01*
X7624Y8253D01*
X7647Y8180D01*
X7652Y8160D01*
X7655Y8140D01*
X7655Y8120D01*
X7652Y8100D01*
X7647Y8080D01*
X7626Y8025D01*
X7602Y7972D01*
X7575Y7920D01*
X7545Y7870D01*
X7512Y7822D01*
X7476Y7775D01*
X7437Y7732D01*
X7395Y7690D01*
X7352Y7651D01*
X7305Y7615D01*
X7257Y7582D01*
X7207Y7552D01*
X7155Y7525D01*
X7102Y7501D01*
X7047Y7480D01*
X7047Y7481D02*
X7014Y7471D01*
X6981Y7466D01*
X6947Y7464D01*
X6913Y7466D01*
X6880Y7471D01*
X6847Y7481D01*
X6847Y7480D02*
X6797Y7496D01*
X6745Y7507D01*
X6693Y7515D01*
X6641Y7520D01*
X6588Y7521D01*
X6536Y7518D01*
X6483Y7512D01*
X6432Y7502D01*
X6381Y7488D01*
X6331Y7471D01*
X6283Y7450D01*
X6236Y7426D01*
X6191Y7399D01*
X6148Y7369D01*
X6107Y7336D01*
X6068Y7300D01*
X6032Y7262D01*
X5999Y7221D01*
X5969Y7178D01*
X5942Y7133D01*
X5918Y7086D01*
X5897Y7037D01*
X5880Y6988D01*
X5867Y6937D01*
X5856Y6885D01*
X5850Y6833D01*
X5847Y6780D01*
X5848Y6781D02*
X5853Y6754D01*
X5862Y6727D01*
X5873Y6702D01*
X5887Y6679D01*
X5904Y6657D01*
X5924Y6637D01*
X5946Y6620D01*
X5969Y6606D01*
X5994Y6595D01*
X6021Y6586D01*
X6048Y6581D01*
X6047Y6580D02*
X6033Y6563D01*
X6021Y6544D01*
X6013Y6524D01*
X6008Y6502D01*
X6006Y6480D01*
X6008Y6458D01*
X6013Y6436D01*
X6021Y6416D01*
X6033Y6397D01*
X6047Y6380D01*
X6079Y6351D01*
X6113Y6324D01*
X6149Y6301D01*
X6187Y6280D01*
X6227Y6263D01*
X6268Y6249D01*
X6310Y6238D01*
X6352Y6231D01*
X6396Y6227D01*
X6439Y6227D01*
X6482Y6231D01*
X6524Y6238D01*
X6566Y6249D01*
X6607Y6263D01*
X6647Y6280D01*
X6647Y6281D02*
X6690Y6303D01*
X6730Y6329D01*
X6769Y6358D01*
X6805Y6389D01*
X6839Y6423D01*
X6870Y6459D01*
X6899Y6498D01*
X6925Y6538D01*
X6947Y6581D01*
X6971Y6625D01*
X6999Y6669D01*
X7029Y6710D01*
X7062Y6748D01*
X7098Y6785D01*
X7136Y6818D01*
X7176Y6849D01*
X7219Y6877D01*
X7264Y6902D01*
X7310Y6923D01*
X7357Y6941D01*
X7406Y6956D01*
X7456Y6967D01*
X7506Y6975D01*
X7557Y6978D01*
X7608Y6979D01*
X7659Y6975D01*
X7709Y6968D01*
X7759Y6958D01*
X7808Y6943D01*
X7856Y6926D01*
X7902Y6905D01*
X7947Y6880D01*
X7847Y6880D02*
X7947Y7080D01*
X7948Y7080D02*
X7961Y7112D01*
X7971Y7145D01*
X7978Y7179D01*
X7981Y7213D01*
X7980Y7248D01*
X7975Y7282D01*
X7967Y7316D01*
X7955Y7348D01*
X7939Y7379D01*
X7921Y7408D01*
X7899Y7435D01*
X7875Y7459D01*
X7847Y7481D01*
X7947Y7080D02*
X8347Y7480D01*
X6847Y6380D02*
X6747Y6180D01*
X6736Y6155D01*
X6728Y6129D01*
X6724Y6103D01*
X6723Y6076D01*
X6725Y6049D01*
X6731Y6022D01*
X6739Y5996D01*
X6751Y5972D01*
X6765Y5949D01*
X6782Y5928D01*
X6802Y5909D01*
X6823Y5893D01*
X6847Y5880D01*
X6885Y5863D01*
X6924Y5850D01*
X6965Y5841D01*
X7006Y5835D01*
X7047Y5833D01*
X7088Y5835D01*
X7129Y5841D01*
X7170Y5850D01*
X7209Y5863D01*
X7247Y5880D01*
X7347Y5780D01*
X7347Y5781D02*
X7387Y5737D01*
X7430Y5697D01*
X7475Y5659D01*
X7522Y5624D01*
X7571Y5592D01*
X7623Y5564D01*
X7676Y5539D01*
X7730Y5517D01*
X7786Y5499D01*
X7843Y5484D01*
X7901Y5473D01*
X7959Y5465D01*
X8018Y5461D01*
X8076Y5461D01*
X8135Y5465D01*
X8193Y5473D01*
X8251Y5484D01*
X8308Y5499D01*
X8364Y5517D01*
X8418Y5539D01*
X8471Y5564D01*
X8523Y5592D01*
X8572Y5624D01*
X8619Y5659D01*
X8664Y5697D01*
X8707Y5737D01*
X8747Y5781D01*
X8811Y5870D01*
X8873Y5961D01*
X8931Y6054D01*
X8986Y6149D01*
X9037Y6246D01*
X9086Y6345D01*
X9131Y6445D01*
X9172Y6547D01*
X9210Y6650D01*
X9245Y6754D01*
X9276Y6859D01*
X9303Y6966D01*
X9327Y7073D01*
X9347Y7181D01*
X8747Y5680D02*
X8947Y5580D01*
X8974Y5571D01*
X9003Y5565D01*
X9031Y5562D01*
X9060Y5563D01*
X9088Y5567D01*
X9116Y5574D01*
X9142Y5585D01*
X9168Y5599D01*
X9191Y5615D01*
X9212Y5635D01*
X9231Y5656D01*
X9247Y5680D01*
X9247Y5580D02*
X9447Y5480D01*
X9513Y5449D01*
X9581Y5422D01*
X9650Y5398D01*
X9720Y5378D01*
X9791Y5361D01*
X9863Y5348D01*
X9936Y5339D01*
X10009Y5334D01*
X10082Y5333D01*
X10155Y5336D01*
X10228Y5342D01*
X10300Y5352D01*
X10372Y5366D01*
X10443Y5384D01*
X10513Y5405D01*
X10582Y5430D01*
X10649Y5459D01*
X10715Y5491D01*
X10779Y5527D01*
X10841Y5565D01*
X10901Y5607D01*
X10958Y5653D01*
X11013Y5701D01*
X11066Y5751D01*
X11116Y5805D01*
X11162Y5861D01*
X11206Y5920D01*
X11247Y5980D01*
X11263Y6008D01*
X11274Y6037D01*
X11283Y6068D01*
X11287Y6099D01*
X11288Y6130D01*
X11285Y6162D01*
X11278Y6193D01*
X11267Y6222D01*
X11253Y6251D01*
X11236Y6277D01*
X11215Y6301D01*
X11192Y6322D01*
X11166Y6341D01*
X11138Y6356D01*
X11109Y6368D01*
X11079Y6376D01*
X11047Y6380D01*
X11247Y6180D02*
X11447Y6080D01*
X11496Y6058D01*
X11546Y6039D01*
X11597Y6024D01*
X11649Y6013D01*
X11702Y6006D01*
X11756Y6003D01*
X11809Y6004D01*
X11862Y6009D01*
X11915Y6017D01*
X11967Y6030D01*
X12018Y6046D01*
X12067Y6066D01*
X12115Y6089D01*
X12161Y6116D01*
X12205Y6146D01*
X12247Y6180D01*
X12248Y6181D02*
X12261Y6190D01*
X12276Y6196D01*
X12293Y6198D01*
X12309Y6196D01*
X12324Y6191D01*
X12338Y6183D01*
X12350Y6171D01*
X12358Y6157D01*
X12363Y6142D01*
X12365Y6126D01*
X12363Y6109D01*
X12357Y6094D01*
X12348Y6081D01*
X9347Y6580D02*
X9147Y6380D01*
X9348Y6580D02*
X9376Y6606D01*
X9407Y6629D01*
X9440Y6649D01*
X9474Y6667D01*
X9510Y6680D01*
X9547Y6691D01*
X9585Y6698D01*
X9623Y6702D01*
X9662Y6702D01*
X9700Y6698D01*
X9738Y6691D01*
X9775Y6680D01*
X9811Y6666D01*
X9845Y6649D01*
X9878Y6629D01*
X9908Y6606D01*
X9937Y6580D01*
X9963Y6551D01*
X9986Y6520D01*
X10006Y6488D01*
X10023Y6453D01*
X10037Y6417D01*
X10047Y6380D01*
X9747Y6780D02*
X9747Y6880D01*
X9749Y6933D01*
X9755Y6987D01*
X9764Y7039D01*
X9777Y7091D01*
X9794Y7142D01*
X9815Y7191D01*
X9839Y7239D01*
X9866Y7285D01*
X9896Y7329D01*
X9930Y7371D01*
X9966Y7410D01*
X10005Y7446D01*
X10047Y7480D01*
X10747Y8280D02*
X10647Y8580D01*
X10747Y8280D02*
X10786Y8158D01*
X10820Y8035D01*
X10851Y7911D01*
X10878Y7786D01*
X10901Y7661D01*
X10920Y7534D01*
X10936Y7407D01*
X10947Y7280D01*
X10948Y7281D02*
X10953Y7232D01*
X10962Y7184D01*
X10975Y7137D01*
X10991Y7092D01*
X11010Y7047D01*
X11033Y7004D01*
X11059Y6963D01*
X11087Y6923D01*
X11119Y6887D01*
X11154Y6852D01*
X11190Y6820D01*
X11230Y6792D01*
X11271Y6766D01*
X11314Y6743D01*
X11359Y6724D01*
X11404Y6708D01*
X11451Y6695D01*
X11499Y6686D01*
X11548Y6681D01*
X11548Y6680D02*
X11708Y6667D01*
X11869Y6650D01*
X12029Y6630D01*
X12188Y6607D01*
X12347Y6580D01*
X12393Y6570D01*
X12438Y6556D01*
X12482Y6539D01*
X12524Y6519D01*
X12565Y6496D01*
X12604Y6469D01*
X12641Y6440D01*
X12675Y6408D01*
X12707Y6374D01*
X12736Y6337D01*
X12763Y6298D01*
X12786Y6257D01*
X12806Y6215D01*
X12823Y6171D01*
X12837Y6126D01*
X12847Y6080D01*
X12848Y6081D02*
X12854Y6038D01*
X12856Y5994D01*
X12855Y5951D01*
X12849Y5908D01*
X12841Y5866D01*
X12829Y5824D01*
X12813Y5784D01*
X12794Y5745D01*
X12772Y5708D01*
X12747Y5672D01*
X12719Y5639D01*
X12689Y5609D01*
X12656Y5581D01*
X12620Y5556D01*
X12583Y5534D01*
X12544Y5515D01*
X12504Y5499D01*
X12462Y5487D01*
X12420Y5479D01*
X12377Y5473D01*
X12334Y5472D01*
X12290Y5474D01*
X12247Y5480D01*
X12247Y5481D02*
X12198Y5491D01*
X12150Y5505D01*
X12102Y5522D01*
X12056Y5541D01*
X12011Y5564D01*
X11967Y5589D01*
X11925Y5617D01*
X11885Y5648D01*
X11848Y5681D01*
X11848Y5680D02*
X11881Y5665D01*
X11916Y5654D01*
X11952Y5647D01*
X11988Y5643D01*
X12024Y5644D01*
X12061Y5647D01*
X12096Y5655D01*
X12131Y5666D01*
X12164Y5681D01*
X12196Y5699D01*
X12226Y5720D01*
X12253Y5745D01*
X12277Y5771D01*
X12299Y5801D01*
X12318Y5832D01*
X12333Y5865D01*
X12345Y5900D01*
X12353Y5935D01*
X12357Y5972D01*
X12358Y6008D01*
X12355Y6044D01*
X12348Y6080D01*
X8147Y11180D02*
X8147Y11380D01*
X8157Y11410D01*
X8170Y11439D01*
X8187Y11466D01*
X8206Y11491D01*
X8228Y11513D01*
X8252Y11534D01*
X8278Y11551D01*
X8306Y11565D01*
X8336Y11577D01*
X8366Y11584D01*
X8397Y11589D01*
X8429Y11590D01*
X8460Y11587D01*
X8491Y11581D01*
X8521Y11572D01*
X8550Y11559D01*
X8578Y11544D01*
X8603Y11525D01*
X8626Y11504D01*
X8647Y11480D01*
X8676Y11459D01*
X8703Y11436D01*
X8727Y11410D01*
X8748Y11382D01*
X8767Y11351D01*
X8782Y11319D01*
X8794Y11286D01*
X8803Y11251D01*
X8808Y11216D01*
X8810Y11181D01*
X8808Y11145D01*
X8803Y11110D01*
X8794Y11076D01*
X8781Y11043D01*
X8766Y11011D01*
X8747Y10981D01*
X8748Y10980D02*
X8712Y10939D01*
X8674Y10900D01*
X8634Y10864D01*
X8592Y10831D01*
X8547Y10800D01*
X8501Y10772D01*
X8453Y10747D01*
X8403Y10726D01*
X8352Y10707D01*
X8300Y10692D01*
X8248Y10680D01*
X8247Y10681D02*
X8222Y10669D01*
X8195Y10660D01*
X8167Y10655D01*
X8138Y10653D01*
X8110Y10655D01*
X8082Y10661D01*
X8055Y10670D01*
X8029Y10683D01*
X8006Y10699D01*
X7984Y10717D01*
X7966Y10739D01*
X7950Y10762D01*
X7937Y10788D01*
X7928Y10815D01*
X7922Y10843D01*
X7920Y10871D01*
X7922Y10900D01*
X7927Y10928D01*
X7936Y10955D01*
X7948Y10980D01*
X7947Y10981D02*
X7987Y11007D01*
X8025Y11036D01*
X8060Y11068D01*
X8092Y11103D01*
X8121Y11141D01*
X8147Y11181D01*
X10247Y10980D02*
X10247Y10880D01*
X10247Y10980D02*
X10249Y11010D01*
X10254Y11040D01*
X10263Y11069D01*
X10276Y11096D01*
X10291Y11122D01*
X10310Y11146D01*
X10331Y11167D01*
X10355Y11186D01*
X10381Y11201D01*
X10408Y11214D01*
X10437Y11223D01*
X10467Y11228D01*
X10497Y11230D01*
X10527Y11228D01*
X10557Y11223D01*
X10586Y11214D01*
X10613Y11201D01*
X10639Y11186D01*
X10663Y11167D01*
X10684Y11146D01*
X10703Y11122D01*
X10718Y11096D01*
X10731Y11069D01*
X10740Y11040D01*
X10745Y11010D01*
X10747Y10980D01*
X10247Y10880D02*
X10245Y10851D01*
X10240Y10823D01*
X10232Y10795D01*
X10221Y10768D01*
X10206Y10743D01*
X10189Y10720D01*
X10169Y10699D01*
X10147Y10680D01*
X10148Y10680D02*
X10117Y10654D01*
X10088Y10626D01*
X10062Y10595D01*
X10039Y10562D01*
X10019Y10527D01*
X10002Y10490D01*
X9988Y10452D01*
X9978Y10413D01*
X9972Y10374D01*
X9969Y10333D01*
X9970Y10293D01*
X9974Y10253D01*
X9982Y10214D01*
X9994Y10175D01*
X10009Y10138D01*
X10027Y10102D01*
X10049Y10068D01*
X10073Y10035D01*
X10100Y10006D01*
X10130Y9979D01*
X10162Y9954D01*
X10196Y9933D01*
X10232Y9915D01*
X10270Y9900D01*
X10308Y9888D01*
X10348Y9880D01*
X10347Y9880D02*
X10374Y9878D01*
X10400Y9879D01*
X10426Y9884D01*
X10451Y9893D01*
X10475Y9905D01*
X10497Y9920D01*
X10516Y9937D01*
X10533Y9958D01*
X10547Y9980D01*
X10548Y9980D02*
X10590Y10020D01*
X10629Y10062D01*
X10666Y10107D01*
X10699Y10154D01*
X10728Y10204D01*
X10755Y10255D01*
X10777Y10308D01*
X10796Y10363D01*
X10812Y10418D01*
X10823Y10475D01*
X10830Y10532D01*
X10834Y10590D01*
X10833Y10648D01*
X10829Y10705D01*
X10820Y10762D01*
X10808Y10819D01*
X10792Y10874D01*
X10772Y10928D01*
X10748Y10981D01*
X8547Y10080D02*
X8447Y10180D01*
X8548Y10081D02*
X8591Y10040D01*
X8637Y10002D01*
X8684Y9967D01*
X8734Y9934D01*
X8786Y9905D01*
X8840Y9879D01*
X8895Y9856D01*
X8951Y9837D01*
X9008Y9821D01*
X9066Y9809D01*
X9125Y9800D01*
X9184Y9795D01*
X9244Y9793D01*
X9303Y9795D01*
X9362Y9800D01*
X9421Y9809D01*
X9479Y9822D01*
X9536Y9838D01*
X9593Y9858D01*
X9648Y9881D01*
X9647Y9880D02*
X9675Y9891D01*
X9703Y9898D01*
X9732Y9902D01*
X9762Y9902D01*
X9791Y9898D01*
X9819Y9891D01*
X9847Y9880D01*
X8647Y10180D02*
X8547Y10180D01*
X8647Y10180D02*
X8676Y10182D01*
X8704Y10187D01*
X8732Y10195D01*
X8759Y10206D01*
X8784Y10221D01*
X8807Y10238D01*
X8828Y10258D01*
X8847Y10280D01*
X8847Y10281D02*
X8866Y10304D01*
X8888Y10325D01*
X8913Y10344D01*
X8939Y10360D01*
X8967Y10372D01*
X8996Y10382D01*
X9026Y10389D01*
X9056Y10392D01*
X9087Y10391D01*
X9117Y10388D01*
X9147Y10381D01*
X9211Y10360D01*
X9274Y10336D01*
X9336Y10309D01*
X9396Y10279D01*
X9455Y10246D01*
X9512Y10210D01*
X9567Y10170D01*
X9619Y10128D01*
X9670Y10084D01*
X9718Y10036D01*
X9764Y9987D01*
X9807Y9935D01*
X9847Y9881D01*
D12*
X8847Y9380D02*
X8793Y9369D01*
X8738Y9362D01*
X8682Y9359D01*
X8627Y9360D01*
X8571Y9364D01*
X8516Y9372D01*
X8462Y9384D01*
X8408Y9400D01*
X8356Y9419D01*
X8305Y9441D01*
X8256Y9467D01*
X8209Y9497D01*
X8164Y9529D01*
X8121Y9564D01*
X8080Y9603D01*
X8043Y9643D01*
X8008Y9687D01*
X7976Y9732D01*
X7947Y9780D01*
X8847Y9380D02*
X8909Y9348D01*
X8971Y9320D01*
X9036Y9295D01*
X9101Y9273D01*
X9168Y9255D01*
X9236Y9241D01*
X9304Y9231D01*
X9373Y9225D01*
X9442Y9222D01*
X9511Y9223D01*
X9580Y9228D01*
X9648Y9237D01*
X9716Y9250D01*
X9783Y9266D01*
X9849Y9287D01*
X9914Y9310D01*
X9977Y9338D01*
X10039Y9368D01*
X10099Y9403D01*
X10157Y9440D01*
D10*
X9437Y9141D02*
X9417Y9100D01*
X9394Y9062D01*
X9368Y9026D01*
X9338Y8992D01*
X9306Y8961D01*
X9271Y8933D01*
X9233Y8908D01*
X9194Y8886D01*
X9153Y8868D01*
X9111Y8853D01*
X9067Y8842D01*
X9023Y8835D01*
X8978Y8832D01*
X8933Y8833D01*
X8889Y8838D01*
X8845Y8846D01*
X8801Y8858D01*
X8760Y8874D01*
X8719Y8894D01*
X8681Y8917D01*
X8644Y8943D01*
X8610Y8972D01*
X8579Y9004D01*
X8550Y9039D01*
X8525Y9076D01*
X8503Y9115D01*
X8484Y9156D01*
X8469Y9198D01*
X8458Y9242D01*
X8451Y9286D01*
X8447Y9331D01*
D13*
X22748Y29362D02*
X22748Y31567D01*
X21567Y31567D01*
X21567Y29362D01*
X22748Y29362D01*
X9953Y29362D02*
X9953Y31567D01*
X8772Y31567D01*
X8772Y29362D01*
X9953Y29362D01*
M02*
