M48
;GenerationSoftware,Autodesk,EAGLE,9.0.0*%
;CreationDate,2018-05-03T15:05:51Z*%
FMAT,2
ICI,OFF
INCH,TZ,00.0000
T8C0.0118
T7C0.0138
T6C0.0197
T5C0.0276
T4C0.0354
T3C0.0400
T2C0.0787
T1C0.1260
%
G90
M72
T1
X29528Y33465
X26623Y6661
X17623Y6661
X13847Y6680
X4847Y6680
X26657Y26413
X13862Y19413
X1969Y1969
X29528Y1969
X4862Y19413
X1969Y33465
X26657Y19413
X17657Y19413
X17657Y26413
X4862Y26413
X13862Y26413
T2
X2949Y23921
X28524Y21949
X28524Y10886
X28524Y23917
X15748Y8917
X15748Y10886
X28524Y8917
X15748Y23917
X15748Y21949
X23110Y32835
X21142Y32835
X10335Y32835
X8366Y32835
X10335Y15551
X8366Y15551
X23110Y15551
X21142Y15551
X23110Y2756
X21142Y2756
X2933Y8917
X2933Y10886
X8366Y2756
X10335Y2756
X2949Y21953
T3
X22157Y25913
X21157Y25913
X20157Y25913
X7362Y25913
X5347Y13180
X7847Y13180
X8847Y13180
X9847Y13180
X10847Y13180
X19123Y13161
X18123Y13161
X21623Y13161
X22623Y13161
X6347Y13180
X23623Y13161
X11362Y25913
X10362Y25913
X9362Y25913
X8362Y25913
X20623Y13161
X24157Y25913
X23157Y25913
T4
X10228Y18163
X8496Y18163
X22989Y5411
X8481Y5430
X10213Y5430
X21291Y18163
X23024Y18163
X21257Y5411
T5
X26017Y13161
X12454Y13180
X25229Y13161
X13241Y13180
T6
X28917Y23720
X28130Y22146
X28130Y22539
X28130Y22933
X28130Y23327
X28130Y23720
X16142Y9114
X16142Y9508
X16142Y9902
X16142Y10295
X16142Y10689
X15354Y9114
X15354Y9902
X15354Y10295
X15354Y10689
X15354Y9508
X3327Y9114
X3327Y9508
X3327Y9902
X3327Y10295
X3327Y10689
X2539Y9114
X2539Y9508
X2539Y9902
X2539Y10295
X2539Y10689
X3343Y22150
X3343Y22543
X3343Y22937
X3343Y23331
X3343Y23724
X2555Y22150
X2555Y22543
X2555Y22937
X2555Y23331
X2555Y23724
X8563Y2362
X8957Y2362
X9350Y2362
X9744Y2362
X10138Y2362
X8563Y3150
X8957Y3150
X9350Y3150
X9744Y3150
X10138Y3150
X21339Y2362
X21732Y2362
X22126Y2362
X22520Y2362
X22913Y2362
X21339Y3150
X21732Y3150
X22126Y3150
X22520Y3150
X22913Y3150
X21339Y15157
X21732Y15157
X22126Y15157
X22520Y15157
X22913Y15157
X21339Y15945
X21732Y15945
X22126Y15945
X22520Y15945
X22913Y15945
X8563Y15157
X8957Y15157
X9350Y15157
X9744Y15157
X10138Y15157
X8563Y15945
X8957Y15945
X9350Y15945
X9744Y15945
X10138Y15945
X8563Y32441
X8957Y32441
X9350Y32441
X9744Y32441
X10138Y32441
X8563Y33228
X8957Y33228
X9350Y33228
X9744Y33228
X10138Y33228
X21339Y32441
X21732Y32441
X22126Y32441
X22520Y32441
X22913Y32441
X21339Y33228
X21732Y33228
X22126Y33228
X22520Y33228
X22913Y33228
X16142Y22146
X16142Y22539
X16142Y22933
X16142Y23327
X16142Y23720
X15354Y22146
X15354Y22539
X15354Y22933
X15354Y23327
X15354Y23720
X28917Y9114
X28917Y9508
X28917Y9902
X28917Y10295
X28917Y10689
X28130Y9114
X28130Y9508
X28130Y9902
X28130Y10295
X28130Y10689
X28917Y22146
X28917Y22539
X28917Y22933
X28917Y23327
T7
X21123Y7286
X24373Y7911
X6097Y8930
X22157Y31788
X6097Y9930
X11597Y7930
X12847Y9930
X8347Y7305
X18873Y9911
X11597Y7430
X23060Y11786
X24373Y7411
X25623Y9911
X18873Y8911
X10285Y11805
X9362Y31788
T8
X24407Y20663
X21157Y20038
X24407Y20163
X20657Y30476
X19845Y27788
X21095Y30476
X23407Y24579
X19282Y27476
X18907Y24663
X18220Y25038
X23282Y28288
X22720Y28163
X5300Y24601
X18907Y22663
X23657Y25163
X10862Y25163
X10300Y27788
X7300Y28476
X8925Y29038
X9800Y29038
X10050Y28726
X9925Y28163
X10487Y28288
X5425Y25038
X6112Y24663
X6487Y27476
X10612Y24579
X8300Y30476
X7050Y27788
X18907Y21663
X11612Y20163
X8362Y20038
X25657Y22663
X11612Y20663
X12862Y22663
X6112Y21663
X7862Y30476
X18095Y24601
X23095Y27788
X20095Y28476
X21720Y29038
X22595Y29038
X22845Y28726
X6112Y22663
M30