G75*
%MOIN*%
%OFA0B0*%
%FSLAX25Y25*%
%IPPOS*%
%LPD*%
%AMOC8*
5,1,8,0,0,1.08239X$1,22.5*
%
%ADD10C,0.01200*%
%ADD11C,0.00600*%
%ADD12C,0.01600*%
%ADD13C,0.01000*%
D10*
X0046000Y0029250D02*
X0061000Y0033750D01*
X0056501Y0039749D02*
X0056626Y0039987D01*
X0056746Y0040228D01*
X0056859Y0040471D01*
X0056967Y0040717D01*
X0057069Y0040966D01*
X0057165Y0041217D01*
X0057255Y0041470D01*
X0057338Y0041726D01*
X0057416Y0041983D01*
X0057487Y0042242D01*
X0057552Y0042503D01*
X0057611Y0042765D01*
X0057664Y0043028D01*
X0057710Y0043293D01*
X0057750Y0043559D01*
X0057783Y0043825D01*
X0057810Y0044093D01*
X0057831Y0044360D01*
X0057845Y0044629D01*
X0057852Y0044897D01*
X0057854Y0045166D01*
X0057848Y0045435D01*
X0057837Y0045703D01*
X0057819Y0045971D01*
X0057794Y0046239D01*
X0057763Y0046506D01*
X0057726Y0046772D01*
X0057682Y0047037D01*
X0057632Y0047301D01*
X0057576Y0047564D01*
X0057513Y0047825D01*
X0057444Y0048084D01*
X0057369Y0048342D01*
X0057287Y0048598D01*
X0057200Y0048853D01*
X0057106Y0049104D01*
X0057007Y0049354D01*
X0056901Y0049601D01*
X0056790Y0049846D01*
X0056672Y0050087D01*
X0056549Y0050326D01*
X0056420Y0050562D01*
X0056286Y0050795D01*
X0056146Y0051024D01*
X0056001Y0051250D01*
X0056000Y0051250D02*
X0055900Y0051353D01*
X0055803Y0051459D01*
X0055708Y0051567D01*
X0055617Y0051678D01*
X0055528Y0051791D01*
X0055443Y0051906D01*
X0055361Y0052024D01*
X0055282Y0052144D01*
X0055206Y0052266D01*
X0055134Y0052390D01*
X0055065Y0052516D01*
X0054999Y0052644D01*
X0054937Y0052773D01*
X0054879Y0052904D01*
X0054824Y0053037D01*
X0054772Y0053171D01*
X0054725Y0053307D01*
X0054681Y0053443D01*
X0054640Y0053581D01*
X0054604Y0053720D01*
X0054571Y0053860D01*
X0054542Y0054001D01*
X0054517Y0054142D01*
X0054496Y0054284D01*
X0054478Y0054427D01*
X0054464Y0054570D01*
X0054455Y0054713D01*
X0054449Y0054856D01*
X0054447Y0055000D01*
X0054449Y0055144D01*
X0054455Y0055287D01*
X0054464Y0055430D01*
X0054478Y0055573D01*
X0054496Y0055716D01*
X0054517Y0055858D01*
X0054542Y0055999D01*
X0054571Y0056140D01*
X0054604Y0056280D01*
X0054640Y0056419D01*
X0054681Y0056557D01*
X0054725Y0056693D01*
X0054772Y0056829D01*
X0054824Y0056963D01*
X0054879Y0057096D01*
X0054937Y0057227D01*
X0054999Y0057356D01*
X0055065Y0057484D01*
X0055134Y0057610D01*
X0055206Y0057734D01*
X0055282Y0057856D01*
X0055361Y0057976D01*
X0055443Y0058094D01*
X0055528Y0058209D01*
X0055617Y0058322D01*
X0055708Y0058433D01*
X0055803Y0058541D01*
X0055900Y0058647D01*
X0056000Y0058750D01*
X0068500Y0063750D02*
X0068434Y0064085D01*
X0068361Y0064418D01*
X0068280Y0064749D01*
X0068191Y0065078D01*
X0068093Y0065405D01*
X0067988Y0065729D01*
X0067875Y0066051D01*
X0067753Y0066370D01*
X0067625Y0066685D01*
X0067488Y0066998D01*
X0067344Y0067307D01*
X0067193Y0067612D01*
X0067034Y0067914D01*
X0066867Y0068212D01*
X0066694Y0068506D01*
X0066513Y0068795D01*
X0066326Y0069080D01*
X0066131Y0069360D01*
X0065930Y0069635D01*
X0065722Y0069905D01*
X0065508Y0070170D01*
X0065287Y0070430D01*
X0065060Y0070685D01*
X0064826Y0070933D01*
X0064587Y0071176D01*
X0064342Y0071413D01*
X0064091Y0071644D01*
X0063835Y0071869D01*
X0063573Y0072088D01*
X0063306Y0072300D01*
X0063034Y0072505D01*
X0062757Y0072704D01*
X0062475Y0072896D01*
X0062188Y0073081D01*
X0061897Y0073259D01*
X0061602Y0073430D01*
X0061303Y0073593D01*
X0061000Y0073750D01*
X0046000Y0078750D01*
X0056000Y0071250D01*
X0056147Y0071099D01*
X0056291Y0070945D01*
X0056431Y0070788D01*
X0056567Y0070627D01*
X0056699Y0070463D01*
X0056827Y0070296D01*
X0056951Y0070125D01*
X0057071Y0069952D01*
X0057187Y0069776D01*
X0057299Y0069598D01*
X0057406Y0069417D01*
X0057510Y0069233D01*
X0057608Y0069047D01*
X0057702Y0068858D01*
X0057792Y0068668D01*
X0057877Y0068475D01*
X0057958Y0068280D01*
X0058034Y0068084D01*
X0058105Y0067886D01*
X0058171Y0067686D01*
X0058233Y0067484D01*
X0058289Y0067281D01*
X0058341Y0067077D01*
X0058389Y0066872D01*
X0058431Y0066666D01*
X0058468Y0066458D01*
X0058500Y0066250D01*
X0058528Y0066036D01*
X0058551Y0065822D01*
X0058568Y0065607D01*
X0058580Y0065391D01*
X0058587Y0065176D01*
X0058589Y0064960D01*
X0058585Y0064744D01*
X0058576Y0064529D01*
X0058562Y0064314D01*
X0058543Y0064099D01*
X0058518Y0063885D01*
X0058489Y0063671D01*
X0058453Y0063458D01*
X0058413Y0063246D01*
X0058368Y0063035D01*
X0058317Y0062826D01*
X0058262Y0062617D01*
X0058201Y0062410D01*
X0058135Y0062205D01*
X0058065Y0062001D01*
X0057989Y0061799D01*
X0057909Y0061599D01*
X0057823Y0061401D01*
X0057733Y0061205D01*
X0057638Y0061011D01*
X0057538Y0060820D01*
X0057434Y0060631D01*
X0057325Y0060445D01*
X0057212Y0060262D01*
X0057094Y0060081D01*
X0056972Y0059903D01*
X0056845Y0059729D01*
X0056714Y0059557D01*
X0056579Y0059389D01*
X0056441Y0059224D01*
X0056298Y0059062D01*
X0056151Y0058904D01*
X0056000Y0058750D01*
X0068500Y0043750D02*
X0068434Y0043415D01*
X0068361Y0043082D01*
X0068280Y0042751D01*
X0068191Y0042422D01*
X0068093Y0042095D01*
X0067988Y0041771D01*
X0067875Y0041449D01*
X0067753Y0041130D01*
X0067625Y0040815D01*
X0067488Y0040502D01*
X0067344Y0040193D01*
X0067193Y0039888D01*
X0067034Y0039586D01*
X0066867Y0039288D01*
X0066694Y0038994D01*
X0066513Y0038705D01*
X0066326Y0038420D01*
X0066131Y0038140D01*
X0065930Y0037865D01*
X0065722Y0037595D01*
X0065508Y0037330D01*
X0065287Y0037070D01*
X0065060Y0036815D01*
X0064826Y0036567D01*
X0064587Y0036324D01*
X0064342Y0036087D01*
X0064091Y0035856D01*
X0063835Y0035631D01*
X0063573Y0035412D01*
X0063306Y0035200D01*
X0063034Y0034995D01*
X0062757Y0034796D01*
X0062475Y0034604D01*
X0062188Y0034419D01*
X0061897Y0034241D01*
X0061602Y0034070D01*
X0061303Y0033907D01*
X0061000Y0033750D01*
X0068501Y0043750D02*
X0068622Y0044046D01*
X0068751Y0044340D01*
X0068887Y0044631D01*
X0069030Y0044918D01*
X0069179Y0045202D01*
X0069336Y0045482D01*
X0069499Y0045758D01*
X0069668Y0046030D01*
X0069845Y0046298D01*
X0070027Y0046562D01*
X0070216Y0046822D01*
X0070411Y0047076D01*
X0070612Y0047326D01*
X0070819Y0047571D01*
X0071032Y0047811D01*
X0071250Y0048046D01*
X0071474Y0048276D01*
X0071704Y0048500D01*
X0071939Y0048718D01*
X0072179Y0048931D01*
X0072424Y0049138D01*
X0072674Y0049339D01*
X0072928Y0049534D01*
X0073188Y0049723D01*
X0073452Y0049905D01*
X0073720Y0050082D01*
X0073992Y0050251D01*
X0074268Y0050414D01*
X0074548Y0050571D01*
X0074832Y0050720D01*
X0075119Y0050863D01*
X0075410Y0050999D01*
X0075704Y0051128D01*
X0076000Y0051249D01*
X0083000Y0076750D02*
X0083382Y0076872D01*
X0083767Y0076985D01*
X0084155Y0077089D01*
X0084545Y0077183D01*
X0084937Y0077268D01*
X0085331Y0077343D01*
X0085727Y0077409D01*
X0086124Y0077465D01*
X0086522Y0077512D01*
X0086922Y0077549D01*
X0087322Y0077576D01*
X0087723Y0077594D01*
X0088124Y0077602D01*
X0088525Y0077600D01*
X0088926Y0077588D01*
X0089327Y0077567D01*
X0089727Y0077536D01*
X0090126Y0077496D01*
X0090524Y0077446D01*
X0090921Y0077386D01*
X0091316Y0077316D01*
X0091709Y0077238D01*
X0092101Y0077149D01*
X0092490Y0077052D01*
X0092876Y0076944D01*
X0093260Y0076828D01*
X0093641Y0076702D01*
X0094019Y0076567D01*
X0094394Y0076423D01*
X0094765Y0076270D01*
X0095132Y0076109D01*
X0095495Y0075938D01*
X0095854Y0075758D01*
X0096208Y0075570D01*
X0096558Y0075374D01*
X0096903Y0075169D01*
X0097242Y0074956D01*
X0097577Y0074734D01*
X0097906Y0074505D01*
X0098230Y0074268D01*
X0098547Y0074023D01*
X0098859Y0073770D01*
X0099165Y0073510D01*
X0099464Y0073243D01*
X0099756Y0072968D01*
X0100042Y0072687D01*
X0100321Y0072398D01*
X0100593Y0072103D01*
X0100858Y0071802D01*
X0101115Y0071494D01*
X0101365Y0071180D01*
X0101607Y0070860D01*
X0101841Y0070534D01*
X0102068Y0070203D01*
X0102286Y0069867D01*
X0102496Y0069525D01*
X0102698Y0069178D01*
X0102891Y0068827D01*
X0103076Y0068471D01*
X0103252Y0068110D01*
X0103420Y0067746D01*
X0103578Y0067377D01*
X0103728Y0067005D01*
X0103869Y0066629D01*
X0104000Y0066250D01*
X0109000Y0067250D02*
X0108744Y0067692D01*
X0108479Y0068127D01*
X0108202Y0068556D01*
X0107916Y0068978D01*
X0107619Y0069393D01*
X0107312Y0069800D01*
X0106996Y0070200D01*
X0106670Y0070593D01*
X0106334Y0070977D01*
X0105990Y0071353D01*
X0105636Y0071720D01*
X0105273Y0072079D01*
X0104902Y0072429D01*
X0104523Y0072770D01*
X0104135Y0073102D01*
X0103740Y0073424D01*
X0103337Y0073736D01*
X0102926Y0074039D01*
X0102508Y0074331D01*
X0102084Y0074614D01*
X0101652Y0074886D01*
X0101214Y0075147D01*
X0100770Y0075398D01*
X0100320Y0075638D01*
X0099864Y0075867D01*
X0099403Y0076085D01*
X0098937Y0076292D01*
X0098465Y0076487D01*
X0097990Y0076671D01*
X0097510Y0076843D01*
X0097025Y0077004D01*
X0096538Y0077152D01*
X0096046Y0077289D01*
X0095552Y0077414D01*
X0095054Y0077527D01*
X0094554Y0077628D01*
X0094052Y0077717D01*
X0093548Y0077794D01*
X0093042Y0077858D01*
X0092534Y0077910D01*
X0092026Y0077950D01*
X0091517Y0077978D01*
X0091007Y0077993D01*
X0090497Y0077996D01*
X0089987Y0077986D01*
X0089477Y0077964D01*
X0088968Y0077930D01*
X0088460Y0077883D01*
X0087954Y0077824D01*
X0087448Y0077753D01*
X0086945Y0077670D01*
X0086444Y0077575D01*
X0085946Y0077467D01*
X0085450Y0077348D01*
X0084957Y0077216D01*
X0084467Y0077073D01*
X0083982Y0076917D01*
X0083500Y0076750D01*
X0091000Y0066250D02*
X0090765Y0065902D01*
X0090521Y0065559D01*
X0090270Y0065223D01*
X0090010Y0064892D01*
X0089742Y0064569D01*
X0089467Y0064251D01*
X0089184Y0063941D01*
X0088893Y0063637D01*
X0088595Y0063341D01*
X0088290Y0063052D01*
X0087978Y0062771D01*
X0087659Y0062497D01*
X0087334Y0062231D01*
X0087002Y0061973D01*
X0086664Y0061724D01*
X0086320Y0061482D01*
X0085970Y0061249D01*
X0085615Y0061025D01*
X0085254Y0060809D01*
X0084889Y0060603D01*
X0084518Y0060405D01*
X0084143Y0060216D01*
X0083763Y0060037D01*
X0083379Y0059866D01*
X0082990Y0059706D01*
X0082598Y0059554D01*
X0082203Y0059413D01*
X0081804Y0059281D01*
X0081402Y0059158D01*
X0080997Y0059046D01*
X0080590Y0058943D01*
X0080180Y0058851D01*
X0079768Y0058768D01*
X0079354Y0058696D01*
X0078938Y0058633D01*
X0078521Y0058581D01*
X0078103Y0058539D01*
X0077684Y0058507D01*
X0077265Y0058485D01*
X0076845Y0058474D01*
X0076425Y0058473D01*
X0076004Y0058482D01*
X0075585Y0058501D01*
X0075166Y0058531D01*
X0074747Y0058570D01*
X0074330Y0058620D01*
X0073914Y0058680D01*
X0073500Y0058750D01*
X0073346Y0058780D01*
X0073193Y0058814D01*
X0073041Y0058852D01*
X0072890Y0058893D01*
X0072740Y0058939D01*
X0072591Y0058988D01*
X0072444Y0059040D01*
X0072297Y0059097D01*
X0072153Y0059157D01*
X0072010Y0059221D01*
X0071868Y0059288D01*
X0071728Y0059359D01*
X0071591Y0059434D01*
X0071455Y0059512D01*
X0071321Y0059593D01*
X0071189Y0059678D01*
X0071059Y0059766D01*
X0070932Y0059857D01*
X0070807Y0059951D01*
X0070684Y0060049D01*
X0070564Y0060150D01*
X0070446Y0060253D01*
X0070331Y0060360D01*
X0070219Y0060469D01*
X0070110Y0060581D01*
X0070003Y0060696D01*
X0069900Y0060814D01*
X0069799Y0060934D01*
X0069701Y0061057D01*
X0069607Y0061182D01*
X0069516Y0061309D01*
X0069428Y0061439D01*
X0069343Y0061571D01*
X0069262Y0061705D01*
X0069184Y0061841D01*
X0069109Y0061978D01*
X0069038Y0062118D01*
X0068971Y0062260D01*
X0068907Y0062403D01*
X0068847Y0062547D01*
X0068790Y0062694D01*
X0068738Y0062841D01*
X0068689Y0062990D01*
X0068643Y0063140D01*
X0068602Y0063291D01*
X0068564Y0063443D01*
X0068530Y0063596D01*
X0068500Y0063750D01*
X0084500Y0076750D02*
X0085015Y0076981D01*
X0085535Y0077198D01*
X0086060Y0077404D01*
X0086590Y0077596D01*
X0087125Y0077776D01*
X0087664Y0077942D01*
X0088206Y0078096D01*
X0088752Y0078236D01*
X0089302Y0078363D01*
X0089854Y0078477D01*
X0090409Y0078577D01*
X0090966Y0078664D01*
X0091525Y0078737D01*
X0092086Y0078797D01*
X0092648Y0078843D01*
X0093211Y0078876D01*
X0093774Y0078895D01*
X0094338Y0078900D01*
X0094902Y0078892D01*
X0095465Y0078869D01*
X0096028Y0078834D01*
X0096590Y0078784D01*
X0097150Y0078722D01*
X0097709Y0078645D01*
X0098265Y0078555D01*
X0098820Y0078452D01*
X0099371Y0078335D01*
X0099920Y0078205D01*
X0100465Y0078062D01*
X0101007Y0077905D01*
X0101545Y0077735D01*
X0102078Y0077553D01*
X0102607Y0077357D01*
X0103131Y0077149D01*
X0103650Y0076928D01*
X0104164Y0076695D01*
X0104671Y0076449D01*
X0105173Y0076192D01*
X0105668Y0075922D01*
X0106156Y0075640D01*
X0106637Y0075346D01*
X0107112Y0075041D01*
X0107578Y0074724D01*
X0108037Y0074397D01*
X0108488Y0074058D01*
X0108930Y0073708D01*
X0109364Y0073348D01*
X0109789Y0072978D01*
X0110205Y0072597D01*
X0110611Y0072206D01*
X0111008Y0071806D01*
X0111396Y0071396D01*
X0111773Y0070976D01*
X0112139Y0070548D01*
X0112496Y0070111D01*
X0112842Y0069666D01*
X0113176Y0069212D01*
X0113500Y0068750D01*
X0118500Y0069750D02*
X0118092Y0070257D01*
X0117672Y0070754D01*
X0117240Y0071240D01*
X0116797Y0071716D01*
X0116342Y0072181D01*
X0115875Y0072635D01*
X0115398Y0073078D01*
X0114911Y0073509D01*
X0114413Y0073927D01*
X0113905Y0074334D01*
X0113388Y0074728D01*
X0112861Y0075110D01*
X0112325Y0075479D01*
X0111780Y0075835D01*
X0111226Y0076177D01*
X0110665Y0076506D01*
X0110096Y0076821D01*
X0109519Y0077123D01*
X0108935Y0077410D01*
X0108345Y0077683D01*
X0107748Y0077942D01*
X0107145Y0078186D01*
X0106536Y0078415D01*
X0105922Y0078630D01*
X0105302Y0078830D01*
X0104678Y0079014D01*
X0104050Y0079184D01*
X0103418Y0079338D01*
X0102782Y0079477D01*
X0102144Y0079600D01*
X0101502Y0079708D01*
X0100858Y0079801D01*
X0100212Y0079878D01*
X0099564Y0079939D01*
X0098915Y0079984D01*
X0098265Y0080014D01*
X0097614Y0080028D01*
X0096964Y0080026D01*
X0096313Y0080008D01*
X0095664Y0079975D01*
X0095015Y0079926D01*
X0094367Y0079861D01*
X0093722Y0079781D01*
X0093078Y0079685D01*
X0092437Y0079573D01*
X0091799Y0079446D01*
X0091164Y0079304D01*
X0090533Y0079146D01*
X0089906Y0078973D01*
X0089283Y0078785D01*
X0088665Y0078582D01*
X0088052Y0078364D01*
X0087444Y0078131D01*
X0086842Y0077883D01*
X0086247Y0077621D01*
X0085658Y0077345D01*
X0085075Y0077054D01*
X0084500Y0076750D01*
X0085129Y0077136D01*
X0085768Y0077507D01*
X0086415Y0077862D01*
X0087071Y0078201D01*
X0087735Y0078524D01*
X0088406Y0078831D01*
X0089085Y0079122D01*
X0089770Y0079396D01*
X0090462Y0079654D01*
X0091160Y0079894D01*
X0091863Y0080118D01*
X0092572Y0080325D01*
X0093286Y0080514D01*
X0094004Y0080686D01*
X0094725Y0080841D01*
X0095451Y0080978D01*
X0096179Y0081097D01*
X0096911Y0081199D01*
X0097644Y0081283D01*
X0098379Y0081350D01*
X0099116Y0081398D01*
X0099854Y0081429D01*
X0100592Y0081442D01*
X0101330Y0081436D01*
X0102068Y0081414D01*
X0102805Y0081373D01*
X0103541Y0081314D01*
X0104275Y0081238D01*
X0105007Y0081143D01*
X0105737Y0081031D01*
X0106464Y0080902D01*
X0107187Y0080755D01*
X0107907Y0080590D01*
X0108622Y0080408D01*
X0109333Y0080209D01*
X0110039Y0079992D01*
X0110739Y0079759D01*
X0111434Y0079509D01*
X0112122Y0079242D01*
X0112804Y0078958D01*
X0113478Y0078658D01*
X0114145Y0078342D01*
X0114805Y0078009D01*
X0115455Y0077661D01*
X0116098Y0077297D01*
X0116731Y0076918D01*
X0117355Y0076523D01*
X0117969Y0076114D01*
X0118573Y0075689D01*
X0119167Y0075250D01*
X0119750Y0074797D01*
X0120322Y0074330D01*
X0120882Y0073850D01*
X0121430Y0073355D01*
X0121967Y0072848D01*
X0122491Y0072328D01*
X0123002Y0071795D01*
X0123500Y0071250D01*
X0128500Y0053750D02*
X0128817Y0053370D01*
X0129143Y0052997D01*
X0129477Y0052633D01*
X0129821Y0052276D01*
X0130173Y0051928D01*
X0130533Y0051589D01*
X0130902Y0051258D01*
X0131278Y0050936D01*
X0131662Y0050624D01*
X0132054Y0050321D01*
X0132452Y0050028D01*
X0132858Y0049744D01*
X0133270Y0049470D01*
X0133689Y0049206D01*
X0134114Y0048952D01*
X0134545Y0048709D01*
X0134982Y0048476D01*
X0135425Y0048254D01*
X0135872Y0048043D01*
X0136325Y0047842D01*
X0136782Y0047653D01*
X0137244Y0047475D01*
X0137710Y0047307D01*
X0138180Y0047152D01*
X0138653Y0047007D01*
X0139130Y0046874D01*
X0139610Y0046753D01*
X0140093Y0046643D01*
X0140578Y0046545D01*
X0141066Y0046459D01*
X0141555Y0046384D01*
X0142046Y0046322D01*
X0142538Y0046271D01*
X0143032Y0046232D01*
X0143526Y0046205D01*
X0144021Y0046190D01*
X0144516Y0046187D01*
X0145011Y0046196D01*
X0145506Y0046217D01*
X0146000Y0046250D01*
X0146195Y0046256D01*
X0146389Y0046267D01*
X0146583Y0046283D01*
X0146776Y0046303D01*
X0146969Y0046328D01*
X0147161Y0046358D01*
X0147353Y0046393D01*
X0147543Y0046433D01*
X0147733Y0046477D01*
X0147921Y0046525D01*
X0148108Y0046579D01*
X0148294Y0046636D01*
X0148478Y0046699D01*
X0148661Y0046766D01*
X0148842Y0046837D01*
X0149021Y0046913D01*
X0149198Y0046993D01*
X0149373Y0047077D01*
X0149547Y0047166D01*
X0149718Y0047259D01*
X0149886Y0047356D01*
X0150052Y0047457D01*
X0150216Y0047563D01*
X0150377Y0047672D01*
X0150535Y0047785D01*
X0150690Y0047902D01*
X0150843Y0048023D01*
X0150992Y0048147D01*
X0151139Y0048275D01*
X0151282Y0048407D01*
X0151422Y0048542D01*
X0151559Y0048681D01*
X0151692Y0048823D01*
X0151821Y0048968D01*
X0151947Y0049116D01*
X0152070Y0049267D01*
X0152188Y0049421D01*
X0152303Y0049578D01*
X0152414Y0049738D01*
X0152521Y0049901D01*
X0152624Y0050066D01*
X0152723Y0050233D01*
X0152818Y0050403D01*
X0152908Y0050575D01*
X0152994Y0050750D01*
X0153076Y0050926D01*
X0153154Y0051104D01*
X0153227Y0051285D01*
X0153296Y0051467D01*
X0153360Y0051650D01*
X0153420Y0051835D01*
X0153476Y0052022D01*
X0153526Y0052210D01*
X0153572Y0052399D01*
X0153614Y0052589D01*
X0153650Y0052780D01*
X0153682Y0052972D01*
X0153710Y0053164D01*
X0153732Y0053357D01*
X0153750Y0053551D01*
X0153763Y0053745D01*
X0153771Y0053940D01*
X0153775Y0054134D01*
X0153774Y0054329D01*
X0153768Y0054523D01*
X0153757Y0054717D01*
X0153741Y0054911D01*
X0153721Y0055105D01*
X0153696Y0055298D01*
X0153666Y0055490D01*
X0153632Y0055681D01*
X0153593Y0055872D01*
X0153549Y0056061D01*
X0153500Y0056250D01*
X0143500Y0048750D02*
X0143466Y0048479D01*
X0143426Y0048208D01*
X0143380Y0047938D01*
X0143327Y0047670D01*
X0143267Y0047403D01*
X0143201Y0047138D01*
X0143129Y0046874D01*
X0143050Y0046612D01*
X0142965Y0046352D01*
X0142874Y0046094D01*
X0142776Y0045839D01*
X0142673Y0045585D01*
X0142563Y0045335D01*
X0142447Y0045087D01*
X0142325Y0044842D01*
X0142198Y0044600D01*
X0142065Y0044361D01*
X0141925Y0044126D01*
X0141781Y0043894D01*
X0141630Y0043665D01*
X0141474Y0043440D01*
X0141313Y0043219D01*
X0141147Y0043002D01*
X0140975Y0042789D01*
X0140798Y0042581D01*
X0140617Y0042376D01*
X0140430Y0042176D01*
X0140238Y0041981D01*
X0140042Y0041790D01*
X0139842Y0041604D01*
X0139637Y0041423D01*
X0139427Y0041247D01*
X0139214Y0041077D01*
X0138996Y0040911D01*
X0138774Y0040751D01*
X0138549Y0040596D01*
X0138320Y0040446D01*
X0138087Y0040302D01*
X0137851Y0040164D01*
X0137612Y0040032D01*
X0137369Y0039905D01*
X0137124Y0039784D01*
X0136876Y0039669D01*
X0136625Y0039561D01*
X0136371Y0039458D01*
X0136115Y0039361D01*
X0135857Y0039271D01*
X0135597Y0039187D01*
X0135335Y0039109D01*
X0135070Y0039038D01*
X0134805Y0038973D01*
X0134538Y0038915D01*
X0134269Y0038863D01*
X0133999Y0038817D01*
X0133729Y0038778D01*
X0133457Y0038746D01*
X0133185Y0038720D01*
X0132912Y0038700D01*
X0132639Y0038688D01*
X0132365Y0038682D01*
X0132092Y0038682D01*
X0131818Y0038689D01*
X0131545Y0038703D01*
X0131272Y0038723D01*
X0131000Y0038750D01*
X0153500Y0056250D02*
X0153269Y0057066D01*
X0153018Y0057876D01*
X0152748Y0058679D01*
X0152457Y0059476D01*
X0152148Y0060265D01*
X0151819Y0061046D01*
X0151471Y0061819D01*
X0151105Y0062584D01*
X0150720Y0063339D01*
X0150316Y0064085D01*
X0149895Y0064820D01*
X0149456Y0065545D01*
X0148999Y0066259D01*
X0148524Y0066962D01*
X0148033Y0067653D01*
X0147525Y0068332D01*
X0147001Y0068998D01*
X0146460Y0069651D01*
X0145904Y0070290D01*
X0145332Y0070916D01*
X0144745Y0071528D01*
X0144143Y0072125D01*
X0143527Y0072707D01*
X0142897Y0073275D01*
X0142253Y0073826D01*
X0141596Y0074362D01*
X0140926Y0074881D01*
X0140244Y0075384D01*
X0139549Y0075870D01*
X0138843Y0076339D01*
X0138126Y0076791D01*
X0137398Y0077225D01*
X0136659Y0077641D01*
X0135910Y0078038D01*
X0135152Y0078418D01*
X0134385Y0078779D01*
X0133609Y0079121D01*
X0132826Y0079443D01*
X0132034Y0079747D01*
X0131235Y0080031D01*
X0130430Y0080296D01*
X0129618Y0080541D01*
X0128801Y0080766D01*
X0127978Y0080971D01*
X0127151Y0081156D01*
X0126320Y0081320D01*
X0125484Y0081464D01*
X0124645Y0081588D01*
X0123804Y0081691D01*
X0122960Y0081774D01*
X0122115Y0081836D01*
X0121268Y0081877D01*
X0120421Y0081897D01*
X0119573Y0081897D01*
X0118725Y0081877D01*
X0117879Y0081835D01*
X0117033Y0081773D01*
X0116190Y0081690D01*
X0115348Y0081586D01*
X0114510Y0081463D01*
X0113674Y0081318D01*
X0112843Y0081153D01*
X0112015Y0080968D01*
X0111193Y0080763D01*
X0110376Y0080538D01*
X0109564Y0080293D01*
X0108759Y0080028D01*
X0107960Y0079743D01*
X0107169Y0079440D01*
X0106385Y0079116D01*
X0105609Y0078774D01*
X0104842Y0078413D01*
X0104084Y0078034D01*
X0103336Y0077636D01*
X0102597Y0077219D01*
X0101869Y0076785D01*
X0101152Y0076333D01*
X0100446Y0075864D01*
X0099751Y0075378D01*
X0099069Y0074875D01*
X0098399Y0074355D01*
X0097742Y0073819D01*
X0097099Y0073268D01*
X0096469Y0072700D01*
X0095853Y0072118D01*
X0095251Y0071520D01*
X0094665Y0070909D01*
X0094093Y0070282D01*
X0093537Y0069643D01*
X0092997Y0068989D01*
X0092472Y0068323D01*
X0091965Y0067644D01*
X0091474Y0066953D01*
X0091000Y0066251D01*
X0083000Y0076750D02*
X0083693Y0077250D01*
X0084399Y0077732D01*
X0085116Y0078198D01*
X0085844Y0078646D01*
X0086582Y0079076D01*
X0087331Y0079488D01*
X0088089Y0079882D01*
X0088857Y0080258D01*
X0089634Y0080614D01*
X0090419Y0080952D01*
X0091212Y0081271D01*
X0092012Y0081570D01*
X0092820Y0081850D01*
X0093634Y0082111D01*
X0094454Y0082351D01*
X0095280Y0082572D01*
X0096111Y0082772D01*
X0096946Y0082953D01*
X0097786Y0083113D01*
X0098629Y0083252D01*
X0099475Y0083372D01*
X0100324Y0083470D01*
X0101175Y0083549D01*
X0102028Y0083606D01*
X0102882Y0083643D01*
X0103737Y0083659D01*
X0104591Y0083655D01*
X0105446Y0083629D01*
X0106299Y0083584D01*
X0107151Y0083517D01*
X0108002Y0083430D01*
X0108849Y0083322D01*
X0109694Y0083194D01*
X0110536Y0083045D01*
X0111374Y0082876D01*
X0112207Y0082687D01*
X0113036Y0082478D01*
X0113859Y0082248D01*
X0114677Y0081999D01*
X0115488Y0081730D01*
X0116293Y0081442D01*
X0117090Y0081134D01*
X0117880Y0080807D01*
X0118661Y0080460D01*
X0119434Y0080095D01*
X0120198Y0079712D01*
X0120952Y0079310D01*
X0121696Y0078890D01*
X0122430Y0078452D01*
X0123154Y0077996D01*
X0123865Y0077523D01*
X0124566Y0077033D01*
X0125254Y0076526D01*
X0125929Y0076003D01*
X0126592Y0075463D01*
X0127242Y0074908D01*
X0127878Y0074336D01*
X0128499Y0073750D01*
X0131000Y0038751D02*
X0128906Y0038862D01*
X0126816Y0039021D01*
X0124730Y0039229D01*
X0122649Y0039486D01*
X0120575Y0039790D01*
X0118508Y0040143D01*
X0116450Y0040543D01*
X0114402Y0040990D01*
X0112364Y0041486D01*
X0110339Y0042028D01*
X0108327Y0042617D01*
X0106329Y0043252D01*
X0104346Y0043933D01*
X0102380Y0044661D01*
X0100431Y0045433D01*
X0098500Y0046251D01*
X0098500Y0046250D02*
X0097599Y0046717D01*
X0096688Y0047162D01*
X0095766Y0047585D01*
X0094834Y0047987D01*
X0093894Y0048367D01*
X0092944Y0048724D01*
X0091987Y0049059D01*
X0091021Y0049372D01*
X0090049Y0049661D01*
X0089070Y0049928D01*
X0088085Y0050171D01*
X0087095Y0050391D01*
X0086100Y0050588D01*
X0085100Y0050761D01*
X0084097Y0050910D01*
X0083090Y0051036D01*
X0082081Y0051138D01*
X0081070Y0051217D01*
X0080057Y0051271D01*
X0079043Y0051302D01*
X0078028Y0051308D01*
X0077014Y0051291D01*
X0076000Y0051250D01*
X0056499Y0039750D02*
X0056196Y0039201D01*
X0055879Y0038659D01*
X0055549Y0038126D01*
X0055206Y0037600D01*
X0054850Y0037083D01*
X0054482Y0036575D01*
X0054101Y0036076D01*
X0053709Y0035586D01*
X0053305Y0035106D01*
X0052889Y0034636D01*
X0052461Y0034176D01*
X0052023Y0033727D01*
X0051574Y0033289D01*
X0051114Y0032861D01*
X0050644Y0032445D01*
X0050164Y0032041D01*
X0049674Y0031649D01*
X0049175Y0031268D01*
X0048667Y0030900D01*
X0048150Y0030544D01*
X0047624Y0030201D01*
X0047091Y0029871D01*
X0046549Y0029554D01*
X0046000Y0029251D01*
D11*
X0059000Y0036250D02*
X0059036Y0036344D01*
X0059068Y0036439D01*
X0059097Y0036536D01*
X0059122Y0036634D01*
X0059143Y0036732D01*
X0059160Y0036831D01*
X0059174Y0036931D01*
X0059184Y0037031D01*
X0059190Y0037132D01*
X0059193Y0037232D01*
X0059192Y0037333D01*
X0059187Y0037434D01*
X0059178Y0037534D01*
X0059165Y0037634D01*
X0059149Y0037733D01*
X0059129Y0037832D01*
X0059106Y0037930D01*
X0059078Y0038027D01*
X0059048Y0038123D01*
X0059013Y0038218D01*
X0058975Y0038311D01*
X0058934Y0038403D01*
X0058889Y0038493D01*
X0058841Y0038581D01*
X0058790Y0038668D01*
X0058735Y0038753D01*
X0058677Y0038835D01*
X0058616Y0038915D01*
X0058553Y0038993D01*
X0058486Y0039069D01*
X0058417Y0039142D01*
X0058345Y0039212D01*
X0058270Y0039280D01*
X0058193Y0039345D01*
X0058113Y0039406D01*
X0058031Y0039465D01*
X0057948Y0039521D01*
X0057862Y0039573D01*
X0057774Y0039623D01*
X0057684Y0039669D01*
X0057593Y0039711D01*
X0057500Y0039750D01*
X0059000Y0036250D02*
X0058953Y0036130D01*
X0058902Y0036011D01*
X0058848Y0035894D01*
X0058790Y0035779D01*
X0058729Y0035665D01*
X0058664Y0035554D01*
X0058596Y0035444D01*
X0058525Y0035336D01*
X0058450Y0035231D01*
X0058373Y0035128D01*
X0058292Y0035027D01*
X0058208Y0034929D01*
X0058121Y0034833D01*
X0058032Y0034741D01*
X0057940Y0034650D01*
X0057845Y0034563D01*
X0057747Y0034478D01*
X0057647Y0034397D01*
X0057545Y0034319D01*
X0057440Y0034243D01*
X0057333Y0034171D01*
X0057224Y0034102D01*
X0057112Y0034037D01*
X0056999Y0033975D01*
X0056884Y0033916D01*
X0056768Y0033861D01*
X0056649Y0033809D01*
X0056530Y0033761D01*
X0056409Y0033717D01*
X0056286Y0033676D01*
X0056162Y0033639D01*
X0056038Y0033606D01*
X0055912Y0033577D01*
X0055786Y0033551D01*
X0055658Y0033529D01*
X0055531Y0033511D01*
X0055402Y0033497D01*
X0055274Y0033487D01*
X0055145Y0033480D01*
X0055016Y0033478D01*
X0054887Y0033479D01*
X0054758Y0033485D01*
X0054629Y0033494D01*
X0054501Y0033507D01*
X0054373Y0033524D01*
X0054246Y0033545D01*
X0054119Y0033570D01*
X0053993Y0033598D01*
X0053868Y0033631D01*
X0053744Y0033667D01*
X0053621Y0033707D01*
X0053500Y0033750D01*
X0059000Y0036250D02*
X0059211Y0036307D01*
X0059420Y0036369D01*
X0059628Y0036436D01*
X0059834Y0036508D01*
X0060038Y0036585D01*
X0060241Y0036667D01*
X0060441Y0036753D01*
X0060639Y0036845D01*
X0060835Y0036941D01*
X0061029Y0037042D01*
X0061220Y0037148D01*
X0061408Y0037258D01*
X0061594Y0037373D01*
X0061777Y0037493D01*
X0061957Y0037616D01*
X0062134Y0037744D01*
X0062307Y0037876D01*
X0062478Y0038013D01*
X0062645Y0038153D01*
X0062809Y0038298D01*
X0062969Y0038446D01*
X0063126Y0038598D01*
X0063278Y0038754D01*
X0063427Y0038914D01*
X0063573Y0039077D01*
X0063714Y0039243D01*
X0063851Y0039413D01*
X0063984Y0039587D01*
X0064112Y0039763D01*
X0064237Y0039942D01*
X0064357Y0040125D01*
X0064472Y0040310D01*
X0064583Y0040498D01*
X0064690Y0040689D01*
X0064792Y0040882D01*
X0064889Y0041077D01*
X0064981Y0041275D01*
X0065069Y0041475D01*
X0065152Y0041677D01*
X0065230Y0041881D01*
X0065302Y0042087D01*
X0065370Y0042294D01*
X0065433Y0042503D01*
X0065491Y0042714D01*
X0065544Y0042926D01*
X0065591Y0043139D01*
X0065634Y0043353D01*
X0065671Y0043568D01*
X0065703Y0043784D01*
X0065730Y0044001D01*
X0065751Y0044218D01*
X0065767Y0044436D01*
X0065778Y0044654D01*
X0065784Y0044872D01*
X0065785Y0045091D01*
X0065780Y0045309D01*
X0065770Y0045527D01*
X0065754Y0045745D01*
X0065734Y0045962D01*
X0065708Y0046179D01*
X0065677Y0046395D01*
X0065640Y0046610D01*
X0065599Y0046825D01*
X0065552Y0047038D01*
X0065500Y0047250D01*
X0065442Y0047105D01*
X0065379Y0046961D01*
X0065313Y0046820D01*
X0065243Y0046680D01*
X0065170Y0046541D01*
X0065093Y0046405D01*
X0065013Y0046271D01*
X0064930Y0046138D01*
X0064843Y0046008D01*
X0064753Y0045880D01*
X0064660Y0045755D01*
X0064563Y0045632D01*
X0064464Y0045511D01*
X0064361Y0045393D01*
X0064255Y0045277D01*
X0064147Y0045164D01*
X0064036Y0045054D01*
X0063922Y0044947D01*
X0063805Y0044843D01*
X0063686Y0044742D01*
X0063564Y0044644D01*
X0063440Y0044549D01*
X0063313Y0044457D01*
X0063184Y0044368D01*
X0063053Y0044283D01*
X0062920Y0044201D01*
X0062785Y0044122D01*
X0062647Y0044047D01*
X0062508Y0043975D01*
X0062368Y0043907D01*
X0062225Y0043843D01*
X0062081Y0043782D01*
X0061935Y0043725D01*
X0061788Y0043671D01*
X0061640Y0043621D01*
X0061490Y0043575D01*
X0061340Y0043533D01*
X0061188Y0043495D01*
X0061036Y0043460D01*
X0060882Y0043430D01*
X0060728Y0043403D01*
X0060573Y0043380D01*
X0060418Y0043361D01*
X0060262Y0043346D01*
X0060106Y0043335D01*
X0059950Y0043328D01*
X0059793Y0043325D01*
X0059637Y0043326D01*
X0059481Y0043331D01*
X0059324Y0043340D01*
X0059169Y0043352D01*
X0059013Y0043369D01*
X0058858Y0043390D01*
X0058703Y0043414D01*
X0058550Y0043443D01*
X0058397Y0043475D01*
X0058244Y0043511D01*
X0058093Y0043551D01*
X0057943Y0043595D01*
X0057794Y0043643D01*
X0057646Y0043694D01*
X0057500Y0043750D01*
X0056500Y0039750D02*
X0056700Y0039734D01*
X0056899Y0039723D01*
X0057100Y0039717D01*
X0057300Y0039716D01*
X0057500Y0039720D01*
X0057700Y0039728D01*
X0057900Y0039742D01*
X0058099Y0039760D01*
X0058298Y0039783D01*
X0058496Y0039810D01*
X0058694Y0039843D01*
X0058890Y0039880D01*
X0059086Y0039922D01*
X0059281Y0039969D01*
X0059474Y0040020D01*
X0059666Y0040076D01*
X0059857Y0040137D01*
X0060046Y0040202D01*
X0060234Y0040272D01*
X0060420Y0040346D01*
X0060604Y0040425D01*
X0060786Y0040509D01*
X0060966Y0040596D01*
X0061144Y0040688D01*
X0061319Y0040784D01*
X0061492Y0040885D01*
X0061663Y0040989D01*
X0061831Y0041098D01*
X0061997Y0041211D01*
X0062159Y0041327D01*
X0062319Y0041448D01*
X0062476Y0041572D01*
X0062630Y0041701D01*
X0062780Y0041832D01*
X0062928Y0041968D01*
X0063072Y0042107D01*
X0063213Y0042249D01*
X0063350Y0042395D01*
X0063484Y0042544D01*
X0063614Y0042696D01*
X0063740Y0042852D01*
X0063862Y0043010D01*
X0063981Y0043171D01*
X0064096Y0043335D01*
X0064206Y0043502D01*
X0064313Y0043671D01*
X0064416Y0043843D01*
X0064514Y0044018D01*
X0064608Y0044194D01*
X0064698Y0044373D01*
X0064783Y0044554D01*
X0064864Y0044737D01*
X0064941Y0044922D01*
X0065013Y0045109D01*
X0065081Y0045297D01*
X0065144Y0045487D01*
X0065202Y0045679D01*
X0065256Y0045872D01*
X0065305Y0046066D01*
X0065349Y0046261D01*
X0065389Y0046457D01*
X0065424Y0046654D01*
X0065454Y0046852D01*
X0065479Y0047051D01*
X0065500Y0047250D01*
X0065379Y0053750D02*
X0065381Y0053842D01*
X0065387Y0053934D01*
X0065397Y0054025D01*
X0065411Y0054116D01*
X0065429Y0054206D01*
X0065450Y0054295D01*
X0065476Y0054384D01*
X0065505Y0054471D01*
X0065538Y0054556D01*
X0065575Y0054641D01*
X0065615Y0054723D01*
X0065659Y0054804D01*
X0065707Y0054883D01*
X0065757Y0054959D01*
X0065811Y0055034D01*
X0065869Y0055106D01*
X0065929Y0055175D01*
X0065992Y0055242D01*
X0066058Y0055306D01*
X0066127Y0055367D01*
X0066198Y0055425D01*
X0066272Y0055479D01*
X0066348Y0055531D01*
X0066426Y0055579D01*
X0066507Y0055624D01*
X0066589Y0055665D01*
X0066672Y0055703D01*
X0066758Y0055737D01*
X0066845Y0055767D01*
X0066933Y0055794D01*
X0067022Y0055816D01*
X0067112Y0055835D01*
X0067202Y0055850D01*
X0067294Y0055861D01*
X0067385Y0055868D01*
X0067477Y0055871D01*
X0067569Y0055870D01*
X0067661Y0055865D01*
X0067752Y0055856D01*
X0067843Y0055843D01*
X0067933Y0055826D01*
X0068023Y0055806D01*
X0068112Y0055781D01*
X0068199Y0055753D01*
X0068285Y0055720D01*
X0068370Y0055685D01*
X0068453Y0055645D01*
X0068534Y0055602D01*
X0068613Y0055555D01*
X0068690Y0055506D01*
X0068765Y0055452D01*
X0068838Y0055396D01*
X0068908Y0055336D01*
X0068975Y0055274D01*
X0069040Y0055209D01*
X0069102Y0055141D01*
X0069160Y0055070D01*
X0069216Y0054997D01*
X0069268Y0054921D01*
X0069317Y0054843D01*
X0069363Y0054764D01*
X0069405Y0054682D01*
X0069444Y0054599D01*
X0069479Y0054514D01*
X0069510Y0054427D01*
X0069537Y0054340D01*
X0069561Y0054251D01*
X0069581Y0054161D01*
X0069597Y0054070D01*
X0069609Y0053979D01*
X0069617Y0053888D01*
X0069621Y0053796D01*
X0069621Y0053704D01*
X0069617Y0053612D01*
X0069609Y0053521D01*
X0069597Y0053430D01*
X0069581Y0053339D01*
X0069561Y0053249D01*
X0069537Y0053160D01*
X0069510Y0053073D01*
X0069479Y0052986D01*
X0069444Y0052901D01*
X0069405Y0052818D01*
X0069363Y0052736D01*
X0069317Y0052657D01*
X0069268Y0052579D01*
X0069216Y0052503D01*
X0069160Y0052430D01*
X0069102Y0052359D01*
X0069040Y0052291D01*
X0068975Y0052226D01*
X0068908Y0052164D01*
X0068838Y0052104D01*
X0068765Y0052048D01*
X0068690Y0051994D01*
X0068613Y0051945D01*
X0068534Y0051898D01*
X0068453Y0051855D01*
X0068370Y0051815D01*
X0068285Y0051780D01*
X0068199Y0051747D01*
X0068112Y0051719D01*
X0068023Y0051694D01*
X0067933Y0051674D01*
X0067843Y0051657D01*
X0067752Y0051644D01*
X0067661Y0051635D01*
X0067569Y0051630D01*
X0067477Y0051629D01*
X0067385Y0051632D01*
X0067294Y0051639D01*
X0067202Y0051650D01*
X0067112Y0051665D01*
X0067022Y0051684D01*
X0066933Y0051706D01*
X0066845Y0051733D01*
X0066758Y0051763D01*
X0066672Y0051797D01*
X0066589Y0051835D01*
X0066507Y0051876D01*
X0066426Y0051921D01*
X0066348Y0051969D01*
X0066272Y0052021D01*
X0066198Y0052075D01*
X0066127Y0052133D01*
X0066058Y0052194D01*
X0065992Y0052258D01*
X0065929Y0052325D01*
X0065869Y0052394D01*
X0065811Y0052466D01*
X0065757Y0052541D01*
X0065707Y0052617D01*
X0065659Y0052696D01*
X0065615Y0052777D01*
X0065575Y0052859D01*
X0065538Y0052944D01*
X0065505Y0053029D01*
X0065476Y0053116D01*
X0065450Y0053205D01*
X0065429Y0053294D01*
X0065411Y0053384D01*
X0065397Y0053475D01*
X0065387Y0053566D01*
X0065381Y0053658D01*
X0065379Y0053750D01*
X0061172Y0054250D02*
X0061174Y0054356D01*
X0061180Y0054461D01*
X0061190Y0054567D01*
X0061204Y0054671D01*
X0061221Y0054776D01*
X0061243Y0054879D01*
X0061268Y0054982D01*
X0061298Y0055084D01*
X0061331Y0055184D01*
X0061367Y0055283D01*
X0061408Y0055381D01*
X0061452Y0055477D01*
X0061500Y0055571D01*
X0061551Y0055664D01*
X0061605Y0055755D01*
X0061663Y0055843D01*
X0061725Y0055929D01*
X0061789Y0056013D01*
X0061856Y0056095D01*
X0061927Y0056174D01*
X0062000Y0056250D01*
X0062076Y0056323D01*
X0062155Y0056394D01*
X0062237Y0056461D01*
X0062321Y0056525D01*
X0062407Y0056587D01*
X0062495Y0056645D01*
X0062586Y0056699D01*
X0062679Y0056750D01*
X0062773Y0056798D01*
X0062869Y0056842D01*
X0062967Y0056883D01*
X0063066Y0056919D01*
X0063166Y0056952D01*
X0063268Y0056982D01*
X0063371Y0057007D01*
X0063474Y0057029D01*
X0063579Y0057046D01*
X0063683Y0057060D01*
X0063789Y0057070D01*
X0063894Y0057076D01*
X0064000Y0057078D01*
X0064106Y0057076D01*
X0064211Y0057070D01*
X0064317Y0057060D01*
X0064421Y0057046D01*
X0064526Y0057029D01*
X0064629Y0057007D01*
X0064732Y0056982D01*
X0064834Y0056952D01*
X0064934Y0056919D01*
X0065033Y0056883D01*
X0065131Y0056842D01*
X0065227Y0056798D01*
X0065321Y0056750D01*
X0065414Y0056699D01*
X0065505Y0056645D01*
X0065593Y0056587D01*
X0065679Y0056525D01*
X0065763Y0056461D01*
X0065845Y0056394D01*
X0065924Y0056323D01*
X0066000Y0056250D01*
X0066073Y0056174D01*
X0066144Y0056095D01*
X0066211Y0056013D01*
X0066275Y0055929D01*
X0066337Y0055843D01*
X0066395Y0055755D01*
X0066449Y0055664D01*
X0066500Y0055571D01*
X0066548Y0055477D01*
X0066592Y0055381D01*
X0066633Y0055283D01*
X0066669Y0055184D01*
X0066702Y0055084D01*
X0066732Y0054982D01*
X0066757Y0054879D01*
X0066779Y0054776D01*
X0066796Y0054671D01*
X0066810Y0054567D01*
X0066820Y0054461D01*
X0066826Y0054356D01*
X0066828Y0054250D01*
X0066826Y0054144D01*
X0066820Y0054039D01*
X0066810Y0053933D01*
X0066796Y0053829D01*
X0066779Y0053724D01*
X0066757Y0053621D01*
X0066732Y0053518D01*
X0066702Y0053416D01*
X0066669Y0053316D01*
X0066633Y0053217D01*
X0066592Y0053119D01*
X0066548Y0053023D01*
X0066500Y0052929D01*
X0066449Y0052836D01*
X0066395Y0052745D01*
X0066337Y0052657D01*
X0066275Y0052571D01*
X0066211Y0052487D01*
X0066144Y0052405D01*
X0066073Y0052326D01*
X0066000Y0052250D01*
X0065924Y0052177D01*
X0065845Y0052106D01*
X0065763Y0052039D01*
X0065679Y0051975D01*
X0065593Y0051913D01*
X0065505Y0051855D01*
X0065414Y0051801D01*
X0065321Y0051750D01*
X0065227Y0051702D01*
X0065131Y0051658D01*
X0065033Y0051617D01*
X0064934Y0051581D01*
X0064834Y0051548D01*
X0064732Y0051518D01*
X0064629Y0051493D01*
X0064526Y0051471D01*
X0064421Y0051454D01*
X0064317Y0051440D01*
X0064211Y0051430D01*
X0064106Y0051424D01*
X0064000Y0051422D01*
X0063894Y0051424D01*
X0063789Y0051430D01*
X0063683Y0051440D01*
X0063579Y0051454D01*
X0063474Y0051471D01*
X0063371Y0051493D01*
X0063268Y0051518D01*
X0063166Y0051548D01*
X0063066Y0051581D01*
X0062967Y0051617D01*
X0062869Y0051658D01*
X0062773Y0051702D01*
X0062679Y0051750D01*
X0062586Y0051801D01*
X0062495Y0051855D01*
X0062407Y0051913D01*
X0062321Y0051975D01*
X0062237Y0052039D01*
X0062155Y0052106D01*
X0062076Y0052177D01*
X0062000Y0052250D01*
X0061927Y0052326D01*
X0061856Y0052405D01*
X0061789Y0052487D01*
X0061725Y0052571D01*
X0061663Y0052657D01*
X0061605Y0052745D01*
X0061551Y0052836D01*
X0061500Y0052929D01*
X0061452Y0053023D01*
X0061408Y0053119D01*
X0061367Y0053217D01*
X0061331Y0053316D01*
X0061298Y0053416D01*
X0061268Y0053518D01*
X0061243Y0053621D01*
X0061221Y0053724D01*
X0061204Y0053829D01*
X0061190Y0053933D01*
X0061180Y0054039D01*
X0061174Y0054144D01*
X0061172Y0054250D01*
X0066000Y0058750D02*
X0065891Y0058886D01*
X0065779Y0059020D01*
X0065663Y0059151D01*
X0065545Y0059279D01*
X0065423Y0059404D01*
X0065298Y0059527D01*
X0065171Y0059646D01*
X0065040Y0059762D01*
X0064907Y0059874D01*
X0064771Y0059984D01*
X0064632Y0060090D01*
X0064491Y0060192D01*
X0064347Y0060291D01*
X0064201Y0060387D01*
X0064052Y0060479D01*
X0063902Y0060567D01*
X0063749Y0060652D01*
X0063594Y0060732D01*
X0063438Y0060809D01*
X0063279Y0060882D01*
X0063119Y0060952D01*
X0062957Y0061017D01*
X0062793Y0061078D01*
X0062628Y0061135D01*
X0062462Y0061188D01*
X0062295Y0061238D01*
X0062126Y0061283D01*
X0061956Y0061323D01*
X0061785Y0061360D01*
X0061614Y0061392D01*
X0061442Y0061421D01*
X0061269Y0061445D01*
X0061095Y0061465D01*
X0060921Y0061480D01*
X0060747Y0061491D01*
X0060573Y0061498D01*
X0060398Y0061501D01*
X0060224Y0061499D01*
X0060049Y0061494D01*
X0059875Y0061483D01*
X0059701Y0061469D01*
X0059527Y0061450D01*
X0059354Y0061427D01*
X0059182Y0061400D01*
X0059010Y0061369D01*
X0058839Y0061333D01*
X0058669Y0061294D01*
X0058500Y0061250D01*
X0066000Y0058750D02*
X0066052Y0058993D01*
X0066098Y0059236D01*
X0066138Y0059481D01*
X0066173Y0059727D01*
X0066201Y0059974D01*
X0066223Y0060221D01*
X0066239Y0060468D01*
X0066249Y0060716D01*
X0066253Y0060964D01*
X0066251Y0061212D01*
X0066243Y0061460D01*
X0066228Y0061708D01*
X0066208Y0061955D01*
X0066181Y0062202D01*
X0066149Y0062448D01*
X0066110Y0062693D01*
X0066066Y0062937D01*
X0066016Y0063180D01*
X0065959Y0063422D01*
X0065897Y0063662D01*
X0065829Y0063901D01*
X0065755Y0064138D01*
X0065675Y0064373D01*
X0065589Y0064606D01*
X0065498Y0064836D01*
X0065402Y0065065D01*
X0065299Y0065291D01*
X0065191Y0065514D01*
X0065078Y0065735D01*
X0064959Y0065953D01*
X0064835Y0066168D01*
X0064706Y0066380D01*
X0064572Y0066588D01*
X0064432Y0066794D01*
X0064288Y0066995D01*
X0064139Y0067193D01*
X0063984Y0067388D01*
X0063826Y0067579D01*
X0063662Y0067765D01*
X0063494Y0067948D01*
X0063322Y0068126D01*
X0063145Y0068300D01*
X0062964Y0068470D01*
X0062779Y0068636D01*
X0062590Y0068796D01*
X0062397Y0068952D01*
X0062200Y0069104D01*
X0062000Y0069250D01*
X0061950Y0069407D01*
X0061896Y0069562D01*
X0061838Y0069716D01*
X0061777Y0069868D01*
X0061712Y0070019D01*
X0061643Y0070168D01*
X0061571Y0070316D01*
X0061495Y0070462D01*
X0061416Y0070606D01*
X0061333Y0070748D01*
X0061247Y0070887D01*
X0061157Y0071025D01*
X0061064Y0071161D01*
X0060968Y0071294D01*
X0060869Y0071425D01*
X0060766Y0071554D01*
X0060661Y0071680D01*
X0060552Y0071803D01*
X0060441Y0071924D01*
X0060326Y0072042D01*
X0060209Y0072157D01*
X0060089Y0072269D01*
X0059966Y0072379D01*
X0059841Y0072485D01*
X0059713Y0072589D01*
X0059583Y0072689D01*
X0059451Y0072786D01*
X0059316Y0072880D01*
X0059179Y0072970D01*
X0059039Y0073058D01*
X0058898Y0073141D01*
X0058754Y0073222D01*
X0058609Y0073299D01*
X0058462Y0073372D01*
X0058313Y0073442D01*
X0058163Y0073508D01*
X0058011Y0073570D01*
X0057857Y0073629D01*
X0057703Y0073684D01*
X0057547Y0073736D01*
X0057389Y0073783D01*
X0057231Y0073827D01*
X0057071Y0073867D01*
X0056911Y0073903D01*
X0056750Y0073935D01*
X0056588Y0073963D01*
X0056425Y0073988D01*
X0056262Y0074008D01*
X0056099Y0074025D01*
X0055935Y0074037D01*
X0055771Y0074046D01*
X0055607Y0074050D01*
X0055442Y0074051D01*
X0055278Y0074047D01*
X0055114Y0074040D01*
X0054950Y0074029D01*
X0054786Y0074013D01*
X0054623Y0073994D01*
X0054460Y0073971D01*
X0054298Y0073944D01*
X0054137Y0073913D01*
X0053976Y0073878D01*
X0053816Y0073839D01*
X0053658Y0073797D01*
X0053500Y0073750D01*
X0058500Y0068750D02*
X0058698Y0068817D01*
X0058898Y0068880D01*
X0059099Y0068938D01*
X0059301Y0068992D01*
X0059505Y0069040D01*
X0059710Y0069084D01*
X0059915Y0069124D01*
X0060122Y0069158D01*
X0060329Y0069188D01*
X0060537Y0069212D01*
X0060745Y0069232D01*
X0060954Y0069247D01*
X0061163Y0069258D01*
X0061372Y0069263D01*
X0061582Y0069264D01*
X0061791Y0069259D01*
X0062000Y0069250D01*
X0058500Y0066250D02*
X0058729Y0066202D01*
X0058957Y0066147D01*
X0059183Y0066087D01*
X0059408Y0066022D01*
X0059632Y0065951D01*
X0059853Y0065875D01*
X0060073Y0065793D01*
X0060290Y0065706D01*
X0060505Y0065613D01*
X0060718Y0065516D01*
X0060929Y0065413D01*
X0061136Y0065305D01*
X0061342Y0065192D01*
X0061544Y0065074D01*
X0061743Y0064951D01*
X0061940Y0064823D01*
X0062133Y0064690D01*
X0062322Y0064553D01*
X0062509Y0064411D01*
X0062692Y0064265D01*
X0062871Y0064114D01*
X0063046Y0063959D01*
X0063218Y0063799D01*
X0063386Y0063636D01*
X0063549Y0063468D01*
X0063709Y0063296D01*
X0063864Y0063121D01*
X0064015Y0062942D01*
X0064161Y0062759D01*
X0064303Y0062572D01*
X0064440Y0062383D01*
X0064573Y0062190D01*
X0064701Y0061993D01*
X0064824Y0061794D01*
X0064942Y0061592D01*
X0065055Y0061386D01*
X0065163Y0061179D01*
X0065266Y0060968D01*
X0065363Y0060755D01*
X0065456Y0060540D01*
X0065543Y0060323D01*
X0065625Y0060103D01*
X0065701Y0059882D01*
X0065772Y0059658D01*
X0065837Y0059433D01*
X0065897Y0059207D01*
X0065952Y0058979D01*
X0066000Y0058750D01*
X0056964Y0054750D02*
X0056966Y0054869D01*
X0056972Y0054987D01*
X0056982Y0055106D01*
X0056996Y0055224D01*
X0057014Y0055341D01*
X0057036Y0055458D01*
X0057061Y0055574D01*
X0057091Y0055689D01*
X0057124Y0055803D01*
X0057162Y0055916D01*
X0057203Y0056027D01*
X0057248Y0056137D01*
X0057296Y0056246D01*
X0057348Y0056353D01*
X0057404Y0056458D01*
X0057463Y0056561D01*
X0057525Y0056662D01*
X0057591Y0056761D01*
X0057660Y0056857D01*
X0057733Y0056951D01*
X0057808Y0057043D01*
X0057887Y0057132D01*
X0057968Y0057219D01*
X0058053Y0057302D01*
X0058140Y0057383D01*
X0058230Y0057461D01*
X0058322Y0057536D01*
X0058417Y0057607D01*
X0058514Y0057676D01*
X0058613Y0057741D01*
X0058715Y0057802D01*
X0058818Y0057861D01*
X0058924Y0057915D01*
X0059031Y0057966D01*
X0059140Y0058014D01*
X0059250Y0058058D01*
X0059362Y0058098D01*
X0059475Y0058134D01*
X0059590Y0058167D01*
X0059705Y0058195D01*
X0059821Y0058220D01*
X0059938Y0058241D01*
X0060056Y0058258D01*
X0060174Y0058271D01*
X0060292Y0058280D01*
X0060411Y0058285D01*
X0060530Y0058286D01*
X0060648Y0058283D01*
X0060767Y0058276D01*
X0060885Y0058265D01*
X0061003Y0058250D01*
X0061121Y0058231D01*
X0061237Y0058208D01*
X0061353Y0058182D01*
X0061468Y0058151D01*
X0061581Y0058117D01*
X0061694Y0058078D01*
X0061805Y0058036D01*
X0061915Y0057991D01*
X0062023Y0057941D01*
X0062129Y0057888D01*
X0062234Y0057832D01*
X0062336Y0057772D01*
X0062437Y0057709D01*
X0062535Y0057642D01*
X0062631Y0057572D01*
X0062725Y0057499D01*
X0062816Y0057422D01*
X0062904Y0057343D01*
X0062990Y0057261D01*
X0063073Y0057176D01*
X0063153Y0057088D01*
X0063230Y0056998D01*
X0063304Y0056905D01*
X0063375Y0056809D01*
X0063442Y0056711D01*
X0063506Y0056611D01*
X0063567Y0056509D01*
X0063625Y0056405D01*
X0063678Y0056299D01*
X0063729Y0056192D01*
X0063775Y0056083D01*
X0063818Y0055972D01*
X0063857Y0055860D01*
X0063893Y0055746D01*
X0063924Y0055632D01*
X0063952Y0055516D01*
X0063976Y0055400D01*
X0063996Y0055283D01*
X0064012Y0055165D01*
X0064024Y0055047D01*
X0064032Y0054928D01*
X0064036Y0054809D01*
X0064036Y0054691D01*
X0064032Y0054572D01*
X0064024Y0054453D01*
X0064012Y0054335D01*
X0063996Y0054217D01*
X0063976Y0054100D01*
X0063952Y0053984D01*
X0063924Y0053868D01*
X0063893Y0053754D01*
X0063857Y0053640D01*
X0063818Y0053528D01*
X0063775Y0053417D01*
X0063729Y0053308D01*
X0063678Y0053201D01*
X0063625Y0053095D01*
X0063567Y0052991D01*
X0063506Y0052889D01*
X0063442Y0052789D01*
X0063375Y0052691D01*
X0063304Y0052595D01*
X0063230Y0052502D01*
X0063153Y0052412D01*
X0063073Y0052324D01*
X0062990Y0052239D01*
X0062904Y0052157D01*
X0062816Y0052078D01*
X0062725Y0052001D01*
X0062631Y0051928D01*
X0062535Y0051858D01*
X0062437Y0051791D01*
X0062336Y0051728D01*
X0062234Y0051668D01*
X0062129Y0051612D01*
X0062023Y0051559D01*
X0061915Y0051509D01*
X0061805Y0051464D01*
X0061694Y0051422D01*
X0061581Y0051383D01*
X0061468Y0051349D01*
X0061353Y0051318D01*
X0061237Y0051292D01*
X0061121Y0051269D01*
X0061003Y0051250D01*
X0060885Y0051235D01*
X0060767Y0051224D01*
X0060648Y0051217D01*
X0060530Y0051214D01*
X0060411Y0051215D01*
X0060292Y0051220D01*
X0060174Y0051229D01*
X0060056Y0051242D01*
X0059938Y0051259D01*
X0059821Y0051280D01*
X0059705Y0051305D01*
X0059590Y0051333D01*
X0059475Y0051366D01*
X0059362Y0051402D01*
X0059250Y0051442D01*
X0059140Y0051486D01*
X0059031Y0051534D01*
X0058924Y0051585D01*
X0058818Y0051639D01*
X0058715Y0051698D01*
X0058613Y0051759D01*
X0058514Y0051824D01*
X0058417Y0051893D01*
X0058322Y0051964D01*
X0058230Y0052039D01*
X0058140Y0052117D01*
X0058053Y0052198D01*
X0057968Y0052281D01*
X0057887Y0052368D01*
X0057808Y0052457D01*
X0057733Y0052549D01*
X0057660Y0052643D01*
X0057591Y0052739D01*
X0057525Y0052838D01*
X0057463Y0052939D01*
X0057404Y0053042D01*
X0057348Y0053147D01*
X0057296Y0053254D01*
X0057248Y0053363D01*
X0057203Y0053473D01*
X0057162Y0053584D01*
X0057124Y0053697D01*
X0057091Y0053811D01*
X0057061Y0053926D01*
X0057036Y0054042D01*
X0057014Y0054159D01*
X0056996Y0054276D01*
X0056982Y0054394D01*
X0056972Y0054513D01*
X0056966Y0054631D01*
X0056964Y0054750D01*
X0093500Y0058750D02*
X0103500Y0058750D01*
X0103500Y0053750D02*
X0098500Y0053750D01*
X0106000Y0048750D02*
X0111000Y0048750D01*
X0111156Y0048783D01*
X0111311Y0048820D01*
X0111465Y0048861D01*
X0111618Y0048906D01*
X0111770Y0048955D01*
X0111921Y0049007D01*
X0112070Y0049063D01*
X0112218Y0049123D01*
X0112364Y0049187D01*
X0112509Y0049254D01*
X0112652Y0049325D01*
X0112793Y0049399D01*
X0112932Y0049477D01*
X0113069Y0049558D01*
X0113204Y0049643D01*
X0113337Y0049731D01*
X0113468Y0049823D01*
X0113596Y0049917D01*
X0113722Y0050015D01*
X0113846Y0050116D01*
X0113967Y0050220D01*
X0114085Y0050327D01*
X0114200Y0050437D01*
X0114313Y0050550D01*
X0114423Y0050665D01*
X0114530Y0050783D01*
X0114634Y0050904D01*
X0114735Y0051028D01*
X0114833Y0051154D01*
X0114927Y0051282D01*
X0115019Y0051413D01*
X0115107Y0051546D01*
X0115192Y0051681D01*
X0115273Y0051818D01*
X0115351Y0051957D01*
X0115425Y0052098D01*
X0115496Y0052241D01*
X0115563Y0052386D01*
X0115627Y0052532D01*
X0115687Y0052680D01*
X0115743Y0052829D01*
X0115795Y0052980D01*
X0115844Y0053132D01*
X0115889Y0053285D01*
X0115930Y0053439D01*
X0115967Y0053594D01*
X0116000Y0053750D01*
X0113500Y0058750D02*
X0113591Y0058962D01*
X0113688Y0059171D01*
X0113789Y0059379D01*
X0113896Y0059583D01*
X0114008Y0059785D01*
X0114124Y0059984D01*
X0114245Y0060180D01*
X0114372Y0060373D01*
X0114502Y0060563D01*
X0114638Y0060750D01*
X0114778Y0060934D01*
X0114922Y0061114D01*
X0115071Y0061290D01*
X0115224Y0061463D01*
X0115381Y0061631D01*
X0115542Y0061796D01*
X0115708Y0061957D01*
X0115877Y0062114D01*
X0116050Y0062267D01*
X0116226Y0062415D01*
X0116407Y0062559D01*
X0116590Y0062699D01*
X0116777Y0062834D01*
X0116968Y0062964D01*
X0117161Y0063090D01*
X0117357Y0063211D01*
X0117557Y0063327D01*
X0117759Y0063438D01*
X0117964Y0063544D01*
X0118171Y0063645D01*
X0118381Y0063742D01*
X0118593Y0063832D01*
X0118807Y0063918D01*
X0119023Y0063998D01*
X0119241Y0064074D01*
X0119461Y0064143D01*
X0119683Y0064208D01*
X0119906Y0064267D01*
X0120130Y0064320D01*
X0120356Y0064368D01*
X0120583Y0064410D01*
X0120810Y0064447D01*
X0121039Y0064478D01*
X0121268Y0064504D01*
X0121498Y0064524D01*
X0121728Y0064538D01*
X0121959Y0064547D01*
X0122189Y0064550D01*
X0122420Y0064547D01*
X0122651Y0064539D01*
X0122881Y0064525D01*
X0123111Y0064506D01*
X0123340Y0064481D01*
X0123569Y0064450D01*
X0123797Y0064414D01*
X0124023Y0064372D01*
X0124249Y0064325D01*
X0124474Y0064272D01*
X0124697Y0064213D01*
X0124919Y0064149D01*
X0125139Y0064080D01*
X0125357Y0064006D01*
X0125573Y0063926D01*
X0125788Y0063840D01*
X0126000Y0063750D01*
X0128500Y0058751D02*
X0128600Y0058693D01*
X0128701Y0058640D01*
X0128804Y0058590D01*
X0128909Y0058543D01*
X0129015Y0058500D01*
X0129123Y0058461D01*
X0129232Y0058425D01*
X0129342Y0058394D01*
X0129453Y0058366D01*
X0129566Y0058342D01*
X0129678Y0058322D01*
X0129792Y0058306D01*
X0129906Y0058293D01*
X0130020Y0058285D01*
X0130135Y0058281D01*
X0130250Y0058280D01*
X0130364Y0058284D01*
X0130478Y0058291D01*
X0130593Y0058303D01*
X0130706Y0058318D01*
X0130819Y0058338D01*
X0130931Y0058361D01*
X0131043Y0058388D01*
X0131153Y0058419D01*
X0131262Y0058454D01*
X0131370Y0058492D01*
X0131477Y0058535D01*
X0131582Y0058580D01*
X0131686Y0058630D01*
X0131787Y0058683D01*
X0131887Y0058740D01*
X0131985Y0058799D01*
X0132080Y0058863D01*
X0132174Y0058929D01*
X0132265Y0058999D01*
X0132353Y0059072D01*
X0132439Y0059148D01*
X0132522Y0059227D01*
X0132603Y0059308D01*
X0132681Y0059392D01*
X0132755Y0059479D01*
X0132827Y0059569D01*
X0132895Y0059661D01*
X0132961Y0059755D01*
X0133023Y0059852D01*
X0133081Y0059950D01*
X0133136Y0060051D01*
X0133188Y0060153D01*
X0133236Y0060257D01*
X0133280Y0060363D01*
X0133321Y0060470D01*
X0133358Y0060578D01*
X0133392Y0060688D01*
X0133421Y0060799D01*
X0133447Y0060911D01*
X0133468Y0061023D01*
X0133486Y0061137D01*
X0133500Y0061250D01*
X0133500Y0068750D02*
X0133501Y0068605D01*
X0133498Y0068460D01*
X0133491Y0068315D01*
X0133480Y0068171D01*
X0133465Y0068027D01*
X0133447Y0067883D01*
X0133424Y0067740D01*
X0133398Y0067597D01*
X0133368Y0067456D01*
X0133334Y0067315D01*
X0133296Y0067175D01*
X0133254Y0067036D01*
X0133209Y0066899D01*
X0133160Y0066762D01*
X0133107Y0066627D01*
X0133050Y0066494D01*
X0132990Y0066362D01*
X0132927Y0066232D01*
X0132860Y0066103D01*
X0132789Y0065977D01*
X0132715Y0065852D01*
X0132638Y0065729D01*
X0132557Y0065609D01*
X0132473Y0065491D01*
X0132386Y0065375D01*
X0132296Y0065261D01*
X0132203Y0065150D01*
X0132107Y0065042D01*
X0132008Y0064936D01*
X0131906Y0064833D01*
X0131802Y0064733D01*
X0131694Y0064635D01*
X0131584Y0064541D01*
X0131472Y0064449D01*
X0131357Y0064361D01*
X0131240Y0064276D01*
X0131120Y0064194D01*
X0130999Y0064115D01*
X0130875Y0064040D01*
X0130749Y0063968D01*
X0130622Y0063899D01*
X0130492Y0063834D01*
X0130361Y0063772D01*
X0130228Y0063714D01*
X0130094Y0063660D01*
X0129958Y0063609D01*
X0129821Y0063562D01*
X0129683Y0063519D01*
X0129543Y0063479D01*
X0129403Y0063444D01*
X0129262Y0063412D01*
X0129119Y0063384D01*
X0128976Y0063359D01*
X0128833Y0063339D01*
X0128689Y0063323D01*
X0128545Y0063310D01*
X0128400Y0063302D01*
X0128255Y0063297D01*
X0128110Y0063296D01*
X0127965Y0063299D01*
X0127821Y0063306D01*
X0127676Y0063317D01*
X0127532Y0063332D01*
X0127388Y0063351D01*
X0127245Y0063374D01*
X0127103Y0063401D01*
X0126961Y0063431D01*
X0126820Y0063465D01*
X0126680Y0063503D01*
X0126542Y0063545D01*
X0126404Y0063591D01*
X0126268Y0063640D01*
X0126133Y0063693D01*
X0126000Y0063750D01*
X0123500Y0068750D02*
X0123288Y0068840D01*
X0123073Y0068926D01*
X0122857Y0069006D01*
X0122639Y0069080D01*
X0122419Y0069149D01*
X0122197Y0069213D01*
X0121974Y0069272D01*
X0121749Y0069325D01*
X0121523Y0069372D01*
X0121297Y0069414D01*
X0121069Y0069450D01*
X0120840Y0069481D01*
X0120611Y0069506D01*
X0120381Y0069525D01*
X0120151Y0069539D01*
X0119920Y0069547D01*
X0119689Y0069550D01*
X0119459Y0069547D01*
X0119228Y0069538D01*
X0118998Y0069524D01*
X0118768Y0069504D01*
X0118539Y0069478D01*
X0118310Y0069447D01*
X0118083Y0069410D01*
X0117856Y0069368D01*
X0117630Y0069320D01*
X0117406Y0069267D01*
X0117183Y0069208D01*
X0116961Y0069143D01*
X0116741Y0069074D01*
X0116523Y0068998D01*
X0116307Y0068918D01*
X0116093Y0068832D01*
X0115881Y0068742D01*
X0115671Y0068645D01*
X0115464Y0068544D01*
X0115259Y0068438D01*
X0115057Y0068327D01*
X0114857Y0068211D01*
X0114661Y0068090D01*
X0114468Y0067964D01*
X0114277Y0067834D01*
X0114090Y0067699D01*
X0113907Y0067559D01*
X0113726Y0067415D01*
X0113550Y0067267D01*
X0113377Y0067114D01*
X0113208Y0066957D01*
X0113042Y0066796D01*
X0112881Y0066631D01*
X0112724Y0066463D01*
X0112571Y0066290D01*
X0112422Y0066114D01*
X0112278Y0065934D01*
X0112138Y0065750D01*
X0112002Y0065563D01*
X0111872Y0065373D01*
X0111745Y0065180D01*
X0111624Y0064984D01*
X0111508Y0064785D01*
X0111396Y0064583D01*
X0111289Y0064379D01*
X0111188Y0064171D01*
X0111091Y0063962D01*
X0111000Y0063750D01*
X0113500Y0058750D02*
X0113375Y0058537D01*
X0113245Y0058327D01*
X0113109Y0058121D01*
X0112969Y0057918D01*
X0112824Y0057718D01*
X0112673Y0057522D01*
X0112518Y0057330D01*
X0112359Y0057142D01*
X0112195Y0056957D01*
X0112026Y0056777D01*
X0111853Y0056601D01*
X0111676Y0056429D01*
X0111494Y0056261D01*
X0111309Y0056098D01*
X0111119Y0055940D01*
X0110926Y0055786D01*
X0110729Y0055637D01*
X0110529Y0055493D01*
X0110325Y0055354D01*
X0110117Y0055220D01*
X0109907Y0055091D01*
X0109693Y0054968D01*
X0109476Y0054849D01*
X0109257Y0054736D01*
X0109035Y0054628D01*
X0108810Y0054526D01*
X0108583Y0054429D01*
X0108353Y0054338D01*
X0108122Y0054253D01*
X0107888Y0054173D01*
X0107653Y0054099D01*
X0107415Y0054031D01*
X0107176Y0053968D01*
X0106936Y0053912D01*
X0106694Y0053861D01*
X0106452Y0053817D01*
X0106208Y0053778D01*
X0105963Y0053745D01*
X0105717Y0053719D01*
X0105471Y0053698D01*
X0105225Y0053683D01*
X0104978Y0053675D01*
X0104731Y0053672D01*
X0104484Y0053675D01*
X0104238Y0053685D01*
X0103991Y0053701D01*
X0103745Y0053722D01*
X0103500Y0053750D01*
X0103500Y0058750D02*
X0103699Y0058752D01*
X0103898Y0058760D01*
X0104097Y0058772D01*
X0104295Y0058789D01*
X0104493Y0058811D01*
X0104690Y0058838D01*
X0104887Y0058869D01*
X0105082Y0058906D01*
X0105277Y0058947D01*
X0105471Y0058993D01*
X0105663Y0059043D01*
X0105854Y0059099D01*
X0106044Y0059159D01*
X0106233Y0059223D01*
X0106419Y0059293D01*
X0106604Y0059366D01*
X0106787Y0059445D01*
X0106968Y0059527D01*
X0107147Y0059615D01*
X0107324Y0059706D01*
X0107498Y0059802D01*
X0107670Y0059902D01*
X0107840Y0060006D01*
X0108007Y0060115D01*
X0108171Y0060227D01*
X0108333Y0060343D01*
X0108491Y0060464D01*
X0108647Y0060588D01*
X0108799Y0060716D01*
X0108949Y0060848D01*
X0109095Y0060983D01*
X0109237Y0061122D01*
X0109376Y0061264D01*
X0109512Y0061410D01*
X0109644Y0061559D01*
X0109773Y0061711D01*
X0109897Y0061866D01*
X0110018Y0062024D01*
X0110135Y0062185D01*
X0110248Y0062349D01*
X0110357Y0062516D01*
X0110461Y0062685D01*
X0110562Y0062857D01*
X0110658Y0063031D01*
X0110750Y0063208D01*
X0110838Y0063386D01*
X0110921Y0063567D01*
X0111000Y0063750D01*
X0123500Y0068750D02*
X0123655Y0068718D01*
X0123810Y0068690D01*
X0123966Y0068666D01*
X0124122Y0068645D01*
X0124279Y0068629D01*
X0124436Y0068616D01*
X0124593Y0068608D01*
X0124751Y0068603D01*
X0124909Y0068602D01*
X0125066Y0068605D01*
X0125224Y0068613D01*
X0125381Y0068624D01*
X0125538Y0068639D01*
X0125695Y0068658D01*
X0125851Y0068681D01*
X0126006Y0068708D01*
X0126161Y0068738D01*
X0126315Y0068773D01*
X0126468Y0068812D01*
X0126620Y0068854D01*
X0126771Y0068900D01*
X0126920Y0068950D01*
X0127069Y0069003D01*
X0127216Y0069061D01*
X0127361Y0069121D01*
X0127505Y0069186D01*
X0127647Y0069254D01*
X0127788Y0069326D01*
X0127926Y0069401D01*
X0128063Y0069480D01*
X0128198Y0069562D01*
X0128330Y0069647D01*
X0128461Y0069736D01*
X0128589Y0069828D01*
X0128715Y0069923D01*
X0128838Y0070021D01*
X0128959Y0070123D01*
X0129077Y0070227D01*
X0129193Y0070334D01*
X0129306Y0070444D01*
X0129416Y0070557D01*
X0129523Y0070673D01*
X0129627Y0070791D01*
X0129729Y0070912D01*
X0129827Y0071035D01*
X0129922Y0071161D01*
X0130014Y0071289D01*
X0130103Y0071420D01*
X0130188Y0071552D01*
X0130270Y0071687D01*
X0130349Y0071824D01*
X0130424Y0071962D01*
X0130496Y0072103D01*
X0130564Y0072245D01*
X0130629Y0072389D01*
X0130689Y0072534D01*
X0130747Y0072681D01*
X0130800Y0072830D01*
X0130850Y0072979D01*
X0130896Y0073130D01*
X0130938Y0073282D01*
X0130977Y0073435D01*
X0131012Y0073589D01*
X0131042Y0073744D01*
X0131069Y0073899D01*
X0131092Y0074055D01*
X0131111Y0074212D01*
X0131126Y0074369D01*
X0131137Y0074526D01*
X0131145Y0074684D01*
X0131148Y0074841D01*
X0131147Y0074999D01*
X0131142Y0075157D01*
X0131134Y0075314D01*
X0131121Y0075471D01*
X0131105Y0075628D01*
X0131084Y0075784D01*
X0131060Y0075940D01*
X0131032Y0076095D01*
X0131000Y0076250D01*
X0140379Y0058750D02*
X0140381Y0058842D01*
X0140387Y0058934D01*
X0140397Y0059025D01*
X0140411Y0059116D01*
X0140429Y0059206D01*
X0140450Y0059295D01*
X0140476Y0059384D01*
X0140505Y0059471D01*
X0140538Y0059556D01*
X0140575Y0059641D01*
X0140615Y0059723D01*
X0140659Y0059804D01*
X0140707Y0059883D01*
X0140757Y0059959D01*
X0140811Y0060034D01*
X0140869Y0060106D01*
X0140929Y0060175D01*
X0140992Y0060242D01*
X0141058Y0060306D01*
X0141127Y0060367D01*
X0141198Y0060425D01*
X0141272Y0060479D01*
X0141348Y0060531D01*
X0141426Y0060579D01*
X0141507Y0060624D01*
X0141589Y0060665D01*
X0141672Y0060703D01*
X0141758Y0060737D01*
X0141845Y0060767D01*
X0141933Y0060794D01*
X0142022Y0060816D01*
X0142112Y0060835D01*
X0142202Y0060850D01*
X0142294Y0060861D01*
X0142385Y0060868D01*
X0142477Y0060871D01*
X0142569Y0060870D01*
X0142661Y0060865D01*
X0142752Y0060856D01*
X0142843Y0060843D01*
X0142933Y0060826D01*
X0143023Y0060806D01*
X0143112Y0060781D01*
X0143199Y0060753D01*
X0143285Y0060720D01*
X0143370Y0060685D01*
X0143453Y0060645D01*
X0143534Y0060602D01*
X0143613Y0060555D01*
X0143690Y0060506D01*
X0143765Y0060452D01*
X0143838Y0060396D01*
X0143908Y0060336D01*
X0143975Y0060274D01*
X0144040Y0060209D01*
X0144102Y0060141D01*
X0144160Y0060070D01*
X0144216Y0059997D01*
X0144268Y0059921D01*
X0144317Y0059843D01*
X0144363Y0059764D01*
X0144405Y0059682D01*
X0144444Y0059599D01*
X0144479Y0059514D01*
X0144510Y0059427D01*
X0144537Y0059340D01*
X0144561Y0059251D01*
X0144581Y0059161D01*
X0144597Y0059070D01*
X0144609Y0058979D01*
X0144617Y0058888D01*
X0144621Y0058796D01*
X0144621Y0058704D01*
X0144617Y0058612D01*
X0144609Y0058521D01*
X0144597Y0058430D01*
X0144581Y0058339D01*
X0144561Y0058249D01*
X0144537Y0058160D01*
X0144510Y0058073D01*
X0144479Y0057986D01*
X0144444Y0057901D01*
X0144405Y0057818D01*
X0144363Y0057736D01*
X0144317Y0057657D01*
X0144268Y0057579D01*
X0144216Y0057503D01*
X0144160Y0057430D01*
X0144102Y0057359D01*
X0144040Y0057291D01*
X0143975Y0057226D01*
X0143908Y0057164D01*
X0143838Y0057104D01*
X0143765Y0057048D01*
X0143690Y0056994D01*
X0143613Y0056945D01*
X0143534Y0056898D01*
X0143453Y0056855D01*
X0143370Y0056815D01*
X0143285Y0056780D01*
X0143199Y0056747D01*
X0143112Y0056719D01*
X0143023Y0056694D01*
X0142933Y0056674D01*
X0142843Y0056657D01*
X0142752Y0056644D01*
X0142661Y0056635D01*
X0142569Y0056630D01*
X0142477Y0056629D01*
X0142385Y0056632D01*
X0142294Y0056639D01*
X0142202Y0056650D01*
X0142112Y0056665D01*
X0142022Y0056684D01*
X0141933Y0056706D01*
X0141845Y0056733D01*
X0141758Y0056763D01*
X0141672Y0056797D01*
X0141589Y0056835D01*
X0141507Y0056876D01*
X0141426Y0056921D01*
X0141348Y0056969D01*
X0141272Y0057021D01*
X0141198Y0057075D01*
X0141127Y0057133D01*
X0141058Y0057194D01*
X0140992Y0057258D01*
X0140929Y0057325D01*
X0140869Y0057394D01*
X0140811Y0057466D01*
X0140757Y0057541D01*
X0140707Y0057617D01*
X0140659Y0057696D01*
X0140615Y0057777D01*
X0140575Y0057859D01*
X0140538Y0057944D01*
X0140505Y0058029D01*
X0140476Y0058116D01*
X0140450Y0058205D01*
X0140429Y0058294D01*
X0140411Y0058384D01*
X0140397Y0058475D01*
X0140387Y0058566D01*
X0140381Y0058658D01*
X0140379Y0058750D01*
X0126000Y0056250D02*
X0125918Y0056165D01*
X0125838Y0056078D01*
X0125762Y0055988D01*
X0125689Y0055895D01*
X0125619Y0055800D01*
X0125552Y0055702D01*
X0125488Y0055603D01*
X0125428Y0055501D01*
X0125371Y0055397D01*
X0125318Y0055292D01*
X0125268Y0055185D01*
X0125222Y0055076D01*
X0125179Y0054966D01*
X0125141Y0054854D01*
X0125106Y0054741D01*
X0125075Y0054627D01*
X0125047Y0054512D01*
X0125024Y0054396D01*
X0125004Y0054280D01*
X0124988Y0054163D01*
X0124976Y0054045D01*
X0124968Y0053927D01*
X0124964Y0053809D01*
X0124964Y0053691D01*
X0124968Y0053573D01*
X0124976Y0053455D01*
X0124988Y0053337D01*
X0125004Y0053220D01*
X0125024Y0053104D01*
X0125047Y0052988D01*
X0125075Y0052873D01*
X0125106Y0052759D01*
X0125141Y0052646D01*
X0125179Y0052534D01*
X0125222Y0052424D01*
X0125268Y0052315D01*
X0125318Y0052208D01*
X0125371Y0052103D01*
X0125428Y0051999D01*
X0125488Y0051897D01*
X0125552Y0051798D01*
X0125619Y0051700D01*
X0125689Y0051605D01*
X0125762Y0051512D01*
X0125838Y0051422D01*
X0125918Y0051335D01*
X0126000Y0051250D01*
X0128500Y0048750D01*
X0128500Y0058750D02*
X0128288Y0058840D01*
X0128073Y0058926D01*
X0127857Y0059006D01*
X0127639Y0059080D01*
X0127419Y0059149D01*
X0127197Y0059213D01*
X0126974Y0059272D01*
X0126749Y0059325D01*
X0126523Y0059372D01*
X0126297Y0059414D01*
X0126069Y0059450D01*
X0125840Y0059481D01*
X0125611Y0059506D01*
X0125381Y0059525D01*
X0125151Y0059539D01*
X0124920Y0059547D01*
X0124689Y0059550D01*
X0124459Y0059547D01*
X0124228Y0059538D01*
X0123998Y0059524D01*
X0123768Y0059504D01*
X0123539Y0059478D01*
X0123310Y0059447D01*
X0123083Y0059410D01*
X0122856Y0059368D01*
X0122630Y0059320D01*
X0122406Y0059267D01*
X0122183Y0059208D01*
X0121961Y0059143D01*
X0121741Y0059074D01*
X0121523Y0058998D01*
X0121307Y0058918D01*
X0121093Y0058832D01*
X0120881Y0058742D01*
X0120671Y0058645D01*
X0120464Y0058544D01*
X0120259Y0058438D01*
X0120057Y0058327D01*
X0119857Y0058211D01*
X0119661Y0058090D01*
X0119468Y0057964D01*
X0119277Y0057834D01*
X0119090Y0057699D01*
X0118907Y0057559D01*
X0118726Y0057415D01*
X0118550Y0057267D01*
X0118377Y0057114D01*
X0118208Y0056957D01*
X0118042Y0056796D01*
X0117881Y0056631D01*
X0117724Y0056463D01*
X0117571Y0056290D01*
X0117422Y0056114D01*
X0117278Y0055934D01*
X0117138Y0055750D01*
X0117002Y0055563D01*
X0116872Y0055373D01*
X0116745Y0055180D01*
X0116624Y0054984D01*
X0116508Y0054785D01*
X0116396Y0054583D01*
X0116289Y0054379D01*
X0116188Y0054171D01*
X0116091Y0053962D01*
X0116000Y0053750D01*
X0126882Y0043750D02*
X0126884Y0043816D01*
X0126890Y0043882D01*
X0126900Y0043948D01*
X0126913Y0044013D01*
X0126931Y0044077D01*
X0126952Y0044139D01*
X0126977Y0044201D01*
X0127005Y0044261D01*
X0127037Y0044319D01*
X0127073Y0044375D01*
X0127111Y0044428D01*
X0127153Y0044480D01*
X0127198Y0044529D01*
X0127245Y0044575D01*
X0127296Y0044618D01*
X0127348Y0044658D01*
X0127403Y0044695D01*
X0127460Y0044729D01*
X0127519Y0044759D01*
X0127580Y0044786D01*
X0127642Y0044809D01*
X0127705Y0044828D01*
X0127770Y0044844D01*
X0127835Y0044856D01*
X0127901Y0044864D01*
X0127967Y0044868D01*
X0128033Y0044868D01*
X0128099Y0044864D01*
X0128165Y0044856D01*
X0128230Y0044844D01*
X0128295Y0044828D01*
X0128358Y0044809D01*
X0128420Y0044786D01*
X0128481Y0044759D01*
X0128540Y0044729D01*
X0128597Y0044695D01*
X0128652Y0044658D01*
X0128704Y0044618D01*
X0128755Y0044575D01*
X0128802Y0044529D01*
X0128847Y0044480D01*
X0128889Y0044428D01*
X0128927Y0044375D01*
X0128963Y0044319D01*
X0128995Y0044261D01*
X0129023Y0044201D01*
X0129048Y0044139D01*
X0129069Y0044077D01*
X0129087Y0044013D01*
X0129100Y0043948D01*
X0129110Y0043882D01*
X0129116Y0043816D01*
X0129118Y0043750D01*
X0129116Y0043684D01*
X0129110Y0043618D01*
X0129100Y0043552D01*
X0129087Y0043487D01*
X0129069Y0043423D01*
X0129048Y0043361D01*
X0129023Y0043299D01*
X0128995Y0043239D01*
X0128963Y0043181D01*
X0128927Y0043125D01*
X0128889Y0043072D01*
X0128847Y0043020D01*
X0128802Y0042971D01*
X0128755Y0042925D01*
X0128704Y0042882D01*
X0128652Y0042842D01*
X0128597Y0042805D01*
X0128540Y0042771D01*
X0128481Y0042741D01*
X0128420Y0042714D01*
X0128358Y0042691D01*
X0128295Y0042672D01*
X0128230Y0042656D01*
X0128165Y0042644D01*
X0128099Y0042636D01*
X0128033Y0042632D01*
X0127967Y0042632D01*
X0127901Y0042636D01*
X0127835Y0042644D01*
X0127770Y0042656D01*
X0127705Y0042672D01*
X0127642Y0042691D01*
X0127580Y0042714D01*
X0127519Y0042741D01*
X0127460Y0042771D01*
X0127403Y0042805D01*
X0127348Y0042842D01*
X0127296Y0042882D01*
X0127245Y0042925D01*
X0127198Y0042971D01*
X0127153Y0043020D01*
X0127111Y0043072D01*
X0127073Y0043125D01*
X0127037Y0043181D01*
X0127005Y0043239D01*
X0126977Y0043299D01*
X0126952Y0043361D01*
X0126931Y0043423D01*
X0126913Y0043487D01*
X0126900Y0043552D01*
X0126890Y0043618D01*
X0126884Y0043684D01*
X0126882Y0043750D01*
X0127500Y0043750D02*
X0127502Y0043839D01*
X0127508Y0043928D01*
X0127518Y0044017D01*
X0127532Y0044105D01*
X0127549Y0044192D01*
X0127571Y0044278D01*
X0127597Y0044364D01*
X0127626Y0044448D01*
X0127659Y0044531D01*
X0127695Y0044612D01*
X0127736Y0044692D01*
X0127779Y0044769D01*
X0127826Y0044845D01*
X0127877Y0044918D01*
X0127930Y0044989D01*
X0127987Y0045058D01*
X0128047Y0045124D01*
X0128110Y0045188D01*
X0128175Y0045248D01*
X0128243Y0045306D01*
X0128314Y0045360D01*
X0128387Y0045411D01*
X0128462Y0045459D01*
X0128539Y0045504D01*
X0128618Y0045545D01*
X0128699Y0045582D01*
X0128781Y0045616D01*
X0128865Y0045647D01*
X0128950Y0045673D01*
X0129036Y0045696D01*
X0129123Y0045714D01*
X0129211Y0045729D01*
X0129300Y0045740D01*
X0129389Y0045747D01*
X0129478Y0045750D01*
X0129567Y0045749D01*
X0129656Y0045744D01*
X0129744Y0045735D01*
X0129833Y0045722D01*
X0129920Y0045705D01*
X0130007Y0045685D01*
X0130093Y0045660D01*
X0130177Y0045632D01*
X0130260Y0045600D01*
X0130342Y0045564D01*
X0130422Y0045525D01*
X0130500Y0045482D01*
X0130576Y0045436D01*
X0130650Y0045386D01*
X0130722Y0045333D01*
X0130791Y0045277D01*
X0130858Y0045218D01*
X0130922Y0045156D01*
X0130983Y0045092D01*
X0131042Y0045024D01*
X0131097Y0044954D01*
X0131149Y0044882D01*
X0131198Y0044807D01*
X0131243Y0044731D01*
X0131285Y0044652D01*
X0131323Y0044572D01*
X0131358Y0044490D01*
X0131389Y0044406D01*
X0131417Y0044321D01*
X0131440Y0044235D01*
X0131460Y0044148D01*
X0131476Y0044061D01*
X0131488Y0043972D01*
X0131496Y0043884D01*
X0131500Y0043795D01*
X0131500Y0043705D01*
X0131496Y0043616D01*
X0131488Y0043528D01*
X0131476Y0043439D01*
X0131460Y0043352D01*
X0131440Y0043265D01*
X0131417Y0043179D01*
X0131389Y0043094D01*
X0131358Y0043010D01*
X0131323Y0042928D01*
X0131285Y0042848D01*
X0131243Y0042769D01*
X0131198Y0042693D01*
X0131149Y0042618D01*
X0131097Y0042546D01*
X0131042Y0042476D01*
X0130983Y0042408D01*
X0130922Y0042344D01*
X0130858Y0042282D01*
X0130791Y0042223D01*
X0130722Y0042167D01*
X0130650Y0042114D01*
X0130576Y0042064D01*
X0130500Y0042018D01*
X0130422Y0041975D01*
X0130342Y0041936D01*
X0130260Y0041900D01*
X0130177Y0041868D01*
X0130093Y0041840D01*
X0130007Y0041815D01*
X0129920Y0041795D01*
X0129833Y0041778D01*
X0129744Y0041765D01*
X0129656Y0041756D01*
X0129567Y0041751D01*
X0129478Y0041750D01*
X0129389Y0041753D01*
X0129300Y0041760D01*
X0129211Y0041771D01*
X0129123Y0041786D01*
X0129036Y0041804D01*
X0128950Y0041827D01*
X0128865Y0041853D01*
X0128781Y0041884D01*
X0128699Y0041918D01*
X0128618Y0041955D01*
X0128539Y0041996D01*
X0128462Y0042041D01*
X0128387Y0042089D01*
X0128314Y0042140D01*
X0128243Y0042194D01*
X0128175Y0042252D01*
X0128110Y0042312D01*
X0128047Y0042376D01*
X0127987Y0042442D01*
X0127930Y0042511D01*
X0127877Y0042582D01*
X0127826Y0042655D01*
X0127779Y0042731D01*
X0127736Y0042808D01*
X0127695Y0042888D01*
X0127659Y0042969D01*
X0127626Y0043052D01*
X0127597Y0043136D01*
X0127571Y0043222D01*
X0127549Y0043308D01*
X0127532Y0043395D01*
X0127518Y0043483D01*
X0127508Y0043572D01*
X0127502Y0043661D01*
X0127500Y0043750D01*
X0128500Y0043750D02*
X0128502Y0043849D01*
X0128508Y0043949D01*
X0128518Y0044048D01*
X0128532Y0044146D01*
X0128549Y0044244D01*
X0128571Y0044341D01*
X0128596Y0044437D01*
X0128625Y0044532D01*
X0128658Y0044626D01*
X0128695Y0044718D01*
X0128735Y0044809D01*
X0128779Y0044898D01*
X0128827Y0044986D01*
X0128878Y0045071D01*
X0128932Y0045154D01*
X0128989Y0045236D01*
X0129050Y0045314D01*
X0129114Y0045391D01*
X0129180Y0045464D01*
X0129250Y0045535D01*
X0129322Y0045603D01*
X0129397Y0045669D01*
X0129475Y0045731D01*
X0129555Y0045790D01*
X0129637Y0045846D01*
X0129721Y0045898D01*
X0129808Y0045947D01*
X0129896Y0045993D01*
X0129986Y0046035D01*
X0130078Y0046074D01*
X0130171Y0046109D01*
X0130265Y0046140D01*
X0130361Y0046167D01*
X0130458Y0046190D01*
X0130555Y0046210D01*
X0130653Y0046226D01*
X0130752Y0046238D01*
X0130851Y0046246D01*
X0130950Y0046250D01*
X0131050Y0046250D01*
X0131149Y0046246D01*
X0131248Y0046238D01*
X0131347Y0046226D01*
X0131445Y0046210D01*
X0131542Y0046190D01*
X0131639Y0046167D01*
X0131735Y0046140D01*
X0131829Y0046109D01*
X0131922Y0046074D01*
X0132014Y0046035D01*
X0132104Y0045993D01*
X0132192Y0045947D01*
X0132279Y0045898D01*
X0132363Y0045846D01*
X0132445Y0045790D01*
X0132525Y0045731D01*
X0132603Y0045669D01*
X0132678Y0045603D01*
X0132750Y0045535D01*
X0132820Y0045464D01*
X0132886Y0045391D01*
X0132950Y0045314D01*
X0133011Y0045236D01*
X0133068Y0045154D01*
X0133122Y0045071D01*
X0133173Y0044986D01*
X0133221Y0044898D01*
X0133265Y0044809D01*
X0133305Y0044718D01*
X0133342Y0044626D01*
X0133375Y0044532D01*
X0133404Y0044437D01*
X0133429Y0044341D01*
X0133451Y0044244D01*
X0133468Y0044146D01*
X0133482Y0044048D01*
X0133492Y0043949D01*
X0133498Y0043849D01*
X0133500Y0043750D01*
X0133498Y0043651D01*
X0133492Y0043551D01*
X0133482Y0043452D01*
X0133468Y0043354D01*
X0133451Y0043256D01*
X0133429Y0043159D01*
X0133404Y0043063D01*
X0133375Y0042968D01*
X0133342Y0042874D01*
X0133305Y0042782D01*
X0133265Y0042691D01*
X0133221Y0042602D01*
X0133173Y0042514D01*
X0133122Y0042429D01*
X0133068Y0042346D01*
X0133011Y0042264D01*
X0132950Y0042186D01*
X0132886Y0042109D01*
X0132820Y0042036D01*
X0132750Y0041965D01*
X0132678Y0041897D01*
X0132603Y0041831D01*
X0132525Y0041769D01*
X0132445Y0041710D01*
X0132363Y0041654D01*
X0132279Y0041602D01*
X0132192Y0041553D01*
X0132104Y0041507D01*
X0132014Y0041465D01*
X0131922Y0041426D01*
X0131829Y0041391D01*
X0131735Y0041360D01*
X0131639Y0041333D01*
X0131542Y0041310D01*
X0131445Y0041290D01*
X0131347Y0041274D01*
X0131248Y0041262D01*
X0131149Y0041254D01*
X0131050Y0041250D01*
X0130950Y0041250D01*
X0130851Y0041254D01*
X0130752Y0041262D01*
X0130653Y0041274D01*
X0130555Y0041290D01*
X0130458Y0041310D01*
X0130361Y0041333D01*
X0130265Y0041360D01*
X0130171Y0041391D01*
X0130078Y0041426D01*
X0129986Y0041465D01*
X0129896Y0041507D01*
X0129808Y0041553D01*
X0129721Y0041602D01*
X0129637Y0041654D01*
X0129555Y0041710D01*
X0129475Y0041769D01*
X0129397Y0041831D01*
X0129322Y0041897D01*
X0129250Y0041965D01*
X0129180Y0042036D01*
X0129114Y0042109D01*
X0129050Y0042186D01*
X0128989Y0042264D01*
X0128932Y0042346D01*
X0128878Y0042429D01*
X0128827Y0042514D01*
X0128779Y0042602D01*
X0128735Y0042691D01*
X0128695Y0042782D01*
X0128658Y0042874D01*
X0128625Y0042968D01*
X0128596Y0043063D01*
X0128571Y0043159D01*
X0128549Y0043256D01*
X0128532Y0043354D01*
X0128518Y0043452D01*
X0128508Y0043551D01*
X0128502Y0043651D01*
X0128500Y0043750D01*
D12*
X0034501Y0023751D02*
X0034085Y0024501D01*
X0033651Y0025242D01*
X0033199Y0025972D01*
X0032730Y0026691D01*
X0032244Y0027398D01*
X0031740Y0028094D01*
X0031221Y0028777D01*
X0030684Y0029447D01*
X0030132Y0030104D01*
X0029564Y0030748D01*
X0028981Y0031378D01*
X0028382Y0031993D01*
X0027769Y0032594D01*
X0027142Y0033180D01*
X0026501Y0033751D01*
X0019500Y0031750D02*
X0010500Y0023750D01*
X0009500Y0035750D02*
X0017500Y0041750D01*
X0015500Y0050750D02*
X0009500Y0048750D01*
X0009500Y0059750D02*
X0013500Y0059750D01*
X0014500Y0066750D02*
X0009500Y0069750D01*
X0015500Y0075750D02*
X0010500Y0081750D01*
X0022500Y0077750D02*
X0022711Y0078129D01*
X0022931Y0078502D01*
X0023160Y0078870D01*
X0023398Y0079233D01*
X0023645Y0079589D01*
X0023901Y0079939D01*
X0024165Y0080283D01*
X0024437Y0080620D01*
X0024717Y0080951D01*
X0025006Y0081275D01*
X0025302Y0081591D01*
X0025606Y0081901D01*
X0025917Y0082202D01*
X0026236Y0082496D01*
X0026561Y0082783D01*
X0026894Y0083061D01*
X0027233Y0083331D01*
X0027578Y0083592D01*
X0027930Y0083846D01*
X0028288Y0084090D01*
X0028652Y0084326D01*
X0029022Y0084553D01*
X0029397Y0084770D01*
X0029777Y0084979D01*
X0030162Y0085178D01*
X0030552Y0085368D01*
X0030946Y0085548D01*
X0031345Y0085718D01*
X0031747Y0085879D01*
X0032154Y0086030D01*
X0032564Y0086171D01*
X0032977Y0086302D01*
X0033393Y0086422D01*
X0033812Y0086533D01*
X0034234Y0086633D01*
X0034658Y0086723D01*
X0035084Y0086803D01*
X0035512Y0086872D01*
X0035942Y0086931D01*
X0036373Y0086979D01*
X0036805Y0087017D01*
X0037237Y0087044D01*
X0037670Y0087061D01*
X0038104Y0087067D01*
X0038537Y0087063D01*
X0038971Y0087047D01*
X0039403Y0087022D01*
X0039835Y0086986D01*
X0040266Y0086939D01*
X0040696Y0086882D01*
X0041124Y0086814D01*
X0041551Y0086736D01*
X0041975Y0086648D01*
X0042397Y0086549D01*
X0042817Y0086440D01*
X0043234Y0086321D01*
X0043648Y0086192D01*
X0044058Y0086053D01*
X0044465Y0085903D01*
X0044868Y0085744D01*
X0045268Y0085575D01*
X0045663Y0085397D01*
X0046053Y0085208D01*
X0046439Y0085011D01*
X0046820Y0084804D01*
X0047196Y0084587D01*
X0047566Y0084362D01*
X0047931Y0084128D01*
X0048290Y0083885D01*
X0048643Y0083633D01*
X0048989Y0083373D01*
X0049329Y0083104D01*
X0049663Y0082827D01*
X0049990Y0082542D01*
X0050309Y0082249D01*
X0050622Y0081949D01*
X0050927Y0081640D01*
X0051224Y0081325D01*
X0051514Y0081002D01*
X0051795Y0080673D01*
X0052069Y0080337D01*
X0052334Y0079994D01*
X0052591Y0079645D01*
X0052839Y0079289D01*
X0053079Y0078928D01*
X0053310Y0078561D01*
X0053531Y0078188D01*
X0053744Y0077810D01*
X0053947Y0077427D01*
X0054141Y0077039D01*
X0054325Y0076647D01*
X0054500Y0076250D01*
X0022500Y0077750D02*
X0022056Y0076862D01*
X0021635Y0075964D01*
X0021235Y0075056D01*
X0020857Y0074139D01*
X0020501Y0073213D01*
X0020168Y0072278D01*
X0019857Y0071336D01*
X0019569Y0070387D01*
X0019304Y0069431D01*
X0019062Y0068469D01*
X0018843Y0067501D01*
X0018647Y0066528D01*
X0018476Y0065551D01*
X0018327Y0064570D01*
X0018202Y0063586D01*
X0018101Y0062599D01*
X0018024Y0061610D01*
X0017971Y0060619D01*
X0017941Y0059628D01*
X0017936Y0058636D01*
X0017954Y0057644D01*
X0017996Y0056652D01*
X0018062Y0055663D01*
X0018152Y0054675D01*
X0018266Y0053689D01*
X0018403Y0052706D01*
X0018564Y0051727D01*
X0018748Y0050753D01*
X0018956Y0049783D01*
X0019187Y0048818D01*
X0019441Y0047859D01*
X0019719Y0046906D01*
X0020019Y0045961D01*
X0020342Y0045022D01*
X0020687Y0044092D01*
X0021055Y0043171D01*
X0021444Y0042259D01*
X0021856Y0041356D01*
X0022289Y0040463D01*
X0022744Y0039581D01*
X0023219Y0038711D01*
X0023716Y0037852D01*
X0024233Y0037005D01*
X0024770Y0036171D01*
X0025327Y0035350D01*
X0025904Y0034543D01*
X0026500Y0033750D01*
X0034500Y0023750D02*
X0034583Y0023546D01*
X0034670Y0023344D01*
X0034762Y0023144D01*
X0034860Y0022947D01*
X0034962Y0022752D01*
X0035069Y0022559D01*
X0035180Y0022369D01*
X0035296Y0022182D01*
X0035417Y0021998D01*
X0035542Y0021817D01*
X0035671Y0021639D01*
X0035805Y0021464D01*
X0035943Y0021292D01*
X0036085Y0021124D01*
X0036231Y0020959D01*
X0036381Y0020798D01*
X0036535Y0020641D01*
X0036693Y0020487D01*
X0036855Y0020338D01*
X0037020Y0020192D01*
X0037188Y0020051D01*
X0037361Y0019913D01*
X0037536Y0019780D01*
X0037714Y0019651D01*
X0037896Y0019527D01*
X0038081Y0019407D01*
X0038268Y0019291D01*
X0038458Y0019181D01*
X0038651Y0019074D01*
X0038847Y0018973D01*
X0039045Y0018876D01*
X0039245Y0018785D01*
X0039447Y0018698D01*
X0039652Y0018616D01*
X0039858Y0018539D01*
X0040066Y0018467D01*
X0040276Y0018401D01*
X0040487Y0018339D01*
X0040700Y0018283D01*
X0040914Y0018232D01*
X0041130Y0018186D01*
X0041346Y0018145D01*
X0041563Y0018110D01*
X0041782Y0018080D01*
X0042000Y0018055D01*
X0042220Y0018036D01*
X0042439Y0018022D01*
X0042659Y0018013D01*
X0042880Y0018010D01*
X0043100Y0018012D01*
X0043320Y0018020D01*
X0043540Y0018033D01*
X0043759Y0018051D01*
X0043978Y0018074D01*
X0044196Y0018103D01*
X0044414Y0018138D01*
X0044630Y0018177D01*
X0044846Y0018222D01*
X0045060Y0018272D01*
X0045273Y0018327D01*
X0045485Y0018388D01*
X0045695Y0018453D01*
X0045904Y0018524D01*
X0046110Y0018600D01*
X0046315Y0018681D01*
X0046518Y0018767D01*
X0046719Y0018857D01*
X0046917Y0018953D01*
X0047113Y0019053D01*
X0047306Y0019159D01*
X0047497Y0019268D01*
X0047685Y0019383D01*
X0047870Y0019502D01*
X0048053Y0019625D01*
X0048232Y0019753D01*
X0048408Y0019886D01*
X0048581Y0020022D01*
X0048750Y0020163D01*
X0048916Y0020308D01*
X0049078Y0020457D01*
X0049237Y0020609D01*
X0049392Y0020766D01*
X0049543Y0020926D01*
X0049690Y0021090D01*
X0049832Y0021257D01*
X0049971Y0021428D01*
X0050106Y0021603D01*
X0050236Y0021780D01*
X0050362Y0021961D01*
X0050484Y0022144D01*
X0050601Y0022331D01*
X0050713Y0022520D01*
X0050821Y0022712D01*
X0050924Y0022907D01*
X0051022Y0023104D01*
X0051115Y0023303D01*
X0051204Y0023505D01*
X0051287Y0023708D01*
X0051366Y0023914D01*
X0051440Y0024122D01*
X0051508Y0024331D01*
X0051571Y0024542D01*
X0051629Y0024754D01*
X0051682Y0024968D01*
X0051730Y0025183D01*
X0051772Y0025399D01*
X0051810Y0025616D01*
X0051841Y0025834D01*
X0051868Y0026052D01*
X0051889Y0026272D01*
X0051905Y0026491D01*
X0051915Y0026711D01*
X0051920Y0026931D01*
X0051920Y0027151D01*
X0051914Y0027372D01*
X0051903Y0027591D01*
X0051887Y0027811D01*
X0051865Y0028030D01*
X0051838Y0028249D01*
X0051806Y0028466D01*
X0051768Y0028683D01*
X0051725Y0028899D01*
X0051677Y0029114D01*
X0051623Y0029328D01*
X0051564Y0029540D01*
X0051501Y0029751D01*
D13*
X0048500Y0031750D02*
X0048496Y0031651D01*
X0048487Y0031553D01*
X0048475Y0031454D01*
X0048458Y0031357D01*
X0048438Y0031260D01*
X0048414Y0031164D01*
X0048387Y0031068D01*
X0048355Y0030975D01*
X0048320Y0030882D01*
X0048281Y0030791D01*
X0048239Y0030701D01*
X0048193Y0030614D01*
X0048144Y0030528D01*
X0048091Y0030444D01*
X0048035Y0030362D01*
X0047976Y0030283D01*
X0047914Y0030206D01*
X0047848Y0030131D01*
X0047780Y0030059D01*
X0047709Y0029990D01*
X0047636Y0029924D01*
X0047559Y0029861D01*
X0047481Y0029800D01*
X0047400Y0029743D01*
X0047317Y0029690D01*
X0047231Y0029639D01*
X0047144Y0029592D01*
X0047055Y0029549D01*
X0046965Y0029509D01*
X0046873Y0029472D01*
X0046779Y0029439D01*
X0046684Y0029410D01*
X0046589Y0029385D01*
X0046492Y0029364D01*
X0046395Y0029346D01*
X0046296Y0029333D01*
X0046198Y0029323D01*
X0046099Y0029317D01*
X0046000Y0029315D01*
X0045901Y0029317D01*
X0045802Y0029323D01*
X0045704Y0029333D01*
X0045605Y0029346D01*
X0045508Y0029364D01*
X0045411Y0029385D01*
X0045316Y0029410D01*
X0045221Y0029439D01*
X0045127Y0029472D01*
X0045035Y0029509D01*
X0044945Y0029549D01*
X0044856Y0029592D01*
X0044769Y0029639D01*
X0044683Y0029690D01*
X0044600Y0029743D01*
X0044519Y0029800D01*
X0044441Y0029861D01*
X0044364Y0029924D01*
X0044291Y0029990D01*
X0044220Y0030059D01*
X0044152Y0030131D01*
X0044086Y0030206D01*
X0044024Y0030283D01*
X0043965Y0030362D01*
X0043909Y0030444D01*
X0043856Y0030528D01*
X0043807Y0030614D01*
X0043761Y0030701D01*
X0043719Y0030791D01*
X0043680Y0030882D01*
X0043645Y0030975D01*
X0043613Y0031068D01*
X0043586Y0031164D01*
X0043562Y0031260D01*
X0043542Y0031357D01*
X0043525Y0031454D01*
X0043513Y0031553D01*
X0043504Y0031651D01*
X0043500Y0031750D01*
X0050500Y0037750D02*
X0050616Y0037958D01*
X0050726Y0038168D01*
X0050831Y0038381D01*
X0050931Y0038597D01*
X0051026Y0038815D01*
X0051115Y0039036D01*
X0051199Y0039258D01*
X0051278Y0039482D01*
X0051351Y0039709D01*
X0051419Y0039936D01*
X0051481Y0040166D01*
X0051537Y0040397D01*
X0051588Y0040629D01*
X0051633Y0040863D01*
X0051673Y0041097D01*
X0051707Y0041332D01*
X0051735Y0041569D01*
X0051757Y0041805D01*
X0051774Y0042042D01*
X0051785Y0042280D01*
X0051790Y0042518D01*
X0051789Y0042755D01*
X0051782Y0042993D01*
X0051770Y0043230D01*
X0051752Y0043468D01*
X0051728Y0043704D01*
X0051699Y0043940D01*
X0051664Y0044175D01*
X0051623Y0044409D01*
X0051576Y0044643D01*
X0051524Y0044874D01*
X0051466Y0045105D01*
X0051402Y0045334D01*
X0051333Y0045562D01*
X0051259Y0045788D01*
X0051179Y0046011D01*
X0051094Y0046233D01*
X0051003Y0046453D01*
X0050907Y0046671D01*
X0050806Y0046886D01*
X0050699Y0047098D01*
X0050587Y0047308D01*
X0050471Y0047515D01*
X0050349Y0047720D01*
X0050222Y0047921D01*
X0050091Y0048119D01*
X0049955Y0048314D01*
X0049814Y0048505D01*
X0049668Y0048693D01*
X0049518Y0048878D01*
X0049364Y0049058D01*
X0049205Y0049235D01*
X0049042Y0049408D01*
X0048874Y0049577D01*
X0048703Y0049742D01*
X0048528Y0049903D01*
X0048349Y0050059D01*
X0048166Y0050211D01*
X0047979Y0050359D01*
X0047789Y0050502D01*
X0047596Y0050640D01*
X0047399Y0050773D01*
X0047199Y0050902D01*
X0046996Y0051026D01*
X0046791Y0051145D01*
X0046582Y0051259D01*
X0046370Y0051367D01*
X0046156Y0051471D01*
X0045940Y0051569D01*
X0045721Y0051662D01*
X0045500Y0051750D01*
X0043500Y0052750D01*
X0033500Y0044750D02*
X0033294Y0044896D01*
X0033091Y0045047D01*
X0032892Y0045203D01*
X0032697Y0045363D01*
X0032506Y0045529D01*
X0032319Y0045699D01*
X0032136Y0045874D01*
X0031957Y0046053D01*
X0031783Y0046236D01*
X0031614Y0046424D01*
X0031449Y0046615D01*
X0031289Y0046811D01*
X0031133Y0047011D01*
X0030983Y0047214D01*
X0030838Y0047421D01*
X0030697Y0047631D01*
X0030562Y0047845D01*
X0030433Y0048062D01*
X0030308Y0048282D01*
X0030189Y0048505D01*
X0030076Y0048731D01*
X0029968Y0048960D01*
X0029866Y0049191D01*
X0029769Y0049424D01*
X0029678Y0049660D01*
X0029593Y0049899D01*
X0029514Y0050139D01*
X0029441Y0050381D01*
X0029374Y0050624D01*
X0029312Y0050870D01*
X0029257Y0051116D01*
X0029208Y0051364D01*
X0029165Y0051613D01*
X0029128Y0051864D01*
X0029097Y0052115D01*
X0029072Y0052366D01*
X0029053Y0052618D01*
X0029041Y0052871D01*
X0029035Y0053124D01*
X0029035Y0053376D01*
X0029041Y0053629D01*
X0029053Y0053882D01*
X0029072Y0054134D01*
X0029097Y0054385D01*
X0029128Y0054636D01*
X0029165Y0054887D01*
X0029208Y0055136D01*
X0029257Y0055384D01*
X0029312Y0055630D01*
X0029374Y0055876D01*
X0029441Y0056119D01*
X0029514Y0056361D01*
X0029593Y0056601D01*
X0029678Y0056840D01*
X0029769Y0057076D01*
X0029866Y0057309D01*
X0029968Y0057540D01*
X0030076Y0057769D01*
X0030189Y0057995D01*
X0030308Y0058218D01*
X0030433Y0058438D01*
X0030562Y0058655D01*
X0030697Y0058869D01*
X0030838Y0059079D01*
X0030983Y0059286D01*
X0031133Y0059489D01*
X0031289Y0059689D01*
X0031449Y0059885D01*
X0031614Y0060076D01*
X0031783Y0060264D01*
X0031957Y0060447D01*
X0032136Y0060626D01*
X0032319Y0060801D01*
X0032506Y0060971D01*
X0032697Y0061137D01*
X0032892Y0061297D01*
X0033091Y0061453D01*
X0033294Y0061604D01*
X0033500Y0061750D01*
X0042500Y0058751D02*
X0042760Y0058836D01*
X0043019Y0058927D01*
X0043275Y0059025D01*
X0043529Y0059129D01*
X0043781Y0059239D01*
X0044029Y0059355D01*
X0044275Y0059477D01*
X0044517Y0059606D01*
X0044757Y0059740D01*
X0044993Y0059880D01*
X0045225Y0060025D01*
X0045454Y0060176D01*
X0045680Y0060333D01*
X0045901Y0060495D01*
X0046118Y0060663D01*
X0046331Y0060836D01*
X0046540Y0061014D01*
X0046745Y0061197D01*
X0046944Y0061385D01*
X0047140Y0061577D01*
X0047330Y0061775D01*
X0047516Y0061977D01*
X0047697Y0062183D01*
X0047872Y0062394D01*
X0048043Y0062609D01*
X0048208Y0062828D01*
X0048367Y0063051D01*
X0048522Y0063278D01*
X0048670Y0063509D01*
X0048813Y0063743D01*
X0048950Y0063981D01*
X0049082Y0064222D01*
X0049207Y0064466D01*
X0049327Y0064712D01*
X0049440Y0064962D01*
X0049548Y0065215D01*
X0049649Y0065470D01*
X0049744Y0065727D01*
X0049832Y0065987D01*
X0049914Y0066249D01*
X0049990Y0066512D01*
X0050060Y0066778D01*
X0050122Y0067045D01*
X0050179Y0067314D01*
X0050228Y0067583D01*
X0050272Y0067854D01*
X0050308Y0068126D01*
X0050338Y0068399D01*
X0050361Y0068672D01*
X0050378Y0068946D01*
X0050388Y0069220D01*
X0050391Y0069495D01*
X0050388Y0069769D01*
X0050377Y0070043D01*
X0050360Y0070317D01*
X0050337Y0070591D01*
X0050307Y0070863D01*
X0050270Y0071135D01*
X0050226Y0071406D01*
X0050176Y0071676D01*
X0050120Y0071944D01*
X0050057Y0072211D01*
X0049987Y0072477D01*
X0049911Y0072740D01*
X0049829Y0073002D01*
X0049740Y0073262D01*
X0049645Y0073519D01*
X0049543Y0073774D01*
X0049436Y0074026D01*
X0049322Y0074276D01*
X0049202Y0074523D01*
X0049076Y0074767D01*
X0048945Y0075008D01*
X0048807Y0075245D01*
X0048664Y0075479D01*
X0048515Y0075709D01*
X0048361Y0075936D01*
X0048201Y0076159D01*
X0048035Y0076378D01*
X0047865Y0076593D01*
X0047689Y0076804D01*
X0047508Y0077010D01*
X0047322Y0077212D01*
X0047132Y0077409D01*
X0046936Y0077602D01*
X0046736Y0077789D01*
X0046531Y0077972D01*
X0046322Y0078150D01*
X0046109Y0078322D01*
X0045892Y0078490D01*
X0045670Y0078652D01*
X0045445Y0078808D01*
X0045216Y0078959D01*
X0044983Y0079104D01*
X0044747Y0079244D01*
X0044507Y0079378D01*
X0044264Y0079506D01*
X0044019Y0079628D01*
X0043770Y0079744D01*
X0043519Y0079854D01*
X0043265Y0079957D01*
X0043008Y0080055D01*
X0042749Y0080146D01*
X0042488Y0080231D01*
X0042226Y0080309D01*
X0041961Y0080381D01*
X0041694Y0080447D01*
X0041426Y0080506D01*
X0041157Y0080559D01*
X0040887Y0080604D01*
X0040615Y0080644D01*
X0040343Y0080676D01*
X0040070Y0080702D01*
X0039796Y0080722D01*
X0039522Y0080734D01*
X0039247Y0080740D01*
X0038973Y0080740D01*
X0038699Y0080732D01*
X0038425Y0080718D01*
X0038151Y0080698D01*
X0037878Y0080670D01*
X0037606Y0080636D01*
X0037335Y0080595D01*
X0037064Y0080548D01*
X0036795Y0080494D01*
X0036528Y0080434D01*
X0036262Y0080367D01*
X0035997Y0080293D01*
X0035735Y0080214D01*
X0035474Y0080127D01*
X0035216Y0080035D01*
X0034960Y0079936D01*
X0034706Y0079831D01*
X0034456Y0079720D01*
X0034208Y0079603D01*
X0033962Y0079480D01*
X0033720Y0079350D01*
X0033482Y0079215D01*
X0033246Y0079074D01*
X0033014Y0078928D01*
X0032786Y0078776D01*
X0032561Y0078618D01*
X0032341Y0078455D01*
X0032124Y0078287D01*
X0031912Y0078113D01*
X0031703Y0077934D01*
X0031500Y0077750D01*
X0042500Y0074750D02*
X0042581Y0074633D01*
X0042658Y0074514D01*
X0042732Y0074393D01*
X0042802Y0074270D01*
X0042869Y0074145D01*
X0042932Y0074018D01*
X0042992Y0073890D01*
X0043049Y0073760D01*
X0043102Y0073628D01*
X0043151Y0073495D01*
X0043196Y0073361D01*
X0043238Y0073226D01*
X0043276Y0073089D01*
X0043310Y0072952D01*
X0043341Y0072813D01*
X0043367Y0072674D01*
X0043390Y0072534D01*
X0043409Y0072393D01*
X0043424Y0072252D01*
X0043435Y0072111D01*
X0043442Y0071970D01*
X0043446Y0071828D01*
X0043445Y0071686D01*
X0043441Y0071544D01*
X0043432Y0071403D01*
X0043420Y0071262D01*
X0043404Y0071121D01*
X0043384Y0070981D01*
X0043360Y0070841D01*
X0043332Y0070702D01*
X0043301Y0070564D01*
X0043265Y0070426D01*
X0043226Y0070290D01*
X0043183Y0070155D01*
X0043137Y0070021D01*
X0043086Y0069889D01*
X0043032Y0069757D01*
X0042975Y0069628D01*
X0042914Y0069500D01*
X0042849Y0069374D01*
X0042781Y0069249D01*
X0042710Y0069127D01*
X0042635Y0069006D01*
X0042557Y0068888D01*
X0042476Y0068772D01*
X0042392Y0068658D01*
X0042304Y0068547D01*
X0042213Y0068438D01*
X0042120Y0068331D01*
X0042023Y0068227D01*
X0041924Y0068126D01*
X0041822Y0068028D01*
X0041717Y0067932D01*
X0041610Y0067839D01*
X0041500Y0067750D01*
X0031499Y0077750D02*
X0031054Y0077360D01*
X0030617Y0076960D01*
X0030191Y0076549D01*
X0029774Y0076128D01*
X0029369Y0075697D01*
X0028973Y0075256D01*
X0028589Y0074805D01*
X0028215Y0074345D01*
X0027853Y0073877D01*
X0027503Y0073399D01*
X0027164Y0072914D01*
X0026837Y0072420D01*
X0026522Y0071918D01*
X0026220Y0071409D01*
X0025930Y0070893D01*
X0025653Y0070369D01*
X0025388Y0069839D01*
X0025137Y0069303D01*
X0024899Y0068761D01*
X0024674Y0068213D01*
X0024462Y0067660D01*
X0024264Y0067102D01*
X0024079Y0066539D01*
X0023909Y0065972D01*
X0023752Y0065401D01*
X0023609Y0064826D01*
X0023480Y0064248D01*
X0023366Y0063667D01*
X0023265Y0063083D01*
X0023179Y0062498D01*
X0023107Y0061910D01*
X0023049Y0061320D01*
X0023006Y0060730D01*
X0022977Y0060138D01*
X0022963Y0059546D01*
X0022963Y0058954D01*
X0022977Y0058362D01*
X0023006Y0057770D01*
X0023049Y0057180D01*
X0023107Y0056590D01*
X0023179Y0056002D01*
X0023265Y0055417D01*
X0023366Y0054833D01*
X0023480Y0054252D01*
X0023609Y0053674D01*
X0023752Y0053099D01*
X0023909Y0052528D01*
X0024079Y0051961D01*
X0024264Y0051398D01*
X0024462Y0050840D01*
X0024674Y0050287D01*
X0024899Y0049739D01*
X0025137Y0049197D01*
X0025388Y0048661D01*
X0025653Y0048131D01*
X0025930Y0047607D01*
X0026220Y0047091D01*
X0026522Y0046582D01*
X0026837Y0046080D01*
X0027164Y0045586D01*
X0027503Y0045101D01*
X0027853Y0044623D01*
X0028215Y0044155D01*
X0028589Y0043695D01*
X0028973Y0043244D01*
X0029369Y0042803D01*
X0029774Y0042372D01*
X0030191Y0041951D01*
X0030617Y0041540D01*
X0031054Y0041140D01*
X0031499Y0040750D01*
X0033500Y0044751D02*
X0033915Y0044529D01*
X0034325Y0044298D01*
X0034729Y0044057D01*
X0035126Y0043806D01*
X0035518Y0043545D01*
X0035903Y0043275D01*
X0036282Y0042996D01*
X0036654Y0042707D01*
X0037018Y0042410D01*
X0037375Y0042104D01*
X0037725Y0041789D01*
X0038067Y0041466D01*
X0038401Y0041135D01*
X0038727Y0040795D01*
X0039044Y0040448D01*
X0039353Y0040093D01*
X0039653Y0039731D01*
X0039945Y0039362D01*
X0040227Y0038985D01*
X0040500Y0038602D01*
X0040764Y0038213D01*
X0041018Y0037817D01*
X0041262Y0037415D01*
X0041497Y0037007D01*
X0041721Y0036594D01*
X0041936Y0036175D01*
X0042140Y0035751D01*
X0042334Y0035323D01*
X0042518Y0034890D01*
X0042690Y0034452D01*
X0042853Y0034010D01*
X0043004Y0033565D01*
X0043145Y0033116D01*
X0043274Y0032664D01*
X0043393Y0032209D01*
X0043500Y0031751D01*
X0048500Y0031750D02*
X0048510Y0032006D01*
X0048525Y0032262D01*
X0048547Y0032518D01*
X0048575Y0032773D01*
X0048609Y0033028D01*
X0048649Y0033281D01*
X0048695Y0033534D01*
X0048747Y0033785D01*
X0048805Y0034035D01*
X0048869Y0034284D01*
X0048938Y0034531D01*
X0049013Y0034777D01*
X0049095Y0035020D01*
X0049182Y0035262D01*
X0049274Y0035501D01*
X0049372Y0035738D01*
X0049476Y0035973D01*
X0049585Y0036205D01*
X0049700Y0036435D01*
X0049820Y0036662D01*
X0049946Y0036886D01*
X0050077Y0037106D01*
X0050213Y0037324D01*
X0050354Y0037539D01*
X0050500Y0037750D01*
X0038501Y0027750D02*
X0038470Y0028172D01*
X0038428Y0028594D01*
X0038377Y0029014D01*
X0038316Y0029432D01*
X0038244Y0029850D01*
X0038163Y0030265D01*
X0038071Y0030678D01*
X0037970Y0031089D01*
X0037859Y0031497D01*
X0037738Y0031903D01*
X0037607Y0032305D01*
X0037467Y0032705D01*
X0037317Y0033100D01*
X0037158Y0033492D01*
X0036989Y0033881D01*
X0036811Y0034265D01*
X0036624Y0034644D01*
X0036428Y0035019D01*
X0036223Y0035389D01*
X0036009Y0035755D01*
X0035787Y0036114D01*
X0035555Y0036469D01*
X0035316Y0036818D01*
X0035068Y0037161D01*
X0034812Y0037497D01*
X0034547Y0037828D01*
X0034275Y0038152D01*
X0033996Y0038470D01*
X0033708Y0038781D01*
X0033414Y0039084D01*
X0033112Y0039381D01*
X0032803Y0039670D01*
X0032487Y0039952D01*
X0032165Y0040226D01*
X0031836Y0040492D01*
X0031501Y0040751D01*
X0033501Y0061750D02*
X0034227Y0062163D01*
X0034944Y0062592D01*
X0035651Y0063039D01*
X0036348Y0063501D01*
X0037033Y0063979D01*
X0037708Y0064473D01*
X0038371Y0064982D01*
X0039022Y0065507D01*
X0039661Y0066046D01*
X0040287Y0066600D01*
X0040900Y0067168D01*
X0041501Y0067750D01*
M02*
