G75*
%MOIN*%
%OFA0B0*%
%FSLAX25Y25*%
%IPPOS*%
%LPD*%
%AMOC8*
5,1,8,0,0,1.08239X$1,22.5*
%
%ADD10C,0.07800*%
%ADD11C,0.06800*%
%ADD12R,0.03950X0.05524*%
D10*
X0011500Y0026500D03*
X0021500Y0026500D03*
X0031500Y0026500D03*
X0041500Y0026500D03*
X0051500Y0026500D03*
X0061500Y0026500D03*
X0071500Y0026500D03*
X0081500Y0026500D03*
X0091500Y0026500D03*
X0101500Y0026500D03*
X0111500Y0026500D03*
X0121500Y0026500D03*
X0131500Y0026500D03*
X0141500Y0026500D03*
X0151500Y0026500D03*
X0151500Y0086500D03*
X0141500Y0086500D03*
X0131500Y0086500D03*
X0121500Y0086500D03*
X0111500Y0086500D03*
X0101500Y0086500D03*
X0091500Y0086500D03*
X0081500Y0086500D03*
X0071500Y0086500D03*
X0061500Y0086500D03*
X0051500Y0086500D03*
X0041500Y0086500D03*
X0031500Y0086500D03*
X0021500Y0086500D03*
X0011500Y0086500D03*
D11*
X0044374Y0099807D03*
X0052248Y0099807D03*
X0060122Y0099807D03*
X0067996Y0099807D03*
X0075870Y0099807D03*
X0083744Y0099807D03*
X0091618Y0099807D03*
X0099492Y0099807D03*
X0107366Y0099807D03*
X0115240Y0099807D03*
X0115240Y0013193D03*
X0107366Y0013193D03*
X0099492Y0013193D03*
X0091618Y0013193D03*
X0083744Y0013193D03*
X0075870Y0013193D03*
X0067996Y0013193D03*
X0060122Y0013193D03*
X0052248Y0013193D03*
X0044374Y0013193D03*
D12*
X0025043Y0046500D03*
X0017957Y0046500D03*
X0017957Y0066500D03*
X0025043Y0066500D03*
M02*
