%
M48
M72
T01C0.0315
T02C0.0394
%
T01
X4437Y1319
X5225Y1319
X6012Y1319
X6800Y1319
X7587Y1319
X8374Y1319
X9162Y1319
X9949Y1319
X10737Y1319
X11524Y1319
X11524Y9981
X10737Y9981
X9949Y9981
X9162Y9981
X8374Y9981
X7587Y9981
X6800Y9981
X6012Y9981
X5225Y9981
X4437Y9981
T02
X1150Y2650
X2150Y2650
X3150Y2650
X4150Y2650
X5150Y2650
X6150Y2650
X7150Y2650
X8150Y2650
X9150Y2650
X10150Y2650
X11150Y2650
X12150Y2650
X13150Y2650
X14150Y2650
X15150Y2650
X15150Y8650
X14150Y8650
X13150Y8650
X12150Y8650
X11150Y8650
X10150Y8650
X9150Y8650
X8150Y8650
X7150Y8650
X6150Y8650
X5150Y8650
X4150Y8650
X3150Y8650
X2150Y8650
X1150Y8650
M30
