G75*
%MOIN*%
%OFA0B0*%
%FSLAX25Y25*%
%IPPOS*%
%LPD*%
%AMOC8*
5,1,8,0,0,1.08239X$1,22.5*
%
%ADD10C,0.07000*%
%ADD11C,0.06000*%
%ADD12R,0.03150X0.04724*%
%ADD13C,0.01200*%
D10*
X0011500Y0026500D03*
X0021500Y0026500D03*
X0031500Y0026500D03*
X0041500Y0026500D03*
X0051500Y0026500D03*
X0061500Y0026500D03*
X0071500Y0026500D03*
X0081500Y0026500D03*
X0091500Y0026500D03*
X0101500Y0026500D03*
X0111500Y0026500D03*
X0121500Y0026500D03*
X0131500Y0026500D03*
X0141500Y0026500D03*
X0151500Y0026500D03*
X0151500Y0086500D03*
X0141500Y0086500D03*
X0131500Y0086500D03*
X0121500Y0086500D03*
X0111500Y0086500D03*
X0101500Y0086500D03*
X0091500Y0086500D03*
X0081500Y0086500D03*
X0071500Y0086500D03*
X0061500Y0086500D03*
X0051500Y0086500D03*
X0041500Y0086500D03*
X0031500Y0086500D03*
X0021500Y0086500D03*
X0011500Y0086500D03*
D11*
X0044374Y0099807D03*
X0052248Y0099807D03*
X0060122Y0099807D03*
X0067996Y0099807D03*
X0075870Y0099807D03*
X0083744Y0099807D03*
X0091618Y0099807D03*
X0099492Y0099807D03*
X0107366Y0099807D03*
X0115240Y0099807D03*
X0115240Y0013193D03*
X0107366Y0013193D03*
X0099492Y0013193D03*
X0091618Y0013193D03*
X0083744Y0013193D03*
X0075870Y0013193D03*
X0067996Y0013193D03*
X0060122Y0013193D03*
X0052248Y0013193D03*
X0044374Y0013193D03*
D12*
X0025043Y0046500D03*
X0017957Y0046500D03*
X0017957Y0066500D03*
X0025043Y0066500D03*
D13*
X0013110Y0009890D02*
X0040889Y0009890D01*
X0040305Y0010474D02*
X0041655Y0009124D01*
X0043419Y0008393D01*
X0045329Y0008393D01*
X0047093Y0009124D01*
X0048311Y0010342D01*
X0049529Y0009124D01*
X0051293Y0008393D01*
X0053203Y0008393D01*
X0054967Y0009124D01*
X0056185Y0010342D01*
X0057403Y0009124D01*
X0059167Y0008393D01*
X0061077Y0008393D01*
X0062841Y0009124D01*
X0064059Y0010342D01*
X0065277Y0009124D01*
X0067041Y0008393D01*
X0068951Y0008393D01*
X0070715Y0009124D01*
X0071933Y0010342D01*
X0073151Y0009124D01*
X0074915Y0008393D01*
X0076825Y0008393D01*
X0078589Y0009124D01*
X0079807Y0010342D01*
X0081025Y0009124D01*
X0082789Y0008393D01*
X0084699Y0008393D01*
X0086463Y0009124D01*
X0087681Y0010342D01*
X0088899Y0009124D01*
X0090663Y0008393D01*
X0092573Y0008393D01*
X0094337Y0009124D01*
X0095555Y0010342D01*
X0096773Y0009124D01*
X0098537Y0008393D01*
X0100447Y0008393D01*
X0102211Y0009124D01*
X0103429Y0010342D01*
X0104647Y0009124D01*
X0106411Y0008393D01*
X0108321Y0008393D01*
X0110085Y0009124D01*
X0111303Y0010342D01*
X0112521Y0009124D01*
X0114285Y0008393D01*
X0116195Y0008393D01*
X0117959Y0009124D01*
X0119309Y0010474D01*
X0120040Y0012238D01*
X0120040Y0014148D01*
X0119309Y0015912D01*
X0117959Y0017262D01*
X0116195Y0017993D01*
X0114285Y0017993D01*
X0112521Y0017262D01*
X0111303Y0016044D01*
X0110085Y0017262D01*
X0108321Y0017993D01*
X0106411Y0017993D01*
X0104647Y0017262D01*
X0103429Y0016044D01*
X0102211Y0017262D01*
X0100447Y0017993D01*
X0098537Y0017993D01*
X0096773Y0017262D01*
X0095555Y0016044D01*
X0094337Y0017262D01*
X0092573Y0017993D01*
X0090663Y0017993D01*
X0088899Y0017262D01*
X0087681Y0016044D01*
X0086463Y0017262D01*
X0084699Y0017993D01*
X0082789Y0017993D01*
X0081025Y0017262D01*
X0079807Y0016044D01*
X0078589Y0017262D01*
X0076825Y0017993D01*
X0074915Y0017993D01*
X0073151Y0017262D01*
X0071933Y0016044D01*
X0070715Y0017262D01*
X0068951Y0017993D01*
X0067041Y0017993D01*
X0065277Y0017262D01*
X0064059Y0016044D01*
X0062841Y0017262D01*
X0061077Y0017993D01*
X0059167Y0017993D01*
X0057403Y0017262D01*
X0056185Y0016044D01*
X0054967Y0017262D01*
X0053203Y0017993D01*
X0051293Y0017993D01*
X0049529Y0017262D01*
X0048311Y0016044D01*
X0047093Y0017262D01*
X0045329Y0017993D01*
X0043419Y0017993D01*
X0041655Y0017262D01*
X0040305Y0015912D01*
X0039574Y0014148D01*
X0039574Y0012238D01*
X0040305Y0010474D01*
X0040050Y0011088D02*
X0011912Y0011088D01*
X0010713Y0012287D02*
X0039574Y0012287D01*
X0039574Y0013485D02*
X0009515Y0013485D01*
X0008316Y0014684D02*
X0039796Y0014684D01*
X0040292Y0015882D02*
X0007118Y0015882D01*
X0005919Y0017081D02*
X0041474Y0017081D01*
X0040446Y0021200D02*
X0042554Y0021200D01*
X0044502Y0022007D01*
X0045993Y0023498D01*
X0046500Y0024722D01*
X0047007Y0023498D01*
X0048498Y0022007D01*
X0050446Y0021200D01*
X0052554Y0021200D01*
X0054502Y0022007D01*
X0055993Y0023498D01*
X0056500Y0024722D01*
X0057007Y0023498D01*
X0058498Y0022007D01*
X0060446Y0021200D01*
X0062554Y0021200D01*
X0064502Y0022007D01*
X0065993Y0023498D01*
X0066500Y0024722D01*
X0067007Y0023498D01*
X0068498Y0022007D01*
X0070446Y0021200D01*
X0072554Y0021200D01*
X0074502Y0022007D01*
X0075993Y0023498D01*
X0076500Y0024722D01*
X0077007Y0023498D01*
X0078498Y0022007D01*
X0080446Y0021200D01*
X0082554Y0021200D01*
X0084502Y0022007D01*
X0085993Y0023498D01*
X0086500Y0024722D01*
X0087007Y0023498D01*
X0088498Y0022007D01*
X0090446Y0021200D01*
X0092554Y0021200D01*
X0094502Y0022007D01*
X0095993Y0023498D01*
X0096500Y0024722D01*
X0097007Y0023498D01*
X0098498Y0022007D01*
X0100446Y0021200D01*
X0102554Y0021200D01*
X0104502Y0022007D01*
X0105993Y0023498D01*
X0106500Y0024722D01*
X0107007Y0023498D01*
X0108498Y0022007D01*
X0110446Y0021200D01*
X0112554Y0021200D01*
X0114502Y0022007D01*
X0115993Y0023498D01*
X0116500Y0024722D01*
X0117007Y0023498D01*
X0118498Y0022007D01*
X0120446Y0021200D01*
X0122554Y0021200D01*
X0124502Y0022007D01*
X0125993Y0023498D01*
X0126500Y0024722D01*
X0127007Y0023498D01*
X0128498Y0022007D01*
X0130446Y0021200D01*
X0132554Y0021200D01*
X0134502Y0022007D01*
X0135993Y0023498D01*
X0136621Y0025013D01*
X0136774Y0024542D01*
X0137138Y0023827D01*
X0137610Y0023178D01*
X0138178Y0022610D01*
X0138827Y0022138D01*
X0139542Y0021774D01*
X0140306Y0021526D01*
X0141099Y0021400D01*
X0141116Y0021400D01*
X0141116Y0026116D01*
X0141884Y0026116D01*
X0141884Y0021400D01*
X0141901Y0021400D01*
X0142694Y0021526D01*
X0143458Y0021774D01*
X0144173Y0022138D01*
X0144822Y0022610D01*
X0145390Y0023178D01*
X0145862Y0023827D01*
X0146226Y0024542D01*
X0146379Y0025013D01*
X0147007Y0023498D01*
X0148498Y0022007D01*
X0150446Y0021200D01*
X0152554Y0021200D01*
X0154502Y0022007D01*
X0155993Y0023498D01*
X0156800Y0025446D01*
X0156800Y0027554D01*
X0155993Y0029502D01*
X0154502Y0030993D01*
X0152554Y0031800D01*
X0150446Y0031800D01*
X0148498Y0030993D01*
X0147007Y0029502D01*
X0146379Y0027987D01*
X0146226Y0028458D01*
X0145862Y0029173D01*
X0145390Y0029822D01*
X0144822Y0030390D01*
X0144173Y0030862D01*
X0143458Y0031226D01*
X0142694Y0031474D01*
X0141901Y0031600D01*
X0141884Y0031600D01*
X0141884Y0026884D01*
X0141116Y0026884D01*
X0141116Y0031600D01*
X0141099Y0031600D01*
X0140306Y0031474D01*
X0139542Y0031226D01*
X0138827Y0030862D01*
X0138178Y0030390D01*
X0137610Y0029822D01*
X0137138Y0029173D01*
X0136774Y0028458D01*
X0136621Y0027987D01*
X0135993Y0029502D01*
X0134502Y0030993D01*
X0132554Y0031800D01*
X0130446Y0031800D01*
X0128498Y0030993D01*
X0127007Y0029502D01*
X0126500Y0028278D01*
X0125993Y0029502D01*
X0124502Y0030993D01*
X0122554Y0031800D01*
X0120446Y0031800D01*
X0118498Y0030993D01*
X0117007Y0029502D01*
X0116500Y0028278D01*
X0115993Y0029502D01*
X0114502Y0030993D01*
X0112554Y0031800D01*
X0110446Y0031800D01*
X0108498Y0030993D01*
X0107007Y0029502D01*
X0106500Y0028278D01*
X0105993Y0029502D01*
X0104502Y0030993D01*
X0102554Y0031800D01*
X0100446Y0031800D01*
X0098498Y0030993D01*
X0097007Y0029502D01*
X0096500Y0028278D01*
X0095993Y0029502D01*
X0094502Y0030993D01*
X0092554Y0031800D01*
X0090446Y0031800D01*
X0088498Y0030993D01*
X0087007Y0029502D01*
X0086500Y0028278D01*
X0085993Y0029502D01*
X0084502Y0030993D01*
X0082554Y0031800D01*
X0080446Y0031800D01*
X0078498Y0030993D01*
X0077007Y0029502D01*
X0076500Y0028278D01*
X0075993Y0029502D01*
X0074502Y0030993D01*
X0072554Y0031800D01*
X0070446Y0031800D01*
X0068498Y0030993D01*
X0067007Y0029502D01*
X0066500Y0028278D01*
X0065993Y0029502D01*
X0064502Y0030993D01*
X0062554Y0031800D01*
X0060446Y0031800D01*
X0058498Y0030993D01*
X0057007Y0029502D01*
X0056500Y0028278D01*
X0055993Y0029502D01*
X0054502Y0030993D01*
X0052554Y0031800D01*
X0050446Y0031800D01*
X0048498Y0030993D01*
X0047007Y0029502D01*
X0046500Y0028278D01*
X0045993Y0029502D01*
X0044502Y0030993D01*
X0042554Y0031800D01*
X0040446Y0031800D01*
X0038498Y0030993D01*
X0037007Y0029502D01*
X0036500Y0028278D01*
X0035993Y0029502D01*
X0034502Y0030993D01*
X0032554Y0031800D01*
X0030446Y0031800D01*
X0028498Y0030993D01*
X0027007Y0029502D01*
X0026500Y0028278D01*
X0025993Y0029502D01*
X0024502Y0030993D01*
X0022554Y0031800D01*
X0020446Y0031800D01*
X0019844Y0031551D01*
X0007650Y0043744D01*
X0007650Y0065706D01*
X0008891Y0064465D01*
X0009773Y0064100D01*
X0014582Y0064100D01*
X0014582Y0063392D01*
X0015557Y0062417D01*
X0015557Y0050583D01*
X0014582Y0049608D01*
X0014582Y0043392D01*
X0015636Y0042338D01*
X0020277Y0042338D01*
X0021331Y0043392D01*
X0021331Y0049608D01*
X0020357Y0050583D01*
X0020357Y0062417D01*
X0021331Y0063392D01*
X0021331Y0069608D01*
X0020277Y0070662D01*
X0015636Y0070662D01*
X0014582Y0069608D01*
X0014582Y0068900D01*
X0011244Y0068900D01*
X0007650Y0072494D01*
X0007650Y0082855D01*
X0008498Y0082007D01*
X0010446Y0081200D01*
X0012554Y0081200D01*
X0014502Y0082007D01*
X0015993Y0083498D01*
X0016500Y0084722D01*
X0017007Y0083498D01*
X0018498Y0082007D01*
X0020446Y0081200D01*
X0022554Y0081200D01*
X0024502Y0082007D01*
X0025993Y0083498D01*
X0026500Y0084722D01*
X0027007Y0083498D01*
X0028498Y0082007D01*
X0030446Y0081200D01*
X0032554Y0081200D01*
X0034502Y0082007D01*
X0035993Y0083498D01*
X0036500Y0084722D01*
X0037007Y0083498D01*
X0038498Y0082007D01*
X0040446Y0081200D01*
X0042554Y0081200D01*
X0044502Y0082007D01*
X0045993Y0083498D01*
X0046500Y0084722D01*
X0047007Y0083498D01*
X0048498Y0082007D01*
X0050446Y0081200D01*
X0052554Y0081200D01*
X0054502Y0082007D01*
X0055993Y0083498D01*
X0056500Y0084722D01*
X0057007Y0083498D01*
X0058498Y0082007D01*
X0060446Y0081200D01*
X0062554Y0081200D01*
X0064502Y0082007D01*
X0065993Y0083498D01*
X0066500Y0084722D01*
X0067007Y0083498D01*
X0068498Y0082007D01*
X0070446Y0081200D01*
X0072554Y0081200D01*
X0074502Y0082007D01*
X0075993Y0083498D01*
X0076500Y0084722D01*
X0077007Y0083498D01*
X0078498Y0082007D01*
X0080446Y0081200D01*
X0082554Y0081200D01*
X0084502Y0082007D01*
X0085993Y0083498D01*
X0086500Y0084722D01*
X0087007Y0083498D01*
X0088498Y0082007D01*
X0090446Y0081200D01*
X0092554Y0081200D01*
X0094502Y0082007D01*
X0095993Y0083498D01*
X0096500Y0084722D01*
X0097007Y0083498D01*
X0098498Y0082007D01*
X0100446Y0081200D01*
X0102554Y0081200D01*
X0104502Y0082007D01*
X0105993Y0083498D01*
X0106500Y0084722D01*
X0107007Y0083498D01*
X0108498Y0082007D01*
X0110446Y0081200D01*
X0112554Y0081200D01*
X0114502Y0082007D01*
X0115993Y0083498D01*
X0116621Y0085013D01*
X0116774Y0084542D01*
X0117138Y0083827D01*
X0117610Y0083178D01*
X0118178Y0082610D01*
X0118827Y0082138D01*
X0119542Y0081774D01*
X0120306Y0081526D01*
X0121099Y0081400D01*
X0121116Y0081400D01*
X0121116Y0086116D01*
X0121884Y0086116D01*
X0121884Y0081400D01*
X0121901Y0081400D01*
X0122694Y0081526D01*
X0123458Y0081774D01*
X0124173Y0082138D01*
X0124822Y0082610D01*
X0125390Y0083178D01*
X0125862Y0083827D01*
X0126226Y0084542D01*
X0126379Y0085013D01*
X0127007Y0083498D01*
X0128498Y0082007D01*
X0130446Y0081200D01*
X0132554Y0081200D01*
X0134502Y0082007D01*
X0135993Y0083498D01*
X0136500Y0084722D01*
X0137007Y0083498D01*
X0138498Y0082007D01*
X0140446Y0081200D01*
X0142554Y0081200D01*
X0144502Y0082007D01*
X0145993Y0083498D01*
X0146500Y0084722D01*
X0147007Y0083498D01*
X0148498Y0082007D01*
X0150446Y0081200D01*
X0152554Y0081200D01*
X0154502Y0082007D01*
X0155993Y0083498D01*
X0156800Y0085446D01*
X0156800Y0087554D01*
X0155993Y0089502D01*
X0154502Y0090993D01*
X0152554Y0091800D01*
X0150446Y0091800D01*
X0148498Y0090993D01*
X0147007Y0089502D01*
X0146500Y0088278D01*
X0145993Y0089502D01*
X0144502Y0090993D01*
X0142554Y0091800D01*
X0140446Y0091800D01*
X0139844Y0091551D01*
X0136035Y0095359D01*
X0135359Y0096035D01*
X0134477Y0096400D01*
X0118621Y0096400D01*
X0119309Y0097088D01*
X0120040Y0098852D01*
X0120040Y0100762D01*
X0119309Y0102526D01*
X0117959Y0103876D01*
X0117206Y0104188D01*
X0113535Y0107859D01*
X0112859Y0108535D01*
X0111977Y0108900D01*
X0018900Y0108900D01*
X0019000Y0109000D01*
X0144000Y0109000D01*
X0159000Y0094000D01*
X0159000Y0019000D01*
X0144000Y0004000D01*
X0019000Y0004000D01*
X0004000Y0019000D01*
X0004000Y0040606D01*
X0012984Y0031622D01*
X0012554Y0031800D01*
X0010446Y0031800D01*
X0008498Y0030993D01*
X0007007Y0029502D01*
X0006200Y0027554D01*
X0006200Y0025446D01*
X0007007Y0023498D01*
X0008498Y0022007D01*
X0010446Y0021200D01*
X0012554Y0021200D01*
X0014502Y0022007D01*
X0015993Y0023498D01*
X0016500Y0024722D01*
X0017007Y0023498D01*
X0018498Y0022007D01*
X0020446Y0021200D01*
X0022554Y0021200D01*
X0024502Y0022007D01*
X0025993Y0023498D01*
X0026500Y0024722D01*
X0027007Y0023498D01*
X0028498Y0022007D01*
X0030446Y0021200D01*
X0032554Y0021200D01*
X0034502Y0022007D01*
X0035993Y0023498D01*
X0036500Y0024722D01*
X0037007Y0023498D01*
X0038498Y0022007D01*
X0040446Y0021200D01*
X0038817Y0021875D02*
X0034183Y0021875D01*
X0035569Y0023073D02*
X0037431Y0023073D01*
X0036686Y0024272D02*
X0036314Y0024272D01*
X0036174Y0029066D02*
X0036826Y0029066D01*
X0037769Y0030264D02*
X0035231Y0030264D01*
X0033368Y0031463D02*
X0039632Y0031463D01*
X0043368Y0031463D02*
X0049632Y0031463D01*
X0047769Y0030264D02*
X0045231Y0030264D01*
X0046174Y0029066D02*
X0046826Y0029066D01*
X0046686Y0024272D02*
X0046314Y0024272D01*
X0045569Y0023073D02*
X0047431Y0023073D01*
X0048817Y0021875D02*
X0044183Y0021875D01*
X0047274Y0017081D02*
X0049348Y0017081D01*
X0055148Y0017081D02*
X0057222Y0017081D01*
X0063023Y0017081D02*
X0065096Y0017081D01*
X0064183Y0021875D02*
X0068817Y0021875D01*
X0067431Y0023073D02*
X0065569Y0023073D01*
X0066314Y0024272D02*
X0066686Y0024272D01*
X0066826Y0029066D02*
X0066174Y0029066D01*
X0065231Y0030264D02*
X0067769Y0030264D01*
X0069632Y0031463D02*
X0063368Y0031463D01*
X0059632Y0031463D02*
X0053368Y0031463D01*
X0055231Y0030264D02*
X0057769Y0030264D01*
X0056826Y0029066D02*
X0056174Y0029066D01*
X0056314Y0024272D02*
X0056686Y0024272D01*
X0057431Y0023073D02*
X0055569Y0023073D01*
X0054183Y0021875D02*
X0058817Y0021875D01*
X0070897Y0017081D02*
X0072970Y0017081D01*
X0074183Y0021875D02*
X0078817Y0021875D01*
X0077431Y0023073D02*
X0075569Y0023073D01*
X0076314Y0024272D02*
X0076686Y0024272D01*
X0076826Y0029066D02*
X0076174Y0029066D01*
X0075231Y0030264D02*
X0077769Y0030264D01*
X0079632Y0031463D02*
X0073368Y0031463D01*
X0083368Y0031463D02*
X0089632Y0031463D01*
X0087769Y0030264D02*
X0085231Y0030264D01*
X0086174Y0029066D02*
X0086826Y0029066D01*
X0086686Y0024272D02*
X0086314Y0024272D01*
X0085569Y0023073D02*
X0087431Y0023073D01*
X0088817Y0021875D02*
X0084183Y0021875D01*
X0086645Y0017081D02*
X0088718Y0017081D01*
X0094519Y0017081D02*
X0096592Y0017081D01*
X0102393Y0017081D02*
X0104466Y0017081D01*
X0110267Y0017081D02*
X0112340Y0017081D01*
X0114183Y0021875D02*
X0118817Y0021875D01*
X0117431Y0023073D02*
X0115569Y0023073D01*
X0116314Y0024272D02*
X0116686Y0024272D01*
X0116826Y0029066D02*
X0116174Y0029066D01*
X0115231Y0030264D02*
X0117769Y0030264D01*
X0119632Y0031463D02*
X0113368Y0031463D01*
X0109632Y0031463D02*
X0103368Y0031463D01*
X0105231Y0030264D02*
X0107769Y0030264D01*
X0106826Y0029066D02*
X0106174Y0029066D01*
X0106314Y0024272D02*
X0106686Y0024272D01*
X0107431Y0023073D02*
X0105569Y0023073D01*
X0104183Y0021875D02*
X0108817Y0021875D01*
X0098817Y0021875D02*
X0094183Y0021875D01*
X0095569Y0023073D02*
X0097431Y0023073D01*
X0096686Y0024272D02*
X0096314Y0024272D01*
X0096174Y0029066D02*
X0096826Y0029066D01*
X0097769Y0030264D02*
X0095231Y0030264D01*
X0093368Y0031463D02*
X0099632Y0031463D01*
X0118141Y0017081D02*
X0157081Y0017081D01*
X0158279Y0018279D02*
X0004721Y0018279D01*
X0004000Y0019478D02*
X0159000Y0019478D01*
X0159000Y0020676D02*
X0004000Y0020676D01*
X0004000Y0021875D02*
X0008817Y0021875D01*
X0007431Y0023073D02*
X0004000Y0023073D01*
X0004000Y0024272D02*
X0006686Y0024272D01*
X0006200Y0025470D02*
X0004000Y0025470D01*
X0004000Y0026669D02*
X0006200Y0026669D01*
X0006330Y0027867D02*
X0004000Y0027867D01*
X0004000Y0029066D02*
X0006826Y0029066D01*
X0007769Y0030264D02*
X0004000Y0030264D01*
X0004000Y0031463D02*
X0009632Y0031463D01*
X0011945Y0032661D02*
X0004000Y0032661D01*
X0004000Y0033860D02*
X0010746Y0033860D01*
X0009548Y0035058D02*
X0004000Y0035058D01*
X0004000Y0036257D02*
X0008349Y0036257D01*
X0007151Y0037455D02*
X0004000Y0037455D01*
X0004000Y0038654D02*
X0005952Y0038654D01*
X0004754Y0039852D02*
X0004000Y0039852D01*
X0005250Y0042750D02*
X0021500Y0026500D01*
X0025231Y0030264D02*
X0027769Y0030264D01*
X0026826Y0029066D02*
X0026174Y0029066D01*
X0023368Y0031463D02*
X0029632Y0031463D01*
X0026686Y0024272D02*
X0026314Y0024272D01*
X0025569Y0023073D02*
X0027431Y0023073D01*
X0028817Y0021875D02*
X0024183Y0021875D01*
X0018817Y0021875D02*
X0014183Y0021875D01*
X0015569Y0023073D02*
X0017431Y0023073D01*
X0016686Y0024272D02*
X0016314Y0024272D01*
X0018733Y0032661D02*
X0159000Y0032661D01*
X0159000Y0031463D02*
X0153368Y0031463D01*
X0155231Y0030264D02*
X0159000Y0030264D01*
X0159000Y0029066D02*
X0156174Y0029066D01*
X0156670Y0027867D02*
X0159000Y0027867D01*
X0159000Y0026669D02*
X0156800Y0026669D01*
X0156800Y0025470D02*
X0159000Y0025470D01*
X0159000Y0024272D02*
X0156314Y0024272D01*
X0155569Y0023073D02*
X0159000Y0023073D01*
X0159000Y0021875D02*
X0154183Y0021875D01*
X0148817Y0021875D02*
X0143656Y0021875D01*
X0141884Y0021875D02*
X0141116Y0021875D01*
X0141116Y0023073D02*
X0141884Y0023073D01*
X0141884Y0024272D02*
X0141116Y0024272D01*
X0141116Y0025470D02*
X0141884Y0025470D01*
X0141500Y0026500D02*
X0121500Y0046500D01*
X0121500Y0071500D01*
X0116500Y0066500D01*
X0025043Y0066500D01*
X0025043Y0046500D01*
X0024856Y0046687D02*
X0024856Y0046313D01*
X0021869Y0046313D01*
X0021869Y0043927D01*
X0021978Y0043520D01*
X0022188Y0043155D01*
X0022486Y0042857D01*
X0022851Y0042647D01*
X0023258Y0042538D01*
X0024856Y0042538D01*
X0024856Y0046313D01*
X0025231Y0046313D01*
X0025231Y0046687D01*
X0028218Y0046687D01*
X0028218Y0049073D01*
X0028109Y0049480D01*
X0027898Y0049845D01*
X0027601Y0050143D01*
X0027236Y0050353D01*
X0026829Y0050462D01*
X0025231Y0050462D01*
X0025231Y0046687D01*
X0024856Y0046687D01*
X0021868Y0046687D01*
X0021869Y0049073D01*
X0021978Y0049480D01*
X0022188Y0049845D01*
X0022486Y0050143D01*
X0022851Y0050353D01*
X0023258Y0050462D01*
X0024856Y0050462D01*
X0024856Y0046687D01*
X0024856Y0047043D02*
X0025231Y0047043D01*
X0025231Y0046313D02*
X0028218Y0046313D01*
X0028218Y0043927D01*
X0028109Y0043520D01*
X0027898Y0043155D01*
X0027601Y0042857D01*
X0027236Y0042647D01*
X0026829Y0042538D01*
X0025231Y0042538D01*
X0025231Y0046313D01*
X0025231Y0045845D02*
X0024856Y0045845D01*
X0024856Y0044646D02*
X0025231Y0044646D01*
X0025231Y0043448D02*
X0024856Y0043448D01*
X0022019Y0043448D02*
X0021331Y0043448D01*
X0021331Y0044646D02*
X0021869Y0044646D01*
X0021869Y0045845D02*
X0021331Y0045845D01*
X0021331Y0047043D02*
X0021869Y0047043D01*
X0021869Y0048242D02*
X0021331Y0048242D01*
X0021331Y0049440D02*
X0021967Y0049440D01*
X0020357Y0050639D02*
X0159000Y0050639D01*
X0159000Y0051837D02*
X0020357Y0051837D01*
X0020357Y0053036D02*
X0159000Y0053036D01*
X0159000Y0054234D02*
X0020357Y0054234D01*
X0020357Y0055433D02*
X0159000Y0055433D01*
X0159000Y0056632D02*
X0020357Y0056632D01*
X0020357Y0057830D02*
X0159000Y0057830D01*
X0159000Y0059029D02*
X0020357Y0059029D01*
X0020357Y0060227D02*
X0159000Y0060227D01*
X0159000Y0061426D02*
X0020357Y0061426D01*
X0020563Y0062624D02*
X0022936Y0062624D01*
X0022851Y0062647D02*
X0023258Y0062538D01*
X0024856Y0062538D01*
X0024856Y0066313D01*
X0021869Y0066313D01*
X0021869Y0063927D01*
X0021978Y0063520D01*
X0022188Y0063155D01*
X0022486Y0062857D01*
X0022851Y0062647D01*
X0021897Y0063823D02*
X0021331Y0063823D01*
X0021331Y0065021D02*
X0021869Y0065021D01*
X0021869Y0066220D02*
X0021331Y0066220D01*
X0021868Y0066687D02*
X0024856Y0066687D01*
X0024856Y0066313D01*
X0025231Y0066313D01*
X0025231Y0066687D01*
X0028218Y0066687D01*
X0028218Y0069073D01*
X0028109Y0069480D01*
X0027898Y0069845D01*
X0027601Y0070143D01*
X0027236Y0070353D01*
X0026829Y0070462D01*
X0025231Y0070462D01*
X0025231Y0066687D01*
X0024856Y0066687D01*
X0024856Y0070462D01*
X0023258Y0070462D01*
X0022851Y0070353D01*
X0022486Y0070143D01*
X0022188Y0069845D01*
X0021978Y0069480D01*
X0021869Y0069073D01*
X0021868Y0066687D01*
X0021869Y0067418D02*
X0021331Y0067418D01*
X0021331Y0068617D02*
X0021869Y0068617D01*
X0022171Y0069815D02*
X0021124Y0069815D01*
X0024856Y0069815D02*
X0025231Y0069815D01*
X0025231Y0068617D02*
X0024856Y0068617D01*
X0024856Y0067418D02*
X0025231Y0067418D01*
X0025231Y0066313D02*
X0028218Y0066313D01*
X0028218Y0063927D01*
X0028109Y0063520D01*
X0027898Y0063155D01*
X0027601Y0062857D01*
X0027236Y0062647D01*
X0026829Y0062538D01*
X0025231Y0062538D01*
X0025231Y0066313D01*
X0025231Y0066220D02*
X0024856Y0066220D01*
X0024856Y0065021D02*
X0025231Y0065021D01*
X0025231Y0063823D02*
X0024856Y0063823D01*
X0024856Y0062624D02*
X0025231Y0062624D01*
X0027151Y0062624D02*
X0159000Y0062624D01*
X0159000Y0063823D02*
X0028190Y0063823D01*
X0028218Y0065021D02*
X0159000Y0065021D01*
X0159000Y0066220D02*
X0028218Y0066220D01*
X0028218Y0067418D02*
X0159000Y0067418D01*
X0159000Y0068617D02*
X0028218Y0068617D01*
X0027915Y0069815D02*
X0159000Y0069815D01*
X0159000Y0071014D02*
X0009130Y0071014D01*
X0007932Y0072212D02*
X0159000Y0072212D01*
X0159000Y0073411D02*
X0007650Y0073411D01*
X0005250Y0071500D02*
X0010250Y0066500D01*
X0017957Y0066500D01*
X0017957Y0046500D01*
X0014582Y0047043D02*
X0007650Y0047043D01*
X0007650Y0045845D02*
X0014582Y0045845D01*
X0014582Y0044646D02*
X0007650Y0044646D01*
X0007946Y0043448D02*
X0014582Y0043448D01*
X0010343Y0041051D02*
X0159000Y0041051D01*
X0159000Y0042249D02*
X0009145Y0042249D01*
X0011542Y0039852D02*
X0159000Y0039852D01*
X0159000Y0038654D02*
X0012740Y0038654D01*
X0013939Y0037455D02*
X0159000Y0037455D01*
X0159000Y0036257D02*
X0015137Y0036257D01*
X0016336Y0035058D02*
X0159000Y0035058D01*
X0159000Y0033860D02*
X0017534Y0033860D01*
X0005250Y0042750D02*
X0005250Y0071500D01*
X0005250Y0092750D01*
X0019000Y0106500D01*
X0111500Y0106500D01*
X0115240Y0102760D01*
X0115240Y0099807D01*
X0120040Y0099778D02*
X0153222Y0099778D01*
X0152024Y0100976D02*
X0119951Y0100976D01*
X0119455Y0102175D02*
X0150825Y0102175D01*
X0149627Y0103373D02*
X0118462Y0103373D01*
X0116822Y0104572D02*
X0148428Y0104572D01*
X0147230Y0105770D02*
X0115624Y0105770D01*
X0114425Y0106969D02*
X0146031Y0106969D01*
X0144832Y0108168D02*
X0113227Y0108168D01*
X0107366Y0099807D02*
X0113173Y0094000D01*
X0134000Y0094000D01*
X0141500Y0086500D01*
X0145305Y0090190D02*
X0147695Y0090190D01*
X0146795Y0088991D02*
X0146205Y0088991D01*
X0143548Y0091388D02*
X0149452Y0091388D01*
X0153548Y0091388D02*
X0159000Y0091388D01*
X0159000Y0090190D02*
X0155305Y0090190D01*
X0156205Y0088991D02*
X0159000Y0088991D01*
X0159000Y0087793D02*
X0156701Y0087793D01*
X0156800Y0086594D02*
X0159000Y0086594D01*
X0159000Y0085396D02*
X0156779Y0085396D01*
X0156283Y0084197D02*
X0159000Y0084197D01*
X0159000Y0082999D02*
X0155494Y0082999D01*
X0154003Y0081800D02*
X0159000Y0081800D01*
X0159000Y0080602D02*
X0007650Y0080602D01*
X0007650Y0081800D02*
X0008997Y0081800D01*
X0007650Y0079403D02*
X0159000Y0079403D01*
X0159000Y0078205D02*
X0007650Y0078205D01*
X0007650Y0077006D02*
X0159000Y0077006D01*
X0159000Y0075808D02*
X0007650Y0075808D01*
X0007650Y0074609D02*
X0159000Y0074609D01*
X0148997Y0081800D02*
X0144003Y0081800D01*
X0145494Y0082999D02*
X0147506Y0082999D01*
X0146717Y0084197D02*
X0146283Y0084197D01*
X0138997Y0081800D02*
X0134003Y0081800D01*
X0135494Y0082999D02*
X0137506Y0082999D01*
X0136717Y0084197D02*
X0136283Y0084197D01*
X0128997Y0081800D02*
X0123510Y0081800D01*
X0121884Y0081800D02*
X0121116Y0081800D01*
X0121116Y0082999D02*
X0121884Y0082999D01*
X0121884Y0084197D02*
X0121116Y0084197D01*
X0121116Y0085396D02*
X0121884Y0085396D01*
X0121500Y0086500D02*
X0121500Y0071500D01*
X0119490Y0081800D02*
X0114003Y0081800D01*
X0115494Y0082999D02*
X0117789Y0082999D01*
X0116949Y0084197D02*
X0116283Y0084197D01*
X0116621Y0087987D02*
X0115993Y0089502D01*
X0114502Y0090993D01*
X0113037Y0091600D01*
X0129963Y0091600D01*
X0128498Y0090993D01*
X0127007Y0089502D01*
X0126379Y0087987D01*
X0126226Y0088458D01*
X0125862Y0089173D01*
X0125390Y0089822D01*
X0124822Y0090390D01*
X0124173Y0090862D01*
X0123458Y0091226D01*
X0122694Y0091474D01*
X0121901Y0091600D01*
X0121884Y0091600D01*
X0121884Y0086884D01*
X0121116Y0086884D01*
X0121116Y0091600D01*
X0121099Y0091600D01*
X0120306Y0091474D01*
X0119542Y0091226D01*
X0118827Y0090862D01*
X0118178Y0090390D01*
X0117610Y0089822D01*
X0117138Y0089173D01*
X0116774Y0088458D01*
X0116621Y0087987D01*
X0116205Y0088991D02*
X0117046Y0088991D01*
X0117977Y0090190D02*
X0115305Y0090190D01*
X0113548Y0091388D02*
X0120041Y0091388D01*
X0121116Y0091388D02*
X0121884Y0091388D01*
X0122959Y0091388D02*
X0129452Y0091388D01*
X0127695Y0090190D02*
X0125023Y0090190D01*
X0125954Y0088991D02*
X0126795Y0088991D01*
X0121884Y0088991D02*
X0121116Y0088991D01*
X0121116Y0087793D02*
X0121884Y0087793D01*
X0121500Y0086500D02*
X0116200Y0091800D01*
X0054033Y0091800D01*
X0046025Y0099807D01*
X0044374Y0099807D01*
X0044187Y0099778D02*
X0015672Y0099778D01*
X0016871Y0100976D02*
X0039917Y0100976D01*
X0039887Y0100884D02*
X0039774Y0100169D01*
X0039774Y0099994D01*
X0044187Y0099994D01*
X0044187Y0099620D01*
X0044561Y0099620D01*
X0044561Y0095207D01*
X0044736Y0095207D01*
X0045451Y0095320D01*
X0046140Y0095544D01*
X0046785Y0095873D01*
X0047371Y0096298D01*
X0047883Y0096810D01*
X0048145Y0097171D01*
X0048179Y0097088D01*
X0049529Y0095738D01*
X0051293Y0095007D01*
X0053203Y0095007D01*
X0054967Y0095738D01*
X0056185Y0096956D01*
X0057403Y0095738D01*
X0059167Y0095007D01*
X0061077Y0095007D01*
X0062841Y0095738D01*
X0064059Y0096956D01*
X0065277Y0095738D01*
X0067041Y0095007D01*
X0068951Y0095007D01*
X0070715Y0095738D01*
X0071933Y0096956D01*
X0073151Y0095738D01*
X0074915Y0095007D01*
X0076825Y0095007D01*
X0078589Y0095738D01*
X0079807Y0096956D01*
X0081025Y0095738D01*
X0082789Y0095007D01*
X0084699Y0095007D01*
X0086463Y0095738D01*
X0087681Y0096956D01*
X0088899Y0095738D01*
X0090663Y0095007D01*
X0092573Y0095007D01*
X0094337Y0095738D01*
X0095555Y0096956D01*
X0096773Y0095738D01*
X0098537Y0095007D01*
X0100447Y0095007D01*
X0102211Y0095738D01*
X0103429Y0096956D01*
X0104647Y0095738D01*
X0106411Y0095007D01*
X0108321Y0095007D01*
X0108640Y0095139D01*
X0111814Y0091965D01*
X0112213Y0091800D01*
X0110446Y0091800D01*
X0108498Y0090993D01*
X0107007Y0089502D01*
X0106500Y0088278D01*
X0105993Y0089502D01*
X0104502Y0090993D01*
X0102554Y0091800D01*
X0100446Y0091800D01*
X0098498Y0090993D01*
X0097007Y0089502D01*
X0096500Y0088278D01*
X0095993Y0089502D01*
X0094502Y0090993D01*
X0092554Y0091800D01*
X0090446Y0091800D01*
X0088498Y0090993D01*
X0087007Y0089502D01*
X0086500Y0088278D01*
X0085993Y0089502D01*
X0084502Y0090993D01*
X0082554Y0091800D01*
X0080446Y0091800D01*
X0078498Y0090993D01*
X0077007Y0089502D01*
X0076500Y0088278D01*
X0075993Y0089502D01*
X0074502Y0090993D01*
X0072554Y0091800D01*
X0070446Y0091800D01*
X0068498Y0090993D01*
X0067007Y0089502D01*
X0066500Y0088278D01*
X0065993Y0089502D01*
X0064502Y0090993D01*
X0062554Y0091800D01*
X0060446Y0091800D01*
X0058498Y0090993D01*
X0057007Y0089502D01*
X0056500Y0088278D01*
X0055993Y0089502D01*
X0054502Y0090993D01*
X0052554Y0091800D01*
X0050446Y0091800D01*
X0048498Y0090993D01*
X0047007Y0089502D01*
X0046500Y0088278D01*
X0045993Y0089502D01*
X0044502Y0090993D01*
X0042554Y0091800D01*
X0040446Y0091800D01*
X0038498Y0090993D01*
X0037007Y0089502D01*
X0036500Y0088278D01*
X0035993Y0089502D01*
X0034502Y0090993D01*
X0032554Y0091800D01*
X0030446Y0091800D01*
X0028498Y0090993D01*
X0027007Y0089502D01*
X0026500Y0088278D01*
X0025993Y0089502D01*
X0024502Y0090993D01*
X0022554Y0091800D01*
X0020446Y0091800D01*
X0018498Y0090993D01*
X0017007Y0089502D01*
X0016500Y0088278D01*
X0015993Y0089502D01*
X0014502Y0090993D01*
X0012554Y0091800D01*
X0010446Y0091800D01*
X0008498Y0090993D01*
X0007650Y0090145D01*
X0007650Y0091756D01*
X0019994Y0104100D01*
X0042700Y0104100D01*
X0042608Y0104070D01*
X0041963Y0103741D01*
X0041377Y0103316D01*
X0040865Y0102804D01*
X0040440Y0102218D01*
X0040111Y0101573D01*
X0039887Y0100884D01*
X0039774Y0099620D02*
X0039774Y0099445D01*
X0039887Y0098730D01*
X0040111Y0098041D01*
X0040440Y0097396D01*
X0040865Y0096810D01*
X0041377Y0096298D01*
X0041963Y0095873D01*
X0042608Y0095544D01*
X0043297Y0095320D01*
X0044012Y0095207D01*
X0044187Y0095207D01*
X0044187Y0099620D01*
X0039774Y0099620D01*
X0039936Y0098579D02*
X0014474Y0098579D01*
X0013275Y0097381D02*
X0040451Y0097381D01*
X0041537Y0096182D02*
X0012077Y0096182D01*
X0010878Y0094984D02*
X0108795Y0094984D01*
X0109994Y0093785D02*
X0009679Y0093785D01*
X0008481Y0092587D02*
X0111192Y0092587D01*
X0109452Y0091388D02*
X0103548Y0091388D01*
X0105305Y0090190D02*
X0107695Y0090190D01*
X0106795Y0088991D02*
X0106205Y0088991D01*
X0106283Y0084197D02*
X0106717Y0084197D01*
X0107506Y0082999D02*
X0105494Y0082999D01*
X0104003Y0081800D02*
X0108997Y0081800D01*
X0098997Y0081800D02*
X0094003Y0081800D01*
X0095494Y0082999D02*
X0097506Y0082999D01*
X0096717Y0084197D02*
X0096283Y0084197D01*
X0096205Y0088991D02*
X0096795Y0088991D01*
X0097695Y0090190D02*
X0095305Y0090190D01*
X0093548Y0091388D02*
X0099452Y0091388D01*
X0096329Y0096182D02*
X0094782Y0096182D01*
X0088455Y0096182D02*
X0086908Y0096182D01*
X0080581Y0096182D02*
X0079034Y0096182D01*
X0072707Y0096182D02*
X0071160Y0096182D01*
X0064833Y0096182D02*
X0063286Y0096182D01*
X0056959Y0096182D02*
X0055412Y0096182D01*
X0049084Y0096182D02*
X0047211Y0096182D01*
X0044561Y0096182D02*
X0044187Y0096182D01*
X0044187Y0097381D02*
X0044561Y0097381D01*
X0044561Y0098579D02*
X0044187Y0098579D01*
X0044561Y0099620D02*
X0044561Y0099994D01*
X0047448Y0099994D01*
X0047448Y0099620D01*
X0044561Y0099620D01*
X0044561Y0099778D02*
X0047448Y0099778D01*
X0041457Y0103373D02*
X0019268Y0103373D01*
X0018069Y0102175D02*
X0040418Y0102175D01*
X0039452Y0091388D02*
X0033548Y0091388D01*
X0035305Y0090190D02*
X0037695Y0090190D01*
X0036795Y0088991D02*
X0036205Y0088991D01*
X0036283Y0084197D02*
X0036717Y0084197D01*
X0037506Y0082999D02*
X0035494Y0082999D01*
X0034003Y0081800D02*
X0038997Y0081800D01*
X0044003Y0081800D02*
X0048997Y0081800D01*
X0047506Y0082999D02*
X0045494Y0082999D01*
X0046283Y0084197D02*
X0046717Y0084197D01*
X0046795Y0088991D02*
X0046205Y0088991D01*
X0045305Y0090190D02*
X0047695Y0090190D01*
X0049452Y0091388D02*
X0043548Y0091388D01*
X0053548Y0091388D02*
X0059452Y0091388D01*
X0057695Y0090190D02*
X0055305Y0090190D01*
X0056205Y0088991D02*
X0056795Y0088991D01*
X0056717Y0084197D02*
X0056283Y0084197D01*
X0055494Y0082999D02*
X0057506Y0082999D01*
X0058997Y0081800D02*
X0054003Y0081800D01*
X0064003Y0081800D02*
X0068997Y0081800D01*
X0067506Y0082999D02*
X0065494Y0082999D01*
X0066283Y0084197D02*
X0066717Y0084197D01*
X0066795Y0088991D02*
X0066205Y0088991D01*
X0065305Y0090190D02*
X0067695Y0090190D01*
X0069452Y0091388D02*
X0063548Y0091388D01*
X0073548Y0091388D02*
X0079452Y0091388D01*
X0077695Y0090190D02*
X0075305Y0090190D01*
X0076205Y0088991D02*
X0076795Y0088991D01*
X0076717Y0084197D02*
X0076283Y0084197D01*
X0075494Y0082999D02*
X0077506Y0082999D01*
X0078997Y0081800D02*
X0074003Y0081800D01*
X0084003Y0081800D02*
X0088997Y0081800D01*
X0087506Y0082999D02*
X0085494Y0082999D01*
X0086283Y0084197D02*
X0086717Y0084197D01*
X0086795Y0088991D02*
X0086205Y0088991D01*
X0085305Y0090190D02*
X0087695Y0090190D01*
X0089452Y0091388D02*
X0083548Y0091388D01*
X0102656Y0096182D02*
X0104203Y0096182D01*
X0119431Y0097381D02*
X0155619Y0097381D01*
X0154421Y0098579D02*
X0119927Y0098579D01*
X0121116Y0090190D02*
X0121884Y0090190D01*
X0126051Y0084197D02*
X0126717Y0084197D01*
X0127506Y0082999D02*
X0125211Y0082999D01*
X0137609Y0093785D02*
X0159000Y0093785D01*
X0159000Y0092587D02*
X0138807Y0092587D01*
X0136410Y0094984D02*
X0158016Y0094984D01*
X0156818Y0096182D02*
X0135003Y0096182D01*
X0159000Y0049440D02*
X0028120Y0049440D01*
X0028218Y0048242D02*
X0159000Y0048242D01*
X0159000Y0047043D02*
X0028218Y0047043D01*
X0028218Y0045845D02*
X0159000Y0045845D01*
X0159000Y0044646D02*
X0028218Y0044646D01*
X0028067Y0043448D02*
X0159000Y0043448D01*
X0149632Y0031463D02*
X0142730Y0031463D01*
X0141884Y0031463D02*
X0141116Y0031463D01*
X0140270Y0031463D02*
X0133368Y0031463D01*
X0135231Y0030264D02*
X0138052Y0030264D01*
X0137083Y0029066D02*
X0136174Y0029066D01*
X0141116Y0029066D02*
X0141884Y0029066D01*
X0141884Y0030264D02*
X0141116Y0030264D01*
X0141116Y0027867D02*
X0141884Y0027867D01*
X0144948Y0030264D02*
X0147769Y0030264D01*
X0146826Y0029066D02*
X0145917Y0029066D01*
X0146088Y0024272D02*
X0146686Y0024272D01*
X0147431Y0023073D02*
X0145286Y0023073D01*
X0139344Y0021875D02*
X0134183Y0021875D01*
X0135569Y0023073D02*
X0137714Y0023073D01*
X0136911Y0024272D02*
X0136314Y0024272D01*
X0128817Y0021875D02*
X0124183Y0021875D01*
X0125569Y0023073D02*
X0127431Y0023073D01*
X0126686Y0024272D02*
X0126314Y0024272D01*
X0126174Y0029066D02*
X0126826Y0029066D01*
X0127769Y0030264D02*
X0125231Y0030264D01*
X0123368Y0031463D02*
X0129632Y0031463D01*
X0119322Y0015882D02*
X0155882Y0015882D01*
X0154684Y0014684D02*
X0119818Y0014684D01*
X0120040Y0013485D02*
X0153485Y0013485D01*
X0152287Y0012287D02*
X0120040Y0012287D01*
X0119564Y0011088D02*
X0151088Y0011088D01*
X0149890Y0009890D02*
X0118725Y0009890D01*
X0116915Y0008691D02*
X0148691Y0008691D01*
X0147493Y0007493D02*
X0015507Y0007493D01*
X0014309Y0008691D02*
X0042699Y0008691D01*
X0046049Y0008691D02*
X0050573Y0008691D01*
X0048763Y0009890D02*
X0047859Y0009890D01*
X0053923Y0008691D02*
X0058447Y0008691D01*
X0056637Y0009890D02*
X0055733Y0009890D01*
X0061797Y0008691D02*
X0066321Y0008691D01*
X0064511Y0009890D02*
X0063607Y0009890D01*
X0069671Y0008691D02*
X0074195Y0008691D01*
X0072385Y0009890D02*
X0071481Y0009890D01*
X0077545Y0008691D02*
X0082070Y0008691D01*
X0080259Y0009890D02*
X0079355Y0009890D01*
X0085419Y0008691D02*
X0089944Y0008691D01*
X0088133Y0009890D02*
X0087229Y0009890D01*
X0093293Y0008691D02*
X0097818Y0008691D01*
X0096007Y0009890D02*
X0095103Y0009890D01*
X0101167Y0008691D02*
X0105692Y0008691D01*
X0103881Y0009890D02*
X0102977Y0009890D01*
X0109041Y0008691D02*
X0113566Y0008691D01*
X0111755Y0009890D02*
X0110851Y0009890D01*
X0080844Y0017081D02*
X0078771Y0017081D01*
X0025231Y0048242D02*
X0024856Y0048242D01*
X0024856Y0049440D02*
X0025231Y0049440D01*
X0015557Y0050639D02*
X0007650Y0050639D01*
X0007650Y0051837D02*
X0015557Y0051837D01*
X0015557Y0053036D02*
X0007650Y0053036D01*
X0007650Y0054234D02*
X0015557Y0054234D01*
X0015557Y0055433D02*
X0007650Y0055433D01*
X0007650Y0056632D02*
X0015557Y0056632D01*
X0015557Y0057830D02*
X0007650Y0057830D01*
X0007650Y0059029D02*
X0015557Y0059029D01*
X0015557Y0060227D02*
X0007650Y0060227D01*
X0007650Y0061426D02*
X0015557Y0061426D01*
X0015350Y0062624D02*
X0007650Y0062624D01*
X0007650Y0063823D02*
X0014582Y0063823D01*
X0008335Y0065021D02*
X0007650Y0065021D01*
X0010329Y0069815D02*
X0014789Y0069815D01*
X0014003Y0081800D02*
X0018997Y0081800D01*
X0017506Y0082999D02*
X0015494Y0082999D01*
X0016283Y0084197D02*
X0016717Y0084197D01*
X0016795Y0088991D02*
X0016205Y0088991D01*
X0015305Y0090190D02*
X0017695Y0090190D01*
X0019452Y0091388D02*
X0013548Y0091388D01*
X0009452Y0091388D02*
X0007650Y0091388D01*
X0007650Y0090190D02*
X0007695Y0090190D01*
X0023548Y0091388D02*
X0029452Y0091388D01*
X0027695Y0090190D02*
X0025305Y0090190D01*
X0026205Y0088991D02*
X0026795Y0088991D01*
X0026717Y0084197D02*
X0026283Y0084197D01*
X0025494Y0082999D02*
X0027506Y0082999D01*
X0028997Y0081800D02*
X0024003Y0081800D01*
X0014582Y0049440D02*
X0007650Y0049440D01*
X0007650Y0048242D02*
X0014582Y0048242D01*
X0016706Y0006294D02*
X0146294Y0006294D01*
X0145096Y0005096D02*
X0017904Y0005096D01*
M02*
