G04 EAGLE Gerber X2 export*
G75*
%MOIN*%
%FSLAX24Y24*%
%LPD*%
%AMOC8*
5,1,8,0,0,1.08239X$1,22.5*%
G01*
%ADD10C,0.006000*%
%ADD11C,0.008000*%
%ADD12C,0.011000*%
%ADD13C,0.014000*%
%ADD14C,0.005000*%


D10*
X4343Y4343D02*
X9657Y4343D01*
X9657Y8476D01*
X9657Y9657D01*
X5024Y9657D01*
X4343Y9657D01*
X4343Y4343D01*
X5705Y8476D02*
X9657Y8476D01*
X5705Y8476D02*
X5024Y9657D01*
D11*
X7032Y8910D02*
X7172Y9330D01*
X7312Y8910D01*
X7277Y9015D02*
X7067Y9015D01*
X7520Y8910D02*
X7520Y9330D01*
X7754Y8910D01*
X7754Y9330D01*
X8072Y9330D02*
X8072Y8910D01*
X7955Y9330D02*
X8189Y9330D01*
D10*
X6859Y7000D02*
X6861Y7023D01*
X6867Y7046D01*
X6876Y7067D01*
X6889Y7087D01*
X6905Y7104D01*
X6923Y7118D01*
X6943Y7129D01*
X6965Y7137D01*
X6988Y7141D01*
X7012Y7141D01*
X7035Y7137D01*
X7057Y7129D01*
X7077Y7118D01*
X7095Y7104D01*
X7111Y7087D01*
X7124Y7067D01*
X7133Y7046D01*
X7139Y7023D01*
X7141Y7000D01*
X7139Y6977D01*
X7133Y6954D01*
X7124Y6933D01*
X7111Y6913D01*
X7095Y6896D01*
X7077Y6882D01*
X7057Y6871D01*
X7035Y6863D01*
X7012Y6859D01*
X6988Y6859D01*
X6965Y6863D01*
X6943Y6871D01*
X6923Y6882D01*
X6905Y6896D01*
X6889Y6913D01*
X6876Y6933D01*
X6867Y6954D01*
X6861Y6977D01*
X6859Y7000D01*
D12*
X1633Y11186D02*
X1631Y11166D01*
X1627Y11146D01*
X1619Y11127D01*
X1608Y11109D01*
X1595Y11093D01*
X1579Y11080D01*
X1561Y11069D01*
X1542Y11061D01*
X1522Y11057D01*
X1502Y11055D01*
X1471Y11057D01*
X1440Y11062D01*
X1410Y11071D01*
X1381Y11083D01*
X1354Y11098D01*
X1329Y11116D01*
X1305Y11137D01*
X1322Y11514D02*
X1324Y11534D01*
X1328Y11554D01*
X1336Y11573D01*
X1347Y11591D01*
X1360Y11607D01*
X1376Y11620D01*
X1394Y11631D01*
X1413Y11639D01*
X1433Y11643D01*
X1453Y11645D01*
X1479Y11644D01*
X1505Y11639D01*
X1531Y11632D01*
X1555Y11623D01*
X1579Y11610D01*
X1601Y11596D01*
X1322Y11514D02*
X1323Y11494D01*
X1328Y11475D01*
X1335Y11457D01*
X1345Y11440D01*
X1357Y11424D01*
X1371Y11411D01*
X1387Y11399D01*
X1568Y11301D02*
X1584Y11289D01*
X1598Y11276D01*
X1610Y11260D01*
X1620Y11243D01*
X1627Y11225D01*
X1632Y11206D01*
X1633Y11186D01*
X1567Y11301D02*
X1387Y11399D01*
X1990Y11055D02*
X2154Y11055D01*
X1990Y11055D02*
X1973Y11056D01*
X1956Y11061D01*
X1941Y11068D01*
X1927Y11078D01*
X1915Y11090D01*
X1905Y11104D01*
X1898Y11119D01*
X1893Y11136D01*
X1892Y11153D01*
X1892Y11317D01*
X1894Y11339D01*
X1899Y11360D01*
X1908Y11379D01*
X1920Y11397D01*
X1934Y11413D01*
X1951Y11427D01*
X1970Y11437D01*
X1991Y11444D01*
X2012Y11448D01*
X2034Y11448D01*
X2055Y11444D01*
X2076Y11437D01*
X2095Y11427D01*
X2112Y11413D01*
X2126Y11397D01*
X2138Y11379D01*
X2147Y11360D01*
X2152Y11339D01*
X2154Y11317D01*
X2154Y11252D01*
X1892Y11252D01*
X2446Y11055D02*
X2446Y11448D01*
X2609Y11448D01*
X2628Y11446D01*
X2647Y11441D01*
X2663Y11431D01*
X2678Y11419D01*
X2690Y11404D01*
X2700Y11388D01*
X2705Y11369D01*
X2707Y11350D01*
X2708Y11350D02*
X2708Y11055D01*
X3049Y11284D02*
X3212Y11219D01*
X3048Y11284D02*
X3034Y11292D01*
X3020Y11302D01*
X3010Y11315D01*
X3002Y11330D01*
X2997Y11346D01*
X2995Y11363D01*
X2997Y11380D01*
X3002Y11396D01*
X3010Y11411D01*
X3020Y11424D01*
X3033Y11434D01*
X3048Y11442D01*
X3064Y11447D01*
X3081Y11448D01*
X3119Y11445D01*
X3157Y11439D01*
X3193Y11429D01*
X3229Y11415D01*
X3213Y11219D02*
X3227Y11211D01*
X3241Y11201D01*
X3251Y11188D01*
X3259Y11173D01*
X3264Y11157D01*
X3266Y11140D01*
X3264Y11123D01*
X3259Y11107D01*
X3251Y11092D01*
X3241Y11079D01*
X3228Y11069D01*
X3213Y11061D01*
X3197Y11056D01*
X3180Y11055D01*
X3134Y11058D01*
X3089Y11064D01*
X3044Y11074D01*
X3000Y11088D01*
X3533Y11186D02*
X3533Y11317D01*
X3535Y11339D01*
X3540Y11360D01*
X3549Y11379D01*
X3561Y11397D01*
X3575Y11413D01*
X3592Y11427D01*
X3611Y11437D01*
X3632Y11444D01*
X3653Y11448D01*
X3675Y11448D01*
X3696Y11444D01*
X3717Y11437D01*
X3736Y11427D01*
X3753Y11413D01*
X3767Y11397D01*
X3779Y11379D01*
X3788Y11360D01*
X3793Y11339D01*
X3795Y11317D01*
X3795Y11186D01*
X3793Y11164D01*
X3788Y11143D01*
X3779Y11124D01*
X3767Y11106D01*
X3753Y11090D01*
X3736Y11076D01*
X3717Y11066D01*
X3696Y11059D01*
X3675Y11055D01*
X3653Y11055D01*
X3632Y11059D01*
X3611Y11066D01*
X3592Y11076D01*
X3575Y11090D01*
X3561Y11106D01*
X3549Y11124D01*
X3540Y11143D01*
X3535Y11164D01*
X3533Y11186D01*
X4092Y11055D02*
X4092Y11448D01*
X4288Y11448D01*
X4288Y11383D01*
X4956Y11645D02*
X4956Y11055D01*
X4792Y11645D02*
X5120Y11645D01*
X5346Y11448D02*
X5346Y11055D01*
X5330Y11612D02*
X5330Y11645D01*
X5362Y11645D01*
X5362Y11612D01*
X5330Y11612D01*
X5608Y11645D02*
X5608Y11153D01*
X5609Y11153D02*
X5610Y11136D01*
X5615Y11119D01*
X5622Y11104D01*
X5632Y11090D01*
X5644Y11078D01*
X5658Y11068D01*
X5673Y11061D01*
X5690Y11056D01*
X5707Y11055D01*
X6031Y11055D02*
X6195Y11055D01*
X6031Y11055D02*
X6014Y11056D01*
X5997Y11061D01*
X5982Y11068D01*
X5968Y11078D01*
X5956Y11090D01*
X5946Y11104D01*
X5939Y11119D01*
X5934Y11136D01*
X5933Y11153D01*
X5933Y11317D01*
X5935Y11339D01*
X5940Y11360D01*
X5949Y11379D01*
X5961Y11397D01*
X5975Y11413D01*
X5992Y11427D01*
X6011Y11437D01*
X6032Y11444D01*
X6053Y11448D01*
X6075Y11448D01*
X6096Y11444D01*
X6117Y11437D01*
X6136Y11427D01*
X6153Y11413D01*
X6167Y11397D01*
X6179Y11379D01*
X6188Y11360D01*
X6193Y11339D01*
X6195Y11317D01*
X6195Y11252D01*
X5933Y11252D01*
X6836Y11383D02*
X7000Y11383D01*
X7024Y11381D01*
X7048Y11376D01*
X7071Y11367D01*
X7092Y11355D01*
X7112Y11339D01*
X7128Y11321D01*
X7142Y11301D01*
X7153Y11279D01*
X7160Y11255D01*
X7164Y11231D01*
X7164Y11207D01*
X7160Y11183D01*
X7153Y11159D01*
X7142Y11137D01*
X7128Y11117D01*
X7112Y11099D01*
X7092Y11083D01*
X7071Y11071D01*
X7048Y11062D01*
X7024Y11057D01*
X7000Y11055D01*
X6836Y11055D01*
X6836Y11645D01*
X7000Y11645D01*
X7022Y11643D01*
X7043Y11638D01*
X7062Y11629D01*
X7080Y11617D01*
X7096Y11603D01*
X7110Y11586D01*
X7120Y11567D01*
X7127Y11546D01*
X7131Y11525D01*
X7131Y11503D01*
X7127Y11482D01*
X7120Y11461D01*
X7110Y11442D01*
X7096Y11425D01*
X7080Y11411D01*
X7062Y11399D01*
X7043Y11390D01*
X7022Y11385D01*
X7000Y11383D01*
X7435Y11448D02*
X7435Y11055D01*
X7435Y11448D02*
X7632Y11448D01*
X7632Y11383D01*
X7939Y11055D02*
X8103Y11055D01*
X7939Y11055D02*
X7922Y11056D01*
X7905Y11061D01*
X7890Y11068D01*
X7876Y11078D01*
X7864Y11090D01*
X7854Y11104D01*
X7847Y11119D01*
X7842Y11136D01*
X7841Y11153D01*
X7841Y11317D01*
X7843Y11339D01*
X7848Y11360D01*
X7857Y11379D01*
X7869Y11397D01*
X7883Y11413D01*
X7900Y11427D01*
X7919Y11437D01*
X7940Y11444D01*
X7961Y11448D01*
X7983Y11448D01*
X8004Y11444D01*
X8025Y11437D01*
X8044Y11427D01*
X8061Y11413D01*
X8075Y11397D01*
X8087Y11379D01*
X8096Y11360D01*
X8101Y11339D01*
X8103Y11317D01*
X8103Y11252D01*
X7841Y11252D01*
X8484Y11284D02*
X8632Y11284D01*
X8484Y11285D02*
X8464Y11283D01*
X8445Y11278D01*
X8427Y11270D01*
X8410Y11258D01*
X8396Y11244D01*
X8384Y11228D01*
X8376Y11209D01*
X8371Y11190D01*
X8369Y11170D01*
X8371Y11150D01*
X8376Y11131D01*
X8384Y11113D01*
X8396Y11096D01*
X8410Y11082D01*
X8427Y11070D01*
X8445Y11062D01*
X8464Y11057D01*
X8484Y11055D01*
X8632Y11055D01*
X8632Y11350D01*
X8631Y11350D02*
X8630Y11367D01*
X8625Y11384D01*
X8618Y11399D01*
X8608Y11413D01*
X8596Y11425D01*
X8582Y11435D01*
X8567Y11442D01*
X8550Y11447D01*
X8533Y11448D01*
X8402Y11448D01*
X8958Y11645D02*
X8958Y11055D01*
X8958Y11252D02*
X9220Y11448D01*
X9073Y11334D02*
X9220Y11055D01*
X9461Y11186D02*
X9461Y11317D01*
X9463Y11339D01*
X9468Y11360D01*
X9477Y11379D01*
X9489Y11397D01*
X9503Y11413D01*
X9520Y11427D01*
X9539Y11437D01*
X9560Y11444D01*
X9581Y11448D01*
X9603Y11448D01*
X9624Y11444D01*
X9645Y11437D01*
X9664Y11427D01*
X9681Y11413D01*
X9695Y11397D01*
X9707Y11379D01*
X9716Y11360D01*
X9721Y11339D01*
X9723Y11317D01*
X9723Y11186D01*
X9721Y11164D01*
X9716Y11143D01*
X9707Y11124D01*
X9695Y11106D01*
X9681Y11090D01*
X9664Y11076D01*
X9645Y11066D01*
X9624Y11059D01*
X9603Y11055D01*
X9581Y11055D01*
X9560Y11059D01*
X9539Y11066D01*
X9520Y11076D01*
X9503Y11090D01*
X9489Y11106D01*
X9477Y11124D01*
X9468Y11143D01*
X9463Y11164D01*
X9461Y11186D01*
X10015Y11153D02*
X10015Y11448D01*
X10015Y11153D02*
X10016Y11136D01*
X10021Y11119D01*
X10028Y11104D01*
X10038Y11090D01*
X10050Y11078D01*
X10064Y11068D01*
X10079Y11061D01*
X10096Y11056D01*
X10113Y11055D01*
X10277Y11055D01*
X10277Y11448D01*
X10513Y11448D02*
X10709Y11448D01*
X10578Y11645D02*
X10578Y11153D01*
X10579Y11153D02*
X10580Y11136D01*
X10585Y11119D01*
X10592Y11104D01*
X10602Y11090D01*
X10614Y11078D01*
X10628Y11068D01*
X10643Y11061D01*
X10660Y11056D01*
X10677Y11055D01*
X10709Y11055D01*
X11459Y11055D02*
X11262Y11645D01*
X11656Y11645D02*
X11459Y11055D01*
X11911Y11350D02*
X11912Y11387D01*
X11917Y11423D01*
X11923Y11459D01*
X11933Y11495D01*
X11945Y11529D01*
X11960Y11563D01*
X11968Y11583D01*
X11980Y11601D01*
X11995Y11616D01*
X12013Y11628D01*
X12032Y11637D01*
X12053Y11643D01*
X12074Y11645D01*
X12095Y11643D01*
X12116Y11637D01*
X12135Y11628D01*
X12153Y11616D01*
X12168Y11601D01*
X12180Y11583D01*
X12188Y11563D01*
X12189Y11563D02*
X12204Y11529D01*
X12216Y11495D01*
X12226Y11459D01*
X12232Y11423D01*
X12237Y11387D01*
X12238Y11350D01*
X11911Y11350D02*
X11912Y11313D01*
X11917Y11277D01*
X11923Y11241D01*
X11933Y11205D01*
X11945Y11171D01*
X11960Y11137D01*
X11968Y11117D01*
X11980Y11099D01*
X11995Y11084D01*
X12013Y11072D01*
X12032Y11063D01*
X12053Y11057D01*
X12074Y11055D01*
X12189Y11137D02*
X12204Y11171D01*
X12216Y11205D01*
X12226Y11241D01*
X12232Y11277D01*
X12237Y11313D01*
X12238Y11350D01*
X12188Y11137D02*
X12180Y11117D01*
X12168Y11099D01*
X12153Y11084D01*
X12135Y11072D01*
X12116Y11063D01*
X12095Y11057D01*
X12074Y11055D01*
X11943Y11186D02*
X12205Y11514D01*
X12526Y11514D02*
X12690Y11645D01*
X12690Y11055D01*
X12526Y11055D02*
X12854Y11055D01*
D11*
X2805Y8790D02*
X2665Y9210D01*
X2945Y9210D02*
X2805Y8790D01*
X3153Y8790D02*
X3153Y9210D01*
X3270Y9210D01*
X3290Y9208D01*
X3310Y9203D01*
X3329Y9194D01*
X3345Y9183D01*
X3360Y9168D01*
X3371Y9152D01*
X3380Y9133D01*
X3385Y9113D01*
X3387Y9093D01*
X3387Y8907D01*
X3385Y8887D01*
X3380Y8867D01*
X3371Y8849D01*
X3360Y8832D01*
X3345Y8817D01*
X3329Y8806D01*
X3310Y8797D01*
X3290Y8792D01*
X3270Y8790D01*
X3153Y8790D01*
X3633Y8790D02*
X3633Y9210D01*
X3750Y9210D01*
X3770Y9208D01*
X3790Y9203D01*
X3809Y9194D01*
X3825Y9183D01*
X3840Y9168D01*
X3851Y9152D01*
X3860Y9133D01*
X3865Y9113D01*
X3867Y9093D01*
X3867Y8907D01*
X3865Y8887D01*
X3860Y8867D01*
X3851Y8849D01*
X3840Y8832D01*
X3825Y8817D01*
X3809Y8806D01*
X3790Y8797D01*
X3770Y8792D01*
X3750Y8790D01*
X3633Y8790D01*
X2665Y9790D02*
X2665Y10210D01*
X2805Y9977D01*
X2945Y10210D01*
X2945Y9790D01*
X3210Y9790D02*
X3210Y10210D01*
X3163Y9790D02*
X3257Y9790D01*
X3257Y10210D02*
X3163Y10210D01*
X3545Y9790D02*
X3638Y9790D01*
X3545Y9790D02*
X3527Y9792D01*
X3509Y9797D01*
X3493Y9806D01*
X3479Y9817D01*
X3468Y9831D01*
X3459Y9847D01*
X3454Y9865D01*
X3452Y9883D01*
X3451Y9883D02*
X3451Y10117D01*
X3452Y10117D02*
X3454Y10135D01*
X3459Y10153D01*
X3468Y10169D01*
X3479Y10183D01*
X3493Y10194D01*
X3509Y10203D01*
X3527Y10208D01*
X3545Y10210D01*
X3638Y10210D01*
X3807Y9743D02*
X3993Y9743D01*
X4280Y9790D02*
X4373Y9790D01*
X4280Y9790D02*
X4262Y9792D01*
X4244Y9797D01*
X4228Y9806D01*
X4214Y9817D01*
X4203Y9831D01*
X4194Y9847D01*
X4189Y9865D01*
X4187Y9883D01*
X4186Y9883D02*
X4186Y10117D01*
X4187Y10117D02*
X4189Y10135D01*
X4194Y10153D01*
X4203Y10169D01*
X4214Y10183D01*
X4228Y10194D01*
X4244Y10203D01*
X4262Y10208D01*
X4280Y10210D01*
X4373Y10210D01*
X4580Y10210D02*
X4580Y9790D01*
X4766Y9790D01*
X4978Y9790D02*
X4978Y10210D01*
X5212Y10210D02*
X4978Y9953D01*
X5072Y10047D02*
X5212Y9790D01*
X2665Y8210D02*
X2805Y7790D01*
X2945Y8210D01*
X3165Y8210D02*
X3165Y7790D01*
X3118Y7790D02*
X3212Y7790D01*
X3212Y8210D02*
X3118Y8210D01*
X3423Y8210D02*
X3423Y7790D01*
X3657Y7790D02*
X3423Y8210D01*
X3657Y8210D02*
X3657Y7790D01*
X2665Y7210D02*
X2805Y6790D01*
X2945Y7210D01*
X3153Y7210D02*
X3153Y6907D01*
X3155Y6887D01*
X3160Y6867D01*
X3169Y6849D01*
X3180Y6832D01*
X3195Y6817D01*
X3212Y6806D01*
X3230Y6797D01*
X3250Y6792D01*
X3270Y6790D01*
X3290Y6792D01*
X3310Y6797D01*
X3328Y6806D01*
X3345Y6817D01*
X3360Y6832D01*
X3371Y6849D01*
X3380Y6867D01*
X3385Y6887D01*
X3387Y6907D01*
X3387Y7210D01*
X3743Y6790D02*
X3761Y6792D01*
X3779Y6797D01*
X3795Y6806D01*
X3809Y6817D01*
X3820Y6831D01*
X3829Y6847D01*
X3834Y6865D01*
X3836Y6883D01*
X3743Y6790D02*
X3717Y6792D01*
X3692Y6797D01*
X3667Y6805D01*
X3644Y6817D01*
X3623Y6831D01*
X3603Y6848D01*
X3615Y7117D02*
X3617Y7135D01*
X3622Y7153D01*
X3631Y7169D01*
X3642Y7183D01*
X3656Y7194D01*
X3672Y7203D01*
X3690Y7208D01*
X3708Y7210D01*
X3730Y7209D01*
X3753Y7204D01*
X3774Y7197D01*
X3794Y7187D01*
X3813Y7175D01*
X3662Y7035D02*
X3648Y7045D01*
X3637Y7056D01*
X3628Y7070D01*
X3621Y7085D01*
X3616Y7101D01*
X3615Y7117D01*
X3790Y6965D02*
X3804Y6955D01*
X3815Y6944D01*
X3824Y6930D01*
X3831Y6915D01*
X3836Y6899D01*
X3837Y6883D01*
X3790Y6965D02*
X3662Y7035D01*
X4063Y7023D02*
X4180Y7023D01*
X4180Y7024D02*
X4200Y7022D01*
X4220Y7017D01*
X4239Y7008D01*
X4255Y6997D01*
X4270Y6982D01*
X4281Y6966D01*
X4290Y6947D01*
X4295Y6927D01*
X4297Y6907D01*
X4295Y6887D01*
X4290Y6867D01*
X4281Y6849D01*
X4270Y6832D01*
X4255Y6817D01*
X4239Y6806D01*
X4220Y6797D01*
X4200Y6792D01*
X4180Y6790D01*
X4063Y6790D01*
X4063Y7210D01*
X4180Y7210D01*
X4198Y7208D01*
X4216Y7203D01*
X4232Y7194D01*
X4246Y7183D01*
X4257Y7169D01*
X4266Y7153D01*
X4271Y7135D01*
X4273Y7117D01*
X4271Y7099D01*
X4266Y7081D01*
X4257Y7065D01*
X4246Y7051D01*
X4232Y7040D01*
X4216Y7031D01*
X4198Y7026D01*
X4180Y7024D01*
X2898Y6023D02*
X2828Y6023D01*
X2898Y6023D02*
X2898Y5790D01*
X2758Y5790D01*
X2740Y5792D01*
X2722Y5797D01*
X2706Y5806D01*
X2692Y5817D01*
X2681Y5831D01*
X2672Y5847D01*
X2667Y5865D01*
X2665Y5883D01*
X2665Y6117D01*
X2667Y6135D01*
X2672Y6153D01*
X2681Y6169D01*
X2692Y6183D01*
X2706Y6194D01*
X2722Y6203D01*
X2740Y6208D01*
X2758Y6210D01*
X2898Y6210D01*
X3145Y6210D02*
X3145Y5790D01*
X3378Y5790D02*
X3145Y6210D01*
X3378Y6210D02*
X3378Y5790D01*
X3625Y5790D02*
X3625Y6210D01*
X3742Y6210D01*
X3762Y6208D01*
X3782Y6203D01*
X3801Y6194D01*
X3817Y6183D01*
X3832Y6168D01*
X3843Y6152D01*
X3852Y6133D01*
X3857Y6113D01*
X3859Y6093D01*
X3858Y6093D02*
X3858Y5907D01*
X3859Y5907D02*
X3857Y5887D01*
X3852Y5867D01*
X3843Y5849D01*
X3832Y5832D01*
X3817Y5817D01*
X3801Y5806D01*
X3782Y5797D01*
X3762Y5792D01*
X3742Y5790D01*
X3625Y5790D01*
X2665Y5210D02*
X2665Y4790D01*
X2665Y5210D02*
X2782Y5210D01*
X2802Y5208D01*
X2822Y5203D01*
X2841Y5194D01*
X2857Y5183D01*
X2872Y5168D01*
X2883Y5152D01*
X2892Y5133D01*
X2897Y5113D01*
X2899Y5093D01*
X2897Y5073D01*
X2892Y5053D01*
X2883Y5035D01*
X2872Y5018D01*
X2857Y5003D01*
X2841Y4992D01*
X2822Y4983D01*
X2802Y4978D01*
X2782Y4976D01*
X2782Y4977D02*
X2665Y4977D01*
X2805Y4977D02*
X2898Y4790D01*
X3087Y4790D02*
X3367Y5210D01*
X3087Y5210D02*
X3367Y4790D01*
X2782Y4210D02*
X2782Y3790D01*
X2665Y4210D02*
X2898Y4210D01*
X3342Y4210D02*
X3062Y3790D01*
X3342Y3790D02*
X3062Y4210D01*
X2898Y2883D02*
X2896Y2865D01*
X2891Y2847D01*
X2882Y2831D01*
X2871Y2817D01*
X2857Y2806D01*
X2841Y2797D01*
X2823Y2792D01*
X2805Y2790D01*
X2779Y2792D01*
X2754Y2797D01*
X2729Y2805D01*
X2706Y2817D01*
X2685Y2831D01*
X2665Y2848D01*
X2677Y3117D02*
X2679Y3135D01*
X2684Y3153D01*
X2693Y3169D01*
X2704Y3183D01*
X2718Y3194D01*
X2734Y3203D01*
X2752Y3208D01*
X2770Y3210D01*
X2792Y3209D01*
X2815Y3204D01*
X2836Y3197D01*
X2856Y3187D01*
X2875Y3175D01*
X2723Y3035D02*
X2709Y3045D01*
X2698Y3056D01*
X2689Y3070D01*
X2682Y3085D01*
X2677Y3101D01*
X2676Y3117D01*
X2852Y2965D02*
X2866Y2955D01*
X2877Y2944D01*
X2886Y2930D01*
X2893Y2915D01*
X2898Y2899D01*
X2899Y2883D01*
X2852Y2965D02*
X2723Y3035D01*
X3191Y2790D02*
X3285Y2790D01*
X3191Y2790D02*
X3173Y2792D01*
X3155Y2797D01*
X3139Y2806D01*
X3125Y2817D01*
X3114Y2831D01*
X3105Y2847D01*
X3100Y2865D01*
X3098Y2883D01*
X3098Y3117D01*
X3100Y3135D01*
X3105Y3153D01*
X3114Y3169D01*
X3125Y3183D01*
X3139Y3194D01*
X3155Y3203D01*
X3173Y3208D01*
X3191Y3210D01*
X3285Y3210D01*
X3500Y3210D02*
X3500Y2790D01*
X3500Y2953D02*
X3733Y3210D01*
X3593Y3047D02*
X3733Y2790D01*
X2665Y2210D02*
X2665Y1790D01*
X2805Y1977D02*
X2665Y2210D01*
X2805Y1977D02*
X2945Y2210D01*
X2945Y1790D01*
X3210Y1790D02*
X3210Y2210D01*
X3163Y1790D02*
X3257Y1790D01*
X3257Y2210D02*
X3163Y2210D01*
X3578Y1790D02*
X3596Y1792D01*
X3614Y1797D01*
X3630Y1806D01*
X3644Y1817D01*
X3655Y1831D01*
X3664Y1847D01*
X3669Y1865D01*
X3671Y1883D01*
X3578Y1790D02*
X3552Y1792D01*
X3527Y1797D01*
X3502Y1805D01*
X3479Y1817D01*
X3458Y1831D01*
X3438Y1848D01*
X3450Y2117D02*
X3452Y2135D01*
X3457Y2153D01*
X3466Y2169D01*
X3477Y2183D01*
X3491Y2194D01*
X3507Y2203D01*
X3525Y2208D01*
X3543Y2210D01*
X3565Y2209D01*
X3588Y2204D01*
X3609Y2197D01*
X3629Y2187D01*
X3648Y2175D01*
X3497Y2035D02*
X3483Y2045D01*
X3472Y2056D01*
X3463Y2070D01*
X3456Y2085D01*
X3451Y2101D01*
X3450Y2117D01*
X3625Y1965D02*
X3639Y1955D01*
X3650Y1944D01*
X3659Y1930D01*
X3666Y1915D01*
X3671Y1899D01*
X3672Y1883D01*
X3625Y1965D02*
X3497Y2035D01*
X3873Y2093D02*
X3873Y1907D01*
X3873Y2093D02*
X3875Y2113D01*
X3880Y2133D01*
X3889Y2152D01*
X3900Y2168D01*
X3915Y2183D01*
X3932Y2194D01*
X3950Y2203D01*
X3970Y2208D01*
X3990Y2210D01*
X4010Y2208D01*
X4030Y2203D01*
X4049Y2194D01*
X4065Y2183D01*
X4080Y2168D01*
X4091Y2152D01*
X4100Y2133D01*
X4105Y2113D01*
X4107Y2093D01*
X4107Y1907D01*
X4105Y1887D01*
X4100Y1867D01*
X4091Y1848D01*
X4080Y1832D01*
X4065Y1817D01*
X4048Y1806D01*
X4030Y1797D01*
X4010Y1792D01*
X3990Y1790D01*
X3970Y1792D01*
X3950Y1797D01*
X3932Y1806D01*
X3915Y1817D01*
X3900Y1832D01*
X3889Y1849D01*
X3880Y1867D01*
X3875Y1887D01*
X3873Y1907D01*
X9915Y1790D02*
X9915Y2210D01*
X10055Y1977D01*
X10195Y2210D01*
X10195Y1790D01*
X10433Y1907D02*
X10433Y2093D01*
X10435Y2113D01*
X10440Y2133D01*
X10449Y2152D01*
X10460Y2168D01*
X10475Y2183D01*
X10492Y2194D01*
X10510Y2203D01*
X10530Y2208D01*
X10550Y2210D01*
X10570Y2208D01*
X10590Y2203D01*
X10609Y2194D01*
X10625Y2183D01*
X10640Y2168D01*
X10651Y2152D01*
X10660Y2133D01*
X10665Y2113D01*
X10667Y2093D01*
X10667Y1907D01*
X10665Y1887D01*
X10660Y1867D01*
X10651Y1848D01*
X10640Y1832D01*
X10625Y1817D01*
X10609Y1806D01*
X10590Y1797D01*
X10570Y1792D01*
X10550Y1790D01*
X10530Y1792D01*
X10510Y1797D01*
X10492Y1806D01*
X10475Y1817D01*
X10460Y1832D01*
X10449Y1849D01*
X10440Y1867D01*
X10435Y1887D01*
X10433Y1907D01*
X11008Y1790D02*
X11026Y1792D01*
X11044Y1797D01*
X11060Y1806D01*
X11074Y1817D01*
X11085Y1831D01*
X11094Y1847D01*
X11099Y1865D01*
X11101Y1883D01*
X11008Y1790D02*
X10982Y1792D01*
X10957Y1797D01*
X10932Y1805D01*
X10909Y1817D01*
X10888Y1831D01*
X10868Y1848D01*
X10880Y2117D02*
X10882Y2135D01*
X10887Y2153D01*
X10896Y2169D01*
X10907Y2183D01*
X10921Y2194D01*
X10937Y2203D01*
X10955Y2208D01*
X10973Y2210D01*
X10995Y2209D01*
X11018Y2204D01*
X11039Y2197D01*
X11059Y2187D01*
X11078Y2175D01*
X10927Y2035D02*
X10913Y2045D01*
X10902Y2056D01*
X10893Y2070D01*
X10886Y2085D01*
X10881Y2101D01*
X10880Y2117D01*
X11055Y1965D02*
X11069Y1955D01*
X11080Y1944D01*
X11089Y1930D01*
X11096Y1915D01*
X11101Y1899D01*
X11102Y1883D01*
X11055Y1965D02*
X10927Y2035D01*
X11330Y2210D02*
X11330Y1790D01*
X11283Y1790D02*
X11377Y1790D01*
X11377Y2210D02*
X11283Y2210D01*
X9915Y2790D02*
X9915Y3210D01*
X10148Y2790D01*
X10148Y3210D01*
X10505Y2790D02*
X10523Y2792D01*
X10541Y2797D01*
X10557Y2806D01*
X10571Y2817D01*
X10582Y2831D01*
X10591Y2847D01*
X10596Y2865D01*
X10598Y2883D01*
X10505Y2790D02*
X10479Y2792D01*
X10454Y2797D01*
X10429Y2805D01*
X10406Y2817D01*
X10385Y2831D01*
X10365Y2848D01*
X10377Y3117D02*
X10379Y3135D01*
X10384Y3153D01*
X10393Y3169D01*
X10404Y3183D01*
X10418Y3194D01*
X10434Y3203D01*
X10452Y3208D01*
X10470Y3210D01*
X10492Y3209D01*
X10515Y3204D01*
X10536Y3197D01*
X10556Y3187D01*
X10575Y3175D01*
X10423Y3035D02*
X10409Y3045D01*
X10398Y3056D01*
X10389Y3070D01*
X10382Y3085D01*
X10377Y3101D01*
X10376Y3117D01*
X10552Y2965D02*
X10566Y2955D01*
X10577Y2944D01*
X10586Y2930D01*
X10593Y2915D01*
X10598Y2899D01*
X10599Y2883D01*
X10552Y2965D02*
X10423Y3035D01*
X10925Y2790D02*
X10943Y2792D01*
X10961Y2797D01*
X10977Y2806D01*
X10991Y2817D01*
X11002Y2831D01*
X11011Y2847D01*
X11016Y2865D01*
X11018Y2883D01*
X10925Y2790D02*
X10899Y2792D01*
X10874Y2797D01*
X10849Y2805D01*
X10826Y2817D01*
X10805Y2831D01*
X10785Y2848D01*
X10797Y3117D02*
X10799Y3135D01*
X10804Y3153D01*
X10813Y3169D01*
X10824Y3183D01*
X10838Y3194D01*
X10854Y3203D01*
X10872Y3208D01*
X10890Y3210D01*
X10912Y3209D01*
X10935Y3204D01*
X10956Y3197D01*
X10976Y3187D01*
X10995Y3175D01*
X10843Y3035D02*
X10829Y3045D01*
X10818Y3056D01*
X10809Y3070D01*
X10802Y3085D01*
X10797Y3101D01*
X10796Y3117D01*
X10972Y2965D02*
X10986Y2955D01*
X10997Y2944D01*
X11006Y2930D01*
X11013Y2915D01*
X11018Y2899D01*
X11019Y2883D01*
X10972Y2965D02*
X10843Y3035D01*
X10148Y4023D02*
X10078Y4023D01*
X10148Y4023D02*
X10148Y3790D01*
X10008Y3790D01*
X9990Y3792D01*
X9972Y3797D01*
X9956Y3806D01*
X9942Y3817D01*
X9931Y3831D01*
X9922Y3847D01*
X9917Y3865D01*
X9915Y3883D01*
X9915Y4117D01*
X9917Y4135D01*
X9922Y4153D01*
X9931Y4169D01*
X9942Y4183D01*
X9956Y4194D01*
X9972Y4203D01*
X9990Y4208D01*
X10008Y4210D01*
X10148Y4210D01*
X10405Y4210D02*
X10405Y3790D01*
X10405Y4210D02*
X10522Y4210D01*
X10542Y4208D01*
X10562Y4203D01*
X10581Y4194D01*
X10597Y4183D01*
X10612Y4168D01*
X10623Y4152D01*
X10632Y4133D01*
X10637Y4113D01*
X10639Y4093D01*
X10637Y4073D01*
X10632Y4053D01*
X10623Y4035D01*
X10612Y4018D01*
X10597Y4003D01*
X10581Y3992D01*
X10562Y3983D01*
X10542Y3978D01*
X10522Y3976D01*
X10522Y3977D02*
X10405Y3977D01*
X10958Y4210D02*
X10976Y4208D01*
X10994Y4204D01*
X11011Y4196D01*
X11025Y4185D01*
X11038Y4172D01*
X11049Y4158D01*
X11057Y4141D01*
X11061Y4123D01*
X11063Y4105D01*
X10958Y4210D02*
X10937Y4208D01*
X10916Y4203D01*
X10897Y4195D01*
X10879Y4184D01*
X10862Y4170D01*
X10849Y4154D01*
X10838Y4136D01*
X10830Y4117D01*
X11029Y4023D02*
X11041Y4037D01*
X11051Y4052D01*
X11058Y4069D01*
X11063Y4087D01*
X11064Y4105D01*
X11028Y4023D02*
X10830Y3790D01*
X11063Y3790D01*
X10148Y5023D02*
X10078Y5023D01*
X10148Y5023D02*
X10148Y4790D01*
X10008Y4790D01*
X9990Y4792D01*
X9972Y4797D01*
X9956Y4806D01*
X9942Y4817D01*
X9931Y4831D01*
X9922Y4847D01*
X9917Y4865D01*
X9915Y4883D01*
X9915Y5117D01*
X9917Y5135D01*
X9922Y5153D01*
X9931Y5169D01*
X9942Y5183D01*
X9956Y5194D01*
X9972Y5203D01*
X9990Y5208D01*
X10008Y5210D01*
X10148Y5210D01*
X10405Y5210D02*
X10405Y4790D01*
X10405Y5210D02*
X10522Y5210D01*
X10542Y5208D01*
X10562Y5203D01*
X10581Y5194D01*
X10597Y5183D01*
X10612Y5168D01*
X10623Y5152D01*
X10632Y5133D01*
X10637Y5113D01*
X10639Y5093D01*
X10637Y5073D01*
X10632Y5053D01*
X10623Y5035D01*
X10612Y5018D01*
X10597Y5003D01*
X10581Y4992D01*
X10562Y4983D01*
X10542Y4978D01*
X10522Y4976D01*
X10522Y4977D02*
X10405Y4977D01*
X10830Y4790D02*
X10947Y4790D01*
X10967Y4792D01*
X10987Y4797D01*
X11006Y4806D01*
X11022Y4817D01*
X11037Y4832D01*
X11048Y4849D01*
X11057Y4867D01*
X11062Y4887D01*
X11064Y4907D01*
X11062Y4927D01*
X11057Y4947D01*
X11048Y4966D01*
X11037Y4982D01*
X11022Y4997D01*
X11006Y5008D01*
X10987Y5017D01*
X10967Y5022D01*
X10947Y5024D01*
X10970Y5210D02*
X10830Y5210D01*
X10970Y5210D02*
X10988Y5208D01*
X11006Y5203D01*
X11022Y5194D01*
X11036Y5183D01*
X11047Y5169D01*
X11056Y5153D01*
X11061Y5135D01*
X11063Y5117D01*
X11061Y5099D01*
X11056Y5081D01*
X11047Y5065D01*
X11036Y5051D01*
X11022Y5040D01*
X11006Y5031D01*
X10988Y5026D01*
X10970Y5024D01*
X10970Y5023D02*
X10877Y5023D01*
X9915Y5790D02*
X9915Y6210D01*
X10032Y6210D01*
X10052Y6208D01*
X10072Y6203D01*
X10091Y6194D01*
X10107Y6183D01*
X10122Y6168D01*
X10133Y6152D01*
X10142Y6133D01*
X10147Y6113D01*
X10149Y6093D01*
X10147Y6073D01*
X10142Y6053D01*
X10133Y6035D01*
X10122Y6018D01*
X10107Y6003D01*
X10091Y5992D01*
X10072Y5983D01*
X10052Y5978D01*
X10032Y5976D01*
X10032Y5977D02*
X9915Y5977D01*
X10055Y5977D02*
X10148Y5790D01*
X10486Y5790D02*
X10504Y5792D01*
X10522Y5797D01*
X10538Y5806D01*
X10552Y5817D01*
X10563Y5831D01*
X10572Y5847D01*
X10577Y5865D01*
X10579Y5883D01*
X10486Y5790D02*
X10460Y5792D01*
X10435Y5797D01*
X10410Y5805D01*
X10387Y5817D01*
X10366Y5831D01*
X10346Y5848D01*
X10358Y6117D02*
X10360Y6135D01*
X10365Y6153D01*
X10374Y6169D01*
X10385Y6183D01*
X10399Y6194D01*
X10415Y6203D01*
X10433Y6208D01*
X10451Y6210D01*
X10473Y6209D01*
X10496Y6204D01*
X10517Y6197D01*
X10537Y6187D01*
X10556Y6175D01*
X10404Y6035D02*
X10390Y6045D01*
X10379Y6056D01*
X10370Y6070D01*
X10363Y6085D01*
X10358Y6101D01*
X10357Y6117D01*
X10532Y5965D02*
X10546Y5955D01*
X10557Y5944D01*
X10566Y5930D01*
X10573Y5915D01*
X10578Y5899D01*
X10579Y5883D01*
X10532Y5965D02*
X10404Y6035D01*
X10867Y6210D02*
X10867Y5790D01*
X10751Y6210D02*
X10984Y6210D01*
X10148Y10023D02*
X10078Y10023D01*
X10148Y10023D02*
X10148Y9790D01*
X10008Y9790D01*
X9990Y9792D01*
X9972Y9797D01*
X9956Y9806D01*
X9942Y9817D01*
X9931Y9831D01*
X9922Y9847D01*
X9917Y9865D01*
X9915Y9883D01*
X9915Y10117D01*
X9917Y10135D01*
X9922Y10153D01*
X9931Y10169D01*
X9942Y10183D01*
X9956Y10194D01*
X9972Y10203D01*
X9990Y10208D01*
X10008Y10210D01*
X10148Y10210D01*
X10395Y10210D02*
X10395Y9790D01*
X10628Y9790D02*
X10395Y10210D01*
X10628Y10210D02*
X10628Y9790D01*
X10875Y9790D02*
X10875Y10210D01*
X10992Y10210D01*
X11012Y10208D01*
X11032Y10203D01*
X11051Y10194D01*
X11067Y10183D01*
X11082Y10168D01*
X11093Y10152D01*
X11102Y10133D01*
X11107Y10113D01*
X11109Y10093D01*
X11108Y10093D02*
X11108Y9907D01*
X11109Y9907D02*
X11107Y9887D01*
X11102Y9867D01*
X11093Y9849D01*
X11082Y9832D01*
X11067Y9817D01*
X11051Y9806D01*
X11032Y9797D01*
X11012Y9792D01*
X10992Y9790D01*
X10875Y9790D01*
X10148Y9023D02*
X10078Y9023D01*
X10148Y9023D02*
X10148Y8790D01*
X10008Y8790D01*
X9990Y8792D01*
X9972Y8797D01*
X9956Y8806D01*
X9942Y8817D01*
X9931Y8831D01*
X9922Y8847D01*
X9917Y8865D01*
X9915Y8883D01*
X9915Y9117D01*
X9917Y9135D01*
X9922Y9153D01*
X9931Y9169D01*
X9942Y9183D01*
X9956Y9194D01*
X9972Y9203D01*
X9990Y9208D01*
X10008Y9210D01*
X10148Y9210D01*
X10395Y9210D02*
X10395Y8790D01*
X10628Y8790D02*
X10395Y9210D01*
X10628Y9210D02*
X10628Y8790D01*
X10875Y8790D02*
X10875Y9210D01*
X10992Y9210D01*
X11012Y9208D01*
X11032Y9203D01*
X11051Y9194D01*
X11067Y9183D01*
X11082Y9168D01*
X11093Y9152D01*
X11102Y9133D01*
X11107Y9113D01*
X11109Y9093D01*
X11108Y9093D02*
X11108Y8907D01*
X11109Y8907D02*
X11107Y8887D01*
X11102Y8867D01*
X11093Y8849D01*
X11082Y8832D01*
X11067Y8817D01*
X11051Y8806D01*
X11032Y8797D01*
X11012Y8792D01*
X10992Y8790D01*
X10875Y8790D01*
X10148Y8023D02*
X10078Y8023D01*
X10148Y8023D02*
X10148Y7790D01*
X10008Y7790D01*
X9990Y7792D01*
X9972Y7797D01*
X9956Y7806D01*
X9942Y7817D01*
X9931Y7831D01*
X9922Y7847D01*
X9917Y7865D01*
X9915Y7883D01*
X9915Y8117D01*
X9917Y8135D01*
X9922Y8153D01*
X9931Y8169D01*
X9942Y8183D01*
X9956Y8194D01*
X9972Y8203D01*
X9990Y8208D01*
X10008Y8210D01*
X10148Y8210D01*
X10405Y8210D02*
X10405Y7790D01*
X10405Y8210D02*
X10522Y8210D01*
X10542Y8208D01*
X10562Y8203D01*
X10581Y8194D01*
X10597Y8183D01*
X10612Y8168D01*
X10623Y8152D01*
X10632Y8133D01*
X10637Y8113D01*
X10639Y8093D01*
X10637Y8073D01*
X10632Y8053D01*
X10623Y8035D01*
X10612Y8018D01*
X10597Y8003D01*
X10581Y7992D01*
X10562Y7983D01*
X10542Y7978D01*
X10522Y7976D01*
X10522Y7977D02*
X10405Y7977D01*
X10830Y8023D02*
X10970Y8023D01*
X10988Y8021D01*
X11006Y8016D01*
X11022Y8007D01*
X11036Y7996D01*
X11047Y7982D01*
X11056Y7966D01*
X11061Y7948D01*
X11063Y7930D01*
X11063Y7907D01*
X11064Y7907D02*
X11062Y7887D01*
X11057Y7867D01*
X11048Y7849D01*
X11037Y7832D01*
X11022Y7817D01*
X11006Y7806D01*
X10987Y7797D01*
X10967Y7792D01*
X10947Y7790D01*
X10927Y7792D01*
X10907Y7797D01*
X10889Y7806D01*
X10872Y7817D01*
X10857Y7832D01*
X10846Y7849D01*
X10837Y7867D01*
X10832Y7887D01*
X10830Y7907D01*
X10830Y8023D01*
X10832Y8050D01*
X10838Y8076D01*
X10847Y8101D01*
X10860Y8124D01*
X10876Y8145D01*
X10895Y8164D01*
X10916Y8180D01*
X10939Y8193D01*
X10964Y8202D01*
X10990Y8208D01*
X11017Y8210D01*
X10148Y7023D02*
X10078Y7023D01*
X10148Y7023D02*
X10148Y6790D01*
X10008Y6790D01*
X9990Y6792D01*
X9972Y6797D01*
X9956Y6806D01*
X9942Y6817D01*
X9931Y6831D01*
X9922Y6847D01*
X9917Y6865D01*
X9915Y6883D01*
X9915Y7117D01*
X9917Y7135D01*
X9922Y7153D01*
X9931Y7169D01*
X9942Y7183D01*
X9956Y7194D01*
X9972Y7203D01*
X9990Y7208D01*
X10008Y7210D01*
X10148Y7210D01*
X10405Y7210D02*
X10405Y6790D01*
X10405Y7210D02*
X10522Y7210D01*
X10542Y7208D01*
X10562Y7203D01*
X10581Y7194D01*
X10597Y7183D01*
X10612Y7168D01*
X10623Y7152D01*
X10632Y7133D01*
X10637Y7113D01*
X10639Y7093D01*
X10637Y7073D01*
X10632Y7053D01*
X10623Y7035D01*
X10612Y7018D01*
X10597Y7003D01*
X10581Y6992D01*
X10562Y6983D01*
X10542Y6978D01*
X10522Y6976D01*
X10522Y6977D02*
X10405Y6977D01*
X10830Y6790D02*
X10970Y6790D01*
X10988Y6792D01*
X11006Y6797D01*
X11022Y6806D01*
X11036Y6817D01*
X11047Y6831D01*
X11056Y6847D01*
X11061Y6865D01*
X11063Y6883D01*
X11063Y6930D01*
X11061Y6948D01*
X11056Y6966D01*
X11047Y6982D01*
X11036Y6996D01*
X11022Y7007D01*
X11006Y7016D01*
X10988Y7021D01*
X10970Y7023D01*
X10830Y7023D01*
X10830Y7210D01*
X11063Y7210D01*
X5210Y2805D02*
X4790Y2665D01*
X4790Y2945D02*
X5210Y2805D01*
X5210Y3153D02*
X4790Y3153D01*
X4790Y3270D01*
X4792Y3290D01*
X4797Y3310D01*
X4806Y3329D01*
X4817Y3345D01*
X4832Y3360D01*
X4849Y3371D01*
X4867Y3380D01*
X4887Y3385D01*
X4907Y3387D01*
X5093Y3387D01*
X5113Y3385D01*
X5133Y3380D01*
X5152Y3371D01*
X5168Y3360D01*
X5183Y3345D01*
X5194Y3329D01*
X5203Y3310D01*
X5208Y3290D01*
X5210Y3270D01*
X5210Y3153D01*
X5210Y3633D02*
X4790Y3633D01*
X4790Y3750D01*
X4792Y3770D01*
X4797Y3790D01*
X4806Y3809D01*
X4817Y3825D01*
X4832Y3840D01*
X4849Y3851D01*
X4867Y3860D01*
X4887Y3865D01*
X4907Y3867D01*
X5093Y3867D01*
X5113Y3865D01*
X5133Y3860D01*
X5152Y3851D01*
X5168Y3840D01*
X5183Y3825D01*
X5194Y3809D01*
X5203Y3790D01*
X5208Y3770D01*
X5210Y3750D01*
X5210Y3633D01*
X6117Y2898D02*
X6135Y2896D01*
X6153Y2891D01*
X6169Y2882D01*
X6183Y2871D01*
X6194Y2857D01*
X6203Y2841D01*
X6208Y2823D01*
X6210Y2805D01*
X6208Y2779D01*
X6203Y2754D01*
X6195Y2729D01*
X6183Y2706D01*
X6169Y2685D01*
X6152Y2665D01*
X5883Y2677D02*
X5865Y2679D01*
X5847Y2684D01*
X5831Y2693D01*
X5817Y2704D01*
X5806Y2718D01*
X5797Y2734D01*
X5792Y2752D01*
X5790Y2770D01*
X5791Y2792D01*
X5796Y2815D01*
X5803Y2836D01*
X5813Y2856D01*
X5825Y2875D01*
X5965Y2723D02*
X5955Y2709D01*
X5944Y2698D01*
X5930Y2689D01*
X5915Y2682D01*
X5899Y2677D01*
X5883Y2676D01*
X6035Y2852D02*
X6045Y2866D01*
X6056Y2877D01*
X6070Y2886D01*
X6085Y2893D01*
X6101Y2898D01*
X6117Y2899D01*
X6035Y2852D02*
X5965Y2723D01*
X5790Y3090D02*
X6210Y3183D01*
X5930Y3277D01*
X6210Y3370D01*
X5790Y3463D01*
X6210Y3761D02*
X6210Y3855D01*
X6210Y3761D02*
X6208Y3743D01*
X6203Y3725D01*
X6194Y3709D01*
X6183Y3695D01*
X6169Y3684D01*
X6153Y3675D01*
X6135Y3670D01*
X6117Y3668D01*
X5883Y3668D01*
X5865Y3670D01*
X5847Y3675D01*
X5831Y3684D01*
X5817Y3695D01*
X5806Y3709D01*
X5797Y3725D01*
X5792Y3743D01*
X5790Y3761D01*
X5790Y3855D01*
X5790Y4061D02*
X6210Y4061D01*
X6210Y4248D01*
X6210Y4460D02*
X5790Y4460D01*
X5790Y4693D02*
X6047Y4460D01*
X5953Y4553D02*
X6210Y4693D01*
X6977Y2898D02*
X6977Y2828D01*
X6977Y2898D02*
X7210Y2898D01*
X7210Y2758D01*
X7208Y2740D01*
X7203Y2722D01*
X7194Y2706D01*
X7183Y2692D01*
X7169Y2681D01*
X7153Y2672D01*
X7135Y2667D01*
X7117Y2665D01*
X6883Y2665D01*
X6865Y2667D01*
X6847Y2672D01*
X6831Y2681D01*
X6817Y2692D01*
X6806Y2706D01*
X6797Y2722D01*
X6792Y2740D01*
X6790Y2758D01*
X6790Y2898D01*
X6790Y3145D02*
X7210Y3145D01*
X7210Y3378D02*
X6790Y3145D01*
X6790Y3378D02*
X7210Y3378D01*
X7210Y3625D02*
X6790Y3625D01*
X6790Y3742D01*
X6792Y3762D01*
X6797Y3782D01*
X6806Y3801D01*
X6817Y3817D01*
X6832Y3832D01*
X6849Y3843D01*
X6867Y3852D01*
X6887Y3857D01*
X6907Y3859D01*
X6907Y3858D02*
X7093Y3858D01*
X7093Y3859D02*
X7113Y3857D01*
X7133Y3852D01*
X7152Y3843D01*
X7168Y3832D01*
X7183Y3817D01*
X7194Y3801D01*
X7203Y3782D01*
X7208Y3762D01*
X7210Y3742D01*
X7210Y3625D01*
X8117Y2898D02*
X8135Y2896D01*
X8153Y2891D01*
X8169Y2882D01*
X8183Y2871D01*
X8194Y2857D01*
X8203Y2841D01*
X8208Y2823D01*
X8210Y2805D01*
X8208Y2779D01*
X8203Y2754D01*
X8195Y2729D01*
X8183Y2706D01*
X8169Y2685D01*
X8152Y2665D01*
X7883Y2677D02*
X7865Y2679D01*
X7847Y2684D01*
X7831Y2693D01*
X7817Y2704D01*
X7806Y2718D01*
X7797Y2734D01*
X7792Y2752D01*
X7790Y2770D01*
X7791Y2792D01*
X7796Y2815D01*
X7803Y2836D01*
X7813Y2856D01*
X7825Y2875D01*
X7965Y2723D02*
X7955Y2709D01*
X7944Y2698D01*
X7930Y2689D01*
X7915Y2682D01*
X7899Y2677D01*
X7883Y2676D01*
X8035Y2852D02*
X8045Y2866D01*
X8056Y2877D01*
X8070Y2886D01*
X8085Y2893D01*
X8101Y2898D01*
X8117Y2899D01*
X8035Y2852D02*
X7965Y2723D01*
X7790Y3090D02*
X8210Y3183D01*
X7930Y3277D01*
X8210Y3370D01*
X7790Y3463D01*
X7790Y3697D02*
X8210Y3697D01*
X8210Y3743D02*
X8210Y3650D01*
X7790Y3650D02*
X7790Y3743D01*
X7907Y3940D02*
X8093Y3940D01*
X7907Y3940D02*
X7887Y3942D01*
X7867Y3947D01*
X7849Y3956D01*
X7832Y3967D01*
X7817Y3982D01*
X7806Y3999D01*
X7797Y4017D01*
X7792Y4037D01*
X7790Y4057D01*
X7792Y4077D01*
X7797Y4097D01*
X7806Y4116D01*
X7817Y4132D01*
X7832Y4147D01*
X7849Y4158D01*
X7867Y4167D01*
X7887Y4172D01*
X7907Y4174D01*
X7907Y4173D02*
X8093Y4173D01*
X8093Y4174D02*
X8113Y4172D01*
X8133Y4167D01*
X8152Y4158D01*
X8168Y4147D01*
X8183Y4132D01*
X8194Y4116D01*
X8203Y4097D01*
X8208Y4077D01*
X8210Y4057D01*
X8208Y4037D01*
X8203Y4017D01*
X8194Y3999D01*
X8183Y3982D01*
X8168Y3967D01*
X8152Y3956D01*
X8133Y3947D01*
X8113Y3942D01*
X8093Y3940D01*
X8790Y2665D02*
X9210Y2665D01*
X8790Y2665D02*
X8790Y2782D01*
X8792Y2802D01*
X8797Y2822D01*
X8806Y2841D01*
X8817Y2857D01*
X8832Y2872D01*
X8849Y2883D01*
X8867Y2892D01*
X8887Y2897D01*
X8907Y2899D01*
X8927Y2897D01*
X8947Y2892D01*
X8966Y2883D01*
X8982Y2872D01*
X8997Y2857D01*
X9008Y2841D01*
X9017Y2822D01*
X9022Y2802D01*
X9024Y2782D01*
X9023Y2782D02*
X9023Y2665D01*
X9023Y2805D02*
X9210Y2898D01*
X9210Y3236D02*
X9208Y3254D01*
X9203Y3272D01*
X9194Y3288D01*
X9183Y3302D01*
X9169Y3313D01*
X9153Y3322D01*
X9135Y3327D01*
X9117Y3329D01*
X9210Y3236D02*
X9208Y3210D01*
X9203Y3185D01*
X9195Y3160D01*
X9183Y3137D01*
X9169Y3116D01*
X9152Y3096D01*
X8883Y3108D02*
X8865Y3110D01*
X8847Y3115D01*
X8831Y3124D01*
X8817Y3135D01*
X8806Y3149D01*
X8797Y3165D01*
X8792Y3183D01*
X8790Y3201D01*
X8791Y3223D01*
X8796Y3246D01*
X8803Y3267D01*
X8813Y3287D01*
X8825Y3306D01*
X8965Y3154D02*
X8955Y3140D01*
X8944Y3129D01*
X8930Y3120D01*
X8915Y3113D01*
X8899Y3108D01*
X8883Y3107D01*
X9035Y3282D02*
X9045Y3296D01*
X9056Y3307D01*
X9070Y3316D01*
X9085Y3323D01*
X9101Y3328D01*
X9117Y3329D01*
X9035Y3282D02*
X8965Y3154D01*
X8790Y3617D02*
X9210Y3617D01*
X8790Y3501D02*
X8790Y3734D01*
X2500Y3750D02*
X2500Y4250D01*
X2500Y3750D02*
X2250Y3500D01*
X1750Y3500D02*
X1500Y3750D01*
X2500Y5250D02*
X2250Y5500D01*
X2500Y5250D02*
X2500Y4750D01*
X2250Y4500D01*
X1750Y4500D02*
X1500Y4750D01*
X1500Y5250D01*
X1750Y5500D01*
X2250Y4500D02*
X2500Y4250D01*
X1750Y4500D02*
X1500Y4250D01*
X1500Y3750D01*
X2500Y6750D02*
X2500Y7250D01*
X2500Y6750D02*
X2250Y6500D01*
X1750Y6500D02*
X1500Y6750D01*
X2250Y6500D02*
X2500Y6250D01*
X2500Y5750D01*
X2250Y5500D01*
X1750Y5500D02*
X1500Y5750D01*
X1500Y6250D01*
X1750Y6500D01*
X2500Y8250D02*
X2250Y8500D01*
X2500Y8250D02*
X2500Y7750D01*
X2250Y7500D01*
X1750Y7500D02*
X1500Y7750D01*
X1500Y8250D01*
X1750Y8500D01*
X2250Y7500D02*
X2500Y7250D01*
X1750Y7500D02*
X1500Y7250D01*
X1500Y6750D01*
X2500Y9750D02*
X2500Y10250D01*
X2500Y9750D02*
X2250Y9500D01*
X1750Y9500D02*
X1500Y9750D01*
X2250Y9500D02*
X2500Y9250D01*
X2500Y8750D01*
X2250Y8500D01*
X1750Y8500D02*
X1500Y8750D01*
X1500Y9250D01*
X1750Y9500D01*
X1750Y10500D02*
X2250Y10500D01*
X2500Y10250D01*
X1750Y10500D02*
X1500Y10250D01*
X1500Y9750D01*
X2500Y3250D02*
X2500Y2750D01*
X2250Y2500D01*
X1750Y2500D02*
X1500Y2750D01*
X2250Y3500D02*
X2500Y3250D01*
X1750Y3500D02*
X1500Y3250D01*
X1500Y2750D01*
X2500Y2250D02*
X2500Y1750D01*
X2250Y1500D01*
X1750Y1500D02*
X1500Y1750D01*
X2250Y2500D02*
X2500Y2250D01*
X1750Y2500D02*
X1500Y2250D01*
X1500Y1750D01*
X1750Y1500D02*
X2250Y1500D01*
X12500Y3750D02*
X12500Y4250D01*
X12500Y3750D02*
X12250Y3500D01*
X11750Y3500D02*
X11500Y3750D01*
X12500Y5250D02*
X12250Y5500D01*
X12500Y5250D02*
X12500Y4750D01*
X12250Y4500D01*
X11750Y4500D02*
X11500Y4750D01*
X11500Y5250D01*
X11750Y5500D01*
X12250Y4500D02*
X12500Y4250D01*
X11750Y4500D02*
X11500Y4250D01*
X11500Y3750D01*
X12500Y6750D02*
X12500Y7250D01*
X12500Y6750D02*
X12250Y6500D01*
X11750Y6500D02*
X11500Y6750D01*
X12250Y6500D02*
X12500Y6250D01*
X12500Y5750D01*
X12250Y5500D01*
X11750Y5500D02*
X11500Y5750D01*
X11500Y6250D01*
X11750Y6500D01*
X12500Y8250D02*
X12250Y8500D01*
X12500Y8250D02*
X12500Y7750D01*
X12250Y7500D01*
X11750Y7500D02*
X11500Y7750D01*
X11500Y8250D01*
X11750Y8500D01*
X12250Y7500D02*
X12500Y7250D01*
X11750Y7500D02*
X11500Y7250D01*
X11500Y6750D01*
X12500Y9750D02*
X12500Y10250D01*
X12500Y9750D02*
X12250Y9500D01*
X11750Y9500D02*
X11500Y9750D01*
X12250Y9500D02*
X12500Y9250D01*
X12500Y8750D01*
X12250Y8500D01*
X11750Y8500D02*
X11500Y8750D01*
X11500Y9250D01*
X11750Y9500D01*
X11750Y10500D02*
X12250Y10500D01*
X12500Y10250D01*
X11750Y10500D02*
X11500Y10250D01*
X11500Y9750D01*
X12500Y3250D02*
X12500Y2750D01*
X12250Y2500D01*
X11750Y2500D02*
X11500Y2750D01*
X12250Y3500D02*
X12500Y3250D01*
X11750Y3500D02*
X11500Y3250D01*
X11500Y2750D01*
X12500Y2250D02*
X12500Y1750D01*
X12250Y1500D01*
X11750Y1500D02*
X11500Y1750D01*
X12250Y2500D02*
X12500Y2250D01*
X11750Y2500D02*
X11500Y2250D01*
X11500Y1750D01*
X11750Y1500D02*
X12250Y1500D01*
X8250Y2500D02*
X7750Y2500D01*
X8250Y2500D02*
X8500Y2250D01*
X8500Y1750D02*
X8250Y1500D01*
X8500Y2250D02*
X8750Y2500D01*
X9250Y2500D01*
X9500Y2250D01*
X9500Y1750D02*
X9250Y1500D01*
X8750Y1500D01*
X8500Y1750D01*
X6750Y2500D02*
X6500Y2250D01*
X6750Y2500D02*
X7250Y2500D01*
X7500Y2250D01*
X7500Y1750D02*
X7250Y1500D01*
X6750Y1500D01*
X6500Y1750D01*
X7500Y2250D02*
X7750Y2500D01*
X7500Y1750D02*
X7750Y1500D01*
X8250Y1500D01*
X5250Y2500D02*
X4750Y2500D01*
X5250Y2500D02*
X5500Y2250D01*
X5500Y1750D02*
X5250Y1500D01*
X5500Y2250D02*
X5750Y2500D01*
X6250Y2500D01*
X6500Y2250D01*
X6500Y1750D02*
X6250Y1500D01*
X5750Y1500D01*
X5500Y1750D01*
X4500Y1750D02*
X4500Y2250D01*
X4750Y2500D01*
X4500Y1750D02*
X4750Y1500D01*
X5250Y1500D01*
X9500Y1750D02*
X9500Y2250D01*
D13*
X6381Y869D02*
X6379Y850D01*
X6375Y831D01*
X6367Y813D01*
X6357Y796D01*
X6345Y781D01*
X6330Y769D01*
X6313Y759D01*
X6295Y751D01*
X6276Y747D01*
X6257Y745D01*
X6227Y747D01*
X6198Y752D01*
X6170Y760D01*
X6142Y771D01*
X6116Y786D01*
X6092Y803D01*
X6070Y823D01*
X6086Y1181D02*
X6088Y1200D01*
X6092Y1219D01*
X6100Y1237D01*
X6110Y1254D01*
X6122Y1269D01*
X6137Y1281D01*
X6154Y1291D01*
X6172Y1299D01*
X6191Y1303D01*
X6210Y1305D01*
X6240Y1303D01*
X6269Y1297D01*
X6298Y1288D01*
X6325Y1275D01*
X6350Y1258D01*
X6148Y1072D02*
X6130Y1085D01*
X6115Y1101D01*
X6103Y1118D01*
X6093Y1138D01*
X6088Y1159D01*
X6086Y1181D01*
X6319Y978D02*
X6337Y965D01*
X6352Y949D01*
X6364Y932D01*
X6374Y912D01*
X6379Y891D01*
X6381Y869D01*
X6319Y978D02*
X6148Y1072D01*
X6654Y1305D02*
X6778Y745D01*
X6902Y1118D01*
X7027Y745D01*
X7151Y1305D01*
X7465Y1305D02*
X7465Y745D01*
X7465Y1305D02*
X7620Y1305D01*
X7642Y1303D01*
X7664Y1299D01*
X7685Y1291D01*
X7704Y1280D01*
X7722Y1267D01*
X7738Y1251D01*
X7751Y1233D01*
X7762Y1214D01*
X7770Y1193D01*
X7774Y1171D01*
X7776Y1149D01*
X7776Y901D01*
X7774Y879D01*
X7770Y857D01*
X7762Y836D01*
X7751Y817D01*
X7738Y799D01*
X7722Y783D01*
X7704Y770D01*
X7685Y759D01*
X7664Y751D01*
X7642Y747D01*
X7620Y745D01*
X7465Y745D01*
D14*
X6567Y6084D02*
X6567Y7895D01*
X7433Y7895D01*
X7433Y6084D01*
X6567Y6084D01*
M02*
