G04 EAGLE Gerber X2 export*
G75*
%MOIN*%
%FSLAX24Y24*%
%LPD*%
%AMOC8*
5,1,8,0,0,1.08239X$1,22.5*%
G01*
%ADD10C,0.020000*%
%ADD11C,0.005000*%


D10*
X7000Y11700D02*
X7200Y11700D01*
X7315Y11698D01*
X7430Y11692D01*
X7545Y11683D01*
X7659Y11669D01*
X7773Y11652D01*
X7887Y11631D01*
X7999Y11606D01*
X8111Y11577D01*
X8221Y11544D01*
X8331Y11508D01*
X8439Y11468D01*
X8545Y11425D01*
X8651Y11378D01*
X8754Y11327D01*
X8856Y11273D01*
X8956Y11216D01*
X9054Y11155D01*
X9150Y11092D01*
X9243Y11024D01*
X9335Y10954D01*
X9424Y10881D01*
X9510Y10805D01*
X9594Y10726D01*
X9675Y10644D01*
X9753Y10559D01*
X9829Y10472D01*
X9901Y10383D01*
X9971Y10291D01*
X10037Y10196D01*
X10100Y10100D01*
X10151Y10016D01*
X10198Y9930D01*
X10243Y9842D01*
X10284Y9752D01*
X10321Y9661D01*
X10356Y9569D01*
X10386Y9476D01*
X10413Y9381D01*
X10437Y9285D01*
X10456Y9189D01*
X10472Y9092D01*
X10485Y8994D01*
X10494Y8896D01*
X10499Y8798D01*
X10500Y8700D01*
X10500Y7300D01*
X10499Y7196D01*
X10494Y7093D01*
X10485Y6990D01*
X10473Y6887D01*
X10457Y6785D01*
X10437Y6684D01*
X10414Y6583D01*
X10387Y6483D01*
X10356Y6384D01*
X10322Y6286D01*
X10285Y6190D01*
X10244Y6095D01*
X10199Y6001D01*
X10152Y5910D01*
X10101Y5820D01*
X10047Y5731D01*
X9990Y5645D01*
X9929Y5561D01*
X9866Y5479D01*
X9800Y5400D01*
X9725Y5315D01*
X9647Y5233D01*
X9567Y5153D01*
X9485Y5075D01*
X9400Y5000D01*
X8800Y4400D02*
X8700Y4300D01*
X8649Y4252D01*
X8596Y4206D01*
X8541Y4163D01*
X8484Y4123D01*
X8424Y4086D01*
X8363Y4051D01*
X8301Y4020D01*
X8237Y3992D01*
X8171Y3967D01*
X8105Y3945D01*
X8037Y3927D01*
X7969Y3912D01*
X7900Y3900D01*
X5300Y4300D02*
X5200Y4400D01*
X5300Y4300D02*
X5351Y4252D01*
X5404Y4206D01*
X5459Y4163D01*
X5516Y4123D01*
X5576Y4086D01*
X5637Y4051D01*
X5699Y4020D01*
X5763Y3992D01*
X5829Y3967D01*
X5895Y3945D01*
X5963Y3927D01*
X6031Y3912D01*
X6100Y3900D01*
X4700Y11100D02*
X4818Y11164D01*
X4937Y11224D01*
X5057Y11281D01*
X5180Y11334D01*
X5304Y11384D01*
X5429Y11430D01*
X5555Y11473D01*
X5683Y11512D01*
X5812Y11548D01*
X5941Y11579D01*
X6072Y11608D01*
X6203Y11632D01*
X6335Y11653D01*
X6467Y11670D01*
X6600Y11683D01*
X6733Y11692D01*
X6867Y11698D01*
X7000Y11700D01*
X4700Y11100D02*
X4621Y11054D01*
X4544Y11004D01*
X4469Y10952D01*
X4397Y10896D01*
X4327Y10837D01*
X4259Y10776D01*
X4194Y10711D01*
X4132Y10644D01*
X4073Y10575D01*
X4017Y10503D01*
X3963Y10429D01*
X3913Y10352D01*
X3866Y10274D01*
X3822Y10193D01*
X3782Y10111D01*
X3745Y10028D01*
X3712Y9943D01*
X3682Y9856D01*
X3656Y9769D01*
X3634Y9680D01*
X3615Y9590D01*
X3600Y9500D01*
X3563Y9224D01*
X3533Y8947D01*
X3509Y8670D01*
X3491Y8392D01*
X3480Y8114D01*
X3475Y7835D01*
X3477Y7557D01*
X3485Y7278D01*
X3500Y7000D01*
X3509Y6896D01*
X3521Y6792D01*
X3537Y6689D01*
X3557Y6586D01*
X3580Y6485D01*
X3608Y6384D01*
X3638Y6284D01*
X3673Y6185D01*
X3711Y6088D01*
X3753Y5992D01*
X3798Y5898D01*
X3846Y5806D01*
X3898Y5715D01*
X3953Y5626D01*
X4011Y5540D01*
X4072Y5455D01*
X4136Y5373D01*
X4203Y5293D01*
X4274Y5216D01*
X4346Y5141D01*
X4422Y5069D01*
X4500Y4999D01*
X3700Y10200D02*
X3200Y10100D01*
X3109Y10080D01*
X3018Y10056D01*
X2928Y10028D01*
X2839Y9997D01*
X2752Y9962D01*
X2666Y9923D01*
X2582Y9882D01*
X2500Y9836D01*
X2419Y9788D01*
X2341Y9736D01*
X2264Y9681D01*
X2190Y9623D01*
X2119Y9563D01*
X2049Y9499D01*
X1983Y9432D01*
X1919Y9363D01*
X1858Y9292D01*
X1800Y9218D01*
X1746Y9141D01*
X1694Y9063D01*
X1645Y8982D01*
X1600Y8900D01*
X1575Y8800D01*
X1555Y8699D01*
X1538Y8597D01*
X1525Y8495D01*
X1516Y8392D01*
X1511Y8289D01*
X1510Y8186D01*
X1513Y8083D01*
X1519Y7981D01*
X1530Y7878D01*
X1544Y7776D01*
X1563Y7675D01*
X1585Y7574D01*
X1611Y7474D01*
X1640Y7376D01*
X1674Y7278D01*
X1711Y7182D01*
X1752Y7087D01*
X1796Y6994D01*
X1844Y6903D01*
X1895Y6813D01*
X1949Y6726D01*
X2007Y6641D01*
X2068Y6558D01*
X2132Y6477D01*
X2199Y6399D01*
X2269Y6323D01*
X2342Y6250D01*
X2418Y6180D01*
X2496Y6113D01*
X2577Y6049D01*
X2660Y5988D01*
X2745Y5930D01*
X2832Y5876D01*
X2922Y5825D01*
X3013Y5777D01*
X3106Y5733D01*
X3201Y5692D01*
X3297Y5655D01*
X3395Y5621D01*
X3493Y5592D01*
X3593Y5566D01*
X3694Y5544D01*
X3795Y5525D01*
X3897Y5511D01*
X4000Y5500D01*
X10100Y10100D02*
X10700Y10000D01*
X10794Y9982D01*
X10888Y9961D01*
X10980Y9937D01*
X11072Y9908D01*
X11162Y9876D01*
X11251Y9841D01*
X11339Y9803D01*
X11425Y9761D01*
X11510Y9715D01*
X11593Y9667D01*
X11673Y9616D01*
X11752Y9561D01*
X11829Y9503D01*
X11903Y9443D01*
X11975Y9379D01*
X12045Y9313D01*
X12112Y9245D01*
X12176Y9174D01*
X12237Y9100D01*
X12296Y9024D01*
X12351Y8946D01*
X12404Y8866D01*
X12454Y8784D01*
X12500Y8700D01*
X12499Y8700D02*
X12519Y8598D01*
X12534Y8495D01*
X12546Y8392D01*
X12553Y8288D01*
X12557Y8184D01*
X12556Y8080D01*
X12552Y7976D01*
X12544Y7872D01*
X12532Y7769D01*
X12516Y7666D01*
X12496Y7564D01*
X12472Y7463D01*
X12444Y7362D01*
X12413Y7263D01*
X12378Y7165D01*
X12339Y7069D01*
X12296Y6974D01*
X12250Y6881D01*
X12201Y6789D01*
X12148Y6700D01*
X12091Y6612D01*
X12032Y6527D01*
X11969Y6444D01*
X11903Y6364D01*
X11834Y6286D01*
X11762Y6210D01*
X11688Y6138D01*
X11610Y6068D01*
X11530Y6002D01*
X11448Y5938D01*
X11363Y5878D01*
X11276Y5821D01*
X11187Y5767D01*
X11096Y5717D01*
X11003Y5670D01*
X10909Y5627D01*
X10812Y5587D01*
X10715Y5551D01*
X10616Y5519D01*
X10516Y5490D01*
X10415Y5465D01*
X10313Y5445D01*
X10210Y5428D01*
X10107Y5415D01*
X10003Y5405D01*
X9900Y5400D01*
X5300Y5900D02*
X5200Y5900D01*
X5300Y5900D02*
X5342Y5879D01*
X5381Y5855D01*
X5419Y5828D01*
X5454Y5797D01*
X5487Y5764D01*
X5516Y5728D01*
X5543Y5690D01*
X5566Y5650D01*
X5586Y5608D01*
X5603Y5565D01*
X5616Y5520D01*
X5625Y5475D01*
X5630Y5428D01*
X5632Y5382D01*
X5630Y5336D01*
X5624Y5289D01*
X5614Y5244D01*
X5600Y5200D01*
X5200Y5900D02*
X5153Y5898D01*
X5106Y5893D01*
X5060Y5884D01*
X5015Y5871D01*
X4970Y5855D01*
X4927Y5836D01*
X4886Y5813D01*
X4847Y5787D01*
X4809Y5759D01*
X4775Y5727D01*
X4742Y5693D01*
X4712Y5656D01*
X4686Y5618D01*
X4662Y5577D01*
X4641Y5535D01*
X4624Y5491D01*
X4610Y5446D01*
X4600Y5400D01*
X4584Y5300D01*
X4571Y5200D01*
X4561Y5099D01*
X4556Y4998D01*
X4554Y4896D01*
X4556Y4795D01*
X4561Y4694D01*
X4570Y4593D01*
X4583Y4492D01*
X4599Y4392D01*
X4619Y4293D01*
X4643Y4195D01*
X4670Y4097D01*
X4700Y4000D01*
X4771Y4040D01*
X4840Y4083D01*
X4907Y4129D01*
X4972Y4179D01*
X5034Y4231D01*
X5094Y4286D01*
X5152Y4344D01*
X5206Y4405D01*
X5258Y4468D01*
X5307Y4533D01*
X5353Y4600D01*
X5396Y4670D01*
X5435Y4741D01*
X5471Y4814D01*
X5504Y4889D01*
X5533Y4965D01*
X5559Y5042D01*
X5581Y5121D01*
X5600Y5200D01*
X8500Y5800D02*
X8600Y5900D01*
X8499Y5801D02*
X8467Y5765D01*
X8436Y5728D01*
X8409Y5688D01*
X8385Y5646D01*
X8364Y5603D01*
X8346Y5558D01*
X8331Y5512D01*
X8320Y5465D01*
X8312Y5417D01*
X8308Y5369D01*
X8307Y5321D01*
X8310Y5273D01*
X8316Y5225D01*
X8326Y5178D01*
X8340Y5132D01*
X8356Y5086D01*
X8376Y5042D01*
X8399Y5000D01*
X8400Y5000D02*
X8467Y4890D01*
X8538Y4783D01*
X8611Y4677D01*
X8687Y4574D01*
X8766Y4472D01*
X8847Y4373D01*
X8932Y4276D01*
X9019Y4182D01*
X9108Y4090D01*
X9200Y4000D01*
X9200Y5700D02*
X9184Y5736D01*
X9164Y5771D01*
X9140Y5804D01*
X9114Y5834D01*
X9085Y5861D01*
X9053Y5886D01*
X9020Y5907D01*
X8984Y5925D01*
X8947Y5940D01*
X8908Y5951D01*
X8869Y5958D01*
X8829Y5961D01*
X8789Y5960D01*
X8749Y5956D01*
X8710Y5947D01*
X8672Y5935D01*
X8635Y5919D01*
X8600Y5900D01*
X9200Y5700D02*
X9229Y5603D01*
X9254Y5504D01*
X9276Y5405D01*
X9294Y5305D01*
X9309Y5205D01*
X9320Y5104D01*
X9327Y5002D01*
X9331Y4901D01*
X9331Y4799D01*
X9327Y4698D01*
X9320Y4596D01*
X9309Y4495D01*
X9294Y4395D01*
X9276Y4295D01*
X9254Y4196D01*
X9229Y4097D01*
X9200Y4000D01*
X4938Y8600D02*
X4940Y8662D01*
X4946Y8723D01*
X4956Y8784D01*
X4969Y8844D01*
X4987Y8903D01*
X5008Y8961D01*
X5033Y9017D01*
X5062Y9072D01*
X5094Y9125D01*
X5129Y9175D01*
X5167Y9224D01*
X5209Y9269D01*
X5253Y9312D01*
X5300Y9352D01*
X5350Y9389D01*
X5401Y9423D01*
X5455Y9453D01*
X5511Y9480D01*
X5568Y9503D01*
X5626Y9522D01*
X5686Y9538D01*
X5746Y9550D01*
X5808Y9558D01*
X5869Y9562D01*
X5931Y9562D01*
X5992Y9558D01*
X6054Y9550D01*
X6114Y9538D01*
X6174Y9522D01*
X6232Y9503D01*
X6289Y9480D01*
X6345Y9453D01*
X6399Y9423D01*
X6450Y9389D01*
X6500Y9352D01*
X6547Y9312D01*
X6591Y9269D01*
X6633Y9224D01*
X6671Y9175D01*
X6706Y9125D01*
X6738Y9072D01*
X6767Y9017D01*
X6792Y8961D01*
X6813Y8903D01*
X6831Y8844D01*
X6844Y8784D01*
X6854Y8723D01*
X6860Y8662D01*
X6862Y8600D01*
X6860Y8538D01*
X6854Y8477D01*
X6844Y8416D01*
X6831Y8356D01*
X6813Y8297D01*
X6792Y8239D01*
X6767Y8183D01*
X6738Y8128D01*
X6706Y8075D01*
X6671Y8025D01*
X6633Y7976D01*
X6591Y7931D01*
X6547Y7888D01*
X6500Y7848D01*
X6450Y7811D01*
X6399Y7777D01*
X6345Y7747D01*
X6289Y7720D01*
X6232Y7697D01*
X6174Y7678D01*
X6114Y7662D01*
X6054Y7650D01*
X5992Y7642D01*
X5931Y7638D01*
X5869Y7638D01*
X5808Y7642D01*
X5746Y7650D01*
X5686Y7662D01*
X5626Y7678D01*
X5568Y7697D01*
X5511Y7720D01*
X5455Y7747D01*
X5401Y7777D01*
X5350Y7811D01*
X5300Y7848D01*
X5253Y7888D01*
X5209Y7931D01*
X5167Y7976D01*
X5129Y8025D01*
X5094Y8075D01*
X5062Y8128D01*
X5033Y8183D01*
X5008Y8239D01*
X4987Y8297D01*
X4969Y8356D01*
X4956Y8416D01*
X4946Y8477D01*
X4940Y8538D01*
X4938Y8600D01*
X7228Y8650D02*
X7230Y8710D01*
X7236Y8770D01*
X7246Y8830D01*
X7259Y8889D01*
X7277Y8946D01*
X7298Y9003D01*
X7323Y9058D01*
X7352Y9111D01*
X7383Y9162D01*
X7419Y9211D01*
X7457Y9258D01*
X7498Y9302D01*
X7542Y9343D01*
X7589Y9381D01*
X7638Y9417D01*
X7689Y9448D01*
X7742Y9477D01*
X7797Y9502D01*
X7854Y9523D01*
X7911Y9541D01*
X7970Y9554D01*
X8030Y9564D01*
X8090Y9570D01*
X8150Y9572D01*
X8210Y9570D01*
X8270Y9564D01*
X8330Y9554D01*
X8389Y9541D01*
X8446Y9523D01*
X8503Y9502D01*
X8558Y9477D01*
X8611Y9448D01*
X8662Y9417D01*
X8711Y9381D01*
X8758Y9343D01*
X8802Y9302D01*
X8843Y9258D01*
X8881Y9211D01*
X8917Y9162D01*
X8948Y9111D01*
X8977Y9058D01*
X9002Y9003D01*
X9023Y8946D01*
X9041Y8889D01*
X9054Y8830D01*
X9064Y8770D01*
X9070Y8710D01*
X9072Y8650D01*
X9070Y8590D01*
X9064Y8530D01*
X9054Y8470D01*
X9041Y8411D01*
X9023Y8354D01*
X9002Y8297D01*
X8977Y8242D01*
X8948Y8189D01*
X8917Y8138D01*
X8881Y8089D01*
X8843Y8042D01*
X8802Y7998D01*
X8758Y7957D01*
X8711Y7919D01*
X8662Y7883D01*
X8611Y7852D01*
X8558Y7823D01*
X8503Y7798D01*
X8446Y7777D01*
X8389Y7759D01*
X8330Y7746D01*
X8270Y7736D01*
X8210Y7730D01*
X8150Y7728D01*
X8090Y7730D01*
X8030Y7736D01*
X7970Y7746D01*
X7911Y7759D01*
X7854Y7777D01*
X7797Y7798D01*
X7742Y7823D01*
X7689Y7852D01*
X7638Y7883D01*
X7589Y7919D01*
X7542Y7957D01*
X7498Y7998D01*
X7457Y8042D01*
X7419Y8089D01*
X7383Y8138D01*
X7352Y8189D01*
X7323Y8242D01*
X7298Y8297D01*
X7277Y8354D01*
X7259Y8411D01*
X7246Y8470D01*
X7236Y8530D01*
X7230Y8590D01*
X7228Y8650D01*
X7600Y8350D02*
X7602Y8381D01*
X7608Y8412D01*
X7618Y8442D01*
X7631Y8470D01*
X7648Y8497D01*
X7668Y8521D01*
X7691Y8543D01*
X7716Y8561D01*
X7744Y8576D01*
X7773Y8588D01*
X7803Y8596D01*
X7834Y8600D01*
X7866Y8600D01*
X7897Y8596D01*
X7927Y8588D01*
X7956Y8576D01*
X7984Y8561D01*
X8009Y8543D01*
X8032Y8521D01*
X8052Y8497D01*
X8069Y8470D01*
X8082Y8442D01*
X8092Y8412D01*
X8098Y8381D01*
X8100Y8350D01*
X8098Y8319D01*
X8092Y8288D01*
X8082Y8258D01*
X8069Y8230D01*
X8052Y8203D01*
X8032Y8179D01*
X8009Y8157D01*
X7984Y8139D01*
X7956Y8124D01*
X7927Y8112D01*
X7897Y8104D01*
X7866Y8100D01*
X7834Y8100D01*
X7803Y8104D01*
X7773Y8112D01*
X7744Y8124D01*
X7716Y8139D01*
X7691Y8157D01*
X7668Y8179D01*
X7648Y8203D01*
X7631Y8230D01*
X7618Y8258D01*
X7608Y8288D01*
X7602Y8319D01*
X7600Y8350D01*
X5958Y8250D02*
X5960Y8284D01*
X5966Y8317D01*
X5976Y8350D01*
X5989Y8381D01*
X6006Y8410D01*
X6026Y8438D01*
X6050Y8462D01*
X6076Y8484D01*
X6104Y8503D01*
X6134Y8518D01*
X6166Y8530D01*
X6199Y8538D01*
X6233Y8542D01*
X6267Y8542D01*
X6301Y8538D01*
X6334Y8530D01*
X6366Y8518D01*
X6396Y8503D01*
X6424Y8484D01*
X6450Y8462D01*
X6474Y8438D01*
X6494Y8410D01*
X6511Y8381D01*
X6524Y8350D01*
X6534Y8317D01*
X6540Y8284D01*
X6542Y8250D01*
X6540Y8216D01*
X6534Y8183D01*
X6524Y8150D01*
X6511Y8119D01*
X6494Y8090D01*
X6474Y8062D01*
X6450Y8038D01*
X6424Y8016D01*
X6396Y7997D01*
X6366Y7982D01*
X6334Y7970D01*
X6301Y7962D01*
X6267Y7958D01*
X6233Y7958D01*
X6199Y7962D01*
X6166Y7970D01*
X6134Y7982D01*
X6104Y7997D01*
X6076Y8016D01*
X6050Y8038D01*
X6026Y8062D01*
X6006Y8090D01*
X5989Y8119D01*
X5976Y8150D01*
X5966Y8183D01*
X5960Y8216D01*
X5958Y8250D01*
X3450Y8951D02*
X3386Y8952D01*
X3321Y8949D01*
X3257Y8942D01*
X3194Y8932D01*
X3131Y8917D01*
X3069Y8899D01*
X3008Y8876D01*
X2949Y8851D01*
X2892Y8821D01*
X2837Y8788D01*
X2783Y8752D01*
X2732Y8713D01*
X2684Y8670D01*
X2638Y8625D01*
X2595Y8577D01*
X2555Y8526D01*
X2518Y8473D01*
X2485Y8418D01*
X2455Y8361D01*
X2429Y8302D01*
X2406Y8242D01*
X2387Y8180D01*
X2372Y8118D01*
X2360Y8054D01*
X2353Y7990D01*
X2349Y7926D01*
X2350Y7862D01*
X2354Y7797D01*
X2362Y7733D01*
X2375Y7670D01*
X2391Y7608D01*
X2411Y7546D01*
X2434Y7486D01*
X2461Y7428D01*
X2492Y7371D01*
X2526Y7317D01*
X2564Y7264D01*
X2604Y7214D01*
X2648Y7167D01*
X2694Y7122D01*
X2744Y7080D01*
X2795Y7042D01*
X2849Y7006D01*
X2905Y6974D01*
X2963Y6945D01*
X3022Y6920D01*
X3083Y6899D01*
X3145Y6881D01*
X3208Y6868D01*
X3271Y6858D01*
X3336Y6852D01*
X3400Y6850D01*
X10450Y6550D02*
X10519Y6552D01*
X10588Y6558D01*
X10656Y6568D01*
X10723Y6582D01*
X10790Y6599D01*
X10856Y6621D01*
X10920Y6646D01*
X10982Y6674D01*
X11043Y6707D01*
X11102Y6743D01*
X11159Y6782D01*
X11213Y6824D01*
X11265Y6869D01*
X11315Y6917D01*
X11361Y6968D01*
X11404Y7022D01*
X11445Y7078D01*
X11482Y7136D01*
X11515Y7196D01*
X11545Y7258D01*
X11572Y7322D01*
X11595Y7387D01*
X11614Y7453D01*
X11629Y7521D01*
X11640Y7589D01*
X11647Y7657D01*
X11651Y7726D01*
X11650Y7795D01*
X11646Y7864D01*
X11637Y7932D01*
X11625Y8000D01*
X11609Y8067D01*
X11589Y8133D01*
X11565Y8198D01*
X11537Y8261D01*
X11506Y8322D01*
X11472Y8382D01*
X11434Y8440D01*
X11393Y8495D01*
X11349Y8548D01*
X11301Y8598D01*
X11251Y8646D01*
X11199Y8690D01*
X11144Y8731D01*
X11086Y8770D01*
X11027Y8804D01*
X10965Y8836D01*
X10902Y8864D01*
X10838Y8888D01*
X10772Y8908D01*
X10705Y8925D01*
X10637Y8937D01*
X10569Y8946D01*
X10500Y8951D01*
X7700Y6650D02*
X7645Y6686D01*
X7589Y6719D01*
X7531Y6749D01*
X7471Y6776D01*
X7410Y6799D01*
X7348Y6819D01*
X7285Y6836D01*
X7220Y6849D01*
X7156Y6858D01*
X7090Y6863D01*
X7025Y6865D01*
X6960Y6863D01*
X6894Y6858D01*
X6830Y6849D01*
X6765Y6836D01*
X6702Y6819D01*
X6640Y6799D01*
X6579Y6776D01*
X6519Y6749D01*
X6461Y6719D01*
X6405Y6686D01*
X6350Y6650D01*
X6500Y5600D02*
X6562Y5622D01*
X6625Y5641D01*
X6689Y5657D01*
X6753Y5669D01*
X6819Y5678D01*
X6884Y5683D01*
X6950Y5685D01*
X7016Y5683D01*
X7081Y5678D01*
X7147Y5669D01*
X7211Y5657D01*
X7275Y5641D01*
X7338Y5622D01*
X7400Y5600D01*
X7350Y4650D02*
X7288Y4665D01*
X7226Y4677D01*
X7162Y4685D01*
X7099Y4690D01*
X7035Y4691D01*
X6971Y4688D01*
X6908Y4682D01*
X6845Y4673D01*
X6782Y4660D01*
X6720Y4643D01*
X6660Y4623D01*
X6600Y4600D01*
X5900Y5800D02*
X5700Y6200D01*
X5901Y5800D02*
X5959Y5668D01*
X6013Y5535D01*
X6065Y5400D01*
X6112Y5264D01*
X6156Y5127D01*
X6197Y4989D01*
X6234Y4850D01*
X6267Y4710D01*
X6297Y4569D01*
X6323Y4427D01*
X6346Y4285D01*
X6365Y4142D01*
X6380Y3998D01*
X6391Y3855D01*
X6399Y3711D01*
X6402Y3567D01*
X6403Y3423D01*
X6399Y3279D01*
X6392Y3135D01*
X6381Y2991D01*
X6366Y2848D01*
X6348Y2705D01*
X6326Y2562D01*
X6300Y2421D01*
X6270Y2280D01*
X6237Y2139D01*
X6201Y2000D01*
X8100Y5800D02*
X8300Y6200D01*
X8100Y5800D02*
X8045Y5665D01*
X7993Y5529D01*
X7945Y5392D01*
X7901Y5253D01*
X7861Y5114D01*
X7824Y4973D01*
X7791Y4831D01*
X7762Y4689D01*
X7736Y4546D01*
X7715Y4402D01*
X7697Y4257D01*
X7684Y4113D01*
X7674Y3967D01*
X7668Y3822D01*
X7666Y3677D01*
X7668Y3531D01*
X7674Y3386D01*
X7683Y3241D01*
X7697Y3096D01*
X7715Y2952D01*
X7736Y2808D01*
X7761Y2664D01*
X7790Y2522D01*
X7823Y2380D01*
X7860Y2239D01*
X7900Y2100D01*
X7925Y2033D01*
X7946Y1964D01*
X7963Y1894D01*
X7976Y1824D01*
X7986Y1752D01*
X7991Y1681D01*
X7993Y1609D01*
X7991Y1537D01*
X7984Y1465D01*
X7974Y1394D01*
X7960Y1324D01*
X7943Y1254D01*
X7921Y1186D01*
X7896Y1118D01*
X7867Y1052D01*
X7834Y988D01*
X7799Y926D01*
X7759Y866D01*
X7717Y808D01*
X7671Y752D01*
X7623Y699D01*
X7571Y649D01*
X7517Y601D01*
X7461Y557D01*
X7402Y516D01*
X7341Y478D01*
X7278Y443D01*
X7213Y412D01*
X7147Y384D01*
X7079Y360D01*
X7010Y340D01*
X6940Y324D01*
X6869Y311D01*
X6798Y303D01*
X6726Y298D01*
X6654Y297D01*
X6583Y300D01*
X6511Y307D01*
X6440Y318D01*
X6370Y333D01*
X6300Y351D01*
X6232Y374D01*
X6165Y400D01*
X6099Y429D01*
X6036Y462D01*
X5974Y499D01*
X5914Y539D01*
X5856Y582D01*
X5801Y628D01*
X5749Y677D01*
X5699Y729D01*
X5652Y784D01*
X5608Y841D01*
X5568Y900D01*
X5531Y961D01*
X5497Y1025D01*
X5466Y1090D01*
X5439Y1156D01*
X5416Y1225D01*
X5397Y1294D01*
X5381Y1364D01*
X5369Y1435D01*
X5361Y1506D01*
X5358Y1578D01*
X5357Y1650D01*
X5361Y1722D01*
X5369Y1793D01*
X5381Y1864D01*
X5396Y1934D01*
X5416Y2003D01*
X5439Y2072D01*
X5465Y2138D01*
X5496Y2203D01*
X5529Y2267D01*
X5567Y2328D01*
X5607Y2388D01*
X5651Y2445D01*
X5698Y2499D01*
X5747Y2551D01*
X5800Y2600D01*
X7300Y1300D02*
X7275Y1249D01*
X7245Y1199D01*
X7213Y1152D01*
X7178Y1106D01*
X7140Y1062D01*
X7099Y1022D01*
X7056Y983D01*
X7011Y948D01*
X6963Y915D01*
X6914Y886D01*
X6863Y859D01*
X6810Y836D01*
X6756Y817D01*
X6700Y800D01*
X6300Y2300D02*
X6293Y2336D01*
X6282Y2371D01*
X6267Y2405D01*
X6250Y2438D01*
X6229Y2468D01*
X6205Y2497D01*
X6179Y2523D01*
X6151Y2546D01*
X6120Y2567D01*
X6087Y2584D01*
X6053Y2598D01*
X6018Y2609D01*
X5982Y2617D01*
X5945Y2620D01*
X5908Y2621D01*
X5871Y2617D01*
X5835Y2611D01*
X5800Y2600D01*
X4600Y9400D02*
X4700Y9500D01*
X4722Y9524D01*
X4742Y9550D01*
X4759Y9577D01*
X4774Y9606D01*
X4785Y9637D01*
X4794Y9668D01*
X4800Y9700D01*
X4805Y9719D01*
X4812Y9736D01*
X4824Y9752D01*
X4838Y9765D01*
X4854Y9776D01*
X4872Y9783D01*
X4890Y9787D01*
X4910Y9787D01*
X4928Y9783D01*
X4946Y9776D01*
X4962Y9765D01*
X4976Y9752D01*
X4988Y9736D01*
X4995Y9719D01*
X5000Y9700D01*
X5000Y9701D02*
X5004Y9683D01*
X5012Y9667D01*
X5022Y9653D01*
X5036Y9642D01*
X5051Y9633D01*
X5068Y9627D01*
X5085Y9625D01*
X5103Y9626D01*
X5120Y9631D01*
X5136Y9640D01*
X5149Y9651D01*
X5160Y9664D01*
X5169Y9680D01*
X5174Y9697D01*
X5175Y9715D01*
X5173Y9732D01*
X5167Y9749D01*
X5158Y9764D01*
X5147Y9778D01*
X5133Y9788D01*
X5117Y9796D01*
X5099Y9800D01*
X5101Y9800D02*
X5083Y9804D01*
X5067Y9812D01*
X5053Y9822D01*
X5042Y9836D01*
X5033Y9851D01*
X5027Y9868D01*
X5025Y9885D01*
X5026Y9903D01*
X5031Y9920D01*
X5040Y9936D01*
X5051Y9949D01*
X5064Y9960D01*
X5080Y9969D01*
X5097Y9974D01*
X5115Y9975D01*
X5132Y9973D01*
X5149Y9967D01*
X5164Y9958D01*
X5178Y9947D01*
X5188Y9933D01*
X5196Y9917D01*
X5200Y9899D01*
X5200Y9900D02*
X5205Y9881D01*
X5213Y9862D01*
X5224Y9845D01*
X5237Y9830D01*
X5253Y9818D01*
X5271Y9808D01*
X5291Y9802D01*
X5311Y9799D01*
X5331Y9800D01*
X5351Y9804D01*
X5370Y9811D01*
X5387Y9822D01*
X5402Y9835D01*
X5415Y9851D01*
X5425Y9869D01*
X5431Y9888D01*
X5435Y9908D01*
X5434Y9928D01*
X5431Y9948D01*
X5424Y9967D01*
X5413Y9985D01*
X5400Y10000D01*
X5385Y10018D01*
X5374Y10037D01*
X5365Y10059D01*
X5360Y10081D01*
X5359Y10104D01*
X5362Y10127D01*
X5368Y10149D01*
X5377Y10169D01*
X5390Y10188D01*
X5406Y10205D01*
X5424Y10219D01*
X5444Y10230D01*
X5466Y10237D01*
X5489Y10241D01*
X5511Y10241D01*
X5534Y10237D01*
X5556Y10230D01*
X5576Y10219D01*
X5594Y10205D01*
X5610Y10188D01*
X5623Y10169D01*
X5632Y10149D01*
X5638Y10127D01*
X5641Y10104D01*
X5640Y10081D01*
X5635Y10059D01*
X5626Y10037D01*
X5615Y10018D01*
X5600Y10000D01*
X5605Y9981D01*
X5613Y9962D01*
X5624Y9945D01*
X5637Y9930D01*
X5653Y9918D01*
X5671Y9908D01*
X5691Y9902D01*
X5711Y9899D01*
X5731Y9900D01*
X5751Y9904D01*
X5770Y9911D01*
X5787Y9922D01*
X5802Y9935D01*
X5815Y9951D01*
X5825Y9969D01*
X5831Y9988D01*
X5835Y10008D01*
X5834Y10028D01*
X5831Y10048D01*
X5824Y10067D01*
X5813Y10085D01*
X5800Y10100D01*
X5900Y10000D02*
X5885Y10018D01*
X5874Y10037D01*
X5865Y10059D01*
X5860Y10081D01*
X5859Y10104D01*
X5862Y10127D01*
X5868Y10149D01*
X5877Y10169D01*
X5890Y10188D01*
X5906Y10205D01*
X5924Y10219D01*
X5944Y10230D01*
X5966Y10237D01*
X5989Y10241D01*
X6011Y10241D01*
X6034Y10237D01*
X6056Y10230D01*
X6076Y10219D01*
X6094Y10205D01*
X6110Y10188D01*
X6123Y10169D01*
X6132Y10149D01*
X6138Y10127D01*
X6141Y10104D01*
X6140Y10081D01*
X6135Y10059D01*
X6126Y10037D01*
X6115Y10018D01*
X6100Y10000D01*
X9300Y9500D02*
X9400Y9400D01*
X9300Y9500D02*
X9278Y9524D01*
X9258Y9550D01*
X9241Y9577D01*
X9226Y9606D01*
X9215Y9637D01*
X9206Y9668D01*
X9200Y9700D01*
X9195Y9719D01*
X9188Y9736D01*
X9176Y9752D01*
X9162Y9765D01*
X9146Y9776D01*
X9128Y9783D01*
X9110Y9787D01*
X9090Y9787D01*
X9072Y9783D01*
X9054Y9776D01*
X9038Y9765D01*
X9024Y9752D01*
X9012Y9736D01*
X9005Y9719D01*
X9000Y9700D01*
X9000Y9701D02*
X8996Y9683D01*
X8988Y9667D01*
X8978Y9653D01*
X8964Y9642D01*
X8949Y9633D01*
X8932Y9627D01*
X8915Y9625D01*
X8897Y9626D01*
X8880Y9631D01*
X8864Y9640D01*
X8851Y9651D01*
X8840Y9664D01*
X8831Y9680D01*
X8826Y9697D01*
X8825Y9715D01*
X8827Y9732D01*
X8833Y9749D01*
X8842Y9764D01*
X8853Y9778D01*
X8867Y9788D01*
X8883Y9796D01*
X8901Y9800D01*
X8899Y9800D02*
X8917Y9804D01*
X8933Y9812D01*
X8947Y9822D01*
X8958Y9836D01*
X8967Y9851D01*
X8973Y9868D01*
X8975Y9885D01*
X8974Y9903D01*
X8969Y9920D01*
X8960Y9936D01*
X8949Y9949D01*
X8936Y9960D01*
X8920Y9969D01*
X8903Y9974D01*
X8885Y9975D01*
X8868Y9973D01*
X8851Y9967D01*
X8836Y9958D01*
X8822Y9947D01*
X8812Y9933D01*
X8804Y9917D01*
X8800Y9899D01*
X8800Y9900D02*
X8795Y9881D01*
X8787Y9862D01*
X8776Y9845D01*
X8763Y9830D01*
X8747Y9818D01*
X8729Y9808D01*
X8709Y9802D01*
X8689Y9799D01*
X8669Y9800D01*
X8649Y9804D01*
X8630Y9811D01*
X8613Y9822D01*
X8598Y9835D01*
X8585Y9851D01*
X8575Y9869D01*
X8569Y9888D01*
X8565Y9908D01*
X8566Y9928D01*
X8569Y9948D01*
X8576Y9967D01*
X8587Y9985D01*
X8600Y10000D01*
X8615Y10018D01*
X8626Y10037D01*
X8635Y10059D01*
X8640Y10081D01*
X8641Y10104D01*
X8638Y10127D01*
X8632Y10149D01*
X8623Y10169D01*
X8610Y10188D01*
X8594Y10205D01*
X8576Y10219D01*
X8556Y10230D01*
X8534Y10237D01*
X8511Y10241D01*
X8489Y10241D01*
X8466Y10237D01*
X8444Y10230D01*
X8424Y10219D01*
X8406Y10205D01*
X8390Y10188D01*
X8377Y10169D01*
X8368Y10149D01*
X8362Y10127D01*
X8359Y10104D01*
X8360Y10081D01*
X8365Y10059D01*
X8374Y10037D01*
X8385Y10018D01*
X8400Y10000D01*
X8395Y9981D01*
X8387Y9962D01*
X8376Y9945D01*
X8363Y9930D01*
X8347Y9918D01*
X8329Y9908D01*
X8309Y9902D01*
X8289Y9899D01*
X8269Y9900D01*
X8249Y9904D01*
X8230Y9911D01*
X8213Y9922D01*
X8198Y9935D01*
X8185Y9951D01*
X8175Y9969D01*
X8169Y9988D01*
X8165Y10008D01*
X8166Y10028D01*
X8169Y10048D01*
X8176Y10067D01*
X8187Y10085D01*
X8200Y10100D01*
X8100Y10000D02*
X8115Y10018D01*
X8126Y10037D01*
X8135Y10059D01*
X8140Y10081D01*
X8141Y10104D01*
X8138Y10127D01*
X8132Y10149D01*
X8123Y10169D01*
X8110Y10188D01*
X8094Y10205D01*
X8076Y10219D01*
X8056Y10230D01*
X8034Y10237D01*
X8011Y10241D01*
X7989Y10241D01*
X7966Y10237D01*
X7944Y10230D01*
X7924Y10219D01*
X7906Y10205D01*
X7890Y10188D01*
X7877Y10169D01*
X7868Y10149D01*
X7862Y10127D01*
X7859Y10104D01*
X7860Y10081D01*
X7865Y10059D01*
X7874Y10037D01*
X7885Y10018D01*
X7900Y10000D01*
X6900Y11100D02*
X6700Y11100D01*
X6640Y11102D01*
X6580Y11107D01*
X6520Y11117D01*
X6461Y11130D01*
X6403Y11146D01*
X6346Y11166D01*
X6291Y11190D01*
X6237Y11217D01*
X6185Y11247D01*
X6134Y11281D01*
X6086Y11317D01*
X6041Y11357D01*
X5997Y11399D01*
X5957Y11444D01*
X5919Y11491D01*
X5885Y11540D01*
X5853Y11592D01*
X5825Y11645D01*
X5800Y11700D01*
X7300Y11200D02*
X7400Y11100D01*
X7300Y11200D02*
X7245Y11259D01*
X7191Y11319D01*
X7141Y11382D01*
X7093Y11447D01*
X7049Y11514D01*
X7007Y11583D01*
X6968Y11654D01*
X6933Y11726D01*
X6900Y11800D01*
X7900Y11200D02*
X8000Y11100D01*
X7900Y11200D02*
X7874Y11229D01*
X7850Y11260D01*
X7830Y11294D01*
X7812Y11329D01*
X7798Y11365D01*
X7787Y11403D01*
X7780Y11441D01*
X7776Y11480D01*
X7776Y11520D01*
X7780Y11559D01*
X7787Y11597D01*
X7798Y11635D01*
X7812Y11671D01*
X7830Y11706D01*
X7850Y11740D01*
X7874Y11771D01*
X7900Y11800D01*
D11*
X7591Y8092D02*
X7591Y5887D01*
X7591Y8092D02*
X6409Y8092D01*
X6409Y5887D01*
X7591Y5887D01*
M02*
