M48
;GenerationSoftware,Autodesk,EAGLE,9.0.0*%
;CreationDate,2018-05-03T14:54:07Z*%
FMAT,2
ICI,OFF
INCH,TZ,00.0000
T2C0.0118
T1C0.0400
%
G90
M72
T1
X2000Y10000
X2000Y9000
X2000Y8000
X2000Y7000
X2000Y6000
X2000Y5000
X2000Y4000
X2000Y3000
X2000Y2000
X12000Y10000
X12000Y9000
X12000Y8000
X12000Y7000
X12000Y6000
X12000Y5000
X12000Y4000
X12000Y3000
X12000Y2000
X5000Y2000
X6000Y2000
X7000Y2000
X8000Y2000
X9000Y2000
T2
X8220Y6170
X7000Y8021
X13000Y1000
M30