G04 EAGLE Gerber X2 export*
G75*
%MOIN*%
%FSLAX24Y24*%
%LPD*%
%AMOC8*
5,1,8,0,0,1.08239X$1,22.5*%
G01*
%ADD10C,0.074000*%
%ADD11R,0.029528X0.009055*%
%ADD12R,0.023622X0.017323*%
%ADD13C,0.006000*%
%ADD14C,0.016000*%
%ADD15C,0.027811*%
%ADD16C,0.010000*%

G36*
X13513Y451D02*
X13513Y451D01*
X13515Y451D01*
X13518Y452D01*
X13522Y452D01*
X13523Y453D01*
X13524Y453D01*
X13527Y455D01*
X13530Y457D01*
X13531Y458D01*
X13532Y458D01*
X13534Y461D01*
X13537Y464D01*
X13537Y465D01*
X13538Y466D01*
X13539Y469D01*
X13541Y473D01*
X13541Y474D01*
X13541Y475D01*
X13542Y480D01*
X13549Y11520D01*
X13549Y11521D01*
X13549Y11522D01*
X13548Y11526D01*
X13547Y11529D01*
X13547Y11530D01*
X13547Y11531D01*
X13545Y11535D01*
X13543Y11538D01*
X13542Y11539D01*
X13539Y11542D01*
X13536Y11544D01*
X13535Y11545D01*
X13534Y11545D01*
X13531Y11547D01*
X13527Y11548D01*
X13526Y11548D01*
X13525Y11549D01*
X13520Y11549D01*
X11410Y11549D01*
X11409Y11549D01*
X11408Y11549D01*
X11404Y11548D01*
X11401Y11548D01*
X11400Y11547D01*
X11399Y11547D01*
X11395Y11545D01*
X11392Y11543D01*
X11391Y11542D01*
X11388Y11539D01*
X11386Y11536D01*
X11385Y11535D01*
X11385Y11534D01*
X11383Y11531D01*
X11382Y11527D01*
X11382Y11526D01*
X11381Y11525D01*
X11381Y11520D01*
X11381Y8946D01*
X10554Y8119D01*
X4696Y8119D01*
X1274Y11541D01*
X1271Y11543D01*
X1268Y11545D01*
X1267Y11546D01*
X1263Y11547D01*
X1259Y11549D01*
X1258Y11549D01*
X1257Y11549D01*
X1254Y11549D01*
X480Y11549D01*
X479Y11549D01*
X478Y11549D01*
X474Y11548D01*
X471Y11548D01*
X470Y11547D01*
X469Y11547D01*
X465Y11545D01*
X462Y11543D01*
X461Y11542D01*
X458Y11539D01*
X456Y11536D01*
X455Y11535D01*
X455Y11534D01*
X453Y11531D01*
X452Y11527D01*
X452Y11526D01*
X451Y11525D01*
X451Y11520D01*
X451Y480D01*
X451Y479D01*
X451Y478D01*
X452Y474D01*
X452Y471D01*
X453Y470D01*
X453Y469D01*
X455Y465D01*
X457Y462D01*
X458Y461D01*
X461Y458D01*
X464Y456D01*
X465Y455D01*
X466Y455D01*
X469Y453D01*
X473Y452D01*
X474Y452D01*
X475Y451D01*
X480Y451D01*
X13512Y451D01*
X13513Y451D01*
G37*
%LPC*%
G36*
X12952Y760D02*
X12952Y760D01*
X12864Y797D01*
X12797Y864D01*
X12760Y952D01*
X12760Y976D01*
X12760Y979D01*
X12760Y982D01*
X12759Y984D01*
X12759Y986D01*
X12757Y988D01*
X12756Y991D01*
X12755Y993D01*
X12754Y994D01*
X12752Y996D01*
X12750Y999D01*
X12748Y999D01*
X12747Y1001D01*
X12744Y1002D01*
X12742Y1003D01*
X12740Y1004D01*
X12738Y1005D01*
X12735Y1005D01*
X12733Y1006D01*
X12731Y1005D01*
X12729Y1006D01*
X12726Y1005D01*
X12723Y1005D01*
X12721Y1004D01*
X12720Y1003D01*
X12717Y1002D01*
X12714Y1001D01*
X12712Y999D01*
X12711Y998D01*
X12710Y997D01*
X12687Y974D01*
X6813Y974D01*
X6716Y1071D01*
X6223Y1563D01*
X6223Y1564D01*
X6219Y1566D01*
X6216Y1569D01*
X6215Y1569D01*
X6211Y1570D01*
X6206Y1572D01*
X6202Y1572D01*
X6197Y1571D01*
X6191Y1570D01*
X6094Y1529D01*
X5906Y1529D01*
X5733Y1601D01*
X5601Y1733D01*
X5529Y1906D01*
X5529Y2094D01*
X5601Y2267D01*
X5733Y2399D01*
X5906Y2471D01*
X6094Y2471D01*
X6267Y2399D01*
X6399Y2267D01*
X6471Y2094D01*
X6471Y1906D01*
X6430Y1809D01*
X6430Y1808D01*
X6429Y1804D01*
X6428Y1799D01*
X6429Y1794D01*
X6429Y1790D01*
X6429Y1789D01*
X6431Y1785D01*
X6433Y1781D01*
X6437Y1777D01*
X6929Y1284D01*
X6932Y1282D01*
X6935Y1280D01*
X6936Y1279D01*
X6937Y1279D01*
X6940Y1278D01*
X6944Y1276D01*
X6945Y1276D01*
X6946Y1276D01*
X6947Y1276D01*
X6950Y1276D01*
X9440Y1276D01*
X9443Y1276D01*
X9446Y1276D01*
X9448Y1277D01*
X9450Y1277D01*
X9452Y1279D01*
X9455Y1280D01*
X9457Y1281D01*
X9458Y1282D01*
X9460Y1284D01*
X9463Y1286D01*
X9464Y1287D01*
X9465Y1289D01*
X9466Y1292D01*
X9468Y1294D01*
X9468Y1296D01*
X9469Y1298D01*
X9469Y1300D01*
X9470Y1303D01*
X9469Y1305D01*
X9470Y1307D01*
X9469Y1310D01*
X9469Y1313D01*
X9468Y1315D01*
X9467Y1316D01*
X9466Y1319D01*
X9465Y1322D01*
X9463Y1324D01*
X9462Y1324D01*
X9462Y1325D01*
X9461Y1326D01*
X9223Y1563D01*
X9223Y1564D01*
X9219Y1566D01*
X9216Y1569D01*
X9215Y1569D01*
X9211Y1570D01*
X9206Y1572D01*
X9202Y1572D01*
X9197Y1571D01*
X9191Y1570D01*
X9094Y1529D01*
X8906Y1529D01*
X8733Y1601D01*
X8601Y1733D01*
X8529Y1906D01*
X8529Y2094D01*
X8601Y2267D01*
X8733Y2399D01*
X8906Y2471D01*
X9094Y2471D01*
X9267Y2399D01*
X9399Y2267D01*
X9471Y2094D01*
X9471Y1906D01*
X9430Y1809D01*
X9430Y1808D01*
X9429Y1804D01*
X9428Y1799D01*
X9429Y1794D01*
X9429Y1790D01*
X9429Y1789D01*
X9431Y1785D01*
X9433Y1781D01*
X9437Y1777D01*
X9679Y1534D01*
X9682Y1532D01*
X9685Y1530D01*
X9686Y1529D01*
X9687Y1529D01*
X9690Y1528D01*
X9694Y1526D01*
X9695Y1526D01*
X9696Y1526D01*
X9697Y1526D01*
X9700Y1526D01*
X11768Y1526D01*
X11772Y1526D01*
X11775Y1527D01*
X11776Y1527D01*
X11777Y1527D01*
X11781Y1529D01*
X11784Y1531D01*
X11785Y1531D01*
X11786Y1532D01*
X11788Y1535D01*
X11791Y1537D01*
X11792Y1538D01*
X11792Y1539D01*
X11794Y1542D01*
X11796Y1546D01*
X11796Y1547D01*
X11796Y1548D01*
X11796Y1551D01*
X11797Y1555D01*
X11797Y1556D01*
X11797Y1557D01*
X11796Y1561D01*
X11795Y1565D01*
X11795Y1566D01*
X11793Y1570D01*
X11791Y1573D01*
X11790Y1574D01*
X11787Y1577D01*
X11784Y1580D01*
X11783Y1580D01*
X11782Y1580D01*
X11781Y1581D01*
X11779Y1582D01*
X11733Y1601D01*
X11601Y1733D01*
X11552Y1851D01*
X11550Y1855D01*
X11547Y1859D01*
X11543Y1862D01*
X11540Y1865D01*
X11539Y1865D01*
X11535Y1867D01*
X11531Y1869D01*
X11530Y1869D01*
X11525Y1869D01*
X11253Y1869D01*
X11252Y1869D01*
X11199Y1867D01*
X11198Y1867D01*
X11160Y1905D01*
X11159Y1906D01*
X10608Y2412D01*
X10605Y2413D01*
X10602Y2415D01*
X10601Y2416D01*
X10600Y2417D01*
X10598Y2417D01*
X10560Y2455D01*
X10559Y2456D01*
X10520Y2492D01*
X10519Y2493D01*
X10519Y2547D01*
X10519Y2548D01*
X10517Y2601D01*
X10518Y2604D01*
X10519Y2607D01*
X10519Y2609D01*
X10519Y2610D01*
X10519Y2612D01*
X10519Y6299D01*
X10519Y6300D01*
X10518Y6304D01*
X10518Y6308D01*
X10517Y6309D01*
X10517Y6310D01*
X10515Y6313D01*
X10513Y6317D01*
X10512Y6318D01*
X10508Y6322D01*
X10341Y6458D01*
X10339Y6459D01*
X10337Y6461D01*
X10335Y6462D01*
X10333Y6463D01*
X10330Y6463D01*
X10328Y6464D01*
X10324Y6465D01*
X10323Y6465D01*
X8282Y6465D01*
X8278Y6464D01*
X8275Y6464D01*
X8274Y6463D01*
X8273Y6463D01*
X8269Y6461D01*
X8266Y6460D01*
X8265Y6459D01*
X8264Y6459D01*
X8262Y6456D01*
X8259Y6453D01*
X8258Y6452D01*
X8256Y6448D01*
X8254Y6445D01*
X8254Y6444D01*
X8254Y6443D01*
X8253Y6439D01*
X8253Y6435D01*
X8253Y6434D01*
X8253Y6433D01*
X8254Y6430D01*
X8255Y6426D01*
X8255Y6425D01*
X8255Y6424D01*
X8257Y6421D01*
X8259Y6417D01*
X8260Y6417D01*
X8260Y6416D01*
X8263Y6414D01*
X8266Y6411D01*
X8267Y6410D01*
X8268Y6410D01*
X8269Y6410D01*
X8271Y6408D01*
X8356Y6373D01*
X8423Y6306D01*
X8460Y6218D01*
X8460Y6122D01*
X8423Y6034D01*
X8356Y5967D01*
X8268Y5930D01*
X8172Y5930D01*
X8084Y5967D01*
X8020Y6031D01*
X8017Y6033D01*
X8014Y6035D01*
X8013Y6036D01*
X8012Y6036D01*
X8009Y6037D01*
X8005Y6039D01*
X8004Y6039D01*
X8003Y6039D01*
X8002Y6039D01*
X7999Y6039D01*
X7936Y6039D01*
X7932Y6039D01*
X7928Y6038D01*
X7927Y6038D01*
X7923Y6036D01*
X7920Y6034D01*
X7919Y6033D01*
X7918Y6033D01*
X7916Y6031D01*
X7896Y6011D01*
X7589Y5704D01*
X7504Y5619D01*
X6546Y5619D01*
X6461Y5704D01*
X6054Y6111D01*
X6051Y6113D01*
X6048Y6115D01*
X6047Y6116D01*
X6043Y6117D01*
X6039Y6119D01*
X6038Y6119D01*
X6037Y6119D01*
X6034Y6119D01*
X4016Y6119D01*
X4012Y6119D01*
X4008Y6118D01*
X4007Y6118D01*
X4003Y6116D01*
X4000Y6114D01*
X3999Y6113D01*
X3998Y6113D01*
X3996Y6111D01*
X3689Y5804D01*
X3687Y5801D01*
X3685Y5798D01*
X3684Y5797D01*
X3683Y5793D01*
X3681Y5789D01*
X3681Y5788D01*
X3681Y5787D01*
X3681Y5784D01*
X3681Y3496D01*
X2428Y2243D01*
X2425Y2239D01*
X2423Y2236D01*
X2423Y2235D01*
X2421Y2231D01*
X2420Y2226D01*
X2420Y2222D01*
X2420Y2217D01*
X2422Y2211D01*
X2471Y2094D01*
X2471Y1906D01*
X2399Y1733D01*
X2267Y1601D01*
X2094Y1529D01*
X1906Y1529D01*
X1733Y1601D01*
X1601Y1733D01*
X1529Y1906D01*
X1529Y2094D01*
X1601Y2267D01*
X1733Y2399D01*
X1906Y2471D01*
X2094Y2471D01*
X2211Y2422D01*
X2212Y2422D01*
X2216Y2421D01*
X2221Y2420D01*
X2226Y2420D01*
X2230Y2421D01*
X2231Y2421D01*
X2235Y2423D01*
X2239Y2425D01*
X2243Y2428D01*
X3411Y3596D01*
X3413Y3599D01*
X3415Y3602D01*
X3416Y3603D01*
X3417Y3607D01*
X3419Y3611D01*
X3419Y3612D01*
X3419Y3613D01*
X3419Y3616D01*
X3419Y4164D01*
X3419Y4167D01*
X3419Y4170D01*
X3418Y4171D01*
X3418Y4173D01*
X3416Y4176D01*
X3415Y4178D01*
X3414Y4180D01*
X3413Y4182D01*
X3411Y4184D01*
X3409Y4186D01*
X3408Y4187D01*
X3406Y4188D01*
X3403Y4189D01*
X3401Y4191D01*
X3399Y4191D01*
X3397Y4192D01*
X3395Y4192D01*
X3392Y4193D01*
X3390Y4193D01*
X3388Y4193D01*
X3385Y4192D01*
X3382Y4192D01*
X3380Y4191D01*
X3379Y4191D01*
X3376Y4189D01*
X3373Y4188D01*
X3371Y4186D01*
X3370Y4185D01*
X3369Y4184D01*
X2428Y3243D01*
X2425Y3239D01*
X2423Y3236D01*
X2423Y3235D01*
X2421Y3231D01*
X2420Y3226D01*
X2420Y3222D01*
X2420Y3217D01*
X2422Y3211D01*
X2471Y3094D01*
X2471Y2906D01*
X2399Y2733D01*
X2267Y2601D01*
X2094Y2529D01*
X1906Y2529D01*
X1733Y2601D01*
X1601Y2733D01*
X1529Y2906D01*
X1529Y3094D01*
X1601Y3267D01*
X1733Y3399D01*
X1906Y3471D01*
X2094Y3471D01*
X2211Y3422D01*
X2212Y3422D01*
X2216Y3421D01*
X2221Y3420D01*
X2226Y3420D01*
X2230Y3421D01*
X2231Y3421D01*
X2235Y3423D01*
X2239Y3425D01*
X2243Y3428D01*
X3111Y4296D01*
X3113Y4299D01*
X3115Y4302D01*
X3116Y4303D01*
X3117Y4307D01*
X3119Y4311D01*
X3119Y4312D01*
X3119Y4313D01*
X3119Y4316D01*
X3119Y4864D01*
X3119Y4867D01*
X3119Y4870D01*
X3118Y4871D01*
X3118Y4873D01*
X3116Y4876D01*
X3115Y4878D01*
X3114Y4880D01*
X3113Y4882D01*
X3111Y4884D01*
X3109Y4886D01*
X3108Y4887D01*
X3106Y4888D01*
X3103Y4889D01*
X3101Y4891D01*
X3099Y4891D01*
X3097Y4892D01*
X3095Y4892D01*
X3092Y4893D01*
X3090Y4893D01*
X3088Y4893D01*
X3085Y4892D01*
X3082Y4892D01*
X3080Y4891D01*
X3079Y4891D01*
X3076Y4889D01*
X3073Y4888D01*
X3071Y4886D01*
X3070Y4885D01*
X3069Y4884D01*
X2996Y4811D01*
X2428Y4243D01*
X2426Y4241D01*
X2426Y4240D01*
X2425Y4239D01*
X2423Y4236D01*
X2423Y4235D01*
X2421Y4231D01*
X2420Y4226D01*
X2420Y4222D01*
X2420Y4217D01*
X2422Y4211D01*
X2471Y4094D01*
X2471Y3906D01*
X2399Y3733D01*
X2267Y3601D01*
X2094Y3529D01*
X1906Y3529D01*
X1733Y3601D01*
X1601Y3733D01*
X1529Y3906D01*
X1529Y4094D01*
X1601Y4267D01*
X1733Y4399D01*
X1906Y4471D01*
X2094Y4471D01*
X2211Y4422D01*
X2212Y4422D01*
X2216Y4421D01*
X2221Y4420D01*
X2226Y4420D01*
X2230Y4421D01*
X2231Y4421D01*
X2235Y4423D01*
X2239Y4425D01*
X2243Y4428D01*
X2811Y4996D01*
X2813Y4999D01*
X2815Y5002D01*
X2816Y5003D01*
X2817Y5007D01*
X2819Y5011D01*
X2819Y5012D01*
X2819Y5013D01*
X2819Y5016D01*
X2819Y5364D01*
X2819Y5367D01*
X2819Y5370D01*
X2818Y5371D01*
X2818Y5373D01*
X2816Y5376D01*
X2815Y5378D01*
X2814Y5380D01*
X2813Y5382D01*
X2811Y5384D01*
X2809Y5386D01*
X2808Y5387D01*
X2806Y5388D01*
X2803Y5389D01*
X2801Y5391D01*
X2799Y5391D01*
X2797Y5392D01*
X2795Y5392D01*
X2792Y5393D01*
X2790Y5393D01*
X2788Y5393D01*
X2785Y5392D01*
X2782Y5392D01*
X2780Y5391D01*
X2779Y5391D01*
X2776Y5389D01*
X2773Y5388D01*
X2771Y5386D01*
X2770Y5385D01*
X2769Y5384D01*
X2479Y5094D01*
X2477Y5091D01*
X2475Y5088D01*
X2474Y5087D01*
X2473Y5083D01*
X2471Y5079D01*
X2471Y5078D01*
X2471Y5077D01*
X2471Y5074D01*
X2471Y4906D01*
X2399Y4733D01*
X2267Y4601D01*
X2094Y4529D01*
X1906Y4529D01*
X1733Y4601D01*
X1601Y4733D01*
X1529Y4906D01*
X1529Y5094D01*
X1601Y5267D01*
X1733Y5399D01*
X1906Y5471D01*
X2094Y5471D01*
X2267Y5399D01*
X2320Y5346D01*
X2321Y5345D01*
X2324Y5343D01*
X2328Y5340D01*
X2329Y5340D01*
X2333Y5339D01*
X2337Y5338D01*
X2338Y5338D01*
X2339Y5337D01*
X2342Y5338D01*
X2346Y5338D01*
X2347Y5338D01*
X2348Y5339D01*
X2352Y5340D01*
X2355Y5341D01*
X2356Y5342D01*
X2357Y5343D01*
X2361Y5346D01*
X2561Y5546D01*
X2563Y5549D01*
X2565Y5552D01*
X2566Y5553D01*
X2567Y5557D01*
X2569Y5561D01*
X2569Y5562D01*
X2569Y5563D01*
X2569Y5566D01*
X2569Y6354D01*
X2654Y6439D01*
X3102Y6887D01*
X3104Y6890D01*
X3106Y6892D01*
X3107Y6893D01*
X3108Y6895D01*
X3109Y6898D01*
X3110Y6900D01*
X3110Y6902D01*
X3111Y6904D01*
X3111Y6907D01*
X3111Y6910D01*
X3110Y6912D01*
X3110Y6914D01*
X3109Y6916D01*
X3109Y6919D01*
X3108Y6921D01*
X3107Y6923D01*
X3105Y6925D01*
X3103Y6927D01*
X3102Y6929D01*
X3101Y6930D01*
X3098Y6932D01*
X3096Y6933D01*
X3094Y6934D01*
X3093Y6935D01*
X3090Y6936D01*
X3087Y6937D01*
X3084Y6937D01*
X3083Y6937D01*
X3082Y6937D01*
X2500Y6937D01*
X2499Y6937D01*
X2498Y6937D01*
X2494Y6936D01*
X2491Y6936D01*
X2490Y6935D01*
X2489Y6935D01*
X2485Y6933D01*
X2482Y6931D01*
X2481Y6930D01*
X2478Y6927D01*
X2476Y6924D01*
X2475Y6923D01*
X2475Y6922D01*
X2473Y6919D01*
X2472Y6915D01*
X2472Y6914D01*
X2471Y6913D01*
X2471Y6908D01*
X2471Y6906D01*
X2399Y6733D01*
X2267Y6601D01*
X2094Y6529D01*
X1906Y6529D01*
X1733Y6601D01*
X1601Y6733D01*
X1529Y6906D01*
X1529Y7094D01*
X1601Y7267D01*
X1733Y7399D01*
X1906Y7471D01*
X2094Y7471D01*
X2267Y7399D01*
X2399Y7267D01*
X2420Y7217D01*
X2422Y7213D01*
X2425Y7209D01*
X2425Y7208D01*
X2429Y7206D01*
X2432Y7203D01*
X2432Y7202D01*
X2437Y7201D01*
X2441Y7199D01*
X2447Y7199D01*
X2546Y7199D01*
X2549Y7199D01*
X2552Y7199D01*
X2553Y7200D01*
X2555Y7200D01*
X2558Y7202D01*
X2561Y7203D01*
X2562Y7204D01*
X2564Y7205D01*
X2566Y7207D01*
X2568Y7209D01*
X2569Y7210D01*
X2570Y7212D01*
X2571Y7214D01*
X2573Y7217D01*
X2573Y7219D01*
X2574Y7220D01*
X2574Y7223D01*
X2575Y7226D01*
X2575Y7228D01*
X2575Y7230D01*
X2574Y7233D01*
X2574Y7236D01*
X2573Y7237D01*
X2573Y7239D01*
X2571Y7242D01*
X2570Y7244D01*
X2568Y7247D01*
X2567Y7248D01*
X2566Y7249D01*
X2243Y7572D01*
X2239Y7575D01*
X2236Y7577D01*
X2235Y7577D01*
X2231Y7579D01*
X2226Y7580D01*
X2222Y7580D01*
X2217Y7580D01*
X2211Y7578D01*
X2094Y7529D01*
X1906Y7529D01*
X1733Y7601D01*
X1601Y7733D01*
X1529Y7906D01*
X1529Y8094D01*
X1601Y8267D01*
X1733Y8399D01*
X1906Y8471D01*
X2094Y8471D01*
X2267Y8399D01*
X2399Y8267D01*
X2471Y8094D01*
X2471Y7906D01*
X2422Y7789D01*
X2422Y7788D01*
X2421Y7784D01*
X2420Y7779D01*
X2420Y7774D01*
X2421Y7770D01*
X2421Y7769D01*
X2423Y7765D01*
X2425Y7761D01*
X2428Y7757D01*
X2669Y7516D01*
X2672Y7514D01*
X2674Y7512D01*
X2676Y7511D01*
X2677Y7510D01*
X2680Y7509D01*
X2683Y7508D01*
X2684Y7508D01*
X2686Y7507D01*
X2689Y7507D01*
X2692Y7507D01*
X2694Y7508D01*
X2696Y7508D01*
X2699Y7509D01*
X2701Y7509D01*
X2703Y7510D01*
X2705Y7511D01*
X2707Y7513D01*
X2709Y7514D01*
X2711Y7516D01*
X2712Y7517D01*
X2714Y7520D01*
X2715Y7522D01*
X2716Y7524D01*
X2717Y7525D01*
X2718Y7528D01*
X2719Y7531D01*
X2719Y7534D01*
X2719Y7535D01*
X2719Y7536D01*
X2719Y8084D01*
X2719Y8088D01*
X2718Y8092D01*
X2718Y8093D01*
X2716Y8097D01*
X2714Y8100D01*
X2713Y8101D01*
X2713Y8102D01*
X2711Y8104D01*
X2243Y8572D01*
X2239Y8575D01*
X2236Y8577D01*
X2235Y8577D01*
X2231Y8579D01*
X2226Y8580D01*
X2222Y8580D01*
X2217Y8580D01*
X2211Y8578D01*
X2094Y8529D01*
X1906Y8529D01*
X1733Y8601D01*
X1601Y8733D01*
X1585Y8772D01*
X1584Y8774D01*
X1583Y8776D01*
X1581Y8778D01*
X1580Y8780D01*
X1578Y8781D01*
X1577Y8783D01*
X1575Y8784D01*
X1572Y8786D01*
X1571Y8787D01*
X1569Y8788D01*
X1566Y8789D01*
X1563Y8790D01*
X1561Y8790D01*
X1560Y8790D01*
X1557Y8790D01*
X1554Y8790D01*
X1552Y8789D01*
X1550Y8789D01*
X1547Y8788D01*
X1545Y8787D01*
X1543Y8786D01*
X1541Y8785D01*
X1537Y8782D01*
X1189Y8434D01*
X1187Y8430D01*
X1185Y8427D01*
X1184Y8427D01*
X1184Y8426D01*
X1183Y8422D01*
X1181Y8418D01*
X1181Y8417D01*
X1181Y8416D01*
X1181Y8413D01*
X1181Y1337D01*
X1181Y1333D01*
X1182Y1329D01*
X1182Y1328D01*
X1184Y1324D01*
X1186Y1320D01*
X1187Y1320D01*
X1187Y1319D01*
X1189Y1316D01*
X1316Y1189D01*
X1320Y1187D01*
X1323Y1185D01*
X1323Y1184D01*
X1324Y1184D01*
X1328Y1183D01*
X1332Y1181D01*
X1333Y1181D01*
X1334Y1181D01*
X1337Y1181D01*
X3676Y1181D01*
X3679Y1181D01*
X3681Y1181D01*
X3683Y1182D01*
X3686Y1182D01*
X3688Y1183D01*
X3690Y1184D01*
X3694Y1187D01*
X3695Y1187D01*
X4528Y1854D01*
X4529Y1855D01*
X4531Y1856D01*
X4532Y1859D01*
X4534Y1861D01*
X4535Y1863D01*
X4536Y1864D01*
X4537Y1867D01*
X4538Y1870D01*
X4538Y1872D01*
X4539Y1873D01*
X4539Y1876D01*
X4539Y1879D01*
X4539Y1881D01*
X4538Y1883D01*
X4537Y1888D01*
X4529Y1906D01*
X4529Y2094D01*
X4601Y2267D01*
X4733Y2399D01*
X4906Y2471D01*
X5094Y2471D01*
X5267Y2399D01*
X5399Y2267D01*
X5471Y2094D01*
X5471Y1906D01*
X5399Y1733D01*
X5267Y1601D01*
X5094Y1529D01*
X4906Y1529D01*
X4787Y1579D01*
X4784Y1579D01*
X4781Y1581D01*
X4779Y1581D01*
X4778Y1581D01*
X4774Y1581D01*
X4771Y1581D01*
X4770Y1580D01*
X4768Y1580D01*
X4765Y1579D01*
X4762Y1577D01*
X4760Y1576D01*
X4759Y1576D01*
X4759Y1575D01*
X4757Y1575D01*
X3872Y866D01*
X3871Y866D01*
X3870Y864D01*
X3825Y819D01*
X3824Y819D01*
X3821Y819D01*
X3819Y819D01*
X3817Y818D01*
X3814Y818D01*
X3812Y817D01*
X3810Y816D01*
X3806Y813D01*
X3805Y813D01*
X3804Y812D01*
X3742Y819D01*
X3741Y819D01*
X3738Y819D01*
X1175Y819D01*
X819Y1175D01*
X819Y8575D01*
X1425Y9181D01*
X1546Y9181D01*
X1551Y9182D01*
X1555Y9182D01*
X1559Y9185D01*
X1564Y9187D01*
X1567Y9190D01*
X1570Y9194D01*
X1573Y9199D01*
X1601Y9267D01*
X1733Y9399D01*
X1906Y9471D01*
X2094Y9471D01*
X2267Y9399D01*
X2399Y9267D01*
X2471Y9094D01*
X2471Y8906D01*
X2422Y8789D01*
X2422Y8788D01*
X2421Y8784D01*
X2420Y8779D01*
X2420Y8774D01*
X2421Y8770D01*
X2421Y8769D01*
X2423Y8765D01*
X2425Y8761D01*
X2428Y8757D01*
X2919Y8266D01*
X2922Y8264D01*
X2924Y8262D01*
X2926Y8261D01*
X2927Y8260D01*
X2930Y8259D01*
X2933Y8258D01*
X2934Y8258D01*
X2936Y8257D01*
X2939Y8257D01*
X2942Y8257D01*
X2944Y8258D01*
X2946Y8258D01*
X2949Y8259D01*
X2951Y8259D01*
X2953Y8260D01*
X2955Y8261D01*
X2957Y8263D01*
X2959Y8264D01*
X2961Y8266D01*
X2962Y8267D01*
X2964Y8270D01*
X2965Y8272D01*
X2966Y8274D01*
X2967Y8275D01*
X2968Y8278D01*
X2969Y8281D01*
X2969Y8284D01*
X2969Y8285D01*
X2969Y8286D01*
X2969Y8834D01*
X2969Y8838D01*
X2968Y8842D01*
X2968Y8843D01*
X2966Y8847D01*
X2964Y8850D01*
X2963Y8851D01*
X2963Y8852D01*
X2961Y8854D01*
X2243Y9572D01*
X2239Y9575D01*
X2236Y9577D01*
X2235Y9577D01*
X2231Y9579D01*
X2226Y9580D01*
X2222Y9580D01*
X2217Y9580D01*
X2211Y9578D01*
X2094Y9529D01*
X1906Y9529D01*
X1733Y9601D01*
X1601Y9733D01*
X1529Y9906D01*
X1529Y10094D01*
X1601Y10267D01*
X1733Y10399D01*
X1906Y10471D01*
X2094Y10471D01*
X2267Y10399D01*
X2399Y10267D01*
X2471Y10094D01*
X2471Y9906D01*
X2422Y9789D01*
X2422Y9788D01*
X2421Y9784D01*
X2420Y9779D01*
X2420Y9774D01*
X2421Y9770D01*
X2421Y9769D01*
X2423Y9765D01*
X2425Y9761D01*
X2428Y9757D01*
X3231Y8954D01*
X3231Y7766D01*
X3231Y7762D01*
X3232Y7758D01*
X3232Y7757D01*
X3234Y7753D01*
X3236Y7750D01*
X3237Y7749D01*
X3237Y7748D01*
X3239Y7746D01*
X3305Y7680D01*
X3308Y7677D01*
X3312Y7675D01*
X3313Y7674D01*
X3317Y7673D01*
X3321Y7672D01*
X3322Y7672D01*
X3322Y7671D01*
X3323Y7671D01*
X3326Y7671D01*
X6390Y7671D01*
X6393Y7672D01*
X6397Y7672D01*
X6398Y7673D01*
X6399Y7673D01*
X6402Y7675D01*
X6406Y7676D01*
X6407Y7677D01*
X6408Y7678D01*
X6410Y7680D01*
X6417Y7686D01*
X6476Y7686D01*
X6477Y7687D01*
X6478Y7686D01*
X6482Y7687D01*
X6486Y7688D01*
X6487Y7688D01*
X6488Y7689D01*
X6491Y7691D01*
X6494Y7692D01*
X6495Y7693D01*
X6496Y7694D01*
X6498Y7697D01*
X6501Y7699D01*
X6501Y7700D01*
X6502Y7701D01*
X6503Y7705D01*
X6505Y7708D01*
X6505Y7709D01*
X6505Y7710D01*
X6506Y7716D01*
X6506Y7722D01*
X6711Y7722D01*
X6712Y7722D01*
X6713Y7722D01*
X6717Y7723D01*
X6721Y7724D01*
X6722Y7725D01*
X6724Y7726D01*
X6727Y7725D01*
X6730Y7723D01*
X6731Y7723D01*
X6732Y7723D01*
X6738Y7722D01*
X6943Y7722D01*
X6943Y7665D01*
X6936Y7639D01*
X6923Y7616D01*
X6904Y7598D01*
X6881Y7584D01*
X6876Y7583D01*
X6875Y7582D01*
X6873Y7582D01*
X6870Y7580D01*
X6868Y7579D01*
X6866Y7578D01*
X6864Y7576D01*
X6863Y7574D01*
X6861Y7572D01*
X6860Y7571D01*
X6858Y7569D01*
X6858Y7566D01*
X6856Y7564D01*
X6856Y7562D01*
X6855Y7560D01*
X6855Y7555D01*
X6855Y6940D01*
X6826Y6940D01*
X6822Y6939D01*
X6818Y6939D01*
X6817Y6938D01*
X6816Y6938D01*
X6813Y6936D01*
X6809Y6935D01*
X6809Y6934D01*
X6808Y6934D01*
X6807Y6933D01*
X6805Y6931D01*
X6804Y6929D01*
X6802Y6928D01*
X6802Y6927D01*
X6801Y6927D01*
X6800Y6925D01*
X6799Y6923D01*
X6799Y6921D01*
X6798Y6919D01*
X6798Y6918D01*
X6797Y6918D01*
X6797Y6916D01*
X6797Y6914D01*
X6797Y6912D01*
X6796Y6909D01*
X6796Y6908D01*
X6797Y6907D01*
X6797Y6905D01*
X6798Y6902D01*
X6798Y6900D01*
X6799Y6900D01*
X6799Y6899D01*
X6800Y6897D01*
X6800Y6896D01*
X6802Y6894D01*
X6803Y6892D01*
X6804Y6891D01*
X6804Y6890D01*
X6806Y6889D01*
X6806Y6888D01*
X6807Y6888D01*
X6809Y6887D01*
X6811Y6885D01*
X6813Y6884D01*
X6815Y6883D01*
X6818Y6883D01*
X6820Y6882D01*
X6823Y6881D01*
X6824Y6881D01*
X6825Y6881D01*
X6826Y6881D01*
X6855Y6881D01*
X6855Y6424D01*
X6855Y6422D01*
X6855Y6420D01*
X6856Y6417D01*
X6856Y6414D01*
X6857Y6412D01*
X6858Y6411D01*
X6859Y6408D01*
X6861Y6406D01*
X6862Y6404D01*
X6863Y6403D01*
X6866Y6401D01*
X6868Y6399D01*
X6870Y6398D01*
X6871Y6397D01*
X6876Y6395D01*
X6881Y6394D01*
X6904Y6381D01*
X6923Y6362D01*
X6936Y6339D01*
X6943Y6313D01*
X6943Y6256D01*
X6738Y6256D01*
X6737Y6256D01*
X6736Y6256D01*
X6732Y6255D01*
X6728Y6255D01*
X6727Y6254D01*
X6726Y6254D01*
X6725Y6253D01*
X6722Y6254D01*
X6719Y6255D01*
X6717Y6255D01*
X6716Y6256D01*
X6711Y6256D01*
X6506Y6256D01*
X6506Y6263D01*
X6505Y6264D01*
X6505Y6265D01*
X6505Y6268D01*
X6504Y6272D01*
X6503Y6273D01*
X6503Y6274D01*
X6501Y6277D01*
X6499Y6281D01*
X6498Y6282D01*
X6495Y6285D01*
X6492Y6287D01*
X6491Y6288D01*
X6487Y6289D01*
X6484Y6291D01*
X6483Y6291D01*
X6482Y6291D01*
X6476Y6292D01*
X6417Y6292D01*
X6410Y6299D01*
X6407Y6301D01*
X6404Y6303D01*
X6403Y6304D01*
X6402Y6304D01*
X6399Y6305D01*
X6395Y6307D01*
X6394Y6307D01*
X6393Y6307D01*
X6392Y6307D01*
X6390Y6307D01*
X6298Y6307D01*
X6295Y6307D01*
X6292Y6307D01*
X6291Y6306D01*
X6289Y6306D01*
X6286Y6304D01*
X6284Y6303D01*
X6282Y6302D01*
X6280Y6301D01*
X6278Y6299D01*
X6276Y6297D01*
X6275Y6296D01*
X6274Y6294D01*
X6273Y6291D01*
X6271Y6289D01*
X6271Y6287D01*
X6270Y6285D01*
X6270Y6283D01*
X6269Y6280D01*
X6269Y6278D01*
X6269Y6276D01*
X6270Y6273D01*
X6270Y6270D01*
X6271Y6268D01*
X6271Y6267D01*
X6273Y6264D01*
X6274Y6261D01*
X6276Y6259D01*
X6277Y6258D01*
X6278Y6257D01*
X6459Y6076D01*
X6461Y6075D01*
X6462Y6073D01*
X6465Y6072D01*
X6467Y6070D01*
X6469Y6070D01*
X6471Y6069D01*
X6473Y6068D01*
X6476Y6067D01*
X6478Y6067D01*
X6480Y6067D01*
X6483Y6068D01*
X6486Y6068D01*
X6488Y6068D01*
X6489Y6069D01*
X6492Y6070D01*
X6495Y6071D01*
X6496Y6072D01*
X6498Y6073D01*
X6500Y6075D01*
X6502Y6077D01*
X6503Y6079D01*
X6504Y6080D01*
X6506Y6083D01*
X6507Y6085D01*
X6507Y6087D01*
X6508Y6089D01*
X6508Y6092D01*
X6509Y6095D01*
X6509Y6097D01*
X6509Y6099D01*
X6508Y6104D01*
X6506Y6114D01*
X6506Y6171D01*
X6682Y6171D01*
X6682Y6026D01*
X6593Y6026D01*
X6583Y6029D01*
X6581Y6029D01*
X6579Y6030D01*
X6577Y6030D01*
X6574Y6030D01*
X6572Y6029D01*
X6570Y6029D01*
X6567Y6028D01*
X6564Y6028D01*
X6563Y6027D01*
X6561Y6026D01*
X6559Y6024D01*
X6556Y6023D01*
X6555Y6021D01*
X6554Y6020D01*
X6552Y6017D01*
X6550Y6015D01*
X6550Y6013D01*
X6549Y6012D01*
X6548Y6009D01*
X6547Y6006D01*
X6547Y6004D01*
X6546Y6002D01*
X6547Y5999D01*
X6547Y5997D01*
X6547Y5995D01*
X6548Y5993D01*
X6549Y5990D01*
X6550Y5987D01*
X6551Y5986D01*
X6552Y5984D01*
X6555Y5980D01*
X6646Y5889D01*
X6649Y5887D01*
X6652Y5885D01*
X6653Y5884D01*
X6657Y5883D01*
X6661Y5881D01*
X6662Y5881D01*
X6663Y5881D01*
X6666Y5881D01*
X7384Y5881D01*
X7388Y5881D01*
X7392Y5882D01*
X7393Y5882D01*
X7397Y5884D01*
X7400Y5886D01*
X7401Y5887D01*
X7402Y5887D01*
X7404Y5889D01*
X7711Y6196D01*
X7713Y6199D01*
X7715Y6202D01*
X7716Y6203D01*
X7717Y6207D01*
X7719Y6211D01*
X7719Y6212D01*
X7719Y6213D01*
X7719Y6216D01*
X7719Y6278D01*
X7719Y6279D01*
X7719Y6280D01*
X7718Y6284D01*
X7718Y6287D01*
X7717Y6288D01*
X7717Y6289D01*
X7715Y6293D01*
X7713Y6296D01*
X7712Y6297D01*
X7709Y6300D01*
X7706Y6302D01*
X7705Y6303D01*
X7704Y6303D01*
X7701Y6305D01*
X7697Y6306D01*
X7696Y6306D01*
X7695Y6307D01*
X7690Y6307D01*
X7610Y6307D01*
X7607Y6307D01*
X7603Y6306D01*
X7602Y6306D01*
X7601Y6306D01*
X7598Y6304D01*
X7594Y6302D01*
X7593Y6301D01*
X7592Y6301D01*
X7590Y6299D01*
X7583Y6292D01*
X7524Y6292D01*
X7523Y6292D01*
X7522Y6292D01*
X7518Y6291D01*
X7514Y6290D01*
X7513Y6290D01*
X7512Y6290D01*
X7509Y6288D01*
X7506Y6286D01*
X7505Y6285D01*
X7504Y6285D01*
X7502Y6282D01*
X7499Y6279D01*
X7499Y6278D01*
X7498Y6277D01*
X7497Y6274D01*
X7495Y6270D01*
X7495Y6269D01*
X7495Y6268D01*
X7494Y6263D01*
X7494Y6256D01*
X7289Y6256D01*
X7288Y6256D01*
X7287Y6256D01*
X7283Y6255D01*
X7279Y6255D01*
X7279Y6254D01*
X7278Y6254D01*
X7276Y6253D01*
X7273Y6254D01*
X7270Y6255D01*
X7269Y6255D01*
X7268Y6256D01*
X7262Y6256D01*
X7057Y6256D01*
X7057Y6313D01*
X7064Y6339D01*
X7077Y6362D01*
X7096Y6381D01*
X7119Y6394D01*
X7124Y6395D01*
X7125Y6396D01*
X7127Y6397D01*
X7130Y6398D01*
X7132Y6399D01*
X7134Y6401D01*
X7136Y6402D01*
X7137Y6404D01*
X7139Y6406D01*
X7140Y6408D01*
X7142Y6409D01*
X7142Y6412D01*
X7144Y6414D01*
X7144Y6416D01*
X7145Y6418D01*
X7145Y6424D01*
X7145Y7555D01*
X7145Y7557D01*
X7145Y7559D01*
X7144Y7561D01*
X7144Y7564D01*
X7143Y7566D01*
X7142Y7568D01*
X7141Y7570D01*
X7139Y7573D01*
X7138Y7574D01*
X7137Y7576D01*
X7134Y7577D01*
X7132Y7579D01*
X7130Y7580D01*
X7129Y7581D01*
X7124Y7583D01*
X7119Y7584D01*
X7096Y7598D01*
X7077Y7616D01*
X7064Y7639D01*
X7057Y7665D01*
X7057Y7722D01*
X7262Y7722D01*
X7263Y7722D01*
X7264Y7722D01*
X7268Y7723D01*
X7272Y7724D01*
X7273Y7724D01*
X7274Y7725D01*
X7275Y7726D01*
X7278Y7725D01*
X7281Y7723D01*
X7283Y7723D01*
X7284Y7723D01*
X7289Y7722D01*
X7494Y7722D01*
X7494Y7716D01*
X7495Y7715D01*
X7495Y7714D01*
X7495Y7710D01*
X7496Y7706D01*
X7497Y7705D01*
X7497Y7704D01*
X7499Y7701D01*
X7501Y7698D01*
X7501Y7697D01*
X7502Y7696D01*
X7505Y7694D01*
X7508Y7691D01*
X7509Y7691D01*
X7509Y7690D01*
X7513Y7689D01*
X7516Y7687D01*
X7517Y7687D01*
X7518Y7687D01*
X7524Y7686D01*
X7583Y7686D01*
X7590Y7680D01*
X7593Y7677D01*
X7596Y7675D01*
X7597Y7675D01*
X7598Y7674D01*
X7601Y7673D01*
X7605Y7672D01*
X7606Y7672D01*
X7607Y7671D01*
X7608Y7671D01*
X7610Y7671D01*
X11474Y7671D01*
X11478Y7672D01*
X11482Y7672D01*
X11483Y7673D01*
X11484Y7673D01*
X11487Y7675D01*
X11491Y7676D01*
X11491Y7677D01*
X11492Y7677D01*
X11493Y7678D01*
X11495Y7680D01*
X11572Y7757D01*
X11575Y7761D01*
X11577Y7764D01*
X11577Y7765D01*
X11579Y7769D01*
X11580Y7774D01*
X11580Y7778D01*
X11580Y7783D01*
X11578Y7789D01*
X11529Y7906D01*
X11529Y8094D01*
X11601Y8267D01*
X11733Y8399D01*
X11906Y8471D01*
X12094Y8471D01*
X12267Y8399D01*
X12399Y8267D01*
X12471Y8094D01*
X12471Y7906D01*
X12430Y7809D01*
X12430Y7808D01*
X12429Y7804D01*
X12428Y7799D01*
X12429Y7794D01*
X12429Y7790D01*
X12429Y7789D01*
X12431Y7785D01*
X12433Y7781D01*
X12437Y7777D01*
X13179Y7034D01*
X13276Y6937D01*
X13276Y1063D01*
X13248Y1035D01*
X13246Y1032D01*
X13244Y1029D01*
X13243Y1028D01*
X13243Y1027D01*
X13242Y1024D01*
X13240Y1020D01*
X13240Y1019D01*
X13240Y1018D01*
X13240Y1017D01*
X13240Y1014D01*
X13240Y952D01*
X13203Y864D01*
X13136Y797D01*
X13048Y760D01*
X12952Y760D01*
G37*
%LPD*%
%LPC*%
G36*
X7906Y1529D02*
X7906Y1529D01*
X7733Y1601D01*
X7601Y1733D01*
X7529Y1906D01*
X7529Y2094D01*
X7601Y2267D01*
X7733Y2399D01*
X7906Y2471D01*
X8094Y2471D01*
X8267Y2399D01*
X8399Y2267D01*
X8471Y2094D01*
X8471Y1906D01*
X8399Y1733D01*
X8267Y1601D01*
X8094Y1529D01*
X7906Y1529D01*
G37*
%LPD*%
%LPC*%
G36*
X12059Y10059D02*
X12059Y10059D01*
X12059Y10467D01*
X12110Y10459D01*
X12181Y10436D01*
X12247Y10403D01*
X12307Y10359D01*
X12359Y10307D01*
X12403Y10247D01*
X12436Y10181D01*
X12459Y10110D01*
X12467Y10059D01*
X12059Y10059D01*
G37*
%LPD*%
%LPC*%
G36*
X11533Y10059D02*
X11533Y10059D01*
X11541Y10110D01*
X11564Y10181D01*
X11597Y10247D01*
X11641Y10307D01*
X11693Y10359D01*
X11753Y10403D01*
X11819Y10436D01*
X11890Y10459D01*
X11941Y10467D01*
X11941Y10059D01*
X11533Y10059D01*
G37*
%LPD*%
%LPC*%
G36*
X12059Y9941D02*
X12059Y9941D01*
X12467Y9941D01*
X12459Y9890D01*
X12436Y9819D01*
X12403Y9753D01*
X12359Y9693D01*
X12307Y9641D01*
X12247Y9597D01*
X12181Y9564D01*
X12110Y9541D01*
X12059Y9533D01*
X12059Y9941D01*
G37*
%LPD*%
%LPC*%
G36*
X11890Y9541D02*
X11890Y9541D01*
X11819Y9564D01*
X11753Y9597D01*
X11693Y9641D01*
X11641Y9693D01*
X11597Y9753D01*
X11564Y9819D01*
X11541Y9890D01*
X11533Y9941D01*
X11941Y9941D01*
X11941Y9533D01*
X11890Y9541D01*
G37*
%LPD*%
%LPC*%
G36*
X12059Y9059D02*
X12059Y9059D01*
X12059Y9467D01*
X12110Y9459D01*
X12181Y9436D01*
X12247Y9403D01*
X12307Y9359D01*
X12359Y9307D01*
X12403Y9247D01*
X12436Y9181D01*
X12459Y9110D01*
X12467Y9059D01*
X12059Y9059D01*
G37*
%LPD*%
%LPC*%
G36*
X11533Y9059D02*
X11533Y9059D01*
X11541Y9110D01*
X11564Y9181D01*
X11597Y9247D01*
X11641Y9307D01*
X11693Y9359D01*
X11753Y9403D01*
X11819Y9436D01*
X11890Y9459D01*
X11941Y9467D01*
X11941Y9059D01*
X11533Y9059D01*
G37*
%LPD*%
%LPC*%
G36*
X11890Y8541D02*
X11890Y8541D01*
X11819Y8564D01*
X11753Y8597D01*
X11693Y8641D01*
X11641Y8693D01*
X11597Y8753D01*
X11564Y8819D01*
X11541Y8890D01*
X11533Y8941D01*
X11941Y8941D01*
X11941Y8533D01*
X11890Y8541D01*
G37*
%LPD*%
%LPC*%
G36*
X12059Y8941D02*
X12059Y8941D01*
X12467Y8941D01*
X12459Y8890D01*
X12436Y8819D01*
X12403Y8753D01*
X12359Y8693D01*
X12307Y8641D01*
X12247Y8597D01*
X12181Y8564D01*
X12110Y8541D01*
X12059Y8533D01*
X12059Y8941D01*
G37*
%LPD*%
%LPC*%
G36*
X1533Y6059D02*
X1533Y6059D01*
X1541Y6110D01*
X1564Y6181D01*
X1597Y6247D01*
X1641Y6307D01*
X1693Y6359D01*
X1753Y6403D01*
X1819Y6436D01*
X1890Y6459D01*
X1941Y6467D01*
X1941Y6059D01*
X1533Y6059D01*
G37*
%LPD*%
%LPC*%
G36*
X2059Y6059D02*
X2059Y6059D01*
X2059Y6467D01*
X2110Y6459D01*
X2181Y6436D01*
X2247Y6403D01*
X2307Y6359D01*
X2359Y6307D01*
X2403Y6247D01*
X2436Y6181D01*
X2459Y6110D01*
X2467Y6059D01*
X2059Y6059D01*
G37*
%LPD*%
%LPC*%
G36*
X1890Y5541D02*
X1890Y5541D01*
X1819Y5564D01*
X1753Y5597D01*
X1693Y5641D01*
X1641Y5693D01*
X1597Y5753D01*
X1564Y5819D01*
X1541Y5890D01*
X1533Y5941D01*
X1941Y5941D01*
X1941Y5533D01*
X1890Y5541D01*
G37*
%LPD*%
%LPC*%
G36*
X2059Y5941D02*
X2059Y5941D01*
X2467Y5941D01*
X2459Y5890D01*
X2436Y5819D01*
X2403Y5753D01*
X2359Y5693D01*
X2307Y5641D01*
X2247Y5597D01*
X2181Y5564D01*
X2110Y5541D01*
X2059Y5533D01*
X2059Y5941D01*
G37*
%LPD*%
%LPC*%
G36*
X7059Y2059D02*
X7059Y2059D01*
X7059Y2467D01*
X7110Y2459D01*
X7181Y2436D01*
X7247Y2403D01*
X7307Y2359D01*
X7359Y2307D01*
X7403Y2247D01*
X7436Y2181D01*
X7459Y2110D01*
X7467Y2059D01*
X7059Y2059D01*
G37*
%LPD*%
%LPC*%
G36*
X6533Y2059D02*
X6533Y2059D01*
X6541Y2110D01*
X6564Y2181D01*
X6597Y2247D01*
X6641Y2307D01*
X6693Y2359D01*
X6753Y2403D01*
X6819Y2436D01*
X6890Y2459D01*
X6941Y2467D01*
X6941Y2059D01*
X6533Y2059D01*
G37*
%LPD*%
%LPC*%
G36*
X6890Y1541D02*
X6890Y1541D01*
X6819Y1564D01*
X6753Y1597D01*
X6693Y1641D01*
X6641Y1693D01*
X6597Y1753D01*
X6564Y1819D01*
X6541Y1890D01*
X6533Y1941D01*
X6941Y1941D01*
X6941Y1533D01*
X6890Y1541D01*
G37*
%LPD*%
%LPC*%
G36*
X7059Y1941D02*
X7059Y1941D01*
X7467Y1941D01*
X7459Y1890D01*
X7436Y1819D01*
X7403Y1753D01*
X7359Y1693D01*
X7307Y1641D01*
X7247Y1597D01*
X7181Y1564D01*
X7110Y1541D01*
X7059Y1533D01*
X7059Y1941D01*
G37*
%LPD*%
%LPC*%
G36*
X7144Y6026D02*
X7144Y6026D01*
X7119Y6033D01*
X7096Y6046D01*
X7077Y6065D01*
X7064Y6088D01*
X7057Y6114D01*
X7057Y6171D01*
X7233Y6171D01*
X7233Y6026D01*
X7144Y6026D01*
G37*
%LPD*%
%LPC*%
G36*
X6506Y7807D02*
X6506Y7807D01*
X6506Y7865D01*
X6512Y7890D01*
X6526Y7913D01*
X6544Y7932D01*
X6567Y7945D01*
X6593Y7952D01*
X6682Y7952D01*
X6682Y7807D01*
X6506Y7807D01*
G37*
%LPD*%
%LPC*%
G36*
X7057Y7807D02*
X7057Y7807D01*
X7057Y7865D01*
X7064Y7890D01*
X7077Y7913D01*
X7096Y7932D01*
X7119Y7945D01*
X7144Y7952D01*
X7233Y7952D01*
X7233Y7807D01*
X7057Y7807D01*
G37*
%LPD*%
%LPC*%
G36*
X6767Y7807D02*
X6767Y7807D01*
X6767Y7952D01*
X6856Y7952D01*
X6881Y7945D01*
X6904Y7932D01*
X6923Y7913D01*
X6936Y7890D01*
X6943Y7865D01*
X6943Y7807D01*
X6767Y7807D01*
G37*
%LPD*%
%LPC*%
G36*
X7318Y7807D02*
X7318Y7807D01*
X7318Y7952D01*
X7407Y7952D01*
X7433Y7945D01*
X7456Y7932D01*
X7474Y7913D01*
X7488Y7890D01*
X7494Y7865D01*
X7494Y7807D01*
X7318Y7807D01*
G37*
%LPD*%
%LPC*%
G36*
X6767Y6026D02*
X6767Y6026D01*
X6767Y6171D01*
X6943Y6171D01*
X6943Y6114D01*
X6936Y6088D01*
X6923Y6065D01*
X6904Y6046D01*
X6881Y6033D01*
X6856Y6026D01*
X6767Y6026D01*
G37*
%LPD*%
%LPC*%
G36*
X7318Y6026D02*
X7318Y6026D01*
X7318Y6171D01*
X7494Y6171D01*
X7494Y6114D01*
X7488Y6088D01*
X7474Y6065D01*
X7456Y6046D01*
X7433Y6033D01*
X7407Y6026D01*
X7318Y6026D01*
G37*
%LPD*%
%LPC*%
G36*
X11999Y9999D02*
X11999Y9999D01*
X11999Y10001D01*
X12001Y10001D01*
X12001Y9999D01*
X11999Y9999D01*
G37*
%LPD*%
%LPC*%
G36*
X11999Y8999D02*
X11999Y8999D01*
X11999Y9001D01*
X12001Y9001D01*
X12001Y8999D01*
X11999Y8999D01*
G37*
%LPD*%
%LPC*%
G36*
X1999Y5999D02*
X1999Y5999D01*
X1999Y6001D01*
X2001Y6001D01*
X2001Y5999D01*
X1999Y5999D01*
G37*
%LPD*%
%LPC*%
G36*
X6999Y1999D02*
X6999Y1999D01*
X6999Y2001D01*
X7001Y2001D01*
X7001Y1999D01*
X6999Y1999D01*
G37*
%LPD*%
D10*
X2000Y10000D03*
X2000Y9000D03*
X2000Y8000D03*
X2000Y7000D03*
X2000Y6000D03*
X2000Y5000D03*
X2000Y4000D03*
X2000Y3000D03*
X2000Y2000D03*
X12000Y10000D03*
X12000Y9000D03*
X12000Y8000D03*
X12000Y7000D03*
X12000Y6000D03*
X12000Y5000D03*
X12000Y4000D03*
X12000Y3000D03*
X12000Y2000D03*
X5000Y2000D03*
X6000Y2000D03*
X7000Y2000D03*
X8000Y2000D03*
X9000Y2000D03*
D11*
X6606Y6438D03*
X6606Y6595D03*
X6606Y6753D03*
X6606Y6910D03*
X6606Y7068D03*
X6606Y7225D03*
X6606Y7383D03*
X6606Y7540D03*
X7394Y6438D03*
X7394Y6595D03*
X7394Y6753D03*
X7394Y6910D03*
X7394Y7068D03*
X7394Y7225D03*
X7394Y7383D03*
X7394Y7540D03*
D12*
X7276Y6214D03*
X6724Y6214D03*
X6724Y7765D03*
X7276Y7765D03*
D13*
X6606Y7540D02*
X3260Y7540D01*
X3100Y7700D01*
X3100Y8900D01*
X2000Y10000D01*
X3067Y7383D02*
X6606Y7383D01*
X3067Y7383D02*
X2850Y7600D01*
X2850Y8150D01*
X2000Y9000D01*
D14*
X1500Y9000D01*
X1000Y8500D01*
X1000Y1250D01*
X1250Y1000D01*
X3750Y1000D01*
X5000Y2000D01*
D13*
X6606Y7225D02*
X2775Y7225D01*
X2000Y8000D01*
X2068Y7068D02*
X6606Y7068D01*
X2068Y7068D02*
X2000Y7000D01*
X3153Y6753D02*
X6606Y6753D01*
X3153Y6753D02*
X2700Y6300D01*
X2700Y5500D01*
X2200Y5000D01*
X2000Y5000D01*
X3345Y6595D02*
X6606Y6595D01*
X3345Y6595D02*
X2950Y6200D01*
X2950Y4950D01*
X2000Y4000D01*
X3638Y6438D02*
X6606Y6438D01*
X3638Y6438D02*
X3250Y6050D01*
X3250Y4250D01*
X2000Y3000D01*
X7394Y6438D02*
X7762Y6438D01*
X7850Y6350D01*
X7850Y6150D01*
X7760Y6060D01*
X7450Y5750D01*
X6600Y5750D02*
X6100Y6250D01*
X3950Y6250D01*
X3550Y5850D01*
X3550Y3550D01*
X2000Y2000D01*
X6600Y5750D02*
X7450Y5750D01*
D15*
X8220Y6170D03*
D13*
X7870Y6170D01*
X7850Y6150D01*
X7394Y6595D02*
X10380Y6595D01*
X10650Y6375D01*
X10650Y2550D01*
X11250Y2000D02*
X12000Y2000D01*
X11250Y2000D02*
X10650Y2550D01*
X10722Y6753D02*
X7394Y6753D01*
X10722Y6753D02*
X10850Y6575D01*
X10850Y3425D01*
X11375Y3000D02*
X12000Y3000D01*
X11375Y3000D02*
X10850Y3425D01*
X10865Y6910D02*
X7394Y6910D01*
X10865Y6910D02*
X11025Y6750D01*
X11025Y4600D01*
X11625Y4000D01*
X12000Y4000D01*
X11007Y7068D02*
X7394Y7068D01*
X11200Y6875D02*
X11200Y5375D01*
X11625Y5000D01*
X12000Y5000D01*
X11200Y6875D02*
X11007Y7068D01*
X6606Y6910D02*
X2910Y6910D01*
X2000Y6000D01*
X6724Y7765D02*
X7000Y7765D01*
X7276Y7765D01*
X7000Y6214D02*
X6724Y6214D01*
X7000Y6214D02*
X7276Y6214D01*
X7000Y6214D02*
X7000Y6900D01*
X7000Y7765D01*
X6990Y6910D02*
X6606Y6910D01*
X6990Y6910D02*
X7000Y6900D01*
X7276Y7765D02*
X10765Y7765D01*
X12000Y9000D01*
D15*
X7000Y8021D03*
D13*
X7000Y7765D01*
X12000Y9000D02*
X12000Y10000D01*
X11617Y7383D02*
X7394Y7383D01*
X11617Y7383D02*
X12000Y7000D01*
D16*
X12875Y6125D01*
X12875Y1375D01*
X6875Y1125D02*
X6000Y2000D01*
X12625Y1125D02*
X12875Y1375D01*
X12625Y1125D02*
X6875Y1125D01*
D13*
X7394Y7540D02*
X11540Y7540D01*
X12000Y8000D01*
D16*
X13125Y6875D01*
X13125Y1125D02*
X13000Y1000D01*
D15*
X13000Y1000D03*
D16*
X13125Y1125D02*
X13125Y6875D01*
D13*
X11150Y7225D02*
X7394Y7225D01*
X11375Y7000D02*
X11375Y6375D01*
X11750Y6000D01*
X12000Y6000D01*
X11375Y7000D02*
X11150Y7225D01*
D16*
X12000Y6000D02*
X12250Y6000D01*
X12625Y5625D01*
X12625Y1625D01*
X12375Y1375D01*
X9625Y1375D01*
X9000Y2000D01*
D13*
X4750Y8250D02*
X1250Y11750D01*
X4750Y8250D02*
X10500Y8250D01*
X11250Y9000D01*
X11250Y11750D01*
M02*
