G04 EAGLE Gerber X2 export*
G75*
%MOIN*%
%FSLAX24Y24*%
%LPD*%
%AMOC8*
5,1,8,0,0,1.08239X$1,22.5*%
G01*
%ADD10C,0.006000*%
%ADD11C,0.005000*%


D10*
X3331Y5709D02*
X3333Y5778D01*
X3339Y5847D01*
X3349Y5915D01*
X3363Y5983D01*
X3380Y6049D01*
X3402Y6115D01*
X3427Y6179D01*
X3456Y6242D01*
X3489Y6303D01*
X3524Y6361D01*
X3564Y6418D01*
X3606Y6473D01*
X3652Y6524D01*
X3700Y6574D01*
X3751Y6620D01*
X3805Y6663D01*
X3861Y6703D01*
X3920Y6740D01*
X3980Y6773D01*
X4042Y6803D01*
X4106Y6829D01*
X4171Y6852D01*
X4238Y6870D01*
X4305Y6885D01*
X4373Y6896D01*
X4442Y6903D01*
X4511Y6906D01*
X4580Y6905D01*
X4649Y6900D01*
X4717Y6891D01*
X4785Y6878D01*
X4852Y6861D01*
X4918Y6841D01*
X4982Y6817D01*
X5045Y6789D01*
X5106Y6757D01*
X5166Y6722D01*
X5223Y6683D01*
X5278Y6642D01*
X5331Y6597D01*
X5380Y6549D01*
X5427Y6499D01*
X5471Y6446D01*
X5512Y6390D01*
X5550Y6332D01*
X5584Y6272D01*
X5615Y6211D01*
X5642Y6147D01*
X5665Y6082D01*
X5685Y6016D01*
X5701Y5949D01*
X5713Y5881D01*
X5721Y5812D01*
X5725Y5743D01*
X5725Y5675D01*
X5721Y5606D01*
X5713Y5537D01*
X5701Y5469D01*
X5685Y5402D01*
X5665Y5336D01*
X5642Y5271D01*
X5615Y5207D01*
X5584Y5146D01*
X5550Y5086D01*
X5512Y5028D01*
X5471Y4972D01*
X5427Y4919D01*
X5380Y4869D01*
X5331Y4821D01*
X5278Y4776D01*
X5223Y4735D01*
X5166Y4696D01*
X5106Y4661D01*
X5045Y4629D01*
X4982Y4601D01*
X4918Y4577D01*
X4852Y4557D01*
X4785Y4540D01*
X4717Y4527D01*
X4649Y4518D01*
X4580Y4513D01*
X4511Y4512D01*
X4442Y4515D01*
X4373Y4522D01*
X4305Y4533D01*
X4238Y4548D01*
X4171Y4566D01*
X4106Y4589D01*
X4042Y4615D01*
X3980Y4645D01*
X3920Y4678D01*
X3861Y4715D01*
X3805Y4755D01*
X3751Y4798D01*
X3700Y4844D01*
X3652Y4894D01*
X3606Y4945D01*
X3564Y5000D01*
X3524Y5057D01*
X3489Y5115D01*
X3456Y5176D01*
X3427Y5239D01*
X3402Y5303D01*
X3380Y5369D01*
X3363Y5435D01*
X3349Y5503D01*
X3339Y5571D01*
X3333Y5640D01*
X3331Y5709D01*
X2953Y5709D02*
X2955Y5788D01*
X2961Y5867D01*
X2971Y5946D01*
X2985Y6024D01*
X3002Y6101D01*
X3024Y6177D01*
X3049Y6252D01*
X3079Y6325D01*
X3111Y6397D01*
X3148Y6468D01*
X3188Y6536D01*
X3231Y6602D01*
X3277Y6666D01*
X3327Y6728D01*
X3380Y6787D01*
X3435Y6843D01*
X3494Y6897D01*
X3555Y6947D01*
X3618Y6995D01*
X3684Y7039D01*
X3752Y7080D01*
X3822Y7117D01*
X3893Y7151D01*
X3967Y7181D01*
X4041Y7207D01*
X4117Y7229D01*
X4194Y7248D01*
X4272Y7263D01*
X4350Y7274D01*
X4429Y7281D01*
X4508Y7284D01*
X4587Y7283D01*
X4666Y7278D01*
X4745Y7269D01*
X4823Y7256D01*
X4900Y7239D01*
X4977Y7219D01*
X5052Y7194D01*
X5126Y7166D01*
X5199Y7134D01*
X5269Y7099D01*
X5338Y7060D01*
X5405Y7017D01*
X5470Y6971D01*
X5532Y6923D01*
X5592Y6871D01*
X5649Y6816D01*
X5703Y6758D01*
X5754Y6698D01*
X5802Y6635D01*
X5847Y6570D01*
X5889Y6502D01*
X5927Y6433D01*
X5961Y6362D01*
X5992Y6289D01*
X6020Y6214D01*
X6043Y6139D01*
X6063Y6062D01*
X6079Y5985D01*
X6091Y5906D01*
X6099Y5828D01*
X6103Y5749D01*
X6103Y5669D01*
X6099Y5590D01*
X6091Y5512D01*
X6079Y5433D01*
X6063Y5356D01*
X6043Y5279D01*
X6020Y5204D01*
X5992Y5129D01*
X5961Y5056D01*
X5927Y4985D01*
X5889Y4916D01*
X5847Y4848D01*
X5802Y4783D01*
X5754Y4720D01*
X5703Y4660D01*
X5649Y4602D01*
X5592Y4547D01*
X5532Y4495D01*
X5470Y4447D01*
X5405Y4401D01*
X5338Y4358D01*
X5269Y4319D01*
X5199Y4284D01*
X5126Y4252D01*
X5052Y4224D01*
X4977Y4199D01*
X4900Y4179D01*
X4823Y4162D01*
X4745Y4149D01*
X4666Y4140D01*
X4587Y4135D01*
X4508Y4134D01*
X4429Y4137D01*
X4350Y4144D01*
X4272Y4155D01*
X4194Y4170D01*
X4117Y4189D01*
X4041Y4211D01*
X3967Y4237D01*
X3893Y4267D01*
X3822Y4301D01*
X3752Y4338D01*
X3684Y4379D01*
X3618Y4423D01*
X3555Y4471D01*
X3494Y4521D01*
X3435Y4575D01*
X3380Y4631D01*
X3327Y4690D01*
X3277Y4752D01*
X3231Y4816D01*
X3188Y4882D01*
X3148Y4950D01*
X3111Y5021D01*
X3079Y5093D01*
X3049Y5166D01*
X3024Y5241D01*
X3002Y5317D01*
X2985Y5394D01*
X2971Y5472D01*
X2961Y5551D01*
X2955Y5630D01*
X2953Y5709D01*
X2559Y5709D02*
X2561Y5797D01*
X2567Y5885D01*
X2577Y5973D01*
X2591Y6061D01*
X2608Y6147D01*
X2630Y6233D01*
X2655Y6317D01*
X2685Y6401D01*
X2717Y6483D01*
X2754Y6563D01*
X2794Y6642D01*
X2838Y6719D01*
X2885Y6794D01*
X2935Y6866D01*
X2989Y6937D01*
X3045Y7004D01*
X3105Y7070D01*
X3167Y7132D01*
X3233Y7192D01*
X3300Y7248D01*
X3371Y7302D01*
X3443Y7352D01*
X3518Y7399D01*
X3595Y7443D01*
X3674Y7483D01*
X3754Y7520D01*
X3836Y7552D01*
X3920Y7582D01*
X4004Y7607D01*
X4090Y7629D01*
X4176Y7646D01*
X4264Y7660D01*
X4352Y7670D01*
X4440Y7676D01*
X4528Y7678D01*
X4616Y7676D01*
X4704Y7670D01*
X4792Y7660D01*
X4880Y7646D01*
X4966Y7629D01*
X5052Y7607D01*
X5136Y7582D01*
X5220Y7552D01*
X5302Y7520D01*
X5382Y7483D01*
X5461Y7443D01*
X5538Y7399D01*
X5613Y7352D01*
X5685Y7302D01*
X5756Y7248D01*
X5823Y7192D01*
X5889Y7132D01*
X5951Y7070D01*
X6011Y7004D01*
X6067Y6937D01*
X6121Y6866D01*
X6171Y6794D01*
X6218Y6719D01*
X6262Y6642D01*
X6302Y6563D01*
X6339Y6483D01*
X6371Y6401D01*
X6401Y6317D01*
X6426Y6233D01*
X6448Y6147D01*
X6465Y6061D01*
X6479Y5973D01*
X6489Y5885D01*
X6495Y5797D01*
X6497Y5709D01*
X6495Y5621D01*
X6489Y5533D01*
X6479Y5445D01*
X6465Y5357D01*
X6448Y5271D01*
X6426Y5185D01*
X6401Y5101D01*
X6371Y5017D01*
X6339Y4935D01*
X6302Y4855D01*
X6262Y4776D01*
X6218Y4699D01*
X6171Y4624D01*
X6121Y4552D01*
X6067Y4481D01*
X6011Y4414D01*
X5951Y4348D01*
X5889Y4286D01*
X5823Y4226D01*
X5756Y4170D01*
X5685Y4116D01*
X5613Y4066D01*
X5538Y4019D01*
X5461Y3975D01*
X5382Y3935D01*
X5302Y3898D01*
X5220Y3866D01*
X5136Y3836D01*
X5052Y3811D01*
X4966Y3789D01*
X4880Y3772D01*
X4792Y3758D01*
X4704Y3748D01*
X4616Y3742D01*
X4528Y3740D01*
X4440Y3742D01*
X4352Y3748D01*
X4264Y3758D01*
X4176Y3772D01*
X4090Y3789D01*
X4004Y3811D01*
X3920Y3836D01*
X3836Y3866D01*
X3754Y3898D01*
X3674Y3935D01*
X3595Y3975D01*
X3518Y4019D01*
X3443Y4066D01*
X3371Y4116D01*
X3300Y4170D01*
X3233Y4226D01*
X3167Y4286D01*
X3105Y4348D01*
X3045Y4414D01*
X2989Y4481D01*
X2935Y4552D01*
X2885Y4624D01*
X2838Y4699D01*
X2794Y4776D01*
X2754Y4855D01*
X2717Y4935D01*
X2685Y5017D01*
X2655Y5101D01*
X2630Y5185D01*
X2608Y5271D01*
X2591Y5357D01*
X2577Y5445D01*
X2567Y5533D01*
X2561Y5621D01*
X2559Y5709D01*
X2166Y5709D02*
X2168Y5806D01*
X2174Y5903D01*
X2184Y5999D01*
X2198Y6095D01*
X2216Y6191D01*
X2237Y6285D01*
X2263Y6379D01*
X2292Y6471D01*
X2326Y6562D01*
X2362Y6652D01*
X2403Y6740D01*
X2447Y6826D01*
X2495Y6911D01*
X2546Y6993D01*
X2600Y7074D01*
X2658Y7152D01*
X2719Y7227D01*
X2782Y7300D01*
X2849Y7371D01*
X2919Y7438D01*
X2991Y7503D01*
X3066Y7564D01*
X3144Y7623D01*
X3223Y7678D01*
X3305Y7730D01*
X3389Y7778D01*
X3475Y7823D01*
X3563Y7865D01*
X3652Y7903D01*
X3743Y7937D01*
X3835Y7967D01*
X3928Y7994D01*
X4023Y8016D01*
X4118Y8035D01*
X4214Y8050D01*
X4310Y8061D01*
X4407Y8068D01*
X4504Y8071D01*
X4601Y8070D01*
X4698Y8065D01*
X4794Y8056D01*
X4890Y8043D01*
X4986Y8026D01*
X5081Y8005D01*
X5174Y7981D01*
X5267Y7952D01*
X5359Y7920D01*
X5449Y7884D01*
X5537Y7845D01*
X5624Y7801D01*
X5709Y7755D01*
X5792Y7704D01*
X5873Y7651D01*
X5951Y7594D01*
X6028Y7534D01*
X6101Y7471D01*
X6172Y7405D01*
X6240Y7336D01*
X6306Y7264D01*
X6368Y7190D01*
X6427Y7113D01*
X6483Y7034D01*
X6536Y6952D01*
X6586Y6869D01*
X6631Y6783D01*
X6674Y6696D01*
X6713Y6607D01*
X6748Y6517D01*
X6779Y6425D01*
X6806Y6332D01*
X6830Y6238D01*
X6850Y6143D01*
X6866Y6047D01*
X6878Y5951D01*
X6886Y5854D01*
X6890Y5757D01*
X6890Y5661D01*
X6886Y5564D01*
X6878Y5467D01*
X6866Y5371D01*
X6850Y5275D01*
X6830Y5180D01*
X6806Y5086D01*
X6779Y4993D01*
X6748Y4901D01*
X6713Y4811D01*
X6674Y4722D01*
X6631Y4635D01*
X6586Y4549D01*
X6536Y4466D01*
X6483Y4384D01*
X6427Y4305D01*
X6368Y4228D01*
X6306Y4154D01*
X6240Y4082D01*
X6172Y4013D01*
X6101Y3947D01*
X6028Y3884D01*
X5951Y3824D01*
X5873Y3767D01*
X5792Y3714D01*
X5709Y3663D01*
X5624Y3617D01*
X5537Y3573D01*
X5449Y3534D01*
X5359Y3498D01*
X5267Y3466D01*
X5174Y3437D01*
X5081Y3413D01*
X4986Y3392D01*
X4890Y3375D01*
X4794Y3362D01*
X4698Y3353D01*
X4601Y3348D01*
X4504Y3347D01*
X4407Y3350D01*
X4310Y3357D01*
X4214Y3368D01*
X4118Y3383D01*
X4023Y3402D01*
X3928Y3424D01*
X3835Y3451D01*
X3743Y3481D01*
X3652Y3515D01*
X3563Y3553D01*
X3475Y3595D01*
X3389Y3640D01*
X3305Y3688D01*
X3223Y3740D01*
X3144Y3795D01*
X3066Y3854D01*
X2991Y3915D01*
X2919Y3980D01*
X2849Y4047D01*
X2782Y4118D01*
X2719Y4191D01*
X2658Y4266D01*
X2600Y4344D01*
X2546Y4425D01*
X2495Y4507D01*
X2447Y4592D01*
X2403Y4678D01*
X2362Y4766D01*
X2326Y4856D01*
X2292Y4947D01*
X2263Y5039D01*
X2237Y5133D01*
X2216Y5227D01*
X2198Y5323D01*
X2184Y5419D01*
X2174Y5515D01*
X2168Y5612D01*
X2166Y5709D01*
X1765Y5709D02*
X1767Y5814D01*
X1773Y5918D01*
X1783Y6022D01*
X1797Y6126D01*
X1814Y6229D01*
X1836Y6331D01*
X1861Y6433D01*
X1891Y6533D01*
X1924Y6632D01*
X1961Y6730D01*
X2001Y6826D01*
X2045Y6921D01*
X2093Y7014D01*
X2144Y7106D01*
X2198Y7195D01*
X2256Y7282D01*
X2318Y7367D01*
X2382Y7449D01*
X2449Y7529D01*
X2520Y7606D01*
X2593Y7681D01*
X2669Y7753D01*
X2748Y7822D01*
X2829Y7888D01*
X2912Y7950D01*
X2998Y8010D01*
X3087Y8066D01*
X3177Y8119D01*
X3269Y8168D01*
X3363Y8214D01*
X3459Y8257D01*
X3556Y8295D01*
X3654Y8330D01*
X3754Y8361D01*
X3855Y8389D01*
X3957Y8412D01*
X4060Y8432D01*
X4163Y8448D01*
X4267Y8460D01*
X4371Y8468D01*
X4476Y8472D01*
X4580Y8472D01*
X4685Y8468D01*
X4789Y8460D01*
X4893Y8448D01*
X4996Y8432D01*
X5099Y8412D01*
X5201Y8389D01*
X5302Y8361D01*
X5402Y8330D01*
X5500Y8295D01*
X5597Y8257D01*
X5693Y8214D01*
X5787Y8168D01*
X5879Y8119D01*
X5969Y8066D01*
X6058Y8010D01*
X6144Y7950D01*
X6227Y7888D01*
X6308Y7822D01*
X6387Y7753D01*
X6463Y7681D01*
X6536Y7606D01*
X6607Y7529D01*
X6674Y7449D01*
X6738Y7367D01*
X6800Y7282D01*
X6858Y7195D01*
X6912Y7106D01*
X6963Y7014D01*
X7011Y6921D01*
X7055Y6826D01*
X7095Y6730D01*
X7132Y6632D01*
X7165Y6533D01*
X7195Y6433D01*
X7220Y6331D01*
X7242Y6229D01*
X7259Y6126D01*
X7273Y6022D01*
X7283Y5918D01*
X7289Y5814D01*
X7291Y5709D01*
X7289Y5604D01*
X7283Y5500D01*
X7273Y5396D01*
X7259Y5292D01*
X7242Y5189D01*
X7220Y5087D01*
X7195Y4985D01*
X7165Y4885D01*
X7132Y4786D01*
X7095Y4688D01*
X7055Y4592D01*
X7011Y4497D01*
X6963Y4404D01*
X6912Y4312D01*
X6858Y4223D01*
X6800Y4136D01*
X6738Y4051D01*
X6674Y3969D01*
X6607Y3889D01*
X6536Y3812D01*
X6463Y3737D01*
X6387Y3665D01*
X6308Y3596D01*
X6227Y3530D01*
X6144Y3468D01*
X6058Y3408D01*
X5969Y3352D01*
X5879Y3299D01*
X5787Y3250D01*
X5693Y3204D01*
X5597Y3161D01*
X5500Y3123D01*
X5402Y3088D01*
X5302Y3057D01*
X5201Y3029D01*
X5099Y3006D01*
X4996Y2986D01*
X4893Y2970D01*
X4789Y2958D01*
X4685Y2950D01*
X4580Y2946D01*
X4476Y2946D01*
X4371Y2950D01*
X4267Y2958D01*
X4163Y2970D01*
X4060Y2986D01*
X3957Y3006D01*
X3855Y3029D01*
X3754Y3057D01*
X3654Y3088D01*
X3556Y3123D01*
X3459Y3161D01*
X3363Y3204D01*
X3269Y3250D01*
X3177Y3299D01*
X3087Y3352D01*
X2998Y3408D01*
X2912Y3468D01*
X2829Y3530D01*
X2748Y3596D01*
X2669Y3665D01*
X2593Y3737D01*
X2520Y3812D01*
X2449Y3889D01*
X2382Y3969D01*
X2318Y4051D01*
X2256Y4136D01*
X2198Y4223D01*
X2144Y4312D01*
X2093Y4404D01*
X2045Y4497D01*
X2001Y4592D01*
X1961Y4688D01*
X1924Y4786D01*
X1891Y4885D01*
X1861Y4985D01*
X1836Y5087D01*
X1814Y5189D01*
X1797Y5292D01*
X1783Y5396D01*
X1773Y5500D01*
X1767Y5604D01*
X1765Y5709D01*
X1378Y5709D02*
X1380Y5821D01*
X1386Y5932D01*
X1396Y6044D01*
X1410Y6155D01*
X1427Y6265D01*
X1449Y6375D01*
X1475Y6484D01*
X1504Y6592D01*
X1537Y6698D01*
X1574Y6804D01*
X1615Y6908D01*
X1660Y7011D01*
X1708Y7112D01*
X1759Y7211D01*
X1814Y7308D01*
X1873Y7403D01*
X1934Y7497D01*
X1999Y7588D01*
X2068Y7676D01*
X2139Y7762D01*
X2213Y7846D01*
X2291Y7926D01*
X2371Y8004D01*
X2454Y8080D01*
X2539Y8152D01*
X2627Y8221D01*
X2717Y8287D01*
X2810Y8349D01*
X2905Y8409D01*
X3002Y8465D01*
X3100Y8517D01*
X3201Y8566D01*
X3303Y8611D01*
X3407Y8653D01*
X3512Y8691D01*
X3619Y8725D01*
X3726Y8755D01*
X3835Y8782D01*
X3944Y8804D01*
X4055Y8823D01*
X4165Y8838D01*
X4277Y8849D01*
X4388Y8856D01*
X4500Y8859D01*
X4612Y8858D01*
X4724Y8853D01*
X4835Y8844D01*
X4946Y8831D01*
X5057Y8814D01*
X5167Y8794D01*
X5276Y8769D01*
X5384Y8741D01*
X5491Y8708D01*
X5597Y8672D01*
X5701Y8632D01*
X5804Y8589D01*
X5906Y8542D01*
X6005Y8491D01*
X6103Y8437D01*
X6199Y8379D01*
X6293Y8318D01*
X6384Y8254D01*
X6473Y8187D01*
X6560Y8116D01*
X6644Y8042D01*
X6726Y7966D01*
X6804Y7886D01*
X6880Y7804D01*
X6953Y7719D01*
X7023Y7632D01*
X7089Y7542D01*
X7153Y7450D01*
X7213Y7356D01*
X7270Y7260D01*
X7323Y7161D01*
X7373Y7061D01*
X7419Y6960D01*
X7462Y6856D01*
X7501Y6751D01*
X7536Y6645D01*
X7567Y6538D01*
X7595Y6429D01*
X7618Y6320D01*
X7638Y6210D01*
X7654Y6099D01*
X7666Y5988D01*
X7674Y5877D01*
X7678Y5765D01*
X7678Y5653D01*
X7674Y5541D01*
X7666Y5430D01*
X7654Y5319D01*
X7638Y5208D01*
X7618Y5098D01*
X7595Y4989D01*
X7567Y4880D01*
X7536Y4773D01*
X7501Y4667D01*
X7462Y4562D01*
X7419Y4458D01*
X7373Y4357D01*
X7323Y4257D01*
X7270Y4158D01*
X7213Y4062D01*
X7153Y3968D01*
X7089Y3876D01*
X7023Y3786D01*
X6953Y3699D01*
X6880Y3614D01*
X6804Y3532D01*
X6726Y3452D01*
X6644Y3376D01*
X6560Y3302D01*
X6473Y3231D01*
X6384Y3164D01*
X6293Y3100D01*
X6199Y3039D01*
X6103Y2981D01*
X6005Y2927D01*
X5906Y2876D01*
X5804Y2829D01*
X5701Y2786D01*
X5597Y2746D01*
X5491Y2710D01*
X5384Y2677D01*
X5276Y2649D01*
X5167Y2624D01*
X5057Y2604D01*
X4946Y2587D01*
X4835Y2574D01*
X4724Y2565D01*
X4612Y2560D01*
X4500Y2559D01*
X4388Y2562D01*
X4277Y2569D01*
X4165Y2580D01*
X4055Y2595D01*
X3944Y2614D01*
X3835Y2636D01*
X3726Y2663D01*
X3619Y2693D01*
X3512Y2727D01*
X3407Y2765D01*
X3303Y2807D01*
X3201Y2852D01*
X3100Y2901D01*
X3002Y2953D01*
X2905Y3009D01*
X2810Y3069D01*
X2717Y3131D01*
X2627Y3197D01*
X2539Y3266D01*
X2454Y3338D01*
X2371Y3414D01*
X2291Y3492D01*
X2213Y3572D01*
X2139Y3656D01*
X2068Y3742D01*
X1999Y3830D01*
X1934Y3921D01*
X1873Y4015D01*
X1814Y4110D01*
X1759Y4207D01*
X1708Y4306D01*
X1660Y4407D01*
X1615Y4510D01*
X1574Y4614D01*
X1537Y4720D01*
X1504Y4826D01*
X1475Y4934D01*
X1449Y5043D01*
X1427Y5153D01*
X1410Y5263D01*
X1396Y5374D01*
X1386Y5486D01*
X1380Y5597D01*
X1378Y5709D01*
X979Y5709D02*
X981Y5828D01*
X987Y5946D01*
X997Y6064D01*
X1011Y6182D01*
X1028Y6299D01*
X1050Y6416D01*
X1076Y6532D01*
X1105Y6647D01*
X1138Y6760D01*
X1175Y6873D01*
X1216Y6985D01*
X1261Y7094D01*
X1309Y7203D01*
X1360Y7310D01*
X1416Y7415D01*
X1474Y7518D01*
X1537Y7619D01*
X1602Y7718D01*
X1671Y7814D01*
X1743Y7908D01*
X1818Y8000D01*
X1896Y8090D01*
X1977Y8176D01*
X2061Y8260D01*
X2147Y8341D01*
X2237Y8419D01*
X2329Y8494D01*
X2423Y8566D01*
X2519Y8635D01*
X2618Y8700D01*
X2719Y8763D01*
X2822Y8821D01*
X2927Y8877D01*
X3034Y8928D01*
X3143Y8976D01*
X3252Y9021D01*
X3364Y9062D01*
X3477Y9099D01*
X3590Y9132D01*
X3705Y9161D01*
X3821Y9187D01*
X3938Y9209D01*
X4055Y9226D01*
X4173Y9240D01*
X4291Y9250D01*
X4409Y9256D01*
X4528Y9258D01*
X4647Y9256D01*
X4765Y9250D01*
X4883Y9240D01*
X5001Y9226D01*
X5118Y9209D01*
X5235Y9187D01*
X5351Y9161D01*
X5466Y9132D01*
X5579Y9099D01*
X5692Y9062D01*
X5804Y9021D01*
X5913Y8976D01*
X6022Y8928D01*
X6129Y8877D01*
X6234Y8821D01*
X6337Y8763D01*
X6438Y8700D01*
X6537Y8635D01*
X6633Y8566D01*
X6727Y8494D01*
X6819Y8419D01*
X6909Y8341D01*
X6995Y8260D01*
X7079Y8176D01*
X7160Y8090D01*
X7238Y8000D01*
X7313Y7908D01*
X7385Y7814D01*
X7454Y7718D01*
X7519Y7619D01*
X7582Y7518D01*
X7640Y7415D01*
X7696Y7310D01*
X7747Y7203D01*
X7795Y7094D01*
X7840Y6985D01*
X7881Y6873D01*
X7918Y6760D01*
X7951Y6647D01*
X7980Y6532D01*
X8006Y6416D01*
X8028Y6299D01*
X8045Y6182D01*
X8059Y6064D01*
X8069Y5946D01*
X8075Y5828D01*
X8077Y5709D01*
X8075Y5590D01*
X8069Y5472D01*
X8059Y5354D01*
X8045Y5236D01*
X8028Y5119D01*
X8006Y5002D01*
X7980Y4886D01*
X7951Y4771D01*
X7918Y4658D01*
X7881Y4545D01*
X7840Y4433D01*
X7795Y4324D01*
X7747Y4215D01*
X7696Y4108D01*
X7640Y4003D01*
X7582Y3900D01*
X7519Y3799D01*
X7454Y3700D01*
X7385Y3604D01*
X7313Y3510D01*
X7238Y3418D01*
X7160Y3328D01*
X7079Y3242D01*
X6995Y3158D01*
X6909Y3077D01*
X6819Y2999D01*
X6727Y2924D01*
X6633Y2852D01*
X6537Y2783D01*
X6438Y2718D01*
X6337Y2655D01*
X6234Y2597D01*
X6129Y2541D01*
X6022Y2490D01*
X5913Y2442D01*
X5804Y2397D01*
X5692Y2356D01*
X5579Y2319D01*
X5466Y2286D01*
X5351Y2257D01*
X5235Y2231D01*
X5118Y2209D01*
X5001Y2192D01*
X4883Y2178D01*
X4765Y2168D01*
X4647Y2162D01*
X4528Y2160D01*
X4409Y2162D01*
X4291Y2168D01*
X4173Y2178D01*
X4055Y2192D01*
X3938Y2209D01*
X3821Y2231D01*
X3705Y2257D01*
X3590Y2286D01*
X3477Y2319D01*
X3364Y2356D01*
X3252Y2397D01*
X3143Y2442D01*
X3034Y2490D01*
X2927Y2541D01*
X2822Y2597D01*
X2719Y2655D01*
X2618Y2718D01*
X2519Y2783D01*
X2423Y2852D01*
X2329Y2924D01*
X2237Y2999D01*
X2147Y3077D01*
X2061Y3158D01*
X1977Y3242D01*
X1896Y3328D01*
X1818Y3418D01*
X1743Y3510D01*
X1671Y3604D01*
X1602Y3700D01*
X1537Y3799D01*
X1474Y3900D01*
X1416Y4003D01*
X1360Y4108D01*
X1309Y4215D01*
X1261Y4324D01*
X1216Y4433D01*
X1175Y4545D01*
X1138Y4658D01*
X1105Y4771D01*
X1076Y4886D01*
X1050Y5002D01*
X1028Y5119D01*
X1011Y5236D01*
X997Y5354D01*
X987Y5472D01*
X981Y5590D01*
X979Y5709D01*
X197Y5709D02*
X199Y5840D01*
X205Y5972D01*
X215Y6103D01*
X229Y6234D01*
X247Y6364D01*
X269Y6493D01*
X294Y6622D01*
X324Y6750D01*
X358Y6877D01*
X395Y7004D01*
X436Y7128D01*
X481Y7252D01*
X530Y7374D01*
X582Y7495D01*
X638Y7613D01*
X698Y7731D01*
X761Y7846D01*
X828Y7959D01*
X898Y8071D01*
X971Y8180D01*
X1047Y8286D01*
X1127Y8391D01*
X1210Y8493D01*
X1296Y8592D01*
X1385Y8689D01*
X1477Y8783D01*
X1572Y8874D01*
X1669Y8963D01*
X1769Y9048D01*
X1872Y9130D01*
X1977Y9209D01*
X2084Y9285D01*
X2194Y9357D01*
X2306Y9426D01*
X2420Y9492D01*
X2535Y9554D01*
X2653Y9613D01*
X2772Y9668D01*
X2893Y9720D01*
X3016Y9767D01*
X3140Y9811D01*
X3265Y9852D01*
X3391Y9888D01*
X3519Y9921D01*
X3647Y9949D01*
X3776Y9974D01*
X3906Y9995D01*
X4036Y10012D01*
X4167Y10025D01*
X4298Y10034D01*
X4429Y10039D01*
X4561Y10040D01*
X4692Y10037D01*
X4824Y10030D01*
X4955Y10019D01*
X5085Y10004D01*
X5215Y9985D01*
X5345Y9962D01*
X5473Y9936D01*
X5601Y9905D01*
X5728Y9870D01*
X5854Y9832D01*
X5978Y9790D01*
X6102Y9744D01*
X6223Y9694D01*
X6343Y9641D01*
X6462Y9584D01*
X6579Y9524D01*
X6693Y9460D01*
X6806Y9392D01*
X6917Y9321D01*
X7026Y9247D01*
X7132Y9170D01*
X7236Y9089D01*
X7337Y9006D01*
X7436Y8919D01*
X7532Y8829D01*
X7625Y8736D01*
X7716Y8641D01*
X7803Y8543D01*
X7888Y8442D01*
X7969Y8339D01*
X8047Y8233D01*
X8122Y8125D01*
X8194Y8015D01*
X8262Y7903D01*
X8327Y7789D01*
X8388Y7672D01*
X8446Y7554D01*
X8500Y7434D01*
X8551Y7313D01*
X8598Y7190D01*
X8641Y7066D01*
X8680Y6941D01*
X8716Y6814D01*
X8747Y6686D01*
X8775Y6558D01*
X8799Y6429D01*
X8819Y6299D01*
X8835Y6168D01*
X8847Y6037D01*
X8855Y5906D01*
X8859Y5775D01*
X8859Y5643D01*
X8855Y5512D01*
X8847Y5381D01*
X8835Y5250D01*
X8819Y5119D01*
X8799Y4989D01*
X8775Y4860D01*
X8747Y4732D01*
X8716Y4604D01*
X8680Y4477D01*
X8641Y4352D01*
X8598Y4228D01*
X8551Y4105D01*
X8500Y3984D01*
X8446Y3864D01*
X8388Y3746D01*
X8327Y3629D01*
X8262Y3515D01*
X8194Y3403D01*
X8122Y3293D01*
X8047Y3185D01*
X7969Y3079D01*
X7888Y2976D01*
X7803Y2875D01*
X7716Y2777D01*
X7625Y2682D01*
X7532Y2589D01*
X7436Y2499D01*
X7337Y2412D01*
X7236Y2329D01*
X7132Y2248D01*
X7026Y2171D01*
X6917Y2097D01*
X6806Y2026D01*
X6694Y1958D01*
X6579Y1894D01*
X6462Y1834D01*
X6343Y1777D01*
X6223Y1724D01*
X6102Y1674D01*
X5978Y1628D01*
X5854Y1586D01*
X5728Y1548D01*
X5601Y1513D01*
X5473Y1482D01*
X5345Y1456D01*
X5215Y1433D01*
X5085Y1414D01*
X4955Y1399D01*
X4824Y1388D01*
X4692Y1381D01*
X4561Y1378D01*
X4429Y1379D01*
X4298Y1384D01*
X4167Y1393D01*
X4036Y1406D01*
X3906Y1423D01*
X3776Y1444D01*
X3647Y1469D01*
X3519Y1497D01*
X3391Y1530D01*
X3265Y1566D01*
X3140Y1607D01*
X3016Y1651D01*
X2893Y1698D01*
X2772Y1750D01*
X2653Y1805D01*
X2535Y1864D01*
X2420Y1926D01*
X2306Y1992D01*
X2194Y2061D01*
X2084Y2133D01*
X1977Y2209D01*
X1872Y2288D01*
X1769Y2370D01*
X1669Y2455D01*
X1572Y2544D01*
X1477Y2635D01*
X1385Y2729D01*
X1296Y2826D01*
X1210Y2925D01*
X1127Y3027D01*
X1047Y3132D01*
X971Y3238D01*
X898Y3347D01*
X828Y3459D01*
X761Y3572D01*
X698Y3687D01*
X638Y3805D01*
X582Y3923D01*
X530Y4044D01*
X481Y4166D01*
X436Y4290D01*
X395Y4414D01*
X358Y4541D01*
X324Y4668D01*
X294Y4796D01*
X269Y4925D01*
X247Y5054D01*
X229Y5184D01*
X215Y5315D01*
X205Y5446D01*
X199Y5578D01*
X197Y5709D01*
X-201Y5709D02*
X-199Y5846D01*
X-193Y5983D01*
X-183Y6119D01*
X-169Y6255D01*
X-152Y6391D01*
X-130Y6526D01*
X-104Y6661D01*
X-75Y6795D01*
X-41Y6927D01*
X-4Y7059D01*
X37Y7190D01*
X82Y7319D01*
X130Y7447D01*
X182Y7574D01*
X238Y7699D01*
X297Y7822D01*
X360Y7944D01*
X427Y8064D01*
X497Y8181D01*
X570Y8297D01*
X647Y8411D01*
X726Y8522D01*
X809Y8631D01*
X896Y8737D01*
X985Y8841D01*
X1077Y8942D01*
X1172Y9041D01*
X1270Y9137D01*
X1370Y9229D01*
X1474Y9319D01*
X1580Y9406D01*
X1688Y9490D01*
X1798Y9571D01*
X1911Y9648D01*
X2027Y9722D01*
X2144Y9793D01*
X2263Y9860D01*
X2384Y9924D01*
X2507Y9984D01*
X2632Y10041D01*
X2758Y10094D01*
X2886Y10144D01*
X3015Y10189D01*
X3145Y10231D01*
X3277Y10269D01*
X3409Y10304D01*
X3543Y10334D01*
X3677Y10361D01*
X3812Y10383D01*
X3948Y10402D01*
X4084Y10417D01*
X4220Y10428D01*
X4357Y10435D01*
X4494Y10438D01*
X4631Y10437D01*
X4768Y10432D01*
X4904Y10423D01*
X5040Y10410D01*
X5176Y10393D01*
X5312Y10373D01*
X5446Y10348D01*
X5580Y10319D01*
X5713Y10287D01*
X5845Y10251D01*
X5976Y10211D01*
X6106Y10167D01*
X6234Y10119D01*
X6361Y10068D01*
X6487Y10013D01*
X6611Y9955D01*
X6733Y9893D01*
X6853Y9827D01*
X6971Y9758D01*
X7087Y9686D01*
X7201Y9610D01*
X7313Y9531D01*
X7423Y9449D01*
X7530Y9363D01*
X7634Y9275D01*
X7736Y9183D01*
X7835Y9089D01*
X7932Y8992D01*
X8025Y8892D01*
X8116Y8789D01*
X8204Y8684D01*
X8288Y8577D01*
X8370Y8466D01*
X8448Y8354D01*
X8523Y8239D01*
X8595Y8123D01*
X8663Y8004D01*
X8727Y7883D01*
X8789Y7761D01*
X8846Y7637D01*
X8900Y7511D01*
X8951Y7383D01*
X8997Y7255D01*
X9040Y7125D01*
X9079Y6993D01*
X9114Y6861D01*
X9146Y6728D01*
X9173Y6594D01*
X9197Y6459D01*
X9217Y6323D01*
X9233Y6187D01*
X9245Y6051D01*
X9253Y5914D01*
X9257Y5777D01*
X9257Y5641D01*
X9253Y5504D01*
X9245Y5367D01*
X9233Y5231D01*
X9217Y5095D01*
X9197Y4959D01*
X9173Y4824D01*
X9146Y4690D01*
X9114Y4557D01*
X9079Y4425D01*
X9040Y4293D01*
X8997Y4163D01*
X8951Y4035D01*
X8900Y3907D01*
X8846Y3781D01*
X8789Y3657D01*
X8727Y3535D01*
X8663Y3414D01*
X8595Y3295D01*
X8523Y3179D01*
X8448Y3064D01*
X8370Y2952D01*
X8288Y2841D01*
X8204Y2734D01*
X8116Y2629D01*
X8025Y2526D01*
X7932Y2426D01*
X7835Y2329D01*
X7736Y2235D01*
X7634Y2143D01*
X7530Y2055D01*
X7423Y1969D01*
X7313Y1887D01*
X7201Y1808D01*
X7087Y1732D01*
X6971Y1660D01*
X6853Y1591D01*
X6733Y1525D01*
X6611Y1463D01*
X6487Y1405D01*
X6361Y1350D01*
X6234Y1299D01*
X6106Y1251D01*
X5976Y1207D01*
X5845Y1167D01*
X5713Y1131D01*
X5580Y1099D01*
X5446Y1070D01*
X5312Y1045D01*
X5176Y1025D01*
X5040Y1008D01*
X4904Y995D01*
X4768Y986D01*
X4631Y981D01*
X4494Y980D01*
X4357Y983D01*
X4220Y990D01*
X4084Y1001D01*
X3948Y1016D01*
X3812Y1035D01*
X3677Y1057D01*
X3543Y1084D01*
X3409Y1114D01*
X3277Y1149D01*
X3145Y1187D01*
X3015Y1229D01*
X2886Y1274D01*
X2758Y1324D01*
X2632Y1377D01*
X2507Y1434D01*
X2384Y1494D01*
X2263Y1558D01*
X2144Y1625D01*
X2027Y1696D01*
X1911Y1770D01*
X1798Y1847D01*
X1688Y1928D01*
X1580Y2012D01*
X1474Y2099D01*
X1370Y2189D01*
X1270Y2281D01*
X1172Y2377D01*
X1077Y2476D01*
X985Y2577D01*
X896Y2681D01*
X809Y2787D01*
X726Y2896D01*
X647Y3007D01*
X570Y3121D01*
X497Y3237D01*
X427Y3354D01*
X360Y3474D01*
X297Y3596D01*
X238Y3719D01*
X182Y3844D01*
X130Y3971D01*
X82Y4099D01*
X37Y4228D01*
X-4Y4359D01*
X-41Y4491D01*
X-75Y4623D01*
X-104Y4757D01*
X-130Y4892D01*
X-152Y5027D01*
X-169Y5163D01*
X-183Y5299D01*
X-193Y5435D01*
X-199Y5572D01*
X-201Y5709D01*
X-590Y5709D02*
X-588Y5852D01*
X-582Y5995D01*
X-572Y6137D01*
X-558Y6279D01*
X-540Y6421D01*
X-518Y6563D01*
X-493Y6703D01*
X-463Y6843D01*
X-429Y6982D01*
X-392Y7120D01*
X-350Y7257D01*
X-305Y7392D01*
X-256Y7526D01*
X-204Y7659D01*
X-148Y7791D01*
X-88Y7920D01*
X-24Y8048D01*
X43Y8175D01*
X114Y8299D01*
X188Y8421D01*
X265Y8541D01*
X346Y8659D01*
X430Y8775D01*
X517Y8888D01*
X607Y8999D01*
X701Y9107D01*
X797Y9213D01*
X896Y9315D01*
X999Y9415D01*
X1103Y9512D01*
X1211Y9607D01*
X1321Y9698D01*
X1434Y9786D01*
X1549Y9870D01*
X1666Y9952D01*
X1786Y10030D01*
X1907Y10105D01*
X2031Y10177D01*
X2157Y10245D01*
X2284Y10309D01*
X2414Y10370D01*
X2545Y10427D01*
X2677Y10481D01*
X2811Y10530D01*
X2946Y10577D01*
X3083Y10619D01*
X3221Y10657D01*
X3359Y10692D01*
X3499Y10722D01*
X3639Y10749D01*
X3780Y10772D01*
X3922Y10791D01*
X4064Y10806D01*
X4207Y10817D01*
X4349Y10824D01*
X4492Y10827D01*
X4635Y10826D01*
X4778Y10821D01*
X4921Y10812D01*
X5063Y10799D01*
X5205Y10782D01*
X5346Y10761D01*
X5487Y10736D01*
X5627Y10708D01*
X5766Y10675D01*
X5904Y10638D01*
X6041Y10598D01*
X6177Y10554D01*
X6312Y10506D01*
X6445Y10454D01*
X6577Y10399D01*
X6707Y10340D01*
X6836Y10277D01*
X6962Y10211D01*
X7087Y10141D01*
X7210Y10068D01*
X7330Y9992D01*
X7449Y9912D01*
X7565Y9828D01*
X7679Y9742D01*
X7790Y9652D01*
X7899Y9560D01*
X8005Y9464D01*
X8109Y9366D01*
X8210Y9264D01*
X8307Y9160D01*
X8402Y9053D01*
X8494Y8944D01*
X8583Y8832D01*
X8669Y8717D01*
X8751Y8601D01*
X8830Y8481D01*
X8906Y8360D01*
X8978Y8237D01*
X9047Y8112D01*
X9112Y7985D01*
X9174Y7856D01*
X9232Y7725D01*
X9287Y7593D01*
X9337Y7459D01*
X9384Y7324D01*
X9428Y7188D01*
X9467Y7051D01*
X9502Y6912D01*
X9534Y6773D01*
X9562Y6633D01*
X9586Y6492D01*
X9606Y6350D01*
X9622Y6208D01*
X9634Y6066D01*
X9642Y5923D01*
X9646Y5780D01*
X9646Y5638D01*
X9642Y5495D01*
X9634Y5352D01*
X9622Y5210D01*
X9606Y5068D01*
X9586Y4926D01*
X9562Y4785D01*
X9534Y4645D01*
X9502Y4506D01*
X9467Y4367D01*
X9428Y4230D01*
X9384Y4094D01*
X9337Y3959D01*
X9287Y3825D01*
X9232Y3693D01*
X9174Y3562D01*
X9112Y3433D01*
X9047Y3306D01*
X8978Y3181D01*
X8906Y3058D01*
X8830Y2937D01*
X8751Y2817D01*
X8669Y2701D01*
X8583Y2586D01*
X8494Y2474D01*
X8402Y2365D01*
X8307Y2258D01*
X8210Y2154D01*
X8109Y2052D01*
X8005Y1954D01*
X7899Y1858D01*
X7790Y1766D01*
X7679Y1676D01*
X7565Y1590D01*
X7449Y1506D01*
X7330Y1426D01*
X7210Y1350D01*
X7087Y1277D01*
X6962Y1207D01*
X6836Y1141D01*
X6707Y1078D01*
X6577Y1019D01*
X6445Y964D01*
X6312Y912D01*
X6177Y864D01*
X6041Y820D01*
X5904Y780D01*
X5766Y743D01*
X5627Y710D01*
X5487Y682D01*
X5346Y657D01*
X5205Y636D01*
X5063Y619D01*
X4921Y606D01*
X4778Y597D01*
X4635Y592D01*
X4492Y591D01*
X4349Y594D01*
X4207Y601D01*
X4064Y612D01*
X3922Y627D01*
X3780Y646D01*
X3639Y669D01*
X3499Y696D01*
X3359Y726D01*
X3221Y761D01*
X3083Y799D01*
X2946Y841D01*
X2811Y888D01*
X2677Y937D01*
X2545Y991D01*
X2414Y1048D01*
X2284Y1109D01*
X2157Y1173D01*
X2031Y1241D01*
X1907Y1313D01*
X1786Y1388D01*
X1666Y1466D01*
X1549Y1548D01*
X1434Y1632D01*
X1321Y1720D01*
X1211Y1811D01*
X1103Y1906D01*
X999Y2003D01*
X896Y2103D01*
X797Y2205D01*
X701Y2311D01*
X607Y2419D01*
X517Y2530D01*
X430Y2643D01*
X346Y2759D01*
X265Y2877D01*
X188Y2997D01*
X114Y3119D01*
X43Y3243D01*
X-24Y3370D01*
X-88Y3498D01*
X-148Y3627D01*
X-204Y3759D01*
X-256Y3892D01*
X-305Y4026D01*
X-350Y4161D01*
X-392Y4298D01*
X-429Y4436D01*
X-463Y4575D01*
X-493Y4715D01*
X-518Y4855D01*
X-540Y4997D01*
X-558Y5139D01*
X-572Y5281D01*
X-582Y5423D01*
X-588Y5566D01*
X-590Y5709D01*
X-984Y5709D02*
X-982Y5857D01*
X-976Y6005D01*
X-966Y6153D01*
X-952Y6300D01*
X-934Y6447D01*
X-913Y6593D01*
X-887Y6739D01*
X-857Y6884D01*
X-824Y7028D01*
X-786Y7171D01*
X-745Y7313D01*
X-700Y7454D01*
X-652Y7594D01*
X-599Y7733D01*
X-543Y7870D01*
X-483Y8005D01*
X-420Y8139D01*
X-353Y8271D01*
X-282Y8401D01*
X-208Y8529D01*
X-131Y8655D01*
X-50Y8779D01*
X34Y8901D01*
X121Y9020D01*
X212Y9137D01*
X306Y9252D01*
X402Y9364D01*
X502Y9474D01*
X604Y9580D01*
X710Y9684D01*
X818Y9785D01*
X929Y9883D01*
X1042Y9979D01*
X1158Y10071D01*
X1276Y10160D01*
X1397Y10245D01*
X1520Y10328D01*
X1645Y10407D01*
X1772Y10483D01*
X1901Y10555D01*
X2032Y10624D01*
X2165Y10689D01*
X2300Y10750D01*
X2436Y10808D01*
X2573Y10863D01*
X2712Y10913D01*
X2853Y10960D01*
X2994Y11003D01*
X3137Y11043D01*
X3281Y11078D01*
X3425Y11110D01*
X3571Y11137D01*
X3717Y11161D01*
X3864Y11181D01*
X4011Y11197D01*
X4158Y11209D01*
X4306Y11217D01*
X4454Y11221D01*
X4602Y11221D01*
X4750Y11217D01*
X4898Y11209D01*
X5045Y11197D01*
X5192Y11181D01*
X5339Y11161D01*
X5485Y11137D01*
X5631Y11110D01*
X5775Y11078D01*
X5919Y11043D01*
X6062Y11003D01*
X6203Y10960D01*
X6344Y10913D01*
X6483Y10863D01*
X6620Y10808D01*
X6756Y10750D01*
X6891Y10689D01*
X7024Y10624D01*
X7155Y10555D01*
X7284Y10483D01*
X7411Y10407D01*
X7536Y10328D01*
X7659Y10245D01*
X7780Y10160D01*
X7898Y10071D01*
X8014Y9979D01*
X8127Y9883D01*
X8238Y9785D01*
X8346Y9684D01*
X8452Y9580D01*
X8554Y9474D01*
X8654Y9364D01*
X8750Y9252D01*
X8844Y9137D01*
X8935Y9020D01*
X9022Y8901D01*
X9106Y8779D01*
X9187Y8655D01*
X9264Y8529D01*
X9338Y8401D01*
X9409Y8271D01*
X9476Y8139D01*
X9539Y8005D01*
X9599Y7870D01*
X9655Y7733D01*
X9708Y7594D01*
X9756Y7454D01*
X9801Y7313D01*
X9842Y7171D01*
X9880Y7028D01*
X9913Y6884D01*
X9943Y6739D01*
X9969Y6593D01*
X9990Y6447D01*
X10008Y6300D01*
X10022Y6153D01*
X10032Y6005D01*
X10038Y5857D01*
X10040Y5709D01*
X10038Y5561D01*
X10032Y5413D01*
X10022Y5265D01*
X10008Y5118D01*
X9990Y4971D01*
X9969Y4825D01*
X9943Y4679D01*
X9913Y4534D01*
X9880Y4390D01*
X9842Y4247D01*
X9801Y4105D01*
X9756Y3964D01*
X9708Y3824D01*
X9655Y3685D01*
X9599Y3548D01*
X9539Y3413D01*
X9476Y3279D01*
X9409Y3147D01*
X9338Y3017D01*
X9264Y2889D01*
X9187Y2763D01*
X9106Y2639D01*
X9022Y2517D01*
X8935Y2398D01*
X8844Y2281D01*
X8750Y2166D01*
X8654Y2054D01*
X8554Y1944D01*
X8452Y1838D01*
X8346Y1734D01*
X8238Y1633D01*
X8127Y1535D01*
X8014Y1439D01*
X7898Y1347D01*
X7780Y1258D01*
X7659Y1173D01*
X7536Y1090D01*
X7411Y1011D01*
X7284Y935D01*
X7155Y863D01*
X7024Y794D01*
X6891Y729D01*
X6756Y668D01*
X6620Y610D01*
X6483Y555D01*
X6344Y505D01*
X6203Y458D01*
X6062Y415D01*
X5919Y375D01*
X5775Y340D01*
X5631Y308D01*
X5485Y281D01*
X5339Y257D01*
X5192Y237D01*
X5045Y221D01*
X4898Y209D01*
X4750Y201D01*
X4602Y197D01*
X4454Y197D01*
X4306Y201D01*
X4158Y209D01*
X4011Y221D01*
X3864Y237D01*
X3717Y257D01*
X3571Y281D01*
X3425Y308D01*
X3281Y340D01*
X3137Y375D01*
X2994Y415D01*
X2853Y458D01*
X2712Y505D01*
X2573Y555D01*
X2436Y610D01*
X2300Y668D01*
X2165Y729D01*
X2032Y794D01*
X1901Y863D01*
X1772Y935D01*
X1645Y1011D01*
X1520Y1090D01*
X1397Y1173D01*
X1276Y1258D01*
X1158Y1347D01*
X1042Y1439D01*
X929Y1535D01*
X818Y1633D01*
X710Y1734D01*
X604Y1838D01*
X502Y1944D01*
X402Y2054D01*
X306Y2166D01*
X212Y2281D01*
X121Y2398D01*
X34Y2517D01*
X-50Y2639D01*
X-131Y2763D01*
X-208Y2889D01*
X-282Y3017D01*
X-353Y3147D01*
X-420Y3279D01*
X-483Y3413D01*
X-543Y3548D01*
X-599Y3685D01*
X-652Y3824D01*
X-700Y3964D01*
X-745Y4105D01*
X-786Y4247D01*
X-824Y4390D01*
X-857Y4534D01*
X-887Y4679D01*
X-913Y4825D01*
X-934Y4971D01*
X-952Y5118D01*
X-966Y5265D01*
X-976Y5413D01*
X-982Y5561D01*
X-984Y5709D01*
X-1381Y5709D02*
X-1379Y5862D01*
X-1373Y6016D01*
X-1363Y6169D01*
X-1349Y6322D01*
X-1331Y6474D01*
X-1309Y6626D01*
X-1284Y6777D01*
X-1254Y6928D01*
X-1220Y7077D01*
X-1183Y7226D01*
X-1142Y7374D01*
X-1097Y7520D01*
X-1048Y7666D01*
X-995Y7810D01*
X-939Y7953D01*
X-878Y8094D01*
X-815Y8233D01*
X-747Y8371D01*
X-676Y8507D01*
X-602Y8641D01*
X-524Y8774D01*
X-443Y8904D01*
X-358Y9032D01*
X-270Y9157D01*
X-179Y9281D01*
X-85Y9402D01*
X12Y9520D01*
X113Y9636D01*
X216Y9750D01*
X323Y9860D01*
X432Y9968D01*
X544Y10073D01*
X658Y10175D01*
X776Y10274D01*
X895Y10370D01*
X1018Y10462D01*
X1142Y10552D01*
X1269Y10638D01*
X1398Y10721D01*
X1529Y10801D01*
X1663Y10877D01*
X1798Y10949D01*
X1935Y11018D01*
X2073Y11084D01*
X2214Y11146D01*
X2356Y11204D01*
X2499Y11259D01*
X2644Y11310D01*
X2790Y11357D01*
X2937Y11400D01*
X3085Y11439D01*
X3235Y11475D01*
X3385Y11506D01*
X3536Y11534D01*
X3687Y11558D01*
X3839Y11578D01*
X3992Y11594D01*
X4145Y11606D01*
X4298Y11614D01*
X4451Y11618D01*
X4605Y11618D01*
X4758Y11614D01*
X4911Y11606D01*
X5064Y11594D01*
X5217Y11578D01*
X5369Y11558D01*
X5520Y11534D01*
X5671Y11506D01*
X5821Y11475D01*
X5971Y11439D01*
X6119Y11400D01*
X6266Y11357D01*
X6412Y11310D01*
X6557Y11259D01*
X6700Y11204D01*
X6842Y11146D01*
X6983Y11084D01*
X7121Y11018D01*
X7258Y10949D01*
X7393Y10877D01*
X7527Y10801D01*
X7658Y10721D01*
X7787Y10638D01*
X7914Y10552D01*
X8038Y10462D01*
X8161Y10370D01*
X8280Y10274D01*
X8398Y10175D01*
X8512Y10073D01*
X8624Y9968D01*
X8733Y9860D01*
X8840Y9750D01*
X8943Y9636D01*
X9044Y9520D01*
X9141Y9402D01*
X9235Y9281D01*
X9326Y9157D01*
X9414Y9032D01*
X9499Y8904D01*
X9580Y8774D01*
X9658Y8641D01*
X9732Y8507D01*
X9803Y8371D01*
X9871Y8233D01*
X9934Y8094D01*
X9995Y7953D01*
X10051Y7810D01*
X10104Y7666D01*
X10153Y7520D01*
X10198Y7374D01*
X10239Y7226D01*
X10276Y7077D01*
X10310Y6928D01*
X10340Y6777D01*
X10365Y6626D01*
X10387Y6474D01*
X10405Y6322D01*
X10419Y6169D01*
X10429Y6016D01*
X10435Y5862D01*
X10437Y5709D01*
X10435Y5556D01*
X10429Y5402D01*
X10419Y5249D01*
X10405Y5096D01*
X10387Y4944D01*
X10365Y4792D01*
X10340Y4641D01*
X10310Y4490D01*
X10276Y4341D01*
X10239Y4192D01*
X10198Y4044D01*
X10153Y3898D01*
X10104Y3752D01*
X10051Y3608D01*
X9995Y3465D01*
X9934Y3324D01*
X9871Y3185D01*
X9803Y3047D01*
X9732Y2911D01*
X9658Y2777D01*
X9580Y2644D01*
X9499Y2514D01*
X9414Y2386D01*
X9326Y2261D01*
X9235Y2137D01*
X9141Y2016D01*
X9044Y1898D01*
X8943Y1782D01*
X8840Y1668D01*
X8733Y1558D01*
X8624Y1450D01*
X8512Y1345D01*
X8398Y1243D01*
X8280Y1144D01*
X8161Y1048D01*
X8038Y956D01*
X7914Y866D01*
X7787Y780D01*
X7658Y697D01*
X7527Y617D01*
X7393Y541D01*
X7258Y469D01*
X7121Y400D01*
X6983Y334D01*
X6842Y272D01*
X6700Y214D01*
X6557Y159D01*
X6412Y108D01*
X6266Y61D01*
X6119Y18D01*
X5971Y-21D01*
X5821Y-57D01*
X5671Y-88D01*
X5520Y-116D01*
X5369Y-140D01*
X5217Y-160D01*
X5064Y-176D01*
X4911Y-188D01*
X4758Y-196D01*
X4605Y-200D01*
X4451Y-200D01*
X4298Y-196D01*
X4145Y-188D01*
X3992Y-176D01*
X3839Y-160D01*
X3687Y-140D01*
X3536Y-116D01*
X3385Y-88D01*
X3235Y-57D01*
X3085Y-21D01*
X2937Y18D01*
X2790Y61D01*
X2644Y108D01*
X2499Y159D01*
X2356Y214D01*
X2214Y272D01*
X2073Y334D01*
X1935Y400D01*
X1798Y469D01*
X1663Y541D01*
X1529Y617D01*
X1398Y697D01*
X1269Y780D01*
X1142Y866D01*
X1018Y956D01*
X895Y1048D01*
X776Y1144D01*
X658Y1243D01*
X544Y1345D01*
X432Y1450D01*
X323Y1558D01*
X216Y1668D01*
X113Y1782D01*
X12Y1898D01*
X-85Y2016D01*
X-179Y2137D01*
X-270Y2261D01*
X-358Y2386D01*
X-443Y2514D01*
X-524Y2644D01*
X-602Y2777D01*
X-676Y2911D01*
X-747Y3047D01*
X-815Y3185D01*
X-878Y3324D01*
X-939Y3465D01*
X-995Y3608D01*
X-1048Y3752D01*
X-1097Y3898D01*
X-1142Y4044D01*
X-1183Y4192D01*
X-1220Y4341D01*
X-1254Y4490D01*
X-1284Y4641D01*
X-1309Y4792D01*
X-1331Y4944D01*
X-1349Y5096D01*
X-1363Y5249D01*
X-1373Y5402D01*
X-1379Y5556D01*
X-1381Y5709D01*
X-1771Y5709D02*
X-1769Y5867D01*
X-1763Y6025D01*
X-1753Y6183D01*
X-1739Y6341D01*
X-1721Y6498D01*
X-1700Y6655D01*
X-1674Y6811D01*
X-1644Y6967D01*
X-1611Y7122D01*
X-1573Y7275D01*
X-1532Y7428D01*
X-1487Y7580D01*
X-1438Y7731D01*
X-1385Y7880D01*
X-1329Y8028D01*
X-1269Y8174D01*
X-1205Y8319D01*
X-1137Y8462D01*
X-1066Y8604D01*
X-992Y8744D01*
X-914Y8881D01*
X-832Y9017D01*
X-748Y9151D01*
X-659Y9282D01*
X-568Y9411D01*
X-473Y9538D01*
X-376Y9663D01*
X-275Y9785D01*
X-171Y9904D01*
X-64Y10021D01*
X46Y10135D01*
X159Y10246D01*
X274Y10355D01*
X392Y10460D01*
X513Y10562D01*
X636Y10662D01*
X762Y10758D01*
X890Y10851D01*
X1020Y10941D01*
X1153Y11027D01*
X1288Y11111D01*
X1424Y11190D01*
X1563Y11267D01*
X1704Y11339D01*
X1846Y11409D01*
X1990Y11474D01*
X2136Y11536D01*
X2283Y11594D01*
X2432Y11649D01*
X2582Y11700D01*
X2733Y11747D01*
X2885Y11790D01*
X3038Y11829D01*
X3193Y11865D01*
X3348Y11896D01*
X3504Y11924D01*
X3660Y11948D01*
X3817Y11968D01*
X3975Y11984D01*
X4132Y11996D01*
X4291Y12004D01*
X4449Y12008D01*
X4607Y12008D01*
X4765Y12004D01*
X4924Y11996D01*
X5081Y11984D01*
X5239Y11968D01*
X5396Y11948D01*
X5552Y11924D01*
X5708Y11896D01*
X5863Y11865D01*
X6018Y11829D01*
X6171Y11790D01*
X6323Y11747D01*
X6474Y11700D01*
X6624Y11649D01*
X6773Y11594D01*
X6920Y11536D01*
X7066Y11474D01*
X7210Y11409D01*
X7352Y11339D01*
X7493Y11267D01*
X7632Y11190D01*
X7768Y11111D01*
X7903Y11027D01*
X8036Y10941D01*
X8166Y10851D01*
X8294Y10758D01*
X8420Y10662D01*
X8543Y10562D01*
X8664Y10460D01*
X8782Y10355D01*
X8897Y10246D01*
X9010Y10135D01*
X9120Y10021D01*
X9227Y9904D01*
X9331Y9785D01*
X9432Y9663D01*
X9529Y9538D01*
X9624Y9411D01*
X9715Y9282D01*
X9804Y9151D01*
X9888Y9017D01*
X9970Y8881D01*
X10048Y8744D01*
X10122Y8604D01*
X10193Y8462D01*
X10261Y8319D01*
X10325Y8174D01*
X10385Y8028D01*
X10441Y7880D01*
X10494Y7731D01*
X10543Y7580D01*
X10588Y7428D01*
X10629Y7275D01*
X10667Y7122D01*
X10700Y6967D01*
X10730Y6811D01*
X10756Y6655D01*
X10777Y6498D01*
X10795Y6341D01*
X10809Y6183D01*
X10819Y6025D01*
X10825Y5867D01*
X10827Y5709D01*
X10825Y5551D01*
X10819Y5393D01*
X10809Y5235D01*
X10795Y5077D01*
X10777Y4920D01*
X10756Y4763D01*
X10730Y4607D01*
X10700Y4451D01*
X10667Y4296D01*
X10629Y4143D01*
X10588Y3990D01*
X10543Y3838D01*
X10494Y3687D01*
X10441Y3538D01*
X10385Y3390D01*
X10325Y3244D01*
X10261Y3099D01*
X10193Y2956D01*
X10122Y2814D01*
X10048Y2674D01*
X9970Y2537D01*
X9888Y2401D01*
X9804Y2267D01*
X9715Y2136D01*
X9624Y2007D01*
X9529Y1880D01*
X9432Y1755D01*
X9331Y1633D01*
X9227Y1514D01*
X9120Y1397D01*
X9010Y1283D01*
X8897Y1172D01*
X8782Y1063D01*
X8664Y958D01*
X8543Y856D01*
X8420Y756D01*
X8294Y660D01*
X8166Y567D01*
X8036Y477D01*
X7903Y391D01*
X7768Y307D01*
X7632Y228D01*
X7493Y151D01*
X7352Y79D01*
X7210Y9D01*
X7066Y-56D01*
X6920Y-118D01*
X6773Y-176D01*
X6624Y-231D01*
X6474Y-282D01*
X6323Y-329D01*
X6171Y-372D01*
X6018Y-411D01*
X5863Y-447D01*
X5708Y-478D01*
X5552Y-506D01*
X5396Y-530D01*
X5239Y-550D01*
X5081Y-566D01*
X4924Y-578D01*
X4765Y-586D01*
X4607Y-590D01*
X4449Y-590D01*
X4291Y-586D01*
X4132Y-578D01*
X3975Y-566D01*
X3817Y-550D01*
X3660Y-530D01*
X3504Y-506D01*
X3348Y-478D01*
X3193Y-447D01*
X3038Y-411D01*
X2885Y-372D01*
X2733Y-329D01*
X2582Y-282D01*
X2432Y-231D01*
X2283Y-176D01*
X2136Y-118D01*
X1990Y-56D01*
X1846Y9D01*
X1704Y79D01*
X1563Y151D01*
X1424Y228D01*
X1288Y307D01*
X1153Y391D01*
X1020Y477D01*
X890Y567D01*
X762Y660D01*
X636Y756D01*
X513Y856D01*
X392Y958D01*
X274Y1063D01*
X159Y1172D01*
X46Y1283D01*
X-64Y1397D01*
X-171Y1514D01*
X-275Y1633D01*
X-376Y1755D01*
X-473Y1880D01*
X-568Y2007D01*
X-659Y2136D01*
X-748Y2267D01*
X-832Y2401D01*
X-914Y2537D01*
X-992Y2674D01*
X-1066Y2814D01*
X-1137Y2956D01*
X-1205Y3099D01*
X-1269Y3244D01*
X-1329Y3390D01*
X-1385Y3538D01*
X-1438Y3687D01*
X-1487Y3838D01*
X-1532Y3990D01*
X-1573Y4143D01*
X-1611Y4296D01*
X-1644Y4451D01*
X-1674Y4607D01*
X-1700Y4763D01*
X-1721Y4920D01*
X-1739Y5077D01*
X-1753Y5235D01*
X-1763Y5393D01*
X-1769Y5551D01*
X-1771Y5709D01*
X-2168Y5709D02*
X-2166Y5873D01*
X-2160Y6038D01*
X-2150Y6202D01*
X-2136Y6365D01*
X-2118Y6529D01*
X-2096Y6692D01*
X-2069Y6854D01*
X-2039Y7015D01*
X-2005Y7176D01*
X-1967Y7336D01*
X-1925Y7495D01*
X-1880Y7653D01*
X-1830Y7809D01*
X-1777Y7965D01*
X-1719Y8119D01*
X-1658Y8271D01*
X-1594Y8422D01*
X-1525Y8572D01*
X-1453Y8720D01*
X-1377Y8865D01*
X-1298Y9009D01*
X-1215Y9151D01*
X-1129Y9291D01*
X-1040Y9429D01*
X-947Y9565D01*
X-850Y9698D01*
X-751Y9829D01*
X-648Y9957D01*
X-542Y10083D01*
X-433Y10206D01*
X-322Y10326D01*
X-207Y10444D01*
X-89Y10559D01*
X31Y10670D01*
X154Y10779D01*
X280Y10885D01*
X408Y10988D01*
X539Y11087D01*
X672Y11184D01*
X808Y11277D01*
X946Y11366D01*
X1086Y11452D01*
X1228Y11535D01*
X1372Y11614D01*
X1517Y11690D01*
X1665Y11762D01*
X1815Y11831D01*
X1966Y11895D01*
X2118Y11956D01*
X2272Y12014D01*
X2428Y12067D01*
X2584Y12117D01*
X2742Y12162D01*
X2901Y12204D01*
X3061Y12242D01*
X3222Y12276D01*
X3383Y12306D01*
X3545Y12333D01*
X3708Y12355D01*
X3872Y12373D01*
X4035Y12387D01*
X4199Y12397D01*
X4364Y12403D01*
X4528Y12405D01*
X4692Y12403D01*
X4857Y12397D01*
X5021Y12387D01*
X5184Y12373D01*
X5348Y12355D01*
X5511Y12333D01*
X5673Y12306D01*
X5834Y12276D01*
X5995Y12242D01*
X6155Y12204D01*
X6314Y12162D01*
X6472Y12117D01*
X6628Y12067D01*
X6784Y12014D01*
X6938Y11956D01*
X7090Y11895D01*
X7241Y11831D01*
X7391Y11762D01*
X7539Y11690D01*
X7684Y11614D01*
X7828Y11535D01*
X7970Y11452D01*
X8110Y11366D01*
X8248Y11277D01*
X8384Y11184D01*
X8517Y11087D01*
X8648Y10988D01*
X8776Y10885D01*
X8902Y10779D01*
X9025Y10670D01*
X9145Y10559D01*
X9263Y10444D01*
X9378Y10326D01*
X9489Y10206D01*
X9598Y10083D01*
X9704Y9957D01*
X9807Y9829D01*
X9906Y9698D01*
X10003Y9565D01*
X10096Y9429D01*
X10185Y9291D01*
X10271Y9151D01*
X10354Y9009D01*
X10433Y8865D01*
X10509Y8720D01*
X10581Y8572D01*
X10650Y8422D01*
X10714Y8271D01*
X10775Y8119D01*
X10833Y7965D01*
X10886Y7809D01*
X10936Y7653D01*
X10981Y7495D01*
X11023Y7336D01*
X11061Y7176D01*
X11095Y7015D01*
X11125Y6854D01*
X11152Y6692D01*
X11174Y6529D01*
X11192Y6365D01*
X11206Y6202D01*
X11216Y6038D01*
X11222Y5873D01*
X11224Y5709D01*
X11222Y5545D01*
X11216Y5380D01*
X11206Y5216D01*
X11192Y5053D01*
X11174Y4889D01*
X11152Y4726D01*
X11125Y4564D01*
X11095Y4403D01*
X11061Y4242D01*
X11023Y4082D01*
X10981Y3923D01*
X10936Y3765D01*
X10886Y3609D01*
X10833Y3453D01*
X10775Y3299D01*
X10714Y3147D01*
X10650Y2996D01*
X10581Y2846D01*
X10509Y2698D01*
X10433Y2553D01*
X10354Y2409D01*
X10271Y2267D01*
X10185Y2127D01*
X10096Y1989D01*
X10003Y1853D01*
X9906Y1720D01*
X9807Y1589D01*
X9704Y1461D01*
X9598Y1335D01*
X9489Y1212D01*
X9378Y1092D01*
X9263Y974D01*
X9145Y859D01*
X9025Y748D01*
X8902Y639D01*
X8776Y533D01*
X8648Y430D01*
X8517Y331D01*
X8384Y234D01*
X8248Y141D01*
X8110Y52D01*
X7970Y-34D01*
X7828Y-117D01*
X7684Y-196D01*
X7539Y-272D01*
X7391Y-344D01*
X7241Y-413D01*
X7090Y-477D01*
X6938Y-538D01*
X6784Y-596D01*
X6628Y-649D01*
X6472Y-699D01*
X6314Y-744D01*
X6155Y-786D01*
X5995Y-824D01*
X5834Y-858D01*
X5673Y-888D01*
X5511Y-915D01*
X5348Y-937D01*
X5184Y-955D01*
X5021Y-969D01*
X4857Y-979D01*
X4692Y-985D01*
X4528Y-987D01*
X4364Y-985D01*
X4199Y-979D01*
X4035Y-969D01*
X3872Y-955D01*
X3708Y-937D01*
X3545Y-915D01*
X3383Y-888D01*
X3222Y-858D01*
X3061Y-824D01*
X2901Y-786D01*
X2742Y-744D01*
X2584Y-699D01*
X2428Y-649D01*
X2272Y-596D01*
X2118Y-538D01*
X1966Y-477D01*
X1815Y-413D01*
X1665Y-344D01*
X1517Y-272D01*
X1372Y-196D01*
X1228Y-117D01*
X1086Y-34D01*
X946Y52D01*
X808Y141D01*
X672Y234D01*
X539Y331D01*
X408Y430D01*
X280Y533D01*
X154Y639D01*
X31Y748D01*
X-89Y859D01*
X-207Y974D01*
X-322Y1092D01*
X-433Y1212D01*
X-542Y1335D01*
X-648Y1461D01*
X-751Y1589D01*
X-850Y1720D01*
X-947Y1853D01*
X-1040Y1989D01*
X-1129Y2127D01*
X-1215Y2267D01*
X-1298Y2409D01*
X-1377Y2553D01*
X-1453Y2698D01*
X-1525Y2846D01*
X-1594Y2996D01*
X-1658Y3147D01*
X-1719Y3299D01*
X-1777Y3453D01*
X-1830Y3609D01*
X-1880Y3765D01*
X-1925Y3923D01*
X-1967Y4082D01*
X-2005Y4242D01*
X-2039Y4403D01*
X-2069Y4564D01*
X-2096Y4726D01*
X-2118Y4889D01*
X-2136Y5053D01*
X-2150Y5216D01*
X-2160Y5380D01*
X-2166Y5545D01*
X-2168Y5709D01*
D11*
X591Y5709D02*
X593Y5834D01*
X599Y5959D01*
X609Y6083D01*
X623Y6207D01*
X640Y6331D01*
X662Y6454D01*
X688Y6576D01*
X717Y6698D01*
X750Y6818D01*
X788Y6937D01*
X828Y7056D01*
X873Y7172D01*
X921Y7287D01*
X973Y7401D01*
X1029Y7513D01*
X1088Y7623D01*
X1150Y7731D01*
X1216Y7838D01*
X1285Y7942D01*
X1358Y8043D01*
X1433Y8143D01*
X1512Y8240D01*
X1594Y8334D01*
X1679Y8426D01*
X1766Y8515D01*
X1857Y8601D01*
X1950Y8684D01*
X2046Y8765D01*
X2144Y8842D01*
X2244Y8916D01*
X2347Y8987D01*
X2452Y9054D01*
X2560Y9119D01*
X2669Y9179D01*
X2780Y9237D01*
X2893Y9290D01*
X3007Y9340D01*
X3123Y9387D01*
X3240Y9429D01*
X3359Y9468D01*
X3479Y9504D01*
X3600Y9535D01*
X3722Y9563D01*
X3844Y9586D01*
X3968Y9606D01*
X4092Y9622D01*
X4216Y9634D01*
X4341Y9642D01*
X4466Y9646D01*
X4590Y9646D01*
X4715Y9642D01*
X4840Y9634D01*
X4964Y9622D01*
X5088Y9606D01*
X5212Y9586D01*
X5334Y9563D01*
X5456Y9535D01*
X5577Y9504D01*
X5697Y9468D01*
X5816Y9429D01*
X5933Y9387D01*
X6049Y9340D01*
X6163Y9290D01*
X6276Y9237D01*
X6387Y9179D01*
X6497Y9119D01*
X6604Y9054D01*
X6709Y8987D01*
X6812Y8916D01*
X6912Y8842D01*
X7010Y8765D01*
X7106Y8684D01*
X7199Y8601D01*
X7290Y8515D01*
X7377Y8426D01*
X7462Y8334D01*
X7544Y8240D01*
X7623Y8143D01*
X7698Y8043D01*
X7771Y7942D01*
X7840Y7838D01*
X7906Y7731D01*
X7968Y7623D01*
X8027Y7513D01*
X8083Y7401D01*
X8135Y7287D01*
X8183Y7172D01*
X8228Y7056D01*
X8268Y6937D01*
X8306Y6818D01*
X8339Y6698D01*
X8368Y6576D01*
X8394Y6454D01*
X8416Y6331D01*
X8433Y6207D01*
X8447Y6083D01*
X8457Y5959D01*
X8463Y5834D01*
X8465Y5709D01*
X8463Y5584D01*
X8457Y5459D01*
X8447Y5335D01*
X8433Y5211D01*
X8416Y5087D01*
X8394Y4964D01*
X8368Y4842D01*
X8339Y4720D01*
X8306Y4600D01*
X8268Y4481D01*
X8228Y4362D01*
X8183Y4246D01*
X8135Y4131D01*
X8083Y4017D01*
X8027Y3905D01*
X7968Y3795D01*
X7906Y3687D01*
X7840Y3580D01*
X7771Y3476D01*
X7698Y3375D01*
X7623Y3275D01*
X7544Y3178D01*
X7462Y3084D01*
X7377Y2992D01*
X7290Y2903D01*
X7199Y2817D01*
X7106Y2734D01*
X7010Y2653D01*
X6912Y2576D01*
X6812Y2502D01*
X6709Y2431D01*
X6604Y2364D01*
X6496Y2299D01*
X6387Y2239D01*
X6276Y2181D01*
X6163Y2128D01*
X6049Y2078D01*
X5933Y2031D01*
X5816Y1989D01*
X5697Y1950D01*
X5577Y1914D01*
X5456Y1883D01*
X5334Y1855D01*
X5212Y1832D01*
X5088Y1812D01*
X4964Y1796D01*
X4840Y1784D01*
X4715Y1776D01*
X4590Y1772D01*
X4466Y1772D01*
X4341Y1776D01*
X4216Y1784D01*
X4092Y1796D01*
X3968Y1812D01*
X3844Y1832D01*
X3722Y1855D01*
X3600Y1883D01*
X3479Y1914D01*
X3359Y1950D01*
X3240Y1989D01*
X3123Y2031D01*
X3007Y2078D01*
X2893Y2128D01*
X2780Y2181D01*
X2669Y2239D01*
X2559Y2299D01*
X2452Y2364D01*
X2347Y2431D01*
X2244Y2502D01*
X2144Y2576D01*
X2046Y2653D01*
X1950Y2734D01*
X1857Y2817D01*
X1766Y2903D01*
X1679Y2992D01*
X1594Y3084D01*
X1512Y3178D01*
X1433Y3275D01*
X1358Y3375D01*
X1285Y3476D01*
X1216Y3580D01*
X1150Y3687D01*
X1088Y3795D01*
X1029Y3905D01*
X973Y4017D01*
X921Y4131D01*
X873Y4246D01*
X828Y4362D01*
X788Y4481D01*
X750Y4600D01*
X717Y4720D01*
X688Y4842D01*
X662Y4964D01*
X640Y5087D01*
X623Y5211D01*
X609Y5335D01*
X599Y5459D01*
X593Y5584D01*
X591Y5709D01*
M02*
