G04 EAGLE Gerber X2 export*
G75*
%MOIN*%
%FSLAX24Y24*%
%LPD*%
%AMOC8*
5,1,8,0,0,1.08239X$1,22.5*%
G01*
%ADD10C,0.106299*%
%ADD11C,0.029780*%
%ADD12C,0.008000*%

G36*
X7335Y451D02*
X7335Y451D01*
X7340Y452D01*
X7341Y452D01*
X7342Y452D01*
X7346Y454D01*
X7350Y456D01*
X7351Y457D01*
X7352Y457D01*
X7355Y460D01*
X7359Y463D01*
X7359Y464D01*
X7360Y464D01*
X7363Y468D01*
X7365Y472D01*
X7366Y473D01*
X7368Y478D01*
X7369Y482D01*
X7369Y483D01*
X7369Y484D01*
X7369Y489D01*
X7370Y493D01*
X7369Y494D01*
X7370Y495D01*
X7368Y502D01*
X7367Y505D01*
X7237Y818D01*
X7237Y1150D01*
X7364Y1457D01*
X7599Y1691D01*
X7905Y1818D01*
X8237Y1818D01*
X8550Y1688D01*
X8555Y1687D01*
X8559Y1686D01*
X8560Y1686D01*
X8561Y1686D01*
X8566Y1686D01*
X8570Y1686D01*
X8571Y1686D01*
X8572Y1686D01*
X8576Y1687D01*
X8581Y1689D01*
X8582Y1689D01*
X8586Y1692D01*
X8590Y1694D01*
X8591Y1695D01*
X8592Y1696D01*
X8595Y1699D01*
X8598Y1703D01*
X8599Y1704D01*
X8601Y1708D01*
X8603Y1713D01*
X8603Y1714D01*
X8604Y1721D01*
X8604Y1725D01*
X8604Y3740D01*
X8604Y3742D01*
X8604Y3743D01*
X8603Y3759D01*
X8602Y3764D01*
X8601Y3768D01*
X8591Y3798D01*
X8590Y3800D01*
X8589Y3802D01*
X8589Y3803D01*
X8589Y3804D01*
X8587Y3808D01*
X8586Y3808D01*
X8586Y3809D01*
X8567Y3834D01*
X8567Y3835D01*
X8566Y3836D01*
X8560Y3842D01*
X8559Y3843D01*
X8533Y3862D01*
X8531Y3863D01*
X8523Y3867D01*
X8522Y3867D01*
X8492Y3877D01*
X8487Y3878D01*
X8483Y3879D01*
X8468Y3880D01*
X8466Y3880D01*
X8465Y3880D01*
X6694Y3880D01*
X6321Y4001D01*
X6003Y4232D01*
X5773Y4549D01*
X5652Y4922D01*
X5652Y7283D01*
X5773Y7656D01*
X5915Y7851D01*
X5916Y7854D01*
X5918Y7857D01*
X5919Y7859D01*
X5920Y7861D01*
X5921Y7864D01*
X5922Y7868D01*
X5922Y7870D01*
X5922Y7872D01*
X5922Y7875D01*
X5922Y7879D01*
X5921Y7881D01*
X5921Y7883D01*
X5920Y7886D01*
X5919Y7890D01*
X5918Y7891D01*
X5917Y7893D01*
X5915Y7896D01*
X5913Y7899D01*
X5912Y7900D01*
X5911Y7902D01*
X5908Y7904D01*
X5905Y7907D01*
X5903Y7907D01*
X5902Y7908D01*
X5898Y7910D01*
X5895Y7911D01*
X5893Y7912D01*
X5891Y7912D01*
X5886Y7913D01*
X5883Y7913D01*
X3172Y7913D01*
X3169Y7913D01*
X3165Y7913D01*
X3163Y7912D01*
X3161Y7912D01*
X3158Y7910D01*
X3154Y7909D01*
X3153Y7908D01*
X3151Y7907D01*
X3148Y7905D01*
X3145Y7903D01*
X3144Y7901D01*
X3143Y7900D01*
X3141Y7897D01*
X3138Y7894D01*
X3138Y7892D01*
X3137Y7891D01*
X3136Y7887D01*
X3134Y7884D01*
X3134Y7882D01*
X3133Y7880D01*
X3133Y7876D01*
X3133Y7873D01*
X3133Y7871D01*
X3133Y7869D01*
X3134Y7865D01*
X3135Y7862D01*
X3136Y7860D01*
X3136Y7858D01*
X3139Y7854D01*
X3140Y7851D01*
X3282Y7656D01*
X3404Y7283D01*
X3404Y4922D01*
X3282Y4549D01*
X3052Y4232D01*
X2734Y4001D01*
X2361Y3880D01*
X591Y3880D01*
X589Y3880D01*
X587Y3880D01*
X572Y3879D01*
X566Y3877D01*
X563Y3877D01*
X533Y3867D01*
X532Y3867D01*
X531Y3866D01*
X523Y3862D01*
X522Y3862D01*
X496Y3843D01*
X495Y3841D01*
X488Y3835D01*
X488Y3834D01*
X469Y3809D01*
X468Y3807D01*
X467Y3805D01*
X466Y3804D01*
X466Y3803D01*
X464Y3799D01*
X464Y3798D01*
X454Y3768D01*
X453Y3763D01*
X452Y3759D01*
X451Y3743D01*
X451Y3742D01*
X451Y3740D01*
X451Y1725D01*
X451Y1720D01*
X452Y1715D01*
X452Y1714D01*
X454Y1709D01*
X456Y1705D01*
X457Y1704D01*
X457Y1703D01*
X460Y1700D01*
X463Y1696D01*
X464Y1696D01*
X464Y1695D01*
X468Y1692D01*
X472Y1690D01*
X473Y1689D01*
X478Y1688D01*
X482Y1686D01*
X483Y1686D01*
X484Y1686D01*
X489Y1686D01*
X493Y1685D01*
X494Y1686D01*
X495Y1686D01*
X502Y1687D01*
X505Y1688D01*
X818Y1818D01*
X1150Y1818D01*
X1457Y1691D01*
X1691Y1457D01*
X1818Y1150D01*
X1818Y818D01*
X1688Y505D01*
X1687Y500D01*
X1686Y496D01*
X1686Y495D01*
X1686Y494D01*
X1686Y490D01*
X1686Y485D01*
X1686Y484D01*
X1686Y483D01*
X1687Y479D01*
X1689Y474D01*
X1689Y473D01*
X1692Y469D01*
X1694Y465D01*
X1695Y464D01*
X1696Y463D01*
X1699Y461D01*
X1703Y457D01*
X1704Y456D01*
X1708Y455D01*
X1713Y453D01*
X1714Y452D01*
X1721Y451D01*
X1725Y451D01*
X7331Y451D01*
X7335Y451D01*
G37*
%LPC*%
G36*
X5753Y911D02*
X5753Y911D01*
X5654Y953D01*
X5578Y1028D01*
X5537Y1127D01*
X5537Y1235D01*
X5578Y1334D01*
X5635Y1390D01*
X5637Y1393D01*
X5640Y1396D01*
X5640Y1398D01*
X5641Y1399D01*
X5643Y1403D01*
X5645Y1406D01*
X5645Y1408D01*
X5645Y1409D01*
X5646Y1414D01*
X5646Y1418D01*
X5646Y1886D01*
X5646Y1889D01*
X5646Y1893D01*
X5645Y1895D01*
X5645Y1897D01*
X5643Y1900D01*
X5642Y1904D01*
X5641Y1905D01*
X5640Y1907D01*
X5637Y1910D01*
X5635Y1913D01*
X5457Y2092D01*
X5454Y2094D01*
X5451Y2096D01*
X5449Y2097D01*
X5448Y2098D01*
X5444Y2100D01*
X5441Y2101D01*
X5439Y2101D01*
X5437Y2102D01*
X5433Y2102D01*
X5429Y2103D01*
X5248Y2103D01*
X4465Y2886D01*
X4465Y3756D01*
X4465Y3760D01*
X4464Y3763D01*
X4464Y3765D01*
X4464Y3767D01*
X4462Y3770D01*
X4461Y3774D01*
X4460Y3775D01*
X4459Y3777D01*
X4456Y3781D01*
X4454Y3783D01*
X4188Y4050D01*
X4185Y4052D01*
X4182Y4054D01*
X4180Y4055D01*
X4179Y4056D01*
X4175Y4058D01*
X4172Y4059D01*
X4170Y4059D01*
X4168Y4060D01*
X4164Y4061D01*
X4160Y4061D01*
X4080Y4061D01*
X3981Y4102D01*
X3905Y4178D01*
X3864Y4277D01*
X3864Y4384D01*
X3905Y4483D01*
X3981Y4559D01*
X4080Y4600D01*
X4187Y4600D01*
X4287Y4559D01*
X4362Y4483D01*
X4404Y4384D01*
X4404Y4305D01*
X4404Y4301D01*
X4404Y4297D01*
X4405Y4295D01*
X4405Y4294D01*
X4407Y4290D01*
X4408Y4287D01*
X4409Y4285D01*
X4410Y4284D01*
X4413Y4280D01*
X4415Y4277D01*
X4787Y3905D01*
X4787Y3036D01*
X4787Y3032D01*
X4787Y3028D01*
X4788Y3026D01*
X4788Y3025D01*
X4790Y3021D01*
X4791Y3018D01*
X4792Y3016D01*
X4793Y3015D01*
X4796Y3011D01*
X4798Y3008D01*
X5200Y2606D01*
X5203Y2604D01*
X5206Y2601D01*
X5208Y2600D01*
X5209Y2599D01*
X5213Y2598D01*
X5216Y2596D01*
X5218Y2596D01*
X5220Y2595D01*
X5223Y2595D01*
X5226Y2594D01*
X5229Y2594D01*
X5231Y2594D01*
X5234Y2595D01*
X5238Y2595D01*
X5240Y2596D01*
X5242Y2596D01*
X5245Y2598D01*
X5248Y2599D01*
X5250Y2601D01*
X5251Y2602D01*
X5254Y2604D01*
X5257Y2606D01*
X5258Y2608D01*
X5259Y2609D01*
X5261Y2612D01*
X5263Y2615D01*
X5264Y2617D01*
X5265Y2619D01*
X5266Y2622D01*
X5267Y2626D01*
X5267Y2628D01*
X5267Y2630D01*
X5267Y2633D01*
X5267Y2637D01*
X5267Y2639D01*
X5267Y2641D01*
X5265Y2645D01*
X5264Y2648D01*
X5242Y2702D01*
X5242Y2810D01*
X5283Y2909D01*
X5359Y2984D01*
X5458Y3026D01*
X5565Y3026D01*
X5665Y2984D01*
X5740Y2909D01*
X5781Y2810D01*
X5781Y2702D01*
X5740Y2603D01*
X5665Y2527D01*
X5585Y2494D01*
X5581Y2492D01*
X5577Y2490D01*
X5576Y2489D01*
X5572Y2485D01*
X5569Y2482D01*
X5569Y2481D01*
X5568Y2481D01*
X5566Y2477D01*
X5564Y2472D01*
X5563Y2472D01*
X5563Y2471D01*
X5562Y2466D01*
X5561Y2462D01*
X5561Y2461D01*
X5561Y2460D01*
X5561Y2455D01*
X5562Y2451D01*
X5562Y2450D01*
X5562Y2449D01*
X5564Y2445D01*
X5565Y2440D01*
X5566Y2439D01*
X5571Y2433D01*
X5572Y2430D01*
X5862Y2141D01*
X5968Y2035D01*
X5968Y1418D01*
X5968Y1414D01*
X5969Y1410D01*
X5969Y1409D01*
X5969Y1407D01*
X5971Y1403D01*
X5972Y1400D01*
X5973Y1399D01*
X5974Y1397D01*
X5977Y1393D01*
X5979Y1390D01*
X6036Y1334D01*
X6077Y1235D01*
X6077Y1127D01*
X6036Y1028D01*
X5960Y953D01*
X5861Y911D01*
X5753Y911D01*
G37*
%LPD*%
%LPC*%
G36*
X7351Y2301D02*
X7351Y2301D01*
X7111Y2400D01*
X6927Y2583D01*
X6828Y2823D01*
X6828Y3082D01*
X6927Y3322D01*
X7111Y3506D01*
X7351Y3605D01*
X7610Y3605D01*
X7850Y3506D01*
X8033Y3322D01*
X8133Y3082D01*
X8133Y2823D01*
X8033Y2583D01*
X7850Y2400D01*
X7610Y2301D01*
X7351Y2301D01*
G37*
%LPD*%
%LPC*%
G36*
X1445Y2301D02*
X1445Y2301D01*
X1205Y2400D01*
X1022Y2583D01*
X923Y2823D01*
X923Y3082D01*
X1022Y3322D01*
X1205Y3506D01*
X1445Y3605D01*
X1705Y3605D01*
X1944Y3506D01*
X2128Y3322D01*
X2227Y3082D01*
X2227Y2823D01*
X2128Y2583D01*
X1944Y2400D01*
X1705Y2301D01*
X1445Y2301D01*
G37*
%LPD*%
%LPC*%
G36*
X4966Y4061D02*
X4966Y4061D01*
X4867Y4102D01*
X4791Y4178D01*
X4750Y4277D01*
X4750Y4384D01*
X4791Y4483D01*
X4867Y4559D01*
X4966Y4600D01*
X5073Y4600D01*
X5172Y4559D01*
X5248Y4483D01*
X5289Y4384D01*
X5289Y4277D01*
X5248Y4178D01*
X5172Y4102D01*
X5073Y4061D01*
X4966Y4061D01*
G37*
%LPD*%
%LPC*%
G36*
X5163Y3372D02*
X5163Y3372D01*
X5064Y3413D01*
X4988Y3489D01*
X4947Y3588D01*
X4947Y3695D01*
X4988Y3794D01*
X5064Y3870D01*
X5163Y3911D01*
X5270Y3911D01*
X5369Y3870D01*
X5445Y3794D01*
X5486Y3695D01*
X5486Y3588D01*
X5445Y3489D01*
X5369Y3413D01*
X5270Y3372D01*
X5163Y3372D01*
G37*
%LPD*%
%LPC*%
G36*
X3785Y3372D02*
X3785Y3372D01*
X3686Y3413D01*
X3610Y3489D01*
X3569Y3588D01*
X3569Y3695D01*
X3610Y3794D01*
X3686Y3870D01*
X3785Y3911D01*
X3892Y3911D01*
X3991Y3870D01*
X4067Y3794D01*
X4108Y3695D01*
X4108Y3588D01*
X4067Y3489D01*
X3991Y3413D01*
X3892Y3372D01*
X3785Y3372D01*
G37*
%LPD*%
%LPC*%
G36*
X5950Y3175D02*
X5950Y3175D01*
X5851Y3216D01*
X5775Y3292D01*
X5734Y3391D01*
X5734Y3499D01*
X5775Y3598D01*
X5851Y3673D01*
X5950Y3715D01*
X6058Y3715D01*
X6157Y3673D01*
X6233Y3598D01*
X6274Y3499D01*
X6274Y3391D01*
X6233Y3292D01*
X6157Y3216D01*
X6058Y3175D01*
X5950Y3175D01*
G37*
%LPD*%
%LPC*%
G36*
X6442Y1896D02*
X6442Y1896D01*
X6343Y1937D01*
X6267Y2013D01*
X6226Y2112D01*
X6226Y2219D01*
X6267Y2318D01*
X6343Y2394D01*
X6442Y2435D01*
X6550Y2435D01*
X6649Y2394D01*
X6725Y2318D01*
X6766Y2219D01*
X6766Y2112D01*
X6725Y2013D01*
X6649Y1937D01*
X6550Y1896D01*
X6442Y1896D01*
G37*
%LPD*%
%LPC*%
G36*
X2505Y1502D02*
X2505Y1502D01*
X2406Y1543D01*
X2330Y1619D01*
X2289Y1718D01*
X2289Y1825D01*
X2330Y1924D01*
X2406Y2000D01*
X2505Y2041D01*
X2613Y2041D01*
X2712Y2000D01*
X2788Y1924D01*
X2829Y1825D01*
X2829Y1718D01*
X2788Y1619D01*
X2712Y1543D01*
X2613Y1502D01*
X2505Y1502D01*
G37*
%LPD*%
%LPC*%
G36*
X2899Y1010D02*
X2899Y1010D01*
X2800Y1051D01*
X2724Y1127D01*
X2683Y1226D01*
X2683Y1333D01*
X2724Y1432D01*
X2800Y1508D01*
X2899Y1549D01*
X3006Y1549D01*
X3106Y1508D01*
X3181Y1432D01*
X3222Y1333D01*
X3222Y1226D01*
X3181Y1127D01*
X3106Y1051D01*
X3006Y1010D01*
X2899Y1010D01*
G37*
%LPD*%
%LPC*%
G36*
X6442Y911D02*
X6442Y911D01*
X6343Y953D01*
X6267Y1028D01*
X6226Y1127D01*
X6226Y1235D01*
X6267Y1334D01*
X6343Y1410D01*
X6442Y1451D01*
X6550Y1451D01*
X6649Y1410D01*
X6725Y1334D01*
X6766Y1235D01*
X6766Y1127D01*
X6725Y1028D01*
X6649Y953D01*
X6550Y911D01*
X6442Y911D01*
G37*
%LPD*%
D10*
X7480Y2953D03*
X1575Y2953D03*
D11*
X4528Y7677D03*
X4528Y4921D03*
X5512Y2756D03*
X3839Y3642D03*
X6496Y2165D03*
X6004Y3445D03*
X2559Y1772D03*
X4134Y4331D03*
X5807Y1181D03*
D12*
X4626Y3839D02*
X4134Y4331D01*
X4626Y3839D02*
X4626Y2953D01*
X5315Y2264D01*
X5512Y2264D01*
X5807Y1969D01*
X5807Y1181D01*
D11*
X5020Y4331D03*
X2953Y1280D03*
X5217Y3642D03*
X6496Y1181D03*
M02*
