G04 EAGLE Gerber X2 export*
G75*
%MOIN*%
%FSLAX24Y24*%
%LPD*%
%AMOC8*
5,1,8,0,0,1.08239X$1,22.5*%
G01*
%ADD10C,0.012500*%
%ADD11C,0.008750*%
%ADD12R,0.029528X0.009055*%
%ADD13R,0.023622X0.017323*%
%ADD14C,0.106299*%
%ADD15R,0.023622X0.011811*%
%ADD16C,0.008000*%
%ADD17C,0.029780*%

G36*
X7335Y451D02*
X7335Y451D01*
X7340Y452D01*
X7341Y452D01*
X7342Y452D01*
X7346Y454D01*
X7350Y456D01*
X7351Y457D01*
X7352Y457D01*
X7355Y460D01*
X7359Y463D01*
X7359Y464D01*
X7360Y464D01*
X7363Y468D01*
X7365Y472D01*
X7366Y473D01*
X7368Y478D01*
X7369Y482D01*
X7369Y483D01*
X7369Y484D01*
X7369Y489D01*
X7370Y493D01*
X7369Y494D01*
X7370Y495D01*
X7368Y502D01*
X7367Y505D01*
X7237Y818D01*
X7237Y1150D01*
X7364Y1457D01*
X7599Y1691D01*
X7905Y1818D01*
X8237Y1818D01*
X8550Y1688D01*
X8555Y1687D01*
X8559Y1686D01*
X8560Y1686D01*
X8561Y1686D01*
X8566Y1686D01*
X8570Y1686D01*
X8571Y1686D01*
X8572Y1686D01*
X8576Y1687D01*
X8581Y1689D01*
X8582Y1689D01*
X8586Y1692D01*
X8590Y1694D01*
X8591Y1695D01*
X8592Y1696D01*
X8595Y1699D01*
X8598Y1703D01*
X8599Y1704D01*
X8601Y1708D01*
X8603Y1713D01*
X8603Y1714D01*
X8604Y1721D01*
X8604Y1725D01*
X8604Y3740D01*
X8604Y3742D01*
X8604Y3743D01*
X8603Y3759D01*
X8602Y3764D01*
X8601Y3768D01*
X8591Y3798D01*
X8590Y3800D01*
X8589Y3802D01*
X8589Y3803D01*
X8589Y3804D01*
X8587Y3808D01*
X8586Y3808D01*
X8586Y3809D01*
X8567Y3834D01*
X8567Y3835D01*
X8566Y3836D01*
X8560Y3842D01*
X8559Y3843D01*
X8533Y3862D01*
X8531Y3863D01*
X8523Y3867D01*
X8522Y3867D01*
X8492Y3877D01*
X8487Y3878D01*
X8483Y3879D01*
X8468Y3880D01*
X8466Y3880D01*
X8465Y3880D01*
X6694Y3880D01*
X6321Y4001D01*
X6003Y4232D01*
X5787Y4530D01*
X5784Y4533D01*
X5781Y4536D01*
X5780Y4537D01*
X5779Y4538D01*
X5775Y4540D01*
X5772Y4542D01*
X5771Y4542D01*
X5770Y4543D01*
X5765Y4544D01*
X5761Y4545D01*
X5760Y4545D01*
X5759Y4546D01*
X5754Y4545D01*
X5750Y4545D01*
X5749Y4545D01*
X5748Y4545D01*
X5744Y4544D01*
X5739Y4543D01*
X5738Y4542D01*
X5737Y4541D01*
X5734Y4539D01*
X5730Y4537D01*
X5729Y4536D01*
X5728Y4535D01*
X5725Y4532D01*
X5723Y4528D01*
X5722Y4527D01*
X5721Y4526D01*
X5720Y4522D01*
X5718Y4518D01*
X5718Y4517D01*
X5717Y4516D01*
X5716Y4510D01*
X5716Y4507D01*
X5716Y3977D01*
X5716Y3973D01*
X5717Y3969D01*
X5717Y3967D01*
X5717Y3966D01*
X5719Y3962D01*
X5720Y3958D01*
X5721Y3957D01*
X5722Y3955D01*
X5725Y3952D01*
X5727Y3949D01*
X5950Y3726D01*
X5953Y3724D01*
X5956Y3721D01*
X5958Y3720D01*
X5959Y3719D01*
X5963Y3718D01*
X5966Y3716D01*
X5968Y3716D01*
X5969Y3715D01*
X5974Y3715D01*
X5978Y3715D01*
X6058Y3715D01*
X6157Y3673D01*
X6233Y3598D01*
X6274Y3499D01*
X6274Y3391D01*
X6233Y3292D01*
X6157Y3216D01*
X6058Y3175D01*
X6005Y3175D01*
X6004Y3175D01*
X6003Y3175D01*
X5998Y3174D01*
X5994Y3174D01*
X5993Y3173D01*
X5992Y3173D01*
X5988Y3171D01*
X5984Y3169D01*
X5983Y3168D01*
X5982Y3168D01*
X5979Y3165D01*
X5976Y3162D01*
X5975Y3161D01*
X5974Y3160D01*
X5972Y3156D01*
X5970Y3153D01*
X5969Y3151D01*
X5969Y3150D01*
X5968Y3146D01*
X5966Y3142D01*
X5966Y3141D01*
X5966Y3139D01*
X5966Y3135D01*
X5966Y3131D01*
X5967Y3130D01*
X5967Y3128D01*
X5968Y3124D01*
X5969Y3120D01*
X5970Y3119D01*
X5970Y3118D01*
X5972Y3115D01*
X5975Y3111D01*
X5976Y3110D01*
X5977Y3108D01*
X6256Y2830D01*
X6259Y2827D01*
X6262Y2825D01*
X6263Y2824D01*
X6265Y2823D01*
X6268Y2822D01*
X6272Y2820D01*
X6273Y2820D01*
X6275Y2819D01*
X6280Y2819D01*
X6284Y2818D01*
X6661Y2818D01*
X6810Y2669D01*
X6813Y2667D01*
X6815Y2665D01*
X6817Y2664D01*
X6819Y2663D01*
X6822Y2661D01*
X6825Y2660D01*
X6827Y2659D01*
X6829Y2659D01*
X6833Y2658D01*
X6836Y2658D01*
X6838Y2658D01*
X6840Y2658D01*
X6844Y2659D01*
X6847Y2659D01*
X6849Y2660D01*
X6851Y2660D01*
X6854Y2662D01*
X6857Y2663D01*
X6859Y2664D01*
X6861Y2665D01*
X6863Y2668D01*
X6866Y2670D01*
X6867Y2672D01*
X6869Y2673D01*
X6871Y2676D01*
X6873Y2679D01*
X6873Y2681D01*
X6874Y2683D01*
X6875Y2686D01*
X6876Y2689D01*
X6876Y2691D01*
X6877Y2694D01*
X6877Y2697D01*
X6877Y2700D01*
X6876Y2702D01*
X6876Y2705D01*
X6875Y2709D01*
X6874Y2712D01*
X6828Y2823D01*
X6828Y3082D01*
X6927Y3322D01*
X7111Y3506D01*
X7351Y3605D01*
X7610Y3605D01*
X7850Y3506D01*
X8033Y3322D01*
X8133Y3082D01*
X8133Y2823D01*
X8033Y2583D01*
X7850Y2400D01*
X7610Y2301D01*
X7351Y2301D01*
X7105Y2402D01*
X7100Y2403D01*
X7096Y2405D01*
X7095Y2405D01*
X7094Y2405D01*
X7089Y2405D01*
X7085Y2405D01*
X7084Y2405D01*
X7083Y2405D01*
X7078Y2403D01*
X7074Y2402D01*
X7073Y2402D01*
X7072Y2401D01*
X7069Y2399D01*
X7065Y2396D01*
X7064Y2395D01*
X7063Y2395D01*
X7060Y2391D01*
X7057Y2388D01*
X7057Y2387D01*
X7056Y2386D01*
X7054Y2382D01*
X7052Y2378D01*
X7052Y2377D01*
X7052Y2376D01*
X7051Y2369D01*
X7051Y2366D01*
X7051Y1508D01*
X6945Y1403D01*
X6777Y1235D01*
X6775Y1232D01*
X6772Y1229D01*
X6772Y1227D01*
X6771Y1226D01*
X6769Y1222D01*
X6768Y1219D01*
X6767Y1217D01*
X6767Y1216D01*
X6766Y1211D01*
X6766Y1207D01*
X6766Y1127D01*
X6725Y1028D01*
X6649Y953D01*
X6550Y911D01*
X6470Y911D01*
X6466Y911D01*
X6462Y911D01*
X6461Y910D01*
X6459Y910D01*
X6456Y908D01*
X6452Y907D01*
X6451Y906D01*
X6449Y905D01*
X6445Y902D01*
X6442Y900D01*
X6169Y627D01*
X5642Y627D01*
X5535Y733D01*
X5532Y736D01*
X5530Y738D01*
X5528Y739D01*
X5527Y740D01*
X5523Y741D01*
X5520Y743D01*
X5518Y743D01*
X5516Y744D01*
X5511Y744D01*
X5508Y745D01*
X5479Y745D01*
X5475Y744D01*
X5471Y744D01*
X5470Y743D01*
X5468Y743D01*
X5465Y742D01*
X5461Y740D01*
X5460Y739D01*
X5458Y739D01*
X5454Y735D01*
X5451Y733D01*
X5444Y726D01*
X5107Y726D01*
X5037Y796D01*
X5037Y1015D01*
X5057Y1035D01*
X5059Y1037D01*
X5061Y1039D01*
X5062Y1042D01*
X5064Y1044D01*
X5065Y1047D01*
X5066Y1049D01*
X5067Y1052D01*
X5068Y1054D01*
X5068Y1057D01*
X5069Y1060D01*
X5069Y1063D01*
X5069Y1066D01*
X5068Y1068D01*
X5068Y1071D01*
X5067Y1073D01*
X5067Y1076D01*
X5065Y1079D01*
X5064Y1081D01*
X5063Y1083D01*
X5061Y1086D01*
X5059Y1089D01*
X5057Y1091D01*
X5037Y1111D01*
X5037Y1330D01*
X5057Y1350D01*
X5059Y1352D01*
X5061Y1354D01*
X5062Y1357D01*
X5064Y1359D01*
X5065Y1361D01*
X5066Y1364D01*
X5067Y1367D01*
X5068Y1369D01*
X5068Y1372D01*
X5069Y1375D01*
X5069Y1378D01*
X5069Y1381D01*
X5068Y1383D01*
X5068Y1386D01*
X5067Y1388D01*
X5067Y1391D01*
X5065Y1394D01*
X5064Y1396D01*
X5063Y1398D01*
X5061Y1401D01*
X5059Y1403D01*
X5057Y1406D01*
X5037Y1426D01*
X5037Y1645D01*
X5057Y1665D01*
X5059Y1667D01*
X5061Y1669D01*
X5062Y1672D01*
X5064Y1674D01*
X5065Y1676D01*
X5066Y1679D01*
X5067Y1682D01*
X5068Y1684D01*
X5068Y1687D01*
X5069Y1689D01*
X5069Y1692D01*
X5069Y1695D01*
X5068Y1698D01*
X5068Y1701D01*
X5067Y1703D01*
X5067Y1706D01*
X5065Y1709D01*
X5064Y1711D01*
X5063Y1713D01*
X5061Y1716D01*
X5059Y1718D01*
X5057Y1721D01*
X5037Y1741D01*
X5037Y1959D01*
X5107Y2030D01*
X5444Y2030D01*
X5451Y2023D01*
X5454Y2020D01*
X5457Y2018D01*
X5459Y2017D01*
X5460Y2016D01*
X5464Y2015D01*
X5467Y2013D01*
X5469Y2013D01*
X5471Y2012D01*
X5475Y2012D01*
X5479Y2011D01*
X5624Y2011D01*
X5628Y2012D01*
X5632Y2012D01*
X5634Y2012D01*
X5635Y2013D01*
X5639Y2014D01*
X5642Y2016D01*
X5644Y2017D01*
X5645Y2017D01*
X5649Y2020D01*
X5652Y2023D01*
X5690Y2060D01*
X5691Y2063D01*
X5694Y2065D01*
X5695Y2067D01*
X5696Y2069D01*
X5697Y2072D01*
X5699Y2075D01*
X5699Y2077D01*
X5700Y2080D01*
X5701Y2083D01*
X5701Y2085D01*
X5701Y2088D01*
X5701Y2091D01*
X5701Y2094D01*
X5700Y2096D01*
X5699Y2099D01*
X5699Y2101D01*
X5697Y2105D01*
X5696Y2108D01*
X5691Y2116D01*
X5680Y2158D01*
X5680Y2180D01*
X5883Y2180D01*
X5886Y2181D01*
X5888Y2181D01*
X5891Y2181D01*
X5894Y2182D01*
X5896Y2183D01*
X5899Y2183D01*
X5901Y2185D01*
X5904Y2186D01*
X5905Y2187D01*
X5906Y2187D01*
X5909Y2186D01*
X5911Y2184D01*
X5914Y2183D01*
X5916Y2182D01*
X5919Y2182D01*
X5922Y2181D01*
X5925Y2181D01*
X5928Y2180D01*
X6131Y2180D01*
X6131Y2158D01*
X6122Y2122D01*
X6121Y2121D01*
X6121Y2120D01*
X6121Y2115D01*
X6120Y2111D01*
X6120Y2110D01*
X6120Y2109D01*
X6121Y2104D01*
X6122Y2100D01*
X6122Y2099D01*
X6123Y2098D01*
X6125Y2094D01*
X6127Y2090D01*
X6127Y2089D01*
X6128Y2088D01*
X6131Y2085D01*
X6134Y2082D01*
X6135Y2081D01*
X6136Y2080D01*
X6140Y2078D01*
X6144Y2076D01*
X6144Y2075D01*
X6145Y2075D01*
X6150Y2074D01*
X6154Y2073D01*
X6155Y2073D01*
X6156Y2073D01*
X6161Y2073D01*
X6165Y2073D01*
X6166Y2073D01*
X6167Y2073D01*
X6172Y2075D01*
X6176Y2076D01*
X6177Y2076D01*
X6178Y2077D01*
X6181Y2079D01*
X6185Y2082D01*
X6186Y2083D01*
X6187Y2084D01*
X6215Y2112D01*
X6216Y2113D01*
X6217Y2114D01*
X6217Y2115D01*
X6220Y2117D01*
X6221Y2119D01*
X6222Y2120D01*
X6223Y2124D01*
X6225Y2127D01*
X6225Y2129D01*
X6225Y2131D01*
X6226Y2136D01*
X6226Y2139D01*
X6226Y2219D01*
X6267Y2318D01*
X6343Y2394D01*
X6409Y2421D01*
X6412Y2423D01*
X6415Y2424D01*
X6417Y2426D01*
X6419Y2427D01*
X6421Y2429D01*
X6424Y2432D01*
X6425Y2433D01*
X6426Y2435D01*
X6428Y2438D01*
X6430Y2441D01*
X6430Y2443D01*
X6431Y2445D01*
X6432Y2448D01*
X6433Y2451D01*
X6433Y2454D01*
X6433Y2456D01*
X6433Y2459D01*
X6433Y2463D01*
X6432Y2465D01*
X6432Y2467D01*
X6431Y2470D01*
X6430Y2473D01*
X6429Y2475D01*
X6428Y2477D01*
X6426Y2480D01*
X6424Y2483D01*
X6423Y2484D01*
X6421Y2486D01*
X6419Y2488D01*
X6416Y2490D01*
X6414Y2491D01*
X6412Y2492D01*
X6409Y2493D01*
X6406Y2495D01*
X6404Y2495D01*
X6402Y2496D01*
X6398Y2496D01*
X6394Y2497D01*
X6134Y2497D01*
X5848Y2782D01*
X5847Y2783D01*
X5847Y2784D01*
X5843Y2787D01*
X5840Y2789D01*
X5838Y2790D01*
X5837Y2790D01*
X5833Y2792D01*
X5829Y2793D01*
X5828Y2793D01*
X5827Y2794D01*
X5822Y2794D01*
X5818Y2794D01*
X5817Y2794D01*
X5816Y2794D01*
X5811Y2792D01*
X5807Y2792D01*
X5806Y2791D01*
X5805Y2791D01*
X5801Y2788D01*
X5798Y2786D01*
X5797Y2785D01*
X5796Y2785D01*
X5793Y2782D01*
X5790Y2779D01*
X5789Y2778D01*
X5788Y2777D01*
X5786Y2773D01*
X5784Y2769D01*
X5784Y2768D01*
X5783Y2767D01*
X5783Y2763D01*
X5782Y2758D01*
X5782Y2756D01*
X5781Y2755D01*
X5781Y2702D01*
X5740Y2603D01*
X5665Y2527D01*
X5565Y2486D01*
X5458Y2486D01*
X5359Y2527D01*
X5303Y2584D01*
X5300Y2586D01*
X5297Y2589D01*
X5295Y2589D01*
X5294Y2590D01*
X5290Y2592D01*
X5287Y2593D01*
X5285Y2594D01*
X5283Y2594D01*
X5279Y2595D01*
X5275Y2595D01*
X5080Y2595D01*
X5076Y2595D01*
X5072Y2594D01*
X5071Y2594D01*
X5069Y2594D01*
X5065Y2592D01*
X5062Y2591D01*
X5060Y2590D01*
X5059Y2589D01*
X5055Y2586D01*
X5052Y2584D01*
X5027Y2559D01*
X4628Y2559D01*
X4539Y2648D01*
X4537Y2649D01*
X4536Y2650D01*
X4533Y2652D01*
X4530Y2654D01*
X4528Y2655D01*
X4526Y2656D01*
X4523Y2657D01*
X4520Y2658D01*
X4518Y2658D01*
X4516Y2659D01*
X4512Y2659D01*
X4509Y2659D01*
X4507Y2659D01*
X4505Y2659D01*
X4501Y2657D01*
X4498Y2657D01*
X4496Y2656D01*
X4494Y2655D01*
X4491Y2653D01*
X4488Y2652D01*
X4487Y2650D01*
X4485Y2649D01*
X4483Y2646D01*
X4480Y2644D01*
X4479Y2641D01*
X4477Y2639D01*
X4474Y2634D01*
X4448Y2607D01*
X4415Y2588D01*
X4378Y2579D01*
X4307Y2579D01*
X4307Y2814D01*
X4306Y2817D01*
X4306Y2819D01*
X4306Y2822D01*
X4305Y2825D01*
X4304Y2828D01*
X4303Y2830D01*
X4302Y2833D01*
X4301Y2835D01*
X4299Y2837D01*
X4298Y2840D01*
X4295Y2842D01*
X4293Y2844D01*
X4291Y2845D01*
X4289Y2847D01*
X4287Y2848D01*
X4284Y2850D01*
X4282Y2851D01*
X4279Y2852D01*
X4277Y2852D01*
X4274Y2853D01*
X4270Y2853D01*
X4268Y2854D01*
X4227Y2854D01*
X4227Y2855D01*
X4268Y2855D01*
X4270Y2855D01*
X4273Y2855D01*
X4276Y2856D01*
X4279Y2857D01*
X4281Y2858D01*
X4283Y2858D01*
X4286Y2860D01*
X4289Y2861D01*
X4291Y2863D01*
X4293Y2864D01*
X4295Y2866D01*
X4297Y2868D01*
X4298Y2871D01*
X4300Y2872D01*
X4301Y2875D01*
X4303Y2878D01*
X4304Y2880D01*
X4305Y2882D01*
X4305Y2885D01*
X4306Y2888D01*
X4306Y2892D01*
X4307Y2894D01*
X4307Y3130D01*
X4378Y3130D01*
X4415Y3120D01*
X4448Y3101D01*
X4474Y3074D01*
X4477Y3069D01*
X4479Y3067D01*
X4480Y3066D01*
X4482Y3063D01*
X4484Y3060D01*
X4486Y3059D01*
X4487Y3058D01*
X4490Y3056D01*
X4493Y3054D01*
X4495Y3053D01*
X4497Y3052D01*
X4500Y3051D01*
X4504Y3050D01*
X4506Y3050D01*
X4508Y3050D01*
X4511Y3050D01*
X4515Y3050D01*
X4517Y3050D01*
X4519Y3050D01*
X4522Y3051D01*
X4526Y3052D01*
X4527Y3053D01*
X4529Y3054D01*
X4532Y3056D01*
X4535Y3058D01*
X4537Y3060D01*
X4539Y3061D01*
X4628Y3150D01*
X5027Y3150D01*
X5123Y3054D01*
X5123Y2956D01*
X5124Y2953D01*
X5124Y2951D01*
X5124Y2948D01*
X5125Y2945D01*
X5126Y2943D01*
X5127Y2940D01*
X5128Y2938D01*
X5129Y2935D01*
X5131Y2933D01*
X5132Y2931D01*
X5135Y2929D01*
X5137Y2926D01*
X5139Y2925D01*
X5141Y2923D01*
X5143Y2922D01*
X5146Y2920D01*
X5148Y2920D01*
X5151Y2918D01*
X5153Y2918D01*
X5157Y2917D01*
X5160Y2917D01*
X5163Y2917D01*
X5275Y2917D01*
X5279Y2917D01*
X5283Y2917D01*
X5284Y2918D01*
X5286Y2918D01*
X5289Y2920D01*
X5293Y2921D01*
X5294Y2922D01*
X5296Y2923D01*
X5300Y2926D01*
X5303Y2928D01*
X5359Y2984D01*
X5458Y3026D01*
X5511Y3026D01*
X5512Y3026D01*
X5513Y3026D01*
X5517Y3027D01*
X5522Y3027D01*
X5523Y3028D01*
X5524Y3028D01*
X5528Y3030D01*
X5532Y3032D01*
X5533Y3033D01*
X5534Y3033D01*
X5537Y3036D01*
X5540Y3039D01*
X5541Y3040D01*
X5542Y3041D01*
X5544Y3045D01*
X5546Y3048D01*
X5547Y3049D01*
X5547Y3051D01*
X5548Y3055D01*
X5549Y3059D01*
X5549Y3060D01*
X5550Y3061D01*
X5549Y3066D01*
X5550Y3070D01*
X5549Y3071D01*
X5549Y3072D01*
X5548Y3076D01*
X5547Y3081D01*
X5546Y3082D01*
X5545Y3083D01*
X5543Y3086D01*
X5541Y3090D01*
X5539Y3091D01*
X5538Y3093D01*
X5270Y3361D01*
X5267Y3363D01*
X5264Y3365D01*
X5263Y3366D01*
X5261Y3367D01*
X5258Y3369D01*
X5254Y3370D01*
X5253Y3371D01*
X5251Y3371D01*
X5246Y3372D01*
X5243Y3372D01*
X5163Y3372D01*
X5064Y3413D01*
X4988Y3489D01*
X4947Y3588D01*
X4947Y3695D01*
X4988Y3794D01*
X5064Y3870D01*
X5163Y3911D01*
X5168Y3911D01*
X5170Y3912D01*
X5173Y3912D01*
X5176Y3913D01*
X5179Y3913D01*
X5181Y3914D01*
X5183Y3915D01*
X5186Y3916D01*
X5189Y3918D01*
X5191Y3919D01*
X5193Y3921D01*
X5195Y3923D01*
X5197Y3925D01*
X5199Y3927D01*
X5200Y3929D01*
X5202Y3932D01*
X5203Y3934D01*
X5204Y3936D01*
X5205Y3939D01*
X5205Y3942D01*
X5206Y3945D01*
X5206Y3948D01*
X5207Y3951D01*
X5207Y4058D01*
X5206Y4062D01*
X5206Y4067D01*
X5205Y4068D01*
X5205Y4069D01*
X5203Y4073D01*
X5202Y4077D01*
X5201Y4078D01*
X5201Y4079D01*
X5198Y4082D01*
X5195Y4086D01*
X5194Y4086D01*
X5194Y4087D01*
X5190Y4090D01*
X5186Y4092D01*
X5185Y4093D01*
X5184Y4093D01*
X5180Y4095D01*
X5175Y4096D01*
X5174Y4096D01*
X5169Y4096D01*
X5164Y4097D01*
X5163Y4097D01*
X5156Y4095D01*
X5153Y4094D01*
X5073Y4061D01*
X4966Y4061D01*
X4867Y4102D01*
X4791Y4178D01*
X4750Y4277D01*
X4750Y4384D01*
X4791Y4483D01*
X4867Y4559D01*
X4966Y4600D01*
X4980Y4600D01*
X4983Y4601D01*
X4985Y4601D01*
X4988Y4601D01*
X4991Y4602D01*
X4993Y4603D01*
X4996Y4604D01*
X4998Y4605D01*
X5001Y4606D01*
X5003Y4608D01*
X5005Y4610D01*
X5007Y4612D01*
X5010Y4614D01*
X5011Y4616D01*
X5013Y4618D01*
X5014Y4620D01*
X5016Y4623D01*
X5016Y4625D01*
X5018Y4628D01*
X5018Y4630D01*
X5019Y4634D01*
X5019Y4637D01*
X5019Y4640D01*
X5019Y5309D01*
X5019Y5311D01*
X5019Y5313D01*
X5018Y5316D01*
X5018Y5320D01*
X5017Y5322D01*
X5017Y5324D01*
X5015Y5327D01*
X5013Y5330D01*
X5012Y5332D01*
X5011Y5333D01*
X5009Y5336D01*
X5006Y5339D01*
X5005Y5340D01*
X5003Y5341D01*
X5000Y5343D01*
X4997Y5345D01*
X4995Y5345D01*
X4994Y5346D01*
X4990Y5347D01*
X4986Y5348D01*
X4984Y5348D01*
X4983Y5348D01*
X4979Y5348D01*
X4975Y5348D01*
X4973Y5348D01*
X4972Y5348D01*
X4968Y5346D01*
X4964Y5345D01*
X4962Y5344D01*
X4960Y5343D01*
X4935Y5336D01*
X4846Y5336D01*
X4846Y5520D01*
X4845Y5523D01*
X4845Y5525D01*
X4845Y5528D01*
X4844Y5531D01*
X4843Y5534D01*
X4842Y5536D01*
X4841Y5539D01*
X4840Y5541D01*
X4838Y5543D01*
X4837Y5546D01*
X4834Y5548D01*
X4832Y5550D01*
X4831Y5551D01*
X4830Y5552D01*
X4828Y5554D01*
X4826Y5556D01*
X4824Y5558D01*
X4822Y5560D01*
X4819Y5561D01*
X4816Y5562D01*
X4814Y5563D01*
X4812Y5564D01*
X4809Y5565D01*
X4806Y5566D01*
X4803Y5566D01*
X4800Y5566D01*
X4584Y5566D01*
X4584Y5623D01*
X4591Y5649D01*
X4604Y5672D01*
X4623Y5691D01*
X4633Y5697D01*
X4636Y5699D01*
X4639Y5701D01*
X4640Y5702D01*
X4642Y5704D01*
X4644Y5706D01*
X4646Y5709D01*
X4647Y5711D01*
X4648Y5713D01*
X4650Y5716D01*
X4651Y5719D01*
X4651Y5721D01*
X4652Y5723D01*
X4652Y5727D01*
X4653Y5731D01*
X4653Y6299D01*
X4653Y6301D01*
X4653Y6302D01*
X4653Y6303D01*
X4653Y6304D01*
X4652Y6307D01*
X4651Y6310D01*
X4651Y6311D01*
X4651Y6313D01*
X4650Y6314D01*
X4650Y6315D01*
X4649Y6316D01*
X4648Y6316D01*
X4647Y6320D01*
X4646Y6321D01*
X4645Y6322D01*
X4644Y6324D01*
X4643Y6324D01*
X4642Y6326D01*
X4640Y6329D01*
X4638Y6329D01*
X4638Y6330D01*
X4634Y6333D01*
X4630Y6335D01*
X4629Y6335D01*
X4628Y6336D01*
X4624Y6337D01*
X4620Y6338D01*
X4618Y6338D01*
X4617Y6338D01*
X4613Y6338D01*
X4609Y6338D01*
X4607Y6338D01*
X4606Y6338D01*
X4603Y6337D01*
X4602Y6337D01*
X4601Y6336D01*
X4598Y6335D01*
X4597Y6335D01*
X4596Y6334D01*
X4594Y6333D01*
X4592Y6332D01*
X4591Y6331D01*
X4588Y6329D01*
X4587Y6328D01*
X4586Y6327D01*
X4583Y6324D01*
X4476Y6217D01*
X4438Y6217D01*
X4437Y6217D01*
X4436Y6217D01*
X4431Y6216D01*
X4427Y6216D01*
X4426Y6215D01*
X4425Y6215D01*
X4421Y6213D01*
X4417Y6211D01*
X4416Y6210D01*
X4415Y6210D01*
X4412Y6207D01*
X4409Y6204D01*
X4408Y6203D01*
X4407Y6202D01*
X4405Y6198D01*
X4403Y6195D01*
X4402Y6193D01*
X4402Y6192D01*
X4401Y6188D01*
X4399Y6184D01*
X4399Y6183D01*
X4399Y6181D01*
X4399Y6177D01*
X4399Y6173D01*
X4400Y6172D01*
X4400Y6170D01*
X4401Y6166D01*
X4402Y6162D01*
X4402Y5731D01*
X4403Y5727D01*
X4403Y5724D01*
X4404Y5722D01*
X4404Y5720D01*
X4405Y5717D01*
X4406Y5713D01*
X4407Y5712D01*
X4408Y5710D01*
X4411Y5707D01*
X4413Y5704D01*
X4414Y5703D01*
X4416Y5701D01*
X4419Y5699D01*
X4422Y5697D01*
X4432Y5691D01*
X4451Y5672D01*
X4464Y5649D01*
X4471Y5624D01*
X4471Y5566D01*
X4255Y5566D01*
X4253Y5566D01*
X4250Y5566D01*
X4247Y5565D01*
X4244Y5565D01*
X4242Y5564D01*
X4240Y5563D01*
X4237Y5561D01*
X4234Y5560D01*
X4232Y5558D01*
X4230Y5557D01*
X4228Y5555D01*
X4226Y5553D01*
X4225Y5551D01*
X4223Y5550D01*
X4221Y5548D01*
X4219Y5546D01*
X4218Y5544D01*
X4216Y5542D01*
X4215Y5539D01*
X4213Y5537D01*
X4212Y5534D01*
X4211Y5532D01*
X4211Y5529D01*
X4210Y5526D01*
X4210Y5523D01*
X4209Y5520D01*
X4209Y5336D01*
X4137Y5336D01*
X4134Y5336D01*
X4132Y5336D01*
X4129Y5335D01*
X4126Y5335D01*
X4124Y5334D01*
X4121Y5333D01*
X4119Y5331D01*
X4116Y5330D01*
X4114Y5328D01*
X4112Y5327D01*
X4110Y5325D01*
X4108Y5323D01*
X4106Y5321D01*
X4104Y5319D01*
X4103Y5316D01*
X4101Y5314D01*
X4101Y5311D01*
X4100Y5309D01*
X4099Y5306D01*
X4098Y5303D01*
X4098Y5300D01*
X4098Y5297D01*
X4098Y4640D01*
X4098Y4637D01*
X4098Y4635D01*
X4099Y4632D01*
X4099Y4629D01*
X4100Y4626D01*
X4101Y4624D01*
X4103Y4621D01*
X4104Y4619D01*
X4106Y4617D01*
X4107Y4614D01*
X4109Y4612D01*
X4111Y4610D01*
X4113Y4609D01*
X4115Y4607D01*
X4118Y4606D01*
X4120Y4604D01*
X4123Y4603D01*
X4125Y4602D01*
X4128Y4602D01*
X4131Y4601D01*
X4134Y4601D01*
X4137Y4600D01*
X4187Y4600D01*
X4287Y4559D01*
X4362Y4483D01*
X4404Y4384D01*
X4404Y4277D01*
X4362Y4178D01*
X4287Y4102D01*
X4187Y4061D01*
X4080Y4061D01*
X3981Y4102D01*
X3968Y4115D01*
X3967Y4116D01*
X3966Y4117D01*
X3962Y4119D01*
X3959Y4122D01*
X3958Y4122D01*
X3957Y4123D01*
X3953Y4124D01*
X3949Y4126D01*
X3947Y4126D01*
X3946Y4126D01*
X3942Y4126D01*
X3938Y4127D01*
X3936Y4126D01*
X3935Y4126D01*
X3931Y4125D01*
X3927Y4124D01*
X3926Y4124D01*
X3924Y4124D01*
X3921Y4121D01*
X3917Y4119D01*
X3916Y4118D01*
X3915Y4118D01*
X3912Y4114D01*
X3909Y4111D01*
X3908Y4110D01*
X3908Y4109D01*
X3906Y4106D01*
X3904Y4102D01*
X3903Y4101D01*
X3903Y4099D01*
X3902Y4096D01*
X3901Y4091D01*
X3901Y4089D01*
X3901Y4088D01*
X3901Y3934D01*
X3901Y3933D01*
X3902Y3928D01*
X3902Y3923D01*
X3903Y3923D01*
X3903Y3922D01*
X3905Y3918D01*
X3907Y3913D01*
X3908Y3912D01*
X3911Y3908D01*
X3914Y3905D01*
X3915Y3904D01*
X3918Y3902D01*
X3924Y3898D01*
X3925Y3898D01*
X3991Y3870D01*
X4067Y3794D01*
X4108Y3695D01*
X4108Y3588D01*
X4067Y3489D01*
X3991Y3413D01*
X3892Y3372D01*
X3813Y3372D01*
X3809Y3372D01*
X3805Y3371D01*
X3803Y3371D01*
X3802Y3371D01*
X3798Y3369D01*
X3794Y3368D01*
X3793Y3367D01*
X3791Y3366D01*
X3788Y3363D01*
X3785Y3361D01*
X3322Y2898D01*
X3320Y2895D01*
X3317Y2892D01*
X3316Y2890D01*
X3315Y2889D01*
X3314Y2885D01*
X3312Y2882D01*
X3312Y2880D01*
X3311Y2878D01*
X3311Y2874D01*
X3310Y2870D01*
X3310Y2482D01*
X3311Y2478D01*
X3311Y2474D01*
X3312Y2472D01*
X3312Y2471D01*
X3314Y2467D01*
X3315Y2464D01*
X3316Y2462D01*
X3316Y2461D01*
X3320Y2457D01*
X3322Y2454D01*
X3395Y2380D01*
X3395Y2104D01*
X3387Y2095D01*
X3385Y2093D01*
X3383Y2091D01*
X3382Y2088D01*
X3380Y2086D01*
X3379Y2083D01*
X3378Y2081D01*
X3377Y2078D01*
X3376Y2075D01*
X3376Y2073D01*
X3375Y2070D01*
X3375Y2067D01*
X3375Y2064D01*
X3376Y2062D01*
X3376Y2059D01*
X3377Y2056D01*
X3377Y2054D01*
X3379Y2051D01*
X3379Y2049D01*
X3381Y2047D01*
X3383Y2044D01*
X3385Y2041D01*
X3387Y2039D01*
X3403Y2023D01*
X3406Y2020D01*
X3409Y2018D01*
X3411Y2017D01*
X3412Y2016D01*
X3416Y2015D01*
X3419Y2013D01*
X3421Y2013D01*
X3422Y2012D01*
X3427Y2012D01*
X3431Y2011D01*
X3576Y2011D01*
X3580Y2012D01*
X3584Y2012D01*
X3585Y2012D01*
X3587Y2013D01*
X3591Y2014D01*
X3594Y2016D01*
X3595Y2017D01*
X3597Y2017D01*
X3601Y2020D01*
X3604Y2023D01*
X3611Y2030D01*
X3948Y2030D01*
X4018Y1959D01*
X4018Y1741D01*
X3998Y1721D01*
X3996Y1719D01*
X3994Y1717D01*
X3993Y1714D01*
X3991Y1712D01*
X3990Y1709D01*
X3989Y1707D01*
X3988Y1704D01*
X3987Y1701D01*
X3987Y1699D01*
X3986Y1696D01*
X3987Y1693D01*
X3986Y1690D01*
X3987Y1688D01*
X3987Y1685D01*
X3988Y1682D01*
X3989Y1680D01*
X3990Y1677D01*
X3991Y1675D01*
X3992Y1673D01*
X3994Y1670D01*
X3996Y1667D01*
X3998Y1665D01*
X4018Y1645D01*
X4018Y1426D01*
X3998Y1406D01*
X3996Y1404D01*
X3994Y1402D01*
X3993Y1399D01*
X3991Y1397D01*
X3990Y1394D01*
X3989Y1392D01*
X3988Y1389D01*
X3987Y1386D01*
X3987Y1384D01*
X3986Y1381D01*
X3987Y1378D01*
X3986Y1375D01*
X3987Y1373D01*
X3987Y1370D01*
X3988Y1367D01*
X3989Y1365D01*
X3990Y1362D01*
X3991Y1360D01*
X3992Y1358D01*
X3994Y1355D01*
X3996Y1352D01*
X3998Y1350D01*
X4018Y1330D01*
X4018Y1111D01*
X3983Y1076D01*
X3981Y1074D01*
X3979Y1072D01*
X3978Y1069D01*
X3976Y1067D01*
X3975Y1064D01*
X3974Y1062D01*
X3973Y1059D01*
X3973Y1057D01*
X3972Y1054D01*
X3972Y1051D01*
X3972Y1048D01*
X3972Y1046D01*
X3972Y1043D01*
X3973Y1040D01*
X3973Y1038D01*
X3974Y1035D01*
X3976Y1032D01*
X3977Y1029D01*
X3992Y1003D01*
X3998Y978D01*
X3998Y945D01*
X3780Y945D01*
X3561Y945D01*
X3561Y978D01*
X3568Y1003D01*
X3582Y1029D01*
X3583Y1032D01*
X3585Y1034D01*
X3585Y1037D01*
X3586Y1039D01*
X3587Y1042D01*
X3587Y1045D01*
X3587Y1048D01*
X3587Y1050D01*
X3587Y1053D01*
X3587Y1056D01*
X3586Y1058D01*
X3585Y1061D01*
X3584Y1064D01*
X3583Y1066D01*
X3582Y1068D01*
X3580Y1071D01*
X3578Y1074D01*
X3576Y1076D01*
X3541Y1111D01*
X3541Y1335D01*
X3540Y1338D01*
X3540Y1341D01*
X3540Y1343D01*
X3539Y1346D01*
X3538Y1349D01*
X3537Y1351D01*
X3536Y1354D01*
X3535Y1357D01*
X3533Y1358D01*
X3532Y1361D01*
X3529Y1363D01*
X3527Y1365D01*
X3525Y1366D01*
X3523Y1368D01*
X3521Y1369D01*
X3518Y1371D01*
X3516Y1372D01*
X3513Y1373D01*
X3511Y1373D01*
X3507Y1374D01*
X3504Y1374D01*
X3501Y1375D01*
X3292Y1375D01*
X3288Y1374D01*
X3284Y1374D01*
X3282Y1373D01*
X3281Y1373D01*
X3277Y1372D01*
X3273Y1370D01*
X3272Y1369D01*
X3270Y1369D01*
X3267Y1365D01*
X3264Y1363D01*
X3234Y1333D01*
X3232Y1330D01*
X3229Y1327D01*
X3228Y1326D01*
X3227Y1324D01*
X3226Y1321D01*
X3224Y1317D01*
X3224Y1316D01*
X3223Y1314D01*
X3223Y1309D01*
X3222Y1306D01*
X3222Y1226D01*
X3181Y1127D01*
X3106Y1051D01*
X3006Y1010D01*
X2899Y1010D01*
X2800Y1051D01*
X2724Y1127D01*
X2683Y1226D01*
X2683Y1333D01*
X2724Y1432D01*
X2800Y1508D01*
X2899Y1549D01*
X2979Y1549D01*
X2983Y1550D01*
X2986Y1550D01*
X2988Y1550D01*
X2990Y1551D01*
X2993Y1552D01*
X2997Y1554D01*
X2998Y1555D01*
X3000Y1555D01*
X3004Y1559D01*
X3007Y1561D01*
X3025Y1579D01*
X3026Y1580D01*
X3027Y1581D01*
X3029Y1585D01*
X3032Y1588D01*
X3032Y1589D01*
X3033Y1590D01*
X3034Y1594D01*
X3036Y1598D01*
X3036Y1600D01*
X3036Y1601D01*
X3036Y1605D01*
X3036Y1609D01*
X3036Y1611D01*
X3036Y1612D01*
X3035Y1616D01*
X3034Y1620D01*
X3034Y1621D01*
X3033Y1623D01*
X3031Y1626D01*
X3029Y1630D01*
X3028Y1631D01*
X3027Y1632D01*
X3024Y1635D01*
X3021Y1638D01*
X3020Y1639D01*
X3019Y1640D01*
X3017Y1641D01*
X2938Y1720D01*
X2935Y1722D01*
X2932Y1725D01*
X2930Y1725D01*
X2929Y1726D01*
X2925Y1728D01*
X2922Y1729D01*
X2920Y1730D01*
X2918Y1730D01*
X2914Y1731D01*
X2910Y1731D01*
X2860Y1731D01*
X2855Y1730D01*
X2849Y1730D01*
X2849Y1729D01*
X2844Y1727D01*
X2839Y1725D01*
X2835Y1721D01*
X2831Y1718D01*
X2831Y1717D01*
X2830Y1717D01*
X2829Y1714D01*
X2825Y1709D01*
X2825Y1708D01*
X2824Y1707D01*
X2788Y1619D01*
X2712Y1543D01*
X2613Y1502D01*
X2505Y1502D01*
X2406Y1543D01*
X2330Y1619D01*
X2289Y1718D01*
X2289Y1825D01*
X2330Y1924D01*
X2406Y2000D01*
X2505Y2041D01*
X2585Y2041D01*
X2589Y2042D01*
X2593Y2042D01*
X2594Y2043D01*
X2596Y2043D01*
X2600Y2044D01*
X2603Y2046D01*
X2605Y2047D01*
X2606Y2047D01*
X2610Y2051D01*
X2613Y2053D01*
X2865Y2053D01*
X2867Y2053D01*
X2870Y2053D01*
X2873Y2054D01*
X2876Y2054D01*
X2878Y2055D01*
X2880Y2056D01*
X2883Y2058D01*
X2886Y2059D01*
X2888Y2060D01*
X2890Y2062D01*
X2892Y2064D01*
X2894Y2066D01*
X2896Y2068D01*
X2897Y2070D01*
X2899Y2073D01*
X2900Y2075D01*
X2901Y2078D01*
X2902Y2080D01*
X2902Y2083D01*
X2903Y2086D01*
X2903Y2089D01*
X2904Y2092D01*
X2904Y2380D01*
X2977Y2454D01*
X2980Y2457D01*
X2982Y2460D01*
X2983Y2461D01*
X2984Y2463D01*
X2985Y2466D01*
X2987Y2470D01*
X2987Y2471D01*
X2988Y2473D01*
X2988Y2478D01*
X2989Y2482D01*
X2989Y3019D01*
X3557Y3588D01*
X3560Y3591D01*
X3562Y3594D01*
X3563Y3595D01*
X3564Y3597D01*
X3565Y3600D01*
X3567Y3604D01*
X3567Y3605D01*
X3568Y3607D01*
X3568Y3612D01*
X3569Y3616D01*
X3569Y3695D01*
X3584Y3733D01*
X3585Y3733D01*
X3585Y3734D01*
X3586Y3738D01*
X3587Y3742D01*
X3587Y3743D01*
X3587Y3744D01*
X3587Y3749D01*
X3587Y3753D01*
X3587Y3754D01*
X3587Y3755D01*
X3585Y3760D01*
X3584Y3763D01*
X3584Y3764D01*
X3583Y3765D01*
X3583Y3766D01*
X3581Y3769D01*
X3580Y3770D01*
X3579Y3771D01*
X3579Y3857D01*
X3579Y3858D01*
X3579Y3860D01*
X3578Y3864D01*
X3578Y3868D01*
X3577Y3869D01*
X3577Y3871D01*
X3575Y3874D01*
X3573Y3878D01*
X3572Y3879D01*
X3572Y3880D01*
X3569Y3883D01*
X3566Y3887D01*
X3565Y3887D01*
X3564Y3888D01*
X3560Y3890D01*
X3557Y3893D01*
X3556Y3893D01*
X3554Y3894D01*
X3550Y3895D01*
X3546Y3896D01*
X3545Y3896D01*
X3544Y3896D01*
X3539Y3896D01*
X3535Y3896D01*
X3534Y3896D01*
X3533Y3896D01*
X3528Y3894D01*
X3524Y3893D01*
X3523Y3892D01*
X3522Y3892D01*
X3519Y3890D01*
X3515Y3887D01*
X3514Y3886D01*
X3512Y3885D01*
X2419Y2792D01*
X2240Y2792D01*
X2235Y2791D01*
X2229Y2790D01*
X2224Y2788D01*
X2219Y2786D01*
X2219Y2785D01*
X2215Y2782D01*
X2211Y2779D01*
X2211Y2778D01*
X2210Y2778D01*
X2209Y2775D01*
X2205Y2769D01*
X2205Y2768D01*
X2204Y2768D01*
X2128Y2583D01*
X1944Y2400D01*
X1705Y2301D01*
X1445Y2301D01*
X1205Y2400D01*
X1022Y2583D01*
X923Y2823D01*
X923Y3082D01*
X1022Y3322D01*
X1205Y3506D01*
X1445Y3605D01*
X1705Y3605D01*
X1944Y3506D01*
X2128Y3322D01*
X2204Y3138D01*
X2204Y3137D01*
X2207Y3133D01*
X2210Y3128D01*
X2214Y3124D01*
X2218Y3121D01*
X2218Y3120D01*
X2219Y3120D01*
X2223Y3118D01*
X2228Y3116D01*
X2229Y3115D01*
X2232Y3115D01*
X2239Y3114D01*
X2240Y3114D01*
X2270Y3114D01*
X2274Y3114D01*
X2278Y3114D01*
X2279Y3115D01*
X2281Y3115D01*
X2284Y3117D01*
X2288Y3118D01*
X2289Y3119D01*
X2291Y3120D01*
X2295Y3123D01*
X2298Y3125D01*
X3371Y4198D01*
X3373Y4201D01*
X3376Y4204D01*
X3377Y4206D01*
X3378Y4207D01*
X3379Y4211D01*
X3381Y4214D01*
X3381Y4216D01*
X3382Y4218D01*
X3382Y4222D01*
X3383Y4226D01*
X3383Y4610D01*
X3382Y4615D01*
X3381Y4620D01*
X3381Y4621D01*
X3379Y4625D01*
X3377Y4630D01*
X3376Y4631D01*
X3373Y4635D01*
X3370Y4638D01*
X3370Y4639D01*
X3369Y4639D01*
X3365Y4642D01*
X3361Y4645D01*
X3360Y4645D01*
X3355Y4647D01*
X3350Y4648D01*
X3349Y4649D01*
X3344Y4649D01*
X3339Y4649D01*
X3338Y4649D01*
X3333Y4647D01*
X3329Y4646D01*
X3328Y4646D01*
X3323Y4643D01*
X3319Y4641D01*
X3319Y4640D01*
X3318Y4640D01*
X3315Y4636D01*
X3311Y4633D01*
X3311Y4632D01*
X3307Y4624D01*
X3306Y4622D01*
X3282Y4549D01*
X3052Y4232D01*
X2734Y4001D01*
X2361Y3880D01*
X591Y3880D01*
X589Y3880D01*
X587Y3880D01*
X572Y3879D01*
X566Y3877D01*
X563Y3877D01*
X533Y3867D01*
X532Y3867D01*
X531Y3866D01*
X523Y3862D01*
X522Y3862D01*
X496Y3843D01*
X495Y3841D01*
X488Y3835D01*
X488Y3834D01*
X469Y3809D01*
X468Y3807D01*
X467Y3805D01*
X466Y3804D01*
X466Y3803D01*
X464Y3799D01*
X464Y3798D01*
X454Y3768D01*
X453Y3763D01*
X452Y3759D01*
X451Y3743D01*
X451Y3742D01*
X451Y3740D01*
X451Y1725D01*
X451Y1720D01*
X452Y1715D01*
X452Y1714D01*
X454Y1709D01*
X456Y1705D01*
X457Y1704D01*
X457Y1703D01*
X460Y1700D01*
X463Y1696D01*
X464Y1696D01*
X464Y1695D01*
X468Y1692D01*
X472Y1690D01*
X473Y1689D01*
X478Y1688D01*
X482Y1686D01*
X483Y1686D01*
X484Y1686D01*
X489Y1686D01*
X493Y1685D01*
X494Y1686D01*
X495Y1686D01*
X502Y1687D01*
X505Y1688D01*
X818Y1818D01*
X1150Y1818D01*
X1457Y1691D01*
X1691Y1457D01*
X1818Y1150D01*
X1818Y818D01*
X1688Y505D01*
X1687Y500D01*
X1686Y496D01*
X1686Y495D01*
X1686Y494D01*
X1686Y490D01*
X1686Y485D01*
X1686Y484D01*
X1686Y483D01*
X1687Y479D01*
X1689Y474D01*
X1689Y473D01*
X1692Y469D01*
X1694Y465D01*
X1695Y464D01*
X1696Y463D01*
X1699Y461D01*
X1703Y457D01*
X1704Y456D01*
X1708Y455D01*
X1713Y453D01*
X1714Y452D01*
X1721Y451D01*
X1725Y451D01*
X7331Y451D01*
X7335Y451D01*
G37*
G36*
X5256Y6382D02*
X5256Y6382D01*
X5259Y6382D01*
X5261Y6383D01*
X5263Y6383D01*
X5266Y6384D01*
X5270Y6386D01*
X5271Y6387D01*
X5273Y6387D01*
X5277Y6391D01*
X5280Y6393D01*
X5438Y6551D01*
X5440Y6554D01*
X5443Y6557D01*
X5444Y6559D01*
X5445Y6560D01*
X5446Y6564D01*
X5448Y6567D01*
X5448Y6569D01*
X5449Y6570D01*
X5449Y6575D01*
X5449Y6579D01*
X5449Y7436D01*
X5449Y7438D01*
X5449Y7440D01*
X5448Y7443D01*
X5448Y7447D01*
X5447Y7449D01*
X5447Y7451D01*
X5445Y7454D01*
X5443Y7457D01*
X5442Y7458D01*
X5441Y7460D01*
X5438Y7463D01*
X5436Y7465D01*
X5434Y7466D01*
X5433Y7468D01*
X5430Y7469D01*
X5427Y7471D01*
X5425Y7472D01*
X5423Y7473D01*
X5420Y7473D01*
X5416Y7474D01*
X5414Y7474D01*
X5412Y7475D01*
X5409Y7475D01*
X5405Y7475D01*
X5402Y7474D01*
X5400Y7474D01*
X5399Y7473D01*
X5377Y7473D01*
X5377Y7677D01*
X5376Y7679D01*
X5376Y7682D01*
X5376Y7685D01*
X5375Y7687D01*
X5374Y7690D01*
X5373Y7692D01*
X5372Y7695D01*
X5371Y7698D01*
X5369Y7700D01*
X5368Y7702D01*
X5365Y7704D01*
X5363Y7706D01*
X5361Y7707D01*
X5359Y7709D01*
X5357Y7710D01*
X5354Y7712D01*
X5352Y7713D01*
X5349Y7714D01*
X5347Y7714D01*
X5343Y7715D01*
X5340Y7715D01*
X5337Y7716D01*
X5332Y7716D01*
X5332Y7722D01*
X5331Y7724D01*
X5331Y7727D01*
X5331Y7730D01*
X5330Y7732D01*
X5329Y7735D01*
X5328Y7737D01*
X5327Y7740D01*
X5326Y7743D01*
X5324Y7745D01*
X5323Y7747D01*
X5320Y7749D01*
X5318Y7751D01*
X5316Y7752D01*
X5314Y7754D01*
X5312Y7755D01*
X5309Y7757D01*
X5307Y7758D01*
X5304Y7759D01*
X5302Y7759D01*
X5298Y7760D01*
X5295Y7760D01*
X5292Y7761D01*
X5089Y7761D01*
X5089Y7783D01*
X5100Y7825D01*
X5103Y7829D01*
X5104Y7831D01*
X5105Y7832D01*
X5106Y7836D01*
X5107Y7840D01*
X5107Y7841D01*
X5108Y7843D01*
X5108Y7847D01*
X5108Y7851D01*
X5108Y7852D01*
X5108Y7854D01*
X5107Y7858D01*
X5106Y7862D01*
X5106Y7863D01*
X5105Y7865D01*
X5103Y7868D01*
X5101Y7872D01*
X5100Y7873D01*
X5099Y7874D01*
X5096Y7877D01*
X5094Y7880D01*
X5092Y7880D01*
X5091Y7882D01*
X5088Y7883D01*
X5084Y7885D01*
X5083Y7886D01*
X5081Y7886D01*
X5078Y7887D01*
X5073Y7888D01*
X5071Y7888D01*
X5069Y7888D01*
X4027Y7888D01*
X4024Y7888D01*
X4022Y7888D01*
X4019Y7887D01*
X4016Y7887D01*
X4013Y7886D01*
X4011Y7885D01*
X4008Y7883D01*
X4006Y7882D01*
X4004Y7880D01*
X4001Y7879D01*
X3999Y7877D01*
X3997Y7875D01*
X3996Y7873D01*
X3994Y7871D01*
X3993Y7868D01*
X3991Y7866D01*
X3990Y7863D01*
X3989Y7861D01*
X3989Y7858D01*
X3988Y7855D01*
X3988Y7852D01*
X3987Y7849D01*
X3987Y7568D01*
X3880Y7460D01*
X3743Y7460D01*
X3741Y7460D01*
X3738Y7460D01*
X3735Y7459D01*
X3732Y7459D01*
X3730Y7458D01*
X3728Y7457D01*
X3725Y7455D01*
X3722Y7454D01*
X3720Y7452D01*
X3718Y7451D01*
X3716Y7449D01*
X3714Y7447D01*
X3712Y7445D01*
X3711Y7443D01*
X3709Y7440D01*
X3708Y7438D01*
X3707Y7435D01*
X3706Y7433D01*
X3705Y7430D01*
X3705Y7427D01*
X3704Y7424D01*
X3704Y7421D01*
X3704Y6776D01*
X3705Y6772D01*
X3705Y6768D01*
X3705Y6766D01*
X3706Y6765D01*
X3707Y6761D01*
X3708Y6758D01*
X3709Y6756D01*
X3710Y6755D01*
X3713Y6751D01*
X3716Y6748D01*
X3756Y6708D01*
X3759Y6705D01*
X3762Y6703D01*
X3763Y6702D01*
X3765Y6701D01*
X3768Y6700D01*
X3772Y6698D01*
X3773Y6698D01*
X3775Y6697D01*
X3780Y6697D01*
X3784Y6696D01*
X3826Y6696D01*
X3829Y6697D01*
X3831Y6697D01*
X3834Y6697D01*
X3837Y6698D01*
X3840Y6699D01*
X3842Y6699D01*
X3845Y6701D01*
X3847Y6702D01*
X3849Y6704D01*
X3851Y6705D01*
X3853Y6708D01*
X3856Y6710D01*
X3857Y6712D01*
X3859Y6714D01*
X3860Y6716D01*
X3862Y6719D01*
X3863Y6721D01*
X3864Y6724D01*
X3864Y6726D01*
X3865Y6729D01*
X3865Y6733D01*
X3865Y6735D01*
X3865Y6946D01*
X3936Y7016D01*
X3994Y7016D01*
X3996Y7017D01*
X3999Y7017D01*
X4002Y7018D01*
X4005Y7018D01*
X4007Y7019D01*
X4010Y7020D01*
X4012Y7021D01*
X4015Y7023D01*
X4017Y7024D01*
X4019Y7026D01*
X4021Y7028D01*
X4023Y7030D01*
X4025Y7032D01*
X4249Y7032D01*
X4251Y7033D01*
X4253Y7033D01*
X4255Y7032D01*
X4471Y7032D01*
X4471Y6975D01*
X4464Y6949D01*
X4451Y6926D01*
X4445Y6921D01*
X4444Y6920D01*
X4443Y6919D01*
X4441Y6915D01*
X4438Y6912D01*
X4438Y6911D01*
X4437Y6910D01*
X4436Y6905D01*
X4434Y6901D01*
X4434Y6900D01*
X4434Y6899D01*
X4434Y6895D01*
X4434Y6890D01*
X4434Y6889D01*
X4434Y6888D01*
X4435Y6884D01*
X4436Y6880D01*
X4437Y6878D01*
X4437Y6877D01*
X4439Y6874D01*
X4441Y6870D01*
X4442Y6869D01*
X4443Y6868D01*
X4446Y6865D01*
X4449Y6862D01*
X4450Y6861D01*
X4451Y6860D01*
X4455Y6858D01*
X4459Y6856D01*
X4460Y6856D01*
X4461Y6855D01*
X4465Y6855D01*
X4469Y6854D01*
X4471Y6854D01*
X4472Y6854D01*
X4474Y6852D01*
X4474Y6851D01*
X4479Y6848D01*
X4483Y6845D01*
X4484Y6845D01*
X4487Y6843D01*
X4493Y6841D01*
X4494Y6841D01*
X4495Y6841D01*
X4498Y6840D01*
X4526Y6800D01*
X4529Y6797D01*
X4531Y6795D01*
X4566Y6759D01*
X4566Y6757D01*
X4566Y6756D01*
X4567Y6751D01*
X4567Y6746D01*
X4568Y6745D01*
X4569Y6742D01*
X4572Y6736D01*
X4573Y6735D01*
X4573Y6734D01*
X4582Y6722D01*
X4585Y6719D01*
X4588Y6715D01*
X4589Y6715D01*
X4589Y6714D01*
X4593Y6712D01*
X4597Y6709D01*
X4598Y6709D01*
X4599Y6708D01*
X4603Y6707D01*
X4608Y6706D01*
X4609Y6706D01*
X4610Y6706D01*
X4614Y6706D01*
X4619Y6706D01*
X4620Y6706D01*
X4621Y6706D01*
X4625Y6708D01*
X4629Y6709D01*
X4630Y6709D01*
X4631Y6710D01*
X4635Y6712D01*
X4639Y6715D01*
X4640Y6716D01*
X4643Y6719D01*
X4646Y6723D01*
X4647Y6724D01*
X4647Y6725D01*
X4649Y6729D01*
X4651Y6733D01*
X4651Y6734D01*
X4652Y6735D01*
X4652Y6741D01*
X4653Y6745D01*
X4653Y6868D01*
X4652Y6871D01*
X4652Y6875D01*
X4652Y6877D01*
X4651Y6879D01*
X4650Y6882D01*
X4649Y6885D01*
X4648Y6887D01*
X4647Y6889D01*
X4645Y6891D01*
X4643Y6894D01*
X4641Y6896D01*
X4640Y6897D01*
X4636Y6900D01*
X4633Y6902D01*
X4623Y6908D01*
X4604Y6926D01*
X4591Y6949D01*
X4584Y6975D01*
X4584Y7032D01*
X4800Y7032D01*
X4802Y7033D01*
X4804Y7033D01*
X4806Y7032D01*
X5030Y7032D01*
X5031Y7030D01*
X5033Y7028D01*
X5035Y7026D01*
X5038Y7025D01*
X5039Y7023D01*
X5042Y7022D01*
X5045Y7020D01*
X5047Y7019D01*
X5049Y7018D01*
X5052Y7018D01*
X5055Y7017D01*
X5059Y7017D01*
X5061Y7016D01*
X5119Y7016D01*
X5190Y6946D01*
X5190Y6420D01*
X5190Y6418D01*
X5190Y6415D01*
X5191Y6412D01*
X5191Y6409D01*
X5192Y6407D01*
X5193Y6405D01*
X5195Y6402D01*
X5196Y6399D01*
X5197Y6397D01*
X5199Y6395D01*
X5201Y6393D01*
X5203Y6391D01*
X5205Y6390D01*
X5207Y6388D01*
X5210Y6387D01*
X5212Y6385D01*
X5215Y6384D01*
X5217Y6383D01*
X5220Y6383D01*
X5223Y6382D01*
X5226Y6382D01*
X5229Y6381D01*
X5252Y6381D01*
X5256Y6382D01*
G37*
%LPC*%
G36*
X3952Y2934D02*
X3952Y2934D01*
X3952Y3005D01*
X3962Y3041D01*
X3981Y3074D01*
X4008Y3101D01*
X4041Y3120D01*
X4077Y3130D01*
X4148Y3130D01*
X4148Y2934D01*
X3952Y2934D01*
G37*
%LPD*%
%LPC*%
G36*
X4077Y2579D02*
X4077Y2579D01*
X4041Y2588D01*
X4008Y2607D01*
X3981Y2634D01*
X3962Y2667D01*
X3952Y2704D01*
X3952Y2775D01*
X4148Y2775D01*
X4148Y2579D01*
X4077Y2579D01*
G37*
%LPD*%
%LPC*%
G36*
X4584Y7117D02*
X4584Y7117D01*
X4584Y7175D01*
X4591Y7200D01*
X4604Y7223D01*
X4623Y7242D01*
X4646Y7255D01*
X4672Y7262D01*
X4761Y7262D01*
X4761Y7117D01*
X4584Y7117D01*
G37*
%LPD*%
%LPC*%
G36*
X4033Y7117D02*
X4033Y7117D01*
X4033Y7175D01*
X4040Y7200D01*
X4053Y7223D01*
X4072Y7242D01*
X4095Y7255D01*
X4121Y7262D01*
X4209Y7262D01*
X4209Y7117D01*
X4033Y7117D01*
G37*
%LPD*%
%LPC*%
G36*
X4295Y7117D02*
X4295Y7117D01*
X4295Y7262D01*
X4383Y7262D01*
X4409Y7255D01*
X4432Y7242D01*
X4451Y7223D01*
X4464Y7200D01*
X4471Y7175D01*
X4471Y7117D01*
X4295Y7117D01*
G37*
%LPD*%
%LPC*%
G36*
X4846Y7117D02*
X4846Y7117D01*
X4846Y7262D01*
X4935Y7262D01*
X4960Y7255D01*
X4983Y7242D01*
X5002Y7223D01*
X5015Y7200D01*
X5022Y7175D01*
X5022Y7117D01*
X4846Y7117D01*
G37*
%LPD*%
%LPC*%
G36*
X4672Y5336D02*
X4672Y5336D01*
X4646Y5343D01*
X4623Y5356D01*
X4604Y5375D01*
X4591Y5398D01*
X4584Y5424D01*
X4584Y5481D01*
X4761Y5481D01*
X4761Y5336D01*
X4672Y5336D01*
G37*
%LPD*%
%LPC*%
G36*
X4295Y5336D02*
X4295Y5336D01*
X4295Y5481D01*
X4471Y5481D01*
X4471Y5424D01*
X4464Y5398D01*
X4451Y5375D01*
X4432Y5356D01*
X4409Y5343D01*
X4383Y5336D01*
X4295Y5336D01*
G37*
%LPD*%
%LPC*%
G36*
X5967Y2304D02*
X5967Y2304D01*
X5967Y2468D01*
X5990Y2468D01*
X6031Y2457D01*
X6068Y2435D01*
X6099Y2405D01*
X6120Y2367D01*
X6131Y2326D01*
X6131Y2304D01*
X5967Y2304D01*
G37*
%LPD*%
%LPC*%
G36*
X5680Y2304D02*
X5680Y2304D01*
X5680Y2326D01*
X5691Y2367D01*
X5712Y2405D01*
X5743Y2435D01*
X5780Y2457D01*
X5822Y2468D01*
X5844Y2468D01*
X5844Y2304D01*
X5680Y2304D01*
G37*
%LPD*%
%LPC*%
G36*
X5231Y7473D02*
X5231Y7473D01*
X5189Y7484D01*
X5152Y7506D01*
X5122Y7536D01*
X5100Y7574D01*
X5089Y7615D01*
X5089Y7637D01*
X5253Y7637D01*
X5253Y7473D01*
X5231Y7473D01*
G37*
%LPD*%
%LPC*%
G36*
X3819Y746D02*
X3819Y746D01*
X3819Y866D01*
X3998Y866D01*
X3998Y833D01*
X3992Y808D01*
X3978Y785D01*
X3960Y766D01*
X3937Y753D01*
X3911Y746D01*
X3819Y746D01*
G37*
%LPD*%
%LPC*%
G36*
X3648Y746D02*
X3648Y746D01*
X3623Y753D01*
X3600Y766D01*
X3581Y785D01*
X3568Y808D01*
X3561Y833D01*
X3561Y866D01*
X3740Y866D01*
X3740Y746D01*
X3648Y746D01*
G37*
%LPD*%
D10*
X5843Y2179D02*
X5843Y2305D01*
X5969Y2305D01*
X5969Y2179D01*
X5843Y2179D01*
X5843Y2303D02*
X5969Y2303D01*
X5843Y1955D02*
X5843Y1829D01*
X5843Y1955D02*
X5969Y1955D01*
X5969Y1829D01*
X5843Y1829D01*
X5843Y1953D02*
X5969Y1953D01*
D11*
X4359Y2723D02*
X4097Y2723D01*
X4097Y2985D01*
X4359Y2985D01*
X4359Y2723D01*
X4359Y2810D02*
X4097Y2810D01*
X4097Y2897D02*
X4359Y2897D01*
X4359Y2984D02*
X4097Y2984D01*
X4697Y2723D02*
X4959Y2723D01*
X4697Y2723D02*
X4697Y2985D01*
X4959Y2985D01*
X4959Y2723D01*
X4959Y2810D02*
X4697Y2810D01*
X4697Y2897D02*
X4959Y2897D01*
X4959Y2984D02*
X4697Y2984D01*
D10*
X3679Y7993D02*
X3679Y8119D01*
X3805Y8119D01*
X3805Y7993D01*
X3679Y7993D01*
X3679Y8117D02*
X3805Y8117D01*
X3679Y7769D02*
X3679Y7643D01*
X3679Y7769D02*
X3805Y7769D01*
X3805Y7643D01*
X3679Y7643D01*
X3679Y7767D02*
X3805Y7767D01*
X5252Y7986D02*
X5252Y8112D01*
X5378Y8112D01*
X5378Y7986D01*
X5252Y7986D01*
X5252Y8110D02*
X5378Y8110D01*
X5252Y7762D02*
X5252Y7636D01*
X5252Y7762D02*
X5378Y7762D01*
X5378Y7636D01*
X5252Y7636D01*
X5252Y7760D02*
X5378Y7760D01*
X3213Y1955D02*
X3213Y1829D01*
X3087Y1829D01*
X3087Y1955D01*
X3213Y1955D01*
X3213Y1953D02*
X3087Y1953D01*
X3213Y2179D02*
X3213Y2305D01*
X3213Y2179D02*
X3087Y2179D01*
X3087Y2305D01*
X3213Y2305D01*
X3213Y2303D02*
X3087Y2303D01*
D12*
X4134Y5748D03*
X4134Y5906D03*
X4134Y6063D03*
X4134Y6220D03*
X4134Y6378D03*
X4134Y6535D03*
X4134Y6693D03*
X4134Y6850D03*
X4921Y5748D03*
X4921Y5906D03*
X4921Y6063D03*
X4921Y6220D03*
X4921Y6378D03*
X4921Y6535D03*
X4921Y6693D03*
X4921Y6850D03*
D13*
X4803Y5524D03*
X4252Y5524D03*
X4252Y7075D03*
X4803Y7075D03*
D14*
X7480Y2953D03*
X1575Y2953D03*
D15*
X3780Y1535D03*
X3780Y1850D03*
X3780Y1220D03*
X3780Y906D03*
X5276Y1850D03*
X5276Y1535D03*
X5276Y1220D03*
X5276Y906D03*
D16*
X4803Y7075D02*
X4528Y7075D01*
X4252Y7075D01*
X4252Y5524D02*
X4528Y5524D01*
X4803Y5524D01*
X4528Y7075D02*
X4528Y7480D01*
D17*
X4528Y7677D03*
D16*
X4528Y7480D01*
X4409Y6220D02*
X4134Y6220D01*
X4409Y6220D02*
X4528Y6102D01*
X4528Y5524D01*
X4528Y4921D01*
D17*
X4528Y4921D03*
D16*
X3992Y906D02*
X3993Y905D01*
X3992Y906D02*
X3780Y906D01*
X4528Y3740D02*
X4528Y4921D01*
X4228Y3440D02*
X4228Y2854D01*
X4228Y3440D02*
X4528Y3740D01*
X4746Y7699D02*
X5315Y7699D01*
X4746Y7699D02*
X4528Y7480D01*
X4228Y2854D02*
X4228Y2165D01*
X4228Y1140D01*
X3993Y905D01*
X5884Y2264D02*
X5906Y2242D01*
X5884Y2264D02*
X5315Y2264D01*
X5217Y2362D01*
X4424Y2362D02*
X4228Y2165D01*
X4424Y2362D02*
X5217Y2362D01*
X4134Y6535D02*
X3701Y6535D01*
X3583Y6535D01*
X3543Y6496D01*
X3543Y4143D01*
X2353Y2953D02*
X1575Y2953D01*
X2353Y2953D02*
X3543Y4143D01*
X3543Y7508D02*
X3742Y7706D01*
X3543Y7508D02*
X3543Y6693D01*
X3701Y6535D01*
X4828Y2854D02*
X4926Y2756D01*
X5512Y2756D01*
D17*
X5512Y2756D03*
D16*
X4405Y6693D02*
X4134Y6693D01*
X4134Y6378D02*
X4409Y6378D01*
X4528Y6496D01*
X4528Y6520D02*
X4405Y6693D01*
X4528Y6520D02*
X4528Y6496D01*
X4134Y6378D02*
X3819Y6378D01*
X3740Y6299D01*
X3740Y3839D01*
X3839Y3740D01*
X3839Y3642D01*
D17*
X3839Y3642D03*
D16*
X5276Y1850D02*
X5864Y1850D01*
X5906Y1892D01*
X3839Y3642D02*
X3150Y2953D01*
X3150Y2242D01*
X5906Y1892D02*
X6223Y1892D01*
X6496Y2165D01*
D17*
X6496Y2165D03*
D16*
X5335Y6063D02*
X4921Y6063D01*
X5335Y6063D02*
X5555Y5843D01*
X5555Y3894D02*
X6004Y3445D01*
D17*
X6004Y3445D03*
D16*
X5555Y3894D02*
X5555Y5843D01*
X3150Y1892D02*
X2679Y1892D01*
X2559Y1772D01*
D17*
X2559Y1772D03*
D16*
X3191Y1850D02*
X3780Y1850D01*
X3191Y1850D02*
X3150Y1892D01*
X3976Y5748D02*
X4134Y5748D01*
X3976Y5748D02*
X3937Y5709D01*
X3937Y4528D01*
X4134Y4331D01*
D17*
X4134Y4331D03*
D16*
X5276Y1220D02*
X5768Y1220D01*
X5807Y1181D01*
D17*
X5807Y1181D03*
D16*
X5150Y5748D02*
X4921Y5748D01*
X5150Y5748D02*
X5180Y5718D01*
X5180Y4491D01*
X5020Y4331D01*
D17*
X5020Y4331D03*
D16*
X3780Y1535D02*
X3209Y1535D01*
X2953Y1280D01*
D17*
X2953Y1280D03*
D16*
X4921Y5906D02*
X5242Y5906D01*
X5368Y5780D01*
X5368Y3793D01*
X5217Y3642D01*
D17*
X5217Y3642D03*
D16*
X5276Y906D02*
X5591Y906D01*
X5709Y787D01*
X6102Y787D01*
X6496Y1181D01*
D17*
X6496Y1181D03*
D16*
X6890Y1575D01*
X6594Y2657D02*
X6201Y2657D01*
X5217Y3642D01*
X6890Y2362D02*
X6890Y1575D01*
X6890Y2362D02*
X6594Y2657D01*
X5315Y8049D02*
X3650Y8049D01*
X3742Y8056D01*
X5315Y8049D02*
X5435Y8049D01*
X5610Y7874D01*
X5610Y6496D01*
X5335Y6220D02*
X4921Y6220D01*
X5335Y6220D02*
X5610Y6496D01*
M02*
