G04 EAGLE Gerber X2 export*
G75*
%MOIN*%
%FSLAX24Y24*%
%LPD*%
%AMOC8*
5,1,8,0,0,1.08239X$1,22.5*%
G01*
%ADD10C,0.094614*%
%ADD11C,0.016500*%
%ADD12C,0.010750*%
%ADD13R,0.037528X0.017055*%
%ADD14R,0.031622X0.025323*%
%ADD15C,0.114299*%
%ADD16R,0.031622X0.019811*%
%ADD17C,0.037780*%


D10*
X8071Y984D03*
X984Y984D03*
X984Y8858D03*
X8071Y8858D03*
D11*
X5823Y2325D02*
X5823Y2159D01*
X5823Y2325D02*
X5989Y2325D01*
X5989Y2159D01*
X5823Y2159D01*
X5823Y2323D02*
X5989Y2323D01*
X5823Y1975D02*
X5823Y1809D01*
X5823Y1975D02*
X5989Y1975D01*
X5989Y1809D01*
X5823Y1809D01*
X5823Y1973D02*
X5989Y1973D01*
D12*
X4389Y2693D02*
X4067Y2693D01*
X4067Y3015D01*
X4389Y3015D01*
X4389Y2693D01*
X4389Y2800D02*
X4067Y2800D01*
X4067Y2907D02*
X4389Y2907D01*
X4389Y3014D02*
X4067Y3014D01*
X4667Y2693D02*
X4989Y2693D01*
X4667Y2693D02*
X4667Y3015D01*
X4989Y3015D01*
X4989Y2693D01*
X4989Y2800D02*
X4667Y2800D01*
X4667Y2907D02*
X4989Y2907D01*
X4989Y3014D02*
X4667Y3014D01*
D11*
X3659Y7973D02*
X3659Y8139D01*
X3825Y8139D01*
X3825Y7973D01*
X3659Y7973D01*
X3659Y8137D02*
X3825Y8137D01*
X3659Y7789D02*
X3659Y7623D01*
X3659Y7789D02*
X3825Y7789D01*
X3825Y7623D01*
X3659Y7623D01*
X3659Y7787D02*
X3825Y7787D01*
X5232Y7966D02*
X5232Y8132D01*
X5398Y8132D01*
X5398Y7966D01*
X5232Y7966D01*
X5232Y8130D02*
X5398Y8130D01*
X5232Y7782D02*
X5232Y7616D01*
X5232Y7782D02*
X5398Y7782D01*
X5398Y7616D01*
X5232Y7616D01*
X5232Y7780D02*
X5398Y7780D01*
X3233Y1975D02*
X3233Y1809D01*
X3067Y1809D01*
X3067Y1975D01*
X3233Y1975D01*
X3233Y1973D02*
X3067Y1973D01*
X3233Y2159D02*
X3233Y2325D01*
X3233Y2159D02*
X3067Y2159D01*
X3067Y2325D01*
X3233Y2325D01*
X3233Y2323D02*
X3067Y2323D01*
D13*
X4134Y5748D03*
X4134Y5906D03*
X4134Y6063D03*
X4134Y6220D03*
X4134Y6378D03*
X4134Y6535D03*
X4134Y6693D03*
X4134Y6850D03*
X4921Y5748D03*
X4921Y5906D03*
X4921Y6063D03*
X4921Y6220D03*
X4921Y6378D03*
X4921Y6535D03*
X4921Y6693D03*
X4921Y6850D03*
D14*
X4803Y5524D03*
X4252Y5524D03*
X4252Y7075D03*
X4803Y7075D03*
D15*
X7480Y2953D03*
X1575Y2953D03*
D16*
X3780Y1535D03*
X3780Y1850D03*
X3780Y1220D03*
X3780Y906D03*
X5276Y1850D03*
X5276Y1535D03*
X5276Y1220D03*
X5276Y906D03*
D17*
X4528Y7677D03*
X4528Y4921D03*
X5512Y2756D03*
X3839Y3642D03*
X6496Y2165D03*
X6004Y3445D03*
X2559Y1772D03*
X4134Y4331D03*
X5807Y1181D03*
X5020Y4331D03*
X2953Y1280D03*
X5217Y3642D03*
X6496Y1181D03*
M02*
