G04 EAGLE Gerber X2 export*
G75*
%MOIN*%
%FSLAX24Y24*%
%LPD*%
%AMOC8*
5,1,8,0,0,1.08239X$1,22.5*%
G01*
%ADD10R,0.169291X0.125984*%
%ADD11C,0.196850*%
%ADD12C,0.106299*%
%ADD13C,0.029780*%
%ADD14C,0.008000*%

G36*
X3524Y752D02*
X3524Y752D01*
X3526Y752D01*
X3529Y752D01*
X3532Y753D01*
X3534Y754D01*
X3537Y755D01*
X3539Y756D01*
X3542Y757D01*
X3544Y759D01*
X3546Y760D01*
X3548Y763D01*
X3551Y765D01*
X3552Y767D01*
X3554Y769D01*
X3555Y771D01*
X3557Y774D01*
X3557Y776D01*
X3559Y779D01*
X3559Y781D01*
X3560Y785D01*
X3560Y788D01*
X3560Y791D01*
X3560Y1822D01*
X3631Y1892D01*
X4328Y1892D01*
X4330Y1893D01*
X4333Y1893D01*
X4336Y1894D01*
X4339Y1894D01*
X4341Y1895D01*
X4343Y1896D01*
X4346Y1897D01*
X4349Y1899D01*
X4351Y1900D01*
X4353Y1902D01*
X4355Y1904D01*
X4357Y1906D01*
X4358Y1908D01*
X4360Y1910D01*
X4361Y1913D01*
X4363Y1915D01*
X4364Y1918D01*
X4365Y1920D01*
X4365Y1923D01*
X4366Y1926D01*
X4366Y1929D01*
X4367Y1932D01*
X4367Y2232D01*
X4756Y2621D01*
X5134Y2621D01*
X5137Y2622D01*
X5141Y2622D01*
X5143Y2623D01*
X5145Y2623D01*
X5148Y2625D01*
X5152Y2626D01*
X5153Y2627D01*
X5155Y2628D01*
X5159Y2631D01*
X5161Y2633D01*
X5231Y2702D01*
X5233Y2705D01*
X5236Y2708D01*
X5236Y2710D01*
X5237Y2711D01*
X5239Y2715D01*
X5240Y2718D01*
X5241Y2720D01*
X5241Y2721D01*
X5242Y2726D01*
X5242Y2730D01*
X5242Y2810D01*
X5283Y2909D01*
X5296Y2922D01*
X5297Y2923D01*
X5298Y2923D01*
X5298Y2924D01*
X5301Y2927D01*
X5303Y2931D01*
X5304Y2932D01*
X5304Y2933D01*
X5305Y2937D01*
X5307Y2941D01*
X5307Y2942D01*
X5307Y2944D01*
X5308Y2948D01*
X5308Y2952D01*
X5308Y2953D01*
X5308Y2955D01*
X5306Y2959D01*
X5306Y2963D01*
X5305Y2964D01*
X5305Y2965D01*
X5302Y2969D01*
X5300Y2973D01*
X5299Y2974D01*
X5299Y2975D01*
X5296Y2978D01*
X5293Y2981D01*
X5291Y2981D01*
X5291Y2982D01*
X5287Y2984D01*
X5283Y2986D01*
X5282Y2986D01*
X5281Y2987D01*
X5277Y2988D01*
X5272Y2989D01*
X5270Y2989D01*
X5269Y2989D01*
X4264Y2989D01*
X3892Y3361D01*
X3889Y3363D01*
X3886Y3365D01*
X3885Y3366D01*
X3884Y3367D01*
X3880Y3369D01*
X3876Y3370D01*
X3875Y3371D01*
X3873Y3371D01*
X3868Y3372D01*
X3865Y3372D01*
X3785Y3372D01*
X3686Y3413D01*
X3610Y3489D01*
X3569Y3588D01*
X3569Y3695D01*
X3610Y3794D01*
X3686Y3870D01*
X3785Y3911D01*
X3892Y3911D01*
X3991Y3870D01*
X4067Y3794D01*
X4108Y3695D01*
X4108Y3616D01*
X4109Y3613D01*
X4109Y3611D01*
X4109Y3610D01*
X4109Y3608D01*
X4110Y3606D01*
X4110Y3605D01*
X4111Y3601D01*
X4112Y3601D01*
X4113Y3598D01*
X4114Y3596D01*
X4114Y3595D01*
X4118Y3591D01*
X4120Y3588D01*
X4386Y3322D01*
X4389Y3320D01*
X4392Y3317D01*
X4393Y3316D01*
X4395Y3315D01*
X4398Y3314D01*
X4402Y3312D01*
X4403Y3312D01*
X4405Y3311D01*
X4410Y3311D01*
X4414Y3310D01*
X5115Y3310D01*
X5118Y3311D01*
X5121Y3311D01*
X5123Y3312D01*
X5126Y3312D01*
X5129Y3313D01*
X5132Y3314D01*
X5134Y3316D01*
X5136Y3316D01*
X5138Y3319D01*
X5141Y3321D01*
X5142Y3322D01*
X5144Y3324D01*
X5146Y3327D01*
X5148Y3329D01*
X5149Y3331D01*
X5150Y3333D01*
X5151Y3336D01*
X5153Y3339D01*
X5153Y3342D01*
X5153Y3344D01*
X5153Y3347D01*
X5154Y3350D01*
X5153Y3353D01*
X5154Y3355D01*
X5153Y3358D01*
X5152Y3361D01*
X5151Y3363D01*
X5151Y3365D01*
X5149Y3368D01*
X5147Y3371D01*
X5146Y3373D01*
X5145Y3375D01*
X5142Y3377D01*
X5140Y3380D01*
X5138Y3381D01*
X5136Y3382D01*
X5133Y3384D01*
X5130Y3386D01*
X5064Y3413D01*
X4988Y3489D01*
X4947Y3588D01*
X4947Y3695D01*
X4988Y3794D01*
X5064Y3870D01*
X5163Y3911D01*
X5270Y3911D01*
X5369Y3870D01*
X5445Y3794D01*
X5486Y3695D01*
X5486Y3588D01*
X5445Y3489D01*
X5369Y3413D01*
X5303Y3386D01*
X5301Y3384D01*
X5297Y3383D01*
X5296Y3381D01*
X5294Y3380D01*
X5292Y3378D01*
X5289Y3375D01*
X5288Y3374D01*
X5286Y3372D01*
X5285Y3369D01*
X5283Y3366D01*
X5282Y3364D01*
X5281Y3362D01*
X5281Y3359D01*
X5280Y3356D01*
X5280Y3353D01*
X5279Y3351D01*
X5280Y3348D01*
X5280Y3345D01*
X5280Y3342D01*
X5280Y3340D01*
X5282Y3337D01*
X5283Y3334D01*
X5284Y3332D01*
X5284Y3330D01*
X5287Y3327D01*
X5288Y3324D01*
X5290Y3323D01*
X5291Y3321D01*
X5294Y3319D01*
X5297Y3317D01*
X5299Y3316D01*
X5300Y3315D01*
X5304Y3314D01*
X5307Y3312D01*
X5309Y3312D01*
X5311Y3311D01*
X5315Y3311D01*
X5318Y3310D01*
X5709Y3310D01*
X5714Y3311D01*
X5718Y3311D01*
X5719Y3312D01*
X5720Y3312D01*
X5724Y3314D01*
X5729Y3316D01*
X5730Y3316D01*
X5734Y3320D01*
X5737Y3322D01*
X5738Y3323D01*
X5739Y3324D01*
X5741Y3328D01*
X5744Y3331D01*
X5744Y3332D01*
X5745Y3333D01*
X5746Y3337D01*
X5748Y3342D01*
X5748Y3343D01*
X5748Y3344D01*
X5748Y3348D01*
X5748Y3353D01*
X5748Y3354D01*
X5748Y3355D01*
X5746Y3361D01*
X5745Y3365D01*
X5734Y3391D01*
X5734Y3499D01*
X5775Y3598D01*
X5851Y3673D01*
X5950Y3715D01*
X6058Y3715D01*
X6157Y3673D01*
X6233Y3598D01*
X6274Y3499D01*
X6274Y3391D01*
X6233Y3292D01*
X6157Y3216D01*
X6058Y3175D01*
X6005Y3175D01*
X6004Y3175D01*
X6003Y3175D01*
X5998Y3174D01*
X5994Y3174D01*
X5993Y3173D01*
X5992Y3173D01*
X5988Y3171D01*
X5984Y3169D01*
X5983Y3168D01*
X5982Y3168D01*
X5979Y3165D01*
X5976Y3162D01*
X5975Y3161D01*
X5974Y3160D01*
X5972Y3156D01*
X5970Y3153D01*
X5969Y3151D01*
X5969Y3150D01*
X5968Y3146D01*
X5966Y3142D01*
X5966Y3141D01*
X5966Y3139D01*
X5966Y3135D01*
X5966Y3131D01*
X5967Y3130D01*
X5967Y3128D01*
X5968Y3124D01*
X5969Y3120D01*
X5970Y3119D01*
X5970Y3118D01*
X5972Y3115D01*
X5975Y3111D01*
X5976Y3110D01*
X5977Y3108D01*
X6657Y2429D01*
X6657Y2402D01*
X6657Y2398D01*
X6658Y2395D01*
X6658Y2393D01*
X6658Y2391D01*
X6660Y2388D01*
X6661Y2384D01*
X6662Y2383D01*
X6663Y2381D01*
X6666Y2377D01*
X6668Y2374D01*
X6725Y2318D01*
X6766Y2219D01*
X6766Y2112D01*
X6725Y2013D01*
X6649Y1937D01*
X6550Y1896D01*
X6442Y1896D01*
X6343Y1937D01*
X6267Y2013D01*
X6226Y2112D01*
X6226Y2219D01*
X6269Y2322D01*
X6270Y2325D01*
X6271Y2327D01*
X6272Y2329D01*
X6273Y2332D01*
X6273Y2335D01*
X6274Y2337D01*
X6274Y2340D01*
X6274Y2343D01*
X6273Y2346D01*
X6273Y2348D01*
X6272Y2351D01*
X6272Y2354D01*
X6270Y2356D01*
X6269Y2359D01*
X6268Y2361D01*
X6266Y2364D01*
X6264Y2366D01*
X6262Y2369D01*
X5848Y2782D01*
X5847Y2783D01*
X5847Y2784D01*
X5843Y2787D01*
X5840Y2789D01*
X5838Y2790D01*
X5837Y2790D01*
X5833Y2792D01*
X5829Y2793D01*
X5828Y2793D01*
X5827Y2794D01*
X5822Y2794D01*
X5818Y2794D01*
X5817Y2794D01*
X5816Y2794D01*
X5811Y2792D01*
X5807Y2792D01*
X5806Y2791D01*
X5805Y2791D01*
X5801Y2788D01*
X5798Y2786D01*
X5797Y2785D01*
X5796Y2785D01*
X5793Y2782D01*
X5790Y2779D01*
X5789Y2778D01*
X5788Y2777D01*
X5786Y2773D01*
X5784Y2769D01*
X5784Y2768D01*
X5783Y2767D01*
X5783Y2763D01*
X5782Y2758D01*
X5782Y2756D01*
X5781Y2755D01*
X5781Y2702D01*
X5740Y2603D01*
X5665Y2527D01*
X5565Y2486D01*
X5486Y2486D01*
X5482Y2486D01*
X5478Y2486D01*
X5476Y2485D01*
X5475Y2485D01*
X5471Y2483D01*
X5468Y2482D01*
X5466Y2481D01*
X5465Y2480D01*
X5461Y2477D01*
X5458Y2475D01*
X5283Y2300D01*
X4906Y2300D01*
X4902Y2299D01*
X4898Y2299D01*
X4896Y2299D01*
X4895Y2298D01*
X4891Y2297D01*
X4888Y2295D01*
X4886Y2294D01*
X4885Y2294D01*
X4881Y2291D01*
X4878Y2288D01*
X4700Y2110D01*
X4698Y2107D01*
X4695Y2104D01*
X4694Y2103D01*
X4693Y2101D01*
X4692Y2098D01*
X4690Y2094D01*
X4690Y2093D01*
X4689Y2091D01*
X4689Y2086D01*
X4688Y2083D01*
X4688Y1932D01*
X4689Y1929D01*
X4689Y1927D01*
X4689Y1924D01*
X4690Y1921D01*
X4691Y1918D01*
X4692Y1916D01*
X4693Y1913D01*
X4694Y1911D01*
X4696Y1909D01*
X4697Y1906D01*
X4700Y1904D01*
X4702Y1902D01*
X4704Y1901D01*
X4706Y1899D01*
X4708Y1898D01*
X4711Y1896D01*
X4713Y1895D01*
X4716Y1894D01*
X4718Y1894D01*
X4722Y1893D01*
X4725Y1893D01*
X4728Y1892D01*
X5424Y1892D01*
X5495Y1822D01*
X5495Y1329D01*
X5495Y1326D01*
X5495Y1322D01*
X5496Y1320D01*
X5496Y1318D01*
X5498Y1315D01*
X5499Y1312D01*
X5500Y1310D01*
X5501Y1308D01*
X5503Y1305D01*
X5505Y1303D01*
X5507Y1301D01*
X5508Y1300D01*
X5511Y1298D01*
X5514Y1295D01*
X5516Y1295D01*
X5517Y1293D01*
X5521Y1292D01*
X5524Y1291D01*
X5526Y1291D01*
X5528Y1290D01*
X5531Y1290D01*
X5535Y1290D01*
X5537Y1290D01*
X5539Y1290D01*
X5542Y1291D01*
X5546Y1292D01*
X5548Y1293D01*
X5550Y1293D01*
X5553Y1295D01*
X5556Y1296D01*
X5557Y1298D01*
X5559Y1299D01*
X5562Y1301D01*
X5564Y1304D01*
X5565Y1305D01*
X5567Y1307D01*
X5569Y1311D01*
X5570Y1314D01*
X5578Y1334D01*
X5654Y1410D01*
X5753Y1451D01*
X5861Y1451D01*
X5960Y1410D01*
X6036Y1334D01*
X6077Y1235D01*
X6077Y1127D01*
X6036Y1028D01*
X5960Y953D01*
X5861Y911D01*
X5753Y911D01*
X5654Y953D01*
X5578Y1028D01*
X5570Y1048D01*
X5569Y1051D01*
X5567Y1054D01*
X5566Y1056D01*
X5565Y1058D01*
X5562Y1060D01*
X5560Y1063D01*
X5558Y1064D01*
X5557Y1065D01*
X5553Y1067D01*
X5551Y1069D01*
X5549Y1069D01*
X5547Y1070D01*
X5543Y1071D01*
X5540Y1072D01*
X5538Y1072D01*
X5536Y1072D01*
X5532Y1072D01*
X5529Y1072D01*
X5527Y1072D01*
X5525Y1071D01*
X5522Y1070D01*
X5518Y1069D01*
X5516Y1068D01*
X5514Y1067D01*
X5512Y1065D01*
X5509Y1063D01*
X5507Y1062D01*
X5506Y1060D01*
X5504Y1058D01*
X5501Y1055D01*
X5500Y1053D01*
X5499Y1051D01*
X5498Y1048D01*
X5497Y1045D01*
X5496Y1043D01*
X5496Y1041D01*
X5495Y1037D01*
X5495Y1033D01*
X5495Y791D01*
X5495Y788D01*
X5495Y785D01*
X5496Y783D01*
X5496Y780D01*
X5497Y777D01*
X5498Y775D01*
X5500Y772D01*
X5501Y769D01*
X5503Y768D01*
X5504Y765D01*
X5506Y763D01*
X5508Y761D01*
X5510Y760D01*
X5512Y758D01*
X5515Y757D01*
X5517Y755D01*
X5520Y754D01*
X5522Y753D01*
X5525Y753D01*
X5528Y752D01*
X5531Y752D01*
X5534Y751D01*
X6807Y751D01*
X6811Y752D01*
X6815Y752D01*
X6816Y753D01*
X6818Y753D01*
X6821Y754D01*
X6825Y756D01*
X6826Y757D01*
X6828Y757D01*
X6832Y761D01*
X6835Y763D01*
X6914Y842D01*
X6915Y843D01*
X6915Y844D01*
X6917Y846D01*
X6919Y848D01*
X6920Y850D01*
X6921Y851D01*
X6922Y855D01*
X6924Y858D01*
X6924Y860D01*
X6925Y862D01*
X6925Y867D01*
X6926Y870D01*
X6926Y1445D01*
X7308Y1827D01*
X7310Y1830D01*
X7313Y1833D01*
X7314Y1834D01*
X7315Y1836D01*
X7316Y1839D01*
X7318Y1843D01*
X7318Y1844D01*
X7319Y1846D01*
X7319Y1851D01*
X7320Y1854D01*
X7320Y2287D01*
X7320Y2288D01*
X7319Y2293D01*
X7318Y2298D01*
X7318Y2299D01*
X7316Y2304D01*
X7313Y2308D01*
X7313Y2309D01*
X7310Y2313D01*
X7306Y2317D01*
X7303Y2319D01*
X7297Y2323D01*
X7296Y2323D01*
X7295Y2323D01*
X7111Y2400D01*
X6927Y2583D01*
X6828Y2823D01*
X6828Y3082D01*
X6927Y3322D01*
X7111Y3506D01*
X7351Y3605D01*
X7610Y3605D01*
X7850Y3506D01*
X8033Y3322D01*
X8133Y3082D01*
X8133Y2823D01*
X8033Y2583D01*
X7850Y2400D01*
X7665Y2323D01*
X7660Y2320D01*
X7656Y2318D01*
X7655Y2317D01*
X7652Y2313D01*
X7648Y2310D01*
X7648Y2309D01*
X7645Y2304D01*
X7643Y2300D01*
X7643Y2299D01*
X7642Y2296D01*
X7641Y2289D01*
X7641Y2288D01*
X7641Y2287D01*
X7641Y1767D01*
X7642Y1763D01*
X7642Y1758D01*
X7643Y1757D01*
X7645Y1752D01*
X7646Y1748D01*
X7647Y1747D01*
X7647Y1746D01*
X7650Y1743D01*
X7653Y1739D01*
X7654Y1739D01*
X7654Y1738D01*
X7658Y1735D01*
X7662Y1733D01*
X7663Y1732D01*
X7664Y1732D01*
X7668Y1731D01*
X7673Y1729D01*
X7674Y1729D01*
X7679Y1729D01*
X7684Y1728D01*
X7685Y1729D01*
X7692Y1730D01*
X7695Y1731D01*
X7905Y1818D01*
X8237Y1818D01*
X8550Y1688D01*
X8555Y1687D01*
X8559Y1686D01*
X8560Y1686D01*
X8561Y1686D01*
X8566Y1686D01*
X8570Y1686D01*
X8571Y1686D01*
X8572Y1686D01*
X8576Y1687D01*
X8581Y1689D01*
X8582Y1689D01*
X8586Y1692D01*
X8590Y1694D01*
X8591Y1695D01*
X8592Y1696D01*
X8595Y1699D01*
X8598Y1703D01*
X8599Y1704D01*
X8601Y1708D01*
X8603Y1713D01*
X8603Y1714D01*
X8604Y1721D01*
X8604Y1725D01*
X8604Y3740D01*
X8604Y3742D01*
X8604Y3743D01*
X8603Y3759D01*
X8602Y3764D01*
X8601Y3768D01*
X8591Y3798D01*
X8590Y3800D01*
X8587Y3808D01*
X8586Y3808D01*
X8586Y3809D01*
X8567Y3834D01*
X8567Y3835D01*
X8566Y3836D01*
X8560Y3842D01*
X8559Y3843D01*
X8533Y3862D01*
X8531Y3863D01*
X8523Y3867D01*
X8522Y3867D01*
X8492Y3877D01*
X8487Y3878D01*
X8483Y3879D01*
X8468Y3880D01*
X8466Y3880D01*
X8465Y3880D01*
X6694Y3880D01*
X6321Y4001D01*
X6003Y4232D01*
X5773Y4549D01*
X5652Y4922D01*
X5652Y5409D01*
X5651Y5410D01*
X5652Y5411D01*
X5651Y5416D01*
X5650Y5420D01*
X5650Y5421D01*
X5649Y5422D01*
X5647Y5426D01*
X5645Y5430D01*
X5645Y5431D01*
X5644Y5432D01*
X5641Y5435D01*
X5638Y5439D01*
X5637Y5439D01*
X5636Y5440D01*
X5633Y5442D01*
X5629Y5445D01*
X5628Y5445D01*
X5627Y5446D01*
X5623Y5447D01*
X5618Y5448D01*
X5617Y5448D01*
X5616Y5448D01*
X5612Y5448D01*
X5607Y5448D01*
X5606Y5448D01*
X5605Y5448D01*
X5601Y5446D01*
X5597Y5445D01*
X5596Y5444D01*
X5594Y5444D01*
X5591Y5442D01*
X5587Y5439D01*
X5586Y5438D01*
X5585Y5438D01*
X5583Y5434D01*
X5580Y5431D01*
X5579Y5430D01*
X5579Y5429D01*
X5577Y5426D01*
X5575Y5421D01*
X5575Y5419D01*
X5574Y5418D01*
X5572Y5408D01*
X5532Y5293D01*
X5479Y5183D01*
X5414Y5080D01*
X5338Y4985D01*
X5252Y4898D01*
X5156Y4822D01*
X5053Y4758D01*
X4943Y4705D01*
X4828Y4664D01*
X4710Y4637D01*
X4607Y4626D01*
X4607Y5669D01*
X4606Y5671D01*
X4606Y5674D01*
X4606Y5677D01*
X4605Y5680D01*
X4604Y5682D01*
X4603Y5684D01*
X4602Y5687D01*
X4601Y5690D01*
X4599Y5692D01*
X4598Y5694D01*
X4595Y5696D01*
X4593Y5698D01*
X4591Y5700D01*
X4589Y5701D01*
X4587Y5703D01*
X4584Y5704D01*
X4582Y5705D01*
X4579Y5706D01*
X4577Y5706D01*
X4574Y5707D01*
X4570Y5707D01*
X4568Y5708D01*
X4488Y5708D01*
X4485Y5708D01*
X4482Y5708D01*
X4480Y5707D01*
X4477Y5706D01*
X4474Y5705D01*
X4472Y5705D01*
X4469Y5703D01*
X4466Y5702D01*
X4465Y5700D01*
X4462Y5699D01*
X4460Y5697D01*
X4458Y5695D01*
X4457Y5692D01*
X4455Y5690D01*
X4454Y5688D01*
X4452Y5685D01*
X4451Y5683D01*
X4450Y5680D01*
X4450Y5678D01*
X4449Y5675D01*
X4449Y5671D01*
X4448Y5669D01*
X4448Y4626D01*
X4346Y4637D01*
X4249Y4659D01*
X4246Y4660D01*
X4244Y4660D01*
X4241Y4660D01*
X4237Y4660D01*
X4235Y4660D01*
X4233Y4660D01*
X4230Y4659D01*
X4227Y4658D01*
X4225Y4657D01*
X4222Y4656D01*
X4220Y4655D01*
X4217Y4653D01*
X4216Y4652D01*
X4216Y4653D01*
X4215Y4654D01*
X4215Y4655D01*
X4212Y4659D01*
X4210Y4663D01*
X4209Y4664D01*
X4209Y4665D01*
X4206Y4668D01*
X4202Y4671D01*
X4201Y4671D01*
X4201Y4672D01*
X4195Y4675D01*
X4192Y4677D01*
X4112Y4705D01*
X4002Y4758D01*
X3899Y4822D01*
X3803Y4898D01*
X3717Y4985D01*
X3641Y5080D01*
X3576Y5183D01*
X3524Y5293D01*
X3483Y5408D01*
X3481Y5418D01*
X3481Y5419D01*
X3480Y5420D01*
X3479Y5424D01*
X3477Y5428D01*
X3476Y5429D01*
X3476Y5430D01*
X3473Y5434D01*
X3470Y5437D01*
X3469Y5438D01*
X3469Y5439D01*
X3465Y5441D01*
X3461Y5444D01*
X3460Y5444D01*
X3459Y5445D01*
X3455Y5446D01*
X3451Y5448D01*
X3450Y5448D01*
X3449Y5448D01*
X3444Y5448D01*
X3440Y5448D01*
X3439Y5448D01*
X3438Y5448D01*
X3433Y5447D01*
X3429Y5446D01*
X3428Y5445D01*
X3427Y5445D01*
X3423Y5443D01*
X3419Y5441D01*
X3419Y5440D01*
X3418Y5439D01*
X3415Y5436D01*
X3411Y5433D01*
X3411Y5432D01*
X3410Y5431D01*
X3408Y5427D01*
X3406Y5423D01*
X3406Y5422D01*
X3405Y5421D01*
X3405Y5417D01*
X3404Y5412D01*
X3404Y5411D01*
X3404Y5409D01*
X3404Y4922D01*
X3282Y4549D01*
X3052Y4232D01*
X2734Y4001D01*
X2361Y3880D01*
X591Y3880D01*
X589Y3880D01*
X587Y3880D01*
X572Y3879D01*
X566Y3877D01*
X563Y3877D01*
X533Y3867D01*
X532Y3867D01*
X531Y3866D01*
X523Y3862D01*
X522Y3862D01*
X496Y3843D01*
X495Y3841D01*
X488Y3835D01*
X488Y3834D01*
X469Y3809D01*
X468Y3807D01*
X464Y3799D01*
X464Y3798D01*
X454Y3768D01*
X453Y3763D01*
X452Y3759D01*
X451Y3743D01*
X451Y3742D01*
X451Y3740D01*
X451Y1725D01*
X451Y1720D01*
X452Y1715D01*
X452Y1714D01*
X454Y1709D01*
X456Y1705D01*
X457Y1704D01*
X457Y1703D01*
X460Y1700D01*
X463Y1696D01*
X464Y1696D01*
X464Y1695D01*
X468Y1692D01*
X472Y1690D01*
X473Y1689D01*
X478Y1688D01*
X482Y1686D01*
X483Y1686D01*
X484Y1686D01*
X489Y1686D01*
X493Y1685D01*
X494Y1686D01*
X495Y1686D01*
X502Y1687D01*
X505Y1688D01*
X818Y1818D01*
X1150Y1818D01*
X1360Y1731D01*
X1364Y1730D01*
X1369Y1729D01*
X1370Y1729D01*
X1371Y1728D01*
X1375Y1729D01*
X1380Y1729D01*
X1381Y1729D01*
X1382Y1729D01*
X1386Y1730D01*
X1391Y1732D01*
X1392Y1732D01*
X1396Y1735D01*
X1400Y1737D01*
X1401Y1738D01*
X1401Y1739D01*
X1404Y1742D01*
X1407Y1746D01*
X1408Y1746D01*
X1408Y1747D01*
X1410Y1751D01*
X1412Y1756D01*
X1413Y1757D01*
X1414Y1764D01*
X1414Y1767D01*
X1414Y2287D01*
X1414Y2288D01*
X1413Y2293D01*
X1412Y2298D01*
X1412Y2299D01*
X1410Y2304D01*
X1408Y2308D01*
X1408Y2309D01*
X1407Y2309D01*
X1404Y2313D01*
X1401Y2317D01*
X1400Y2317D01*
X1397Y2319D01*
X1391Y2323D01*
X1390Y2323D01*
X1205Y2400D01*
X1022Y2583D01*
X923Y2823D01*
X923Y3082D01*
X1022Y3322D01*
X1205Y3506D01*
X1445Y3605D01*
X1705Y3605D01*
X1944Y3506D01*
X2128Y3322D01*
X2227Y3082D01*
X2227Y2823D01*
X2128Y2583D01*
X1944Y2400D01*
X1760Y2323D01*
X1759Y2323D01*
X1755Y2320D01*
X1750Y2318D01*
X1750Y2317D01*
X1746Y2313D01*
X1743Y2310D01*
X1742Y2309D01*
X1740Y2304D01*
X1738Y2300D01*
X1738Y2299D01*
X1737Y2299D01*
X1737Y2296D01*
X1736Y2289D01*
X1736Y2288D01*
X1736Y2287D01*
X1736Y1854D01*
X1736Y1851D01*
X1736Y1847D01*
X1737Y1845D01*
X1737Y1844D01*
X1739Y1840D01*
X1740Y1836D01*
X1741Y1835D01*
X1742Y1833D01*
X1745Y1830D01*
X1747Y1827D01*
X2129Y1445D01*
X2129Y870D01*
X2130Y866D01*
X2130Y863D01*
X2131Y861D01*
X2131Y859D01*
X2132Y856D01*
X2134Y852D01*
X2135Y851D01*
X2135Y849D01*
X2139Y845D01*
X2140Y844D01*
X2140Y843D01*
X2141Y842D01*
X2220Y763D01*
X2224Y760D01*
X2226Y758D01*
X2228Y757D01*
X2229Y756D01*
X2233Y755D01*
X2236Y753D01*
X2238Y753D01*
X2240Y752D01*
X2245Y752D01*
X2248Y751D01*
X3521Y751D01*
X3524Y752D01*
G37*
G36*
X4570Y5710D02*
X4570Y5710D01*
X4573Y5710D01*
X4576Y5711D01*
X4579Y5711D01*
X4581Y5712D01*
X4583Y5713D01*
X4586Y5714D01*
X4589Y5716D01*
X4591Y5717D01*
X4593Y5719D01*
X4595Y5721D01*
X4597Y5723D01*
X4598Y5725D01*
X4600Y5727D01*
X4601Y5730D01*
X4603Y5732D01*
X4604Y5735D01*
X4605Y5737D01*
X4605Y5740D01*
X4606Y5743D01*
X4606Y5746D01*
X4607Y5749D01*
X4607Y6792D01*
X4710Y6780D01*
X4828Y6753D01*
X4943Y6713D01*
X5053Y6660D01*
X5156Y6595D01*
X5252Y6519D01*
X5338Y6433D01*
X5414Y6338D01*
X5479Y6234D01*
X5532Y6125D01*
X5572Y6010D01*
X5574Y5999D01*
X5575Y5998D01*
X5575Y5997D01*
X5576Y5993D01*
X5578Y5989D01*
X5579Y5988D01*
X5579Y5987D01*
X5582Y5984D01*
X5585Y5980D01*
X5586Y5980D01*
X5586Y5979D01*
X5590Y5976D01*
X5594Y5974D01*
X5595Y5973D01*
X5596Y5973D01*
X5600Y5971D01*
X5604Y5970D01*
X5605Y5970D01*
X5606Y5969D01*
X5611Y5969D01*
X5615Y5969D01*
X5616Y5969D01*
X5617Y5969D01*
X5622Y5970D01*
X5626Y5971D01*
X5627Y5972D01*
X5628Y5972D01*
X5632Y5975D01*
X5636Y5977D01*
X5637Y5977D01*
X5638Y5978D01*
X5640Y5981D01*
X5644Y5984D01*
X5644Y5985D01*
X5645Y5986D01*
X5647Y5990D01*
X5649Y5994D01*
X5649Y5995D01*
X5650Y5996D01*
X5650Y6000D01*
X5651Y6005D01*
X5651Y6007D01*
X5652Y6008D01*
X5652Y7283D01*
X5773Y7656D01*
X5915Y7851D01*
X5916Y7854D01*
X5918Y7857D01*
X5919Y7859D01*
X5920Y7861D01*
X5921Y7864D01*
X5922Y7868D01*
X5922Y7870D01*
X5922Y7872D01*
X5922Y7875D01*
X5922Y7879D01*
X5921Y7881D01*
X5921Y7883D01*
X5920Y7886D01*
X5919Y7890D01*
X5918Y7891D01*
X5917Y7893D01*
X5915Y7896D01*
X5913Y7899D01*
X5912Y7900D01*
X5911Y7902D01*
X5908Y7904D01*
X5905Y7907D01*
X5903Y7907D01*
X5902Y7908D01*
X5898Y7910D01*
X5895Y7911D01*
X5893Y7912D01*
X5891Y7912D01*
X5886Y7913D01*
X5883Y7913D01*
X3172Y7913D01*
X3169Y7913D01*
X3165Y7913D01*
X3163Y7912D01*
X3161Y7912D01*
X3158Y7910D01*
X3154Y7909D01*
X3153Y7908D01*
X3151Y7907D01*
X3148Y7905D01*
X3145Y7903D01*
X3144Y7901D01*
X3143Y7900D01*
X3141Y7897D01*
X3138Y7894D01*
X3138Y7892D01*
X3137Y7891D01*
X3136Y7887D01*
X3134Y7884D01*
X3134Y7882D01*
X3133Y7880D01*
X3133Y7876D01*
X3133Y7873D01*
X3133Y7871D01*
X3133Y7869D01*
X3134Y7865D01*
X3135Y7862D01*
X3136Y7860D01*
X3136Y7858D01*
X3139Y7854D01*
X3140Y7851D01*
X3282Y7656D01*
X3404Y7283D01*
X3404Y6008D01*
X3404Y6007D01*
X3404Y6006D01*
X3404Y6002D01*
X3405Y5997D01*
X3406Y5996D01*
X3406Y5995D01*
X3408Y5991D01*
X3410Y5987D01*
X3410Y5986D01*
X3411Y5985D01*
X3414Y5982D01*
X3417Y5979D01*
X3418Y5978D01*
X3419Y5977D01*
X3422Y5975D01*
X3426Y5973D01*
X3427Y5972D01*
X3428Y5972D01*
X3433Y5971D01*
X3437Y5969D01*
X3438Y5969D01*
X3439Y5969D01*
X3443Y5969D01*
X3448Y5969D01*
X3449Y5970D01*
X3450Y5970D01*
X3454Y5971D01*
X3459Y5972D01*
X3460Y5973D01*
X3461Y5973D01*
X3464Y5976D01*
X3468Y5978D01*
X3469Y5979D01*
X3470Y5980D01*
X3472Y5983D01*
X3475Y5986D01*
X3476Y5987D01*
X3477Y5988D01*
X3478Y5992D01*
X3480Y5996D01*
X3480Y5998D01*
X3481Y5999D01*
X3483Y6010D01*
X3524Y6125D01*
X3576Y6234D01*
X3641Y6338D01*
X3717Y6433D01*
X3803Y6519D01*
X3899Y6595D01*
X4002Y6660D01*
X4112Y6713D01*
X4227Y6753D01*
X4346Y6780D01*
X4448Y6792D01*
X4448Y5749D01*
X4449Y5746D01*
X4449Y5744D01*
X4449Y5741D01*
X4450Y5738D01*
X4451Y5735D01*
X4452Y5733D01*
X4453Y5730D01*
X4454Y5728D01*
X4456Y5726D01*
X4457Y5723D01*
X4460Y5721D01*
X4462Y5719D01*
X4464Y5718D01*
X4466Y5716D01*
X4468Y5715D01*
X4471Y5713D01*
X4473Y5712D01*
X4476Y5711D01*
X4478Y5711D01*
X4482Y5710D01*
X4485Y5710D01*
X4488Y5709D01*
X4568Y5709D01*
X4570Y5710D01*
G37*
%LPC*%
G36*
X4080Y4061D02*
X4080Y4061D01*
X3981Y4102D01*
X3905Y4178D01*
X3864Y4277D01*
X3864Y4384D01*
X3905Y4483D01*
X3981Y4559D01*
X4080Y4600D01*
X4179Y4600D01*
X4183Y4601D01*
X4188Y4601D01*
X4189Y4602D01*
X4190Y4602D01*
X4194Y4604D01*
X4198Y4605D01*
X4199Y4606D01*
X4200Y4606D01*
X4203Y4609D01*
X4204Y4606D01*
X4205Y4603D01*
X4206Y4601D01*
X4207Y4599D01*
X4209Y4597D01*
X4211Y4594D01*
X4213Y4593D01*
X4215Y4591D01*
X4217Y4590D01*
X4220Y4587D01*
X4222Y4586D01*
X4225Y4585D01*
X4287Y4559D01*
X4362Y4483D01*
X4404Y4384D01*
X4404Y4277D01*
X4362Y4178D01*
X4287Y4102D01*
X4187Y4061D01*
X4080Y4061D01*
G37*
%LPD*%
%LPC*%
G36*
X4966Y4061D02*
X4966Y4061D01*
X4867Y4102D01*
X4791Y4178D01*
X4750Y4277D01*
X4750Y4384D01*
X4791Y4483D01*
X4867Y4559D01*
X4966Y4600D01*
X5073Y4600D01*
X5172Y4559D01*
X5248Y4483D01*
X5289Y4384D01*
X5289Y4277D01*
X5248Y4178D01*
X5172Y4102D01*
X5073Y4061D01*
X4966Y4061D01*
G37*
%LPD*%
%LPC*%
G36*
X2505Y1502D02*
X2505Y1502D01*
X2406Y1543D01*
X2330Y1619D01*
X2289Y1718D01*
X2289Y1825D01*
X2330Y1924D01*
X2406Y2000D01*
X2505Y2041D01*
X2613Y2041D01*
X2712Y2000D01*
X2788Y1924D01*
X2829Y1825D01*
X2829Y1718D01*
X2788Y1619D01*
X2712Y1543D01*
X2613Y1502D01*
X2505Y1502D01*
G37*
%LPD*%
%LPC*%
G36*
X2899Y1010D02*
X2899Y1010D01*
X2800Y1051D01*
X2724Y1127D01*
X2683Y1226D01*
X2683Y1333D01*
X2724Y1432D01*
X2800Y1508D01*
X2899Y1549D01*
X3006Y1549D01*
X3106Y1508D01*
X3181Y1432D01*
X3222Y1333D01*
X3222Y1226D01*
X3181Y1127D01*
X3106Y1051D01*
X3006Y1010D01*
X2899Y1010D01*
G37*
%LPD*%
%LPC*%
G36*
X6442Y911D02*
X6442Y911D01*
X6343Y953D01*
X6267Y1028D01*
X6226Y1127D01*
X6226Y1235D01*
X6267Y1334D01*
X6343Y1410D01*
X6442Y1451D01*
X6550Y1451D01*
X6649Y1410D01*
X6725Y1334D01*
X6766Y1235D01*
X6766Y1127D01*
X6725Y1028D01*
X6649Y953D01*
X6550Y911D01*
X6442Y911D01*
G37*
%LPD*%
D10*
X4528Y1142D03*
D11*
X4528Y5709D03*
D12*
X7480Y2953D03*
X1575Y2953D03*
D13*
X4528Y7677D03*
D14*
X4528Y5709D01*
D13*
X4528Y4921D03*
D14*
X4528Y5709D01*
X7480Y2953D02*
X7480Y1772D01*
X7087Y1378D02*
X7087Y787D01*
X6890Y591D01*
X5079Y591D01*
X4528Y1142D01*
X7087Y1378D02*
X7480Y1772D01*
X1575Y1772D02*
X1575Y2953D01*
X1575Y1772D02*
X1969Y1378D01*
X1969Y787D02*
X2165Y591D01*
X3976Y591D01*
X4528Y1142D01*
X1969Y1378D02*
X1969Y787D01*
X4528Y1142D02*
X4528Y1673D01*
D13*
X5512Y2756D03*
D14*
X5217Y2461D01*
X4823Y2461D01*
X4528Y2165D01*
X4528Y1142D01*
D13*
X3839Y3642D03*
X6496Y2165D03*
D14*
X4331Y3150D02*
X3839Y3642D01*
X6496Y2362D02*
X6496Y2165D01*
X5709Y3150D02*
X4331Y3150D01*
X5709Y3150D02*
X6496Y2362D01*
D13*
X6004Y3445D03*
X2559Y1772D03*
X4134Y4331D03*
X5807Y1181D03*
X5020Y4331D03*
X2953Y1280D03*
X5217Y3642D03*
X6496Y1181D03*
M02*
