G04 EAGLE Gerber X2 export*
G75*
%MOIN*%
%FSLAX24Y24*%
%LPD*%
%AMOC8*
5,1,8,0,0,1.08239X$1,22.5*%
G01*
%ADD10C,0.010000*%


D10*
X0Y591D02*
X2Y539D01*
X9Y488D01*
X20Y438D01*
X36Y389D01*
X55Y341D01*
X79Y295D01*
X107Y252D01*
X138Y211D01*
X173Y173D01*
X211Y138D01*
X252Y107D01*
X295Y79D01*
X341Y55D01*
X389Y36D01*
X438Y20D01*
X488Y9D01*
X539Y2D01*
X591Y0D01*
X8465Y0D01*
X8516Y2D01*
X8567Y9D01*
X8617Y20D01*
X8667Y36D01*
X8714Y55D01*
X8760Y79D01*
X8803Y107D01*
X8844Y138D01*
X8882Y173D01*
X8917Y211D01*
X8948Y252D01*
X8976Y295D01*
X9000Y341D01*
X9020Y389D01*
X9035Y438D01*
X9046Y488D01*
X9053Y539D01*
X9055Y591D01*
X9055Y3740D01*
X9053Y3792D01*
X9046Y3843D01*
X9035Y3893D01*
X9020Y3942D01*
X9000Y3990D01*
X8976Y4035D01*
X8948Y4079D01*
X8917Y4120D01*
X8882Y4158D01*
X8844Y4193D01*
X8803Y4224D01*
X8760Y4252D01*
X8714Y4275D01*
X8667Y4295D01*
X8617Y4311D01*
X8567Y4322D01*
X8516Y4328D01*
X8465Y4331D01*
X6890Y4331D01*
X6821Y4334D01*
X6753Y4343D01*
X6686Y4358D01*
X6620Y4378D01*
X6557Y4404D01*
X6496Y4436D01*
X6438Y4473D01*
X6384Y4515D01*
X6333Y4561D01*
X6287Y4612D01*
X6245Y4666D01*
X6208Y4724D01*
X6176Y4785D01*
X6150Y4849D01*
X6129Y4914D01*
X6114Y4981D01*
X6105Y5049D01*
X6102Y5118D01*
X6102Y7087D01*
X6105Y7155D01*
X6114Y7223D01*
X6129Y7290D01*
X6150Y7356D01*
X6176Y7419D01*
X6208Y7480D01*
X6245Y7538D01*
X6287Y7593D01*
X6333Y7643D01*
X6384Y7690D01*
X6438Y7732D01*
X6496Y7769D01*
X6557Y7800D01*
X6620Y7827D01*
X6686Y7847D01*
X6753Y7862D01*
X6821Y7871D01*
X6890Y7874D01*
X8465Y7874D01*
X8516Y7876D01*
X8567Y7883D01*
X8617Y7894D01*
X8667Y7910D01*
X8714Y7929D01*
X8760Y7953D01*
X8803Y7981D01*
X8844Y8012D01*
X8882Y8047D01*
X8917Y8085D01*
X8948Y8126D01*
X8976Y8169D01*
X9000Y8215D01*
X9020Y8263D01*
X9035Y8312D01*
X9046Y8362D01*
X9053Y8413D01*
X9055Y8465D01*
X9055Y9252D01*
X9053Y9303D01*
X9046Y9355D01*
X9035Y9405D01*
X9020Y9454D01*
X9000Y9502D01*
X8976Y9547D01*
X8948Y9591D01*
X8917Y9632D01*
X8882Y9670D01*
X8844Y9704D01*
X8803Y9736D01*
X8760Y9763D01*
X8714Y9787D01*
X8667Y9807D01*
X8617Y9822D01*
X8567Y9834D01*
X8516Y9840D01*
X8465Y9843D01*
X591Y9843D01*
X539Y9840D01*
X488Y9834D01*
X438Y9822D01*
X389Y9807D01*
X341Y9787D01*
X295Y9763D01*
X252Y9736D01*
X211Y9704D01*
X173Y9670D01*
X138Y9632D01*
X107Y9591D01*
X79Y9547D01*
X55Y9502D01*
X36Y9454D01*
X20Y9405D01*
X9Y9355D01*
X2Y9303D01*
X0Y9252D01*
X0Y8465D01*
X2Y8413D01*
X9Y8362D01*
X20Y8312D01*
X36Y8263D01*
X55Y8215D01*
X79Y8169D01*
X107Y8126D01*
X138Y8085D01*
X173Y8047D01*
X211Y8012D01*
X252Y7981D01*
X295Y7953D01*
X341Y7929D01*
X389Y7910D01*
X438Y7894D01*
X488Y7883D01*
X539Y7876D01*
X591Y7874D01*
X2165Y7874D01*
X2234Y7871D01*
X2302Y7862D01*
X2369Y7847D01*
X2435Y7827D01*
X2498Y7800D01*
X2559Y7769D01*
X2617Y7732D01*
X2671Y7690D01*
X2722Y7643D01*
X2769Y7593D01*
X2810Y7538D01*
X2847Y7480D01*
X2879Y7419D01*
X2905Y7356D01*
X2926Y7290D01*
X2941Y7223D01*
X2950Y7155D01*
X2953Y7087D01*
X2953Y5118D01*
X2950Y5049D01*
X2941Y4981D01*
X2926Y4914D01*
X2905Y4849D01*
X2879Y4785D01*
X2847Y4724D01*
X2810Y4666D01*
X2769Y4612D01*
X2722Y4561D01*
X2671Y4515D01*
X2617Y4473D01*
X2559Y4436D01*
X2498Y4404D01*
X2435Y4378D01*
X2369Y4358D01*
X2302Y4343D01*
X2234Y4334D01*
X2165Y4331D01*
X591Y4331D01*
X539Y4328D01*
X488Y4322D01*
X438Y4311D01*
X389Y4295D01*
X341Y4275D01*
X295Y4252D01*
X252Y4224D01*
X211Y4193D01*
X173Y4158D01*
X138Y4120D01*
X107Y4079D01*
X79Y4035D01*
X55Y3990D01*
X36Y3942D01*
X20Y3893D01*
X9Y3843D01*
X2Y3792D01*
X0Y3740D01*
X0Y591D01*
X8504Y967D02*
X8501Y933D01*
X8496Y900D01*
X8488Y867D01*
X8477Y834D01*
X8464Y803D01*
X8449Y772D01*
X8431Y743D01*
X8411Y716D01*
X8389Y690D01*
X8365Y666D01*
X8339Y644D01*
X8312Y624D01*
X8283Y606D01*
X8252Y591D01*
X8221Y578D01*
X8189Y567D01*
X8155Y559D01*
X8122Y554D01*
X8088Y551D01*
X8054Y551D01*
X8020Y554D01*
X7986Y559D01*
X7953Y567D01*
X7921Y578D01*
X7889Y591D01*
X7859Y606D01*
X7830Y624D01*
X7803Y644D01*
X7777Y666D01*
X7753Y690D01*
X7731Y716D01*
X7711Y743D01*
X7693Y772D01*
X7677Y803D01*
X7664Y834D01*
X7654Y867D01*
X7646Y900D01*
X7640Y933D01*
X7638Y967D01*
X7638Y1001D01*
X7640Y1035D01*
X7646Y1069D01*
X7654Y1102D01*
X7664Y1134D01*
X7677Y1166D01*
X7693Y1196D01*
X7711Y1225D01*
X7731Y1253D01*
X7753Y1278D01*
X7777Y1303D01*
X7803Y1325D01*
X7830Y1345D01*
X7859Y1362D01*
X7889Y1378D01*
X7921Y1391D01*
X7953Y1401D01*
X7986Y1409D01*
X8020Y1415D01*
X8054Y1417D01*
X8088Y1417D01*
X8122Y1415D01*
X8155Y1409D01*
X8189Y1401D01*
X8221Y1391D01*
X8252Y1378D01*
X8283Y1362D01*
X8312Y1345D01*
X8339Y1325D01*
X8365Y1303D01*
X8389Y1278D01*
X8411Y1253D01*
X8431Y1225D01*
X8449Y1196D01*
X8464Y1166D01*
X8477Y1134D01*
X8488Y1102D01*
X8496Y1069D01*
X8501Y1035D01*
X8504Y1001D01*
X8504Y967D01*
X1417Y967D02*
X1415Y933D01*
X1409Y900D01*
X1401Y867D01*
X1391Y834D01*
X1378Y803D01*
X1362Y772D01*
X1345Y743D01*
X1325Y716D01*
X1303Y690D01*
X1278Y666D01*
X1253Y644D01*
X1225Y624D01*
X1196Y606D01*
X1166Y591D01*
X1134Y578D01*
X1102Y567D01*
X1069Y559D01*
X1035Y554D01*
X1001Y551D01*
X967Y551D01*
X933Y554D01*
X900Y559D01*
X867Y567D01*
X834Y578D01*
X803Y591D01*
X772Y606D01*
X743Y624D01*
X716Y644D01*
X690Y666D01*
X666Y690D01*
X644Y716D01*
X624Y743D01*
X606Y772D01*
X591Y803D01*
X578Y834D01*
X567Y867D01*
X559Y900D01*
X554Y933D01*
X551Y967D01*
X551Y1001D01*
X554Y1035D01*
X559Y1069D01*
X567Y1102D01*
X578Y1134D01*
X591Y1166D01*
X606Y1196D01*
X624Y1225D01*
X644Y1253D01*
X666Y1278D01*
X690Y1303D01*
X716Y1325D01*
X743Y1345D01*
X772Y1362D01*
X803Y1378D01*
X834Y1391D01*
X867Y1401D01*
X900Y1409D01*
X933Y1415D01*
X967Y1417D01*
X1001Y1417D01*
X1035Y1415D01*
X1069Y1409D01*
X1102Y1401D01*
X1134Y1391D01*
X1166Y1378D01*
X1196Y1362D01*
X1225Y1345D01*
X1253Y1325D01*
X1278Y1303D01*
X1303Y1278D01*
X1325Y1253D01*
X1345Y1225D01*
X1362Y1196D01*
X1378Y1166D01*
X1391Y1134D01*
X1401Y1102D01*
X1409Y1069D01*
X1415Y1035D01*
X1417Y1001D01*
X1417Y967D01*
X1417Y8841D02*
X1415Y8807D01*
X1409Y8774D01*
X1401Y8741D01*
X1391Y8708D01*
X1378Y8677D01*
X1362Y8646D01*
X1345Y8617D01*
X1325Y8590D01*
X1303Y8564D01*
X1278Y8540D01*
X1253Y8518D01*
X1225Y8498D01*
X1196Y8480D01*
X1166Y8465D01*
X1134Y8452D01*
X1102Y8441D01*
X1069Y8433D01*
X1035Y8428D01*
X1001Y8425D01*
X967Y8425D01*
X933Y8428D01*
X900Y8433D01*
X867Y8441D01*
X834Y8452D01*
X803Y8465D01*
X772Y8480D01*
X743Y8498D01*
X716Y8518D01*
X690Y8540D01*
X666Y8564D01*
X644Y8590D01*
X624Y8617D01*
X606Y8646D01*
X591Y8677D01*
X578Y8708D01*
X567Y8741D01*
X559Y8774D01*
X554Y8807D01*
X551Y8841D01*
X551Y8875D01*
X554Y8909D01*
X559Y8943D01*
X567Y8976D01*
X578Y9008D01*
X591Y9040D01*
X606Y9070D01*
X624Y9099D01*
X644Y9127D01*
X666Y9152D01*
X690Y9177D01*
X716Y9199D01*
X743Y9219D01*
X772Y9236D01*
X803Y9252D01*
X834Y9265D01*
X867Y9275D01*
X900Y9283D01*
X933Y9289D01*
X967Y9291D01*
X1001Y9291D01*
X1035Y9289D01*
X1069Y9283D01*
X1102Y9275D01*
X1134Y9265D01*
X1166Y9252D01*
X1196Y9236D01*
X1225Y9219D01*
X1253Y9199D01*
X1278Y9177D01*
X1303Y9152D01*
X1325Y9127D01*
X1345Y9099D01*
X1362Y9070D01*
X1378Y9040D01*
X1391Y9008D01*
X1401Y8976D01*
X1409Y8943D01*
X1415Y8909D01*
X1417Y8875D01*
X1417Y8841D01*
X8504Y8841D02*
X8501Y8807D01*
X8496Y8774D01*
X8488Y8741D01*
X8477Y8708D01*
X8464Y8677D01*
X8449Y8646D01*
X8431Y8617D01*
X8411Y8590D01*
X8389Y8564D01*
X8365Y8540D01*
X8339Y8518D01*
X8312Y8498D01*
X8283Y8480D01*
X8252Y8465D01*
X8221Y8452D01*
X8189Y8441D01*
X8155Y8433D01*
X8122Y8428D01*
X8088Y8425D01*
X8054Y8425D01*
X8020Y8428D01*
X7986Y8433D01*
X7953Y8441D01*
X7921Y8452D01*
X7889Y8465D01*
X7859Y8480D01*
X7830Y8498D01*
X7803Y8518D01*
X7777Y8540D01*
X7753Y8564D01*
X7731Y8590D01*
X7711Y8617D01*
X7693Y8646D01*
X7677Y8677D01*
X7664Y8708D01*
X7654Y8741D01*
X7646Y8774D01*
X7640Y8807D01*
X7638Y8841D01*
X7638Y8875D01*
X7640Y8909D01*
X7646Y8943D01*
X7654Y8976D01*
X7664Y9008D01*
X7677Y9040D01*
X7693Y9070D01*
X7711Y9099D01*
X7731Y9127D01*
X7753Y9152D01*
X7777Y9177D01*
X7803Y9199D01*
X7830Y9219D01*
X7859Y9236D01*
X7889Y9252D01*
X7921Y9265D01*
X7953Y9275D01*
X7986Y9283D01*
X8020Y9289D01*
X8054Y9291D01*
X8088Y9291D01*
X8122Y9289D01*
X8155Y9283D01*
X8189Y9275D01*
X8221Y9265D01*
X8252Y9252D01*
X8283Y9236D01*
X8312Y9219D01*
X8339Y9199D01*
X8365Y9177D01*
X8389Y9152D01*
X8411Y9127D01*
X8431Y9099D01*
X8449Y9070D01*
X8464Y9040D01*
X8477Y9008D01*
X8488Y8976D01*
X8496Y8943D01*
X8501Y8909D01*
X8504Y8875D01*
X8504Y8841D01*
X8504Y967D02*
X8501Y933D01*
X8496Y900D01*
X8488Y867D01*
X8477Y834D01*
X8464Y803D01*
X8449Y772D01*
X8431Y743D01*
X8411Y716D01*
X8389Y690D01*
X8365Y666D01*
X8339Y644D01*
X8312Y624D01*
X8283Y606D01*
X8252Y591D01*
X8221Y578D01*
X8189Y567D01*
X8155Y559D01*
X8122Y554D01*
X8088Y551D01*
X8054Y551D01*
X8020Y554D01*
X7986Y559D01*
X7953Y567D01*
X7921Y578D01*
X7889Y591D01*
X7859Y606D01*
X7830Y624D01*
X7803Y644D01*
X7777Y666D01*
X7753Y690D01*
X7731Y716D01*
X7711Y743D01*
X7693Y772D01*
X7677Y803D01*
X7664Y834D01*
X7654Y867D01*
X7646Y900D01*
X7640Y933D01*
X7638Y967D01*
X7638Y1001D01*
X7640Y1035D01*
X7646Y1069D01*
X7654Y1102D01*
X7664Y1134D01*
X7677Y1166D01*
X7693Y1196D01*
X7711Y1225D01*
X7731Y1253D01*
X7753Y1278D01*
X7777Y1303D01*
X7803Y1325D01*
X7830Y1345D01*
X7859Y1362D01*
X7889Y1378D01*
X7921Y1391D01*
X7953Y1401D01*
X7986Y1409D01*
X8020Y1415D01*
X8054Y1417D01*
X8088Y1417D01*
X8122Y1415D01*
X8155Y1409D01*
X8189Y1401D01*
X8221Y1391D01*
X8252Y1378D01*
X8283Y1362D01*
X8312Y1345D01*
X8339Y1325D01*
X8365Y1303D01*
X8389Y1278D01*
X8411Y1253D01*
X8431Y1225D01*
X8449Y1196D01*
X8464Y1166D01*
X8477Y1134D01*
X8488Y1102D01*
X8496Y1069D01*
X8501Y1035D01*
X8504Y1001D01*
X8504Y967D01*
X1417Y967D02*
X1415Y933D01*
X1409Y900D01*
X1401Y867D01*
X1391Y834D01*
X1378Y803D01*
X1362Y772D01*
X1345Y743D01*
X1325Y716D01*
X1303Y690D01*
X1278Y666D01*
X1253Y644D01*
X1225Y624D01*
X1196Y606D01*
X1166Y591D01*
X1134Y578D01*
X1102Y567D01*
X1069Y559D01*
X1035Y554D01*
X1001Y551D01*
X967Y551D01*
X933Y554D01*
X900Y559D01*
X867Y567D01*
X834Y578D01*
X803Y591D01*
X772Y606D01*
X743Y624D01*
X716Y644D01*
X690Y666D01*
X666Y690D01*
X644Y716D01*
X624Y743D01*
X606Y772D01*
X591Y803D01*
X578Y834D01*
X567Y867D01*
X559Y900D01*
X554Y933D01*
X551Y967D01*
X551Y1001D01*
X554Y1035D01*
X559Y1069D01*
X567Y1102D01*
X578Y1134D01*
X591Y1166D01*
X606Y1196D01*
X624Y1225D01*
X644Y1253D01*
X666Y1278D01*
X690Y1303D01*
X716Y1325D01*
X743Y1345D01*
X772Y1362D01*
X803Y1378D01*
X834Y1391D01*
X867Y1401D01*
X900Y1409D01*
X933Y1415D01*
X967Y1417D01*
X1001Y1417D01*
X1035Y1415D01*
X1069Y1409D01*
X1102Y1401D01*
X1134Y1391D01*
X1166Y1378D01*
X1196Y1362D01*
X1225Y1345D01*
X1253Y1325D01*
X1278Y1303D01*
X1303Y1278D01*
X1325Y1253D01*
X1345Y1225D01*
X1362Y1196D01*
X1378Y1166D01*
X1391Y1134D01*
X1401Y1102D01*
X1409Y1069D01*
X1415Y1035D01*
X1417Y1001D01*
X1417Y967D01*
X1417Y8841D02*
X1415Y8807D01*
X1409Y8774D01*
X1401Y8741D01*
X1391Y8708D01*
X1378Y8677D01*
X1362Y8646D01*
X1345Y8617D01*
X1325Y8590D01*
X1303Y8564D01*
X1278Y8540D01*
X1253Y8518D01*
X1225Y8498D01*
X1196Y8480D01*
X1166Y8465D01*
X1134Y8452D01*
X1102Y8441D01*
X1069Y8433D01*
X1035Y8428D01*
X1001Y8425D01*
X967Y8425D01*
X933Y8428D01*
X900Y8433D01*
X867Y8441D01*
X834Y8452D01*
X803Y8465D01*
X772Y8480D01*
X743Y8498D01*
X716Y8518D01*
X690Y8540D01*
X666Y8564D01*
X644Y8590D01*
X624Y8617D01*
X606Y8646D01*
X591Y8677D01*
X578Y8708D01*
X567Y8741D01*
X559Y8774D01*
X554Y8807D01*
X551Y8841D01*
X551Y8875D01*
X554Y8909D01*
X559Y8943D01*
X567Y8976D01*
X578Y9008D01*
X591Y9040D01*
X606Y9070D01*
X624Y9099D01*
X644Y9127D01*
X666Y9152D01*
X690Y9177D01*
X716Y9199D01*
X743Y9219D01*
X772Y9236D01*
X803Y9252D01*
X834Y9265D01*
X867Y9275D01*
X900Y9283D01*
X933Y9289D01*
X967Y9291D01*
X1001Y9291D01*
X1035Y9289D01*
X1069Y9283D01*
X1102Y9275D01*
X1134Y9265D01*
X1166Y9252D01*
X1196Y9236D01*
X1225Y9219D01*
X1253Y9199D01*
X1278Y9177D01*
X1303Y9152D01*
X1325Y9127D01*
X1345Y9099D01*
X1362Y9070D01*
X1378Y9040D01*
X1391Y9008D01*
X1401Y8976D01*
X1409Y8943D01*
X1415Y8909D01*
X1417Y8875D01*
X1417Y8841D01*
X8504Y8841D02*
X8501Y8807D01*
X8496Y8774D01*
X8488Y8741D01*
X8477Y8708D01*
X8464Y8677D01*
X8449Y8646D01*
X8431Y8617D01*
X8411Y8590D01*
X8389Y8564D01*
X8365Y8540D01*
X8339Y8518D01*
X8312Y8498D01*
X8283Y8480D01*
X8252Y8465D01*
X8221Y8452D01*
X8189Y8441D01*
X8155Y8433D01*
X8122Y8428D01*
X8088Y8425D01*
X8054Y8425D01*
X8020Y8428D01*
X7986Y8433D01*
X7953Y8441D01*
X7921Y8452D01*
X7889Y8465D01*
X7859Y8480D01*
X7830Y8498D01*
X7803Y8518D01*
X7777Y8540D01*
X7753Y8564D01*
X7731Y8590D01*
X7711Y8617D01*
X7693Y8646D01*
X7677Y8677D01*
X7664Y8708D01*
X7654Y8741D01*
X7646Y8774D01*
X7640Y8807D01*
X7638Y8841D01*
X7638Y8875D01*
X7640Y8909D01*
X7646Y8943D01*
X7654Y8976D01*
X7664Y9008D01*
X7677Y9040D01*
X7693Y9070D01*
X7711Y9099D01*
X7731Y9127D01*
X7753Y9152D01*
X7777Y9177D01*
X7803Y9199D01*
X7830Y9219D01*
X7859Y9236D01*
X7889Y9252D01*
X7921Y9265D01*
X7953Y9275D01*
X7986Y9283D01*
X8020Y9289D01*
X8054Y9291D01*
X8088Y9291D01*
X8122Y9289D01*
X8155Y9283D01*
X8189Y9275D01*
X8221Y9265D01*
X8252Y9252D01*
X8283Y9236D01*
X8312Y9219D01*
X8339Y9199D01*
X8365Y9177D01*
X8389Y9152D01*
X8411Y9127D01*
X8431Y9099D01*
X8449Y9070D01*
X8464Y9040D01*
X8477Y9008D01*
X8488Y8976D01*
X8496Y8943D01*
X8501Y8909D01*
X8504Y8875D01*
X8504Y8841D01*
M02*
