0
SECTION
2
HEADER
9
$INSUNITS
70
4
9
$ACADVER
1
AC1014
9
$HANDSEED
5
FFFF
0
ENDSEC
0
SECTION
2
TABLES
0
TABLE
2
VPORT
5
8
100
AcDbSymbolTable
0
ENDTAB
0
TABLE
2
LTYPE
5
5
100
AcDbSymbolTable
0
LTYPE
5
14
100
AcDbSymbolTableRecord
100
AcDbLinetypeTableRecord
2
BYBLOCK
70
0
0
LTYPE
5
15
100
AcDbSymbolTableRecord
100
AcDbLinetypeTableRecord
2
BYLAYER
70
0
0
ENDTAB
0
TABLE
2
LAYER
5
2
100
AcDbSymbolTable
70
2
0
LAYER
5
50
100
AcDbSymbolTableRecord
100
AcDbLayerTableRecord
2
0
70
0
6
CONTINUOUS
0
ENDTAB
0
TABLE
2
STYLE
5
3
100
AcDbSymbolTable
70
1
0
STYLE
5
11
100
AcDbSymbolTableRecord
100
AcDbTextStyleTableRecord
2
STANDARD
70
0
0
ENDTAB
0
TABLE
2
VIEW
5
6
100
AcDbSymbolTable
70
0
0
ENDTAB
0
TABLE
2
UCS
5
7
100
AcDbSymbolTable
70
0
0
ENDTAB
0
TABLE
2
APPID
5
9
100
AcDbSymbolTable
70
2
0
APPID
5
12
100
AcDbSymbolTableRecord
100
AcDbRegAppTableRecord
2
ACAD
70
0
0
ENDTAB
0
TABLE
2
DIMSTYLE
5
A
100
AcDbSymbolTable
70
1
0
ENDTAB
0
TABLE
2
BLOCK_RECORD
5
1
100
AcDbSymbolTable
70
1
0
BLOCK_RECORD
5
1F
100
AcDbSymbolTableRecord
100
AcDbBlockTableRecord
2
*MODEL_SPACE
0
BLOCK_RECORD
5
1B
100
AcDbSymbolTableRecord
100
AcDbBlockTableRecord
2
*PAPER_SPACE
0
ENDTAB
0
ENDSEC
0
SECTION
2
BLOCKS
0
BLOCK
5
20
100
AcDbEntity
100
AcDbBlockBegin
2
*MODEL_SPACE
0
ENDBLK
5
21
100
AcDbEntity
100
AcDbBlockEnd
0
BLOCK
5
1C
100
AcDbEntity
100
AcDbBlockBegin
2
*PAPER_SPACE
0
ENDBLK
5
1D
100
AcDbEntity
100
AcDbBlockEnd
0
ENDSEC
0
SECTION
2
ENTITIES
0
LWPOLYLINE
5
100
100
AcDbEntity
8
0
100
AcDbPolyline
90
40
70
1
43
0.0
10
1.9441267936464232e-17
20
8.5725000000000016
42
-0.99999999999999989
10
-1.9441267936464232e-17
20
9.2075000000000014
10
1.9441267936464232e-17
20
9.8425000000000011
42
-0.99999999999999989
10
-1.9441267936464232e-17
20
10.477499999999999
10
1.8369701987210301e-17
20
11.129999999999999
42
-0.99999999999999989
10
-1.8369701987210294e-17
20
11.73
10
0
20
13.5
10
-13.5
20
13.5
10
-13.5
20
11.747499999999999
42
-0.99999999999999989
10
-13.5
20
11.112500000000001
10
-13.5
20
10.477500000000003
42
-0.99999999999999989
10
-13.5
20
9.8424999999999994
10
-13.5
20
9.2075000000000014
42
-0.99999999999999989
10
-13.5
20
8.5725000000000016
10
-13.5
20
7.9375000000000009
42
-0.99999999999999989
10
-13.5
20
7.3024999999999993
10
-13.5
20
6.6675000000000004
42
-0.99999999999999989
10
-13.5
20
6.0324999999999998
10
-13.5
20
5.3974999999999991
42
-0.99999999999999989
10
-13.5
20
4.7625000000000002
10
-13.5
20
4.1275000000000004
42
-0.99999999999999989
10
-13.5
20
3.4925000000000002
10
-13.5
20
2.8574999999999999
42
-0.99999999999999989
10
-13.5
20
2.2225000000000001
10
-13.5
20
1.5874999999999999
42
-0.99999999999999989
10
-13.5
20
0.95250000000000001
10
-13.5
20
0
10
0
20
0
10
1.9441267936464232e-17
20
0.95250000000000001
42
-0.99999999999999989
10
-1.9441267936464232e-17
20
1.5874999999999999
10
1.9441267936464232e-17
20
2.2225000000000001
42
-0.99999999999999989
10
-1.9441267936464232e-17
20
2.8574999999999999
10
1.9441267936464232e-17
20
3.4925000000000002
42
-0.99999999999999989
10
-1.9441267936464232e-17
20
4.1275000000000004
10
1.9441267936464232e-17
20
4.7625000000000011
42
-0.99999999999999989
10
-1.9441267936464232e-17
20
5.3974999999999991
10
1.9441267936464232e-17
20
6.0325000000000006
42
-0.99999999999999989
10
-1.9441267936464232e-17
20
6.6674999999999995
10
1.9441267936464232e-17
20
7.3025000000000002
42
-0.99999999999999989
10
-1.9441267936464232e-17
20
7.9375
0
CIRCLE
5
101
100
AcDbEntity
8
0
100
AcDbCircle
10
-9.5500000000000007
20
12.859999999999999
30
0
40
0.099999999999999395
0
CIRCLE
5
102
100
AcDbEntity
8
0
100
AcDbCircle
10
-11.550000000000001
20
12.859999999999999
30
0
40
0.099999999999999395
0
CIRCLE
5
103
100
AcDbEntity
8
0
100
AcDbCircle
10
-10.550000000000001
20
12.859999999999999
30
0
40
0.099999999999999395
0
LWPOLYLINE
5
104
100
AcDbEntity
8
0
100
AcDbPolyline
90
40
70
1
43
0.0
10
-6.9388939039072284e-17
20
8.5725000000000016
42
-0.99999999999999989
10
0
20
9.2075000000000014
10
-3.4000580129145419e-15
20
9.8425000000000011
42
-0.99999999999999989
10
0
20
10.477499999999999
10
-1.6653345369377348e-15
20
11.129999999999999
42
-0.99999999999999989
10
0
20
11.73
10
0
20
13.5
10
-13.5
20
13.5
10
-13.500000000000005
20
11.747499999999999
42
-0.99999999999999989
10
-13.5
20
11.112500000000001
10
-13.500000000000005
20
10.477499999999997
42
-0.99999999999999989
10
-13.5
20
9.8424999999999994
10
-13.500000000000005
20
9.2075000000000014
42
-0.99999999999999989
10
-13.5
20
8.5725000000000016
10
-13.500000000000005
20
7.9375000000000009
42
-0.99999999999999989
10
-13.5
20
7.3024999999999993
10
-13.500000000000005
20
6.6675000000000004
42
-0.99999999999999989
10
-13.5
20
6.0324999999999998
10
-13.500000000000005
20
5.3975000000000017
42
-0.99999999999999989
10
-13.5
20
4.7625000000000002
10
-13.500000000000005
20
4.1275000000000004
42
-0.99999999999999989
10
-13.5
20
3.4925000000000002
10
-13.500000000000005
20
2.8574999999999999
42
-0.99999999999999989
10
-13.5
20
2.2225000000000001
10
-13.500000000000005
20
1.5874999999999999
42
-0.99999999999999989
10
-13.5
20
0.95250000000000001
10
-13.5
20
0
10
0
20
0
10
-6.9388939039072284e-17
20
0.95250000000000001
42
-0.99999999999999989
10
0
20
1.5874999999999999
10
-3.4694469519536142e-16
20
2.2225000000000001
42
-0.99999999999999989
10
0
20
2.8574999999999999
10
-6.2450045135165055e-16
20
3.4925000000000002
42
-0.99999999999999989
10
0
20
4.1275000000000004
10
-9.0205620750793969e-16
20
4.7625000000000011
42
-0.99999999999999989
10
0
20
5.3974999999999991
10
-1.1796119636642288e-15
20
6.0325000000000006
42
-0.99999999999999989
10
0
20
6.6674999999999995
10
-1.1796119636642288e-15
20
7.3025000000000002
42
-0.99999999999999989
10
0
20
7.9375
0
CIRCLE
5
105
100
AcDbEntity
8
0
100
AcDbCircle
10
-9.5500000000000007
20
12.859999999999999
30
0
40
0.099999999999999395
0
CIRCLE
5
106
100
AcDbEntity
8
0
100
AcDbCircle
10
-11.550000000000001
20
12.859999999999999
30
0
40
0.099999999999999395
0
CIRCLE
5
107
100
AcDbEntity
8
0
100
AcDbCircle
10
-10.550000000000001
20
12.859999999999999
30
0
40
0.099999999999999395
0
LWPOLYLINE
5
108
100
AcDbEntity
8
0
100
AcDbPolyline
90
72
70
1
43
0.0
10
-7.6299999999999013
20
8.474999999996534
10
-8.1999999999999993
20
8.474999999996534
10
-8.1999999999999993
20
8.8149996338255434
10
-7.6299999999999013
20
8.8149996338255505
10
-7.6299999999999013
20
9.4257106781153954
10
-7.4507106781186749
20
9.6049999999965134
10
-6.0492893218812904
20
9.6049999999965134
10
-5.8699999999999974
20
9.4257106781153901
10
-5.8699999999999886
20
8.8149996338255434
10
-5.3000000000000025
20
8.8149996338255345
10
-5.2999999999999714
20
8.4749999999965144
10
-5.8699999999999619
20
8.474999999996518
10
-5.8699999999999619
20
8.41499963382552
10
-5.3000000000000025
20
8.41499963382552
10
-5.2999999999999714
20
8.0749999999965123
10
-5.8699999999999797
20
8.0749999999965105
10
-5.8699999999999797
20
8.0149996338255196
10
-5.3000000000000025
20
8.0149996338255196
10
-5.2999999999999714
20
7.6749999999965137
10
-5.8699999999999841
20
7.6749999999965146
10
-5.8699999999999841
20
7.6149996338255201
10
-5.3000000000000025
20
7.6149996338255201
10
-5.2999999999999714
20
7.2749999999965143
10
-5.8699999999999886
20
7.2749999999965134
10
-5.8699999999999886
20
7.2149996338255198
10
-5.3000000000000025
20
7.2149996338255198
10
-5.2999999999999714
20
6.8749999999965139
10
-5.869999999999993
20
6.8749999999965139
10
-5.869999999999993
20
6.8149996338255194
10
-5.3000000000000025
20
6.8149996338255203
10
-5.2999999999999714
20
6.4749999999965109
10
-5.869999999999993
20
6.4749999999965135
10
-5.869999999999993
20
6.41499963382552
10
-5.3000000000000025
20
6.41499963382552
10
-5.2999999999999714
20
6.0749999999965105
10
-5.8700000000000019
20
6.0749999999965141
10
-5.8700000000000019
20
6.0149996338255196
10
-5.3000000000000025
20
6.0149996338255196
10
-5.3000000000000025
20
5.6750000000002574
10
-5.8700000000000019
20
5.6749999999983807
10
-5.8699999999999219
20
5.1242893218864243
10
-6.0492893218812993
20
4.9450000000034802
10
-7.4507106781186971
20
4.9450000000034864
10
-7.6300000000000168
20
5.1242893218863799
10
-7.6299999999999191
20
5.6749999999983807
10
-8.1999999999999993
20
5.6750000000002583
10
-8.1999999999999993
20
6.0149996338255027
10
-7.6299999999999013
20
6.0149996338255018
10
-7.6299999999999013
20
6.0749999999965301
10
-8.1999999999999993
20
6.0749999999965301
10
-8.1999999999999993
20
6.4149996338255182
10
-7.6300000000000034
20
6.4149996338255182
10
-7.6300000000000034
20
6.4749999999965304
10
-8.1999999999999993
20
6.4749999999965304
10
-8.1999999999999993
20
6.8149996338255132
10
-7.6300000000000034
20
6.8149996338255132
10
-7.6300000000000034
20
6.8749999999965308
10
-8.1999999999999993
20
6.8749999999965308
10
-8.1999999999999993
20
7.2149996338255029
10
-7.6299999999999013
20
7.2149996338255029
10
-7.6299999999999013
20
7.2749999999965294
10
-8.1999999999999993
20
7.2749999999965311
10
-8.1999999999999993
20
7.6149996338255033
10
-7.6299999999999013
20
7.6149996338255024
10
-7.6299999999999013
20
7.6749999999965297
10
-8.1999999999999993
20
7.6749999999965297
10
-8.1999999999999993
20
8.0149996338255018
10
-7.6299999999999013
20
8.0149996338255018
10
-7.6299999999999013
20
8.0749999999965265
10
-8.1999999999999993
20
8.0749999999965265
10
-8.1999999999999993
20
8.4149996338255022
10
-7.6299999999999013
20
8.4149996338255022
0
LWPOLYLINE
5
109
100
AcDbEntity
8
0
100
AcDbPolyline
90
4
70
1
43
0.0
10
-6.0700000000000509
20
4.9950000000045023
10
-6.0699999999999799
20
9.5549999999965038
10
-6.2599668554888011
20
9.5549999999965038
10
-6.2599668554888011
20
4.9950000000045023
0
LWPOLYLINE
5
110
100
AcDbEntity
8
0
100
AcDbPolyline
90
4
70
1
43
0.0
10
-7.4299999999998567
20
9.5549999999965038
10
-7.4299999999998256
20
4.9950000000045023
10
-7.2400331445110977
20
4.9950000000045023
10
-7.2400331445110977
20
9.5549999999965038
0
LWPOLYLINE
5
111
100
AcDbEntity
8
0
100
AcDbPolyline
90
10
70
1
43
0.0
10
-7.8299999999998438
20
8.9649996338255171
10
-8.1999999999999993
20
8.9649996338255189
10
-8.1999999999999993
20
10.074999999996512
10
-5.3000000000000025
20
10.074999999996512
10
-5.3000000000000025
20
8.9649996338255118
10
-5.6700000000000417
20
8.9649996338255118
10
-5.6700000000000506
20
9.5085533905900448
10
-5.9664466094067548
20
9.804999999996463
10
-7.5335533905932373
20
9.8049999999964612
10
-7.8299999999998482
20
9.508553390590027
0
LWPOLYLINE
5
112
100
AcDbEntity
8
0
100
AcDbPolyline
90
10
70
1
43
0.0
10
-7.8299999999998482
20
5.5850003661765086
10
-7.8299999999998482
20
5.0414466094123647
10
-7.533553390593859
20
4.7450000000035306
10
-5.9664466094066659
20
4.7450000000035306
10
-5.6700000000000328
20
5.0414466094101975
10
-5.6700000000000195
20
5.585000366176514
10
-5.3000000000000025
20
5.5850003661765113
10
-5.3000000000000025
20
4.4750000000034929
10
-8.1999999999999496
20
4.4750000000034937
10
-8.1999999999999282
20
5.5850003661765122
0
LWPOLYLINE
5
113
100
AcDbEntity
8
0
100
AcDbPolyline
90
4
70
1
43
0.0
10
-13.5
20
0
10
0
20
0
10
0
20
13.5
10
-13.5
20
13.5
0
LWPOLYLINE
5
114
100
AcDbEntity
8
0
100
AcDbPolyline
90
4
70
1
43
0.0
10
-4.7500710082598738
20
9.8424999999999994
10
-13.5
20
9.8424999999999994
10
-13.5
20
13.5
10
-4.7500710082598738
20
13.5
0
LWPOLYLINE
5
115
100
AcDbEntity
8
0
100
AcDbPolyline
90
4
70
1
43
0.0
10
0.24999999999999911
20
13.75
10
-13.75
20
13.75
10
-13.75
20
-0.25
10
0.25
20
-0.24999999999999911
0
ENDSEC
0
SECTION
2
OBJECTS
0
DICTIONARY
5
C
100
AcDbDictionary
3
ACAD_GROUP
350
D
3
ACAD_MLINESTYLE
350
17
0
DICTIONARY
5
D
100
AcDbDictionary
0
DICTIONARY
5
1A
330
C
100
AcDbDictionary
0
DICTIONARY
5
17
100
AcDbDictionary
0
ENDSEC
0
EOF
