G75*
%MOIN*%
%OFA0B0*%
%FSLAX25Y25*%
%IPPOS*%
%LPD*%
%AMOC8*
5,1,8,0,0,1.08239X$1,22.5*
%
%ADD10C,0.01000*%
%ADD11C,0.01100*%
D10*
X0014820Y0008580D02*
X0014730Y0008670D01*
X0014642Y0008762D01*
X0014557Y0008857D01*
X0014475Y0008954D01*
X0014396Y0009054D01*
X0014320Y0009156D01*
X0014248Y0009261D01*
X0014179Y0009368D01*
X0014112Y0009476D01*
X0014050Y0009587D01*
X0013991Y0009700D01*
X0013935Y0009814D01*
X0013883Y0009930D01*
X0013834Y0010048D01*
X0013790Y0010167D01*
X0013748Y0010288D01*
X0013711Y0010409D01*
X0013677Y0010532D01*
X0013648Y0010656D01*
X0013622Y0010780D01*
X0013599Y0010906D01*
X0013581Y0011032D01*
X0013567Y0011158D01*
X0013556Y0011285D01*
X0013550Y0011412D01*
X0013547Y0011539D01*
X0013548Y0011667D01*
X0013554Y0011794D01*
X0013563Y0011921D01*
X0013576Y0012047D01*
X0013593Y0012174D01*
X0013614Y0012299D01*
X0013638Y0012424D01*
X0013667Y0012548D01*
X0013699Y0012671D01*
X0013735Y0012793D01*
X0013775Y0012914D01*
X0013819Y0013034D01*
X0013866Y0013152D01*
X0013917Y0013268D01*
X0013971Y0013383D01*
X0014029Y0013497D01*
X0014091Y0013608D01*
X0014156Y0013718D01*
X0014224Y0013825D01*
X0014295Y0013931D01*
X0014370Y0014034D01*
X0014448Y0014134D01*
X0014529Y0014232D01*
X0014613Y0014328D01*
X0014700Y0014421D01*
X0014789Y0014512D01*
X0014882Y0014599D01*
X0014977Y0014684D01*
X0015074Y0014765D01*
X0015175Y0014844D01*
X0015277Y0014920D01*
X0015382Y0014992D01*
X0015489Y0015061D01*
X0015598Y0015127D01*
X0015709Y0015189D01*
X0015822Y0015248D01*
X0015936Y0015303D01*
X0016052Y0015355D01*
X0016170Y0015403D01*
X0016290Y0015447D01*
X0016410Y0015488D01*
X0016532Y0015525D01*
X0016655Y0015559D01*
X0016779Y0015588D01*
X0016903Y0015614D01*
X0017029Y0015636D01*
X0017155Y0015653D01*
X0017281Y0015667D01*
X0017408Y0015678D01*
X0017535Y0015684D01*
X0017662Y0015686D01*
X0017790Y0015684D01*
X0017917Y0015679D01*
X0018044Y0015669D01*
X0018170Y0015656D01*
X0018296Y0015638D01*
X0018422Y0015617D01*
X0018547Y0015592D01*
X0018671Y0015563D01*
X0018794Y0015531D01*
X0018916Y0015494D01*
X0019036Y0015454D01*
X0019156Y0015410D01*
X0019274Y0015362D01*
X0019390Y0015311D01*
X0019505Y0015256D01*
X0019618Y0015198D01*
X0019730Y0015136D01*
X0019839Y0015071D01*
X0019946Y0015002D01*
X0020051Y0014931D01*
X0020154Y0014856D01*
X0020255Y0014778D01*
X0020353Y0014696D01*
X0020448Y0014612D01*
X0020541Y0014525D01*
X0020631Y0014435D01*
X0020718Y0014342D01*
X0020803Y0014247D01*
X0020884Y0014149D01*
X0020962Y0014049D01*
X0021037Y0013946D01*
X0021109Y0013841D01*
X0021178Y0013734D01*
X0021244Y0013625D01*
X0021305Y0013514D01*
X0021364Y0013401D01*
X0021419Y0013286D01*
X0021470Y0013170D01*
X0021518Y0013052D01*
X0021562Y0012932D01*
X0021603Y0012812D01*
X0021640Y0012690D01*
X0021673Y0012567D01*
X0021702Y0012443D01*
X0021727Y0012318D01*
X0021748Y0012193D01*
X0021766Y0012067D01*
X0021780Y0011940D01*
X0021780Y0012300D02*
X0021660Y0018060D01*
X0014820Y0008579D02*
X0015025Y0008387D01*
X0015235Y0008200D01*
X0015450Y0008019D01*
X0015669Y0007842D01*
X0015892Y0007671D01*
X0016119Y0007505D01*
X0016350Y0007344D01*
X0016585Y0007190D01*
X0016823Y0007040D01*
X0017065Y0006897D01*
X0017311Y0006760D01*
X0017560Y0006628D01*
X0017811Y0006503D01*
X0018066Y0006384D01*
X0018324Y0006270D01*
X0018584Y0006163D01*
X0018846Y0006063D01*
X0019111Y0005968D01*
X0019379Y0005881D01*
X0019648Y0005799D01*
X0019919Y0005724D01*
X0020192Y0005656D01*
X0020466Y0005594D01*
X0020742Y0005539D01*
X0021019Y0005490D01*
X0021297Y0005449D01*
X0021576Y0005414D01*
X0021856Y0005385D01*
X0022137Y0005364D01*
X0022417Y0005349D01*
X0022699Y0005341D01*
X0022980Y0005339D01*
X0022980Y0005340D02*
X0039300Y0005460D01*
X0039780Y0005460D02*
X0041340Y0005340D01*
X0044700Y0008941D02*
X0044805Y0008925D01*
X0044910Y0008905D01*
X0045014Y0008882D01*
X0045117Y0008855D01*
X0045219Y0008824D01*
X0045320Y0008789D01*
X0045420Y0008751D01*
X0045518Y0008709D01*
X0045614Y0008663D01*
X0045709Y0008614D01*
X0045802Y0008562D01*
X0045893Y0008506D01*
X0045981Y0008447D01*
X0046068Y0008384D01*
X0046152Y0008319D01*
X0046234Y0008250D01*
X0046313Y0008178D01*
X0046389Y0008104D01*
X0046463Y0008027D01*
X0046534Y0007947D01*
X0046601Y0007865D01*
X0046666Y0007780D01*
X0046728Y0007693D01*
X0046786Y0007604D01*
X0046841Y0007512D01*
X0046893Y0007419D01*
X0046941Y0007324D01*
X0046985Y0007227D01*
X0047026Y0007128D01*
X0047064Y0007029D01*
X0047098Y0006927D01*
X0047127Y0006825D01*
X0047154Y0006722D01*
X0047176Y0006617D01*
X0047195Y0006512D01*
X0047209Y0006407D01*
X0047220Y0006301D01*
X0047220Y0006300D02*
X0047225Y0006218D01*
X0047226Y0006135D01*
X0047223Y0006052D01*
X0047217Y0005970D01*
X0047207Y0005887D01*
X0047193Y0005806D01*
X0047175Y0005725D01*
X0047154Y0005645D01*
X0047128Y0005566D01*
X0047100Y0005489D01*
X0047068Y0005412D01*
X0047032Y0005338D01*
X0046993Y0005265D01*
X0046951Y0005194D01*
X0046905Y0005125D01*
X0046856Y0005058D01*
X0046805Y0004993D01*
X0046750Y0004931D01*
X0046693Y0004871D01*
X0046633Y0004814D01*
X0046570Y0004760D01*
X0046505Y0004709D01*
X0046437Y0004661D01*
X0046368Y0004616D01*
X0046296Y0004574D01*
X0046223Y0004536D01*
X0046148Y0004501D01*
X0046072Y0004469D01*
X0045994Y0004441D01*
X0045915Y0004417D01*
X0045835Y0004396D01*
X0045754Y0004379D01*
X0045672Y0004366D01*
X0045590Y0004357D01*
X0045507Y0004351D01*
X0045424Y0004349D01*
X0045342Y0004351D01*
X0045259Y0004357D01*
X0045177Y0004366D01*
X0045095Y0004379D01*
X0045014Y0004396D01*
X0044934Y0004417D01*
X0044855Y0004441D01*
X0044777Y0004469D01*
X0044700Y0004501D01*
X0044700Y0009059D02*
X0044533Y0009122D01*
X0044365Y0009180D01*
X0044195Y0009234D01*
X0044025Y0009284D01*
X0043853Y0009330D01*
X0043680Y0009372D01*
X0043506Y0009410D01*
X0043331Y0009444D01*
X0043156Y0009474D01*
X0042980Y0009500D01*
X0042803Y0009521D01*
X0042626Y0009538D01*
X0042448Y0009552D01*
X0042271Y0009560D01*
X0042093Y0009565D01*
X0041915Y0009566D01*
X0041737Y0009562D01*
X0041559Y0009554D01*
X0041381Y0009542D01*
X0041204Y0009526D01*
X0041027Y0009506D01*
X0040851Y0009481D01*
X0040675Y0009452D01*
X0040500Y0009419D01*
X0040500Y0009420D02*
X0039300Y0009180D01*
X0052020Y0014340D02*
X0052145Y0014100D01*
X0052264Y0013857D01*
X0052377Y0013612D01*
X0052484Y0013363D01*
X0052585Y0013112D01*
X0052680Y0012859D01*
X0052769Y0012604D01*
X0052852Y0012346D01*
X0052928Y0012087D01*
X0052998Y0011825D01*
X0053062Y0011563D01*
X0053120Y0011298D01*
X0053171Y0011033D01*
X0053215Y0010766D01*
X0053253Y0010498D01*
X0053285Y0010229D01*
X0053310Y0009960D01*
X0053328Y0009690D01*
X0053340Y0009420D01*
X0053460Y0009420D02*
X0055260Y0009420D01*
X0055500Y0010140D02*
X0057780Y0010020D01*
X0054900Y0011700D02*
X0054780Y0012660D01*
X0056820Y0005340D02*
X0056666Y0005272D01*
X0056510Y0005209D01*
X0056353Y0005150D01*
X0056194Y0005094D01*
X0056035Y0005042D01*
X0055873Y0004994D01*
X0055711Y0004949D01*
X0055548Y0004909D01*
X0055384Y0004872D01*
X0055219Y0004840D01*
X0055053Y0004811D01*
X0054887Y0004786D01*
X0054720Y0004766D01*
X0054553Y0004749D01*
X0054385Y0004736D01*
X0054217Y0004728D01*
X0054049Y0004723D01*
X0053881Y0004722D01*
X0053713Y0004726D01*
X0053545Y0004733D01*
X0053377Y0004744D01*
X0053209Y0004760D01*
X0053042Y0004779D01*
X0052876Y0004802D01*
X0052710Y0004830D01*
X0052545Y0004861D01*
X0052380Y0004896D01*
X0052217Y0004935D01*
X0052054Y0004978D01*
X0051893Y0005025D01*
X0051732Y0005076D01*
X0051573Y0005131D01*
X0051416Y0005189D01*
X0051259Y0005251D01*
X0051105Y0005317D01*
X0050951Y0005386D01*
X0050800Y0005460D01*
X0050320Y0005700D01*
X0050340Y0005700D02*
X0050275Y0005713D01*
X0050210Y0005730D01*
X0050146Y0005751D01*
X0050083Y0005774D01*
X0050022Y0005802D01*
X0049962Y0005832D01*
X0049904Y0005866D01*
X0049848Y0005903D01*
X0049794Y0005943D01*
X0049743Y0005985D01*
X0049693Y0006031D01*
X0049647Y0006079D01*
X0049603Y0006130D01*
X0049562Y0006183D01*
X0049523Y0006238D01*
X0049488Y0006295D01*
X0049456Y0006354D01*
X0049428Y0006414D01*
X0049402Y0006477D01*
X0049381Y0006540D01*
X0049380Y0006540D02*
X0046500Y0012180D01*
X0047700Y0009300D02*
X0046620Y0008580D01*
X0055260Y0009420D02*
X0055352Y0009422D01*
X0055445Y0009420D01*
X0055537Y0009414D01*
X0055629Y0009404D01*
X0055721Y0009390D01*
X0055812Y0009373D01*
X0055902Y0009351D01*
X0055991Y0009326D01*
X0056079Y0009297D01*
X0056166Y0009265D01*
X0056251Y0009228D01*
X0056335Y0009189D01*
X0056417Y0009145D01*
X0056497Y0009099D01*
X0056574Y0009049D01*
X0056650Y0008995D01*
X0056724Y0008939D01*
X0056795Y0008879D01*
X0056863Y0008817D01*
X0056929Y0008752D01*
X0056992Y0008684D01*
X0057052Y0008613D01*
X0057108Y0008540D01*
X0057162Y0008465D01*
X0057213Y0008387D01*
X0057260Y0008307D01*
X0057304Y0008226D01*
X0057344Y0008142D01*
X0057381Y0008057D01*
X0057414Y0007971D01*
X0057444Y0007883D01*
X0057470Y0007794D01*
X0057492Y0007704D01*
X0057510Y0007614D01*
X0057524Y0007522D01*
X0057535Y0007430D01*
X0057541Y0007338D01*
X0057544Y0007245D01*
X0057543Y0007152D01*
X0057538Y0007060D01*
X0057529Y0006968D01*
X0057516Y0006876D01*
X0057499Y0006785D01*
X0057478Y0006695D01*
X0057454Y0006605D01*
X0057426Y0006517D01*
X0057394Y0006430D01*
X0057358Y0006345D01*
X0057319Y0006261D01*
X0057277Y0006178D01*
X0057231Y0006098D01*
X0057181Y0006020D01*
X0057129Y0005943D01*
X0057073Y0005870D01*
X0057014Y0005798D01*
X0056952Y0005729D01*
X0056887Y0005663D01*
X0056820Y0005599D01*
X0057420Y0005340D02*
X0059220Y0005460D01*
X0059340Y0005460D02*
X0059416Y0005528D01*
X0059489Y0005598D01*
X0059560Y0005671D01*
X0059628Y0005747D01*
X0059692Y0005825D01*
X0059754Y0005906D01*
X0059812Y0005989D01*
X0059867Y0006074D01*
X0059919Y0006162D01*
X0059967Y0006251D01*
X0060012Y0006342D01*
X0060053Y0006435D01*
X0060090Y0006530D01*
X0060123Y0006625D01*
X0060153Y0006722D01*
X0060179Y0006821D01*
X0060201Y0006920D01*
X0060220Y0007020D01*
X0060234Y0007120D01*
X0060244Y0007221D01*
X0060251Y0007323D01*
X0060253Y0007424D01*
X0060251Y0007526D01*
X0060246Y0007627D01*
X0060236Y0007728D01*
X0060223Y0007829D01*
X0060205Y0007929D01*
X0060184Y0008028D01*
X0060159Y0008127D01*
X0060130Y0008224D01*
X0060097Y0008320D01*
X0060060Y0008415D01*
X0060020Y0008508D01*
X0059976Y0008599D01*
X0059928Y0008689D01*
X0059877Y0008777D01*
X0059823Y0008863D01*
X0059765Y0008946D01*
X0059704Y0009028D01*
X0059640Y0009106D01*
X0059573Y0009183D01*
X0059503Y0009256D01*
X0059430Y0009327D01*
X0059355Y0009395D01*
X0059277Y0009460D01*
X0059196Y0009521D01*
X0059113Y0009580D01*
X0059028Y0009635D01*
X0058940Y0009687D01*
X0058851Y0009735D01*
X0058760Y0009780D01*
X0058667Y0009821D01*
X0058572Y0009858D01*
X0058477Y0009892D01*
X0058380Y0009922D01*
X0058282Y0009948D01*
X0058182Y0009971D01*
X0058083Y0009989D01*
X0057982Y0010003D01*
X0057881Y0010014D01*
X0057780Y0010020D01*
X0052020Y0014340D02*
X0051180Y0016020D01*
X0052980Y0011940D02*
X0053164Y0011995D01*
X0053347Y0012054D01*
X0053528Y0012118D01*
X0053708Y0012186D01*
X0053885Y0012258D01*
X0054062Y0012334D01*
X0054236Y0012415D01*
X0054408Y0012500D01*
X0054578Y0012589D01*
X0054746Y0012682D01*
X0054912Y0012779D01*
X0055075Y0012880D01*
X0055236Y0012986D01*
X0055394Y0013094D01*
X0055549Y0013207D01*
X0055702Y0013324D01*
X0055852Y0013444D01*
X0055999Y0013567D01*
X0056143Y0013694D01*
X0056284Y0013825D01*
X0056421Y0013959D01*
X0056556Y0014096D01*
X0056686Y0014237D01*
X0056814Y0014380D01*
X0056938Y0014527D01*
X0057059Y0014676D01*
X0057175Y0014829D01*
X0057288Y0014984D01*
X0057398Y0015142D01*
X0057503Y0015302D01*
X0057605Y0015465D01*
X0057702Y0015631D01*
X0057796Y0015798D01*
X0057885Y0015968D01*
X0057971Y0016140D01*
X0058052Y0016314D01*
X0058129Y0016490D01*
X0058202Y0016668D01*
X0058270Y0016847D01*
X0058334Y0017028D01*
X0058394Y0017211D01*
X0058449Y0017395D01*
X0058500Y0017580D01*
X0058860Y0018900D01*
X0061740Y0020100D02*
X0062340Y0020100D01*
X0064140Y0021900D02*
X0064980Y0021660D01*
X0064980Y0021661D02*
X0065073Y0021636D01*
X0065168Y0021615D01*
X0065263Y0021598D01*
X0065359Y0021585D01*
X0065455Y0021576D01*
X0065551Y0021571D01*
X0065648Y0021570D01*
X0065744Y0021573D01*
X0065841Y0021580D01*
X0065937Y0021590D01*
X0066032Y0021605D01*
X0066127Y0021624D01*
X0066221Y0021646D01*
X0066314Y0021672D01*
X0066406Y0021702D01*
X0066496Y0021736D01*
X0066585Y0021774D01*
X0066672Y0021815D01*
X0066758Y0021859D01*
X0066842Y0021908D01*
X0066924Y0021959D01*
X0067003Y0022014D01*
X0067080Y0022072D01*
X0067155Y0022133D01*
X0067227Y0022197D01*
X0067297Y0022264D01*
X0067363Y0022334D01*
X0067427Y0022407D01*
X0067488Y0022482D01*
X0067546Y0022559D01*
X0067600Y0022639D01*
X0067651Y0022721D01*
X0067699Y0022805D01*
X0067743Y0022891D01*
X0067783Y0022979D01*
X0067820Y0023068D01*
X0067854Y0023158D01*
X0067883Y0023250D01*
X0067909Y0023343D01*
X0067931Y0023438D01*
X0067949Y0023532D01*
X0067963Y0023628D01*
X0067973Y0023724D01*
X0067980Y0023820D01*
X0067500Y0024060D02*
X0067465Y0024073D01*
X0067432Y0024090D01*
X0067401Y0024109D01*
X0067372Y0024132D01*
X0067345Y0024158D01*
X0067321Y0024187D01*
X0067300Y0024217D01*
X0067283Y0024250D01*
X0067269Y0024285D01*
X0067259Y0024320D01*
X0067252Y0024357D01*
X0067249Y0024394D01*
X0067250Y0024431D01*
X0067255Y0024467D01*
X0067263Y0024503D01*
X0067275Y0024538D01*
X0067291Y0024572D01*
X0067310Y0024604D01*
X0067332Y0024634D01*
X0067358Y0024661D01*
X0067386Y0024685D01*
X0067416Y0024707D01*
X0067448Y0024725D01*
X0067482Y0024740D01*
X0067517Y0024751D01*
X0067554Y0024759D01*
X0067590Y0024763D01*
X0067628Y0024763D01*
X0067664Y0024759D01*
X0067701Y0024751D01*
X0067736Y0024740D01*
X0067770Y0024725D01*
X0067802Y0024707D01*
X0067832Y0024685D01*
X0067860Y0024661D01*
X0068220Y0025139D02*
X0068252Y0025099D01*
X0068280Y0025056D01*
X0068305Y0025012D01*
X0068327Y0024965D01*
X0068345Y0024917D01*
X0068359Y0024868D01*
X0068370Y0024818D01*
X0068377Y0024767D01*
X0068380Y0024716D01*
X0068379Y0024665D01*
X0068374Y0024614D01*
X0068365Y0024563D01*
X0068353Y0024514D01*
X0068337Y0024465D01*
X0068317Y0024418D01*
X0068293Y0024372D01*
X0068267Y0024329D01*
X0068237Y0024287D01*
X0068204Y0024248D01*
X0068168Y0024211D01*
X0068129Y0024178D01*
X0068088Y0024147D01*
X0068045Y0024120D01*
X0067999Y0024096D01*
X0067952Y0024075D01*
X0067904Y0024058D01*
X0067855Y0024045D01*
X0067804Y0024035D01*
X0067753Y0024030D01*
X0067702Y0024028D01*
X0067651Y0024030D01*
X0067600Y0024036D01*
X0067550Y0024046D01*
X0067500Y0024060D01*
X0065340Y0021180D02*
X0065235Y0021095D01*
X0065126Y0021013D01*
X0065016Y0020935D01*
X0064903Y0020859D01*
X0064789Y0020787D01*
X0064672Y0020718D01*
X0064553Y0020653D01*
X0064433Y0020591D01*
X0064311Y0020532D01*
X0064187Y0020477D01*
X0064061Y0020426D01*
X0063934Y0020378D01*
X0063806Y0020334D01*
X0063677Y0020294D01*
X0063546Y0020257D01*
X0063415Y0020224D01*
X0063282Y0020195D01*
X0063149Y0020170D01*
X0063015Y0020149D01*
X0062881Y0020131D01*
X0062746Y0020118D01*
X0062611Y0020108D01*
X0062476Y0020102D01*
X0062340Y0020100D01*
X0061739Y0020100D02*
X0061629Y0020014D01*
X0061517Y0019931D01*
X0061402Y0019851D01*
X0061285Y0019774D01*
X0061166Y0019700D01*
X0061045Y0019630D01*
X0060922Y0019563D01*
X0060798Y0019499D01*
X0060671Y0019439D01*
X0060544Y0019382D01*
X0060414Y0019329D01*
X0060283Y0019280D01*
X0060151Y0019234D01*
X0060018Y0019191D01*
X0059883Y0019153D01*
X0059748Y0019118D01*
X0059611Y0019086D01*
X0059474Y0019059D01*
X0059336Y0019035D01*
X0059198Y0019015D01*
X0059059Y0018999D01*
X0058920Y0018987D01*
X0058780Y0018979D01*
X0058640Y0018974D01*
X0058500Y0018973D01*
X0058360Y0018976D01*
X0058220Y0018983D01*
X0058081Y0018994D01*
X0057942Y0019008D01*
X0057803Y0019027D01*
X0057665Y0019049D01*
X0057528Y0019075D01*
X0057391Y0019105D01*
X0057255Y0019138D01*
X0057120Y0019175D01*
X0056986Y0019216D01*
X0056854Y0019261D01*
X0056722Y0019309D01*
X0056592Y0019361D01*
X0056464Y0019416D01*
X0056337Y0019475D01*
X0056211Y0019537D01*
X0056088Y0019603D01*
X0055966Y0019672D01*
X0055846Y0019744D01*
X0055729Y0019820D01*
X0055613Y0019898D01*
X0055500Y0019980D01*
X0054660Y0020580D01*
X0063780Y0031741D02*
X0063569Y0031933D01*
X0063352Y0032121D01*
X0063131Y0032303D01*
X0062906Y0032480D01*
X0062676Y0032651D01*
X0062442Y0032817D01*
X0062204Y0032976D01*
X0061962Y0033130D01*
X0061717Y0033278D01*
X0061468Y0033420D01*
X0061216Y0033555D01*
X0060960Y0033685D01*
X0060702Y0033808D01*
X0060440Y0033924D01*
X0060175Y0034035D01*
X0059908Y0034138D01*
X0059639Y0034236D01*
X0059367Y0034326D01*
X0059093Y0034410D01*
X0058817Y0034487D01*
X0058540Y0034557D01*
X0058260Y0034621D01*
X0058260Y0034620D02*
X0056580Y0034980D01*
X0056580Y0035100D02*
X0056100Y0037500D01*
X0054660Y0036180D02*
X0055740Y0033660D01*
X0054540Y0032940D02*
X0051660Y0033780D01*
X0051660Y0035700D02*
X0052260Y0035700D01*
X0052260Y0035940D02*
X0051900Y0037140D01*
X0044220Y0042060D02*
X0043620Y0043020D01*
X0043141Y0046140D02*
X0043040Y0046165D01*
X0042938Y0046186D01*
X0042836Y0046203D01*
X0042733Y0046216D01*
X0042629Y0046225D01*
X0042526Y0046231D01*
X0042422Y0046232D01*
X0042318Y0046229D01*
X0042214Y0046223D01*
X0042111Y0046212D01*
X0042008Y0046198D01*
X0041906Y0046180D01*
X0041805Y0046158D01*
X0041704Y0046132D01*
X0041605Y0046102D01*
X0041507Y0046068D01*
X0041410Y0046031D01*
X0041314Y0045990D01*
X0041220Y0045946D01*
X0041128Y0045898D01*
X0041038Y0045846D01*
X0040950Y0045792D01*
X0040864Y0045733D01*
X0040780Y0045672D01*
X0040699Y0045608D01*
X0040620Y0045540D01*
X0046021Y0048180D02*
X0046024Y0048252D01*
X0046032Y0048323D01*
X0046044Y0048394D01*
X0046060Y0048464D01*
X0046079Y0048533D01*
X0046102Y0048601D01*
X0046128Y0048668D01*
X0046159Y0048733D01*
X0046192Y0048797D01*
X0046229Y0048858D01*
X0046270Y0048917D01*
X0046313Y0048975D01*
X0046360Y0049029D01*
X0046409Y0049081D01*
X0046461Y0049131D01*
X0046516Y0049177D01*
X0046573Y0049220D01*
X0046633Y0049261D01*
X0046694Y0049298D01*
X0046758Y0049331D01*
X0046823Y0049361D01*
X0046889Y0049388D01*
X0046957Y0049411D01*
X0047027Y0049430D01*
X0047097Y0049445D01*
X0047168Y0049457D01*
X0047239Y0049465D01*
X0047311Y0049469D01*
X0047382Y0049469D01*
X0047454Y0049465D01*
X0047525Y0049457D01*
X0047596Y0049445D01*
X0047666Y0049430D01*
X0047735Y0049411D01*
X0047803Y0049388D01*
X0047870Y0049361D01*
X0047935Y0049331D01*
X0047999Y0049297D01*
X0048060Y0049260D01*
X0046020Y0048180D02*
X0046018Y0048032D01*
X0046020Y0047884D01*
X0046025Y0047737D01*
X0046034Y0047589D01*
X0046047Y0047442D01*
X0046063Y0047295D01*
X0046084Y0047148D01*
X0046108Y0047002D01*
X0046135Y0046857D01*
X0046167Y0046712D01*
X0046202Y0046569D01*
X0046241Y0046426D01*
X0046283Y0046284D01*
X0046329Y0046144D01*
X0046379Y0046005D01*
X0046432Y0045867D01*
X0046489Y0045730D01*
X0046549Y0045595D01*
X0046612Y0045461D01*
X0046679Y0045329D01*
X0046750Y0045199D01*
X0046823Y0045071D01*
X0046900Y0044945D01*
X0046980Y0044820D01*
X0040620Y0045540D02*
X0040708Y0045166D01*
X0040806Y0044794D01*
X0040913Y0044424D01*
X0041029Y0044058D01*
X0041153Y0043694D01*
X0041286Y0043333D01*
X0041428Y0042976D01*
X0041579Y0042622D01*
X0041738Y0042272D01*
X0041906Y0041926D01*
X0042082Y0041584D01*
X0042266Y0041246D01*
X0042458Y0040913D01*
X0042658Y0040585D01*
X0042867Y0040261D01*
X0043082Y0039943D01*
X0043306Y0039630D01*
X0043537Y0039323D01*
X0043776Y0039021D01*
X0044021Y0038726D01*
X0044274Y0038436D01*
X0044534Y0038152D01*
X0044801Y0037875D01*
X0045074Y0037605D01*
X0045354Y0037341D01*
X0045640Y0037084D01*
X0045932Y0036834D01*
X0046230Y0036591D01*
X0046534Y0036355D01*
X0046843Y0036127D01*
X0047158Y0035906D01*
X0047479Y0035693D01*
X0047804Y0035488D01*
X0048134Y0035291D01*
X0048469Y0035102D01*
X0048808Y0034921D01*
X0049152Y0034749D01*
X0049500Y0034584D01*
X0049851Y0034428D01*
X0050206Y0034281D01*
X0050565Y0034143D01*
X0050927Y0034013D01*
X0051292Y0033892D01*
X0051660Y0033780D01*
X0051660Y0033540D02*
X0051574Y0033554D01*
X0051488Y0033563D01*
X0051401Y0033569D01*
X0051314Y0033571D01*
X0051227Y0033569D01*
X0051140Y0033563D01*
X0051054Y0033554D01*
X0050968Y0033540D01*
X0050883Y0033523D01*
X0050798Y0033502D01*
X0050715Y0033477D01*
X0050633Y0033448D01*
X0050552Y0033416D01*
X0050473Y0033380D01*
X0050396Y0033341D01*
X0050320Y0033298D01*
X0050246Y0033252D01*
X0050174Y0033203D01*
X0050105Y0033151D01*
X0050038Y0033095D01*
X0049974Y0033037D01*
X0049912Y0032976D01*
X0049853Y0032912D01*
X0049797Y0032845D01*
X0049744Y0032777D01*
X0049694Y0032705D01*
X0049647Y0032632D01*
X0049604Y0032557D01*
X0049564Y0032479D01*
X0049527Y0032401D01*
X0049494Y0032320D01*
X0049465Y0032238D01*
X0049439Y0032155D01*
X0049417Y0032071D01*
X0049399Y0031986D01*
X0049385Y0031900D01*
X0049374Y0031814D01*
X0049368Y0031727D01*
X0049365Y0031640D01*
X0049366Y0031554D01*
X0049371Y0031467D01*
X0049380Y0031380D01*
X0049500Y0030420D01*
X0051901Y0037140D02*
X0051839Y0037338D01*
X0051772Y0037535D01*
X0051700Y0037730D01*
X0051624Y0037923D01*
X0051543Y0038114D01*
X0051457Y0038303D01*
X0051367Y0038491D01*
X0051273Y0038676D01*
X0051174Y0038858D01*
X0051070Y0039038D01*
X0050962Y0039216D01*
X0050850Y0039391D01*
X0050734Y0039563D01*
X0050614Y0039732D01*
X0050489Y0039899D01*
X0050361Y0040062D01*
X0050229Y0040222D01*
X0050093Y0040379D01*
X0049953Y0040533D01*
X0049809Y0040683D01*
X0049662Y0040829D01*
X0049511Y0040972D01*
X0049357Y0041112D01*
X0049200Y0041247D01*
X0049039Y0041379D01*
X0048875Y0041507D01*
X0048709Y0041631D01*
X0048539Y0041750D01*
X0048366Y0041866D01*
X0048191Y0041977D01*
X0048013Y0042085D01*
X0047832Y0042187D01*
X0047650Y0042286D01*
X0047464Y0042380D01*
X0047277Y0042469D01*
X0047087Y0042554D01*
X0046896Y0042634D01*
X0046702Y0042710D01*
X0046507Y0042781D01*
X0046310Y0042847D01*
X0046111Y0042908D01*
X0045912Y0042965D01*
X0045710Y0043017D01*
X0045508Y0043064D01*
X0045304Y0043105D01*
X0045100Y0043142D01*
X0044895Y0043175D01*
X0044689Y0043202D01*
X0044482Y0043224D01*
X0044275Y0043241D01*
X0044068Y0043253D01*
X0043860Y0043260D01*
X0048060Y0049259D02*
X0048431Y0049016D01*
X0048795Y0048764D01*
X0049154Y0048502D01*
X0049506Y0048232D01*
X0049851Y0047954D01*
X0050189Y0047667D01*
X0050521Y0047372D01*
X0050845Y0047070D01*
X0051161Y0046759D01*
X0051470Y0046441D01*
X0051771Y0046115D01*
X0052064Y0045782D01*
X0052349Y0045442D01*
X0052625Y0045095D01*
X0052893Y0044741D01*
X0053152Y0044382D01*
X0053403Y0044015D01*
X0053644Y0043643D01*
X0053876Y0043265D01*
X0054099Y0042882D01*
X0054313Y0042493D01*
X0054517Y0042099D01*
X0054711Y0041701D01*
X0054895Y0041297D01*
X0055070Y0040889D01*
X0055235Y0040478D01*
X0055389Y0040062D01*
X0055533Y0039643D01*
X0055668Y0039220D01*
X0055791Y0038794D01*
X0055905Y0038365D01*
X0056007Y0037934D01*
X0056100Y0037500D01*
X0059580Y0029700D02*
X0060300Y0029460D01*
X0060060Y0029580D02*
X0060126Y0029576D01*
X0060191Y0029567D01*
X0060255Y0029555D01*
X0060319Y0029539D01*
X0060382Y0029519D01*
X0060443Y0029496D01*
X0060503Y0029469D01*
X0060561Y0029438D01*
X0060618Y0029404D01*
X0060672Y0029367D01*
X0060724Y0029326D01*
X0060773Y0029283D01*
X0060819Y0029236D01*
X0060863Y0029187D01*
X0060904Y0029136D01*
X0060942Y0029082D01*
X0060976Y0029026D01*
X0061007Y0028968D01*
X0061034Y0028908D01*
X0061058Y0028846D01*
X0061078Y0028784D01*
X0061095Y0028720D01*
X0061107Y0028656D01*
X0061116Y0028590D01*
X0061121Y0028525D01*
X0061122Y0028459D01*
X0061119Y0028393D01*
X0061112Y0028328D01*
X0061101Y0028263D01*
X0061086Y0028199D01*
X0061068Y0028136D01*
X0061046Y0028074D01*
X0061020Y0028014D01*
X0060991Y0027955D01*
X0060958Y0027898D01*
X0060922Y0027843D01*
X0060882Y0027790D01*
X0060840Y0027740D01*
X0060794Y0027692D01*
X0060746Y0027647D01*
X0060696Y0027605D01*
X0060643Y0027567D01*
X0060587Y0027531D01*
X0060530Y0027499D01*
X0060471Y0027470D01*
X0060410Y0027445D01*
X0060348Y0027423D01*
X0060285Y0027406D01*
X0060220Y0027392D01*
X0060155Y0027382D01*
X0060090Y0027375D01*
X0060024Y0027373D01*
X0059958Y0027375D01*
X0059893Y0027380D01*
X0059828Y0027390D01*
X0059763Y0027403D01*
X0059700Y0027420D01*
X0059725Y0028380D02*
X0059727Y0028409D01*
X0059733Y0028437D01*
X0059742Y0028464D01*
X0059755Y0028490D01*
X0059771Y0028513D01*
X0059791Y0028535D01*
X0059812Y0028553D01*
X0059837Y0028569D01*
X0059863Y0028581D01*
X0059890Y0028589D01*
X0059918Y0028594D01*
X0059947Y0028595D01*
X0059976Y0028592D01*
X0060004Y0028585D01*
X0060031Y0028575D01*
X0060056Y0028561D01*
X0060079Y0028544D01*
X0060099Y0028524D01*
X0060117Y0028502D01*
X0060132Y0028477D01*
X0060143Y0028451D01*
X0060151Y0028423D01*
X0060155Y0028394D01*
X0060155Y0028366D01*
X0060151Y0028337D01*
X0060143Y0028309D01*
X0060132Y0028283D01*
X0060117Y0028258D01*
X0060099Y0028236D01*
X0060079Y0028216D01*
X0060056Y0028199D01*
X0060031Y0028185D01*
X0060004Y0028175D01*
X0059976Y0028168D01*
X0059947Y0028165D01*
X0059918Y0028166D01*
X0059890Y0028171D01*
X0059863Y0028179D01*
X0059837Y0028191D01*
X0059812Y0028207D01*
X0059791Y0028225D01*
X0059771Y0028247D01*
X0059755Y0028270D01*
X0059742Y0028296D01*
X0059733Y0028323D01*
X0059727Y0028351D01*
X0059725Y0028380D01*
X0059580Y0029700D02*
X0059515Y0029720D01*
X0059448Y0029736D01*
X0059381Y0029748D01*
X0059313Y0029757D01*
X0059245Y0029762D01*
X0059177Y0029763D01*
X0059109Y0029760D01*
X0059041Y0029754D01*
X0058974Y0029744D01*
X0058907Y0029730D01*
X0058841Y0029713D01*
X0058776Y0029691D01*
X0058712Y0029667D01*
X0058650Y0029638D01*
X0058590Y0029607D01*
X0058531Y0029572D01*
X0058474Y0029534D01*
X0058420Y0029493D01*
X0058368Y0029449D01*
X0058318Y0029402D01*
X0058271Y0029352D01*
X0058227Y0029300D01*
X0058186Y0029246D01*
X0058148Y0029189D01*
X0058113Y0029130D01*
X0058082Y0029070D01*
X0058053Y0029008D01*
X0058029Y0028944D01*
X0058007Y0028879D01*
X0057990Y0028813D01*
X0057976Y0028746D01*
X0057966Y0028679D01*
X0057960Y0028611D01*
X0057957Y0028543D01*
X0057958Y0028475D01*
X0057963Y0028407D01*
X0057972Y0028339D01*
X0057984Y0028272D01*
X0058000Y0028205D01*
X0058020Y0028140D01*
X0058019Y0028139D02*
X0058039Y0028085D01*
X0058063Y0028032D01*
X0058090Y0027981D01*
X0058121Y0027931D01*
X0058154Y0027884D01*
X0058191Y0027839D01*
X0058231Y0027796D01*
X0058273Y0027757D01*
X0058318Y0027720D01*
X0058366Y0027686D01*
X0058415Y0027655D01*
X0058466Y0027628D01*
X0058519Y0027604D01*
X0058574Y0027584D01*
X0058630Y0027568D01*
X0058686Y0027555D01*
X0058744Y0027546D01*
X0058801Y0027540D01*
X0058860Y0027539D01*
X0058860Y0027540D02*
X0058954Y0027539D01*
X0059049Y0027535D01*
X0059143Y0027528D01*
X0059237Y0027518D01*
X0059331Y0027504D01*
X0059424Y0027488D01*
X0059517Y0027468D01*
X0059609Y0027446D01*
X0059700Y0027420D01*
X0063781Y0031740D02*
X0063976Y0031553D01*
X0064167Y0031362D01*
X0064353Y0031166D01*
X0064534Y0030966D01*
X0064711Y0030762D01*
X0064883Y0030553D01*
X0065049Y0030340D01*
X0065211Y0030124D01*
X0065367Y0029904D01*
X0065518Y0029680D01*
X0065664Y0029452D01*
X0065804Y0029221D01*
X0065939Y0028987D01*
X0066068Y0028750D01*
X0066191Y0028509D01*
X0066309Y0028266D01*
X0066421Y0028020D01*
X0066538Y0027762D01*
X0066662Y0027506D01*
X0066792Y0027253D01*
X0066927Y0027004D01*
X0067069Y0026758D01*
X0067217Y0026515D01*
X0067370Y0026276D01*
X0067529Y0026041D01*
X0067694Y0025810D01*
X0067864Y0025582D01*
X0068040Y0025359D01*
X0068221Y0025140D01*
X0054900Y0011700D02*
X0054929Y0011487D01*
X0054962Y0011274D01*
X0055000Y0011063D01*
X0055043Y0010852D01*
X0055090Y0010642D01*
X0055142Y0010434D01*
X0055199Y0010226D01*
X0055260Y0010020D01*
X0021660Y0018060D02*
X0021656Y0018521D01*
X0021663Y0018981D01*
X0021681Y0019442D01*
X0021710Y0019902D01*
X0021750Y0020361D01*
X0021801Y0020819D01*
X0021863Y0021276D01*
X0021936Y0021731D01*
X0022020Y0022184D01*
X0022115Y0022635D01*
X0022221Y0023084D01*
X0022337Y0023530D01*
X0022464Y0023973D01*
X0022601Y0024413D01*
X0022749Y0024850D01*
X0022908Y0025282D01*
X0023076Y0025711D01*
X0023255Y0026136D01*
X0023445Y0026556D01*
X0023644Y0026972D01*
X0023853Y0027383D01*
X0024072Y0027788D01*
X0024300Y0028189D01*
X0024538Y0028583D01*
X0024786Y0028972D01*
X0025042Y0029355D01*
X0025308Y0029732D01*
X0025583Y0030102D01*
X0025867Y0030465D01*
X0026159Y0030821D01*
X0026459Y0031171D01*
X0026768Y0031513D01*
X0027086Y0031847D01*
X0027411Y0032174D01*
X0027743Y0032493D01*
X0028084Y0032804D01*
X0028431Y0033107D01*
X0028786Y0033401D01*
X0029148Y0033686D01*
X0029516Y0033963D01*
X0029891Y0034231D01*
X0030273Y0034490D01*
X0030660Y0034740D01*
X0043140Y0046140D02*
X0043550Y0046025D01*
X0043957Y0045901D01*
X0044362Y0045766D01*
X0044762Y0045622D01*
X0045159Y0045468D01*
X0045553Y0045304D01*
X0045942Y0045131D01*
X0046327Y0044948D01*
X0046707Y0044756D01*
X0047082Y0044554D01*
X0047452Y0044344D01*
X0047818Y0044124D01*
X0048177Y0043896D01*
X0048531Y0043659D01*
X0048879Y0043413D01*
X0049221Y0043159D01*
X0049556Y0042896D01*
X0049885Y0042626D01*
X0050207Y0042347D01*
X0050523Y0042061D01*
X0050831Y0041767D01*
X0051132Y0041465D01*
X0051425Y0041156D01*
X0051711Y0040840D01*
X0051989Y0040518D01*
X0052259Y0040188D01*
X0052521Y0039852D01*
X0052775Y0039510D01*
X0053020Y0039161D01*
X0053256Y0038807D01*
X0053484Y0038447D01*
X0053703Y0038082D01*
X0053913Y0037711D01*
X0054113Y0037335D01*
X0054305Y0036955D01*
X0054487Y0036569D01*
X0054659Y0036180D01*
X0049500Y0029940D02*
X0049335Y0030225D01*
X0049164Y0030507D01*
X0048985Y0030783D01*
X0048800Y0031056D01*
X0048608Y0031323D01*
X0048410Y0031586D01*
X0048205Y0031844D01*
X0047994Y0032097D01*
X0047776Y0032345D01*
X0047553Y0032587D01*
X0047324Y0032824D01*
X0047089Y0033055D01*
X0046849Y0033280D01*
X0046603Y0033499D01*
X0046352Y0033712D01*
X0046095Y0033919D01*
X0045834Y0034120D01*
X0045568Y0034314D01*
X0045297Y0034501D01*
X0045021Y0034682D01*
X0044742Y0034856D01*
X0044458Y0035023D01*
X0044170Y0035183D01*
X0043878Y0035335D01*
X0043583Y0035481D01*
X0043284Y0035620D01*
X0042981Y0035751D01*
X0042676Y0035874D01*
X0042368Y0035990D01*
X0042057Y0036098D01*
X0041743Y0036199D01*
X0041427Y0036292D01*
X0041109Y0036377D01*
X0040789Y0036455D01*
X0040467Y0036524D01*
X0040143Y0036586D01*
X0039818Y0036640D01*
X0039492Y0036685D01*
X0039165Y0036723D01*
X0038837Y0036753D01*
X0038508Y0036774D01*
X0038179Y0036788D01*
X0037850Y0036793D01*
X0037520Y0036790D01*
X0037191Y0036779D01*
X0036862Y0036761D01*
X0036534Y0036734D01*
X0036206Y0036699D01*
X0035880Y0036656D01*
X0035554Y0036605D01*
X0035230Y0036546D01*
X0034908Y0036479D01*
X0034587Y0036404D01*
X0034268Y0036321D01*
X0033951Y0036231D01*
X0033637Y0036133D01*
X0033325Y0036027D01*
X0033016Y0035913D01*
X0032709Y0035792D01*
X0032406Y0035664D01*
X0032106Y0035528D01*
X0031809Y0035385D01*
X0031516Y0035234D01*
X0031227Y0035076D01*
X0030942Y0034912D01*
X0030661Y0034740D01*
X0033900Y0024060D02*
X0034740Y0024060D01*
X0034939Y0024058D01*
X0035139Y0024050D01*
X0035337Y0024038D01*
X0035536Y0024021D01*
X0035734Y0023999D01*
X0035932Y0023972D01*
X0036129Y0023941D01*
X0036325Y0023905D01*
X0036520Y0023863D01*
X0036714Y0023818D01*
X0036906Y0023767D01*
X0037098Y0023712D01*
X0037288Y0023652D01*
X0037477Y0023587D01*
X0037664Y0023518D01*
X0037849Y0023444D01*
X0038032Y0023366D01*
X0038214Y0023283D01*
X0038393Y0023196D01*
X0038570Y0023105D01*
X0038745Y0023009D01*
X0038917Y0022909D01*
X0039087Y0022805D01*
X0039255Y0022697D01*
X0039419Y0022584D01*
X0039581Y0022468D01*
X0039740Y0022348D01*
X0039896Y0022224D01*
X0040049Y0022096D01*
X0040199Y0021964D01*
X0040345Y0021829D01*
X0040488Y0021690D01*
X0040628Y0021548D01*
X0040764Y0021403D01*
X0040897Y0021254D01*
X0041026Y0021102D01*
X0041151Y0020946D01*
X0041272Y0020788D01*
X0041390Y0020627D01*
X0041503Y0020463D01*
X0041613Y0020297D01*
X0041718Y0020127D01*
X0041819Y0019956D01*
X0041916Y0019781D01*
X0042009Y0019605D01*
X0042097Y0019426D01*
X0042181Y0019245D01*
X0042260Y0019063D01*
X0042335Y0018878D01*
X0042406Y0018691D01*
X0042471Y0018503D01*
X0042533Y0018314D01*
X0042589Y0018122D01*
X0042641Y0017930D01*
X0042688Y0017736D01*
X0042731Y0017542D01*
X0042768Y0017346D01*
X0042801Y0017149D01*
X0042829Y0016952D01*
X0042853Y0016754D01*
X0042871Y0016555D01*
X0042884Y0016356D01*
X0042893Y0016157D01*
X0042897Y0015958D01*
X0042896Y0015759D01*
X0042890Y0015559D01*
X0042879Y0015360D01*
X0042863Y0015162D01*
X0042843Y0014963D01*
X0042817Y0014766D01*
X0042787Y0014569D01*
X0042752Y0014372D01*
X0042712Y0014177D01*
X0042668Y0013983D01*
X0042618Y0013790D01*
X0042564Y0013598D01*
X0042506Y0013407D01*
X0042442Y0013218D01*
X0042375Y0013031D01*
X0042302Y0012845D01*
X0042225Y0012661D01*
X0042144Y0012479D01*
X0042058Y0012299D01*
X0041968Y0012122D01*
X0041873Y0011946D01*
X0041774Y0011773D01*
X0041671Y0011602D01*
X0041564Y0011434D01*
X0041453Y0011269D01*
X0041338Y0011106D01*
X0041218Y0010946D01*
X0041095Y0010790D01*
X0040968Y0010636D01*
X0040838Y0010485D01*
X0040704Y0010338D01*
X0040566Y0010194D01*
X0040425Y0010053D01*
X0040280Y0009916D01*
X0040132Y0009782D01*
X0039981Y0009652D01*
X0039827Y0009526D01*
X0039669Y0009404D01*
X0039509Y0009285D01*
X0039346Y0009171D01*
X0039180Y0009060D01*
X0041340Y0005340D02*
X0041588Y0005317D01*
X0041835Y0005290D01*
X0042081Y0005256D01*
X0042326Y0005216D01*
X0042571Y0005170D01*
X0042814Y0005119D01*
X0043056Y0005061D01*
X0043296Y0004998D01*
X0043535Y0004929D01*
X0043772Y0004854D01*
X0044007Y0004774D01*
X0044240Y0004688D01*
X0044472Y0004597D01*
X0044700Y0004500D01*
D11*
X0031610Y0039490D02*
X0030110Y0043990D01*
X0033110Y0043990D02*
X0031610Y0039490D01*
X0025695Y0040115D02*
X0025644Y0040224D01*
X0025597Y0040334D01*
X0025553Y0040446D01*
X0025513Y0040560D01*
X0025477Y0040674D01*
X0025444Y0040790D01*
X0025415Y0040906D01*
X0025390Y0041024D01*
X0025369Y0041142D01*
X0025351Y0041261D01*
X0025338Y0041380D01*
X0025328Y0041500D01*
X0025322Y0041620D01*
X0025320Y0041740D01*
X0027820Y0041740D02*
X0027818Y0041620D01*
X0027812Y0041500D01*
X0027802Y0041380D01*
X0027789Y0041261D01*
X0027771Y0041142D01*
X0027750Y0041024D01*
X0027725Y0040906D01*
X0027696Y0040790D01*
X0027663Y0040674D01*
X0027627Y0040560D01*
X0027587Y0040446D01*
X0027543Y0040334D01*
X0027496Y0040224D01*
X0027445Y0040115D01*
X0027570Y0040490D02*
X0025570Y0042990D01*
X0025695Y0043365D02*
X0025716Y0043421D01*
X0025742Y0043476D01*
X0025770Y0043530D01*
X0025802Y0043581D01*
X0025837Y0043630D01*
X0025876Y0043676D01*
X0025917Y0043720D01*
X0025961Y0043762D01*
X0026008Y0043800D01*
X0026057Y0043835D01*
X0026109Y0043867D01*
X0026162Y0043895D01*
X0026217Y0043920D01*
X0026273Y0043941D01*
X0026331Y0043959D01*
X0026390Y0043972D01*
X0026450Y0043982D01*
X0026510Y0043988D01*
X0026570Y0043990D01*
X0026630Y0043988D01*
X0026690Y0043982D01*
X0026750Y0043972D01*
X0026809Y0043959D01*
X0026867Y0043941D01*
X0026923Y0043920D01*
X0026978Y0043895D01*
X0027031Y0043867D01*
X0027083Y0043835D01*
X0027132Y0043800D01*
X0027179Y0043762D01*
X0027223Y0043720D01*
X0027264Y0043676D01*
X0027303Y0043630D01*
X0027338Y0043581D01*
X0027370Y0043530D01*
X0027398Y0043476D01*
X0027424Y0043421D01*
X0027445Y0043365D01*
X0025695Y0043365D02*
X0025644Y0043256D01*
X0025597Y0043146D01*
X0025553Y0043034D01*
X0025513Y0042920D01*
X0025477Y0042806D01*
X0025444Y0042690D01*
X0025415Y0042574D01*
X0025390Y0042456D01*
X0025369Y0042338D01*
X0025351Y0042219D01*
X0025338Y0042100D01*
X0025328Y0041980D01*
X0025322Y0041860D01*
X0025320Y0041740D01*
X0027820Y0041740D02*
X0027818Y0041860D01*
X0027812Y0041980D01*
X0027802Y0042100D01*
X0027789Y0042219D01*
X0027771Y0042338D01*
X0027750Y0042456D01*
X0027725Y0042574D01*
X0027696Y0042690D01*
X0027663Y0042806D01*
X0027627Y0042920D01*
X0027587Y0043034D01*
X0027543Y0043146D01*
X0027496Y0043256D01*
X0027445Y0043365D01*
X0025695Y0040115D02*
X0025716Y0040059D01*
X0025742Y0040004D01*
X0025770Y0039950D01*
X0025802Y0039899D01*
X0025837Y0039850D01*
X0025876Y0039804D01*
X0025917Y0039760D01*
X0025961Y0039718D01*
X0026008Y0039680D01*
X0026057Y0039645D01*
X0026109Y0039613D01*
X0026162Y0039585D01*
X0026217Y0039560D01*
X0026273Y0039539D01*
X0026331Y0039521D01*
X0026390Y0039508D01*
X0026450Y0039498D01*
X0026510Y0039492D01*
X0026570Y0039490D01*
X0026630Y0039492D01*
X0026690Y0039498D01*
X0026750Y0039508D01*
X0026809Y0039521D01*
X0026867Y0039539D01*
X0026923Y0039560D01*
X0026978Y0039585D01*
X0027031Y0039613D01*
X0027083Y0039645D01*
X0027132Y0039680D01*
X0027179Y0039718D01*
X0027223Y0039760D01*
X0027264Y0039804D01*
X0027303Y0039850D01*
X0027338Y0039899D01*
X0027370Y0039950D01*
X0027398Y0040004D01*
X0027424Y0040059D01*
X0027445Y0040115D01*
X0022780Y0039490D02*
X0020280Y0039490D01*
X0021530Y0039490D02*
X0021530Y0043990D01*
X0022780Y0042990D01*
M02*
