G75*
%MOIN*%
%OFA0B0*%
%FSLAX25Y25*%
%IPPOS*%
%LPD*%
%AMOC8*
5,1,8,0,0,1.08239X$1,22.5*
%
%ADD10C,0.01000*%
%ADD11C,0.00500*%
%ADD12C,0.00800*%
D10*
X0018250Y0010389D02*
X0018250Y0012611D01*
X0018252Y0012669D01*
X0018258Y0012727D01*
X0018267Y0012784D01*
X0018280Y0012841D01*
X0018297Y0012897D01*
X0018318Y0012951D01*
X0018342Y0013004D01*
X0018369Y0013055D01*
X0018400Y0013105D01*
X0018434Y0013152D01*
X0018471Y0013197D01*
X0018510Y0013240D01*
X0018553Y0013279D01*
X0018598Y0013316D01*
X0018645Y0013350D01*
X0018694Y0013381D01*
X0018746Y0013408D01*
X0018799Y0013432D01*
X0018853Y0013453D01*
X0018909Y0013470D01*
X0018966Y0013483D01*
X0019023Y0013492D01*
X0019081Y0013498D01*
X0019139Y0013500D01*
X0020472Y0013500D01*
X0023050Y0013500D02*
X0025272Y0009500D01*
X0025272Y0013500D01*
X0023050Y0013500D02*
X0023050Y0009500D01*
X0020472Y0009500D02*
X0019139Y0009500D01*
X0020472Y0009500D02*
X0020472Y0011722D01*
X0019806Y0011722D01*
X0018250Y0010389D02*
X0018252Y0010331D01*
X0018258Y0010273D01*
X0018267Y0010216D01*
X0018280Y0010159D01*
X0018297Y0010103D01*
X0018318Y0010049D01*
X0018342Y0009996D01*
X0018369Y0009945D01*
X0018400Y0009895D01*
X0018434Y0009848D01*
X0018471Y0009803D01*
X0018510Y0009760D01*
X0018553Y0009721D01*
X0018598Y0009684D01*
X0018645Y0009650D01*
X0018695Y0009619D01*
X0018746Y0009592D01*
X0018799Y0009568D01*
X0018853Y0009547D01*
X0018909Y0009530D01*
X0018966Y0009517D01*
X0019023Y0009508D01*
X0019081Y0009502D01*
X0019139Y0009500D01*
X0027850Y0009500D02*
X0028961Y0009500D01*
X0027850Y0009500D02*
X0027850Y0013500D01*
X0028961Y0013500D01*
X0029026Y0013498D01*
X0029090Y0013492D01*
X0029154Y0013483D01*
X0029217Y0013470D01*
X0029280Y0013453D01*
X0029341Y0013433D01*
X0029401Y0013409D01*
X0029460Y0013382D01*
X0029517Y0013351D01*
X0029572Y0013317D01*
X0029624Y0013280D01*
X0029675Y0013240D01*
X0029723Y0013197D01*
X0029769Y0013151D01*
X0029812Y0013103D01*
X0029852Y0013052D01*
X0029889Y0012999D01*
X0029923Y0012944D01*
X0029954Y0012888D01*
X0029981Y0012829D01*
X0030005Y0012769D01*
X0030025Y0012708D01*
X0030042Y0012645D01*
X0030055Y0012582D01*
X0030064Y0012518D01*
X0030070Y0012454D01*
X0030072Y0012389D01*
X0030072Y0010611D01*
X0030070Y0010546D01*
X0030064Y0010482D01*
X0030055Y0010418D01*
X0030042Y0010355D01*
X0030025Y0010292D01*
X0030005Y0010231D01*
X0029981Y0010171D01*
X0029954Y0010112D01*
X0029923Y0010056D01*
X0029889Y0010000D01*
X0029852Y0009948D01*
X0029812Y0009897D01*
X0029769Y0009849D01*
X0029723Y0009803D01*
X0029675Y0009760D01*
X0029624Y0009720D01*
X0029572Y0009683D01*
X0029517Y0009649D01*
X0029460Y0009618D01*
X0029401Y0009591D01*
X0029341Y0009567D01*
X0029280Y0009547D01*
X0029217Y0009530D01*
X0029154Y0009517D01*
X0029090Y0009508D01*
X0029026Y0009502D01*
X0028961Y0009500D01*
X0024283Y0019500D02*
X0024283Y0023500D01*
X0025394Y0023500D01*
X0025460Y0023498D01*
X0025525Y0023492D01*
X0025591Y0023482D01*
X0025655Y0023469D01*
X0025718Y0023452D01*
X0025781Y0023430D01*
X0025842Y0023406D01*
X0025901Y0023377D01*
X0025959Y0023346D01*
X0026015Y0023310D01*
X0026068Y0023272D01*
X0026119Y0023231D01*
X0026168Y0023186D01*
X0026214Y0023139D01*
X0026257Y0023089D01*
X0026297Y0023037D01*
X0026333Y0022982D01*
X0026367Y0022925D01*
X0026397Y0022867D01*
X0026424Y0022807D01*
X0026446Y0022745D01*
X0026466Y0022682D01*
X0026481Y0022618D01*
X0026493Y0022553D01*
X0026501Y0022488D01*
X0026505Y0022422D01*
X0026505Y0022356D01*
X0026501Y0022290D01*
X0026493Y0022225D01*
X0026481Y0022160D01*
X0026466Y0022096D01*
X0026446Y0022033D01*
X0026424Y0021971D01*
X0026397Y0021911D01*
X0026367Y0021853D01*
X0026333Y0021796D01*
X0026297Y0021741D01*
X0026257Y0021689D01*
X0026214Y0021639D01*
X0026168Y0021592D01*
X0026119Y0021547D01*
X0026068Y0021506D01*
X0026015Y0021468D01*
X0025959Y0021432D01*
X0025901Y0021401D01*
X0025842Y0021372D01*
X0025781Y0021348D01*
X0025718Y0021326D01*
X0025655Y0021309D01*
X0025591Y0021296D01*
X0025525Y0021286D01*
X0025460Y0021280D01*
X0025394Y0021278D01*
X0024283Y0021278D01*
X0021806Y0023500D02*
X0020917Y0019500D01*
X0020028Y0022167D01*
X0019139Y0019500D01*
X0018250Y0023500D01*
X0020472Y0030389D02*
X0020470Y0030448D01*
X0020464Y0030506D01*
X0020455Y0030564D01*
X0020442Y0030621D01*
X0020425Y0030677D01*
X0020404Y0030732D01*
X0020380Y0030785D01*
X0020353Y0030837D01*
X0020322Y0030887D01*
X0020288Y0030935D01*
X0020252Y0030980D01*
X0020212Y0031023D01*
X0020169Y0031064D01*
X0020124Y0031101D01*
X0020077Y0031136D01*
X0020027Y0031167D01*
X0020028Y0031167D02*
X0018806Y0031833D01*
X0019250Y0033500D02*
X0019327Y0033498D01*
X0019403Y0033493D01*
X0019479Y0033484D01*
X0019555Y0033472D01*
X0019630Y0033456D01*
X0019704Y0033437D01*
X0019777Y0033414D01*
X0019849Y0033389D01*
X0019920Y0033359D01*
X0019990Y0033327D01*
X0020057Y0033291D01*
X0020124Y0033253D01*
X0020188Y0033211D01*
X0020250Y0033167D01*
X0018806Y0031833D02*
X0018756Y0031864D01*
X0018709Y0031899D01*
X0018664Y0031936D01*
X0018621Y0031977D01*
X0018581Y0032020D01*
X0018545Y0032065D01*
X0018511Y0032113D01*
X0018480Y0032163D01*
X0018453Y0032215D01*
X0018429Y0032268D01*
X0018408Y0032323D01*
X0018391Y0032379D01*
X0018378Y0032436D01*
X0018369Y0032494D01*
X0018363Y0032552D01*
X0018361Y0032611D01*
X0018363Y0032669D01*
X0018369Y0032727D01*
X0018378Y0032784D01*
X0018391Y0032841D01*
X0018408Y0032897D01*
X0018429Y0032951D01*
X0018453Y0033004D01*
X0018480Y0033056D01*
X0018511Y0033105D01*
X0018545Y0033152D01*
X0018582Y0033197D01*
X0018621Y0033240D01*
X0018664Y0033279D01*
X0018709Y0033316D01*
X0018756Y0033350D01*
X0018806Y0033381D01*
X0018857Y0033408D01*
X0018910Y0033432D01*
X0018964Y0033453D01*
X0019020Y0033470D01*
X0019077Y0033483D01*
X0019134Y0033492D01*
X0019192Y0033498D01*
X0019250Y0033500D01*
X0018250Y0030056D02*
X0018309Y0029998D01*
X0018371Y0029944D01*
X0018435Y0029892D01*
X0018501Y0029843D01*
X0018569Y0029797D01*
X0018639Y0029754D01*
X0018712Y0029714D01*
X0018785Y0029678D01*
X0018861Y0029644D01*
X0018937Y0029614D01*
X0019015Y0029588D01*
X0019094Y0029565D01*
X0019174Y0029545D01*
X0019255Y0029529D01*
X0019337Y0029516D01*
X0019418Y0029507D01*
X0019501Y0029502D01*
X0019583Y0029500D01*
X0019641Y0029502D01*
X0019699Y0029508D01*
X0019756Y0029517D01*
X0019813Y0029530D01*
X0019869Y0029547D01*
X0019923Y0029568D01*
X0019976Y0029592D01*
X0020028Y0029619D01*
X0020077Y0029650D01*
X0020124Y0029684D01*
X0020169Y0029721D01*
X0020212Y0029760D01*
X0020251Y0029803D01*
X0020288Y0029848D01*
X0020322Y0029895D01*
X0020353Y0029945D01*
X0020380Y0029996D01*
X0020404Y0030049D01*
X0020425Y0030103D01*
X0020442Y0030159D01*
X0020455Y0030216D01*
X0020464Y0030273D01*
X0020470Y0030331D01*
X0020472Y0030389D01*
X0022600Y0030611D02*
X0022600Y0032389D01*
X0022602Y0032455D01*
X0022608Y0032520D01*
X0022618Y0032586D01*
X0022631Y0032650D01*
X0022648Y0032713D01*
X0022670Y0032776D01*
X0022694Y0032837D01*
X0022723Y0032896D01*
X0022754Y0032954D01*
X0022790Y0033010D01*
X0022828Y0033063D01*
X0022869Y0033114D01*
X0022914Y0033163D01*
X0022961Y0033209D01*
X0023011Y0033252D01*
X0023063Y0033292D01*
X0023118Y0033328D01*
X0023175Y0033362D01*
X0023233Y0033392D01*
X0023293Y0033419D01*
X0023355Y0033441D01*
X0023418Y0033461D01*
X0023482Y0033476D01*
X0023547Y0033488D01*
X0023612Y0033496D01*
X0023678Y0033500D01*
X0023744Y0033500D01*
X0023810Y0033496D01*
X0023875Y0033488D01*
X0023940Y0033476D01*
X0024004Y0033461D01*
X0024067Y0033441D01*
X0024129Y0033419D01*
X0024189Y0033392D01*
X0024247Y0033362D01*
X0024304Y0033328D01*
X0024359Y0033292D01*
X0024411Y0033252D01*
X0024461Y0033209D01*
X0024508Y0033163D01*
X0024553Y0033114D01*
X0024594Y0033063D01*
X0024632Y0033010D01*
X0024668Y0032954D01*
X0024699Y0032896D01*
X0024728Y0032837D01*
X0024752Y0032776D01*
X0024774Y0032713D01*
X0024791Y0032650D01*
X0024804Y0032586D01*
X0024814Y0032520D01*
X0024820Y0032455D01*
X0024822Y0032389D01*
X0024822Y0030611D01*
X0024820Y0030545D01*
X0024814Y0030480D01*
X0024804Y0030414D01*
X0024791Y0030350D01*
X0024774Y0030287D01*
X0024752Y0030224D01*
X0024728Y0030163D01*
X0024699Y0030104D01*
X0024668Y0030046D01*
X0024632Y0029990D01*
X0024594Y0029937D01*
X0024553Y0029886D01*
X0024508Y0029837D01*
X0024461Y0029791D01*
X0024411Y0029748D01*
X0024359Y0029708D01*
X0024304Y0029672D01*
X0024247Y0029638D01*
X0024189Y0029608D01*
X0024129Y0029581D01*
X0024067Y0029559D01*
X0024004Y0029539D01*
X0023940Y0029524D01*
X0023875Y0029512D01*
X0023810Y0029504D01*
X0023744Y0029500D01*
X0023678Y0029500D01*
X0023612Y0029504D01*
X0023547Y0029512D01*
X0023482Y0029524D01*
X0023418Y0029539D01*
X0023355Y0029559D01*
X0023293Y0029581D01*
X0023233Y0029608D01*
X0023175Y0029638D01*
X0023118Y0029672D01*
X0023063Y0029708D01*
X0023011Y0029748D01*
X0022961Y0029791D01*
X0022914Y0029837D01*
X0022869Y0029886D01*
X0022828Y0029937D01*
X0022790Y0029990D01*
X0022754Y0030046D01*
X0022723Y0030104D01*
X0022694Y0030163D01*
X0022670Y0030224D01*
X0022648Y0030287D01*
X0022631Y0030350D01*
X0022618Y0030414D01*
X0022608Y0030480D01*
X0022602Y0030545D01*
X0022600Y0030611D01*
X0020028Y0039500D02*
X0019139Y0039500D01*
X0019081Y0039502D01*
X0019023Y0039508D01*
X0018966Y0039517D01*
X0018909Y0039530D01*
X0018853Y0039547D01*
X0018799Y0039568D01*
X0018746Y0039592D01*
X0018695Y0039619D01*
X0018645Y0039650D01*
X0018598Y0039684D01*
X0018553Y0039721D01*
X0018510Y0039760D01*
X0018471Y0039803D01*
X0018434Y0039848D01*
X0018400Y0039895D01*
X0018369Y0039945D01*
X0018342Y0039996D01*
X0018318Y0040049D01*
X0018297Y0040103D01*
X0018280Y0040159D01*
X0018267Y0040216D01*
X0018258Y0040273D01*
X0018252Y0040331D01*
X0018250Y0040389D01*
X0018250Y0042611D01*
X0018252Y0042669D01*
X0018258Y0042727D01*
X0018267Y0042784D01*
X0018280Y0042841D01*
X0018297Y0042897D01*
X0018318Y0042951D01*
X0018342Y0043004D01*
X0018369Y0043055D01*
X0018400Y0043105D01*
X0018434Y0043152D01*
X0018471Y0043197D01*
X0018510Y0043240D01*
X0018553Y0043279D01*
X0018598Y0043316D01*
X0018645Y0043350D01*
X0018694Y0043381D01*
X0018746Y0043408D01*
X0018799Y0043432D01*
X0018853Y0043453D01*
X0018909Y0043470D01*
X0018966Y0043483D01*
X0019023Y0043492D01*
X0019081Y0043498D01*
X0019139Y0043500D01*
X0020028Y0043500D01*
X0021984Y0042611D02*
X0021986Y0042669D01*
X0021992Y0042727D01*
X0022001Y0042784D01*
X0022014Y0042841D01*
X0022031Y0042897D01*
X0022052Y0042951D01*
X0022076Y0043004D01*
X0022103Y0043056D01*
X0022134Y0043105D01*
X0022168Y0043152D01*
X0022205Y0043197D01*
X0022244Y0043240D01*
X0022287Y0043279D01*
X0022332Y0043316D01*
X0022379Y0043350D01*
X0022429Y0043381D01*
X0022480Y0043408D01*
X0022533Y0043432D01*
X0022587Y0043453D01*
X0022643Y0043470D01*
X0022700Y0043483D01*
X0022757Y0043492D01*
X0022815Y0043498D01*
X0022873Y0043500D01*
X0021984Y0042611D02*
X0021986Y0042552D01*
X0021992Y0042494D01*
X0022001Y0042436D01*
X0022014Y0042379D01*
X0022031Y0042323D01*
X0022052Y0042268D01*
X0022076Y0042215D01*
X0022103Y0042163D01*
X0022134Y0042113D01*
X0022168Y0042065D01*
X0022204Y0042020D01*
X0022244Y0041977D01*
X0022287Y0041936D01*
X0022332Y0041899D01*
X0022379Y0041864D01*
X0022429Y0041833D01*
X0022428Y0041833D02*
X0023651Y0041167D01*
X0023206Y0039500D02*
X0023124Y0039502D01*
X0023041Y0039507D01*
X0022960Y0039516D01*
X0022878Y0039529D01*
X0022797Y0039545D01*
X0022717Y0039565D01*
X0022638Y0039588D01*
X0022560Y0039614D01*
X0022484Y0039644D01*
X0022408Y0039678D01*
X0022335Y0039714D01*
X0022262Y0039754D01*
X0022192Y0039797D01*
X0022124Y0039843D01*
X0022058Y0039892D01*
X0021994Y0039944D01*
X0021932Y0039998D01*
X0021873Y0040056D01*
X0023650Y0041167D02*
X0023700Y0041136D01*
X0023747Y0041101D01*
X0023792Y0041064D01*
X0023835Y0041023D01*
X0023875Y0040980D01*
X0023911Y0040935D01*
X0023945Y0040887D01*
X0023976Y0040837D01*
X0024003Y0040785D01*
X0024027Y0040732D01*
X0024048Y0040677D01*
X0024065Y0040621D01*
X0024078Y0040564D01*
X0024087Y0040506D01*
X0024093Y0040448D01*
X0024095Y0040389D01*
X0024093Y0040331D01*
X0024087Y0040273D01*
X0024078Y0040216D01*
X0024065Y0040159D01*
X0024048Y0040103D01*
X0024027Y0040049D01*
X0024003Y0039996D01*
X0023976Y0039945D01*
X0023945Y0039895D01*
X0023911Y0039848D01*
X0023874Y0039803D01*
X0023835Y0039760D01*
X0023792Y0039721D01*
X0023747Y0039684D01*
X0023700Y0039650D01*
X0023651Y0039619D01*
X0023599Y0039592D01*
X0023546Y0039568D01*
X0023492Y0039547D01*
X0023436Y0039530D01*
X0023379Y0039517D01*
X0023322Y0039508D01*
X0023264Y0039502D01*
X0023206Y0039500D01*
X0023873Y0043167D02*
X0023811Y0043211D01*
X0023747Y0043253D01*
X0023680Y0043291D01*
X0023613Y0043327D01*
X0023543Y0043359D01*
X0023472Y0043389D01*
X0023400Y0043414D01*
X0023327Y0043437D01*
X0023253Y0043456D01*
X0023178Y0043472D01*
X0023102Y0043484D01*
X0023026Y0043493D01*
X0022950Y0043498D01*
X0022873Y0043500D01*
X0022000Y0046000D02*
X0022000Y0050000D01*
X0023333Y0047778D01*
X0024667Y0050000D01*
X0024667Y0046000D01*
X0026950Y0046000D02*
X0029617Y0050000D01*
X0026950Y0050000D02*
X0029617Y0046000D01*
X0031672Y0046000D02*
X0033894Y0046000D01*
X0031672Y0046000D02*
X0033561Y0048222D01*
X0032894Y0050000D02*
X0032824Y0049998D01*
X0032754Y0049992D01*
X0032684Y0049983D01*
X0032615Y0049969D01*
X0032547Y0049952D01*
X0032480Y0049931D01*
X0032414Y0049907D01*
X0032350Y0049879D01*
X0032287Y0049848D01*
X0032226Y0049813D01*
X0032167Y0049774D01*
X0032110Y0049733D01*
X0032056Y0049689D01*
X0032004Y0049642D01*
X0031954Y0049591D01*
X0031908Y0049539D01*
X0031864Y0049484D01*
X0031824Y0049426D01*
X0031787Y0049367D01*
X0031753Y0049305D01*
X0031722Y0049242D01*
X0031695Y0049177D01*
X0031672Y0049111D01*
X0033561Y0048222D02*
X0033604Y0048266D01*
X0033646Y0048313D01*
X0033684Y0048362D01*
X0033719Y0048413D01*
X0033752Y0048466D01*
X0033781Y0048521D01*
X0033807Y0048577D01*
X0033830Y0048635D01*
X0033849Y0048694D01*
X0033865Y0048754D01*
X0033878Y0048815D01*
X0033887Y0048876D01*
X0033892Y0048938D01*
X0033894Y0049000D01*
X0033892Y0049060D01*
X0033887Y0049121D01*
X0033878Y0049180D01*
X0033865Y0049239D01*
X0033849Y0049298D01*
X0033829Y0049355D01*
X0033806Y0049410D01*
X0033779Y0049465D01*
X0033750Y0049517D01*
X0033717Y0049568D01*
X0033681Y0049617D01*
X0033643Y0049663D01*
X0033601Y0049707D01*
X0033557Y0049749D01*
X0033511Y0049787D01*
X0033462Y0049823D01*
X0033411Y0049856D01*
X0033359Y0049885D01*
X0033304Y0049912D01*
X0033249Y0049935D01*
X0033192Y0049955D01*
X0033133Y0049971D01*
X0033074Y0049984D01*
X0033015Y0049993D01*
X0032954Y0049998D01*
X0032894Y0050000D01*
X0036172Y0050000D02*
X0036172Y0048222D01*
X0037506Y0048222D01*
X0037564Y0048220D01*
X0037622Y0048214D01*
X0037679Y0048205D01*
X0037736Y0048192D01*
X0037792Y0048175D01*
X0037846Y0048154D01*
X0037899Y0048130D01*
X0037951Y0048103D01*
X0038000Y0048072D01*
X0038047Y0048038D01*
X0038092Y0048001D01*
X0038135Y0047962D01*
X0038174Y0047919D01*
X0038211Y0047874D01*
X0038245Y0047827D01*
X0038276Y0047778D01*
X0038303Y0047726D01*
X0038327Y0047673D01*
X0038348Y0047619D01*
X0038365Y0047563D01*
X0038378Y0047506D01*
X0038387Y0047449D01*
X0038393Y0047391D01*
X0038395Y0047333D01*
X0038394Y0047333D02*
X0038394Y0046889D01*
X0038395Y0046889D02*
X0038393Y0046831D01*
X0038387Y0046773D01*
X0038378Y0046716D01*
X0038365Y0046659D01*
X0038348Y0046603D01*
X0038327Y0046549D01*
X0038303Y0046496D01*
X0038276Y0046444D01*
X0038245Y0046395D01*
X0038211Y0046348D01*
X0038174Y0046303D01*
X0038135Y0046260D01*
X0038092Y0046221D01*
X0038047Y0046184D01*
X0038000Y0046150D01*
X0037950Y0046119D01*
X0037899Y0046092D01*
X0037846Y0046068D01*
X0037792Y0046047D01*
X0037736Y0046030D01*
X0037679Y0046017D01*
X0037622Y0046008D01*
X0037564Y0046002D01*
X0037506Y0046000D01*
X0036172Y0046000D01*
X0040873Y0046000D02*
X0040873Y0050000D01*
X0041984Y0050000D01*
X0042050Y0049998D01*
X0042115Y0049992D01*
X0042181Y0049982D01*
X0042245Y0049969D01*
X0042308Y0049952D01*
X0042371Y0049930D01*
X0042432Y0049906D01*
X0042491Y0049877D01*
X0042549Y0049846D01*
X0042605Y0049810D01*
X0042658Y0049772D01*
X0042709Y0049731D01*
X0042758Y0049686D01*
X0042804Y0049639D01*
X0042847Y0049589D01*
X0042887Y0049537D01*
X0042923Y0049482D01*
X0042957Y0049425D01*
X0042987Y0049367D01*
X0043014Y0049307D01*
X0043036Y0049245D01*
X0043056Y0049182D01*
X0043071Y0049118D01*
X0043083Y0049053D01*
X0043091Y0048988D01*
X0043095Y0048922D01*
X0043095Y0048856D01*
X0043091Y0048790D01*
X0043083Y0048725D01*
X0043071Y0048660D01*
X0043056Y0048596D01*
X0043036Y0048533D01*
X0043014Y0048471D01*
X0042987Y0048411D01*
X0042957Y0048353D01*
X0042923Y0048296D01*
X0042887Y0048241D01*
X0042847Y0048189D01*
X0042804Y0048139D01*
X0042758Y0048092D01*
X0042709Y0048047D01*
X0042658Y0048006D01*
X0042605Y0047968D01*
X0042549Y0047932D01*
X0042491Y0047901D01*
X0042432Y0047872D01*
X0042371Y0047848D01*
X0042308Y0047826D01*
X0042245Y0047809D01*
X0042181Y0047796D01*
X0042115Y0047786D01*
X0042050Y0047780D01*
X0041984Y0047778D01*
X0040873Y0047778D01*
X0042206Y0047778D02*
X0043095Y0046000D01*
X0045322Y0047111D02*
X0045322Y0048222D01*
X0046656Y0048222D01*
X0045322Y0048222D02*
X0045324Y0048304D01*
X0045330Y0048386D01*
X0045339Y0048468D01*
X0045352Y0048549D01*
X0045369Y0048629D01*
X0045390Y0048709D01*
X0045414Y0048787D01*
X0045442Y0048864D01*
X0045473Y0048940D01*
X0045508Y0049015D01*
X0045547Y0049087D01*
X0045588Y0049158D01*
X0045633Y0049227D01*
X0045681Y0049293D01*
X0045732Y0049358D01*
X0045786Y0049420D01*
X0045843Y0049479D01*
X0045902Y0049536D01*
X0045964Y0049590D01*
X0046029Y0049641D01*
X0046095Y0049689D01*
X0046164Y0049734D01*
X0046235Y0049775D01*
X0046307Y0049814D01*
X0046382Y0049848D01*
X0046458Y0049880D01*
X0046535Y0049908D01*
X0046613Y0049932D01*
X0046693Y0049953D01*
X0046773Y0049970D01*
X0046854Y0049983D01*
X0046936Y0049992D01*
X0047018Y0049998D01*
X0047100Y0050000D01*
X0047544Y0047333D02*
X0047544Y0047111D01*
X0047545Y0047333D02*
X0047543Y0047391D01*
X0047537Y0047449D01*
X0047528Y0047506D01*
X0047515Y0047563D01*
X0047498Y0047619D01*
X0047477Y0047673D01*
X0047453Y0047726D01*
X0047426Y0047778D01*
X0047395Y0047827D01*
X0047361Y0047874D01*
X0047324Y0047919D01*
X0047285Y0047962D01*
X0047242Y0048001D01*
X0047197Y0048038D01*
X0047150Y0048072D01*
X0047101Y0048103D01*
X0047049Y0048130D01*
X0046996Y0048154D01*
X0046942Y0048175D01*
X0046886Y0048192D01*
X0046829Y0048205D01*
X0046772Y0048214D01*
X0046714Y0048220D01*
X0046656Y0048222D01*
X0047544Y0047111D02*
X0047542Y0047045D01*
X0047536Y0046980D01*
X0047526Y0046914D01*
X0047513Y0046850D01*
X0047496Y0046787D01*
X0047474Y0046724D01*
X0047450Y0046663D01*
X0047421Y0046604D01*
X0047390Y0046546D01*
X0047354Y0046490D01*
X0047316Y0046437D01*
X0047275Y0046386D01*
X0047230Y0046337D01*
X0047183Y0046291D01*
X0047133Y0046248D01*
X0047081Y0046208D01*
X0047026Y0046172D01*
X0046969Y0046138D01*
X0046911Y0046108D01*
X0046851Y0046081D01*
X0046789Y0046059D01*
X0046726Y0046039D01*
X0046662Y0046024D01*
X0046597Y0046012D01*
X0046532Y0046004D01*
X0046466Y0046000D01*
X0046400Y0046000D01*
X0046334Y0046004D01*
X0046269Y0046012D01*
X0046204Y0046024D01*
X0046140Y0046039D01*
X0046077Y0046059D01*
X0046015Y0046081D01*
X0045955Y0046108D01*
X0045897Y0046138D01*
X0045840Y0046172D01*
X0045785Y0046208D01*
X0045733Y0046248D01*
X0045683Y0046291D01*
X0045636Y0046337D01*
X0045591Y0046386D01*
X0045550Y0046437D01*
X0045512Y0046490D01*
X0045476Y0046546D01*
X0045445Y0046604D01*
X0045416Y0046663D01*
X0045392Y0046724D01*
X0045370Y0046787D01*
X0045353Y0046850D01*
X0045340Y0046914D01*
X0045330Y0046980D01*
X0045324Y0047045D01*
X0045322Y0047111D01*
X0049822Y0046889D02*
X0052044Y0046889D01*
X0051378Y0047778D02*
X0051378Y0046000D01*
X0049822Y0046889D02*
X0050711Y0050000D01*
X0054322Y0050000D02*
X0055656Y0050000D01*
X0055714Y0049998D01*
X0055772Y0049992D01*
X0055829Y0049983D01*
X0055886Y0049970D01*
X0055942Y0049953D01*
X0055996Y0049932D01*
X0056049Y0049908D01*
X0056100Y0049881D01*
X0056150Y0049850D01*
X0056197Y0049816D01*
X0056242Y0049779D01*
X0056285Y0049740D01*
X0056324Y0049697D01*
X0056361Y0049652D01*
X0056395Y0049605D01*
X0056426Y0049556D01*
X0056453Y0049504D01*
X0056477Y0049451D01*
X0056498Y0049397D01*
X0056515Y0049341D01*
X0056528Y0049284D01*
X0056537Y0049227D01*
X0056543Y0049169D01*
X0056545Y0049111D01*
X0056543Y0049053D01*
X0056537Y0048995D01*
X0056528Y0048938D01*
X0056515Y0048881D01*
X0056498Y0048825D01*
X0056477Y0048771D01*
X0056453Y0048718D01*
X0056426Y0048667D01*
X0056395Y0048617D01*
X0056361Y0048570D01*
X0056324Y0048525D01*
X0056285Y0048482D01*
X0056242Y0048443D01*
X0056197Y0048406D01*
X0056150Y0048372D01*
X0056101Y0048341D01*
X0056049Y0048314D01*
X0055996Y0048290D01*
X0055942Y0048269D01*
X0055886Y0048252D01*
X0055829Y0048239D01*
X0055772Y0048230D01*
X0055714Y0048224D01*
X0055656Y0048222D01*
X0054767Y0048222D01*
X0055433Y0048222D02*
X0055499Y0048220D01*
X0055564Y0048214D01*
X0055630Y0048204D01*
X0055694Y0048191D01*
X0055757Y0048174D01*
X0055820Y0048152D01*
X0055881Y0048128D01*
X0055940Y0048099D01*
X0055998Y0048068D01*
X0056054Y0048032D01*
X0056107Y0047994D01*
X0056158Y0047953D01*
X0056207Y0047908D01*
X0056253Y0047861D01*
X0056296Y0047811D01*
X0056336Y0047759D01*
X0056372Y0047704D01*
X0056406Y0047647D01*
X0056436Y0047589D01*
X0056463Y0047529D01*
X0056485Y0047467D01*
X0056505Y0047404D01*
X0056520Y0047340D01*
X0056532Y0047275D01*
X0056540Y0047210D01*
X0056544Y0047144D01*
X0056544Y0047078D01*
X0056540Y0047012D01*
X0056532Y0046947D01*
X0056520Y0046882D01*
X0056505Y0046818D01*
X0056485Y0046755D01*
X0056463Y0046693D01*
X0056436Y0046633D01*
X0056406Y0046575D01*
X0056372Y0046518D01*
X0056336Y0046463D01*
X0056296Y0046411D01*
X0056253Y0046361D01*
X0056207Y0046314D01*
X0056158Y0046269D01*
X0056107Y0046228D01*
X0056054Y0046190D01*
X0055998Y0046154D01*
X0055940Y0046123D01*
X0055881Y0046094D01*
X0055820Y0046070D01*
X0055757Y0046048D01*
X0055694Y0046031D01*
X0055630Y0046018D01*
X0055564Y0046008D01*
X0055499Y0046002D01*
X0055433Y0046000D01*
X0054322Y0046000D01*
X0054500Y0043500D02*
X0055833Y0039500D01*
X0057167Y0043500D01*
X0059199Y0042611D02*
X0059199Y0040389D01*
X0059201Y0040331D01*
X0059207Y0040273D01*
X0059216Y0040216D01*
X0059229Y0040159D01*
X0059246Y0040103D01*
X0059267Y0040049D01*
X0059291Y0039996D01*
X0059318Y0039945D01*
X0059349Y0039895D01*
X0059383Y0039848D01*
X0059420Y0039803D01*
X0059459Y0039760D01*
X0059502Y0039721D01*
X0059547Y0039684D01*
X0059594Y0039650D01*
X0059644Y0039619D01*
X0059695Y0039592D01*
X0059748Y0039568D01*
X0059802Y0039547D01*
X0059858Y0039530D01*
X0059915Y0039517D01*
X0059972Y0039508D01*
X0060030Y0039502D01*
X0060088Y0039500D01*
X0060977Y0039500D01*
X0062949Y0040389D02*
X0062949Y0042611D01*
X0062951Y0042669D01*
X0062957Y0042727D01*
X0062966Y0042784D01*
X0062979Y0042841D01*
X0062996Y0042897D01*
X0063017Y0042951D01*
X0063041Y0043004D01*
X0063068Y0043055D01*
X0063099Y0043105D01*
X0063133Y0043152D01*
X0063170Y0043197D01*
X0063209Y0043240D01*
X0063252Y0043279D01*
X0063297Y0043316D01*
X0063344Y0043350D01*
X0063393Y0043381D01*
X0063445Y0043408D01*
X0063498Y0043432D01*
X0063552Y0043453D01*
X0063608Y0043470D01*
X0063665Y0043483D01*
X0063722Y0043492D01*
X0063780Y0043498D01*
X0063838Y0043500D01*
X0064727Y0043500D01*
X0063488Y0046000D02*
X0063488Y0050000D01*
X0065266Y0050000D01*
X0065266Y0048222D02*
X0063488Y0048222D01*
X0061044Y0047333D02*
X0061044Y0046889D01*
X0061045Y0046889D02*
X0061043Y0046831D01*
X0061037Y0046773D01*
X0061028Y0046716D01*
X0061015Y0046659D01*
X0060998Y0046603D01*
X0060977Y0046549D01*
X0060953Y0046496D01*
X0060926Y0046444D01*
X0060895Y0046395D01*
X0060861Y0046348D01*
X0060824Y0046303D01*
X0060785Y0046260D01*
X0060742Y0046221D01*
X0060697Y0046184D01*
X0060650Y0046150D01*
X0060600Y0046119D01*
X0060549Y0046092D01*
X0060496Y0046068D01*
X0060442Y0046047D01*
X0060386Y0046030D01*
X0060329Y0046017D01*
X0060272Y0046008D01*
X0060214Y0046002D01*
X0060156Y0046000D01*
X0058822Y0046000D01*
X0060156Y0048222D02*
X0060214Y0048220D01*
X0060272Y0048214D01*
X0060329Y0048205D01*
X0060386Y0048192D01*
X0060442Y0048175D01*
X0060496Y0048154D01*
X0060549Y0048130D01*
X0060601Y0048103D01*
X0060650Y0048072D01*
X0060697Y0048038D01*
X0060742Y0048001D01*
X0060785Y0047962D01*
X0060824Y0047919D01*
X0060861Y0047874D01*
X0060895Y0047827D01*
X0060926Y0047778D01*
X0060953Y0047726D01*
X0060977Y0047673D01*
X0060998Y0047619D01*
X0061015Y0047563D01*
X0061028Y0047506D01*
X0061037Y0047449D01*
X0061043Y0047391D01*
X0061045Y0047333D01*
X0060156Y0048222D02*
X0058822Y0048222D01*
X0058822Y0050000D01*
X0061044Y0050000D01*
X0060977Y0043500D02*
X0060088Y0043500D01*
X0060030Y0043498D01*
X0059972Y0043492D01*
X0059915Y0043483D01*
X0059858Y0043470D01*
X0059802Y0043453D01*
X0059748Y0043432D01*
X0059695Y0043408D01*
X0059643Y0043381D01*
X0059594Y0043350D01*
X0059547Y0043316D01*
X0059502Y0043279D01*
X0059459Y0043240D01*
X0059420Y0043197D01*
X0059383Y0043152D01*
X0059349Y0043105D01*
X0059318Y0043055D01*
X0059291Y0043004D01*
X0059267Y0042951D01*
X0059246Y0042897D01*
X0059229Y0042841D01*
X0059216Y0042784D01*
X0059207Y0042727D01*
X0059201Y0042669D01*
X0059199Y0042611D01*
X0062949Y0040389D02*
X0062951Y0040331D01*
X0062957Y0040273D01*
X0062966Y0040216D01*
X0062979Y0040159D01*
X0062996Y0040103D01*
X0063017Y0040049D01*
X0063041Y0039996D01*
X0063068Y0039945D01*
X0063099Y0039895D01*
X0063133Y0039848D01*
X0063170Y0039803D01*
X0063209Y0039760D01*
X0063252Y0039721D01*
X0063297Y0039684D01*
X0063344Y0039650D01*
X0063394Y0039619D01*
X0063445Y0039592D01*
X0063498Y0039568D01*
X0063552Y0039547D01*
X0063608Y0039530D01*
X0063665Y0039517D01*
X0063722Y0039508D01*
X0063780Y0039502D01*
X0063838Y0039500D01*
X0064727Y0039500D01*
X0065071Y0033500D02*
X0062849Y0033500D01*
X0063960Y0033500D02*
X0063960Y0029500D01*
X0060577Y0031167D02*
X0059355Y0031833D01*
X0059799Y0033500D02*
X0059876Y0033498D01*
X0059952Y0033493D01*
X0060028Y0033484D01*
X0060104Y0033472D01*
X0060179Y0033456D01*
X0060253Y0033437D01*
X0060326Y0033414D01*
X0060398Y0033389D01*
X0060469Y0033359D01*
X0060539Y0033327D01*
X0060606Y0033291D01*
X0060673Y0033253D01*
X0060737Y0033211D01*
X0060799Y0033167D01*
X0059355Y0031833D02*
X0059305Y0031864D01*
X0059258Y0031899D01*
X0059213Y0031936D01*
X0059170Y0031977D01*
X0059130Y0032020D01*
X0059094Y0032065D01*
X0059060Y0032113D01*
X0059029Y0032163D01*
X0059002Y0032215D01*
X0058978Y0032268D01*
X0058957Y0032323D01*
X0058940Y0032379D01*
X0058927Y0032436D01*
X0058918Y0032494D01*
X0058912Y0032552D01*
X0058910Y0032611D01*
X0058912Y0032669D01*
X0058918Y0032727D01*
X0058927Y0032784D01*
X0058940Y0032841D01*
X0058957Y0032897D01*
X0058978Y0032951D01*
X0059002Y0033004D01*
X0059029Y0033056D01*
X0059060Y0033105D01*
X0059094Y0033152D01*
X0059131Y0033197D01*
X0059170Y0033240D01*
X0059213Y0033279D01*
X0059258Y0033316D01*
X0059305Y0033350D01*
X0059355Y0033381D01*
X0059406Y0033408D01*
X0059459Y0033432D01*
X0059513Y0033453D01*
X0059569Y0033470D01*
X0059626Y0033483D01*
X0059683Y0033492D01*
X0059741Y0033498D01*
X0059799Y0033500D01*
X0058800Y0030056D02*
X0058859Y0029998D01*
X0058921Y0029944D01*
X0058985Y0029892D01*
X0059051Y0029843D01*
X0059119Y0029797D01*
X0059189Y0029754D01*
X0059262Y0029714D01*
X0059335Y0029678D01*
X0059411Y0029644D01*
X0059487Y0029614D01*
X0059565Y0029588D01*
X0059644Y0029565D01*
X0059724Y0029545D01*
X0059805Y0029529D01*
X0059887Y0029516D01*
X0059968Y0029507D01*
X0060051Y0029502D01*
X0060133Y0029500D01*
X0060191Y0029502D01*
X0060249Y0029508D01*
X0060306Y0029517D01*
X0060363Y0029530D01*
X0060419Y0029547D01*
X0060473Y0029568D01*
X0060526Y0029592D01*
X0060578Y0029619D01*
X0060627Y0029650D01*
X0060674Y0029684D01*
X0060719Y0029721D01*
X0060762Y0029760D01*
X0060801Y0029803D01*
X0060838Y0029848D01*
X0060872Y0029895D01*
X0060903Y0029945D01*
X0060930Y0029996D01*
X0060954Y0030049D01*
X0060975Y0030103D01*
X0060992Y0030159D01*
X0061005Y0030216D01*
X0061014Y0030273D01*
X0061020Y0030331D01*
X0061022Y0030389D01*
X0061020Y0030448D01*
X0061014Y0030506D01*
X0061005Y0030564D01*
X0060992Y0030621D01*
X0060975Y0030677D01*
X0060954Y0030732D01*
X0060930Y0030785D01*
X0060903Y0030837D01*
X0060872Y0030887D01*
X0060838Y0030935D01*
X0060802Y0030980D01*
X0060762Y0031023D01*
X0060719Y0031064D01*
X0060674Y0031101D01*
X0060627Y0031136D01*
X0060577Y0031167D01*
X0056722Y0029500D02*
X0055833Y0031278D01*
X0055611Y0031278D02*
X0054500Y0031278D01*
X0055611Y0031278D02*
X0055677Y0031280D01*
X0055742Y0031286D01*
X0055808Y0031296D01*
X0055872Y0031309D01*
X0055935Y0031326D01*
X0055998Y0031348D01*
X0056059Y0031372D01*
X0056118Y0031401D01*
X0056176Y0031432D01*
X0056232Y0031468D01*
X0056285Y0031506D01*
X0056336Y0031547D01*
X0056385Y0031592D01*
X0056431Y0031639D01*
X0056474Y0031689D01*
X0056514Y0031741D01*
X0056550Y0031796D01*
X0056584Y0031853D01*
X0056614Y0031911D01*
X0056641Y0031971D01*
X0056663Y0032033D01*
X0056683Y0032096D01*
X0056698Y0032160D01*
X0056710Y0032225D01*
X0056718Y0032290D01*
X0056722Y0032356D01*
X0056722Y0032422D01*
X0056718Y0032488D01*
X0056710Y0032553D01*
X0056698Y0032618D01*
X0056683Y0032682D01*
X0056663Y0032745D01*
X0056641Y0032807D01*
X0056614Y0032867D01*
X0056584Y0032925D01*
X0056550Y0032982D01*
X0056514Y0033037D01*
X0056474Y0033089D01*
X0056431Y0033139D01*
X0056385Y0033186D01*
X0056336Y0033231D01*
X0056285Y0033272D01*
X0056232Y0033310D01*
X0056176Y0033346D01*
X0056118Y0033377D01*
X0056059Y0033406D01*
X0055998Y0033430D01*
X0055935Y0033452D01*
X0055872Y0033469D01*
X0055808Y0033482D01*
X0055742Y0033492D01*
X0055677Y0033498D01*
X0055611Y0033500D01*
X0054500Y0033500D01*
X0054500Y0029500D01*
X0059716Y0023500D02*
X0060605Y0023500D01*
X0059716Y0023500D02*
X0059658Y0023498D01*
X0059600Y0023492D01*
X0059543Y0023483D01*
X0059486Y0023470D01*
X0059430Y0023453D01*
X0059376Y0023432D01*
X0059323Y0023408D01*
X0059271Y0023381D01*
X0059222Y0023350D01*
X0059175Y0023316D01*
X0059130Y0023279D01*
X0059087Y0023240D01*
X0059048Y0023197D01*
X0059011Y0023152D01*
X0058977Y0023105D01*
X0058946Y0023055D01*
X0058919Y0023004D01*
X0058895Y0022951D01*
X0058874Y0022897D01*
X0058857Y0022841D01*
X0058844Y0022784D01*
X0058835Y0022727D01*
X0058829Y0022669D01*
X0058827Y0022611D01*
X0058827Y0020389D01*
X0058829Y0020331D01*
X0058835Y0020273D01*
X0058844Y0020216D01*
X0058857Y0020159D01*
X0058874Y0020103D01*
X0058895Y0020049D01*
X0058919Y0019996D01*
X0058946Y0019945D01*
X0058977Y0019895D01*
X0059011Y0019848D01*
X0059048Y0019803D01*
X0059087Y0019760D01*
X0059130Y0019721D01*
X0059175Y0019684D01*
X0059222Y0019650D01*
X0059272Y0019619D01*
X0059323Y0019592D01*
X0059376Y0019568D01*
X0059430Y0019547D01*
X0059486Y0019530D01*
X0059543Y0019517D01*
X0059600Y0019508D01*
X0059658Y0019502D01*
X0059716Y0019500D01*
X0060605Y0019500D01*
X0062867Y0019500D02*
X0062867Y0023500D01*
X0063756Y0021944D02*
X0065089Y0019500D01*
X0062867Y0021056D02*
X0065089Y0023500D01*
X0056278Y0021167D02*
X0055056Y0021833D01*
X0055500Y0023500D02*
X0055577Y0023498D01*
X0055653Y0023493D01*
X0055729Y0023484D01*
X0055805Y0023472D01*
X0055880Y0023456D01*
X0055954Y0023437D01*
X0056027Y0023414D01*
X0056099Y0023389D01*
X0056170Y0023359D01*
X0056240Y0023327D01*
X0056307Y0023291D01*
X0056374Y0023253D01*
X0056438Y0023211D01*
X0056500Y0023167D01*
X0055056Y0021833D02*
X0055006Y0021864D01*
X0054959Y0021899D01*
X0054914Y0021936D01*
X0054871Y0021977D01*
X0054831Y0022020D01*
X0054795Y0022065D01*
X0054761Y0022113D01*
X0054730Y0022163D01*
X0054703Y0022215D01*
X0054679Y0022268D01*
X0054658Y0022323D01*
X0054641Y0022379D01*
X0054628Y0022436D01*
X0054619Y0022494D01*
X0054613Y0022552D01*
X0054611Y0022611D01*
X0054613Y0022669D01*
X0054619Y0022727D01*
X0054628Y0022784D01*
X0054641Y0022841D01*
X0054658Y0022897D01*
X0054679Y0022951D01*
X0054703Y0023004D01*
X0054730Y0023056D01*
X0054761Y0023105D01*
X0054795Y0023152D01*
X0054832Y0023197D01*
X0054871Y0023240D01*
X0054914Y0023279D01*
X0054959Y0023316D01*
X0055006Y0023350D01*
X0055056Y0023381D01*
X0055107Y0023408D01*
X0055160Y0023432D01*
X0055214Y0023453D01*
X0055270Y0023470D01*
X0055327Y0023483D01*
X0055384Y0023492D01*
X0055442Y0023498D01*
X0055500Y0023500D01*
X0054500Y0020056D02*
X0054559Y0019998D01*
X0054621Y0019944D01*
X0054685Y0019892D01*
X0054751Y0019843D01*
X0054819Y0019797D01*
X0054889Y0019754D01*
X0054962Y0019714D01*
X0055035Y0019678D01*
X0055111Y0019644D01*
X0055187Y0019614D01*
X0055265Y0019588D01*
X0055344Y0019565D01*
X0055424Y0019545D01*
X0055505Y0019529D01*
X0055587Y0019516D01*
X0055668Y0019507D01*
X0055751Y0019502D01*
X0055833Y0019500D01*
X0055891Y0019502D01*
X0055949Y0019508D01*
X0056006Y0019517D01*
X0056063Y0019530D01*
X0056119Y0019547D01*
X0056173Y0019568D01*
X0056226Y0019592D01*
X0056278Y0019619D01*
X0056327Y0019650D01*
X0056374Y0019684D01*
X0056419Y0019721D01*
X0056462Y0019760D01*
X0056501Y0019803D01*
X0056538Y0019848D01*
X0056572Y0019895D01*
X0056603Y0019945D01*
X0056630Y0019996D01*
X0056654Y0020049D01*
X0056675Y0020103D01*
X0056692Y0020159D01*
X0056705Y0020216D01*
X0056714Y0020273D01*
X0056720Y0020331D01*
X0056722Y0020389D01*
X0056720Y0020448D01*
X0056714Y0020506D01*
X0056705Y0020564D01*
X0056692Y0020621D01*
X0056675Y0020677D01*
X0056654Y0020732D01*
X0056630Y0020785D01*
X0056603Y0020837D01*
X0056572Y0020887D01*
X0056538Y0020935D01*
X0056502Y0020980D01*
X0056462Y0021023D01*
X0056419Y0021064D01*
X0056374Y0021101D01*
X0056327Y0021136D01*
X0056277Y0021167D01*
X0058617Y0013500D02*
X0059506Y0013500D01*
X0059061Y0013500D02*
X0059061Y0009500D01*
X0058617Y0009500D02*
X0059506Y0009500D01*
X0056278Y0011167D02*
X0055056Y0011833D01*
X0055500Y0013500D02*
X0055577Y0013498D01*
X0055653Y0013493D01*
X0055729Y0013484D01*
X0055805Y0013472D01*
X0055880Y0013456D01*
X0055954Y0013437D01*
X0056027Y0013414D01*
X0056099Y0013389D01*
X0056170Y0013359D01*
X0056240Y0013327D01*
X0056307Y0013291D01*
X0056374Y0013253D01*
X0056438Y0013211D01*
X0056500Y0013167D01*
X0055056Y0011833D02*
X0055006Y0011864D01*
X0054959Y0011899D01*
X0054914Y0011936D01*
X0054871Y0011977D01*
X0054831Y0012020D01*
X0054795Y0012065D01*
X0054761Y0012113D01*
X0054730Y0012163D01*
X0054703Y0012215D01*
X0054679Y0012268D01*
X0054658Y0012323D01*
X0054641Y0012379D01*
X0054628Y0012436D01*
X0054619Y0012494D01*
X0054613Y0012552D01*
X0054611Y0012611D01*
X0054613Y0012669D01*
X0054619Y0012727D01*
X0054628Y0012784D01*
X0054641Y0012841D01*
X0054658Y0012897D01*
X0054679Y0012951D01*
X0054703Y0013004D01*
X0054730Y0013056D01*
X0054761Y0013105D01*
X0054795Y0013152D01*
X0054832Y0013197D01*
X0054871Y0013240D01*
X0054914Y0013279D01*
X0054959Y0013316D01*
X0055006Y0013350D01*
X0055056Y0013381D01*
X0055107Y0013408D01*
X0055160Y0013432D01*
X0055214Y0013453D01*
X0055270Y0013470D01*
X0055327Y0013483D01*
X0055384Y0013492D01*
X0055442Y0013498D01*
X0055500Y0013500D01*
X0054500Y0010056D02*
X0054559Y0009998D01*
X0054621Y0009944D01*
X0054685Y0009892D01*
X0054751Y0009843D01*
X0054819Y0009797D01*
X0054889Y0009754D01*
X0054962Y0009714D01*
X0055035Y0009678D01*
X0055111Y0009644D01*
X0055187Y0009614D01*
X0055265Y0009588D01*
X0055344Y0009565D01*
X0055424Y0009545D01*
X0055505Y0009529D01*
X0055587Y0009516D01*
X0055668Y0009507D01*
X0055751Y0009502D01*
X0055833Y0009500D01*
X0055891Y0009502D01*
X0055949Y0009508D01*
X0056006Y0009517D01*
X0056063Y0009530D01*
X0056119Y0009547D01*
X0056173Y0009568D01*
X0056226Y0009592D01*
X0056278Y0009619D01*
X0056327Y0009650D01*
X0056374Y0009684D01*
X0056419Y0009721D01*
X0056462Y0009760D01*
X0056501Y0009803D01*
X0056538Y0009848D01*
X0056572Y0009895D01*
X0056603Y0009945D01*
X0056630Y0009996D01*
X0056654Y0010049D01*
X0056675Y0010103D01*
X0056692Y0010159D01*
X0056705Y0010216D01*
X0056714Y0010273D01*
X0056720Y0010331D01*
X0056722Y0010389D01*
X0056720Y0010448D01*
X0056714Y0010506D01*
X0056705Y0010564D01*
X0056692Y0010621D01*
X0056675Y0010677D01*
X0056654Y0010732D01*
X0056630Y0010785D01*
X0056603Y0010837D01*
X0056572Y0010887D01*
X0056538Y0010935D01*
X0056502Y0010980D01*
X0056462Y0011023D01*
X0056419Y0011064D01*
X0056374Y0011101D01*
X0056327Y0011136D01*
X0056277Y0011167D01*
X0038394Y0050000D02*
X0036172Y0050000D01*
D11*
X0043850Y0040562D02*
X0043850Y0039718D01*
X0045750Y0039718D01*
X0044694Y0039718D02*
X0044694Y0040562D01*
X0044483Y0038500D02*
X0045750Y0038500D01*
X0045750Y0037972D01*
X0045748Y0037939D01*
X0045743Y0037906D01*
X0045734Y0037874D01*
X0045723Y0037843D01*
X0045708Y0037814D01*
X0045689Y0037786D01*
X0045669Y0037760D01*
X0045645Y0037736D01*
X0045619Y0037716D01*
X0045592Y0037697D01*
X0045562Y0037682D01*
X0045531Y0037671D01*
X0045499Y0037662D01*
X0045466Y0037657D01*
X0045433Y0037655D01*
X0044483Y0037655D01*
X0045750Y0036517D02*
X0045750Y0035462D01*
X0045750Y0035990D02*
X0043850Y0035990D01*
X0044272Y0035462D01*
X0045644Y0034530D02*
X0045750Y0034530D01*
X0045750Y0034425D01*
X0045644Y0034425D01*
X0045644Y0034530D01*
X0045486Y0032596D02*
X0045422Y0032567D01*
X0045356Y0032540D01*
X0045289Y0032516D01*
X0045221Y0032496D01*
X0045152Y0032478D01*
X0045083Y0032464D01*
X0045012Y0032452D01*
X0044942Y0032444D01*
X0044871Y0032440D01*
X0044800Y0032438D01*
X0044800Y0033494D02*
X0044729Y0033492D01*
X0044658Y0033488D01*
X0044588Y0033480D01*
X0044517Y0033468D01*
X0044448Y0033454D01*
X0044379Y0033436D01*
X0044311Y0033416D01*
X0044244Y0033392D01*
X0044178Y0033365D01*
X0044114Y0033336D01*
X0044272Y0033388D02*
X0045328Y0032544D01*
X0045750Y0032966D02*
X0045748Y0033003D01*
X0045743Y0033040D01*
X0045734Y0033076D01*
X0045722Y0033112D01*
X0045706Y0033146D01*
X0045688Y0033178D01*
X0045666Y0033208D01*
X0045642Y0033236D01*
X0045614Y0033262D01*
X0045585Y0033285D01*
X0045554Y0033305D01*
X0045520Y0033322D01*
X0045486Y0033336D01*
X0045750Y0032966D02*
X0045748Y0032929D01*
X0045743Y0032892D01*
X0045734Y0032856D01*
X0045722Y0032820D01*
X0045706Y0032786D01*
X0045688Y0032754D01*
X0045666Y0032724D01*
X0045642Y0032696D01*
X0045614Y0032670D01*
X0045585Y0032647D01*
X0045554Y0032627D01*
X0045520Y0032610D01*
X0045486Y0032596D01*
X0045486Y0033336D02*
X0045422Y0033365D01*
X0045356Y0033392D01*
X0045289Y0033416D01*
X0045221Y0033436D01*
X0045152Y0033454D01*
X0045083Y0033468D01*
X0045012Y0033480D01*
X0044942Y0033488D01*
X0044871Y0033492D01*
X0044800Y0033494D01*
X0044800Y0032438D02*
X0044729Y0032440D01*
X0044658Y0032444D01*
X0044588Y0032452D01*
X0044517Y0032464D01*
X0044448Y0032478D01*
X0044379Y0032496D01*
X0044311Y0032516D01*
X0044244Y0032540D01*
X0044178Y0032567D01*
X0044114Y0032596D01*
X0043850Y0032966D02*
X0043852Y0033003D01*
X0043857Y0033040D01*
X0043866Y0033076D01*
X0043878Y0033112D01*
X0043894Y0033146D01*
X0043912Y0033178D01*
X0043934Y0033208D01*
X0043959Y0033236D01*
X0043986Y0033262D01*
X0044015Y0033285D01*
X0044046Y0033305D01*
X0044080Y0033322D01*
X0044114Y0033336D01*
X0043850Y0032966D02*
X0043852Y0032929D01*
X0043857Y0032892D01*
X0043866Y0032856D01*
X0043878Y0032820D01*
X0043894Y0032786D01*
X0043912Y0032754D01*
X0043934Y0032724D01*
X0043959Y0032696D01*
X0043986Y0032670D01*
X0044015Y0032647D01*
X0044046Y0032627D01*
X0044080Y0032610D01*
X0044114Y0032596D01*
X0039150Y0032798D02*
X0039150Y0033854D01*
X0039150Y0033326D02*
X0037250Y0033326D01*
X0037672Y0032798D01*
X0038200Y0036014D02*
X0038271Y0036012D01*
X0038342Y0036008D01*
X0038412Y0036000D01*
X0038483Y0035988D01*
X0038552Y0035974D01*
X0038621Y0035956D01*
X0038689Y0035936D01*
X0038756Y0035912D01*
X0038822Y0035885D01*
X0038886Y0035856D01*
X0038920Y0035842D01*
X0038954Y0035825D01*
X0038985Y0035805D01*
X0039014Y0035782D01*
X0039042Y0035756D01*
X0039066Y0035728D01*
X0039088Y0035698D01*
X0039106Y0035666D01*
X0039122Y0035632D01*
X0039134Y0035596D01*
X0039143Y0035560D01*
X0039148Y0035523D01*
X0039150Y0035486D01*
X0039148Y0035449D01*
X0039143Y0035412D01*
X0039134Y0035376D01*
X0039122Y0035340D01*
X0039106Y0035306D01*
X0039088Y0035274D01*
X0039066Y0035244D01*
X0039042Y0035216D01*
X0039014Y0035190D01*
X0038985Y0035167D01*
X0038954Y0035147D01*
X0038920Y0035130D01*
X0038886Y0035116D01*
X0038728Y0035063D02*
X0037672Y0035908D01*
X0037514Y0035856D02*
X0037480Y0035842D01*
X0037446Y0035825D01*
X0037415Y0035805D01*
X0037386Y0035782D01*
X0037359Y0035756D01*
X0037334Y0035728D01*
X0037312Y0035698D01*
X0037294Y0035666D01*
X0037278Y0035632D01*
X0037266Y0035596D01*
X0037257Y0035560D01*
X0037252Y0035523D01*
X0037250Y0035486D01*
X0037252Y0035449D01*
X0037257Y0035412D01*
X0037266Y0035376D01*
X0037278Y0035340D01*
X0037294Y0035306D01*
X0037312Y0035274D01*
X0037334Y0035244D01*
X0037359Y0035216D01*
X0037386Y0035190D01*
X0037415Y0035167D01*
X0037446Y0035147D01*
X0037480Y0035130D01*
X0037514Y0035116D01*
X0037514Y0035856D02*
X0037578Y0035885D01*
X0037644Y0035912D01*
X0037711Y0035936D01*
X0037779Y0035956D01*
X0037848Y0035974D01*
X0037917Y0035988D01*
X0037988Y0036000D01*
X0038058Y0036008D01*
X0038129Y0036012D01*
X0038200Y0036014D01*
X0038200Y0034958D02*
X0038129Y0034960D01*
X0038058Y0034964D01*
X0037988Y0034972D01*
X0037917Y0034984D01*
X0037848Y0034998D01*
X0037779Y0035016D01*
X0037711Y0035036D01*
X0037644Y0035060D01*
X0037578Y0035087D01*
X0037514Y0035116D01*
X0038200Y0034958D02*
X0038271Y0034960D01*
X0038342Y0034964D01*
X0038412Y0034972D01*
X0038483Y0034984D01*
X0038552Y0034998D01*
X0038621Y0035016D01*
X0038689Y0035036D01*
X0038756Y0035060D01*
X0038822Y0035087D01*
X0038886Y0035116D01*
X0038886Y0038016D02*
X0038822Y0038045D01*
X0038756Y0038072D01*
X0038689Y0038096D01*
X0038621Y0038116D01*
X0038552Y0038134D01*
X0038483Y0038148D01*
X0038412Y0038160D01*
X0038342Y0038168D01*
X0038271Y0038172D01*
X0038200Y0038174D01*
X0038200Y0037118D02*
X0038129Y0037120D01*
X0038058Y0037124D01*
X0037988Y0037132D01*
X0037917Y0037144D01*
X0037848Y0037158D01*
X0037779Y0037176D01*
X0037711Y0037196D01*
X0037644Y0037220D01*
X0037578Y0037247D01*
X0037514Y0037276D01*
X0037250Y0037646D02*
X0037252Y0037683D01*
X0037257Y0037720D01*
X0037266Y0037756D01*
X0037278Y0037792D01*
X0037294Y0037826D01*
X0037312Y0037858D01*
X0037334Y0037888D01*
X0037359Y0037916D01*
X0037386Y0037942D01*
X0037415Y0037965D01*
X0037446Y0037985D01*
X0037480Y0038002D01*
X0037514Y0038016D01*
X0037672Y0038068D02*
X0038728Y0037223D01*
X0039150Y0037646D02*
X0039148Y0037683D01*
X0039143Y0037720D01*
X0039134Y0037756D01*
X0039122Y0037792D01*
X0039106Y0037826D01*
X0039088Y0037858D01*
X0039066Y0037888D01*
X0039042Y0037916D01*
X0039014Y0037942D01*
X0038985Y0037965D01*
X0038954Y0037985D01*
X0038920Y0038002D01*
X0038886Y0038016D01*
X0039150Y0037646D02*
X0039148Y0037609D01*
X0039143Y0037572D01*
X0039134Y0037536D01*
X0039122Y0037500D01*
X0039106Y0037466D01*
X0039088Y0037434D01*
X0039066Y0037404D01*
X0039042Y0037376D01*
X0039014Y0037350D01*
X0038985Y0037327D01*
X0038954Y0037307D01*
X0038920Y0037290D01*
X0038886Y0037276D01*
X0038200Y0038174D02*
X0038129Y0038172D01*
X0038058Y0038168D01*
X0037988Y0038160D01*
X0037917Y0038148D01*
X0037848Y0038134D01*
X0037779Y0038116D01*
X0037711Y0038096D01*
X0037644Y0038072D01*
X0037578Y0038045D01*
X0037514Y0038016D01*
X0037250Y0037646D02*
X0037252Y0037609D01*
X0037257Y0037572D01*
X0037266Y0037536D01*
X0037278Y0037500D01*
X0037294Y0037466D01*
X0037312Y0037434D01*
X0037334Y0037404D01*
X0037359Y0037376D01*
X0037386Y0037350D01*
X0037415Y0037327D01*
X0037446Y0037307D01*
X0037480Y0037290D01*
X0037514Y0037276D01*
X0038200Y0037118D02*
X0038271Y0037120D01*
X0038342Y0037124D01*
X0038412Y0037132D01*
X0038483Y0037144D01*
X0038552Y0037158D01*
X0038621Y0037176D01*
X0038689Y0037196D01*
X0038756Y0037220D01*
X0038822Y0037247D01*
X0038886Y0037276D01*
X0039150Y0039358D02*
X0037250Y0039358D01*
X0037883Y0040202D02*
X0038517Y0039358D01*
X0038253Y0039727D02*
X0039150Y0040202D01*
X0030750Y0038095D02*
X0030750Y0037040D01*
X0030750Y0037567D02*
X0028850Y0037567D01*
X0029272Y0037040D01*
X0029906Y0035538D02*
X0030750Y0035960D01*
X0029906Y0035433D02*
X0029906Y0034905D01*
X0029906Y0035433D02*
X0029904Y0035478D01*
X0029898Y0035522D01*
X0029889Y0035566D01*
X0029876Y0035609D01*
X0029859Y0035650D01*
X0029839Y0035691D01*
X0029815Y0035729D01*
X0029789Y0035765D01*
X0029759Y0035798D01*
X0029727Y0035829D01*
X0029692Y0035858D01*
X0029655Y0035883D01*
X0029616Y0035904D01*
X0029575Y0035923D01*
X0029533Y0035938D01*
X0029489Y0035949D01*
X0029445Y0035957D01*
X0029400Y0035961D01*
X0029356Y0035961D01*
X0029311Y0035957D01*
X0029267Y0035949D01*
X0029223Y0035938D01*
X0029181Y0035923D01*
X0029140Y0035904D01*
X0029101Y0035883D01*
X0029064Y0035858D01*
X0029029Y0035829D01*
X0028997Y0035798D01*
X0028967Y0035765D01*
X0028941Y0035729D01*
X0028917Y0035691D01*
X0028897Y0035650D01*
X0028880Y0035609D01*
X0028867Y0035566D01*
X0028858Y0035522D01*
X0028852Y0035478D01*
X0028850Y0035433D01*
X0028850Y0034905D01*
X0030750Y0034905D01*
X0033626Y0024374D02*
X0033626Y0023587D01*
X0034413Y0024374D01*
X0033626Y0024374D01*
X0034413Y0024374D02*
X0035201Y0024374D01*
X0033626Y0022799D01*
X0033626Y0022012D01*
X0035988Y0024374D01*
X0035201Y0024374D01*
X0035988Y0024374D02*
X0049374Y0024374D01*
X0049374Y0008626D01*
X0033626Y0008626D01*
X0033626Y0022012D01*
X0033626Y0022799D02*
X0033626Y0023587D01*
X0052250Y0035489D02*
X0052250Y0035911D01*
X0052250Y0035489D02*
X0052252Y0035450D01*
X0052257Y0035411D01*
X0052266Y0035373D01*
X0052279Y0035337D01*
X0052294Y0035301D01*
X0052313Y0035267D01*
X0052335Y0035235D01*
X0052360Y0035205D01*
X0052388Y0035177D01*
X0052418Y0035152D01*
X0052450Y0035130D01*
X0052484Y0035111D01*
X0052520Y0035095D01*
X0052557Y0035083D01*
X0052594Y0035074D01*
X0052633Y0035069D01*
X0052672Y0035067D01*
X0053728Y0035067D01*
X0053767Y0035069D01*
X0053806Y0035074D01*
X0053843Y0035083D01*
X0053880Y0035095D01*
X0053916Y0035111D01*
X0053950Y0035130D01*
X0053982Y0035152D01*
X0054012Y0035177D01*
X0054040Y0035205D01*
X0054065Y0035235D01*
X0054087Y0035267D01*
X0054106Y0035301D01*
X0054122Y0035337D01*
X0054134Y0035374D01*
X0054143Y0035411D01*
X0054148Y0035450D01*
X0054150Y0035489D01*
X0054150Y0035911D01*
X0054150Y0036878D02*
X0054150Y0037933D01*
X0054150Y0037406D02*
X0052250Y0037406D01*
X0052672Y0036878D01*
D12*
X0014000Y0006500D02*
X0009000Y0006500D01*
X0006500Y0009000D01*
X0006500Y0014000D01*
X0009000Y0016500D01*
X0006500Y0019000D01*
X0006500Y0024000D01*
X0009000Y0026500D01*
X0006500Y0029000D01*
X0006500Y0034000D01*
X0009000Y0036500D01*
X0006500Y0039000D01*
X0006500Y0044000D01*
X0009000Y0046500D01*
X0014000Y0046500D01*
X0016500Y0044000D01*
X0016500Y0039000D01*
X0014000Y0036500D01*
X0016500Y0034000D01*
X0016500Y0029000D01*
X0014000Y0026500D01*
X0016500Y0024000D01*
X0016500Y0019000D01*
X0014000Y0016500D01*
X0016500Y0014000D01*
X0016500Y0009000D01*
X0014000Y0006500D01*
X0066500Y0009000D02*
X0066500Y0014000D01*
X0069000Y0016500D01*
X0066500Y0019000D01*
X0066500Y0024000D01*
X0069000Y0026500D01*
X0066500Y0029000D01*
X0066500Y0034000D01*
X0069000Y0036500D01*
X0066500Y0039000D01*
X0066500Y0044000D01*
X0069000Y0046500D01*
X0074000Y0046500D01*
X0076500Y0044000D01*
X0076500Y0039000D01*
X0074000Y0036500D01*
X0076500Y0034000D01*
X0076500Y0029000D01*
X0074000Y0026500D01*
X0076500Y0024000D01*
X0076500Y0019000D01*
X0074000Y0016500D01*
X0076500Y0014000D01*
X0076500Y0009000D01*
X0074000Y0006500D01*
X0069000Y0006500D01*
X0066500Y0009000D01*
M02*
