G75*
%MOIN*%
%OFA0B0*%
%FSLAX25Y25*%
%IPPOS*%
%LPD*%
%AMOC8*
5,1,8,0,0,1.08239X$1,22.5*
%
%ADD10R,0.03937X0.04331*%
%ADD11C,0.07400*%
%ADD12R,0.02362X0.01181*%
%ADD13C,0.01000*%
%ADD14C,0.03378*%
D10*
X0034000Y0033154D03*
X0034000Y0039846D03*
X0049000Y0039846D03*
X0049000Y0033154D03*
D11*
X0071500Y0031500D03*
X0071500Y0021500D03*
X0071500Y0011500D03*
X0071500Y0041500D03*
X0011500Y0041500D03*
X0011500Y0031500D03*
X0011500Y0021500D03*
X0011500Y0011500D03*
D12*
X0034020Y0011776D03*
X0034020Y0014925D03*
X0034020Y0018075D03*
X0034020Y0021224D03*
X0048980Y0021224D03*
X0048980Y0018075D03*
X0048980Y0014925D03*
X0048980Y0011776D03*
D13*
X0076667Y0004496D02*
X0006333Y0004496D01*
X0006828Y0004000D02*
X0004000Y0006828D01*
X0004000Y0046172D01*
X0006828Y0049000D01*
X0076172Y0049000D01*
X0079000Y0046172D01*
X0079000Y0006828D01*
X0076172Y0004000D01*
X0006828Y0004000D01*
X0005334Y0005494D02*
X0077666Y0005494D01*
X0078664Y0006493D02*
X0072999Y0006493D01*
X0072534Y0006300D02*
X0074446Y0007092D01*
X0075908Y0008554D01*
X0076700Y0010466D01*
X0076700Y0012534D01*
X0075908Y0014446D01*
X0074446Y0015908D01*
X0073017Y0016500D01*
X0074446Y0017092D01*
X0075908Y0018554D01*
X0076700Y0020466D01*
X0076700Y0022534D01*
X0075908Y0024446D01*
X0074446Y0025908D01*
X0073017Y0026500D01*
X0074446Y0027092D01*
X0075908Y0028554D01*
X0076700Y0030466D01*
X0076700Y0032534D01*
X0075908Y0034446D01*
X0074446Y0035908D01*
X0073017Y0036500D01*
X0074446Y0037092D01*
X0075908Y0038554D01*
X0076700Y0040466D01*
X0076700Y0042534D01*
X0075908Y0044446D01*
X0074446Y0045908D01*
X0072534Y0046700D01*
X0070466Y0046700D01*
X0068554Y0045908D01*
X0067092Y0044446D01*
X0066700Y0043500D01*
X0065172Y0043500D01*
X0064000Y0042328D01*
X0062230Y0040559D01*
X0060919Y0041410D01*
X0060482Y0041846D01*
X0060245Y0041846D01*
X0060047Y0041975D01*
X0059443Y0041846D01*
X0052468Y0041846D01*
X0052468Y0042633D01*
X0051590Y0043512D01*
X0046410Y0043512D01*
X0045531Y0042633D01*
X0045531Y0041846D01*
X0037468Y0041846D01*
X0037468Y0042633D01*
X0036590Y0043512D01*
X0031410Y0043512D01*
X0030531Y0042633D01*
X0030531Y0037060D01*
X0031091Y0036500D01*
X0030531Y0035940D01*
X0030531Y0035154D01*
X0022500Y0035154D01*
X0022500Y0038828D01*
X0017828Y0043500D01*
X0016300Y0043500D01*
X0015908Y0044446D01*
X0014446Y0045908D01*
X0012534Y0046700D01*
X0010466Y0046700D01*
X0008554Y0045908D01*
X0007092Y0044446D01*
X0006300Y0042534D01*
X0006300Y0040466D01*
X0007092Y0038554D01*
X0008554Y0037092D01*
X0009983Y0036500D01*
X0008554Y0035908D01*
X0007092Y0034446D01*
X0006300Y0032534D01*
X0006300Y0030466D01*
X0007092Y0028554D01*
X0008554Y0027092D01*
X0009983Y0026500D01*
X0008554Y0025908D01*
X0007092Y0024446D01*
X0006300Y0022534D01*
X0006300Y0020466D01*
X0007092Y0018554D01*
X0008554Y0017092D01*
X0010017Y0016486D01*
X0009504Y0016319D01*
X0008775Y0015947D01*
X0008112Y0015466D01*
X0007534Y0014888D01*
X0007053Y0014225D01*
X0006681Y0013496D01*
X0006428Y0012718D01*
X0006314Y0012000D01*
X0011000Y0012000D01*
X0011000Y0011000D01*
X0012000Y0011000D01*
X0012000Y0012000D01*
X0016686Y0012000D01*
X0016572Y0012718D01*
X0016319Y0013496D01*
X0015947Y0014225D01*
X0015466Y0014888D01*
X0014888Y0015466D01*
X0014225Y0015947D01*
X0013496Y0016319D01*
X0012983Y0016486D01*
X0014187Y0016985D01*
X0018246Y0012925D01*
X0031435Y0012925D01*
X0031339Y0012564D01*
X0031339Y0011776D01*
X0034020Y0011776D01*
X0036701Y0011776D01*
X0036701Y0012564D01*
X0036599Y0012945D01*
X0036401Y0013287D01*
X0036338Y0013350D01*
X0036701Y0013713D01*
X0036701Y0016137D01*
X0036338Y0016500D01*
X0036701Y0016863D01*
X0036701Y0019287D01*
X0036338Y0019650D01*
X0036701Y0020013D01*
X0036701Y0022436D01*
X0035822Y0023315D01*
X0032217Y0023315D01*
X0032127Y0023224D01*
X0027604Y0023224D01*
X0022500Y0028328D01*
X0022500Y0030672D01*
X0022982Y0031154D01*
X0030531Y0031154D01*
X0030531Y0030367D01*
X0031410Y0029488D01*
X0036590Y0029488D01*
X0037468Y0030367D01*
X0037468Y0035940D01*
X0036909Y0036500D01*
X0037468Y0037060D01*
X0037468Y0037846D01*
X0045531Y0037846D01*
X0045531Y0037060D01*
X0046091Y0036500D01*
X0045831Y0036240D01*
X0045634Y0035898D01*
X0045531Y0035516D01*
X0045531Y0033638D01*
X0048516Y0033638D01*
X0048516Y0032669D01*
X0049484Y0032669D01*
X0049484Y0029488D01*
X0051166Y0029488D01*
X0051547Y0029590D01*
X0051890Y0029788D01*
X0052169Y0030067D01*
X0052366Y0030409D01*
X0052468Y0030791D01*
X0052468Y0032669D01*
X0049484Y0032669D01*
X0049484Y0033638D01*
X0052468Y0033638D01*
X0052468Y0035516D01*
X0052366Y0035898D01*
X0052169Y0036240D01*
X0051909Y0036500D01*
X0052468Y0037060D01*
X0052468Y0037846D01*
X0059062Y0037846D01*
X0060500Y0036913D01*
X0060500Y0029828D01*
X0053896Y0023224D01*
X0050873Y0023224D01*
X0050783Y0023315D01*
X0047178Y0023315D01*
X0046299Y0022436D01*
X0046299Y0020013D01*
X0046662Y0019650D01*
X0046299Y0019287D01*
X0046299Y0016863D01*
X0046662Y0016500D01*
X0046299Y0016137D01*
X0046299Y0013713D01*
X0046662Y0013350D01*
X0046299Y0012987D01*
X0046299Y0010564D01*
X0047178Y0009685D01*
X0050783Y0009685D01*
X0050873Y0009776D01*
X0066586Y0009776D01*
X0067092Y0008554D01*
X0068554Y0007092D01*
X0070466Y0006300D01*
X0072534Y0006300D01*
X0070001Y0006493D02*
X0012916Y0006493D01*
X0012718Y0006428D02*
X0012000Y0006314D01*
X0012000Y0011000D01*
X0016686Y0011000D01*
X0016572Y0010282D01*
X0016319Y0009504D01*
X0015947Y0008775D01*
X0015466Y0008112D01*
X0014888Y0007534D01*
X0014225Y0007053D01*
X0013496Y0006681D01*
X0012718Y0006428D01*
X0012000Y0006493D02*
X0011000Y0006493D01*
X0011000Y0006314D02*
X0010282Y0006428D01*
X0009504Y0006681D01*
X0008775Y0007053D01*
X0008112Y0007534D01*
X0007534Y0008112D01*
X0007053Y0008775D01*
X0006681Y0009504D01*
X0006428Y0010282D01*
X0006314Y0011000D01*
X0011000Y0011000D01*
X0011000Y0006314D01*
X0010084Y0006493D02*
X0004336Y0006493D01*
X0004000Y0007491D02*
X0008171Y0007491D01*
X0007260Y0008490D02*
X0004000Y0008490D01*
X0004000Y0009488D02*
X0006689Y0009488D01*
X0006396Y0010487D02*
X0004000Y0010487D01*
X0004000Y0011485D02*
X0011000Y0011485D01*
X0011500Y0011500D02*
X0011776Y0011776D01*
X0034020Y0011776D01*
X0034020Y0011776D01*
X0036701Y0011776D01*
X0036701Y0010988D01*
X0036599Y0010606D01*
X0036401Y0010264D01*
X0036122Y0009985D01*
X0035780Y0009787D01*
X0035398Y0009685D01*
X0034020Y0009685D01*
X0034020Y0011775D01*
X0034020Y0011775D01*
X0034020Y0009685D01*
X0032641Y0009685D01*
X0032260Y0009787D01*
X0031918Y0009985D01*
X0031638Y0010264D01*
X0031441Y0010606D01*
X0031339Y0010988D01*
X0031339Y0011776D01*
X0034020Y0011776D01*
X0034020Y0011776D01*
X0034020Y0011485D02*
X0034020Y0011485D01*
X0034020Y0010487D02*
X0034020Y0010487D01*
X0031510Y0010487D02*
X0016604Y0010487D01*
X0016311Y0009488D02*
X0066705Y0009488D01*
X0067156Y0008490D02*
X0015740Y0008490D01*
X0014829Y0007491D02*
X0068155Y0007491D01*
X0071500Y0011500D02*
X0071224Y0011776D01*
X0048980Y0011776D01*
X0046299Y0011485D02*
X0036701Y0011485D01*
X0036701Y0012484D02*
X0046299Y0012484D01*
X0046530Y0013482D02*
X0036470Y0013482D01*
X0036701Y0014481D02*
X0046299Y0014481D01*
X0046299Y0015479D02*
X0036701Y0015479D01*
X0036360Y0016478D02*
X0046640Y0016478D01*
X0046299Y0017476D02*
X0036701Y0017476D01*
X0036701Y0018475D02*
X0046299Y0018475D01*
X0046486Y0019473D02*
X0036514Y0019473D01*
X0036701Y0020472D02*
X0046299Y0020472D01*
X0046299Y0021470D02*
X0036701Y0021470D01*
X0036668Y0022469D02*
X0046332Y0022469D01*
X0048980Y0021224D02*
X0054724Y0021224D01*
X0062500Y0029000D01*
X0062500Y0038000D01*
X0059654Y0039846D01*
X0049000Y0039846D01*
X0034000Y0039846D01*
X0030531Y0039443D02*
X0021885Y0039443D01*
X0022500Y0038445D02*
X0030531Y0038445D01*
X0030531Y0037446D02*
X0022500Y0037446D01*
X0022500Y0036448D02*
X0031039Y0036448D01*
X0030531Y0035449D02*
X0022500Y0035449D01*
X0020500Y0038000D02*
X0017000Y0041500D01*
X0011500Y0041500D01*
X0006674Y0043437D02*
X0004000Y0043437D01*
X0004000Y0042439D02*
X0006300Y0042439D01*
X0006300Y0041440D02*
X0004000Y0041440D01*
X0004000Y0040442D02*
X0006310Y0040442D01*
X0006723Y0039443D02*
X0004000Y0039443D01*
X0004000Y0038445D02*
X0007201Y0038445D01*
X0008200Y0037446D02*
X0004000Y0037446D01*
X0004000Y0036448D02*
X0009857Y0036448D01*
X0008095Y0035449D02*
X0004000Y0035449D01*
X0004000Y0034451D02*
X0007097Y0034451D01*
X0006680Y0033452D02*
X0004000Y0033452D01*
X0004000Y0032454D02*
X0006300Y0032454D01*
X0006300Y0031455D02*
X0004000Y0031455D01*
X0004000Y0030457D02*
X0006304Y0030457D01*
X0006717Y0029458D02*
X0004000Y0029458D01*
X0004000Y0028460D02*
X0007186Y0028460D01*
X0008185Y0027461D02*
X0004000Y0027461D01*
X0004000Y0026463D02*
X0009893Y0026463D01*
X0008110Y0025464D02*
X0004000Y0025464D01*
X0004000Y0024466D02*
X0007112Y0024466D01*
X0006686Y0023467D02*
X0004000Y0023467D01*
X0004000Y0022469D02*
X0006300Y0022469D01*
X0006300Y0021470D02*
X0004000Y0021470D01*
X0004000Y0020472D02*
X0006300Y0020472D01*
X0006711Y0019473D02*
X0004000Y0019473D01*
X0004000Y0018475D02*
X0007171Y0018475D01*
X0008170Y0017476D02*
X0004000Y0017476D01*
X0004000Y0016478D02*
X0009992Y0016478D01*
X0008130Y0015479D02*
X0004000Y0015479D01*
X0004000Y0014481D02*
X0007238Y0014481D01*
X0006676Y0013482D02*
X0004000Y0013482D01*
X0004000Y0012484D02*
X0006391Y0012484D01*
X0011000Y0010487D02*
X0012000Y0010487D01*
X0012000Y0011485D02*
X0031339Y0011485D01*
X0031339Y0012484D02*
X0016609Y0012484D01*
X0016324Y0013482D02*
X0017689Y0013482D01*
X0016691Y0014481D02*
X0015762Y0014481D01*
X0015692Y0015479D02*
X0014870Y0015479D01*
X0014694Y0016478D02*
X0013008Y0016478D01*
X0012500Y0021500D02*
X0019075Y0014925D01*
X0034020Y0014925D01*
X0034020Y0018075D02*
X0022425Y0018075D01*
X0022000Y0018500D01*
X0022000Y0021000D01*
X0011500Y0031500D01*
X0020500Y0031500D02*
X0020500Y0027500D01*
X0026776Y0021224D01*
X0034020Y0021224D01*
X0027361Y0023467D02*
X0054139Y0023467D01*
X0055137Y0024466D02*
X0026363Y0024466D01*
X0025364Y0025464D02*
X0056136Y0025464D01*
X0057134Y0026463D02*
X0024366Y0026463D01*
X0023367Y0027461D02*
X0058133Y0027461D01*
X0059131Y0028460D02*
X0022500Y0028460D01*
X0022500Y0029458D02*
X0060130Y0029458D01*
X0060500Y0030457D02*
X0052379Y0030457D01*
X0052468Y0031455D02*
X0060500Y0031455D01*
X0060500Y0032454D02*
X0052468Y0032454D01*
X0052468Y0034451D02*
X0060500Y0034451D01*
X0060500Y0035449D02*
X0052468Y0035449D01*
X0051961Y0036448D02*
X0060500Y0036448D01*
X0059678Y0037446D02*
X0052468Y0037446D01*
X0049484Y0033452D02*
X0060500Y0033452D01*
X0062500Y0038000D02*
X0066000Y0041500D01*
X0071500Y0041500D01*
X0076326Y0043437D02*
X0079000Y0043437D01*
X0079000Y0042439D02*
X0076700Y0042439D01*
X0076700Y0041440D02*
X0079000Y0041440D01*
X0079000Y0040442D02*
X0076690Y0040442D01*
X0076277Y0039443D02*
X0079000Y0039443D01*
X0079000Y0038445D02*
X0075799Y0038445D01*
X0074800Y0037446D02*
X0079000Y0037446D01*
X0079000Y0036448D02*
X0073143Y0036448D01*
X0074905Y0035449D02*
X0079000Y0035449D01*
X0079000Y0034451D02*
X0075903Y0034451D01*
X0076320Y0033452D02*
X0079000Y0033452D01*
X0079000Y0032454D02*
X0076700Y0032454D01*
X0076700Y0031455D02*
X0079000Y0031455D01*
X0079000Y0030457D02*
X0076696Y0030457D01*
X0076283Y0029458D02*
X0079000Y0029458D01*
X0079000Y0028460D02*
X0075814Y0028460D01*
X0074815Y0027461D02*
X0079000Y0027461D01*
X0079000Y0026463D02*
X0073107Y0026463D01*
X0074890Y0025464D02*
X0079000Y0025464D01*
X0079000Y0024466D02*
X0075888Y0024466D01*
X0076314Y0023467D02*
X0079000Y0023467D01*
X0079000Y0022469D02*
X0076700Y0022469D01*
X0076700Y0021470D02*
X0079000Y0021470D01*
X0079000Y0020472D02*
X0076700Y0020472D01*
X0076289Y0019473D02*
X0079000Y0019473D01*
X0079000Y0018475D02*
X0075829Y0018475D01*
X0074830Y0017476D02*
X0079000Y0017476D01*
X0079000Y0016478D02*
X0073071Y0016478D01*
X0074875Y0015479D02*
X0079000Y0015479D01*
X0079000Y0014481D02*
X0075873Y0014481D01*
X0076307Y0013482D02*
X0079000Y0013482D01*
X0079000Y0012484D02*
X0076700Y0012484D01*
X0076700Y0011485D02*
X0079000Y0011485D01*
X0079000Y0010487D02*
X0076700Y0010487D01*
X0076295Y0009488D02*
X0079000Y0009488D01*
X0079000Y0008490D02*
X0075843Y0008490D01*
X0074845Y0007491D02*
X0079000Y0007491D01*
X0071500Y0021500D02*
X0064925Y0014925D01*
X0048980Y0014925D01*
X0048980Y0018075D02*
X0058075Y0018075D01*
X0071500Y0031500D01*
X0063112Y0041440D02*
X0060888Y0041440D01*
X0064111Y0042439D02*
X0052468Y0042439D01*
X0051664Y0043437D02*
X0065109Y0043437D01*
X0067088Y0044436D02*
X0015912Y0044436D01*
X0014919Y0045434D02*
X0068081Y0045434D01*
X0069821Y0046433D02*
X0013179Y0046433D01*
X0009821Y0046433D02*
X0004261Y0046433D01*
X0004000Y0045434D02*
X0008081Y0045434D01*
X0007088Y0044436D02*
X0004000Y0044436D01*
X0005260Y0047432D02*
X0077740Y0047432D01*
X0076742Y0048430D02*
X0006258Y0048430D01*
X0017891Y0043437D02*
X0031336Y0043437D01*
X0030531Y0042439D02*
X0018889Y0042439D01*
X0019888Y0041440D02*
X0030531Y0041440D01*
X0030531Y0040442D02*
X0020886Y0040442D01*
X0020500Y0038000D02*
X0020500Y0031500D01*
X0022154Y0033154D01*
X0034000Y0033154D01*
X0037468Y0033452D02*
X0048516Y0033452D01*
X0049000Y0033154D02*
X0044654Y0033154D01*
X0041500Y0029000D01*
X0037468Y0030457D02*
X0045621Y0030457D01*
X0045634Y0030409D02*
X0045831Y0030067D01*
X0046110Y0029788D01*
X0046453Y0029590D01*
X0046834Y0029488D01*
X0048516Y0029488D01*
X0048516Y0032669D01*
X0045531Y0032669D01*
X0045531Y0030791D01*
X0045634Y0030409D01*
X0045531Y0031455D02*
X0037468Y0031455D01*
X0037468Y0032454D02*
X0045531Y0032454D01*
X0045531Y0034451D02*
X0037468Y0034451D01*
X0037468Y0035449D02*
X0045531Y0035449D01*
X0046039Y0036448D02*
X0036961Y0036448D01*
X0037468Y0037446D02*
X0045531Y0037446D01*
X0048516Y0032454D02*
X0049484Y0032454D01*
X0049484Y0031455D02*
X0048516Y0031455D01*
X0048516Y0030457D02*
X0049484Y0030457D01*
X0045531Y0042439D02*
X0037468Y0042439D01*
X0036664Y0043437D02*
X0046336Y0043437D01*
X0030531Y0030457D02*
X0022500Y0030457D01*
X0012500Y0021500D02*
X0011500Y0021500D01*
X0011000Y0009488D02*
X0012000Y0009488D01*
X0012000Y0008490D02*
X0011000Y0008490D01*
X0011000Y0007491D02*
X0012000Y0007491D01*
X0036530Y0010487D02*
X0046376Y0010487D01*
X0075912Y0044436D02*
X0079000Y0044436D01*
X0079000Y0045434D02*
X0074919Y0045434D01*
X0073179Y0046433D02*
X0078739Y0046433D01*
D14*
X0041500Y0029000D03*
M02*
