G75*
%MOIN*%
%OFA0B0*%
%FSLAX25Y25*%
%IPPOS*%
%LPD*%
%AMOC8*
5,1,8,0,0,1.08239X$1,22.5*
%
%ADD10C,0.07400*%
%ADD11C,0.03378*%
%ADD12C,0.01000*%
D10*
X0011500Y0011500D03*
X0011500Y0021500D03*
X0011500Y0031500D03*
X0011500Y0041500D03*
X0071500Y0041500D03*
X0071500Y0031500D03*
X0071500Y0021500D03*
X0071500Y0011500D03*
D11*
X0041500Y0029000D03*
D12*
X0006333Y0004496D02*
X0076667Y0004496D01*
X0076172Y0004000D02*
X0006828Y0004000D01*
X0004000Y0006828D01*
X0004000Y0046172D01*
X0006828Y0049000D01*
X0076172Y0049000D01*
X0079000Y0046172D01*
X0079000Y0006828D01*
X0076172Y0004000D01*
X0077666Y0005494D02*
X0005334Y0005494D01*
X0004336Y0006493D02*
X0010084Y0006493D01*
X0010282Y0006428D02*
X0009504Y0006681D01*
X0008775Y0007053D01*
X0008112Y0007534D01*
X0007534Y0008112D01*
X0007053Y0008775D01*
X0006681Y0009504D01*
X0006428Y0010282D01*
X0006314Y0011000D01*
X0011000Y0011000D01*
X0011000Y0012000D01*
X0006314Y0012000D01*
X0006428Y0012718D01*
X0006681Y0013496D01*
X0007053Y0014225D01*
X0007534Y0014888D01*
X0008112Y0015466D01*
X0008775Y0015947D01*
X0009504Y0016319D01*
X0010017Y0016486D01*
X0008554Y0017092D01*
X0007092Y0018554D01*
X0006300Y0020466D01*
X0006300Y0022534D01*
X0007092Y0024446D01*
X0008554Y0025908D01*
X0009983Y0026500D01*
X0008554Y0027092D01*
X0007092Y0028554D01*
X0006300Y0030466D01*
X0006300Y0032534D01*
X0007092Y0034446D01*
X0008554Y0035908D01*
X0009983Y0036500D01*
X0008554Y0037092D01*
X0007092Y0038554D01*
X0006300Y0040466D01*
X0006300Y0042534D01*
X0007092Y0044446D01*
X0008554Y0045908D01*
X0010466Y0046700D01*
X0012534Y0046700D01*
X0014446Y0045908D01*
X0015908Y0044446D01*
X0016700Y0042534D01*
X0016700Y0040466D01*
X0015908Y0038554D01*
X0014446Y0037092D01*
X0013017Y0036500D01*
X0014446Y0035908D01*
X0015908Y0034446D01*
X0016700Y0032534D01*
X0016700Y0030466D01*
X0015908Y0028554D01*
X0014446Y0027092D01*
X0013017Y0026500D01*
X0014446Y0025908D01*
X0015908Y0024446D01*
X0016700Y0022534D01*
X0016700Y0020466D01*
X0015908Y0018554D01*
X0014446Y0017092D01*
X0012983Y0016486D01*
X0013496Y0016319D01*
X0014225Y0015947D01*
X0014888Y0015466D01*
X0015466Y0014888D01*
X0015947Y0014225D01*
X0016319Y0013496D01*
X0016572Y0012718D01*
X0016686Y0012000D01*
X0012000Y0012000D01*
X0012000Y0011000D01*
X0016686Y0011000D01*
X0016572Y0010282D01*
X0016319Y0009504D01*
X0015947Y0008775D01*
X0015466Y0008112D01*
X0014888Y0007534D01*
X0014225Y0007053D01*
X0013496Y0006681D01*
X0012718Y0006428D01*
X0012000Y0006314D01*
X0012000Y0011000D01*
X0011000Y0011000D01*
X0011000Y0006314D01*
X0010282Y0006428D01*
X0011000Y0006493D02*
X0012000Y0006493D01*
X0012916Y0006493D02*
X0070001Y0006493D01*
X0070466Y0006300D02*
X0072534Y0006300D01*
X0074446Y0007092D01*
X0075908Y0008554D01*
X0076700Y0010466D01*
X0076700Y0012534D01*
X0075908Y0014446D01*
X0074446Y0015908D01*
X0073017Y0016500D01*
X0074446Y0017092D01*
X0075908Y0018554D01*
X0076700Y0020466D01*
X0076700Y0022534D01*
X0075908Y0024446D01*
X0074446Y0025908D01*
X0073017Y0026500D01*
X0074446Y0027092D01*
X0075908Y0028554D01*
X0076700Y0030466D01*
X0076700Y0032534D01*
X0075908Y0034446D01*
X0074446Y0035908D01*
X0073017Y0036500D01*
X0074446Y0037092D01*
X0075908Y0038554D01*
X0076700Y0040466D01*
X0076700Y0042534D01*
X0075908Y0044446D01*
X0074446Y0045908D01*
X0072534Y0046700D01*
X0070466Y0046700D01*
X0068554Y0045908D01*
X0067092Y0044446D01*
X0066300Y0042534D01*
X0066300Y0040466D01*
X0067092Y0038554D01*
X0068554Y0037092D01*
X0069983Y0036500D01*
X0068554Y0035908D01*
X0067092Y0034446D01*
X0066300Y0032534D01*
X0066300Y0030466D01*
X0067092Y0028554D01*
X0068554Y0027092D01*
X0069983Y0026500D01*
X0068554Y0025908D01*
X0067092Y0024446D01*
X0066300Y0022534D01*
X0066300Y0020466D01*
X0067092Y0018554D01*
X0068554Y0017092D01*
X0069983Y0016500D01*
X0068554Y0015908D01*
X0067092Y0014446D01*
X0066300Y0012534D01*
X0066300Y0010466D01*
X0067092Y0008554D01*
X0068554Y0007092D01*
X0070466Y0006300D01*
X0068155Y0007491D02*
X0014829Y0007491D01*
X0015740Y0008490D02*
X0067156Y0008490D01*
X0066705Y0009488D02*
X0016311Y0009488D01*
X0016604Y0010487D02*
X0066300Y0010487D01*
X0066300Y0011485D02*
X0012000Y0011485D01*
X0011500Y0011500D02*
X0016500Y0006500D01*
X0036500Y0006500D01*
X0041500Y0011500D01*
X0041500Y0029000D01*
X0016696Y0030457D02*
X0066304Y0030457D01*
X0066300Y0031455D02*
X0016700Y0031455D01*
X0016700Y0032454D02*
X0066300Y0032454D01*
X0066680Y0033452D02*
X0016320Y0033452D01*
X0015903Y0034451D02*
X0067097Y0034451D01*
X0068095Y0035449D02*
X0014905Y0035449D01*
X0013143Y0036448D02*
X0069857Y0036448D01*
X0068200Y0037446D02*
X0014800Y0037446D01*
X0015799Y0038445D02*
X0067201Y0038445D01*
X0066723Y0039443D02*
X0016277Y0039443D01*
X0016690Y0040442D02*
X0066310Y0040442D01*
X0066300Y0041440D02*
X0016700Y0041440D01*
X0016700Y0042439D02*
X0066300Y0042439D01*
X0066674Y0043437D02*
X0016326Y0043437D01*
X0015912Y0044436D02*
X0067088Y0044436D01*
X0068081Y0045434D02*
X0014919Y0045434D01*
X0013179Y0046433D02*
X0069821Y0046433D01*
X0073179Y0046433D02*
X0078739Y0046433D01*
X0079000Y0045434D02*
X0074919Y0045434D01*
X0075912Y0044436D02*
X0079000Y0044436D01*
X0079000Y0043437D02*
X0076326Y0043437D01*
X0076700Y0042439D02*
X0079000Y0042439D01*
X0079000Y0041440D02*
X0076700Y0041440D01*
X0076690Y0040442D02*
X0079000Y0040442D01*
X0079000Y0039443D02*
X0076277Y0039443D01*
X0075799Y0038445D02*
X0079000Y0038445D01*
X0079000Y0037446D02*
X0074800Y0037446D01*
X0073143Y0036448D02*
X0079000Y0036448D01*
X0079000Y0035449D02*
X0074905Y0035449D01*
X0075903Y0034451D02*
X0079000Y0034451D01*
X0079000Y0033452D02*
X0076320Y0033452D01*
X0076700Y0032454D02*
X0079000Y0032454D01*
X0079000Y0031455D02*
X0076700Y0031455D01*
X0076696Y0030457D02*
X0079000Y0030457D01*
X0079000Y0029458D02*
X0076283Y0029458D01*
X0075814Y0028460D02*
X0079000Y0028460D01*
X0079000Y0027461D02*
X0074815Y0027461D01*
X0073107Y0026463D02*
X0079000Y0026463D01*
X0079000Y0025464D02*
X0074890Y0025464D01*
X0075888Y0024466D02*
X0079000Y0024466D01*
X0079000Y0023467D02*
X0076314Y0023467D01*
X0076700Y0022469D02*
X0079000Y0022469D01*
X0079000Y0021470D02*
X0076700Y0021470D01*
X0076700Y0020472D02*
X0079000Y0020472D01*
X0079000Y0019473D02*
X0076289Y0019473D01*
X0075829Y0018475D02*
X0079000Y0018475D01*
X0079000Y0017476D02*
X0074830Y0017476D01*
X0073071Y0016478D02*
X0079000Y0016478D01*
X0079000Y0015479D02*
X0074875Y0015479D01*
X0075873Y0014481D02*
X0079000Y0014481D01*
X0079000Y0013482D02*
X0076307Y0013482D01*
X0076700Y0012484D02*
X0079000Y0012484D01*
X0079000Y0011485D02*
X0076700Y0011485D01*
X0076700Y0010487D02*
X0079000Y0010487D01*
X0079000Y0009488D02*
X0076295Y0009488D01*
X0075843Y0008490D02*
X0079000Y0008490D01*
X0079000Y0007491D02*
X0074845Y0007491D01*
X0072999Y0006493D02*
X0078664Y0006493D01*
X0066693Y0013482D02*
X0016324Y0013482D01*
X0015762Y0014481D02*
X0067127Y0014481D01*
X0068125Y0015479D02*
X0014870Y0015479D01*
X0013008Y0016478D02*
X0069929Y0016478D01*
X0068170Y0017476D02*
X0014830Y0017476D01*
X0015829Y0018475D02*
X0067171Y0018475D01*
X0066711Y0019473D02*
X0016289Y0019473D01*
X0016700Y0020472D02*
X0066300Y0020472D01*
X0066300Y0021470D02*
X0016700Y0021470D01*
X0016700Y0022469D02*
X0066300Y0022469D01*
X0066686Y0023467D02*
X0016314Y0023467D01*
X0015888Y0024466D02*
X0067112Y0024466D01*
X0068110Y0025464D02*
X0014890Y0025464D01*
X0013107Y0026463D02*
X0069893Y0026463D01*
X0068185Y0027461D02*
X0014815Y0027461D01*
X0015814Y0028460D02*
X0067186Y0028460D01*
X0066717Y0029458D02*
X0016283Y0029458D01*
X0009893Y0026463D02*
X0004000Y0026463D01*
X0004000Y0027461D02*
X0008185Y0027461D01*
X0007186Y0028460D02*
X0004000Y0028460D01*
X0004000Y0029458D02*
X0006717Y0029458D01*
X0006304Y0030457D02*
X0004000Y0030457D01*
X0004000Y0031455D02*
X0006300Y0031455D01*
X0006300Y0032454D02*
X0004000Y0032454D01*
X0004000Y0033452D02*
X0006680Y0033452D01*
X0007097Y0034451D02*
X0004000Y0034451D01*
X0004000Y0035449D02*
X0008095Y0035449D01*
X0009857Y0036448D02*
X0004000Y0036448D01*
X0004000Y0037446D02*
X0008200Y0037446D01*
X0007201Y0038445D02*
X0004000Y0038445D01*
X0004000Y0039443D02*
X0006723Y0039443D01*
X0006310Y0040442D02*
X0004000Y0040442D01*
X0004000Y0041440D02*
X0006300Y0041440D01*
X0006300Y0042439D02*
X0004000Y0042439D01*
X0004000Y0043437D02*
X0006674Y0043437D01*
X0007088Y0044436D02*
X0004000Y0044436D01*
X0004000Y0045434D02*
X0008081Y0045434D01*
X0009821Y0046433D02*
X0004261Y0046433D01*
X0005260Y0047432D02*
X0077740Y0047432D01*
X0076742Y0048430D02*
X0006258Y0048430D01*
X0008110Y0025464D02*
X0004000Y0025464D01*
X0004000Y0024466D02*
X0007112Y0024466D01*
X0006686Y0023467D02*
X0004000Y0023467D01*
X0004000Y0022469D02*
X0006300Y0022469D01*
X0006300Y0021470D02*
X0004000Y0021470D01*
X0004000Y0020472D02*
X0006300Y0020472D01*
X0006711Y0019473D02*
X0004000Y0019473D01*
X0004000Y0018475D02*
X0007171Y0018475D01*
X0008170Y0017476D02*
X0004000Y0017476D01*
X0004000Y0016478D02*
X0009992Y0016478D01*
X0008130Y0015479D02*
X0004000Y0015479D01*
X0004000Y0014481D02*
X0007238Y0014481D01*
X0006676Y0013482D02*
X0004000Y0013482D01*
X0004000Y0012484D02*
X0006391Y0012484D01*
X0004000Y0011485D02*
X0011000Y0011485D01*
X0011000Y0010487D02*
X0012000Y0010487D01*
X0012000Y0009488D02*
X0011000Y0009488D01*
X0011000Y0008490D02*
X0012000Y0008490D01*
X0012000Y0007491D02*
X0011000Y0007491D01*
X0008171Y0007491D02*
X0004000Y0007491D01*
X0004000Y0008490D02*
X0007260Y0008490D01*
X0006689Y0009488D02*
X0004000Y0009488D01*
X0004000Y0010487D02*
X0006396Y0010487D01*
X0016609Y0012484D02*
X0066300Y0012484D01*
M02*
